<?xml version="1.0" encoding="utf-8"?>
<!-- Generator: Adobe Illustrator 22.1.0, SVG Export Plug-In . SVG Version: 6.00 Build 0)  -->
<svg version="1.1" xmlns="http://www.w3.org/2000/svg" xmlns:xlink="http://www.w3.org/1999/xlink" x="0px" y="0px"
	 viewBox="0 0 1225.9 1225.9" style="enable-background:new 0 0 1225.9 1225.9;" xml:space="preserve">
<style type="text/css">
	.st0{fill:#EFEFEF;}
	.st1{stroke:#FFFFFF;stroke-miterlimit:10;}
	.st2{fill:url(#SVGID_1_);}
</style>
<g id="Layer_2">
	<path class="st0" d="M97.2,651.5c-27.4-144.4,150.8-320,284-315c45.3,1.7,68.2,23.6,151,25c70.4,1.1,90.5-14.1,144-12
		c47.6,1.9,89.6,16.2,177,66c174.4,99.4,314.2,179.1,301,257c-3.7,21.7-26.8,41.1-73,80c-66.7,56.1-92,52.6-178,113
		c-64.6,45.4-67,59.1-102,68c-46.8,12-69.4-5.6-142-19c-110.5-20.3-124.7,8.2-221-11c-80.1-16-136.6-49-160-63
		C210.2,799.9,114.6,742.8,97.2,651.5z"/>
</g>
<g id="Contours">
	<path class="st1" d="M1212.4,644.3c15.7,12.6,28.8,26.6,34,46.6c1.5,5.5,0.4,7.7-4.5,9.5c-6.5,2.3-10.4,6.3-12.7,13.8
		c-3,9.9-10.5,17.6-19.9,22.4c-7.5,3.8-15.5,6.5-23.1,10.3c-9.3,4.6-17.2,11-24.3,18.6c-6.4,6.9-12.7,14.1-20.1,19.9
		c-10.8,8.5-22.3,16.4-34,23.8c-14.1,8.9-28.5,17.4-43.1,25.6c-14.9,8.3-29.9,16.5-45.4,23.6c-20.1,9.2-40.5,17.6-61.1,25.6
		c-15.1,5.9-30.7,10.5-46.1,15.8c-28.4,9.8-56.8,19.8-85.2,29.7c-15.3,5.3-30.7,10.7-46.1,15.8c-3.4,1.1-7.1,1.6-10.6,1.7
		c-7.9,0.2-15.8,0.3-23.7,0c-16.7-0.5-33.5-1.3-50.2-2c-13.3-0.6-26.6-1.4-39.9-2c-15.9-0.7-31.8-1.9-47.6-1.9
		c-16.6,0-33.1,1.3-49.7,1.9c-13.1,0.5-26.2,1.1-39.3,0.9c-12.1-0.1-24.2-1.2-36.3-2c-10.6-0.6-21.1-1-31.6-2.1
		c-12.4-1.3-24.8-2.9-37.1-5.2c-13.9-2.6-27.7-6.4-41.6-9.1c-7-1.4-14.3-0.9-21.3-2.3c-9.1-1.9-17.9-5-26.9-7.3
		c-14.9-3.8-30-7.4-44.9-11.2c-16-4.1-31.1-10-44-20.8c-12-10-24.7-19.1-37.1-28.7c-11.1-8.6-22.2-17.2-33-26.2
		c-14.4-12-28.5-24.2-42.7-36.4c-4.2-3.6-8.3-7.4-12.3-11.3c-13.6-13.2-27.8-26-40.6-39.9c-11.6-12.5-21.8-26.3-32.6-39.5
		c-8.4-10.4-16.6-21-25.2-31.3c-4.8-5.7-9.8-11.3-15.3-16.2c-3.1-2.7-7.8-3.5-11.5-5.7c-4.5-2.7-4.6-5-1.2-8.8
		c5.2-5.6,10.4-11.2,15.7-16.7c10.1-10.8,20.6-21.2,30.2-32.4c17.7-20.9,35.7-41.7,52-63.6c12.2-16.5,21.9-34.9,33-52.2
		c3-4.7,7.3-8.6,11-12.9c0.4-0.5,1-1,1.5-1.5c9.7-9.4,19.4-18.7,29.1-28.1c13.9-13.5,27.4-27.3,41.6-40.4
		c15.2-14.1,30.5-27.9,46.4-41.2c22.4-18.8,45-37.4,69.7-53.4c9.6-6.3,20.5-8.8,31.3-11.6c9.3-2.4,18.8-4.4,28.2-6.6
		c10.6-2.5,21.2-2,31.9-0.8c13.8,1.5,25.6,7.8,37.9,13.1c9.2,3.9,19.4,5.8,29.4,7.5c15.2,2.6,30.7,3.5,45.1,9.6
		c0.7,0.3,1.6,0.6,2.1,1.1c5.7,5.5,11.6,7.3,19,2.9c8.9-5.2,18.1-2.8,27.3-0.2c8.1,2.3,16.4,4.8,24.7,4.9c7.2,0.1,14.4-3.2,21.6-4.7
		c7.1-1.5,14.3-2.9,21.5-4.1c12.5-2.2,25.1-4.3,37.7-6.2c8.5-1.3,17-2,25.5-3.2c8.9-1.2,17.8-3.1,26.7-3.9
		c14.6-1.3,29.2-1.5,42.7,5.4c41,21,82,42,123,63.1c6.1,3.1,12,6.6,18.1,9.8c7.2,3.7,10.3,11.1,15.4,16.7
		c10.4,11.5,21,22.7,33.8,31.7c8.4,5.9,16.2,12.5,24.2,18.9c10.1,8.2,20,16.5,30,24.8c5.4,4.5,10.8,9.1,15.9,13.9
		c5.1,4.8,9.7,10.1,15,14.8c13.9,12.4,27.8,24.7,41.9,36.8c11.7,10,24.2,19.1,35.7,29.3c5.5,4.8,9.4,11.5,14.5,16.8
		c6.2,6.5,12.8,12.7,19.6,18.5c6,5.2,12.6,9.6,18.6,14.7C1186.1,621.3,1199.1,632.7,1212.4,644.3 M840.7,528.5
		c-1.9-7-5.2-12.9-11.5-17.1c-11.3-7.5-24.2-9.7-37-10c-23.9-0.5-47.9,0.3-71.8,0.8c-15.2,0.4-30.4,0.8-45.6,2.2
		c-11.2,1-22.2,3.7-33.3,5.5c-10.3,1.7-20.7,3.8-31.1,4.4c-5.7,0.4-11.5-2.5-17.3-2.7c-22.4-0.7-44.8-0.8-67.1-1.2
		c-12.2-0.2-24.5-0.6-36.7-1c-5.9-0.2-11.8-0.3-17.6-1.1c-13.6-1.8-27.3-3.7-40.8-6.2c-14.4-2.7-27.9-7.9-40.6-15.3
		c-13.9-8.2-28.4-14.5-44.7-15.4c-13.6-0.8-26.5,2.5-38.5,9.2c-7.8,4.4-11.9,11.9-8.9,18.3c5.5,11.9,14.2,22.7,30.7,22
		c11.5-0.5,23.1-0.9,34.7-1c11.5-0.2,23,0,34.6-0.1c8.7-0.1,14.4,4,18.4,11.6c7.6,14.2,16,27.7,30.5,36.1
		c10.5,6.1,20.9,9.6,32.6,2.9c5.2-3,10.7-6,16.4-7.7c4.8-1.4,10.5-2.4,14.8,1.6c9.9,9.1,21.1,10.5,33.7,7.6c8-1.9,16.2-2.7,24.4-3.5
		c8.2-0.7,16.6-0.5,24.8-1.2c5.8-0.5,11.5-2.2,17.3-2.9c4.8-0.6,9.7-0.9,14.5-1c1.5,0,2.9,1,4.4,1.6c-0.9,1.5-1.4,3.3-2.6,4.5
		c-1.8,1.6-4,2.7-6,4.1c-9,6.5-18.7,10.1-30.2,9.6c-9.1-0.4-18.4,1-27.5,1.9c-9,0.9-18,2.7-27.1,2.9c-12.1,0.3-24.1-0.3-36.2-1
		c-6.2-0.3-12.5-1.2-18.7-2.2c-10-1.7-19.5-0.9-28.6,4.1c-2.1,1.1-5,1.5-7.4,1.2c-6.1-0.7-12.2-2.8-18.3-2.8
		c-42.2-0.3-84.4-0.1-126.6-0.1c-1.4,0-2.9,0.4-4.3,0.7c-6.5,1.4-7.5,7.5-10.1,12.2c-3.1,5.6-2.6,7.2,3.8,8.7
		c5.6,1.3,11.4,1.6,17.2,2.2c7.6,0.8,15.2,1.5,22.9,2.1c13.3,1.1,26.7,2.1,40,3.1c10.5,0.8,21.1,1.4,31.6,2.1
		c4.5,0.3,9,0.5,13.5,1.1c10.6,1.3,21.2,2.7,31.8,4.1c7,0.9,13.9,2,20.9,3.2c0.4,0.1,1.1,2.2,0.8,2.5c-3.6,4.1-0.1,5.8,2.6,7.5
		c2,1.3,4.2,2.3,6.4,3.3c3.5,1.7,9.4,0.2,10-3.2c0.2-1.1-3-2.8-4.7-4c-1.6-1.1-3.3-2.1-4.9-3.1c-0.7-0.5-1.3-1-1.9-1.5
		c0.8-0.2,1.6-0.5,2.3-0.5c5.5,0,11.2-0.8,16.5,0.2c4.5,0.9,9.3,3.3,12.6,6.4c2,1.8,3.3,2.7,5.7,2.6c9.5-0.7,19.1-1.1,28.5-2.1
		c8.6-1,17.1-2.7,25.6-4c3.5-0.5,7.3-1.7,10.5-0.9c16.9,3.9,33.8,7.8,50.5,12.5c16.4,4.7,33,3.5,49.6,2.6
		c15.8-0.8,31.5-3.3,47.3-3.8c16.2-0.5,32.4,0.8,48.6,0.7c6.3,0,12.7-1.7,19-2.5c7.9-0.9,15.8-2.3,23.7-2.4
		c8.3-0.1,16.6,1.9,24.9,1.8c16.1-0.2,32.2-0.7,48.1-2.1c13-1.2,25.8-3.9,38.7-6c11.2-1.8,20.9-6.6,29-14.6c1-1,2.1-3.3,1.6-4.2
		c-3.7-6.5-8.5-12-15.6-15.3c-13.6-6.4-27.7-7.2-42.4-5.3c-12.2,1.6-22.2,6.6-31,15.1c-5.7,5.5-12.6,10.8-21.1,9.6
		c-6-0.9-12.2-3.4-17.1-6.9c-17-12-35.5-18.6-56.2-17.4c-14.6,0.8-29.2,2.4-43.7,4.1c-7.9,0.9-15.7,2.9-23.6,4
		c-6.9,0.9-13.7,2.7-20.2-2.9c-8.2-7.1-17.2-13.2-25.8-19.7c-0.5-0.4-0.7-1.4-1-2.1c7.2-1.8,14-5.7,21.9-3.8
		c7.1,1.7,14.1,4.2,21.2,4.6c9.8,0.6,19.7-0.4,29.5-0.8c4.5-0.2,9-0.5,13.5-1c11.3-1.3,22.6-2.7,33.9-4.1c6-0.8,11.9-2.1,17.9-2.8
		c10.7-1.1,19.5-6.4,27.7-12.7C835.2,547.6,840.3,539.8,840.7,528.5 M448.1,367c-7.2-3.4-14.3-7-21.5-10.3
		c-14.7-6.8-29.3-13.7-44.2-20.1c-5.1-2.2-10.4-5.7-16.6-2.6c-0.9,0.5-1.9,0.7-2.9,1.1c0.8,0.7,1.7,1.3,2.5,2.1
		c8.2,7.4,19.1,8.6,28.9,12.3c9.4,3.6,17,8.8,20.8,18.6c3,7.7,8.7,9.9,16.8,8.1c4.9-1.1,9.7-3.3,15.1-0.2c2.1,1.2,6.1-0.9,9.2-1.5
		c-1.6-1.9-3.1-3.9-4.7-5.8C450.9,367.8,449.9,367.5,448.1,367 M630.2,347.9c-1.3,0.2-2.6,0.3-3.9,0.5c-8.4,1.4-17.4,1.1-22.8,9.6
		c-0.4,0.7-0.8,1.4-1.2,2.1c0.7,0.2,1.4,0.6,2.2,0.7c5.5,0.4,11,0.8,16.5,1c1.9,0.1,2.5,0.2,3.1,2.5c1.2,4.8,5.2,7,8.2,5
		c7-4.6,14.4-8.9,18.6-16.5c0.3-0.5-0.2-2-0.6-2.1C644.1,348.4,637.6,346.5,630.2,347.9 M857.2,524.4c2.1,2.2,3.9,4.9,6.4,6.6
		c8.6,5.8,17.5,2.6,26.1-0.2c1.3-0.4,2-3.5,2.4-5.5c0.1-0.7-1.3-2-2.3-2.5c-7.9-3.6-15.8-7.5-24-10.2c-3.8-1.2-8.5,0.2-12.7,0.3
		c1,3.2,2.1,6.3,3.1,9.5C856.3,523,856.5,523.4,857.2,524.4 M577.6,372.7c-0.7,3.2,1.8,2.9,3.4,2.5c2.9-0.7,5.7-1.9,8.5-3
		c0.9-0.3,2.4-0.8,2.4-1.4c0.2-2.5,0-5.1-0.2-7.6c0-0.1-1.1-0.4-1.3-0.2C586.3,366.2,579.8,365.7,577.6,372.7 M791.1,920.6
		c1.2,0.5,2.3,1,3.5,1.6c6.1,3,7.6,2.6,11.3-3c0.2-0.3-0.8-2.1-1.1-2.1c-4.1,0.3-8.2,0.7-12.3,1.3
		C791.8,918.4,791.2,919.4,791.1,920.6 M712.7,375.8c0.7,1.8,1.1,3.7,2.2,5.2c0.6,0.9,2.9,1.9,3.1,1.7c2.1-2.6,4-5.4,6-8.1
		c-1.3-0.1-2.6-0.4-3.9-0.3C717.7,374.5,715.5,374.9,712.7,375.8 M500.2,386.1c-0.1,1.3-0.2,2.6-0.3,3.8c3.2-0.4,6.3-0.8,9.5-1.3
		c0.4-0.1,0.7-0.4,1-0.6c-0.1-0.1-0.3-0.2-0.4-0.4C508.6,384.3,503.4,382.9,500.2,386.1 M772.6,401.6c-2,1.1-4.1,2.1-6.1,3.2
		c2.2,0.8,4.4,2,6.6,2.3c1.4,0.2,3.1-0.7,4.6-1.2C776.8,403.8,777.5,400,772.6,401.6 M928.9,530c-1.3-0.6-2.5-1.6-3.9-1.7
		c-2.6-0.2-5.2,0-7.9,0c2,1.1,4,2.1,6,3.2c1.4,0.7,2.7,1.8,4.2,2c1.1,0.1,2.3-0.9,3.5-1.4C930.6,531.4,930.3,530.7,928.9,530
		 M532.2,636.8c-2,0.5-4.1,0.8-6,1.6c-0.9,0.4-1.4,1.7-2.1,2.6c1.3,1,3,3.2,3.9,2.9C531.2,642.7,533.9,640.6,532.2,636.8
		 M244.8,544.5c-1.9-1.2-3.6-2.8-5.7-3.4c-1.1-0.3-3,1-4,2c-0.7,0.7-0.5,2.2-0.7,3.4C238.1,546,241.7,545.5,244.8,544.5z"/>
</g>
<g id="Contours_copy">
	<linearGradient id="SVGID_1_" gradientUnits="userSpaceOnUse" x1="1.414519e-07" y1="612.9452" x2="1225.8904" y2="612.9452">
		<stop  offset="0" style="stop-color:#A2C993"/>
		<stop  offset="1.890074e-02" style="stop-color:#AFBE94"/>
		<stop  offset="6.399165e-02" style="stop-color:#CAA897"/>
		<stop  offset="0.1101" style="stop-color:#DD9899"/>
		<stop  offset="0.1574" style="stop-color:#E88E9A"/>
		<stop  offset="0.2079" style="stop-color:#EC8B9A"/>
		<stop  offset="0.3" style="stop-color:#7BBDDF"/>
		<stop  offset="0.47" style="stop-color:#F9E89A"/>
		<stop  offset="0.64" style="stop-color:#EC8B9A"/>
		<stop  offset="0.7528" style="stop-color:#F9E89A"/>
		<stop  offset="0.8708" style="stop-color:#7BBDDF"/>
		<stop  offset="1" style="stop-color:#A2C993"/>
	</linearGradient>
	<path class="st2" d="M1192.3,644.2c15.2,12.3,27.9,25.7,33,45.1c1.4,5.4,0.4,7.4-4.4,9.2c-6.3,2.3-10.1,6.1-12.3,13.4
		c-2.9,9.6-10.2,17-19.3,21.7c-7.3,3.7-15.1,6.3-22.4,9.9c-9,4.5-16.7,10.7-23.6,18c-6.2,6.7-12.3,13.6-19.5,19.3
		c-10.5,8.3-21.6,15.9-32.9,23c-13.7,8.7-27.6,16.9-41.7,24.8c-14.4,8-29,16-44,22.9c-19.5,8.9-39.3,17-59.2,24.8
		c-14.7,5.7-29.8,10.2-44.7,15.3c-27.5,9.5-55,19.2-82.6,28.8c-14.9,5.2-29.7,10.4-44.6,15.3c-3.3,1.1-6.8,1.5-10.3,1.6
		c-7.7,0.2-15.3,0.3-23,0c-16.2-0.5-32.5-1.2-48.7-2c-12.9-0.6-25.8-1.4-38.7-2c-15.4-0.7-30.8-1.9-46.2-1.9
		c-16.1,0-32.1,1.3-48.2,1.8c-12.7,0.5-25.4,1.1-38.1,0.9c-11.7-0.1-23.5-1.2-35.2-1.9c-10.2-0.6-20.5-1-30.7-2.1
		c-12-1.3-24-2.8-35.9-5c-13.5-2.5-26.8-6.2-40.3-8.8c-6.8-1.3-13.9-0.9-20.6-2.3c-8.8-1.8-17.3-4.8-26.1-7
		c-14.5-3.7-29-7.1-43.5-10.9c-15.5-4-30.1-9.7-42.7-20.2c-11.6-9.7-24-18.5-35.9-27.8c-10.7-8.4-21.5-16.7-32-25.4
		c-13.9-11.6-27.6-23.5-41.4-35.3c-4.1-3.5-8.1-7.2-12-11c-13.2-12.8-26.9-25.2-39.4-38.7c-11.2-12.1-21.2-25.5-31.6-38.3
		c-8.2-10.1-16.1-20.4-24.5-30.3c-4.6-5.5-9.5-11-14.9-15.7c-3-2.6-7.6-3.4-11.1-5.5c-4.3-2.7-4.5-4.9-1.1-8.5
		c5-5.5,10.1-10.8,15.2-16.2c9.8-10.4,20-20.5,29.3-31.4c17.2-20.2,34.6-40.4,50.4-61.7c11.9-16,21.2-33.8,32-50.6
		c2.9-4.6,7-8.4,10.6-12.5c0.4-0.5,0.9-1,1.4-1.4c9.4-9.1,18.8-18.1,28.2-27.2c13.4-13.1,26.6-26.4,40.3-39.2
		c14.7-13.6,29.6-27.1,45-39.9c21.7-18.2,43.7-36.2,67.5-51.8c9.3-6.1,19.9-8.5,30.3-11.2c9.1-2.4,18.2-4.3,27.4-6.4
		c10.3-2.4,20.5-1.9,30.9-0.8c13.3,1.5,24.8,7.6,36.8,12.7c8.9,3.8,18.8,5.6,28.5,7.3c14.7,2.5,29.7,3.4,43.7,9.3
		c0.7,0.3,1.5,0.6,2,1.1c5.5,5.4,11.2,7.1,18.4,2.8c8.6-5.1,17.5-2.7,26.5-0.2c7.8,2.2,15.9,4.7,23.9,4.8c7,0.1,13.9-3.1,20.9-4.6
		c6.9-1.5,13.9-2.8,20.8-4c12.2-2.1,24.3-4.2,36.5-6c8.2-1.2,16.5-1.9,24.7-3.1c8.6-1.2,17.2-3.1,25.9-3.8
		c14.1-1.2,28.3-1.5,41.4,5.2c39.8,20.3,79.5,40.7,119.2,61.2c5.9,3,11.7,6.4,17.6,9.5c7,3.6,10,10.8,15,16.2
		c10.1,11.1,20.3,22,32.7,30.7c8.1,5.7,15.7,12.1,23.4,18.3c9.8,7.9,19.4,16,29,24c5.2,4.4,10.4,8.8,15.4,13.5
		c5,4.6,9.4,9.8,14.5,14.4c13.4,12,26.9,24,40.7,35.6c11.4,9.7,23.4,18.5,34.6,28.4c5.3,4.7,9.1,11.1,14.1,16.3
		c6,6.3,12.4,12.3,19,18c5.8,5,12.2,9.3,18,14.2C1166.9,621.9,1179.5,632.9,1192.3,644.2 M832.1,531.9c-1.8-6.8-5.1-12.5-11.1-16.5
		c-10.9-7.3-23.4-9.4-35.9-9.7c-23.2-0.5-46.4,0.3-69.6,0.8c-14.7,0.4-29.5,0.8-44.2,2.1c-10.8,1-21.5,3.6-32.2,5.3
		c-10,1.6-20,3.6-30.1,4.3c-5.5,0.4-11.1-2.5-16.7-2.6c-21.7-0.6-43.4-0.7-65.1-1.1c-11.9-0.2-23.7-0.6-35.6-1
		c-5.7-0.2-11.4-0.3-17.1-1c-13.2-1.8-26.4-3.6-39.5-6c-13.9-2.6-27.1-7.7-39.3-14.9c-13.4-7.9-27.5-14-43.3-14.9
		c-13.2-0.8-25.7,2.4-37.3,8.9c-7.6,4.3-11.5,11.5-8.6,17.7c5.3,11.6,13.8,22,29.8,21.3c11.2-0.5,22.4-0.8,33.6-1
		c11.2-0.2,22.3,0,33.5-0.1c8.4-0.1,13.9,3.9,17.9,11.3c7.3,13.7,15.5,26.9,29.6,35c10.2,5.9,20.3,9.3,31.6,2.8
		c5.1-2.9,10.3-5.8,15.9-7.4c4.6-1.3,10.2-2.4,14.4,1.5c9.6,8.9,20.4,10.2,32.7,7.3c7.7-1.8,15.7-2.7,23.6-3.4
		c8-0.7,16.1-0.5,24.1-1.2c5.6-0.5,11.2-2.1,16.8-2.8c4.7-0.6,9.4-0.9,14.1-1c1.4,0,2.8,1,4.3,1.5c-0.8,1.5-1.4,3.2-2.6,4.3
		c-1.7,1.6-3.9,2.6-5.8,4c-8.7,6.3-18.1,9.8-29.2,9.3c-8.8-0.4-17.8,1-26.7,1.8c-8.8,0.8-17.5,2.6-26.3,2.8
		c-11.7,0.3-23.4-0.3-35.1-0.9c-6.1-0.3-12.1-1.2-18.1-2.2c-9.7-1.7-18.9-0.9-27.7,4c-2,1.1-4.8,1.4-7.1,1.1
		c-6-0.7-11.8-2.7-17.8-2.8c-40.9-0.3-81.8-0.1-122.7-0.1c-1.4,0-2.8,0.4-4.2,0.7c-6.3,1.4-7.2,7.3-9.7,11.8c-3,5.4-2.5,7,3.6,8.4
		c5.4,1.2,11.1,1.5,16.6,2.1c7.4,0.7,14.8,1.4,22.2,2c12.9,1,25.8,2.1,38.8,3c10.2,0.7,20.4,1.3,30.7,2c4.4,0.3,8.7,0.5,13.1,1
		c10.3,1.2,20.6,2.6,30.8,4c6.8,0.9,13.5,1.9,20.2,3.1c0.4,0.1,1.1,2.1,0.8,2.4c-3.5,4-0.1,5.6,2.5,7.3c1.9,1.3,4.1,2.2,6.2,3.2
		c3.4,1.7,9.1,0.2,9.7-3.1c0.2-1-2.9-2.7-4.6-3.9c-1.5-1.1-3.2-2-4.7-3c-0.7-0.4-1.3-1-1.9-1.5c0.8-0.2,1.5-0.5,2.3-0.5
		c5.3,0,10.8-0.8,15.9,0.2c4.4,0.9,9,3.2,12.2,6.2c1.9,1.8,3.2,2.7,5.5,2.5c9.2-0.6,18.5-1,27.7-2.1c8.3-0.9,16.6-2.6,24.9-3.9
		c3.4-0.5,7-1.6,10.2-0.9c16.4,3.7,32.8,7.5,48.9,12.2c15.9,4.6,32,3.4,48,2.6c15.3-0.8,30.5-3.2,45.9-3.7
		c15.7-0.5,31.4,0.8,47.1,0.7c6.2,0,12.3-1.7,18.4-2.4c7.7-0.9,15.3-2.2,23-2.3c8.1-0.1,16.1,1.8,24.2,1.7c15.6-0.2,31.2-0.6,46.7-2
		c12.6-1.1,25-3.8,37.5-5.8c10.8-1.8,20.3-6.4,28.1-14.1c1-1,2-3.2,1.6-4c-3.6-6.3-8.3-11.7-15.1-14.8c-13.2-6.2-26.8-7-41.1-5.1
		c-11.9,1.5-21.5,6.4-30.1,14.6c-5.6,5.3-12.2,10.5-20.4,9.3c-5.8-0.8-11.8-3.3-16.6-6.7c-16.4-11.7-34.4-18-54.5-16.9
		c-14.1,0.8-28.3,2.4-42.3,4c-7.7,0.9-15.2,2.8-22.9,3.8c-6.7,0.9-13.3,2.6-19.5-2.8c-7.9-6.8-16.7-12.7-25-19.1
		c-0.5-0.4-0.7-1.3-1-2c7-1.7,13.6-5.5,21.2-3.7c6.8,1.6,13.6,4.1,20.6,4.5c9.5,0.6,19-0.4,28.6-0.8c4.4-0.2,8.7-0.5,13.1-1
		c11-1.3,21.9-2.6,32.8-4c5.8-0.8,11.6-2,17.4-2.7c10.4-1.1,18.9-6.2,26.9-12.4C826.8,550.5,831.7,542.9,832.1,531.9 M451.6,375.4
		c-6.9-3.3-13.8-6.8-20.8-10c-14.2-6.6-28.4-13.3-42.8-19.5c-5-2.1-10.1-5.6-16.1-2.5c-0.9,0.4-1.8,0.7-2.8,1c0.8,0.7,1.6,1.3,2.4,2
		c8,7.2,18.5,8.4,28,12c9.1,3.5,16.5,8.5,20.2,18c2.9,7.4,8.5,9.6,16.3,7.8c4.7-1.1,9.4-3.2,14.6-0.2c2.1,1.2,5.9-0.9,8.9-1.5
		c-1.5-1.9-3-3.8-4.6-5.6C454.4,376.2,453.4,375.9,451.6,375.4 M628.1,356.9c-1.3,0.2-2.5,0.3-3.8,0.5c-8.1,1.3-16.9,1-22,9.3
		c-0.4,0.7-0.8,1.3-1.2,2c0.7,0.2,1.4,0.6,2.1,0.6c5.3,0.4,10.7,0.8,16,1c1.8,0.1,2.5,0.2,3,2.4c1.2,4.6,5,6.8,8,4.8
		c6.7-4.5,13.9-8.6,18.1-16c0.3-0.5-0.2-1.9-0.6-2.1C641.5,357.4,635.3,355.6,628.1,356.9 M848.1,527.9c2.1,2.2,3.8,4.8,6.2,6.4
		c8.3,5.6,16.9,2.5,25.3-0.2c1.3-0.4,2-3.4,2.4-5.3c0.1-0.6-1.3-2-2.2-2.4c-7.7-3.5-15.3-7.3-23.3-9.9c-3.7-1.2-8.2,0.1-12.4,0.3
		c1,3.1,2,6.1,3,9.2C847.2,526.6,847.4,527,848.1,527.9 M577.1,380.9c-0.7,3.1,1.7,2.8,3.3,2.4c2.8-0.7,5.5-1.9,8.3-2.9
		c0.9-0.3,2.3-0.8,2.4-1.3c0.2-2.4,0-4.9-0.2-7.4c0-0.1-1-0.4-1.3-0.2C585.6,374.6,579.2,374.2,577.1,380.9 M784.1,911.9
		c1.1,0.5,2.3,1,3.4,1.5c5.9,2.9,7.4,2.6,10.9-2.9c0.2-0.3-0.8-2-1.1-2c-4,0.3-8,0.7-11.9,1.2C784.7,909.8,784.2,910.8,784.1,911.9
		 M708.1,383.9c0.7,1.7,1.1,3.6,2.1,5.1c0.6,0.9,2.8,1.8,3,1.6c2.1-2.5,3.9-5.2,5.8-7.9c-1.3-0.1-2.6-0.4-3.8-0.3
		C712.9,382.6,710.8,383.1,708.1,383.9 M502.1,393.9c-0.1,1.2-0.2,2.5-0.3,3.7c3.1-0.4,6.1-0.8,9.2-1.2c0.3-0.1,0.6-0.4,1-0.6
		c-0.1-0.1-0.3-0.2-0.3-0.4C510.3,392.2,505.2,390.9,502.1,393.9 M766.1,408.9c-2,1-3.9,2.1-5.9,3.1c2.1,0.8,4.2,1.9,6.4,2.3
		c1.4,0.2,3-0.7,4.5-1.1C770.2,411,770.8,407.4,766.1,408.9 M917.6,533.4c-1.2-0.6-2.4-1.5-3.7-1.6c-2.5-0.2-5.1,0-7.6,0
		c1.9,1,3.9,2.1,5.8,3.1c1.3,0.7,2.7,1.8,4.1,2c1.1,0.1,2.3-0.9,3.4-1.4C919.2,534.8,918.9,534.1,917.6,533.4 M533.1,636.9
		c-2,0.5-4,0.8-5.8,1.6c-0.9,0.4-1.4,1.7-2.1,2.5c1.3,1,2.9,3.1,3.7,2.8C532.1,642.6,534.7,640.6,533.1,636.9 M254.6,547.4
		c-1.8-1.2-3.5-2.7-5.5-3.3c-1.1-0.3-2.9,0.9-3.9,2c-0.7,0.6-0.5,2.1-0.7,3.3C248,548.9,251.6,548.4,254.6,547.4z"/>
</g>
</svg>
