<?xml version="1.0" encoding="utf-8"?>
<!-- Generator: Adobe Illustrator 22.1.0, SVG Export Plug-In . SVG Version: 6.00 Build 0)  -->
<svg version="1.1" xmlns="http://www.w3.org/2000/svg" xmlns:xlink="http://www.w3.org/1999/xlink" x="0px" y="0px"
	 viewBox="0 0 771 771" style="enable-background:new 0 0 771 771;" xml:space="preserve">
<style type="text/css">
	.st0{fill:url(#SVGID_1_);}
</style>
<g id="Layer_2">
	<path d="M127.7,771l510.4-0.7c0,0-22.4-66.4-16.4-105.7"/>
	<linearGradient id="SVGID_1_" gradientUnits="userSpaceOnUse" x1="129.3678" y1="470.5911" x2="638.044" y2="470.5911">
		<stop  offset="0" style="stop-color:#F7C9D6"/>
		<stop  offset="0.5" style="stop-color:#FDEFF2"/>
		<stop  offset="1" style="stop-color:#9E6178"/>
	</linearGradient>
	<path class="st0" d="M149.5,769.4l488.6,0.9c0,0-34.9-94.9-22-153.6c12.9-58.7-48.6-423.4-209.8-442c0,0-86.7-38.8-180.6,133.3
		s-50.8,269.9-50.8,269.9s5,85.6-22.4,113.6s-25,76.4-19.5,78C138.3,771,149.5,769.4,149.5,769.4z"/>
</g>
<g id="Contours">
	<path d="M669.7,769c-0.3,0.5-0.7,1.1-1.2,1.4c-0.3,0.2-0.7,0.3-1.1,0.4c3.5-5.3,5.3-11.6,5.3-17.9
		C673.8,758.3,672.8,764.3,669.7,769z"/>
	<path d="M410.3,164.3c4.5-0.1,9.1,0.3,13.6,1.2C419.4,166.5,414.6,166.1,410.3,164.3z"/>
	<path d="M642.5,1.4c-1.7-0.3-3.5-0.6-5.2-0.8c1.8-0.8,3.9-0.7,5.7,0.1L642.5,1.4z"/>
	<path d="M553,295.8c-0.4-0.2,0.2-0.9,0.6-0.6c0.4,0.2,0.4,0.8,0.4,1.3c-0.2,1.7-0.3,3.4-0.5,5.2c-0.5-1.8-0.7-3.7-0.4-5.6
		L553,295.8z"/>
	<path d="M541.1,289.2c0.5,1.1,0.9,2.2,1.4,3.3c-1.1-0.4-2.1-1.2-2.6-2.3c-0.3-0.6-0.3-1.4,0.3-1.7s1,1,0.3,0.9L541.1,289.2z"/>
	<path d="M525.8,250.8c0.6,0.6,1.2,1.3,1.9,1.9c-0.9,0.2-1.6,1-1.8,1.9C525.2,253.4,525.2,252,525.8,250.8L525.8,250.8z"/>
	<path d="M430.3,365.4c1.3-1,1.1-3,0.9-4.6c-0.2-1.7,0.4-3.9,2.1-3.9c1.4,0.4,1.2,3-0.2,3.2c0.6,1.5,1.2,3.1,1.8,4.6
		c1-0.3,2.1-0.5,3.1-0.8c0.1-0.5,0.3-1.1,0.4-1.6c1.5,2.2,0.8,5.5-1.5,6.9c0.8,2.3,0.9,4.9,1.8,7.2s2.7,4.6,5.2,4.7
		c4.3,0.3,8.1,3.8,8.8,8c0.9,1,1.8,2,2.7,3c-0.8,0.4-1,1.6-0.5,2.3c2.6-0.3,5-2,6-4.4c0.5-0.6,1.4-0.8,2.1-0.4
		c-2.7,6.3-8.8,11-15.5,12c-1.4,0-2.8-0.1-4.3-0.1c-3.5-0.7-7.2-0.3-10.4,1.1c-0.3-0.7-0.6-1.5-0.9-2.2c-3.7,0.9-7.5,0.7-11.1-0.5
		c-1.8-0.6-3.5-1.5-4.5-3c-1.1-1.8-0.9-4.1-0.7-6.2c0.5-4.6,0.9-9.1,1.4-13.7c0.9,0.1,1.7,0.2,2.6,0.3c-0.2-2.4-0.3-4.8-0.5-7.3
		c0.4,0.8,1.7,0.9,2.2,0.2c3.9,4.5-3.3,12.3,0.2,17.2c0.6-0.2,1.4-0.1,1.8,0.4c-1.2,0.4-0.9,2.3,0.2,2.9c1.1,0.6,2.4,0.2,3.6-0.1
		c0.9-0.3,1.8-0.5,2.7-0.8c3.2,0.1,6.5-0.7,9.2-2.5c-3-0.1-6.1,0.4-9,1.3c-0.5-1.1-0.2-2.4,0.7-3.2c-1.2-0.9-2-2.3-2-3.8
		c0.7-0.5,1.5-1,2.2-1.5c-0.7-0.5-1.5-1-2.2-1.5c0.7-2.2,2.9-3.8,5.2-3.6C431.7,372.3,430.5,368.9,430.3,365.4 M444.8,386.4
		c-1.4-0.3-3,0.2-3.9,1.3c1.8,0.5,3.8,0.2,5.5-0.8c0.4-0.7-0.9-1.2-1.4-0.7 M434,400.8c1.1-0.1,2.2-0.2,3.3-0.4
		c-1.1-1-2.6-1.4-4.1-1.2c-0.6,0.4,0,1.7,0.7,1.4 M450.2,386.7c-0.6-0.6-1.5-0.9-2.3-0.7c-0.3,0.8,0.3,1.9,1.1,2
		c0.9,0.2,1.8-0.6,1.8-1.5 M433.5,377.2c0.1,1,1.6,1.5,2.3,0.8c-0.3-0.9-0.5-1.8-0.8-2.7c-0.7,0.4-1.3,1.1-1.3,1.9L433.5,377.2z"/>
	<path d="M463.8,429.7c-7.2,2.8-15.3,3.3-22.7,1.4c-1,1.7-2,3.6-1.8,5.6c0.2,2,2.1,3.9,4,3.3c-3.6,0.5-7.2,1.8-10.2,3.9
		c-0.7-1.5-2.9-1.7-4.4-0.8c-1.4,0.9-2.2,2.5-2.8,4.1c-3.5-1-7.3-0.6-10.5,1c0.4,1.1,0.9,2.2,1.3,3.4c-2.5-0.6-2.1-4.4-0.7-6.6
		c3.6-5.8,9.1-10.1,14.6-14.2c2.4-1.8,4.7-3.6,7.1-5.4c3.9-3,9.6-0.5,14.5-1.1c-3.1,1.3-6.2,2.5-9.3,3.5c2.1,1.5,5.4,1.2,7.2-0.7
		c0,1,0.1,2.1,0.9,2.6c0.8,0.6,2.2-0.2,1.9-1.1c0.3,0.8,0.6,1.6,1.3,2s1.9-0.3,1.5-1.1c1.4,0.6,3.1,0.8,4.6,0.6c0.5-1,1-2,1.5-2.9
		c0.4,0.6,0.9,1.3,1.3,1.9c3.9-0.7,7.8-1.4,11.6-2c0.7,0.3,1.6,0,2-0.6c0.6,0.6,1.2,1.2,1.9,1.9c-1.2,0-1.1,1.9-0.6,3
		c1.6,0.5,3.1,1.3,4.4,2.4c-4.3,1.1-8.7,2.2-13,3.2c-1.1,0.3-2.5,0.5-3.3-0.3c-1.8-1.9-5.1,2.2-7.3,0.8c1.4-2,3.4-3.7,5.6-4.7
		C464,431.5,463.9,430.6,463.8,429.7 M435.7,438.4c1.5-1,2-3.2,1.1-4.7c-2.6,0.3-4.9,1.9-6.2,4.2c1.6,0.1,3.2,0.2,4.8,0.3
		 M426.1,439.9c-0.1,0.6,0.5,1.2,1.1,1.1c0.9-0.6,1.6-1.6,1.9-2.7c-1.2-0.3-2.5,0.5-2.9,1.7 M440.7,429.2c0.4,0.4,1-0.4,0.7-0.8
		c-0.4-0.4-1.1-0.3-1.6-0.1c-0.5,0.2-1.1,0.5-1.6,0.3c0.4,0.9,1.8,1.2,2.5,0.4 M422.8,440.9c0.7-0.3,0-1.6-0.7-1.2
		c-0.9,0.3,0.1,2.1,0.9,1.5L422.8,440.9z"/>
	<path d="M368.1,285.6c0.7,0.2,1.4,0.4,2.1,0.7c-0.3,0.6-0.7,1.2-1,1.8c-1.8-0.2-3.5-0.3-5.3-0.5c0.5-0.8,0.4-1.9-0.3-2.5
		c-0.3,0.8-0.7,1.7-1.5,2.1c-0.8,0.4-2-0.3-1.7-1.2c-0.1,1-1.3,1.8-2.3,1.5c0.8-1.5-1.6-2.5-3.3-2.4c0.6-0.9,1.1-1.9,1.7-2.8
		c0.5,0.6,0.9,1.1,1.4,1.7c-0.6-0.8,0.7-1.8,1.6-1.5c0.9,0.3,1.6,1.2,2.4,1.6c0.9,0.5,2.3,0.2,2.3-0.8c-0.1-0.7-0.1-1.5-0.2-2.2
		c1.1-0.9,2.9-0.6,3.6,0.6c-0.8,0-1.7,0-2.5,0.1c0.4,0.9,0.7,1.8,1.1,2.6c2.3-1.6,5.4-2,8-1c-1.6,0.2-1.9,2.4-1.7,4
		c-0.9-0.8-1.5-2.2-1.3-3.4C369.8,283.6,368.4,284.4,368.1,285.6z"/>
	<path d="M473.9,456c-6.8,3.5-14.5,4.9-22.1,6.2c-3.1,0.5-6.5,1-9.4-0.3C453.1,460.8,463.6,458.8,473.9,456z"/>
	<path d="M362.8,422.8c-2.1,0-4.2,0-6.3,0c-3.4-1.5-5.5-5.6-4.7-9.2c1.4,0.4,2.6,1,3.7,1.9c-0.5,1.2-0.9,2.6-0.4,3.8
		c0.5,1.2,2.5,1.6,3,0.5C359.7,420.8,361.2,421.8,362.8,422.8z"/>
	<path d="M440.7,290.7c0.1-2.4,0.6-4.8,1.6-7.1c0,0.7,0,1.4,0.5,1.9c0.5,0.5,1.6,0.3,1.5-0.4c0.5,1,0.7,2.3,0.4,3.4
		c-0.7-0.4-1.8-0.3-2.4,0.3c1.8,0.6,2.1,3.5,0.6,4.5C442.2,292.5,441.5,291.6,440.7,290.7z"/>
	<path d="M344.8,313.8c1.7,1.3,3.3,2.7,5,4c-3,0.5-6.1-0.3-8.6-2c0.9-0.1,1.8-0.2,2.7-0.2c0.1-0.8,0.2-1.7,0.3-2.5
		c1.2-1.1,3.2-1.1,4.4,0C347.3,313.4,346,313.6,344.8,313.8z"/>
	<path d="M471.4,426.1c-1.3-2-2.5-4-3.8-5.9c-1.2,0.8-2.5,1.7-3.7,2.5c0-1.5,1.1-3,2.6-3.3c1.5-0.4,3.2,0.4,3.9,1.7
		c0.3,0.6,0.5,1.4,0.8,2c0.7,1.2,2.2,1.9,3.5,1.6C473.5,425.2,472.4,425.6,471.4,426.1z"/>
	<path d="M431,459.6c-0.5-0.7-0.1-1.8,0.7-2.1c1,1.8,4.1,2,5.2,0.2c1.6,1.4,3.1,2.8,4.7,4.2C438.1,461.2,434.6,460.4,431,459.6z"/>
	<path d="M469.4,341.4c0.5,0.5,1.6,0.3,1.9-0.3c0.3,1,1,1.9,1.8,2.5c-1.6,1.4-4.6-0.1-4.5-2.2c-0.7-0.2-1.4-0.4-2-0.6
		c1-0.9-0.3-2.8-1.4-2.3c1.8-0.4,3.9,0.1,5.3,1.4C470.4,340.5,470,341.2,469.4,341.4z"/>
	<path d="M426.5,369.4c-0.2,0.7-0.2,1.5,0.1,2.2c-0.5,0.5-1.1-0.4-1.1-1.1c-0.2-2.9,0-5.7,0.3-8.6c0.4,1.2,1.5,2.3,2.7,2.6
		c-1.1,0.2-2.1,1.1-2.4,2.2c1,0.4,1.9,1.3,2.3,2.3C427.8,369.4,427.1,369.5,426.5,369.4z"/>
	<path d="M351.2,288.9c-0.9,0.9-2.4,1-3.5,0.3c1.4-1.1,2.8-2.2,4.3-3.3c-0.3,0.9,1.1,1.5,2,1.3c1-0.2,2.2-0.4,2.7,0.5
		C355,288.6,353.1,289,351.2,288.9L351.2,288.9z"/>
	<path d="M429.6,345.6c0.4-0.3,0.8-0.5,1.2-0.8c1.4,0.6,1.8,2.8,0.7,3.9c-1.1,1.1-3.3,0.6-3.9-0.8c0.9,0,1.7-0.1,2.6-0.1
		c0.6-0.5,0.3-1.6-0.4-1.8L429.6,345.6z"/>
	<path d="M368,312.1c-1.9,0.1-3.8-0.7-5.1-2.2c1.6-0.1,3.2-0.1,4.8-0.2c0.1,0.8,0.3,1.5,0.4,2.3L368,312.1z"/>
	<path d="M457.5,340.1c1.8,0.2,3.6,0.3,5.4,0.5c-1.6,1.5-4.2,1.6-6,0.3c-0.4-0.3-0.7-0.8-0.5-1.2c0.2-0.4,1.1,0,0.7,0.3L457.5,340.1
		z"/>
	<path d="M443.1,439.3c1.1-0.9,2.3-1.8,3.4-2.7c0.7,1.1,2.3,1.6,3.5,1c-2,1.2-4.4,1.7-6.7,1.7L443.1,439.3z"/>
	<path d="M468.8,387.7c-0.7,0.8-2.1,0.8-2.8,0c1-0.9,2-1.9,3-2.8C469.7,385.7,469.6,387.1,468.8,387.7L468.8,387.7z"/>
	<path d="M335.5,290c0.6,0.7,1.3,1.4,1.9,2.1c-0.4,0.7-1.1,1.2-1.9,1.2c-0.4-1-0.5-2-0.3-3L335.5,290z"/>
	<path d="M446,280.2c-0.1,1.6-1.9,2.9-3.5,2.4c0.7-1.1,1.8-1.9,2.9-2.4L446,280.2z"/>
	<path d="M416.6,244.2c-0.9,0.8-2.4,0.9-3.3,0.1c0.4-0.6,0.8-1.2,1.2-1.7c0.6,0.5,1.3,1,1.9,1.6L416.6,244.2z"/>
	<path d="M421,453.1c0.7,0.1,0.3,1.4-0.4,1.4s-1.2-0.6-1.7-1.2c0.4-0.6,0.9-1.2,1.6-1.2c0.7,0,1,1.3,0.3,1.3L421,453.1z"/>
	<path d="M449.3,281c-0.6,0.5-1.6,0.6-2.2,0.1c0.6-0.9,1.6-1.6,2.6-1.9C449.6,279.8,449.5,280.4,449.3,281L449.3,281z"/>
	<path d="M354.9,310.4c1.1,0.1,2.2,0.2,3.4,0.4c-1,0.7-2.5,0.7-3.6,0L354.9,310.4z"/>
	<path d="M437.3,295.4c0.7-0.7,2.1,0.8,1.3,1.4c-0.8,0.6-1.9-1.2-0.9-1.6L437.3,295.4z"/>
	<path d="M374,283.8c1-0.2,1.9-0.5,2.9-0.7c0,1.4-2.5,1.8-3,0.5L374,283.8z"/>
	<path d="M450.4,421.6c-0.6,0.2-1.3,0.1-1.9-0.3c1.2-0.6,2.6-0.6,3.7,0C451.7,421.6,451,421.8,450.4,421.6L450.4,421.6z"/>
	<path d="M421.6,595.1c0.2,0.7,0.1,1.4-0.3,1.9c-1.1-0.1-2.2-0.2-3.2-0.3c0.3-1.7,1.6-3.2,3.2-3.8c0.2,0.7,0.3,1.4,0.5,2.1
		L421.6,595.1z"/>
	<path d="M439.9,630.6c-1.4-1.4-1.3-4,0.2-5.2c0.2,1.8,0.4,3.6,0.6,5.5L439.9,630.6z"/>
	<path d="M383.1,556c0.3-0.5,0.6-1.1,0.9-1.6c0.8,0.5,1.3,1.6,1.1,2.6c-0.9,0.1-1.8-0.4-2.3-1.1L383.1,556z"/>
	<path d="M418.5,570.9c-0.2-0.5,0.7-0.7,1-0.3c0.3,0.4,0.1,1,0,1.4c-0.5,0.4-1.2,0.5-1.9,0.4c-0.2-0.6,0.3-1.3,0.9-1.4L418.5,570.9z
		"/>
	<path d="M402,579.3c0.3,0.8-1.4,0.8-1.5,0c-0.1-0.8,0.7-1.4,1.4-1.9c-0.1,0.7-0.2,1.3-0.3,2L402,579.3z"/>
	<path d="M245.6,461.5c0.7-0.4,1.4-0.7,2.1-1.1c0.3,3.2,0.6,6.4,1,9.6c-0.9-0.8-1.2-2.2-0.8-3.3c-2-0.4-3.3,3-1.6,4.1
		c-0.9,0.6-1.8,1.3-2.3,2.2c-0.5,1-0.3,2.3,0.7,2.8c-1.2,0.4-2.2,1.3-2.7,2.5c0-3.1,0.8-6.3,2.1-9.1
		C245.3,466.8,247,463.9,245.6,461.5z"/>
	<path d="M255.3,460.1c-0.2-2.4-0.1-4.8,0.4-7.1c0.9,3.2,1.1,6.6,0.5,9.8C255.3,462.2,255,461,255.3,460.1L255.3,460.1z"/>
	<path d="M239.9,439.6c0-3.5,0.2-7.1,0.7-10.6C241.8,432.5,241.5,436.4,239.9,439.6z"/>
	<path d="M256,448.6c-1.5-0.4-2.1-2.7-0.9-3.8c0,0.8,1,1.4,1.6,0.9c0.3,0.8,0.1,1.8-0.6,2.3L256,448.6z"/>
	<path d="M240.4,442.9c0.2,1.1,0,2.3-0.4,3.4c-0.5-1.7-0.6-3.6-0.1-5.3C240.4,441.5,240.5,442.2,240.4,442.9L240.4,442.9z"/>
	<path d="M245.5,416.8c0.1-1.4,0.3-2.7,0.4-4.1c0.7,1.3,0.7,3,0.1,4.3L245.5,416.8z"/>
	<path d="M223,497.2c0.4-0.6,0.9-1.2,1.3-1.8c0.1,0.7,1.3,0.7,1.5,0.1c0.5,1.1,0.6,2.2,0.4,3.4c-0.8,0.4-1.7,0.5-2.6,0.3
		c-0.4-0.5-0.5-1.2-0.3-1.8L223,497.2z"/>
	<path d="M229.3,500.3c-0.1-1.1-0.2-2.3,0.2-3.4c0.4-1,1.7-1.9,2.7-1.4c-0.2,2-1.4,3.8-3,4.8L229.3,500.3z"/>
	<path d="M234.8,471.5c-1-0.5-1.5-1.9-0.9-2.9C234.8,469.4,235.1,470.6,234.8,471.5L234.8,471.5z"/>
	<path d="M230.4,487.9c-0.8-0.6-0.3-2.2,0.7-2.2C231.6,486.5,231.1,487.7,230.4,487.9L230.4,487.9z"/>
	<path d="M522.4,316.3c-0.6,0.5-1.5-0.2-1.6-0.9s0.5-1.4,1.2-1.8c1.1,0.5,2.3,0.9,3.6,0.9c-1.1,0.5-2.2,1-3.3,1.5L522.4,316.3z"/>
	<path d="M535.5,328.2c1.2,0.4,1.9,1.8,1.5,3c-1.1-0.5-1.9-1.7-1.8-2.9L535.5,328.2z"/>
	<path d="M578.1,382.8c1.7,2.6,3.8,4.9,6.2,6.8c-1.5-0.5-3.2,0.1-4,1.4c-1-0.8-1.5-2.2-1-3.4c-0.8-0.5-2,0.2-1.9,1.1
		c-1.4-1-2.4-2.6-2.7-4.2C575.8,384,576.9,383.4,578.1,382.8z"/>
	<path d="M353.4,699.2c1.3-0.2,3.1,0,3.3,1.3c-1.2,0.1-2.4-0.1-3.5-0.6c-0.3-0.1-0.7-0.4-0.6-0.7s0.8-0.2,0.6,0.1L353.4,699.2z"/>
	<path d="M591,723.5c-1.2-0.6-1.8-2.3-1.2-3.5c0.8,0.9,1.3,2.1,1.2,3.4L591,723.5z"/>
	<path d="M588.8,725.2c-1.3-0.2-1.9-2-1.1-3C588.1,723.3,588.5,724.3,588.8,725.2L588.8,725.2z"/>
	<path d="M440.1,253.4c0.4-1.4,2.5-1.3,3.9-0.8c-1,0.9-2.4,1.3-3.7,1L440.1,253.4z"/>
	<path d="M319.8,657.2c-2-0.3-3.3-2.8-2.4-4.6c0.2-0.7,1.4-0.7,1.7,0c0.4,1.3,0.7,2.6,1.1,3.9L319.8,657.2z"/>
	<path d="M315.3,647.8c0.6,0.3,1.3,0.7,1.9,1c0,0.7,0,1.5,0,2.2c-0.6,0.6-1.6,0.6-2.2,0c-0.1-1.1-0.2-2.2-0.3-3.3L315.3,647.8z"/>
	<path d="M196.3,483.2c0.2,0.6,0.1,1.3-0.3,1.9c-0.6-1.2-0.6-2.6,0-3.7C196.7,481.6,196.9,482.7,196.3,483.2L196.3,483.2z"/>
	<path d="M575.3,374.1c-0.7-0.2-1.5-0.5-2.2-0.7c0.7-0.6,1.4-1.2,2-1.8c0.1,0.7,0.2,1.5,0.3,2.2L575.3,374.1z"/>
	<path d="M204.3,470c0.5-1.7,1-3.5,1.4-5.2c0.6,1.8,0.1,3.9-1.2,5.2L204.3,470z"/>
	<path d="M555.8,733.1c0.2,1.3,0.5,2.7,0.7,4c-1-0.7-2.1-1.4-2.3-2.6s1.2-2.5,2.2-1.8L555.8,733.1z"/>
	<path d="M223.1,421.7c0.5,1.3,0.1,2.9-1.1,3.7c-0.1-1.3,0.4-2.7,1.2-3.7L223.1,421.7z"/>
	<path d="M163.8,483.9c6-80.5,40.1-155.8,73.7-229.1c6-13,12.7-26.9,25.2-33.9c22.9-12.9,45.7-25.7,68.6-38.6
		c24.4-13.7,52.8-27.9,79.3-18.7c-2.6,2.8-5.1,5.5-7.7,8.3c17.2-10.1,40.1-5.4,56.4,6.2s27.5,28.8,38.3,45.6
		c19,29.5,38,59.1,57,88.6c2.7-2.8,3.9-6.8,3.3-10.7c5.9,8.1,11.7,16.2,17.6,24.2c-3.7,0.7-7.5,1.4-11.2,2
		c19.5,24.4,31.9,54.4,35.3,85.4c-1.8-1.2-3.7-2.5-5.5-3.7c19.4,51.8,31.6,106.3,36.3,161.5c1.2,14.1,10.8,25.9,16.2,38.9
		c5.4,13.1,4.5,31.6-8.5,37.3c3.6-0.2,7.2-0.3,10.8-0.5c-3.8,2.7-8.7,3.7-13.2,2.6c1.7,2,3.4,4.4,2.8,7c-0.6,2.5-5.3,3.1-5.4,0.5
		c5.5,8,1.1,20.8-8.1,23.8c5.4,5.5,10.7,11.1,16.1,16.6c-5.1-2.1-10.2-4.2-15.3-6.3c2.4,1.6,5,3.7,5,6.5c0,2.9-4.8,4.7-5.6,1.9
		c-0.3,5.3,10.5,3.4,8.5-1.5c2.1,1,4.5,2.3,5.2,4.6c0.7,2.3-1.7,5.3-3.7,4c4.8,3.2,9.5,6.4,14.3,9.5c-3.9-1.6-7.7-3.2-11.6-4.8
		c0.6,4.6,1.2,9.3,1.8,13.9c4.4,5.1,13.6,4.8,17.6-0.6c9.1,6.4,15,17.3,15.3,28.4c-1.2-7.7-4.5-15-9.6-20.9
		c1.9,11.5-1.4,23.8-8.9,32.8c5.7-9.8,7-22.1,3.5-32.9c-1.8,6.4-5.7,12.3-10.9,16.5c0.8,7,1.6,14,2.5,21.1
		c-25.7,2.1-51.6,2-77.3-0.4c-3.9,0.5-7.9,1-11.8,1.5c-4.9-13-9.8-25.9-14.8-38.9c1.2,13.6,5.4,27,12.1,39
		c-153.1,0-306.2,0-459.3-0.1c0-14.1,0-28.1,0-42.2c13.2,0.3,23.6-11.9,27.4-24.5c3.9-12.6,3.3-26.1,6-39
		c4.8-23.1,19.8-42.6,29-64.4c9.2-21.7,11.1-50.3-6.6-65.9C162.3,519.4,162.5,501.2,163.8,483.9 M488.8,644.7
		c-1.1,0.5-1.9,1.8-1.7,3.1c1-1.1,2-2.1,3.1-3.2c-0.2,1.7-0.5,3.4-0.7,5.1c1,0.4,2.1-0.4,2.4-1.4c0.3-1,0-2.1-0.2-3.1
		c-0.8,0-1.4-1.1-0.9-1.8c-1-0.3-2.5,0.5-1.8,1.3 M244.9,503.7c1.6,0.2,2.9-2.2,1.6-3.2c-1.3,1.5-2.3,3.3-3.1,5.1
		c0.7,0.6,1.7,0.5,2.4,0C245.5,504.9,245.2,504.3,244.9,503.7 M248.7,641.8c-0.5,1.1,0.2,2.6,1.4,2.9c-0.5-2.5-1.7-4.8-3.4-6.6
		c-1.1,1.4,0.1,3.8,1.9,3.8 M516.4,688.8c1.1,0,2.3-0.2,3-1s0.6-2.4-0.4-2.8c-2.4,2.7-4.7,5.3-7.1,8
		C514.1,692.7,516.1,690.9,516.4,688.8 M383,556c-3.2-1.5-4.8-5.6-3.6-8.9c-1,0.8-2.1,1.5-3.1,2.3c-5-5.3-10.6-10.1-16.4-14.5
		c1.3,0.1,2.4-1.6,1.7-2.8c-0.7-1.1-2.7-1-3.2,0.2c-0.3,0.8-0.2,1.9-1,2.3c-0.8,0.4-0.5-1.5-0.2-0.7c-2.4-3.3-4.8-6.6-7.2-9.9
		c-1.6,0.1-3.2,0.1-4.8,0.2c0.6,1.3,0.4,3-0.6,4.1c-0.3-2.4-1.7-4.6-3.8-5.9c-1,0.9-2.4,1.3-3.7,1.2c-1.2,1.2,0.5,3,2.1,3.5
		c1.6,0.5,3.6,1.2,3.5,2.9c-1,15.7,0.4,31.5,4.2,46.7c0.5-1.1,2.4-1.2,3-0.2c-1.3,7.8,0.5,16.1,4.9,22.6c0.5-1.3,0.9-2.5,1.4-3.8
		c1.4,2.3,1.9,5.2,1.4,7.9c3.2,4.6,6.7,9.1,10.4,13.3c11.9,13.6,26.2,25.2,35.1,40.9c8.9,15.7,10.5,37.6-2.5,50.1
		c1.5,2.7,5.7,0.5,7.6-1.9c13.1-15.7,21.7-34.5,29.8-53.3c1.4-3.2,2.7-6.4,3.6-9.8c2-7.4,1.5-15.5-1.2-22.7c-0.2-0.4-0.5,0.6,0,0.5
		c0.5-0.1,0.5-0.7,0.5-1.2c-0.3-3-0.5-6.1-0.8-9.1c-2.7-0.5-4.6-3.4-3.9-6c-3.5,1-7.4,0.9-10.9-0.3c1-2,2.1-4,3.1-6
		c-1.3-3.9-5.3-6.7-9.4-6.6c2.2-9.4,4.3-18.9,6.5-28.3c-2.6,1.4-4.6,3.8-5.4,6.6c-0.4-1.2-0.9-2.3-1.3-3.5
		c-3.8,2.1-6.3,6.4-6.3,10.8c-2.3,0.7-4.9,0.7-7.2-0.1c1.1,0.4,2.3-0.8,2.1-1.9c-0.3-1.1-1.9-1.5-2.7-0.7c-0.7-2.4-1.4-4.9-2.1-7.3
		c1.5-1.1,2.9-2.3,4.4-3.4c-3.1-0.3-6-2.5-7.1-5.4c-3.1,0-6.1-0.1-9.2-0.1c0.5-1.2,1-2.5,1.4-3.7c-1.8-0.2-3.5-0.4-5.3-0.7
		c1.2-0.7,2.5-1.3,3.7-2c-2.7-0.8-5.4-1.7-8-2.5c1.6,1.3,3.1,2.5,4.7,3.8C384.9,552.6,381.7,554.2,383,556 M593.2,439
		c-1.3,0.6-1.6,2.4-0.9,3.5s2.5,1.5,3.7,0.9c-2.1,0-3.2-3.4-1.4-4.6c-0.3-0.8-0.7-1.5-1-2.3c-0.4,0.9-0.5,2-0.3,3 M284.6,232.4
		c-1.8-0.5-3.3,2.4-1.8,3.5c0.5-1,0.9-2,1.4-3c0.1,0.7,0.2,1.4,0.4,2.1c1.8-0.1,3.3-1.6,3.6-3.3c-1.3-0.2-2.7,0.3-3.7,1.3
		 M529.6,331c-0.3,0.4-0.7,0.8-1,1.2c0.9,2.1,2.1,4.6,4.4,4.9c-2-1.2-2.6-4.2-1.3-6.2c-0.5-1.6-1.8-2.8-3.4-3.4
		c0.5,1.3,1,2.5,1.6,3.8 M273.2,692.6c1-0.1,2-0.3,3-0.4c-1.3-1.4-3.1-2.4-5-2.8c0.2,1.2,0.2,2.4-0.1,3.5c0.4,0.6,1,1.3,1.7,1.2
		C273.5,694,273.9,692.7,273.2,692.6 M519.1,422.4c0,0.7,0.5,1.3,1.2,1.4c0.6-0.1,1-0.9,0.6-1.4c-0.3-0.5-1.2-0.5-1.6,0
		c0.1-1.3,0.1-2.6,0.2-3.9c-2,2.3-2.7,5.5-2,8.5C518.1,425.4,518.6,423.9,519.1,422.4 M366.5,321.7c-1.2,0.6-2.5,1.2-3.7,1.9
		c1.1,1.2,2.8,1.9,4.4,1.8c-0.7-1.8-0.3-4,0.9-5.5c-0.7-0.6-1.8-0.6-2.5,0C365.9,320.4,366.2,321.1,366.5,321.7 M578.7,411.1
		c0.2,1.7,2.4,2.9,4,2.1c-1.5-1.8-3-3.5-4.5-5.3c-0.8,0.9-0.7,2.5,0.2,3.3c-0.7-0.2-1.3-0.4-2-0.5c-0.5,0.6-0.1,1.7,0.7,1.8
		c0.8,0.2,1.5-0.7,1.3-1.4 M215.8,446.3c-0.2,0.8-0.1,1.6,0.3,2.3c0.8-0.5,1.3-1.5,1.3-2.4c-1.3,0.5-1.9-1.7-1.5-3.1
		c0.4-1.4,0.2-3.6-1.2-3.4c-0.4,2.3-0.8,4.7-1.2,7c0.7,0.4,1.7,0.2,2.3-0.4 M398.6,199.2c2.3,2,6.7-0.8,5.8-3.7
		c-3,1.6-5.9,3.2-8.9,4.8c0.4,0.6,1.1,1.1,1.9,1.2C398.2,201.1,398.6,200.2,398.6,199.2 M219.5,652.8c0.2-2.4-0.9-4.8-2.7-6.3
		c-0.2,3.4,1,6.8,3.1,9.4c0.4-0.9,0.6-2,0.4-3c0.7,0.4,1.5,0.8,2.2,1.2c0-0.6-0.2-1.4-0.7-1.8s-1.5-0.2-1.5,0.5 M294.8,700.6
		c-0.2-0.9-1.1-1.6-2-1.5c-0.2,1.1,1,2.1,2,1.8c-1,0.3-1.9,0.6-2.9,0.9c1.1,1.5,2.9,2.5,4.8,2.7c0.2-0.9,0.8-1.6,1.7-1.9
		C298.3,701,296.3,699.9,294.8,700.6 M242.2,493.4c2.7-2,4.6-5,5.4-8.3c0.2-0.9,0.3-2.1-0.5-2.6
		C245.4,486.1,243.8,489.8,242.2,493.4 M286.7,215c-0.1-0.7-0.2-1.5-0.3-2.2c-0.7,0.4-1.4,0.7-2,1.1c0,0.8,0,1.5,0,2.3
		c0.8-0.1,1.6-0.6,2.1-1.2c-0.3,2.4-1.4,4.7-3.1,6.3c1.7,0.9,4.1-0.6,4.1-2.5c1.2,1.3,3.7-1,2.5-2.4c-0.5,0.5-1,1-1.6,1.5
		c-0.3-0.9-0.1-1.9,0.6-2.6C288.4,214.9,287.5,214.8,286.7,215 M510.5,499.3c0.2-1.2,0-3-1.2-3.1c-1.1,3.9-4,7.2-7.7,8.9
		c3,1.7,6.4-1.6,7.6-4.8c0.8,1.3,2.8,1.2,4,0.1c1.1-1,1.5-2.6,1.8-4.1C513.2,496.8,511.6,497.9,510.5,499.3 M255.2,655.9
		c0.4,1.8,1.2,3.5,2.3,4.9c-2,0.6-1.3,3.7-0.2,5.5c3,4.9,6.4,10.1,11.7,12.2c1.5-0.7,0.6-3-0.4-4.3c-2.3-2.7-4.5-5.5-6.8-8.2
		c-0.3-2.1-2.2-3.8-4.3-3.9C259.9,660.2,258.2,655.6,255.2,655.9 M220.9,438c-0.7,2.1-1.2,4.3-1.5,6.5c1.3-0.8,2.7-1.7,3.2-3.1
		c0.6-1.4-0.1-3.4-1.6-3.6c0.7-1.2,0.9-2.6,0.6-3.9c-0.8-0.5-1.9,0.3-1.8,1.2c-0.3-0.8-0.7-1.5-1-2.3c-0.5,1-0.9,2-1.4,3
		c0-0.7-0.6-1.4-1.3-1.6c-0.9,0.9-0.1,2.8,1.1,2.7c-1.1,1.2-0.9,3.3,0.4,4.3c0.8-1.5,1.5-3.1,2-4.7c0.3,0.5,0.7,1.1,1,1.6
		 M527.7,429.7c0.9-1.9-0.7-4.3-2.7-4.4c0.7,2.4,1,4.9,0.8,7.4c0.5,0.4,0.9,0.7,1.4,1.1c-0.8,2.1-0.4,4.7,1,6.5
		c0.5-1.9,0.3-4-0.5-5.8c1.1-0.5,3-0.5,2.7,0.7c0.4-0.6,0.8-1.3,1.2-1.9c-1.1-0.5-1.8-1.8-1.6-3.1
		C529.1,430,528.4,429.8,527.7,429.7 M349.5,645.1c-1.3-2-2.9-3.8-4.7-5.2c0.8-0.5,1.4-1.4,1.6-2.3c-2.5-0.3-4.9-0.7-7.4-1
		c1.3,1.4,2.3,3.1,3.1,4.8c0.5-0.4,1.1-0.8,1.6-1.1c0.4,0.9,0.8,1.8,1.1,2.8c-1-0.1-1.9,0.5-2.3,1.4c0.7,0.4,1.4,0.8,2.1,1.1
		c0.1-0.8,0.2-1.5,0.3-2.3C346,644.5,347.8,645.3,349.5,645.1 M487.4,651.9c0.8-1.1,0.6-2.7-0.4-3.6c-0.6,0.4-1.2,0.8-1.8,1.2
		c-0.4,0.3-0.9,0.5-1.2,0.9c-2.2,1.8-3.1,5.1-2,7.8c1-1.8,2.1-3.6,3.1-5.3c0.3,0.9,1.7,1.1,2.2,0.4c0,1,1,2,2,2
		c0.4-0.8,0.5-1.8,0.3-2.7C488.9,652.3,488.1,652.1,487.4,651.9 M340,324.7c0.4-0.9,0.8-1.8,1.1-2.6c-0.7-0.3-1.6-0.3-2.3,0
		c0.3-0.8,0.6-1.5,0.9-2.3c-1.3-0.8-3.3,0.3-3.3,1.8c-1.3-0.3-2.3-1.6-2.3-3c-1.4,0.4-2.3,2-1.9,3.4c1.6,1,3.7,1.1,5.5,0.3
		c0,0.8,0,1.6,0,2.3C338.4,324.7,339.2,324.7,340,324.7 M220.8,640.3c-1.3,0.5-2.4-1-2.5-2.4c0-1.3,0.6-2.6,0.7-3.9
		c0-1.2-0.4-2.3-1.1-3.2c-3.1,5.2-1.3,12.6,3.8,15.8C221.4,644.5,221.1,642.4,220.8,640.3 M315.7,298.1c0.7,0.6,1.8,0.6,2.4,0.1
		c2.9-1.8,5.3-4.4,6.8-7.5c-0.1-1.3-1.9-1.9-3.1-1.4c-1.2,0.5-2,1.7-2.6,2.9C318,294.1,316.9,296.1,315.7,298.1 M398.4,219.5
		c-1.4,0.1-3.3-0.2-3.3-1.6c-1.4,1.9-3.6,3.1-6,3.2c-1.8,0.1-4.1-0.1-4.9,1.5c3.8,1.3,7.9,1.3,11.8,0.2
		C397.6,222.4,399.4,220.8,398.4,219.5 M302.2,670.6c1.9,1.7,4.9,2,7.1,0.7c-2.1-0.7-4.3-1.2-6.6-1.5c-1.1-1.2-2.5-2-3.9-2.7
		c-3.5-1.9-7.1-3.8-10.6-5.7c-0.8,0.7-0.2,2.2,0.8,2.2c-1,0.2-1.7,1.3-1.5,2.3c1.3,1.1,3.5,0.5,4.2-1c1.4,0.2,2.3,2,1.7,3.3
		C296.2,669,299.2,669.8,302.2,670.6 M190.8,622.1c1,0.1,2-0.7,2-1.7c1.4,0.7,3.3-0.5,3.3-2c-0.8-0.1-1.1-1.1-0.9-1.9
		s0.9-1.3,1.5-1.8c2.9-2.6,4.6-6.4,4.8-10.2C196.8,609.5,193.1,615.5,190.8,622.1 M273.4,444.9c0.1,2.2,0.2,4.5,0.3,6.7
		c0.1,1.6,0.1,3.2,0.2,4.8c0.1,2,0.3,4.3,1.8,5.6c1.2-1.1,1.3-3,1.2-4.7c-0.3-6.9-1.6-13.7-3.9-20.1
		C273.2,439.8,273.3,442.4,273.4,444.9 M407.6,185.9c0.3-2,0.5-4,0.8-5.9c-1.6-0.2-3.6-0.3-4.6,1c0.7,0.5,1.4,1,2.2,1.4
		c-0.3,1.7-2.7,1.8-4.4,1.4s-4.1-0.4-4.5,1.2c1.4-0.1,2.8-0.2,4.1,0.4s2.1,2.2,1.5,3.4c1,0.7,2-1,2.1-2.2c0.3,1.1,1.2,2,2.2,2.4
		c0.2-1.1,1.5-1.5,2.4-2s1.6-2.2,0.5-2.5C409.5,185.3,408.6,185.9,407.6,185.9 M221.9,419c-1.5,3.9-2.5,8.1-2.8,12.3
		c1.3,0.6,2.8,0.4,3.9-0.4c1-2,1.1-4.5,0.2-6.6c1-0.6,2.2-1.5,2.1-2.8c-0.1-1.2-2.6-1.1-2.1,0c0.3-1.3,0.5-2.7,0.8-4
		c0.2-0.8,0.3-1.6,0.9-2.1c0.6-0.5,1.7-0.5,2,0.2c-0.8-2.6-1.1-5.5-0.9-8.2C223.9,410.9,222.5,414.9,221.9,419 M511,342.3
		c1.2,0,2.5,0.3,3.6,0.9c0.6-0.4,1-1.1,1-1.8c-1.5-1.1-2.4-3.1-2.3-5c-3.5-0.7-4.8-5-5.2-8.5s-0.8-7.8-4-9.5
		c0.6,2.8,1.2,5.7,1.8,8.5c0.8,3.8,1.6,7.6,3.1,11.2c0.5-0.5,1.1-1,1.6-1.6C510.9,338.5,511,340.4,511,342.3 M183.8,636.5
		c-0.1-0.7-0.2-1.5-0.3-2.2c-1,0.4-1.5,1.7-1.1,2.6c0-0.6,1-0.2,1.1,0.4c0.4,1.7-0.7,3.4-1.4,5c-0.6,1.7-0.2,4.2,1.6,4.3
		c-1.1,4-1.2,8.3-0.2,12.3c1.6-7.2,3.2-14.4,4.8-21.6c0.2-0.7-0.6-1.9-1-1.3c-0.9,2.4-1.8,4.7-2.7,7.1c0-2.7,0.5-5.3,1.5-7.8
		C185.2,635.4,184.3,635.8,183.8,636.5 M184.4,493.5c0.3-1.2,0.6-2.4,0.9-3.7c-0.7-0.1-1.4-0.3-2.1-0.4c-0.4,2.1-1.4,4.2-2.9,5.8
		c1.5,0.4,1,2.6,0.4,4c-1.9,4.3-2.4,9.2-1.3,13.8c1-3.9,2.1-7.8,3.1-11.7c0.3-1.2,1.5-2.7,2.4-1.9c-2.3,3-3.1,7-2,10.6
		c0.9-2.6,1.9-5.3,2.8-7.9c0.5-1.3-0.1-3.5-1.3-2.9c0.7-0.9,1.4-1.9,1.6-3C186.1,495.1,185.5,493.8,184.4,493.5 M202.8,470.4
		c0.8-0.9,2,0.7,1.9,1.8c-0.1,1.2-0.5,2.7,0.6,3.3c2.1-3.2,3.4-7,3.6-10.8c2.3-1.2,3.4-4.4,2.2-6.8c-0.4-0.5-1.3-0.7-1.9-0.4
		c1.9-4,3.1-8.3,3.6-12.7c-1.1-0.5-2,0.8-2.4,2c-1.2,3.5-1.9,7.2-2.1,11c-0.7,2.1-1.5,4.2-2.2,6.3c0.6-1.3-0.1-3-1.4-3.5
		C204.7,463.9,204,467.3,202.8,470.4 M418.3,188.7c-2.4,0.8-4.8,1.5-7.2,1.9c0.6,2.1,4,2.4,5,0.6c-0.4,1.2-0.7,2.5-1.1,3.7
		c-2.9-2.6-8.1-1.8-10.1,1.6c1.3,0,2.5-0.1,3.8-0.1c-0.6,0.5-1.2,1.1-1.8,1.6c1,0.1,2,0.3,2.9-0.2c0.9-0.5,1.3-1.8,0.5-2.4
		c1.9,1.3,4.3,1.6,6.5,0.9c1.2-2,1.9-4.2,2.1-6.5c2.8-0.6,5.5-1.9,7.6-3.8c-3.9,0.5-7.8,1-11.6,1.5
		C415.7,188.2,417,188.7,418.3,188.7 M562.6,472c0.9-1.3,1.6-3.4,0.2-4.2c-3.9,5.3-7.8,10.7-11.7,16c1.7-0.6,2.9,2,2.2,3.7
		s-2.2,3-2.5,4.7c3.7-0.4,5.5-6.1,2.6-8.6c0.8-1.4,2.9-1.9,4.3-1c1.9-2.5,3.7-5,5.6-7.6c0.4-0.6,0.9-1.3,0.9-2
		C564.1,472.5,563.3,471.7,562.6,472 M398.4,206.3c-1,0.4-2,0.8-3,1.1c-0.1,1.7,2.3,2.2,4,1.9c6-1.3,11.7-6,17.7-4.3
		c-0.2-1.9-1.9-3.5-3.8-3.7c-4.8,1.1-9.6,2.3-14.4,3.4c-0.6,0.1-1.2,0.3-1.4,0.9C397.2,206.2,398.1,206.8,398.4,206.3 M204,615.2
		c-0.8-0.1-1.6-0.3-2.4-0.4c1.8-1.8,2-4.9,0.6-6.9c-1.8,4.2-3.5,8.3-5.3,12.5c-1.9,4.6-3.9,9.4-3.7,14.3c-1.1-0.8-2.7-0.1-3.3,1.1
		s-0.6,2.6-0.4,3.9c1.2-0.7,2.1-2.1,2.1-3.5c0.2,2.1,0.3,4.2,0.5,6.4c0.5-1.8,1-3.6,1.5-5.4C195.7,629.2,198.1,620.9,204,615.2
		 M467.9,560c-2.5,2.5-6.5,3.4-9.9,2.2c-0.5,1.1,1,2.5,2.1,1.9c0.4,0.6,0.6,1.3,0.4,2c-1.3,0.3-2.7,0.6-4,0.9
		c4.7,3.4,11.5,0.2,15.5-4.1c-2.5,0.7-5,1.4-7.4,2.1c1.5-2.4,4.9-2.5,7.6-3.2c2.8-0.7,5.7-3.7,4-6c-1,1.4-2.8,2.1-4.4,1.7
		c-0.1,0.8,0.6,1.7,1.4,1.8c-1.7,0.4-3.4,0.5-5.2,0.3c0.4-0.7-0.4-1.5-1.1-1.5c-0.8,0-1.4,0.6-1.8,1.2
		C465.9,559.5,466.9,559.8,467.9,560 M557.2,343.2c0.1-2.1,0.2-4.2,0.3-6.3c7.1,4.1,7.2,15,13.8,20c0.3-1.9-0.6-3.8-1.5-5.5
		c-2.8-5.1-5.9-10-9.3-14.7c-0.8-1.1-2.7-2.1-3.2-0.9c0.2-3.1-1.1-6.3-3.5-8.4c-0.5-0.5-1.1-0.9-1.3-1.6c-0.2-0.7,0.4-1.6,1.1-1.3
		c-0.5-1.7-2-3.1-3.7-3.5c2,6.2,4.3,12.3,6.8,18.3c-0.7,0.1-1.3,0.2-2,0.4C554.8,341.2,555.8,342.6,557.2,343.2 M190.3,476.5
		c0-1.7-0.1-3.3-0.1-5c1.7-4.5,3.2-9.1,4.5-13.8c-1.5-1.2-3.3,1-4,2.8c-1.2,3.3-2.4,6.6-3.6,9.8c-0.4,1.1,0.1,2.9,1.1,2.3
		c-1.1,2.3-2.2,4.7-3.3,7c-1.3,2.9-2.7,6.3-1.1,9.1c0.7-0.4,1.3-0.8,2-1.1c0.2-1.1-0.3-2.3-1.3-2.7c2.4-2,3.8-5.3,3.5-8.5
		C188.8,476.7,189.6,476.7,190.3,476.5 M567.6,360.2c-0.9-1-0.2-2.9,1.1-3c-1.4-1.7-2.8-3.3-4.1-5c-0.3,1.6,0.5,3.4,1.9,4.2
		c-1.9,0.8-1.5,3.6-0.7,5.6c1,2.4,2,4.9,3.1,7.3c0.4,0.9,0.8,1.9,1.7,2.3c0.9,0.4,2.3-0.3,2-1.3c0.7,0.8,0.9,1.9,0.5,2.9
		c-0.6-0.3-1.3-0.5-1.9-0.8c-0.9,1.8,2,4,3.4,2.6c0.8-0.6,1.6-1.1,2.5-1.5C575.5,368,573.1,361.7,567.6,360.2 M197.6,486.5
		c-0.1,1.3,1.4,2.4,2.6,2.1c-1-0.7-1.1-2.4-0.1-3.2c-0.6-0.4-1.5-0.3-1.9,0.3c1.3-7.9,2.7-15.8,4-23.7c-0.7-0.5-1.4,0.5-1.6,1.3
		c-1.3,5-2.5,10-3.8,15c0.3-0.6-0.6-1.2-1.2-0.9c-0.6,0.3-0.8,1-1,1.7c-1.1,4.3-2.1,8.7-3.2,13c-0.6,2.6-0.9,6,1.5,7.2
		c0.3-0.7,0.4-1.6,0.2-2.4c0.3-3,0.6-6.1,0.9-9.1C195.1,486.9,196.4,486.5,197.6,486.5 M342.9,713.3c0.9-0.7,0-2.6-1.1-2.3
		c1.8-1.2,4.2-1.4,6.3-0.6c-3.1,1.4-5.6,4-6.9,7.1c6.7-3.1,13.5-5.8,20.5-8.1c0.6-0.5,0.6-1.6,0-2.1c-1.4,1-3.3,0.6-5,0.2
		c-4.4-0.9-8.9-1-13.4-0.3c2.3-0.7,4.6-1.5,6.9-2.2c1.1-0.4,2.5-1.2,2.2-2.3c-8.4,1.5-16.7,3.1-25.1,4.6c-1.3,0.2-3,1.3-2.4,2.4
		c6.1-1.3,12.3-2.1,18.6-2.4c-2,0.2-4,1-5.6,2.2c0.9,1.3,2.6,1.9,4.1,1.4C341.1,711.8,341.8,713.5,342.9,713.3 M594.8,714.5
		c-1.3,1.9-2.2,4-2.6,6.2c0.5-2.2-0.9-4.6-3-5.3c-0.3,0.8-0.7,1.6-1,2.4c0.2-2.5-1.3-5.1-3.6-6c0.6,2.5,1.1,5,1.7,7.5
		c-2.7-6.3-5.4-12.5-8.1-18.8c-0.9,2.5-0.7,5.4,0.5,7.9c3.6,2.6,1.1,9,4.2,12.2c3.2,3.2,5.6,7.3,6.8,11.7c1.4,0,1.7-2,1-3.2
		c-0.7-1.2-1.9-2.2-2-3.6c1.2,0.3,2.3,1.1,2.8,2.3c0.5-1.7,2.3-2.8,4-2.6c-1.1-1.2-2.2-2.5-3.3-3.7
		C595,720.5,596.4,716.8,594.8,714.5 M389.9,241.2c4.4-1.4,8.6-3.3,12.5-5.7c2.4-1.5,4.7-3.1,7-4.8c3.9-2.8,7.8-5.6,11.7-8.4
		c0.6-0.7,1.3-1.3,2-1.9c-0.8-1.7-3.3-0.7-4.8,0.4c-2.3,1.9-4.7,3.7-7,5.6c-3.5,2.8-8.5,5.6-11.9,2.8c4.3-0.1,8.5-1.8,11.8-4.6
		c1.3-1.1,2.3-3.6,0.7-4.3c-0.9-0.4-1.9,0.1-2.7,0.7c-3.5,2.3-6.9,4.8-10.2,7.4c-4.1,1.9-8.1,3.8-12.2,5.8c2.9,0.7,5.8-0.8,8.5-2.2
		c0.4,1,0.8,2,1.2,3c-1.7,0.3-3.5,0.6-4.9,1.6C390,237.7,389.1,239.6,389.9,241.2 M571.2,385.1c5.1,4.8,10.2,9.7,15.3,14.5
		c0.6,0.1,1.2,0.3,1.8,0.4c0.5-0.8,0.9-1.5,1.4-2.3c0.9,1.3,3.4-0.3,2.5-1.7c-1.4-1.8-3.5-2.9-5.8-2.9c0.3,1.7,0.7,3.3,1,5
		c-1.9-2.3-3.7-4.5-5.6-6.8c1.2,0.2,2.4-0.7,2.5-1.9c1.3,0.4,2.5,0.9,3.7,1.5c-1.2-5.4-3.7-10.4-7.1-14.7c5.9,2.9,6,12.4,12,15.2
		c0.9-5.6-2.1-10.9-5-15.7c-3-5-6.1-10-9.1-15.1c-1.1-1.8-2.4-3.7-4.5-3.9c0.6,2.3,1.7,4.5,3.2,6.3c-0.9-0.3-1.1,1.2-0.8,2.1
		c1.5,3.7,2.9,7.3,4.4,11c-0.9-1-2-1.8-3.2-2.4c-0.7,0.8-1.4,1.7-2,2.5c0.2,1.8,0.4,3.7,0.5,5.5c-1.5-0.2-3,1.4-2.7,2.9
		C573.1,384.3,571.9,384.4,571.2,385.1 M525.4,320.5c1.3,0.6,2.2,1.8,3,3c3,4.4,6,8.8,9,13.1c0.7,1.1,1.5,2.2,2.8,2.5
		c1.2,0.4,2.8-0.6,2.6-1.9c0.9,0.3,1.4,1.3,1.3,2.2c-0.4,0-0.8-0.1-1.2,0.1c-0.8,0.4-0.5,1.8,0.4,1.9c0.9,0.1,1.4-1.2,0.7-1.8
		c0.7,0.8,1.6,1.2,2.6,1.3c1-1.2,0.4-3.1-0.6-4.3c-1-1.2-2.3-2.2-3.1-3.5c-0.6-1.1-0.7-2.4-1.3-3.6c-0.6-1.1-1.9-2.1-3.1-1.6
		c-5.3-6.1-10.6-12.2-15.9-18.2c-1.3,2.1-2.7,4.2-4,6.2c2.2,2.5,4.5,5,6.8,7.5C526.1,322.7,526.1,321.4,525.4,320.5 M604,484.5
		c-1.1-0.2-2.2-0.4-3.3-0.6c1.3,2.3,3.1,4.3,5.3,5.9c-0.9,0.4-1.7,0.8-2.6,1.2c4.4,3.8,8.4,8.1,11.8,12.9c0.8,1.2,2.7-0.6,2.2-1.9
		c-0.5-1.3-2-2-3.2-2.8c-1.2-0.8-2.1-2.6-1-3.6c0.1,1.5,1.8,2.6,3.2,2.1c-1.2-8.2-5.9-15.8-12.8-20.3c0.8-0.3,1.5-0.6,2.3-0.9
		c-0.4-0.6-0.7-1.3-1.1-1.9c-2.1,0-3.5,2.4-3.3,4.4S602.9,482.8,604,484.5 M395.4,661c-0.5,4.5-0.9,9-0.9,13.5
		c-0.2-2.3-0.5-4.6-1-6.9c-1.4,2.2-1.2,5.3,0.5,7.3c-0.5,0.5-1.1,1.1-1.6,1.6c-1.4,3.9-1.5,8.3-0.3,12.2c1.1,3.5-1.7,7.8,0.6,10.6
		c1.9,2.2,6.3,0.7,6.4-2.2c0.6-0.3,1.2-0.6,1.8-0.8c-1.2-0.5,0-2.1,0.8-3.1c0.9-1.2,1-2.9,1-4.4c-0.1-7.2-1.2-14.4-3.4-21.2
		C398.5,665.2,397.5,662.6,395.4,661 M229.4,480.4c1.1-0.8,2.3-1.6,3.4-2.4c-0.2,1.7-0.5,3.5-0.7,5.2c-1.1,0.6-2.2,1.3-3.3,1.9
		c-0.1-0.8-0.7-1.4-1.5-1.5c-0.2,0.8-0.5,1.5-0.7,2.3c-0.4-0.9-1.9-0.8-2.3,0c0-0.7-0.6-1.4-1.3-1.5c-1.2,1.7-1.5,3.9-1,5.9
		c0.6-0.9,1.2-1.9,1.8-2.8c-0.4,0.9,0.7,2.1,1.7,1.8c-0.3,0.8-0.7,1.7-1,2.5c-0.5-0.7-1.7-0.4-2.1,0.3c-0.4,0.8-0.3,1.7-0.1,2.5
		c-0.1-0.8-1.5-0.7-1.8,0.1c-0.3,0.8,0.1,1.6,0.5,2.3c0.7,1.3,1.4,2.6,2.2,3.9c-0.8,0.8-1.3,2.2-0.5,3c0.8,0.8,2.4-0.8,1.4-1.3
		c1.9,0.5,1.6,3.3,0.7,5s-1.6,4.3,0.2,5.2c1.5-3.7,2.8-7.5,3.8-11.3c0.4,1.1,0.7,2.2,1.1,3.2c-3.3,5.7-3.8,12.9-1.4,19
		c0.7-6.1,1.4-12.2,2.1-18.3c1.3-0.8,1.2-2.7,0.9-4.3c3.8-1.6,4.9-7.3,2-10.1c3-5.3,4.1-11.7,3.2-17.7c-0.3-1.8-0.5-3.6-0.8-5.4
		c-0.2-1-0.3-2.1-0.1-3.1c0.2-1.1,0.8-2.1,0.9-3.2c0.2-1.1-0.3-2.4-1.4-2.7c-2.9,4.5-4.2,10-3.7,15.3c-1-0.8-2.2,1-2,2.3
		C229.7,477.9,230.4,479.5,229.4,480.4 M255.3,430.5c1.9,3.7,2.4,8.1,1.5,12.2c-0.2-2.1-1.1-4.1-2.5-5.5c-1,4.4-1.4,9-1.4,13.5
		c-0.3-1.5-0.6-3-0.8-4.5c-1.1,0.6-2.3,1.2-3.4,1.8c0.2-2.1,1.4-4.1,3.2-5.2c-3.1-0.1-5.9,2.6-6.1,5.6c-0.2,3,1.2,7.1-1.7,8.1
		c-0.1-9.5,0.4-19,1.6-28.4c-0.1-1,1-1.8,1.9-1.5c-1.2,5.3-1.4,10.8-0.8,16.2c1.1-1.3,2.1-2.6,3.2-3.8c-0.9,1,0.1,3,1.5,2.9
		c0.2-4.7-0.1-9.4-0.7-14c1.7-1.4,1.3-4,1-6.1c-1.3-8.5,0.8-17.5,5.6-24.7c-1-1.6-3.2,0.5-3.8,2.3c0.5-0.9-0.8-2.1-1.7-1.5
		s-0.1,2.2,0.9,2c-3.3,7.5-4.6,16-3.5,24.1c-5-8.4,3.5-20.8-2.5-28.5c1.5,0.2,2.8,1.6,2.8,3.1c1.9-3.5,1.5-8-0.8-11.2
		c-4.5,12-6.6,24.9-6.2,37.8c-0.4-2.9-0.8-5.8-1.2-8.7c-1,0.2-1.3,1.4-1.5,2.4s-0.5,2.2-1.5,2.4c-1,0.2-1.5-1.8-0.5-1.6
		c-0.4,1.1-0.7,2.2-1.1,3.3c0.8,0.3,1.8,0.3,2.6-0.1c-2,9.7-2.6,19.6-1.8,29.5c0.4,12.6,0.8,25.2,1.2,37.7c0,1.3,2,2.8,2.1,1.5
		c-0.5-3.7-0.6-7.5-0.4-11.2c1,0.3,2,0.6,3,0.9c-2.1,0.6-2.7,3.8-1,5.1c2-1.6,3.3-4.1,3.4-6.7c-0.5,1.2,1.9,1.2,2.7,0.2
		c1.2-1.5,2-3.3,2.2-5.2c-0.8,1.8-2.4,3.3-4.2,4c1.5-1.3,1.4-4-0.1-5.3c2.1-0.3,3.4-2.4,3.6-4.5s-0.5-4.1-0.9-6.1
		c-0.8-4.4-0.1-9.1,2-13.1c0.5,5,0.9,10,1.4,14.9c2.7,2.7,3.4,7.2,1.7,10.6c2.5-2.2,4-5.6,4-8.9c4.2-2.1-0.8-10.2,3.1-12.9
		c0.9-6.4,1.9-12.8,2.8-19.2c-1.8-0.5-3.8,1.3-3.6,3.1c0.2-2.7-0.6-5.5-2.4-7.5c0.5-2,1-4,1.5-6c-1.2-0.1-2.3,1.3-2,2.5
		c-1.5-2.7-1.5-6.1-0.2-8.9c-1.7-2.1-1.6-5.4,0.2-7.4c-0.4,1.8,0.2,3.9,1.5,5.2c-0.3-3.4-0.6-6.8-0.9-10.2c0.2,0.8-1.3,1.1-1.8,0.4
		c-0.5-0.7-0.2-1.7,0.1-2.5c-5.1,5.1-1.7,13.8-2.9,21c-0.4,2.3-1.2,4.6-1.2,6.9c0,2.3,1.3,4.9,3.6,5.4
		C254.5,434.6,254.2,432.2,255.3,430.5 M406.7,248.8c-5.8,3.6-11.6,7.3-17.3,10.9c-2.1,1.3-4.2,2.6-6.5,3.4
		c-15.9,5.1-31.8,10.2-47.6,15.3c-2.1,0.7-4.2,1.4-5.6,3c-1.4,1.6-1.7,4.4-0.1,5.8c5.3-2.3,11.8-1.5,16.3,2.1
		c-3.2,2.3-8,1.9-10.7-0.9c-0.7,2.2-1.3,4.4-2,6.6c-9-0.4-17,8.9-15.3,17.7c-1.8,1.7-3,4-3.4,6.4c0.8,1.4,1.9,2.5,3.2,3.4
		c1.1-1.1,2.3-2.3,3.4-3.4c-2.6-0.4-0.7-4.6,1.8-5.1c2.5-0.5,5.9-0.3,6.9-2.6c2.1,1.3,4.1,2.7,6.2,4c-1.3,0.5-1.5,2.6-0.3,3.3
		c6.4,0.3,12.9,0.6,19.3,1c0-1,0-1.9-0.1-2.9c5.6,0.1,11.3-2,15.4-5.9c2.5-0.2,5-0.4,7.5-0.6c-1-1.5-2.5-2.7-4.2-3.2
		c2.9-1,6.7,1.1,6.5,4.1c1.2-1.6,2.3-3.1,3.5-4.7c9.2,5.1,19,9.1,29.2,11.9c4.8,2.8,7.1,9.4,5,14.5c-5.2-8.5-16.2-13-25.9-10.7
		c-2.4,0.6-4.9,1.2-7.3,1.9c0-2-2.2-3.5-4.2-3.4c-2,0-3.8,1.1-5.5,2.2c2,0.6,3.9,1.2,5.9,1.8c-7.9-0.5-16,2.2-22,7.5
		c8.4-1.3,16.9-1.5,25.3-0.8c0.3-2,0.5-3.9,0.8-5.9c0.1,2.1,0.2,4.3,0.3,6.4c4.1,1.9,8.1,3.8,12.2,5.7c-5,5-15.1-5.4-19.8-0.1
		c-2,2.2-1.1,5.7-2,8.6c-1.1,3.9-5.4,6.1-9.4,6.3c-4,0.2-7.9-1.3-11.6-2.8c4.2,6.2,13.8,7.9,19.9,3.5c-1.2,2.3-2.3,4.6-3.5,6.8
		c-9.2,0.9-18.4,1.2-27.7,0.9c2.8-1.6,5.5-3.2,8.3-4.8c-1.9,1.4-4.5,0.1-6.9,0.2c-2.3,0.1-3.8,4.4-1.4,4.3
		c-8.3,1.9-17.1,1.4-25.1-1.5c-0.2,1.5-0.3,3-0.5,4.5c-0.9-0.4-1.7-0.9-2.6-1.3c0.7,12.6,5.9,25,14.5,34.3
		c5.9,5.1,11.9,10.2,17.8,15.3c0.6,3.7,1.2,7.5,1.9,11.2c-1.8-0.1-3.1,2.3-2.1,3.8c-1.4-1.7-2.2-3.9-2.2-6.1c-1.3-0.1-2.7-0.2-4-0.4
		c-0.5,1.6-0.3,3.4,0.6,4.8c-1,0.4-1.9,0.7-2.9,1.1c-0.9-1.2-1.1-2.9-0.5-4.3c-2.4-0.3-4.1,3.4-2.3,5c-3.7,0.9-7.7-0.9-11.3,0.4
		c-4.3,1.6-5.8,7.4-4.3,11.7c1.5,4.4,5.1,7.6,8.6,10.6c25.3,22.2,51,44.6,81.3,59.3c12.6,6.1,26.2,10.8,40.1,10.5
		c13.9-0.4,28.3-6.7,35.6-18.6c3.9-6.3,5.5-13.7,7-21c5.4-25.2,10.9-50.4,12-76.2c1.2-25.7-2.2-52.1-13.6-75.2
		c-1.6-0.7-3.3-1.3-4.9-0.8c-1.6,0.5-2.5,3-1.1,3.9c1.1,0-0.1-1.9-1-1.3c-0.8,0.7-0.6,2-0.5,3c0.3,4.5-4.5,8.7-8.9,7.7
		c1.5-0.5,3-1,4.5-1.5c-1.5-0.6-2.5-2.3-2.3-3.9c-1.5,1.6-3.9,2.3-6,1.7c2.6-2.6,5.5-4.8,8.7-6.5c-1.1-1.5-4-1.1-4.6,0.7
		c-1.4-1.6-2.8-3.3-4.1-4.9c1.7,0.3,3.6-0.8,4.3-2.4c-2.5-0.2-4.9-0.4-7.4-0.6c2,4.1-0.9,9.3-5,11.2c-4.2,1.9-9.1,1-13.3-0.7
		c1.1-3-4-5.7-5.8-3c-2.8-1.5,0-5.7,2.8-7.3c8.9-4.8,18.6-8.1,28.7-9.6c0.8-1.8-1.6-3.9-3.3-2.9c1.5-0.6,3.1-1.2,4.6-1.8
		c-1.9-1.3-3.7-2.6-5.6-4c-1.5,0.6-3.5,0.1-4.5-1.1c1.3,0.2,1.3-2.5,0-2.3c-8.4,4.5-17.4,7.8-26.8,9.6c9-5.6,17.9-11.2,26.9-16.9
		c3.2-2,6.7-4.5,7.5-8.2c0.5,2.7,1,5.3,1.4,8c-1.5,0.1-2.9,1.2-3.4,2.6c3.8-0.5,7.6-1,11.4-1.6c0.2,2.2,1.7,4.3,3.7,5.3
		c-1-5.7-3.2-11.2-6.3-16.1c-1.4-2.1-3-4.2-5.3-5.2c-2.3-1-5.5-0.5-6.7,1.7c2.3,0.1,4.6,0.2,6.9,0.3c1-0.1,1.3,1.5,0.5,2.2
		c-0.8,0.6-1.9,0.5-2.9,0.2c-9.7-2.3-18.9-6.8-26.5-13.2c6.2,2.2,13.2,2,19.2-0.6c-13.1,0.2-26.3-2.5-38.3-8
		c6.3,0.6,12.6,0.3,18.8-1c-0.4,1.1-2.2-0.4-1.5-1.4c0.6-1,2-0.9,3.2-0.7c1.1,0.2,2.5,0.3,3.2-0.6c-4.7-2.2-10.7-1.2-14.5,2.4
		c-3-0.3-6.1-0.7-9.1-1c-1.2-0.1-2.6-0.1-3.3,0.9s1.1,2.5,1.6,1.4c-11.9-3.2-24.5-3.7-36.7-1.4c10.9-5.2,21.8-10.4,32.7-15.6
		c2.8,0.8,2.4,5.4-0.1,7c-2.5,1.6-5.7,1.1-8.6,1c-2.9-0.2-6.4,0.3-7.9,2.8c15.4-1.8,30.6-5.7,44.9-11.5c-2.1,0.2-4.2,0.4-6.3,0.6
		c1.7-0.9,3.5-1.8,5.2-2.7c-1.8,0-3.7,0-5.5,0c0-1.9,0.5-3.9,1.4-5.6c-4.1,1.2-8.4,1.5-12.6,1c-1.4,1-2.8,2-4.2,3
		c-4.1,1-8.2,2-12.4,3c1.7-2,3.3-4,5-6c-2.7-0.6-5.5-1.1-8.2-1.7c0.9,0.3,1.2,1.7,0.5,2.4c-0.7,0.7-2.1,0.4-2.4-0.5
		c-4,3.8-8.1,7.6-12.1,11.4C401.4,248.7,404.1,248.6,406.7,248.8 M352.7,696.2c-1.4,0.4-2.8,0.7-4.2,1.1c0.4,1,0.9,1.9,1.6,2.7
		c-11.4,0.5-22.8,1.1-34.2,1.6c-2.5,0.1-5.2,0.3-7.4,1.5c11.2,1,22.5,0.9,33.8-0.2c7.5-0.8,15.1-0.7,22.6,0.2
		c-2.3-1-4.5-1.9-6.8-2.9c0.9,0.7,1.8-1.3,0.9-2.1c-0.9-0.7-2.2-0.4-3.4-0.3C354.3,697.9,352.8,697.4,352.7,696.2 M444,248.4
		c-5.3,1.5-10.7,3.1-16,4.6c-0.2,0.7-0.5,1.4-0.7,2.1c-1.6-0.5-3.5-0.2-4.9,0.8c3,1.3,6.3,1.8,9.5,1.3c0.9,1.3,3.2,1.3,4.1-0.1
		c4.3,0.5,8.8-0.5,12.5-2.8c-0.9-0.2-1.7-0.4-2.6-0.5c-0.4-0.6-0.7-1.3-1.1-1.9c2.4-1.3,4.9-2.4,7.6-3.1c-2.8-1.6-6.9-0.6-8.6,2.2
		C443.4,250.2,443.4,249.1,444,248.4 M181.9,422.3c0.1,0.8,0.8,1.6,1.7,1.7c0.2-1.4-1-2.8-2.3-2.8c-2.2,2-3.8,4.7-4.5,7.7
		c1.1,0.1,2.2-0.3,3-1.1c-3.1,8.5-6.2,17-9.3,25.4c-1,2.6-1.9,5.4-1.3,8.1c2.5-0.3,3.4-3.6,3.5-6.2c0.1-2.6,0.7-5.8,3.2-6.4
		c-0.5-0.5-0.9-0.9-1.4-1.4c-0.2-2.4,0.8-4.9,2.7-6.4c0.8-0.6,1.8-1.2,1.9-2.2c0.5-3.7,2-7.2,4.4-10.1
		C184.8,426.8,180.1,424,181.9,422.3 M321,649.6c-0.7-1.1,1.1-2.1,2.4-2.3c-3.5-2.1-7.9-2.5-11.7-1.1c-0.3-1.2-1.9-1.9-3-1.4
		c-0.1,1.3,0.2,2.5,0.8,3.6c1.1,1.9,3.2,3,4.9,4.5c1.7,1.5,3.1,3.8,2.1,5.9c2.9-0.5,6-0.2,8.8,1c-1.2-1.7-2.3-3.3-3.5-5
		c1-0.5,2-1,3-1.5C325.1,651.4,322.8,650.2,321,649.6 M533.6,723.7c0.5,0.6,0.9,1.2,1.4,1.8c-3,4.3-5.9,8.5-8.9,12.8
		c1.2,1.4,3.4-0.2,4.4-1.7c3-4.2,6.1-8.5,8.2-13.4c2-4.8,3-10.3,1.7-15.3C538.8,713.4,536.5,718.7,533.6,723.7 M310.7,680.3
		c0-0.7,0-1.5,0.1-2.2c-2,0.9-4.4,0.7-6.2-0.5c2,0.5,4.2-0.1,5.6-1.6c-6.5-1.1-12.9-3.2-18.9-6.1c-1,1.2,0.4,2.9,1.7,3.7
		c4.5,3,9.2,5.7,14,8.1c3,1.5,7.3,2.6,9.2-0.2C314.5,681.1,312.6,680.7,310.7,680.3 M370.3,746.4c3.1,1.1,6.2-1.4,8.4-3.8
		c2.2-2.4,4.8-5.2,8.1-4.9c0.6,0.1,1.2,0.2,1.7-0.1c0.5-0.3,0.6-1.2,0-1.3c-1,0.5-2.4,0-2.7-1.1c0.7-0.3,1.6-0.3,2.3,0
		c0.6-1.1,0.9-2.4,0.9-3.6c-0.5,0.4-1.1,0.8-1.6,1.2c-2.8,2-6,4.2-9.4,3.4c-1-0.2-2-0.7-3-0.8c-1,0-2.2,0.7-2.2,1.7
		c1.7,0.4,3.3,0.7,5,1.1c-1.2,1.6-2.5,3-4,4.3c0-0.8,0-1.6,0-2.4c-1-0.1-2.4,0.1-2.4,1.1C371.3,743.1,371,744.8,370.3,746.4
		 M496.7,283c0.8,1.2,1.6,2.4,2.4,3.6c0-4-1.1-7.9-3.3-11.3c-0.9-1.4-2-2.7-3.5-3.1c-1.5-0.5-3.5,0.3-3.9,1.8
		c-0.2,0.9,0.1,1.9,0.5,2.7c1.3,3.1,2.9,6,4.8,8.8C494.6,284.7,495.6,283.8,496.7,283 M535.3,642.4c1.2-0.8,2.7-1,4.1-0.6
		c2.9-6.1,4.5-12.8,4.6-19.5c-0.6,2.7-3,4.4-5,6.3c-2,1.8-3.8,4.6-2.9,7.1c1.4-0.4,2.6-1.6,3.1-3.1
		C541,635.9,534.1,638.9,535.3,642.4 M559.8,733.6c-0.7-0.2-0.8,1-0.5,1.6c2.6,6.7,5.1,13.5,7.7,20.2c1.2,3.2,2.4,6.4,3.7,9.6
		c1.1,0.2,1.4-1.5,1.1-2.6C568.9,752.4,564.9,742.7,559.8,733.6 M349.9,726c-1.2-0.6-2.9,0.5-2.9,1.9c5-0.4,10-0.8,15-1.2
		c0.9-0.1,2-0.2,2.7-0.7c0.8-0.6,1.1-1.8,0.5-2.5c-0.4-0.4-0.9-0.5-1.5-0.6c-4.7-0.7-9.6-0.4-14.1,1.1
		C349.4,724.6,349.5,725.4,349.9,726 M343.8,579.9c-0.7-1.9-1.5-4-3.2-5.2c0.4,0.7,0.9-0.7,0.3-1.2c-1.4-1.2-3.6-1.3-5-0.2
		c1.8,1.6,3.6,3.3,5.4,4.9c-1.2,1.1-2.9-0.6-3.8-2c-0.9-1.4-3-2.7-3.8-1.3c4.7,5.2,9.4,10.4,14.2,15.6
		C346.5,587,345.1,583.5,343.8,579.9 M516.8,311.9c0.2-1.1,0.4-2.2,0.6-3.3c0.9-0.3,1.8-0.5,2.7-0.8c-1.6-1.6-3.2-3.3-4.8-4.9
		c-0.3-0.3-0.6-0.6-1-0.6c-0.4,0-0.8,0.3-1.2,0.2s-0.4-0.9,0-0.7c-0.8-3.7-5.6-5.9-8.9-4.1c3.6,2.3,6.7,5.3,9.1,8.8
		c0.8,0.2,1.6,0.3,2.4,0.5c-0.8,0.9-1.9,1.5-3.1,1.5C514.1,309.6,515.4,310.8,516.8,311.9 M281.5,706.9c0.7,0.3,1.4-0.5,1.2-1.3
		c-0.1-0.7-0.8-1.2-1.4-1.6c-3.2-2.1-7.3-3-11.1-2.4c1.1-0.4,1.4-2.1,0.7-3.1c-0.7-1-1.9-1.5-3.1-1.7c-0.6,2.4,0.5,4.9,2.3,6.6
		c1.8,1.7,4.1,2.6,6.4,3.4c2.1,0.7,4.1,1.4,6.3,1.9C282.4,708.2,281.9,707.6,281.5,706.9 M552.8,734.8c-0.9-0.4-1.8-0.7-2.8-1.1
		c1.7,2,3.3,4,5,6.1c1.4,1.7,3,3.5,5.1,3.7c0.8-0.9,0.4-2.3,0-3.4c-1.6-4.1-3.1-8.1-4.7-12.2C552.9,729.1,551.7,732.3,552.8,734.8
		 M591.2,500c0.6,1.8,1.2,3.7,1.7,5.5c-0.1-5.3-0.3-10.6-0.4-15.9c0-1.1-0.1-2.3,0.2-3.4c0.3-1.2,1.1-2.4,1-3.7
		c-1.2,1.2-2.5,2.4-3.7,3.7c-1.1,4.6-1.6,9.4-1.4,14.1C589.5,500.2,590.4,500.1,591.2,500 M292.5,654.9c-1,0.1-1.7,1.4-1.3,2.3
		c2.1,0.3,4.8,1.5,4.2,3.5c0,1.7,2.6,2.3,4,1.3c1.4-1.1,1.8-2.9,2.5-4.5c1,0,0.2-1.5-0.7-1.8c-3.5-1.2-7.1-2.1-10.7-2.7
		C291,653.6,291.8,654.3,292.5,654.9 M185.5,416.9c2.4-3.7,4-7.9,5.5-12.1c1.4-3.6,2.7-7.2,4.1-10.8c-6.7,7.6-10.8,17.5-11.5,27.6
		C185.2,420.7,186,418.7,185.5,416.9 M366.9,651.4c-0.4,0.5-0.5,1.2-0.2,1.7c1.1,1,2.2,2,3.2,2.9c1.6-4.1,0.4-9.1-2.7-12.1
		c-0.8-0.8-1.9-1.5-3-1.3c-1.1,0.2-2,1.6-1.2,2.5c0.7-0.4,1.6-0.4,2.2,0.1c-1.6,0.7-2.9,2.6-2.2,4.3c0.7,1.6,3.8,1.5,3.9-0.3
		c0.6,0.6,1.3,1.2,1.9,1.9C368.2,651.4,367.5,651.5,366.9,651.4 M506.1,350.6c0.1,1.3,0.7,2.5,1.7,3.4c0.3,7.8,1.9,15.5,4.8,22.7
		c0-7-0.8-14.1-2.3-20.9C509.7,353.5,508.5,350.7,506.1,350.6 M339.9,561.9c0.1-1.8-0.9-3.7-2.5-4.6c0.4,2.2,0.8,4.3,1.2,6.5
		c-0.8,0.2-1.7,0.5-2.5,0.7c-0.7,3.5,2,7.3,5.6,7.7c-0.7-3-1.2-6.2-1.4-9.3c0.5,0.3,1.1,0.6,1.6,0.8c1.2-2.6,0.9-5.8-0.9-8
		C340.5,557.8,340.1,559.8,339.9,561.9 M220.8,454.7c1.3,1.6,4.5-0.3,3.7-2.2c-0.8-2,0.5-4.1,1.5-6c1-1.9,1.6-4.6-0.2-5.9
		c-1.8,2.7-3.6,5.3-5.4,8C219.2,450.4,219.4,453,220.8,454.7 M353.1,714.6c5.4,0.6,11.1,0,15.9-2.7c1.4-0.8,2.8-1.6,4.2-2.3
		C366.4,707.9,359.4,711.3,353.1,714.6 M535.1,656.3c-1-0.6-2.1-1.2-3.1-1.8c0.7,7.1,3,14.1,6.6,20.3c1.2,0,1.3-1.9,0.6-2.9
		s-1.9-2-1.5-3.2c0.9-3.5-0.4-7.5-3.3-9.7C534.6,658,534.8,657.2,535.1,656.3 M296.4,270.6c0.2-2.1,0.4-4.2,0.7-6.4
		c-3.4,4.1-5.1,9.6-4.7,15c1-0.3,1.8-1.2,2-2.2c0.4,0.7,1.5,0.6,2.1,0.1c0.6-0.5,0.8-1.4,1-2.2c0.6-2.5,1.3-4.9,1.9-7.4
		C298.5,268.6,297.4,269.6,296.4,270.6 M246.7,552.4c2.1,3,4.8,5.6,8,7.3c-3-6.6-7.6-12.4-13.3-16.9c-0.5,3.3,1.8,6.7,4.9,7.6
		C246.5,551,246.6,551.7,246.7,552.4 M536.3,740.2c-0.8,0.4-1,1.5-1.6,2.1c-1.4,1.5-4,0.4-5.9,1.2c-1.4,0.6-2.2,2.5-1.5,3.9
		c0.6,1.4,2.5,2.2,3.9,1.6c0.2-1.6,1.9-2.6,3.4-3.2c1.5-0.6,3.2-1.2,3.9-2.6S537.7,739.5,536.3,740.2 M583.5,695.8
		c1.1,6.1,2.7,12.2,4.7,18.1c0.5,1.4,2.7,1.1,3.5-0.1c-1.3-3.4-2.5-6.7-3.8-10.1C586.7,700.9,585.6,698,583.5,695.8 M280.3,294.8
		c0.5,0.8,0.6,1.7,0.4,2.6c0.4,0.8,1.5-0.2,1.7-1.1c0.5-2.2,1-4.3,1.6-6.5c0.3-1.3,0.1-3.3-1.3-3.2c-3.3,4.8-5.8,10.1-7.4,15.6
		C277.7,300.4,279.4,297.7,280.3,294.8 M384.5,671.9c0.4,0.4,1,0.5,1.5,0.4c0.6-4.8-0.3-9.8-2.5-14.1c-0.8,0.5-1.9,0.3-2.5-0.5
		c-1.5,0.6-1.1,2.9-0.3,4.3c0.5,1,1,2,1.5,3C383,667.3,383.7,669.6,384.5,671.9 M299.5,223.1c-0.2,1,1.5,0.5,2.1-0.4
		c2.5-4.1,5.1-8.2,7.6-12.3c-6.4,4.8-11.6,11.3-14.8,18.6C297.1,228.5,298.5,225.6,299.5,223.1 M292.9,515.9
		c-1.6-0.4-3.2,0.9-3.8,2.4c-0.6,1.5-0.4,3.2-0.3,4.8c0.1,0.9,1.3,1.9,1.5,1.1c-0.1-1.4,0-2.8,0.5-4.1c-0.1,2,0.5,4,1.6,5.6
		c-0.3-0.9-1.6,0.7-0.8,1.1c0.8,0.5,1.8-0.3,2.2-1.1c0.8-1.3,1.1-3,0.9-4.5c-0.9-0.3-1.6-0.8-2.2-1.5c0.6-0.4,1.4-0.5,2.1-0.4
		C294.5,518,293.9,516.8,292.9,515.9 M521.8,622.3c0.4-1.9-0.2-3.9-1.5-5.3c-0.6,2.1-0.6,4.3,0,6.4c3.6,1.8,7.5,3.1,11.5,3.8
		c-0.3-1.6-0.6-3.2-0.8-4.8c-0.6,2.3-4.3,2.8-5.5,0.9c0.5-0.7,1-1.3,1.5-2c-1.4-0.4-2.7-1.3-3.5-2.6
		C522.9,619.9,522.4,621.1,521.8,622.3 M233.7,701.7c-6.3-0.9-12.6-1.7-18.9-2.4c5.4,3.6,12.1,5.2,18.5,4.3
		C233.7,703,233.8,702.3,233.7,701.7 M455.6,272.5c2.7,3.5,7.6,4.5,12,5.3c2,0.3,4.2,0.6,5.8-0.7c-0.5-1.1-1.9-1.5-3.1-1.7
		C465.4,274.5,460.5,273.5,455.6,272.5 M178.2,535.7c0.3-7.4,0.7-14.8,1-22.3C175.9,520.3,175.5,528.5,178.2,535.7 M267.3,301.2
		c1.9-5.9,3.8-11.9,5.8-17.8C268,287.5,265.6,294.8,267.3,301.2 M573.2,404.8c1,0.6,2.4,0.6,3.4,0.1c-1.6-5.1-4.9-9.6-9.2-12.7
		c0.4,2.1,1.7,4.1,3.5,5.2c-1,0.1-2.1,0.1-2.8,0.8c-0.7,0.7-0.8,2.1,0.1,2.5c1-0.5,2-1,2.9-1.5C572.6,400.7,573.3,402.8,573.2,404.8
		 M564.4,367.1c-1.6-2.9-4.2-5.4-7.3-6.8c0.6,2,1.3,4,1.9,6c0.2-0.9,1.5-1,2.2-0.4c0.7,0.6,0.9,1.5,1.1,2.4c-0.7,0-1.2,1-0.8,1.6
		c1.4,1.4,3.4,2.3,5.4,2.3C566.1,370.5,565.2,368.8,564.4,367.1 M321.7,527.9c0.6,0.4,1.3,0.7,1.9,1.1c0.6-0.4,0.9-1.3,0.8-2
		c1.6-1,3.3,1.1,3.9,2.8c0.6,1.8,1.6,4,3.5,3.7c-0.7-4.5-4.1-8.5-8.4-10c-1.5-0.5-3.8-0.3-4,1.3c1.3,0.5,2.6,1,3.9,1.6
		C322.5,526.5,321.8,527.2,321.7,527.9 M283,274.9c-1.4,1.5-3,3-4,4.9c-1,1.9-1.3,4.2-0.2,6c0.2,0.3,0.3,0.5,0.6,0.6
		c1,0.4,1.8-0.9,2.1-1.9c0.9-3.2,1.7-6.4,2.6-9.6C283.7,274.9,283.3,274.9,283,274.9 M270.7,477.4c1-0.1,2,0.7,2.2,1.7
		c2.1-4.8,3.2-10,3.2-15.2c-1.3,0.4-1.8,1.8-2.2,3.1C272.8,470.5,271.7,473.9,270.7,477.4 M231.8,612.8c-0.8,0.8-1.2,2-1.1,3.1
		c2.1,1.8,4.6,2.9,7.3,3.4c-0.5-1.1-1-2.3-1.5-3.4c1.4,0,2.7,0.1,4.1,0.1C238.1,613.9,235,612.8,231.8,612.8 M265.6,457.9
		c1-4,1.9-8,2.9-11.9c0.4-1.7,0.8-3.5,1.1-5.2c-0.5-0.7-1.6-0.6-2.2,0c-0.6,0.6-0.8,1.5-0.9,2.3
		C265.7,447.9,264.8,452.9,265.6,457.9 M531.9,424.5c-0.7,3.9,0.3,8.1,2.6,11.4c0.8,1.2,1.9,2.5,1.4,3.9c0.4,0.7,1.6,0.3,1.9-0.5
		c0.3-0.8-0.1-1.6-0.4-2.3C535.5,432.9,533.7,428.7,531.9,424.5 M353,626.4c0.3,2,0.1,4.2-0.7,6.1c0.8,0.4,1.9-0.4,1.7-1.3
		c0.8,0.3,1.6,0.6,2.3,0.9c0.7-2.9,0.2-6.2-2-8.2c-0.9-0.8-2-1.4-3.2-1.6C350.2,623.8,351.3,626.1,353,626.4 M631.1,709.1
		c0.2,1.2,0.4,2.3,0.6,3.5c0.7-1.1,1.9-2,3.1-2.3c-0.2,1.8,0.2,3.7,0.9,5.4c1.5-2,0.8-5-0.8-6.9c-1.7-1.9-4.2-2.8-6.6-3.5
		c0.3,1.8,0.7,3.5,1,5.3C630,710.1,630.5,709.6,631.1,709.1 M324.2,619.2c0.8,2.7,2,5.4,3.4,7.8c0.6,1.1,2.6,2,2.8,0.7
		c-1,0-0.2-1.8,0.7-1.5c0.9,0.3,1.3,1.3,2,2.1c0.6,0.7,2.2,0.9,2.3,0C331.7,625.2,327.9,622.2,324.2,619.2 M594.6,504.2
		c1.7-0.1,3-1.8,2.7-3.5c0.1,0.9,1.2,1.5,2.1,1.2c-0.2-1.5-1.2-2.8-2.6-3.3c0.7-1.3,1.5-2.7,1.4-4.2c-0.1-1.5-1.5-3-2.9-2.6
		C595.4,496,595.1,500.1,594.6,504.2 M282.9,586.4c2.7,5.4,7.3,9.9,12.9,12.3C292.4,593.8,288,589.5,282.9,586.4 M372.6,762.3
		c-1.5,0.5-3,0.9-4.6,1.3c2,0.4,3.6,2.2,3.7,4.2c1.5-1.9,3.1-3.7,4.6-5.6c-0.8-0.3-1.6-0.6-2.5-0.9c1.1-1.6,1-3.8-0.2-5.3
		C372.4,757.9,371.9,760.2,372.6,762.3 M263.9,627c-4.6-1.4-9.1-2.9-13.7-4.3c-1.2-0.4-2.4-0.8-3.6-1.1c2.1,3.1,5.9,4.7,9.6,5.3
		C258.7,627.4,261.3,627.4,263.9,627 M326.2,577.7c0.4-1.1,1.1-2.2,1-3.4c-0.1-1-0.9-1.8-1.8-2c-1,5.8-1.3,11.7-0.8,17.6
		c1.8-1.2,2-3.7,1.8-5.8S325.5,579.7,326.2,577.7 M595.8,407.7c-1.1-3.3-3.1-6.3-5.7-8.6c-0.3,0.9-1,1.7-1.9,2
		C588.9,404.6,592.2,407.5,595.8,407.7 M230.8,706.8c1.6,0,3.2-0.1,4.8-0.3c0.9-0.1,2-0.3,2.5-1.2c-6.3-0.7-12.7-0.9-19-0.6
		C222.8,706.1,226.8,706.8,230.8,706.8 M239.9,701.9c-0.6-0.1-1.2-0.2-1.8-0.1c-0.6,0.1-1.2,0.6-1.4,1.1c4.4,2.5,9.9,2.9,14.6,1
		C247.5,703.2,243.7,702.6,239.9,701.9 M195.4,405.7c2.5-4.6,4.5-9.3,6.1-14.3c-0.4-0.7-1.6-0.5-1.8,0.2
		C197.2,395.9,195.7,400.7,195.4,405.7 M260.8,229.2c-1.1,0-2.5-0.3-3.3,0.4c-0.4,0.4-0.7,1-0.6,1.6c5.4-0.3,10.8-1.9,15.5-4.6
		c-1.7-1.2-4-0.6-5.9,0.4C264.6,227.9,262.9,229.2,260.8,229.2 M296.8,513.7c0.4,2.2,0.7,4.5,1.1,6.7c1.7,0.7,3.6,0.6,5.2-0.1
		c-1.7,0.5-3.7-0.9-3.6-2.7c0-1.8,2-3.2,3.7-2.6C301.8,513,298.8,512.4,296.8,513.7 M353.5,333c-1.2,0.6-2,1.9-2,3.3
		c3.5,1.1,7.7-1.8,7.8-5.5C357.2,331,355.2,331.7,353.5,333 M253.8,263.3c3.5-3.5,6.5-7.5,8.8-11.8
		C258,253.6,254.5,258.2,253.8,263.3 M636.2,619.4c-0.9,1.8-1.8,3.7-2.7,5.5c0.5,0.8,1.8,0.4,2.5-0.2c2.6-2.2,4-5.8,3.6-9.2
		C638.5,616.8,637.4,618.1,636.2,619.4 M296.4,524c0.9,3.4,2.7,6.5,5,9.1c0.6-0.2,1.4,0.5,1.3,1.1c0.9-0.2,1.7-0.9,2.1-1.8
		c-3-1.8-5.3-4.7-6.2-8.1C297.9,523.8,297,523.7,296.4,524 M308.2,515.3c0.8,0.4,1.8,0.5,2.7,0.3c0.3,1,0.6,2,0.8,3
		c0.1-1.2,1.9-1.2,3.1-1c1.2,0.2,3.1-0.7,2.3-1.7c-3.1-0.2-6-2.2-7.3-4.9c-0.9,0.6-1,2.2,0,2.9C309,513.9,308.3,514.5,308.2,515.3
		 M244.2,302.7c-0.7,4.5-1.2,9-1.3,13.6c0,1.1,0.3,2.5,1.4,2.5C245.3,313.5,245.3,308,244.2,302.7 M276.8,486.1
		c-1.1-0.8-2.3,0.7-2.8,1.9c-1.5,3.6-3,7.2-4.6,10.8c0.5,0.9,1.8-0.1,2.2-1C273.3,493.9,275.1,490,276.8,486.1 M240.2,411.2
		c0.2-1.5,1.7-2.7,1.7-4.3c0-1.3-1-2.3-1.9-3.1c-1.2,3.8-1.7,7.8-1.6,11.8c0.8,0.6,1.9-0.4,2-1.4C240.4,413.1,240,412.1,240.2,411.2
		 M180.4,655.5c-1.7,4.3-1.3,9.5,1,13.5C182.3,664.5,181.9,659.8,180.4,655.5 M231.9,597.6c1.5,2.2,4.1,3.5,6.7,3.5
		c-3.3-3.4-7.4-6.1-11.9-7.9c0.9,2.1,2.8,3.8,5.1,4.3 M242.8,391c-2.8,2.5-2.8,7.3-0.2,9.9c1-2.1,1.8-4.4,2.2-6.7
		c-1-0.1-1.9,0.7-2,1.7C242.8,394.3,242.8,392.7,242.8,391 M496.7,477.8c3.1-3.2,5.1-7.5,5.5-11.9
		C498.7,468.9,496.7,473.3,496.7,477.8 M226.3,347.2c0.4-1,0.8-2,0.8-3.1c-0.1-1.3-0.8-2.5-1.8-3.3c-1.7,3.3-1.9,7.3-0.7,10.8
		C225.1,350.1,225.7,348.6,226.3,347.2 M498.5,333.2c1.9,4,3.7,8,5.6,12c0.2,0.4,0.8,0.4,1.1,0.1c-1-3.8-2.4-7.5-4.2-11.1
		C500.4,333.1,498.9,332.1,498.5,333.2 M367.7,324c2,0.9,4.3,1,6.3,0.2c-1.1-1.2-1.7-2.8-1.7-4.4c-0.7-0.4-1.3-0.8-2-1.2
		c-0.7,1.7-1.4,3.4-2,5 M376.2,651.8c0.6,2,1.8,3.8,3.5,5c0-3.9-1.4-7.8-3.9-10.7c-0.6,1.8-0.4,3.9,0.6,5.6 M418.2,218.6
		c0.9-1.7,1.9-3.4,2.8-5.1c-3.6,1.3-6.4,4.3-7.5,8C415.5,221.4,417.3,220.3,418.2,218.6 M352.9,718.8c4.1,1,8.5,0.9,12.5-0.4
		C361.5,716.7,356.7,716.8,352.9,718.8 M193.7,504.2c-0.3-1.4-0.5-2.7-0.8-4.1c-0.9,0.1-1.7,0.4-2.4,1c0.4,2.9,1.2,5.8,2.3,8.6
		C194.2,508.4,194,506.1,193.7,504.2 M305.1,266.5c0.3-1.2,0.5-2.3,0.8-3.5c-2.9,2.2-4.9,5.6-5.5,9.2
		C303.1,272.5,304.5,269.2,305.1,266.5 M597.5,429.5c0.5-3.4-1.1-7-3.8-9.1c0.3-0.8-1.2-1.5-1.6-0.7
		C593.2,423.3,595,426.7,597.5,429.5 M247.2,250.3c-0.5,0.3-1.1,0.6-1.4,1.1c-0.3,0.5-0.4,1.2-0.1,1.8c3.8-0.6,7.2-3.4,8.6-7
		C251.9,247.6,249.5,249,247.2,250.3 M338.8,635c0.5-0.9,1-1.8,1.4-2.7c-1.1-1.3-2.5-2.4-4-3.2c-0.3,0.6-0.2,1.5,0.3,2
		c-1.2-0.6-2.7-0.6-4,0c1.7,1.5,3.6,2.6,5.7,3.2 M289,700.5c-2.7-2.9-6.6-4.9-10.5-5.3C281.1,698.3,285,700.2,289,700.5
		 M553.9,744.4c-0.3-2.5-1.9-4.9-4.1-6.1c-0.2,3.3,1.5,6.6,4.2,8.4c0.3-0.8,0.5-1.5,0.8-2.3 M556.3,747.7c-0.3-1-2.2-0.7-2.2,0.4
		c0,1.2-0.1,2.5-0.1,3.7c1.3,0.6,2.7,1.3,4,1.9C558.1,751.6,557.5,749.4,556.3,747.7 M555.6,387.3c-0.8-2.1-2.2-4-4-5.3
		c-0.1,3.8,2.2,7.5,5.6,9.1C557.4,389.7,556.8,388.2,555.6,387.3 M266.4,489.7c-2.6,2.2-4.5,5.3-5.2,8.6
		C264.6,496.9,266.8,493.2,266.4,489.7 M334.8,519.3c0.7,1.2,1.7,2.3,2.9,3c0.9-0.5,1.4-1.6,1.1-2.5c-2.1-1.1-4.3-2.3-6.4-3.4
		c0,1.1,0,2.3-0.1,3.4C333.1,520.4,334.3,520.1,334.8,519.3 M315.6,371.5c-0.1-0.8-0.4-1.7-1.2-1.9c-0.3-0.1-0.7,0-1,0.2
		c-0.5,3.4,0.9,7,3.6,9.2C316.6,376.5,316.1,374,315.6,371.5 M523,453c0.1,2.2,1.7,4.2,3.8,4.7c-0.6-3.1-2.1-6-4.1-8.4
		c-1.1,0.8-1,2.8,0.2,3.5 M550.9,351.8c0.9,1.7,2.6,2.9,4.5,3.2c-1.4-2.9-2.8-5.9-4.2-8.8C550.7,348.1,550.6,350,550.9,351.8
		 M623.9,691.3c-0.8-0.4-1.7-0.5-2.6-0.3c-1.2,0.9-1.1,2.9-0.2,4.2c1,1.2,2.5,1.8,3.9,2.4c-0.4-1.6-1.4-3.1-2.7-4
		C623.4,693.5,624.1,692.3,623.9,691.3 M322.7,197.1c2.7-2.2,5-5,6.4-8.2C325.6,190,322.9,193.4,322.7,197.1 M225.3,327.1
		c0.6-1,1.1-2,1.7-3.1c0.8-1.5,1.7-3.2,1.4-4.8c-2.9,1.2-4.7,4.8-3.8,7.9C224,327.2,225,327.5,225.3,327.1 M309.3,660.1
		c-1.9,1.2-4.5,1.3-6.6,0.2c-0.4,0.6-0.5,1.3-0.4,2c3.2,0.5,6.6,0.3,9.8-0.6c-0.4-1-1.6-1.6-2.6-1.3 M273.8,436.8
		c-0.7-2.4-1.4-4.7-2.1-7.1c-0.4-1.4-0.8-2.7-1.2-4.1c-2.1,0.6-1.4,3.7-0.2,5.5C271.4,433,272.6,434.9,273.8,436.8 M268.8,489.9
		c0.7-3.1,1.5-6.2,2.2-9.3c-2.8,2.6-4.1,6.6-3.5,10.3C268,491.5,268.7,490.6,268.8,489.9 M559.5,756.1c-1.5,0.4-1.2,2.7-0.3,4
		c0.9,1.3,2,3.1,1,4.3c0.8,0.2,1.6,0.3,2.4,0.5C562,761.8,561,758.8,559.5,756.1 M508,597.2c-1.6-0.2-3.2,0.5-4.1,1.8
		c2.4,1.4,5.5,1.6,8.1,0.5c-1.1-1.1-2.6-1.8-4.1-1.9 M273.8,653.3c-0.3-1.2-1.7-2-2.9-1.6c0.3,1.2,0.7,2.4,1,3.6
		c1.6,0.8,3.1,1.5,4.7,2.3c-0.1-1.7-1.1-3.4-2.7-4.3 M316.5,271.4c0-0.5-0.1-1.1-0.6-1.1c-0.4,0-0.6,0.5-0.4,0.8
		c-1.6,2.8-2.3,6.1-2,9.2C315.3,277.6,316.4,274.5,316.5,271.4 M224.9,318.3c0.1-0.9,0.3-1.9,0.4-2.8c-1.9,1.6-3.5,3.6-4.6,5.8
		c-0.3,0.7-0.6,1.4-0.4,2.1c0.2,0.7,1.2,1.2,1.7,0.7c0.6-0.5-0.3-1.6-0.8-1.1c1.6-1.2,2.8-2.9,3.5-4.7 M313.6,326.5
		c1.1-0.9,0.6-3.1-0.8-3.4c-1.2,2.9-1,6.4,0.5,9.1c1.6-1.2,0.8-3.7-0.1-5.5 M432.7,189.1c1.5-1.4,2.3-3.4,2.3-5.4
		c-2.7,1.1-4.7,3.7-5.2,6.5c1-0.3,2-0.6,3-0.9 M315.1,633.8c-1.3-0.7-2.6-1.4-3.9-2.2c0.4,2.1,1.3,4.1,2.8,5.6
		c0.8-0.1,1.7-0.1,2.5-0.2C316,636,315.5,634.9,315.1,633.8 M221.3,482c0.8-1.7,1.1-3.6,0.9-5.5c-2.8,2.5-3.5,7-1.6,10.2
		C220.8,485.2,221.1,483.6,221.3,482 M259.4,695.4c1.1,1,2.2,1.9,3.3,2.9c-1.1-3.8-4.3-6.9-8.1-7.7c1.3,1.8,3,3.5,4.8,4.7
		 M513.5,610.2c1.8,0.8,4-0.6,4.8-2.4c0.7-1.6,0.6-3.5-0.3-5C517.3,605.7,515.8,608.3,513.5,610.2 M279.5,532
		c1.1-3.4,1.4-7,0.8-10.5C278.2,524.5,277.9,528.7,279.5,532 M237.8,629.8c-1.1-1.3-2.5-2.3-4.1-2.9c0.3,2.9,2.8,5.5,5.7,6
		c0.3-1.2-0.4-2.6-1.6-2.9 M186.2,465.9c-0.1,0.5-0.2,1.1,0.1,1.5c0.2,0.2,0.4,0.4,0.7,0.5c1.8-2.8,2.6-6.1,2.4-9.4
		C187.9,460.8,186.8,463.3,186.2,465.9 M290.6,211.9c1.9-1.9,3.2-4.4,3.5-7.1c-2.4,1.7-4.2,4.1-5.1,6.9
		C289.5,211.8,290,211.8,290.6,211.9 M323.9,321.4c0.6,0.6,1.7-0.3,1.6-1.2c-0.1-0.9-0.9-1.5-1.6-2c1.6,0,2.7-2,2-3.3
		c-0.5,0.5-1,1-1.6,1.5c-0.5-0.9-1.9-1-2.7-0.4c0.9,1.7,1.7,3.4,2.6,5.1 M460.1,246.2c2.2,0.6,4.6,0.3,6.6-0.8
		c-3.3-0.8-6.7-0.8-10-0.1C457.5,246.2,458.9,246.6,460.1,246.2 M163.8,689.4c-0.4,0.8,0.1,2,1,2.3c1.5-2.4,2-5.5,1.4-8.3
		c-1.5,1.6-2.3,3.8-2.1,6 M576.1,689.1c0.2-0.6,0.1-1.4-0.3-1.9c-1.9,1.4-2.4,4.4-0.9,6.3c0.8,0.9,2.5,0.4,2.7-0.7
		c-1.2-0.7-1.7-2.3-1.3-3.6 M590.7,476.6c-0.7,2.6-0.9,5.2-0.6,7.8c1.5-2.4,2.3-5.1,2.4-7.9C592.2,475.8,591,475.9,590.7,476.6
		 M295.4,566.8c-0.8-2.3-2.8-4.2-5.1-4.9c0.3,2.7,2.4,5.1,5.1,5.7 M246.4,667.6c0.8,2.5,2.6,4.7,4.9,6c0.5,0.3,1.1,0.3,1.6-0.1
		C251.4,671,249.1,668.9,246.4,667.6 M252.4,574.9c-0.7-2-2.4-3.5-4.5-4c-0.8,2.5,1.9,5.3,4.5,4.7 M278.8,517.9
		c0.7,0.7,0.5,2.1-0.4,2.6c0.6,0.4,1.2,0.5,1.9,0.4c0.9-3,0-6.4-2.3-8.5c0.2,1.9,0.4,3.7,0.6,5.6 M416.5,201.6
		c1.6-0.3,3.2-0.6,4.8-0.8c-0.2-1.2-0.3-2.3-0.5-3.5c-1.2,1.3-2.9,2-4.7,2.1c-0.5,0.5-0.2,1.5,0.4,1.7 M307.3,332.8
		c0.3,1.5,0.1,3.1-0.7,4.4c1.6-0.1,2.9-1.5,3.1-3c0.1-1.6-1.1-3.1-2.6-3.4c-0.9,0.2-0.8,1.8,0.1,1.9 M559,557.8
		c0.8,1.5,1.6,2.9,2.4,4.4c1.2-2.6,0.2-6-2.2-7.6c-0.1,1.1-0.2,2.2-0.3,3.3 M311.4,345.9c0.3,0.9,1.4,1.3,2.2,0.8
		c-0.6-2.6-1.1-5.3-1.7-7.9c-1.2,2.1-1.3,4.8-0.4,7.1 M563,748.4c-0.5-1.6-1.2-3.1-2.1-4.5c-0.4,0.6-0.7,1.3-1.1,1.9
		c1,2.2,2,4.3,3.1,6.5C563.6,751.1,563.7,749.6,563,748.4 M557.3,316c1.2-1.7-1.4-3.5-3.5-3.9c0.1,2.3,1.4,4.6,3.4,5.9
		c0.1-0.6,0.2-1.2,0.4-1.8 M286.3,516.8c0,1.4,0.3,2.9,1.1,4.1c0.7-1.3,1.3-2.6,1.3-4.1s-1.1-2.9-2.5-3c-0.1,1-0.2,1.9-0.4,2.9
		 M181,540.1c-1.3,1.8-1.2,4.6,0.3,6.2c1-2.2,1.3-4.8,0.8-7.2c-0.4-0.6-1.6,0-1.3,0.7 M517.3,369.9c0.9-1.5,0.9-3.4,0.2-5
		c-2.2,1.5-1.9,4.9-1.3,7.5c1.3-0.1,2.2-2.2,0.9-2.5 M496.6,658.2c-1.7,1.4-1.2,4.7,0.9,5.4c0-2.6,0.1-5.1,0.1-7.7
		c-0.8-0.5-1.5,0.9-1.3,1.8 M368.9,743.6c-1.6-2.6-6.3-1.8-7,1.2c2.1-0.4,4.2-0.8,6.4-1.2 M501.5,606.2c1.1,0.9,2.8-0.6,2.6-2
		c-0.3-1.4-1.7-2.2-3-2.5c0,1.7-0.1,3.3-0.1,5 M546.3,715.2c0-1,0-2,0-3c-0.7-1-2.2,0.6-1.8,1.8c0.4,1.2,1.4,2.3,1.1,3.5
		c1.1,0.1,2.1-0.2,3-0.9c0.1-1-1.2-1.3-2.2-1.2 M250.5,501.5c-2.2,0.5-3.5,3.2-2.6,5.3c2-1.2,3.3-3.3,3.4-5.6 M489.2,576.1
		c-0.6,0.6-0.6,1.6,0,2.2c2.2-1.7,3.9-4,4.8-6.6c-2.1,0.7-3.8,2.4-4.5,4.5 M233.9,640.1c2.5-0.9,2-5.4-0.6-5.8
		c-0.6,1.5-0.4,3.4,0.5,4.7 M522.4,413.1c-1.4,1.2-1.9,3.4-1.1,5.1c1.6-1.6,2.8-3.6,3.2-5.9C523.9,411.5,522.4,412.1,522.4,413.1
		 M306.2,507.4c0.2-1.2-1.2-2.4-2.4-1.9c1.1,2.7,3.6,6,6.3,4.7c-1-1.2-2.3-2.1-3.7-2.6 M384.8,213.4c2.2-0.2,4.4-0.8,6.5-1.6
		c-2.4-1-5.3-0.8-7.6,0.5C383.5,212.9,384.1,213.6,384.8,213.4 M411.4,177.1c1.5,1.1,3.4,1.4,5.2,1c-1.6-1.8-4-2.8-6.5-2.7
		c-0.6,0.8,0.2,2.2,1.1,2.1 M558.4,389.9c0.4,1.2,1.7,1.9,2.9,1.7c-0.1-2.4-1.9-4.6-4.2-5.1c0.4,1.2,0.7,2.4,1.1,3.5 M606.9,747.7
		c0-1.2-1.1-2.2-2.2-2.3c-0.1,2.5,0.8,4.9,2.3,6.8c0.6-1.4,0.6-3.1,0-4.5 M324.7,549.6c-1,0.8-0.9,2.6,0.3,3.2
		c1.2,0.6,2.7-0.5,2.7-1.7c-0.7-0.2-1.4-0.4-2.1-0.7c0.8-1,0.4-2.7-0.6-3.3C324.8,547.9,324.7,548.7,324.7,549.6 M324.7,593.6
		c0.2-0.6,0.1-1.3-0.3-1.9c-0.7-0.1-1.4,0-2,0.4c0.8,2.2,0.9,4.7,0.4,7c1,0.3,1.7-1.1,1.6-2.2c-0.1-1.1-0.3-2.4,0.6-3 M327.4,564
		c-1.3-0.6-2.4-1.6-3.1-2.8c-0.6,0.6-1.2,1.3-1.8,1.9c1.2,0.2,1.8,1.6,2.8,2.3C326.3,566,328.3,564.9,327.4,564 M535.1,626.3
		c-0.6-0.1-1.2-0.1-1.8-0.2c-1.4,2.1-0.2,5.3,2.2,6c-0.8-1.8-1-3.8-0.5-5.7 M443.9,234.5c2.4,1.2,5.4,1.1,7.8-0.2
		C449.3,233.1,446.3,233.2,443.9,234.5 M335.9,415.3c-0.2,2.2,1.5,4.4,3.6,4.8c-1-2.3-2-4.6-3-6.8
		C335.9,413.8,335.7,414.6,335.9,415.3 M281.6,479.6c1.5-1.6,3-3.1,4.5-4.7c-2.4-0.8-5.2,1.6-4.8,4.1 M519.8,319.5
		c-0.6-0.2-1.3-0.1-1.8,0.3c1,2.1,2.4,3.9,4.3,5.2C522.5,322.9,521.5,320.7,519.8,319.5 M593.4,701.8c-0.1-0.7-0.2-1.4-0.3-2.1
		c-1.3-0.2-2.2,1.4-1.9,2.7s1.3,2.2,2.3,3C594.3,704.3,594.2,702.7,593.4,701.8 M306.1,582.4c-0.2,1.1,1.1,2.1,2.1,1.6
		c-0.8-2.5-2.6-4.8-4.8-6.2c-0.1,1.9,1,3.8,2.8,4.4 M265.1,378.7c-0.1-0.7-0.2-1.4-0.4-2.2c-2.3,0.3-2.6,3.4-2.4,5.7
		c1.5-0.5,2.6-2,2.6-3.5 M375.5,632.1c0.3,2.4,3.1,4.1,5.4,3.3c-1.2-1.7-3-3-5-3.6 M214.1,451.8c-0.8,1.9-1.1,3.9-0.8,5.9
		c1.5-2.3,2.3-5,2.3-7.7c-0.8-0.5-1.5,0.9-1.3,1.8 M286.3,255.3c1.2-1.4,2.1-3.1,2.6-5c-2.5-0.1-4.4,3.2-3,5.3 M425.6,194.1
		c-0.1,0.7-0.2,1.3-0.3,2c2.2,0.1,4.5-1.2,5.4-3.2c-1.7,0.1-3.4,0.6-4.9,1.4 M135.1,733.1c0.3-1.1,0.6-2.2,0.9-3.3
		c-2.7,0.5-3.5,4.8-1.3,6.3C135.2,735.2,135.4,734.1,135.1,733.1 M217.7,432.3c0.7-1.6,1-3.3,0.7-5c-1.2,0.8-2.1,1.9-2.5,3.3
		c-0.3,0.8-0.3,1.8,0.3,2.4c0.6,0.6,1.9,0.2,1.8-0.6 M235.8,346.7c0.4-0.7-1-1.4-1.2-0.6c-1.2,1.9-1.3,4.4-0.3,6.4
		C235.3,350.7,235.8,348.7,235.8,346.7 M478.4,312.4c1.3-0.9,0.4-3.5-1.2-3.3c-0.3,2-0.6,4-0.8,6c1.2-0.3,2-1.5,1.9-2.7
		 M476.1,277.9c1.5,0,3-0.8,3.8-2.1c-1.7-0.9-4-0.5-5.3,0.9c0,0.8,0.7,1.4,1.5,1.5 M354.1,357.6c-1.5-0.4-3.6,0.5-3.2,2
		c1.6-0.2,3.2-0.1,4.8,0.2C356.3,358.8,355.3,357.3,354.1,357.6 M305.8,287.2c1.1-0.1,1.6-1.3,1.7-2.4c0.2-1.7,0-3.4-0.5-5
		C306.1,282.1,305.7,284.6,305.8,287.2 M441.9,263.2c-0.3,0.4-0.6,0.9-0.9,1.3c0.9,0.6,2,1.2,3.1,1.3c1.1,0,2.3-0.9,2.2-2
		c-1.3-0.4-2.8-0.5-4.1-0.3 M514,345.5c0.2,1.3,1,2.4,2.1,3c0.4-0.9,0.7-1.8,1.1-2.6c-0.4-0.7-1-1.5-1.8-1.7s-1.9,0.6-1.5,1.3
		 M337.5,551.8c-0.4,0.9,0.1,2,1,2.4c1.2-0.3,2.4-0.7,3.5-1c-0.8-0.9-1.7-1.8-2.7-2.4C338.6,551.1,338,551.5,337.5,551.8 M555.7,547
		c0.2,1.8,1,3.5,2.3,4.8c0.1-2.4-0.5-4.9-1.7-7c-0.9-0.4-1.1,1.3-0.7,2.2 M497.5,714.8c1.9,1.6,5.2,0.9,6.4-1.2
		c-2.1-0.3-4.2,0.1-6.1,0.9 M325.8,711.1c-1.1,0.7-2.2,1.3-3.4,2c2.3,0.6,4.9-0.1,6.7-1.6c0.2-1.4-2.1-1-3.1-0.1 M236.8,506.4
		c-1.8,1.2-2.7,3.7-2.1,5.8c1.9-1.1,2.9-3.5,2.4-5.6 M360,611c-0.7,0.4-1.4,0.7-2.2,0.9c1.3,1,2.6,2.1,3.9,3.1
		c0.4-1.8-0.2-3.8-1.7-5 M146.2,695.1c0.2,1.1,1.9,1.5,2.5,0.6c-0.8-1.4-0.8-3.2,0-4.7c-1.8-0.1-3.2,2.4-2.1,3.8 M554.6,527.7
		c-0.6-1.8-1.2-3.6-1.7-5.5c-1.4,2.7,0,6.4,2.8,7.6c-0.1-0.8-0.3-1.5-0.8-2.2 M318,326c2.1,0.1,3.8-2.6,2.6-4.4
		c-1.8,0.3-3.1,2.4-2.6,4.2 M261.9,393.7c0.1,1.4,0.3,2.8,0.4,4.1c1.7-2.1,2.1-5.2,1-7.7c-0.4,1.2-0.7,2.4-1.1,3.7 M301.7,586.6
		c-0.1-1.1-1.1-2.1-2.2-2.1c-0.1,2.2,1.3,4.3,3.3,5.2c0.2-1.1-0.1-2.3-0.8-3.1 M313.5,679.4c1.7,0.5,3.5,0.6,5.2,0
		c-1.5-1.3-3.6-2-5.6-2C312.7,678,312.9,679,313.5,679.4 M168.8,680.1c0-0.8,0-1.7,0-2.5c-2.2,0.3-3.2,3.7-1.4,5.1
		C167.8,681.9,168.2,681,168.8,680.1 M497.8,509.3c-0.2,0.7-0.3,1.3-0.5,2c1.9-0.8,3.5-2.4,4.3-4.3c-1.5-0.8-3.6,0.6-3.4,2.3
		 M371.8,626.4c0.9,1.5,2.6,2.5,4.3,2.4c0-2.2-2.7-3.9-4.7-3 M250.1,639.1c-0.1,1.8,1.1,3.5,2.8,4c0.1-2.3-1.2-4.6-3.2-5.9
		C249.2,637.9,249.5,638.8,250.1,639.1 M259.1,538.5c1.2-1.3,0.6-3.7-1.1-4.3c-0.4,1-0.8,2-0.7,3.1s1.1,2.1,2.2,1.9 M480.3,549.2
		c-1.2,0.8-1.5,2.5-0.8,3.7c1.4-1.7,2.5-3.6,3.3-5.7c-1.1-0.4-2.5,0.7-2.3,1.9 M279.8,477.2c0.6-1.9,0.2-4.1-1-5.7
		c-0.5,2.1-0.6,4.3-0.4,6.5C278.9,478.6,280.1,478,279.8,477.2 M376.2,164.4c1.3,0.3,2.8-0.7,3-2.1c-1.9-1-4.6,0.9-4.3,3.1
		c0.4,0.6,1.6-0.1,1.2-0.7 M317.1,354.9c0.2,1.1,1.9,1.4,2.6,0.6c-0.6-1.6-2.7-2.4-4.2-1.6c-1.1,0.7-0.3,2.9,1,2.8
		c-0.3-0.7,0-1.6,0.6-2 M328.7,621.9c0.8,0.2,1.5,0.4,2.3,0.6c0.4-0.6,0.5-1.3,0.4-1.9c-1.4-0.7-2.8-1.3-4.2-2
		c-0.3,1.2,0.5,2.5,1.6,2.8 M641.4,753.5c1.5,0,3.1-0.6,4.2-1.6c-0.9-0.4-1.8-0.8-2.7-1.2c-0.9,1.1-2,2-3.4,2.6
		c0.5,0.3,1.2,0.5,1.9,0.3 M281.1,227.8c2.3-0.7,3.7-3.4,3-5.7c-1.8,1.3-2.9,3.4-3,5.6 M238.9,620.5c0.5,0.6,1.1,1,1.9,1.1
		c0.4-0.9,0.7-1.7,1.1-2.6c-1.1-0.6-2.2-1.3-3.3-1.9C238.7,618.2,238.9,619.3,238.9,620.5 M190.6,757.5c-1.9,0.9-2.9,3.4-2.1,5.3
		c1.7-1.4,2.7-3.7,2.4-5.9 M178,541.7c0.9-1.9,0.8-4.4-0.5-6.1c-1,2-1,4.4,0.1,6.3 M518.3,435.5c-0.2,1,1,1.9,1.9,1.5
		c0.1-1.5-0.3-3-1.2-4.1c-0.6-0.2-1.4-0.1-1.9,0.3c0.3,0.7,0.6,1.4,1,2.2 M525.4,613.3c-0.1-1.3-1.9-2.1-2.9-1.3
		c0.1,1.5,0.5,2.9,1.1,4.3c0.8-0.7,1.3-1.9,1.2-3 M218.6,322.7c1-1.4,1.2-3.3,0.5-4.8c-1.2,1.6-1.9,3.6-1.9,5.6
		c0.4,0.6,1.7,0.1,1.5-0.7 M252.6,508.8c-2.1,0.8-3.1,3.6-2.1,5.6c1.5-1.3,2.3-3.4,2.1-5.4 M329.8,410.9c0.5,1.6,2.4,2.7,4.1,2.1
		c-1-1.6-2.2-2.9-3.6-4C330.1,409.6,329.9,410.2,329.8,410.9 M425,200.1c1.1-0.1,2.2-1.5,1.5-2.3c-1.2,0.3-2.5,0.6-3.7,0.9
		c-0.6,0.6-0.6,1.7,0,2.2c0.7-0.3,1.4-0.6,2.2-0.9 M268.6,242c-1.2,0.6,0.3,2.5,1.5,2c1.2-0.5,1.5-2.1,1.6-3.3
		c-1.2-0.3-2.5,0.5-2.8,1.6 M442.2,223.6c1.5,0,2.9-1.1,3.3-2.5c-1.9,0-3.7,0.6-5.2,1.8c-0.1,0.8,1.1,1.5,1.8,0.9 M430.8,229.3
		c1,0.4,2.2-0.5,2.1-1.6c-2.4,0.1-4.6,1.5-6,3.5c1.3,0.6,3.1-0.3,3.5-1.7 M197.9,442.8c0.8-0.3,0.9-1.5,0.3-2
		c-1.6,0.7-2.6,2.5-2.5,4.3c0.6,0.5,1.6,0.5,2.2,0C197.9,444.4,197.9,443.6,197.9,442.8 M412,575.7c-0.4-1.1-0.7-2.2-1.1-3.4
		c-0.7,0.9-1.6,1.6-2.7,1.8C408.4,575.8,410.7,576.7,412,575.7 M344.6,719.4c-1.9,0.1-3.8,0.3-5.7,0.4c1.1,1.6,3.7,1.9,5.2,0.6
		 M238.8,673.4c0-0.7-1.3-0.6-1.5,0.1c-0.2,0.7,0.3,1.4,0.8,1.9c0.9,1.1,1.8,2.1,2.7,3.2c0.1-1.8-0.6-3.7-2-5 M304.6,538.4
		c1.1,0.9,3-0.1,2.9-1.5c-0.8-1-2.2-1.4-3.4-1.1C303.8,536.7,304,537.7,304.6,538.4 M316.1,639.5c-1.2-1.4-3.4-1.9-5.1-1.2
		c0.8,1.9,3.6,2.7,5.2,1.3 M549.3,328.8c0.1,1.4,1.6,2.6,3,2.3c-0.7-1.9-1.8-3.7-3.2-5.2c-0.6,0.8-0.4,2,0.3,2.7 M304.7,589.9
		c-1.9,1.6,0.5,4.6,2.9,5c-0.5-1.7-1.5-3.3-2.8-4.5 M293.7,591.3c0.1,1.9,2.1,3.5,4,3.3c-0.3-2.1-2.3-3.7-4.3-3.6 M276.1,244.2
		c-1.8,1-3.1,2.9-3.5,4.9c2.1-0.5,3.7-2.5,3.7-4.7 M509.7,296.5c0.3-0.5,0.6-0.9,0.9-1.4c-1.5-1.1-2.9-2.2-4.4-3.3
		c0.3,1.8,1.6,3.5,3.2,4.4 M512.4,252.2c0.1,0.7,1.2,1,1.7,0.4c0-1.8-1.6-3.5-3.4-3.5c-0.3,1.2,0.5,2.6,1.7,2.9 M319,597.3
		c-1.7,0.7-1.8,3.7-0.1,4.4c1.1-1.5,1.2-3.7,0.3-5.4 M291.7,475.4c-1.4-0.5-3-0.6-4.5-0.1c1.2,1.3,3.2,1.9,5,1.4
		c0.7-0.5,0.5-1.7-0.3-2 M348.2,619.1c-1.9,1.2-0.5,4.8,1.7,4.5c-0.3-1.3-0.7-2.7-1.4-3.8 M215,645.8c0-0.7,0-1.5,0-2.2
		c-0.5-0.3-1.1-0.5-1.6-0.4c-0.1,1.8-0.2,3.5-0.3,5.3c1.1-0.4,1.8-1.6,1.7-2.7 M294.1,529.4c0.2-0.7,0-1.4-0.3-2
		c-2,0.4-2.5,3.6-0.7,4.6C293.8,531.5,294.3,530.4,294.1,529.4 M278.3,468.3c0.1,0.6,0.2,1.2,0.3,1.8c1.5-0.7,2.4-2.5,2-4.1
		c-0.6-0.6-1.6-0.6-2.2,0C278.4,466.8,278.4,467.5,278.3,468.3 M558.1,371c-0.3,1.3,0.8,2.8,2.1,3c0.3-1.3,0-2.8-0.9-3.8
		c-0.4-0.4-0.9-0.8-1.4-0.6c-0.5,0.2-0.6,1.1,0,1.1 M240.2,663.9c1,1.3,2.1,2.6,3.1,3.9c0-2.2-0.9-4.4-2.5-5.9
		c-0.7,0.3-0.9,1.3-0.3,1.8 M479.3,527.4c-1,0.8-1.2,2.3-0.5,3.4c1.5-1.3,2.5-3.2,2.5-5.1c-0.9,0.1-1.8,0.7-2.2,1.6 M550.1,680.1
		c0.2,1.3,0.8,2.6,1.8,3.4c0.8-2-0.2-4.6-2.2-5.4C549.2,678.7,549.3,679.7,550.1,680.1 M347.5,646.2c-0.6-0.9-2.3-0.6-2.6,0.4
		c1.4,1.2,3,2.1,4.8,2.6C349.3,648,348.5,646.9,347.5,646.2 M255.3,393.6c-0.5-0.1-0.8-0.7-0.6-1.2c0.3-0.4,1-0.5,1.3-0.1
		c0.1-1.3-1.4-2.4-2.6-2c-0.4,1-0.6,2.2-0.4,3.3c0.6,0.5,1.6,0.5,2.3,0.1 M336.1,408.7c-0.8,0.7-0.4,2.1,0.5,2.6
		c0.9,0.5,2,0.4,3,0.3c-0.2-1.6-1.8-2.8-3.4-2.7 M194.2,448.2c-1.2,1.3-1.7,3.3-1.2,5.1c1.7-1.1,2.5-3.4,1.8-5.3
		c-0.1-0.3-0.4-0.7-0.7-0.7s-0.1,0.8,0.1,0.5 M183,519.8c-0.4,0.7,0.9,1.3,1.2,0.7c0.6-1.6,0.8-3.3,0.8-4.9
		C183.4,516.1,182.5,518.1,183,519.8 M188.2,738.4c0.3-1-1.4-1.4-2.3-0.8c0,1,0,2,0,3c0.6,0.5,1.6,0.6,2.2,0
		C188.2,739.8,188.2,739.1,188.2,738.4 M597.9,456.5c-0.6,0.8-0.2,2.2,0.8,2.5c0.7-1.4,1.3-2.8,2-4.2c-1.2-0.4-2.6,0.3-3,1.5
		 M237.8,432.9c-0.9-0.9-2.6,0.2-2.7,1.5c-0.1,1.3,0.7,2.4,1.4,3.5c0.3-1.5,0.7-3.1,1-4.6 M273.5,678.5c-1.1,0.8-0.7,2.6,0.4,3.4
		c1.1,0.8,2.5,0.7,3.9,0.7c-1.4-1.1-2.9-2.2-4.3-3.3 M256.9,650.4c-0.3,0.4-0.6,0.9-0.8,1.3c0.9,1.2,2.1,2.2,3.4,2.8
		c0.8-1.5-0.6-3.6-2.3-3.5 M337.4,517.5c1.3-0.4,2.6-0.9,4-1.3c-1.2-1.4-3.6-1.5-5-0.3C336.3,516.5,336.8,517.2,337.4,517.5
		 M265.6,458.4c-0.9,1.2-0.2,3.1,1.3,3.5c0.4-1.1,0.7-2.2,1.1-3.3c-0.6-0.5-1.6-0.5-2.3,0 M280.7,654.8c0.1-1.6-1.2-3.1-2.7-3.3
		c-0.4,1.7,0.8,3.7,2.6,4.1 M326.8,560.3c0.7,0.3,1.3,0.5,2,0.8c0.3-1.9-0.3-4.6-2.2-4.4c0.1,1.1,0.3,2.2,0.4,3.3 M214,323.2
		c0.4-0.8,0-1.9-0.9-2.2c-1.3,1.4-1.9,3.4-1.6,5.2C212.4,325.2,213.1,324.2,214,323.2 M282.3,562.2c0.5,1.4,2.1,2.2,3.5,1.7
		c-0.8-1.5-1.9-2.8-3.2-3.8c-0.2,0.7-0.4,1.4-0.6,2.1 M496.9,325.7c-1.1,1.4,0.3,3.8,2,3.5c0.8-1.4-0.3-3.4-1.9-3.4 M220.3,665.1
		c-0.8-1.4-1.5-2.8-2.3-4.2c-1.4,1.3-0.4,4.1,1.5,4.2 M594.4,706.6c-0.8,0-1.5,0-2.3,0c-0.8,1.2-0.4,3,0.8,3.7
		c0.6-1.2,1.3-2.3,1.9-3.5 M262.4,462.7c-0.6,1.4-1.3,2.9-1.9,4.3c2.2,0.2,3.7-3,2.1-4.6 M177.7,647.3c-0.2,1.3-0.5,2.7-0.7,4
		c2.2-0.2,3-3.8,1.1-4.9 M575,361.9c-0.1-1.7-1.4-3.4-3-3.8C571.3,359.9,573,362.2,575,361.9 M239.1,501.5c-0.5-0.3-0.9-0.6-1.4-0.9
		c-0.6,1.1-1.4,2.1-2.5,2.8c0.5,0.8,1.6,1.3,2.5,1.1c0.3-0.9,0.7-1.8,1-2.7 M272.1,469.3c0.6-0.5,0-1.7-0.8-1.4
		c-0.2,0.9-1,1.6-1.8,1.8c-0.2,1,0.2,2.1,1.1,2.6c0.8-0.7,1.3-1.9,1.2-3 M329.7,518.7c0.3,0.8,1.7,0.8,2,0c-1.6-1.2-3.4-2.2-5.3-3
		c-0.1,1.6,1.6,3,3.1,2.7 M549.3,518.2c-0.4-0.8-0.7-1.7-1.1-2.5c-1.1,1.7-0.5,4.4,1.2,5.4C550.2,520.4,550.2,518.9,549.3,518.2
		 M428.1,586c-1.9,0.4-3.1,2.6-2.3,4.4c1.7-0.8,2.8-2.8,2.6-4.6 M269.6,690.6c-0.1-1.2-0.6-2.4-1.3-3.4c-0.7,1-1.4,2.1-1.1,3.2
		c0.3,1.1,2.4,1.3,2.5,0.1 M546,721.1c-0.8,0.2-1.6,0.4-2.3,0.5c-0.8,1,0.1,2.9,1.5,2.8c1-1,1.4-2.4,1-3.7 M626.6,726.8
		c0.1-0.7,0.2-1.3,0.3-2c-1.7-0.3-3.4,1.5-3,3.2c1,0.4,2.2-0.2,2.4-1.2 M342.2,414.1c-1,1.1-1.4,2.7-1,4.2c0.5,0.6,1.5,0.6,2,0.1
		c-0.2-1.4-0.4-2.8-0.6-4.2 M215,631.7c0.1,0.8,0.6,1.5,1.3,1.8c0.3-1.3,0.4-2.7,0.3-4.1c-0.6-0.6-1.6-0.6-2.2,0
		C214.1,630.2,214.4,631.1,215,631.7 M279.9,248.2c0.3-0.8-0.2-2-1-1.8c-0.6,1.4-1.3,2.8-1.9,4.2c1.3,0.3,2.7-1,2.6-2.3
		 M254.1,493.2c0.6-1.7,1.3-3.4,1.9-5c-2.3,0.2-3.5,3.6-1.9,5.2 M368.4,165.8c-0.8,0.7-1.1,1.9-0.9,2.9c1.6,0.6,2.6-1.7,2.7-3.4
		C369.8,164.8,368.6,165,368.4,165.8 M270.9,282.3c1.5-1,2.2-3.1,1.5-4.7c-1.7,1-2.5,3.2-1.9,5 M218.7,328.7c-0.8,1.2-1,2.8-0.3,4.1
		c0.8-0.7,1.6-1.4,1.9-2.4c0.2-1-0.6-2.3-1.6-2 M333.9,528.4c-0.2-0.7-1.3-1-1.8-0.4c0.4,1.4,1.3,2.6,2.6,3.3
		c0.8-0.9,0.5-2.6-0.7-3.1 M202.2,483.2c0.1-0.6-1.1-0.4-1,0.2s0.7,0.9,1.2,1.1c-1,0.9-1.1,2.7-0.2,3.7c1.3-1.4,1.4-3.7,0.2-5.1
		 M313.7,668.1c-1.1-1.1-3.2-0.7-3.9,0.7c1.4,1.1,3.7,0.8,4.7-0.6 M308,668.6c-0.3-2.2-3.8-2.9-4.9-1.1
		C304.7,667.9,306.3,668.3,308,668.6 M276.7,287.4c0.2-0.8,0.4-1.6,0.7-2.4c-2.1,0.7-3.2,3.4-2.3,5.3c0.9-0.7,1.4-1.9,1.3-3
		 M536.3,489.6c0.7-1.4-0.1-3.3-1.5-3.8c-0.4,1.1-0.6,2.2-0.4,3.4C534.9,489.5,535.6,489.6,536.3,489.6 M266.9,629
		c0.8,0.3,2-0.2,1.9-1.1c-1-0.9-2.2-1.5-3.4-1.8c-0.3,1.2,0.5,2.5,1.6,2.8 M249.9,486.8c-0.7,1.1-1.4,2.2-2.1,3.3
		c1.4-0.1,2.7-0.7,3.6-1.8c0.5-0.9-0.9-2.2-1.2-1.3 M226.2,726.4c-1.3,0.8-0.5,3.3,1,3.3c1.1-1.1,0.6-3.3-0.9-3.8 M426.5,215.4
		c1.9,0,3.3-2.5,2.3-4.1c-1.5,1-2.5,2.7-2.5,4.5 M551.3,725c-0.3-0.9-0.6-1.8-0.9-2.7c-0.3,0.9-0.6,1.7-1,2.6c1,1,2,2,3,2.9
		c0.7-0.9,0.1-2.5-1-2.7 M384.4,724.9c0.8-0.2,1.5-0.5,2.3-0.7c0-1.7-3-2.3-3.7-0.7c0.4,0.6,0.8,1.1,1.2,1.7 M270.9,460.6
		c-2,0.7-1.8,3.9-0.1,5.2c0.4-1.6,0.4-3.3,0.1-5 M185.6,429.9c-0.8,0.6-0.3,2.2,0.7,2.1c0.6-1.4,1.2-2.8,1.9-4.2
		c-1.1-0.5-2.6,0.7-2.3,1.9 M136.7,705.5c0.9-0.5,1.5-1.4,1.7-2.4c-1.7-0.6-3.7,1.5-3,3.2C135.7,706.9,136.9,706.2,136.7,705.5
		 M530.9,644.7c-0.4-0.9-1.5-1.6-2.5-1.5c0.2,1.4,0.9,2.7,1.9,3.7c1.1,0.4,1.8-2,0.6-2 M236.1,425.1c-0.7,1.4-0.3,3.2,0.9,4.2
		c-0.2-1.1,0.6-2.1,0.7-3.2c0.1-1.1-1.6-2.2-2-1.2 M535,645.8c0,0.6,0.6,1.2,1.2,1.1c0.6-1.1,1.2-2.2,1.9-3.3
		c-0.5-0.4-1.2-0.5-1.9-0.4C535.8,644.1,535.5,645,535,645.8 M425,233.9c-1-1.8-4.2-0.3-4,1.8c1.3-0.5,2.5-1.1,3.8-1.6 M524.7,468.3
		c0.9-1.2,1-3,0.2-4.3c-1.5,1-1.8,3.4-0.5,4.7 M191.4,646.9c0.9-0.8,0.6-2.6-0.6-2.9c-1,1.1-1.2,3-0.3,4.3
		C191.1,648.1,191.5,647.5,191.4,646.9 M294.5,243.3c-1.1,0.8-1.5,2.5-0.8,3.6c0.8-0.5,1.7-1.1,2-2.1c0.3-0.9-0.4-2.2-1.3-2
		 M333.3,712.6c-0.6,0.6-0.6,1.6,0,2.2c1.2-0.4,2.4-0.8,3.6-1.2c-0.7-1.1-2.3-1.5-3.4-0.8 M167.3,468.3c0,0.7,0,1.5,0,2.2
		c1,0.6,2.4-0.3,2.3-1.5c-0.1-1.1-1.7-1.7-2.6-1 M544.8,304.9c-0.3,0.7,1,1.4,1.4,0.7c0.2-1.5-0.3-3.6-1.8-3.3
		C543.8,303,544,304.3,544.8,304.9 M302.6,716.4c-0.4-0.8-1.2-1.4-2.2-1.5c-0.8,0.3-0.3,1.6,0.4,2.2c0.6,0.5,1.3,1.1,2,0.8
		c0.7-0.3,0.3-1.7-0.3-1.3 M196.9,649.5c0.3-0.7,0.5-1.5,0.8-2.2c-0.4-0.6-1.1-1-1.8-1c0,1.9,0.4,3.7,1.1,5.4c0.8-0.3,0.9-1.6,0.1-2
		 M267.1,643.7c-0.3-0.6-0.7-1.3-1-1.9c-1.1-0.4-2.5,1-1.7,1.7c0.5,1.1,2.3,1.3,3.1,0.3 M246.7,378.2c0.7-0.3,1.3-0.7,2-1
		c-0.1-0.9-0.2-1.8-0.3-2.8c-1.5,0.6-2.5,2.4-2.2,4.1 M195.4,379.3c-1.4,1-2.4,2.5-2.8,4.2c1.8-0.1,3.3-2.2,2.8-3.9 M263.6,474.2
		c-0.2,0.6-0.1,1.4,0.3,1.9c1.2-1.1,1.5-3,0.8-4.4c-0.6,0.2-1.3,0.4-1.7,0.9C262.7,473.2,262.9,474.2,263.6,474.2 M523.9,352.6
		c0-1.4-2-2.4-3.1-1.5c0.4,0.9,0.8,1.8,1.2,2.7c0.6-0.4,1.3-0.7,1.9-1.1 M585.9,431.7c-0.4,1.2,0.7,2.6,1.9,2.6
		c0.1-1.6-0.4-3.3-1.6-4.5C585.8,430.3,585.7,431.1,585.9,431.7 M240.6,324c0.2,2,0.4,4,0.7,6c0.9-1.9,1-4.1,0.3-6 M547.5,344
		c0.2,0.7,1.3,1,1.7,0.4c0.4-1.6-1.8-3.4-3-2.3C546.3,342.9,546.7,343.7,547.5,344 M438.2,229.3c0.2-1.1-1.3-1.9-2.3-1.4
		c-1,0.5-1.6,1.6-2,2.6c1.3-0.3,2.6-0.7,3.8-1.4 M521.3,610.4c0.7,0,1.5,0,2.2,0c0.7-0.9,0.3-2.4-0.7-2.9c-1.1,0.4-1.9,1.7-1.7,2.9
		 M348.4,326.1c-0.6-2-3.7-1.8-5.1-0.3c1.6,0.4,3.3,0.5,4.9,0.3 M223.9,515.3c0.2-0.6,0.1-1.3-0.3-1.9c-0.7-0.1-1.4,0-2,0.4
		c0.1,1.2,0.6,2.4,1.2,3.4C223.5,516.7,223.9,516,223.9,515.3 M543.8,326.9c0,0.7,0.6,1.4,1.3,1.6c1.1-1.2,0.3-3.6-1.3-3.9
		c-0.5,0.6-0.6,1.6-0.1,2.3 M486.4,658.8c-0.6-0.7-0.5-1.9,0.2-2.6c-0.6-0.3-1.2-0.4-1.8-0.3c-0.4,1.1-0.5,2.2-0.4,3.4
		c0.5,0.5,1.5,0.3,1.8-0.4 M508.5,285.8c-0.3,1.6,0.9,3.4,2.5,3.8c0.3-1.6-0.8-3.4-2.3-3.8 M295.2,231.3c0.7-0.4,0-1.6-0.7-1.3
		c-1.3,0.6-2.1,2.1-2,3.5c1.2,0,2.3-0.9,2.4-2.1 M588.2,437.3c-0.3,1.7,0.4,3.5,1.7,4.5c0.8-1.6,0.1-3.8-1.5-4.5 M133,748.7
		c0.6,0.7,1.9,0,2-1c0.1-1-0.6-1.8-1.2-2.5c-1,0.8-1.3,2.3-0.7,3.4 M333.6,624.2c0,1.4,1.9,2.4,3.1,1.5c-0.2-0.8-0.5-1.7-1.2-2.2
		c-0.7-0.5-2-0.1-2,0.8 M582,404.6c-0.4,0.8,1.5,1.3,1.5,0.4c-0.7-1.5-1.9-2.7-3.2-3.6c-0.4,1.2,0.4,2.7,1.6,3 M147,768.2
		c0.1,0.9,1.2,1.5,2,1.1c0.4-0.8,0.5-1.7,0.4-2.6c-1-0.6-2.4,0.4-2.2,1.5 M487.9,283.3c-0.6-1.4-2.1-2.4-3.6-2.5
		c0,1.8,2.1,3.2,3.8,2.7 M565.7,394.4c0.4-0.8-1-1.2-1.9-1.1c-0.9,1.1,0.2,3.1,1.6,3c0.1-0.6,0.3-1.3,0.4-1.9 M429.7,717.8
		c-0.1,1,1.8,0.9,2-0.1c0.2-1-0.7-1.9-1.4-2.7c-1.2,0.3-1.2,2.4,0,2.7 M212.8,337.1c-1,1.7-1.5,3.7-1.2,5.6c1.2-1.5,1.8-3.5,1.7-5.4
		 M196.3,452.2c-1.9,0.5-2.8,3.1-1.6,4.6c0.7-1.3,1.3-2.7,1.7-4.2 M515.5,664.1c-0.7-0.6-2,0.1-2.2,1.1c-0.2,1,0.3,1.9,0.7,2.8
		c1-0.7,1.4-2.3,0.7-3.4 M366.2,766.2c1.2,0.4,3.1,0.4,3.3-0.9c-0.8-0.4-1.8-0.8-2.7-0.6c-0.9,0.2-1.6,1.4-1.1,2.1 M549.9,340
		c-0.6-0.8-2.2-0.3-2.2,0.7c1,0.3,1.9,1,2.6,1.8c1.1-0.3,0.8-2.3-0.4-2.3 M342.6,343.6c0.9-0.1,1.7-0.2,2.6-0.3
		c0.6-0.9-0.4-2.3-1.5-2.1c-0.6,0.4-1.1,1.1-1.1,1.8 M332.6,513.5c-0.9,0.4-1.5,1.3-1.5,2.3c1.4-0.1,2.7-0.2,4.1-0.4
		C334.2,514.7,333.4,514.1,332.6,513.5 M319.7,200.1c-0.4-0.3-0.9-0.6-1.3-0.8c-0.6,1.1-1.3,2.3-1.9,3.4c1.3,0.4,2.8-0.9,2.6-2.2
		 M507.4,386.2c0.2-1.8-0.4-3.6-1.6-4.9c-0.3,1.8,0.2,3.7,1.2,5.3 M228,326.8c-1.2,1.1-1.5,3.1-0.7,4.5c1.4-1,1.8-3.1,1-4.6
		 M541.8,341.3c-0.6-0.1-1.3-0.2-1.9-0.3c-0.9,1.1,0.1,3.1,1.5,3.1c0.4-0.8,0.5-1.8,0.3-2.6 M204.2,476.1c-1.2,0.8-1.5,2.5-0.8,3.7
		C205.1,479.6,205.6,477,204.2,476.1 M548.4,378.5c-0.8,0.5-0.7,1.7-0.2,2.4c0.6,0.7,1.5,1,2.3,1.3c0.1-1.4-0.8-2.7-2.1-3.2
		 M330.6,637.6c0.7,0.9,1.3,1.8,2,2.7c0.5-1.8-0.6-3.9-2.3-4.6C329.8,636.2,330,637.3,330.6,637.6 M377,637.6
		c-0.4-1.2-1.9-1.9-3.1-1.5c0.2,0.8,0.5,1.7,1.2,2.2C375.8,638.8,377.1,638.4,377,637.6 M135.4,753.8c-1.1-1.1-3.3,0.2-3,1.7
		c1,0.9,2.9-0.2,2.7-1.5 M549.3,510.9c1.1-0.8,0-2.9-1.3-2.6c-0.1,1.1-0.1,2.2-0.2,3.2c0.4,0.6,1.6-0.1,1.3-0.7 M145.6,761.5
		c0.7,0.4,1.3,0.7,2,1.1c1.1-1.1-0.8-2.6-2.3-2.9c-0.7,0.5-0.6,1.7,0.2,2.1 M292.4,270.9c0.1-0.7,0.2-1.4,0.3-2
		c-1.6-0.4-3.1,1.9-2.1,3.2c0.6-0.4,1.1-0.7,1.7-1.1 M545.9,350.8c0.8,0.4,1.2-1,1.1-1.9c-0.9-0.4-1.8-0.8-2.7-1.1
		c-0.3,1.2,0.4,2.5,1.6,2.8 M526.8,569.3c-1.7,0.3-3,2-2.8,3.7c1.5,0,2.8-1.7,2.4-3.1 M284.7,461.9c-0.3,1.5-0.6,3.1-0.9,4.6
		c1.8-0.7,2.5-3.3,1.4-4.9 M518.4,691.8c-0.9,1-1.6,2.3-1.8,3.6c1.8,0,3.2-2.4,2.2-3.9 M235.9,730.9c1.1-0.1,2.2-1.1,2.3-2.2
		c-1.2-1.3-3.6,1.1-2.4,2.3 M487.7,520.1c-0.5,1-1,2-1.5,3c1.5,0.5,2.7-1.3,3.3-2.7c-0.6-0.1-1.2-0.2-1.8-0.4 M587.1,589.5
		c-0.7-0.6-2,0.1-2.2,1.1s0.3,1.9,0.7,2.8c1-0.7,1.4-2.3,0.7-3.4 M542.5,641.3c-0.1,0.6,0.5,1.2,1.1,1.1c0.9-0.6,1.6-1.6,1.9-2.7
		c-1.2-0.3-2.5,0.5-2.9,1.7 M265.3,374.6c0-0.7-0.6-1.4-1.3-1.6c-0.5,0.8-0.6,1.8-0.4,2.7c0.6,1,2.5-0.2,1.9-1.1 M277,694.2
		c-0.6-0.1-1.3-0.2-1.9-0.3c-0.6,1.2,1,2.8,2.2,2.2c0.5-0.5,0.3-1.5-0.4-1.7 M429.4,591.8c-0.4-0.3-0.9-0.6-1.3-0.9
		c-0.6,0.5-1,1.2-1.2,1.9c0.4,0.6,1.1,1,1.9,1.1c0.4-0.5,0.5-1.2,0.3-1.9 M507.5,360.8c-0.1-1.1-1.4-2.3-2.3-1.5
		c0.2,1.3,0.8,2.5,1.8,3.4C507.5,362.2,507.6,361.5,507.5,360.8 M342.7,647.3c-0.4-1.2-1.8-1.9-3-1.5c-0.3,1.5,1.9,2.8,3.1,1.7
		 M309.5,598.4c0.2,0.7,1.4,1,1.9,0.4c-0.3-1.3-1.4-2.3-2.7-2.6c-0.5,0.7,0,1.9,0.8,2.1 M365.7,170.5c0.7-0.2,1-1.3,0.4-1.8
		c-1.2-0.2-2.8,0.6-2.6,1.9c0.6,0.5,1.6,0.5,2.3,0.1 M252.1,268.9c0.8-0.9,0.8-2.4-0.1-3.2c-0.6,0.6-1.3,1.4-1.4,2.2
		c0,0.9,1,1.8,1.7,1.3 M635.1,596.6c-0.2,0.9,0.6,1.8,1.5,1.8c0.9,0,1.6-0.9,1.5-1.8C637.1,596,635.9,596,635.1,596.6 M331.8,565.6
		c-0.9-0.2-1.8-0.1-2.7,0.3c0.9,0.9,2.2,1.6,3.4,1.9C333,567.1,332.6,566,331.8,565.6 M180.7,654.7c0.9-0.4,1.1-1.8,0.4-2.5
		c-0.8-0.2-1.8,0.4-1.9,1.3c-0.1,0.9,0.7,1.7,1.5,1.7 M182.9,745.2c1.4,0.6,2.9-1.7,1.9-2.8c-1.2,0.1-2.2,1.5-1.8,2.6 M384.7,308.3
		c-0.6-0.2-1.4-0.1-1.9,0.3c0,1.5,2.1,2.4,3.2,1.4c-0.4-0.6-0.8-1.2-1.2-1.9 M263.9,605.8c-0.8,0.1-1.7,0.2-2.5,0.2
		c1.4,1.2,3.4,1.6,5.2,1.1C266.1,606.2,264.9,605.7,263.9,605.8 M306.4,658.8c0.4-0.6,0.9-1.1,1.3-1.7c-1.2-0.7-2.7-0.7-3.9-0.1
		c0.7,0.5,1.5,1,2.2,1.5 M524.5,328.1c0.5,0.8,1.6-0.7,1-1.5c-0.6-0.8-1.7-1.1-2-2c-0.8,1.1-0.1,2.9,1.1,3.2 M632.1,635.4
		c-0.1-1.1-1.4-2.2-2.3-1.5c0,0.8,0,1.7,0.6,2.3s1.9,0,1.6-0.8 M523.9,304.9c-0.2,0.6-0.4,1.3-0.5,1.9c1.6-0.1,3-1.8,2.8-3.4
		C525.2,303.5,524.4,304.1,523.9,304.9 M271.2,628.3c-0.1,0.6-0.2,1.3-0.3,1.9c0.9,0.7,2.5,0.3,3-0.8c-0.5-0.8-1.6-1.3-2.5-1.1
		 M191.1,630.1c-0.1,0.6,0.5,1.2,1.1,1.1c0.9-0.5,1.3-1.6,1.1-2.6C192.4,628.1,191,629.1,191.1,630.1 M569.6,400.7
		c0,1.4,0.6,2.8,1.7,3.7c1-1.3,0.1-3.5-1.5-3.7 M527,392.3c-1,1.1-1.2,2.9-0.4,4.2c1.3-1.1,1.5-3.2,0.5-4.5 M229.2,661.5
		c-1.3,0.9-0.4,3.4,1.2,3.3C230.7,663.6,230.2,662.2,229.2,661.5 M450.8,260.1c-0.2,0.6-0.1,1.4,0.3,1.9c0.9-0.4,1.8-0.8,2.7-1.2
		C453.9,259.6,451.9,259.6,450.8,260.1 M288.1,339.1c0.5-0.6-0.8-1.1-1.5-0.7c0.1,1.4,0.2,2.7,0.4,4.1c0.8-0.9,1.3-2.1,1.2-3.4
		 M189.5,626.2c0.8-0.6,1-1.8,0.5-2.6c-1.2,0.9-2.1,2.2-2.5,3.6c0.7,0.5,1.9,0,2.1-0.8 M236.8,668.8c-0.8-0.8-2.1-1-3.2-0.6
		c0.2,1.6,2.6,2.3,3.6,1.1 M595.3,450c-0.1-0.6-1.1-0.6-1.4,0c-0.3,0.6,0,1.2,0.2,1.8c0.4,0.5,1.1,0.7,1.7,0.4
		c0.8-0.6,0.3-2.2-0.7-2.2 M248.7,310.6c-1-0.2-2.1,0.7-2.1,1.7c0.2,0.7,1,1.2,1.7,1.1c0.4-0.8,0.5-1.8,0.3-2.6 M218.7,704.8
		c-1.2-1.1-3-1.5-4.5-0.9C215.3,705.2,217.3,705.6,218.7,704.8 M597.6,718.1c-0.1,0.6,0.8,1.1,1.4,0.8c0.6-0.3,0.9-1,1.1-1.6
		c-0.7-0.4-1.3-0.8-2-1.1C597.9,716.9,597.8,717.5,597.6,718.1 M501,622.4c-0.4-0.3-0.8-0.6-1.3-0.9c-0.9,0.5-1.4,1.6-1.2,2.6
		c1,0.2,2.1-0.5,2.3-1.4 M219.9,521.6c0.8,0,1.5,0,2.3,0c0.6-1-0.5-2.4-1.6-2.2c-0.3,0.7-0.5,1.4-0.8,2.1 M180,518.3
		c-0.2,1.1,0,2.3,0.4,3.4c0.6-0.6,1.3-1.4,1.3-2.3s-1.1-1.7-1.8-1.2 M510.1,485c0.6-0.4,0-1.7-0.7-1.4c-0.9,0.5-1.3,1.6-1.1,2.6
		c0.7,0.6,1.9-0.2,1.6-1.1 M499.3,288.5c-0.1,1.4,0.3,2.9,1.1,4c0.9-1.4,0.5-3.5-1-4.3 M518.6,257.9c-0.4-0.6-1.7,0-1.4,0.7
		c0.6,0.9,1.5,1.6,2.6,1.9C519.8,259.5,519.4,258.6,518.6,257.9 M369.3,737.5c0.8-0.4,1.7-0.9,2.5-1.3c-1-0.5-2.3-0.7-3.4-0.5
		c-0.6,0.4,0,1.7,0.7,1.4 M330.3,288.9c-0.6-0.5-1.2,0.8-0.7,1.4c1.3-0.2,2.5-0.8,3.4-1.8C332.2,287.8,330.8,288,330.3,288.9
		 M437.7,732.7c-0.7-1-2.1-1.5-3.3-1.3c0.4,0.7,0.7,1.4,1.1,2.1c0.8-0.2,1.5-0.4,2.3-0.6 M157.1,635c0.4-0.7-0.5-1.6-1.3-1.4
		c-0.8,0.2-1.3,1-1.3,1.8C155.3,636,156.7,635.8,157.1,635 M219.4,659.7c-0.2,1.2,1.2,2.4,2.4,2c0-1.4-1.4-2.7-2.8-2.5 M499.5,515.1
		c-0.4-0.6-0.9-1.2-1.3-1.8c-1.2,0.8-1.2,2.9,0,3.7c0.3-0.6,0.7-1.2,1-1.8 M101.1,745c1.3,0.6,2.7-1.6,1.6-2.5
		c-1.1-0.1-2.1,1.4-1.4,2.2 M383,763.8c-1.1,1-1.3,2.8-0.5,4c1.1-0.8,1.5-2.5,0.8-3.7 M514.2,511.5c-0.2,0.9-0.1,1.8,0.3,2.6
		c0.9-0.6,1.6-1.6,2-2.6C515.8,511,514.8,511,514.2,511.5 M165.4,479.8c0.5-1.1,0.5-2.5,0-3.7c-1.4,0.7-1.5,3.1-0.1,3.9
		 M536.5,542.1c-0.9,0.9-1,2.5-0.2,3.6c1.3-0.7,1.6-2.7,0.5-3.7 M416.1,234.3c1.1-0.7,1.9-1.8,2.3-3c-1.1,0.6-2.2,1.3-3.4,1.9
		C414.8,233.9,415.5,234.5,416.1,234.3 M330.2,689.5c0.4-0.7-0.5-1.6-1.3-1.4c-0.8,0.2-1.3,1-1.3,1.8
		C328.4,690.5,329.7,690.3,330.2,689.5 M244.2,319.7c-0.4-0.6-1.5,0-1.5,0.7c0,0.8,0.6,1.4,1.1,1.9c1.1,0.4,1.1-1.7,0.2-2.6
		 M299.2,599.4c0.3-0.4,0.6-0.8,0.8-1.3c-0.4-0.9-1-1.6-1.8-2.1c-0.8,0.9-0.4,2.5,0.7,3 M579.5,500.6c-1-0.1-1.4,1.3-1.4,2.4
		c0.9-0.1,1.9-0.4,2.3-1.2c0.4-0.8-0.6-2-1.3-1.4 M646.6,744c-1.1-0.5-2.5,0.6-2.5,1.8c1.2,0.8,3.1-0.5,2.8-1.9 M352.7,641.5
		c-1,0.2-0.6,1.7,0.1,2.5c0.9-0.1,1.8-0.2,2.6-0.3c-0.9-0.7-1.8-1.4-2.7-2 M289.3,420.9c-0.9,1.1-0.6,3,0.6,3.8
		C290.8,423.6,290.5,421.7,289.3,420.9 M530.2,584.2c-0.4,0.8,0,1.9,0.8,2.2c0.8-0.5,1.3-1.6,1.1-2.5c-0.5-0.5-1.5-0.3-1.8,0.4
		 M622.9,732.8c0.2-0.8,0.4-1.5,0.7-2.3c-1.3,0.2-2.5,1.3-2.7,2.6c0.5,0.5,1.5,0.3,1.8-0.4 M590.8,695.4c0.2,0.7,1.4,1,1.9,0.4
		c-0.3-1.3-1.5-2.4-2.8-2.6c0.3,0.7,0.5,1.5,0.8,2.2 M439.2,749.9c0.6,0.2,1.3,0.1,1.8-0.3c0.7-1.1-1.4-2.5-2.2-1.5
		c0.1,0.6,0.1,1.2,0.2,1.9 M509.7,372.7c-0.7-0.3-1.6,0.4-1.7,1.2c-0.1,0.8,0.3,1.6,0.6,2.3c1.2,0,1.2-1.9,0.7-3 M258.3,564.5
		c-0.6-1.1-1.2-2.2-1.8-3.3c-1.1,1.4,0,3.9,1.9,4 M511,507.9c-1.3-0.6-2.7,1.6-1.6,2.5c1.1,0.1,2.1-1.4,1.4-2.2 M530.2,352.7
		c-0.2,1,1,1.9,1.9,1.5c-0.2-1.3-0.8-2.6-1.8-3.5c-0.4,0.5-0.5,1.2-0.4,1.9 M247.5,281.4c0.5-0.9,0.5-2.1-0.1-3
		c-1.1,1.1-1.5,2.8-1,4.3c0.6,0,1-0.7,0.9-1.2 M288.8,226.5c0.3-0.7,0.6-1.4,0.9-2.2c-0.7-0.6-2-0.2-2.3,0.7c-0.3,0.9,0.6,2,1.5,1.9
		 M485.1,565.3c-0.2,0.6-0.1,1.4,0.3,1.9c0.9-1,1.5-2.2,1.9-3.5c-0.9-0.4-2.1,0.5-1.9,1.5 M269.6,651.3c1.4-0.9,0.4-3.4-1.2-3.6
		c0.3,1.1,0.6,2.3,0.9,3.4 M200.9,751.8c-0.2,0.6-0.1,1.3,0.3,1.9c0.9-0.6,1.6-1.5,1.9-2.6C202.5,750.2,200.9,750.7,200.9,751.8
		 M576,646.3c-1.4,0.7,0,2.8,1.3,3.6c0.6-1.1,0-2.7-1.3-3.1 M211.4,693.5c-0.7-0.8-1.9,0.9-1,1.6c0.8,0.7,2.1,0.3,3.1-0.1
		c-0.5-0.9-1.6-1.3-2.5-1.1 M384.8,243.3c0.6,0.5,1.2-0.8,0.7-1.4c-0.9-0.2-1.8-0.1-2.6,0.2c-0.3,1,1.1,1.9,1.9,1.3 M584.4,691.5
		c-0.3,0.4-0.5,0.8-0.8,1.3c0.3,0.9,1.1,1.7,2,2.1c0.1-1.1-0.2-2.2-0.9-3 M239.3,507.5c-1.4,0.6-1.4,3,0,3.6
		C239.8,510,239.8,508.6,239.3,507.5 M317.3,358.2c-1.4-0.1-2.2,2.1-1.1,3c1.1,0.1,1.2-1.5,0.9-2.5 M287.4,242.9
		c-0.1,0.6,0.5,1.2,1.1,1.1c0.6-0.4,1-1.1,1.1-1.8C289,241.4,287.4,242,287.4,242.9 M205.4,651.8c-0.1-0.6-0.2-1.2-0.3-1.8
		c-1.1,0.9-1.5,2.4-1,3.7c0.8,0.4,1.4-1,1.2-1.9 M520.9,348.8c0.8-0.3,0.9-1.6,0.2-2c-1.1,1-1.6,2.5-1.4,3.9
		C520.3,350.4,520.8,349.7,520.9,348.8 M591,431.9c0.6,0.1,1.3,0.2,1.9,0.3c0.6-1-0.5-2.5-1.6-2.2c-0.1,0.6-0.3,1.2-0.4,1.8
		 M134.9,725.4c-1.1,0.5-1.5,2-0.8,3C135.4,728.1,136.1,725.8,134.9,725.4 M441.8,751.6c-0.7-0.1-1.3-0.2-2-0.3
		c-0.1,0.7-0.3,1.3-0.4,2c1,0.6,2.5-0.3,2.3-1.5 M459,325.1c1,0.5,2.4-0.4,2.3-1.6c-0.5-0.3-1.2-0.5-1.9-0.4
		C459,323.7,458.9,324.4,459,325.1 M169.8,744.7c-0.1,0.6-0.2,1.3-0.3,1.9c1,0.6,2.5-0.5,2.2-1.6c-0.6-0.1-1.2-0.3-1.8-0.4
		 M505,296.4c0.6-1.4-1.6-3-2.7-1.9c0.6,0.9,1.6,1.6,2.6,1.9 M169,461.9c-0.1,0.6-0.2,1.3-0.3,1.9c1,0.6,2.5-0.5,2.2-1.6
		c-0.6-0.1-1.2-0.3-1.8-0.4 M146.4,752.6c-1.2,0.3,0.1,2.5,1,1.6C148.5,753.8,147.3,751.7,146.4,752.6 M214.5,656.4
		c-0.6,0.8-0.1,2.3,0.9,2.5c0.3-0.6,0.7-1.3,0.5-2c-0.2-0.7-1.1-1.2-1.6-0.6 M257.7,419.1c-0.5,0.7,0.1,1.8,1,1.8
		c0.4-0.9,0.7-1.8,1.1-2.7C258.9,417.8,257.9,418.3,257.7,419.1 M545.4,500.2c-0.8,0.5-1.4,1.4-1.4,2.4c1.2,0.9,2.8-1.5,1.5-2.3
		 M558.9,745.8c0.3-0.8-0.2-2-1.1-1.8c-0.4,0.8-0.5,1.7-0.3,2.6C557.9,747.2,559.2,746.5,558.9,745.8 M497.1,468.3
		c-0.8,0.4-1.1,1.7-0.5,2.4c0.8-0.4,1.7-1,1.8-2c0-0.9-1.6-1.4-1.7-0.5 M567.7,374.6c0,1.2,1.7,1.9,2.5,1.1c-0.2-1.2-1.8-2-2.9-1.5
		 M350.1,597.3c0-1.4-0.8-2.7-2-3.3c-0.3,1.4,0.6,3,1.9,3.5 M337.3,549.5c0.3-1.1,0.1-2.7-1-2.6c-0.3,0.6-0.7,1.3-0.5,2
		c0.2,0.7,1.2,1.1,1.6,0.6 M231.7,440.8c0.3,1.1,0.5,2.1,0.8,3.2c0.5-0.6,1-1.2,1-2c0-0.8-0.6-1.6-1.4-1.4 M369.9,342.6
		c-1-0.4-1.3,1.4-0.8,2.3c0.7-0.1,1.4-0.4,1.8-1c0.3-0.6-0.4-1.6-0.9-1.2 M243.7,259.7c1-0.4,1.5-1.8,0.9-2.8
		c-0.7,0.3-1.4,0.7-1.7,1.4c-0.3,0.7,0.1,1.7,0.9,1.6 M498.9,463c0.1,0.7,1.2,0.9,1.7,0.4c0.6-0.5,0.7-1.2,0.8-2
		c-1-0.5-2.3,0.5-2.1,1.6 M166.5,474.3c1,0.5,2.4-0.4,2.3-1.6c-0.5-0.3-1.2-0.5-1.9-0.4C166.5,472.9,166.4,473.6,166.5,474.3
		 M313.9,602.5c0.2-1-0.9-1.9-1.8-1.5c0.1,0.9,0.4,1.8,1.1,2.3c0.8,0.4,2-0.3,1.6-1.1 M484.8,635.9c-1.2,0.4-1.9,1.7-1.7,2.9
		c1.4,0.1,2.5-1.9,1.7-3 M535.9,490.7c-0.7-0.4-1.6,0.2-1.7,1c-0.1,0.8,0.2,1.5,0.6,2.2c1-0.5,1.4-2,0.8-2.9 M198.3,604.4
		c0.2-0.9-1.4-0.8-2.1-0.2c0.7,0.5,0.8,1.7,0.1,2.3c1,0.4,2.1-1,1.5-1.9 M317.3,672c0.1-1.2-1.8-1.3-3-0.9c0.3,0.6,0.6,1.2,1.3,1.5
		c0.6,0.3,1.5,0,1.5-0.7 M169.5,754.7c0.7-0.2,1-1.4,0.4-1.9c-1.1,0.3-2,1-2.6,2c0.6,0.5,1.6,0.5,2.3,0 M462.1,328.7
		c0-1.3-2.1-1.3-3.3-0.7c0.4,1.2,2.2,1.6,3.1,0.7 M280.9,443c-0.6,0.8-0.1,2.3,0.9,2.5c0.3-0.6,0.7-1.3,0.5-2s-1.1-1.2-1.6-0.6
		 M301.8,682.1c-0.2-1-1.5-1.7-2.4-1.3c-0.2,1.4,1.8,2.5,2.8,1.5 M170,741.7c0.7-0.9-1.4-2.1-1.8-1c-0.9,0.9,1.4,2.1,1.7,1
		 M364.1,320.6c-0.6-1.1-1.9-2.2-2.9-1.5c0.6,0.1,1,0.7,1.3,1.3c0.3,0.6,0.7,1.2,1.3,1.3s1.1-1,0.5-1.2 M190,457.1
		c0.1,0.7,1.2,0.9,1.7,0.4c0.6-0.5,0.7-1.2,0.8-2c-1-0.5-2.3,0.5-2.1,1.6 M512,316.3c1.2,0,2.5,0,3.7-0.1c-1.1-1.1-3.6-1.8-3.8-0.2
		 M227.1,478c-0.1-0.6-0.2-1.2-0.3-1.8c-1.1,0.9-1.5,2.4-1,3.7c0.8,0.4,1.4-1,1.2-1.9 M101.7,739.9c-0.5,0.7,0.2,1.9,1.1,1.8
		c0.4-0.8,0.5-1.7,0.3-2.6C102.7,738.5,101.4,739.1,101.7,739.9 M296,529.7c-1.3,0-1.3,2-0.8,3.2c1.3,0.1,1.3-1.9,0.9-3.1
		 M412.7,198.2c-1.2,0.1-2.3,0.7-3,1.6c0.8,0.4,1.7,0.5,2.6,0.3C412.7,199.5,412.9,198.8,412.7,198.2 M519.4,480.9
		c-0.1,0.6,0.5,1.2,1.1,1.1c0.9-0.5,1.4-1.6,1.1-2.6C520.7,479.6,519.9,480.2,519.4,480.9 M185.2,663.6c0.7-0.3,1-1.4,0.4-1.9
		c-0.9,0.3-1.9,0.9-1.9,1.8S185.6,664.5,185.2,663.6 M255.3,480.1c-0.7-0.1-1.3-0.2-2-0.3c-0.1,0.7-0.3,1.3-0.4,2
		c1,0.6,2.5-0.4,2.3-1.5 M304.1,702.2c-0.6-0.5-1.1,0.8-0.7,1.5c0.9-0.1,1.7-0.1,2.6-0.2C306.5,702.7,305.2,702,304.1,702.2
		 M237.6,679.3c0.4,1.2,1.7,1.9,2.9,1.7c0.1-1.4-1.9-2.5-3-1.7 M235.1,333.2c-0.2,0.8,1.1,1.4,1.6,0.7c-0.1-0.9-0.1-1.7-0.2-2.6
		C235.7,330.9,235,332.3,235.1,333.2 M549.9,674.1c0.3-1.1,0.1-2.7-1-2.6c-0.3,0.6-0.7,1.3-0.5,2c0.2,0.7,1.2,1.1,1.6,0.6
		 M512.8,452.9c0.3-0.9-0.3-1.9-1.1-2.2c-1.1,1,0.2,3.2,1.6,2.7 M396.6,211.7c-0.8,0.4-1.6,0.8-2.5,1.2c0.7,1.2,3,0.6,2.9-0.8
		 M216.4,624.2c0.2-0.7-1.1-0.8-1.4-0.2c-0.3,0.6,0.1,1.4,0.5,2C216.2,626.5,216.6,625.1,216.4,624.2 M558.4,393.3
		c-0.1,1.2,0.7,2.5,1.8,2.9c0.3-1.2-0.4-2.6-1.6-3 M583.7,707.4c0.3,0.8,1.7,0,1.5-0.8c-0.2-0.8-1.2-1.2-2-1.4
		c0.1,0.8,0.3,1.6,0.8,2.2 M582.1,397c-1.3,0.6,0,2.4,1.2,3.1c0.4-1-0.2-2.3-1.2-2.5 M421.3,185.1c0.6,0.5,1.2-0.8,0.7-1.4
		c-0.7-0.2-1.7,0-2,0.7C419.8,185.1,421.1,185.8,421.3,185.1 M573.9,392.9c-0.2,0.9-0.1,1.8,0.2,2.6c0.6-0.5,1.3-1.1,1.3-1.8
		C575.5,392.9,574.3,392.3,573.9,392.9 M397.8,766.7c0.2-0.6,0.1-1.3-0.3-1.9c-0.9,0.5-1.4,1.6-1.1,2.6
		C396.8,768.1,398,767.4,397.8,766.7 M193.8,394.1c1.3-0.4,2-2.1,1.3-3.3c-1,0.7-1.5,2-1.2,3.2 M526.8,482c1.4,0.1,2.6-1.6,2-2.9
		c-0.9,0.6-1.6,1.6-2,2.6 M535.9,627.2c-0.2,0.6-0.1,1.3,0.3,1.9c0.6-0.6,1.2-1.2,1.9-1.9C537.7,626.3,536.2,626.3,535.9,627.2
		 M639.9,764.1c-0.6-0.2-1.3-0.1-1.9,0.3c0.5,0.9,1.6,1.4,2.6,1.1C641.3,765.1,640.6,763.9,639.9,764.1 M258.7,487.4
		c-0.8,0.7-1.2,1.9-0.9,3c1.4-0.4,1.9-2.3,1-3.4 M422,190.4c-0.6-0.5-1.2,0.8-0.7,1.4c0.7,0.2,1.7,0,2-0.7
		C423.5,190.4,422.3,189.7,422,190.4 M475.8,614.9c-0.6-0.8-1.9-1-2.7-0.4c0.2,1.3,2.3,1.6,2.9,0.5 M527.5,385.8
		c-0.3-0.6-1.3-0.3-1.5,0.3c-0.2,0.7,0.2,1.3,0.6,1.9c0.9,0.5,1.2-1.3,0.8-2.2 M245.3,387.3c0.5-0.9,0.5-2,0-2.9
		c-1.3,0.4-1.4,2.6-0.1,3 M259,504.1c1.2,0.3,1.8-1.6,1.2-2.7c-1.1-0.1-1.3,1.6-1,2.6 M251.6,385.4c1.2,0.3,1.8-1.6,1.2-2.7
		c-1.1-0.1-1.3,1.6-1,2.6 M230.9,465.3c0.1-0.7-1.1-0.9-1.5-0.3c-0.4,0.6-0.1,1.4,0.2,2.1c0.8,0.4,1.3-1,1.1-1.8 M511.3,380.2
		c-0.3,0.9,0.1,2,1,2.5c1.1-0.8,0.3-3-1.1-2.8 M462.4,219.6c-0.9,0.3-1.3,1.5-0.7,2.2c0.8-0.7,1.7-1.4,2.5-2.1
		c-0.6-0.1-1.2-0.2-1.8-0.4 M235,608.1c-0.3-1.1-1.9-0.9-2.9-0.4c0.1,1.2,2.2,1.5,2.6,0.3 M513.9,606.7c0.2-0.7,0.5-1.5,0.7-2.2
		c-0.7-0.4-1.7-0.1-1.9,0.6c-0.3,0.7,0.4,1.6,1.2,1.5 M351.2,321.5c-0.7-0.1-0.9,1.1-0.3,1.5s1.4,0.1,2.1-0.2c0.4-0.8-1-1.3-1.8-1.1
		 M344.8,414.7c1.1-0.3,0.9-1.8,0.4-2.8c-1.2-0.3-1.3,1.8-0.4,2.7 M297.6,508c-0.6-0.2-1.1,0.6-0.9,1.2c0.2,0.6,0.9,0.9,1.5,1.1
		c0.8-0.6,0.3-2.2-0.7-2.2 M505.2,328c1.1-0.4-0.1-2.6-1-1.8c-0.7,0.7,0.1,2.2,1.1,1.9 M497.3,637.9c0.5-0.6-0.7-1.4-1.3-0.9
		s-0.5,1.5-0.4,2.3c0.6-0.4,1.2-0.8,1.8-1.2 M202.4,638.3c-0.1-0.9-1.7-0.5-1.8,0.4c-0.1,0.9,0.7,1.6,1.4,2.2c0.6-0.7,0.4-2-0.4-2.5
		 M622.8,742.5c-1.1,0.5-1.5,2-0.8,3C623.2,745.6,623.3,743.6,622.8,742.5 M196.7,687.9c0.7-0.2,0.1-1.5-0.6-1.3
		c-0.7,0.2-1.1,1-1.2,1.8C195.4,688.8,196.4,688.6,196.7,687.9 M377.7,234c-0.5,0.5-1,1-1.5,1.6c1,0.3,2.2-0.1,2.9-0.9
		C379.6,234.1,378.2,233.5,377.7,234 M247.2,686.9c-0.1-1.1-1.4-2.2-2.3-1.5C244.7,686.5,246.2,687.5,247.2,686.9 M239.9,591.8
		c-0.2-0.7-1.3-1-1.8-0.4c0.2,0.8,0.5,1.6,1.2,1.8c0.7,0.2,1.4-1.2,0.6-1.3 M328.8,230.3c1.3,0.2,2.3-1.5,1.6-2.6
		c-1.1,0.5-1.9,1.7-1.8,2.9 M463.8,588.8c0.7,0.2,1.3-0.6,1.2-1.3s-0.7-1.2-1.2-1.7C463.3,586.7,463.3,587.9,463.8,588.8 M255.2,586
		c0.3-0.4,0.6-0.9,0.9-1.3c-0.5-0.6-1.2-1-2-1.2c-0.5,0.7,0,1.9,0.8,2.1 M315.9,643.4c0.7,0.8,2,0.8,2.9,0.2
		c0.3-1.2-1.8-1.3-2.7-0.4 M395.2,211.2c0.6-0.4,0-1.7-0.7-1.4c-0.6,0.6-1.3,1.3-1.9,1.9C393.4,212,394.5,211.8,395.2,211.2
		 M160.6,645c1,0.2,2.1-0.5,2.3-1.4c-0.6-0.3-1.3-0.5-1.9-0.4C160.6,643.8,160.5,644.4,160.6,645 M226.9,452.5
		c-1.1,0.4-1.6,1.8-1.2,2.8c1.2-0.2,2-1.7,1.3-2.8 M190.6,674.5c-0.1,0.6-0.2,1.2-0.3,1.9c0.8,0.5,1.9,0.1,2.2-0.7
		c-0.4-0.6-1.1-1-1.8-1.1 M356.4,174c0.5-0.9,0.5-2,0.1-2.9c-1.3,0.3-1.5,2.6-0.2,3 M517.6,673.5c1.3,0.1,1.9-2,0.8-2.6
		c-1.1,0.5-1.5,2-0.9,3 M182.2,522.8c-0.7,0.2-1,1.3-0.4,1.8c0.8-0.2,1.6-0.5,1.8-1.2c0.2-0.7-1.2-1.4-1.3-0.6 M269.9,252.2
		c-1.1,0.1-2.2,1.4-1.5,2.3C269.5,254.5,270.6,253.1,269.9,252.2 M287,667.2c-0.6-0.5-1.1,0.8-0.7,1.5c0.9-0.1,1.7-0.2,2.6-0.2
		C288.6,667.7,287.8,667.2,287,667.2 M169.5,756.9c0.5-0.6-0.9-1.2-1.5-0.7c0.4,0.8,0.8,1.7,1.1,2.5c0.7-0.3,1-1.3,0.5-1.9
		 M146.6,755.8c-0.1,0.6-0.2,1.2-0.3,1.9c0.8,0.5,1.9,0.1,2.2-0.7c-0.4-0.6-1.1-1-1.8-1.1 M369.8,338.9c-0.6-0.5-1.3,0.8-0.7,1.4
		c1,0.3,2.1-0.3,2.6-1.2c-0.6-0.1-1.2-0.2-1.8-0.4 M563.9,755.9c-0.3,0.8,0.6,1.7,1.4,1.4c0.6-0.3,0.8-1.3,0.3-1.8
		C565,755,564,755.2,563.9,755.9 M325,532.9c1.3,0.1,1.3-1.9,0.9-3.1C324.8,530.3,324.4,531.8,325,532.9 M313.6,534.7
		c-0.1-0.9-0.2-1.7-0.2-2.6c-0.6,0.5-1.3,1-1.4,1.8c-0.1,0.8,1.1,1.5,1.5,0.9 M441.8,755.5c-1.1,0.4,0.1,2.6,1,1.8
		c0.7-0.7-0.1-2.2-1.1-1.9 M483.3,568.7c-0.7,0.2-0.1,1.5,0.6,1.3c0.7-0.2,1.1-1,1.2-1.8C484.6,567.8,483.6,568,483.3,568.7
		 M548.8,352.3c-0.2-0.7-1.3-1-1.8-0.4c0.2,0.8,0.5,1.6,1.2,1.8s1.4-1.2,0.6-1.3 M329.4,534.2c-0.6,1.4,1.5,3,2.7,2
		c-0.9-0.6-1.7-1.2-2.6-1.8 M313.8,561.9c-0.2-0.7-1.3-1-1.8-0.4c0.6,0.9,1.2,1.8,1.8,2.7c0.6-0.6,0.6-1.6,0.1-2.3 M613.9,658.2
		c0.4-0.8,0-1.9-0.8-2.2c-0.6,0.4-1,1.1-1.1,1.8C612.5,658.1,613.2,658.2,613.9,658.2 M311,349.3c0.5-1-0.5-2.4-1.6-2.3
		C308.8,348,309.8,349.4,311,349.3 M390.7,657c0.2-0.9-0.9-1.9-1.8-1.5c-0.7,1.1,1.3,2.6,2.2,1.6 M431.5,722.3
		c-1,0.3,0.2,2.1,0.9,1.3c1.1-0.5-0.1-2.5-1-1.8 M418.7,174c1.1,0.1,1.5-1.9,0.4-2.2c-1.1,0.3-1.5,2-0.7,2.7 M541.2,345.3
		c-0.5,0.6,0.1,1.8,0.9,1.7c1-0.5-0.1-2.5-1.1-1.8 M397.2,554c0.5,0.8,2.1,0.4,2.1-0.6C398.7,552.5,397.1,553,397.2,554
		 M430.8,225.9c0.2-0.6-0.7-1.1-1.3-0.8s-0.9,0.9-1.1,1.5c0.8,0.5,1.9,0,2.2-0.8 M290.3,549.7c1,0.6,2.2-1.3,1.2-1.9
		c-0.7-0.5-1.2,0.9-1,1.8 M503.8,347.3c0.5,0.8,2.1,0.4,2.1-0.6C505.4,345.9,503.8,346.4,503.8,347.3 M338.1,345.2
		c0.4-1-1.4-1.3-2.3-0.8C335.8,345.4,337.4,346,338.1,345.2 M281.9,239.7c-0.8,0.5-0.4,2.1,0.6,2.1
		C283.3,241.2,282.8,239.6,281.9,239.7 M615.5,721.3c0.4,0.7,1.5-0.3,1.2-1c-0.4-0.7-1.3-0.8-2.1-0.8c0,0.7,0.5,1.3,1.1,1.6
		 M229.1,543.6c0.5-0.6-0.8-1.3-1.4-0.7c-0.2,0.7,0,1.5,0.5,2c0.4-0.4,0.8-0.8,1.1-1.1 M166.8,652.1c0.8-0.5,0.4-2.1-0.6-2.1
		C165.4,650.6,165.9,652.2,166.8,652.1 M371.6,538.5c-0.2-0.7-1.5,0-1.3,0.7c0.2,0.7,1.1,1,1.9,1.1c-0.1-0.6-0.2-1.3-0.4-1.9
		 M180,719.6c-1-0.6-2.2,1.3-1.2,1.9c0.7,0.5,1.2-0.9,1-1.8 M453.2,241.5c0-1.4-2.2-0.8-3.1,0.2c1,0,1.9,0,2.9,0 M499.8,279.1
		c0.2,1,1.4,1.7,2.4,1.3c-0.3-1.1-1.5-1.9-2.7-1.8 M408.3,565.8c0.4,0.6,1.3-0.7,0.6-1.1s-1.5,0.1-2.1,0.5c-0.4,0.7,0.9,1.3,1.2,0.7
		 M239.5,647.4c-0.2-0.8-1.4-1.3-2.1-0.8c-0.1,1.2,1.8,1.9,2.5,0.9 M636.9,721.6c0.7-0.9,0.3-2.5-0.8-2.9
		C635.5,719.5,635.9,721.1,636.9,721.6 M157.9,662.6c1,0.4,1.3-1.3,0.8-2.3C157.7,660,157.4,661.7,157.9,662.6 M278.3,533.9
		c0.1,1,1.7,1.5,2.3,0.7C281.1,533.7,279.3,533.4,278.3,533.9 M234,647.6c0.8,0.2,2.2-0.3,1.7-1c-0.5-1-2.5,0.2-1.8,1.1
		 M516.3,354.1c0.1,1,1.7,1.5,2.4,0.7C519.1,353.9,517.3,353.6,516.3,354.1 M546.3,355.5c-1.2-0.1-0.6,2,0.3,2.7
		c0.6-0.7,0.4-2-0.4-2.6 M185.2,728.6c0.7-0.2,1-1.3,0.4-1.8c-0.7,0-1.4,0.2-1.6,0.9C183.8,728.3,184.7,729,185.2,728.6
		 M557.8,356.1c-0.6-0.5-1.3,0.8-0.7,1.4c0.7,0.2,1.5,0,2-0.5c-0.4-0.4-0.8-0.8-1.1-1.1 M361.9,663c0.1,1,1.7,1.5,2.4,0.7
		C364.6,662.8,362.9,662.5,361.9,663 M258.3,719.8c0.6,0.1,1.3,0.2,1.9,0.3c0.4-0.6,0.5-1.3,0.4-2c-0.9,0.2-1.7,0.8-2.2,1.6
		 M303,252.7c0.2-0.8-0.3-2.2-1-1.7c-1,0.5,0.2,2.5,1.1,1.8 M286.6,525c0,0.7,0.5,1.5,1.2,1.8c0.4-0.6,0.8-1.4,0.5-2
		c-0.3-0.6-1.6-0.4-1.4,0.3 M599.7,447c-0.5,0.6-0.6,1.5-0.1,2.1c0.6-0.4,1.2-0.9,1.3-1.6s-1-1.3-1.3-0.7 M529.4,426
		c1-0.8,0.4-2.7-0.8-3c-0.1,1.1,0.2,2.2,0.9,3 M313.5,227.9c-0.6-0.1-1.3-0.2-1.9-0.3c-0.4,0.6-0.5,1.3-0.4,2
		c0.9-0.2,1.7-0.8,2.2-1.6 M232.6,749.2c-0.8,0.5-0.4,2.1,0.6,2.1C234.1,750.8,233.6,749.2,232.6,749.2 M226.1,334.7
		c-0.2,0.8,1.3,0.9,1.5,0.1c0.2-0.8-0.5-1.5-1.2-1.9C226.4,333.5,226.2,334.1,226.1,334.7 M416.1,173.3c-0.8-0.2-2.2,0.3-1.7,1
		c0.5,1,2.5-0.2,1.8-1.1 M501.5,484c0.2-0.8-0.3-2.2-1-1.7c-1,0.5,0.2,2.5,1.1,1.8 M318.8,521.2c0.4,0.6,1.7,0,1.4-0.7
		c-0.6-0.4-1.2-0.7-1.9-1.1C317.9,520,318.1,520.9,318.8,521.2 M512.9,333.8c-0.4-0.6-0.9-1.2-1.3-1.8c-0.3,0.7-0.7,1.5-0.3,2.1
		s1.7,0.5,1.5-0.2 M233.3,301.5c-1-0.4-1.3,1.3-0.8,2.3C233.5,304.1,233.9,302.4,233.3,301.5 M577.2,520.1c1,0.4,1.3-1.3,0.8-2.3
		C577,517.5,576.7,519.2,577.2,520.1 M302.3,575.7c0.5-0.6-0.9-1.3-1.4-0.7c0.1,0.7,0.3,1.5,0.9,1.8
		C302.5,577,303,575.7,302.3,575.7 M587.8,421.7c0.8-0.5-1-1.4-1.3-0.5c-0.3,0.9,0.5,1.7,1.3,2.3c0.5-0.5,0.4-1.5-0.2-1.9
		 M299.3,715.2c0.4-1-1.4-1.3-2.3-0.8C297,715.5,298.6,716,299.3,715.2 M595.9,453.7c-1-0.4-1.3,1.3-0.8,2.3
		C596.1,456.3,596.5,454.6,595.9,453.7 M491.5,640.2c-1-0.4-1.3,1.3-0.8,2.3C491.6,642.9,492,641.1,491.5,640.2 M393.1,228.5
		c0.1-1.2-2-0.6-2.7,0.3c0.7,0.6,2,0.4,2.6-0.4 M507.6,303c-0.1,1,0.8,2.1,1.8,2.1c0.5-1-0.5-2.3-1.6-2.1 M150.4,682.7
		c-0.6,1,1.3,2.2,1.9,1.2c0.5-0.7-0.9-1.2-1.8-1 M282.8,238.6c1,0.6,2.2-1.3,1.2-1.9c-0.7-0.5-1.2,0.9-1,1.8 M350.6,639.2
		c0.6,1.1,2.2,1.5,3.2,0.7c-0.8-0.8-1.9-1.1-3-0.9 M544.7,373.6c-0.2-0.7-1.5,0-1.3,0.7c0.2,0.7,1.1,1,1.9,1.1
		c-0.1-0.6-0.2-1.3-0.4-1.9 M226.9,417.5c0.5-0.6-0.8-1.3-1.4-0.7c-0.2,0.7,0,1.5,0.5,2c0.4-0.4,0.8-0.8,1.1-1.1 M213.2,687.3
		c-0.8,0.5-0.4,2.1,0.6,2.1C214.7,688.8,214.2,687.2,213.2,687.3 M291.4,744.6c0.8-0.5,0.4-2.1-0.6-2.1
		C290,743.1,290.5,744.7,291.4,744.6 M494.3,511.9c-0.2,0.8-0.5,1.5-0.7,2.3c0.7-0.1,1.5-0.3,1.8-0.9c0.3-0.6-0.3-1.6-0.9-1.2
		 M292.9,511.8c1-0.8,0.4-2.7-0.8-3c-0.1,1.1,0.2,2.2,0.9,3 M583,416.9c0.7-0.7-0.3-2.2-1.2-1.9C581.1,415.8,582,417.2,583,416.9
		 M236.6,710.8c1,0.6,2.2-1.3,1.2-1.9c-0.7-0.5-1.2,0.9-1,1.8 M249.8,692.5c0.5-1-0.4-2.4-1.5-2.3
		C248.1,691.2,248.7,692.3,249.8,692.5 M529.7,691c0.1-0.6-0.8-0.9-1.3-0.5c-0.5,0.4-0.6,1-0.7,1.6c0.7,0.6,1.8-0.3,1.5-1.1
		 M246.3,508.6c0.2-0.8-0.3-2.2-1-1.7c-1,0.5,0.2,2.5,1.1,1.8 M570.5,379.1c0.2,0.8,1.7,0.4,1.6-0.4c0-0.6-0.6-1.2-1.2-1
		s-0.8,1-0.5,1.5 M513.5,506.3c-0.3,0.7,1,1.4,1.4,0.7c0.2-0.7,0.1-1.5-0.4-2c-0.4,0.4-0.8,0.8-1.1,1.1 M266.1,465.6
		c0.8-0.5,0.4-2.1-0.6-2.1C264.6,464.1,265.1,465.6,266.1,465.6 M597.5,407.5c-0.1-0.7-1.5-0.3-1.5,0.4c0,0.8,0.7,1.3,1.3,1.7
		c0.5-0.6,0.5-1.6,0-2.2 M404.5,219.1c0.4-1-1.4-1.3-2.3-0.8C402.2,219.4,403.8,219.9,404.5,219.1 M169.2,733.4
		c0.6,0.5,1.2-0.8,0.7-1.4c-0.6-0.2-1.3-0.1-1.9,0.3C167.9,732.9,168.5,733.5,169.2,733.4 M544,695.8c-0.2,0.8,1.1,1.3,1.6,0.7
		c-0.1-0.9-0.2-1.7-0.2-2.6C544.9,694.6,544.5,695.2,544,695.8 M359.2,319.9c-0.5,0.6,0.1,1.8,0.9,1.7c1-0.5-0.1-2.5-1.1-1.8
		 M600.7,469c0.2-0.8-0.3-2.2-1-1.7c-1,0.5,0.2,2.5,1.1,1.8 M243.3,262.4c0.1,1,1.7,1.5,2.3,0.7C246,262.1,244.3,261.8,243.3,262.4
		 M321.3,710.4c1-0.3,0.4-2.3-0.7-2c-0.9,0.4-0.3,2.1,0.7,1.9 M601.1,500c0.5,0.5,1,1,1.6,1.5c0.1-0.9,0.1-2-0.6-2.4
		c-0.8-0.5-1.8,0.9-1,1.2 M442.7,760.6c0.5,0.8,2.1,0.4,2.1-0.6C444.2,759.2,442.6,759.7,442.7,760.6 M351.2,629
		c1,0.4,1.3-1.3,0.8-2.3C351,626.4,350.6,628.1,351.2,629 M236,488.3c0.5,0.8,2.1,0.4,2.1-0.6c-0.6-0.8-2.2-0.3-2.2,0.7
		 M491.8,319.3c1,0.1,2.1-0.8,2.1-1.9c-1-0.4-2.3,0.6-2.1,1.6 M563.9,389.6c0.5-1-0.4-2.4-1.5-2.3
		C562.2,388.3,562.8,389.4,563.9,389.6 M522.5,389.1c-1-0.6-2.2,1.3-1.2,1.9c0.7,0.5,1.2-0.9,1-1.8 M165.7,618.4
		c-0.4-0.5-1.3,0.2-1.1,0.9s1,0.9,1.6,0.9C166.6,619.5,166.4,618.6,165.7,618.4 M514.2,485.4c0.2-0.6,0.1-1.3-0.3-1.8
		c-0.7,0.4-1.4,1-1.3,1.8c0.1,0.8,1.6,0.7,1.4,0 M601.4,736.1c0.2-0.8-0.3-2.2-1-1.7c-1,0.5,0.2,2.5,1.1,1.8 M375.3,313.9
		c-0.2-0.9-1.7-0.9-2-0.1c0.1,1.1,2.1,1.1,2.2,0 M262,484.8c1,0.6,2.2-1.3,1.2-1.9c-0.7-0.5-1.2,0.9-1,1.8 M552.5,708.7
		c0.8-1,0.8-2.5,0-3.6c-0.1,1.1-0.2,2.2-0.4,3.4 M460.9,258.2c0.5,0.4,1.2-0.5,0.8-1c-0.4-0.5-1.2-0.5-1.8-0.3
		C459.9,257.4,460.3,258,460.9,258.2 M615.6,701c0.1,0.8,0.5,1.5,1.2,1.8c0.2-0.7,0.3-1.5-0.2-2.1s-1.7-0.2-1.5,0.5 M362.4,698.5
		c-0.8-0.3-2.1,0.2-1.8,1.1c0.8,0.6,2.1-0.2,2-1.2 M619.2,696.6c-0.1-0.6-1.3-0.3-1.3,0.4c0,0.7,0.6,1.1,1.2,1.4
		c0.1-0.6,0.2-1.2,0.3-1.8 M243.4,325c1,0.1,2-1.3,1.2-1.9C243.7,322.8,243.3,324.1,243.4,325 M486.4,307.9c0,0.6,0.8,1.1,1.3,0.9
		s0.7-1.1,0.3-1.6c-0.5-0.3-1.3,0.1-1.2,0.7 M510.6,307.1c0.1,0.6,1.3,0.3,1.3-0.4c0-0.7-0.6-1.1-1.2-1.4c-0.1,0.6-0.2,1.2-0.3,1.8
		 M551.1,690.1c0.8-0.6,0.3-2.2-0.7-2.2C549.9,688.7,550.3,689.9,551.1,690.1 M323.6,685.1c-0.8-0.3-2.1,0.2-1.8,1.1
		c0.8,0.6,2.1-0.2,2-1.2 M268.9,683.8c0.1,0.6,1.3,0.3,1.3-0.4s-0.6-1.1-1.2-1.4c-0.1,0.6-0.2,1.2-0.3,1.8 M232,715.2
		c0,0.6,0.8,1.1,1.3,0.9c0.6-0.3,0.7-1.1,0.3-1.6c-0.5-0.3-1.3,0.1-1.2,0.7 M243.4,330.2c-0.2,0.7,1,1.4,1.5,0.7
		c0-0.6-0.1-1.2-0.6-1.5c-0.5-0.3-1.2,0.5-0.8,0.8 M272.3,260.9c0,0.6,0.8,1.1,1.3,0.9c0.6-0.3,0.7-1.1,0.3-1.6
		c-0.5-0.3-1.3,0.1-1.2,0.7 M515.4,676.3c-0.1,0.6,0.8,1,1.3,0.7c0.6-0.3,0.8-0.9,1-1.5c-0.8-0.4-1.8,0.1-2,0.9 M168.8,674.2
		c-0.2,0.6-0.1,1.3,0.3,1.9c0.5-0.4,1.1-0.8,1.1-1.5c0-0.6-1.1-0.9-1.2-0.3 M276.9,671.2c-0.5-0.5-1.5-0.6-2.1-0.1
		c0,1.1,2.1,1.3,2.2,0.2 M541.5,670.8c0.6,0.5,1.2-0.8,0.7-1.4c-0.5,0-1.2,0.1-1.4,0.5C540.4,670.3,541,671.1,541.5,670.8
		 M497,335.6c1.1-0.1,0.7-2.2-0.4-2c-0.5,0.6-0.3,1.5,0.4,1.8 M627.3,717.9c-0.7,0.3,0,1.6,0.7,1.2c0.9-0.3-0.1-2.1-0.9-1.5
		 M237,339.5c0.8-0.3,1.3-1.4,0.8-2.1c-1-0.4-1.3,1.4-0.8,2.3 M414.9,720.6c1.1-0.1,0.7-2.2-0.4-2c-0.5,0.6-0.3,1.5,0.4,1.8
		 M340.6,659.7c-0.6-0.4-1.4,0.3-1.4,1c0,0.7,0.5,1.3,1,1.8c0.1-0.8,0.2-1.7,0.3-2.5 M325.9,656.8c-0.6,0.1-0.3,1.3,0.4,1.3
		c0.7,0,1.1-0.6,1.4-1.2c-0.6-0.1-1.2-0.2-1.8-0.3 M510.3,341.5c-0.1-0.6-1.3-0.3-1.3,0.4c0,0.7,0.6,1.1,1.2,1.4
		c0.1-0.6,0.2-1.2,0.3-1.8 M364,657.4c0.6-1-1.5-2.1-2-1c0.6,0.4,1.2,0.7,1.8,1.1 M261.6,656c-0.5-0.4-1.2,0.5-0.8,1
		s1.2,0.5,1.8,0.3C262.6,656.7,262.2,656.1,261.6,656 M136.3,722.2c0.7-0.3,0-1.6-0.7-1.2c-0.9,0.3,0.1,2.1,0.9,1.5 M370.9,655.5
		c-0.2,0.7,1,1.4,1.5,0.7c0-0.6-0.1-1.2-0.6-1.5c-0.5-0.3-1.2,0.5-0.8,0.8 M347.5,722.3c-0.6-0.2-1.3-0.1-1.9,0.3
		c0.4,0.5,0.8,1.1,1.5,1.1c0.6,0,0.9-1.1,0.3-1.2 M394.1,202.7c-0.4,0.3,0.3,1.1,0.8,0.8c0.5-0.3,0.5-0.9,0.6-1.5
		C395.1,201.3,393.8,202,394.1,202.7 M242,654.1c-0.5,0.6,0,1.7,0.8,1.7c0.1-0.7,0.3-1.4-0.1-2c-0.4-0.6-1.5-0.6-1.6,0.1
		 M469.8,296.3c0.5-0.5,0.6-1.5,0.1-2.1c-1.1,0-1.3,2.1-0.2,2.2 M236,724.1c-0.8-0.4-1.9,0-2.2,0.8C234.4,725.7,236,725.1,236,724.1
		 M558.2,346c0.2,0.6,1.2,0.7,1.6,0.2c0.4-0.5-0.1-1.4-0.7-1.4c-0.3,0.3-0.7,0.7-1,1 M504.9,289.6c-0.5-0.3-1.1,0.3-1,0.9
		s0.6,1,1,1.3C505.4,291.2,505.4,290.2,504.9,289.6 M550,727.1c0.4-0.3-0.3-1.1-0.8-0.8s-0.5,0.9-0.6,1.5
		C549,728.5,550.3,727.8,550,727.1 M174.8,648c0.4,0.5,1.4,0.4,1.7-0.1c0.4-0.6,0-1.5-0.7-1.6C175.5,646.9,175.2,647.5,174.8,648
		 M417.6,727.5c-0.5,0.5-0.6,1.5-0.1,2.1c1.1,0,1.3-2.1,0.2-2.2 M455,728.3c-0.1-1.1-2.2-0.7-2,0.4c0.6,0.5,1.5,0.3,1.8-0.4
		 M635.5,645.5c-0.3-0.7-1.7-0.5-1.7,0.3c0,1.1,2.2,0.5,1.6-0.3 M541.8,730.1c1,0.1,2-1.3,1.2-1.9
		C542.1,727.9,541.7,729.2,541.8,730.1 M507.9,370.9c-0.2,0.5,0.9,0.7,1.1,0.1c0.2-0.5-0.1-1.1-0.4-1.6
		C507.9,369,507.3,370.3,507.9,370.9 M327.4,729.1c-0.8,0.6-0.3,2.2,0.7,2.2C328.6,730.5,328.1,729.4,327.4,729.1 M187.8,643.3
		c-0.7,0.3,0,1.6,0.7,1.2c0.9-0.3-0.1-2.1-0.9-1.5 M157.6,637c-0.5-0.2-0.7,0.9-0.2,1.1c0.5,0.2,1.1-0.1,1.6-0.4
		C159.5,637,158.1,636.3,157.6,637 M328.8,633.2c0.4-0.7-1.2-0.8-1.3-0.1c-0.1,0.8,0.7,1.4,1.4,1.7c0.5-0.5,0.2-1.5-0.5-1.7
		 M152.9,631.3c-0.1-1.1-2.2-0.7-2,0.4c0.6,0.5,1.5,0.3,1.8-0.4 M172.6,625.6c-1-0.6-2.1,1.5-1,2c0.4-0.6,0.7-1.2,1.1-1.8
		 M539.9,623.9c-0.6-0.5-1.2,0.8-0.7,1.4c0.5,0,1.2-0.1,1.4-0.5S540.4,623.5,539.9,623.9 M422.4,734.6c0.4-0.3-0.3-1.1-0.8-0.8
		c-0.5,0.3-0.5,0.9-0.6,1.5C421.4,736,422.7,735.3,422.4,734.6 M326.5,399.2c-0.4,0.8,0,1.9,0.8,2.2
		C328.1,400.8,327.5,399.2,326.5,399.2 M324,400.2c-1-0.6-2.1,1.5-1,2c0.4-0.6,0.7-1.2,1.1-1.8 M243.8,617.9c0.1-1-1.3-1.9-1.9-1.1
		c0,0.9,1.1,1.5,1.8,1 M595.9,402.2c0.1-1-1.3-1.9-1.9-1.1c0,0.9,1.1,1.5,1.8,1 M524.6,617.6c1,0.6,2.1-1.5,1-2
		c-0.4,0.6-0.7,1.2-1.1,1.8 M503,615.9c0.7-0.2,1-1.3,0.4-1.8c-1.1,0-1.5,2.1-0.4,2 M576.1,406.4c-0.5-0.2-0.7,0.9-0.2,1.1
		c0.5,0.2,1.1-0.1,1.6-0.4C578,406.4,576.7,405.8,576.1,406.4 M495.5,287.7c0.2-0.6,0.1-1.3-0.3-1.9c-0.5,0.4-1.1,0.8-1.1,1.5
		s1.1,0.9,1.2,0.3 M193.7,410.4c-0.6,0.2-0.7,1.2-0.2,1.6c0.5,0.4,1.4-0.1,1.4-0.7c-0.3-0.3-0.7-0.7-1-1 M526.7,415.3
		c0.3-0.7-1.2-0.8-1.3-0.1c-0.1,0.7,0.6,1.3,1.2,1.7c0.1-0.5,0.2-1.1,0.3-1.6 M504.9,594c-1-0.4-1.4,1.3-0.9,2.2
		C504.9,595.9,505.3,594.8,504.9,594 M515.2,416.4c0.2-0.5-0.9-0.7-1.1-0.2c-0.2,0.5,0.1,1.1,0.4,1.6
		C515.2,418.3,515.9,417,515.2,416.4 M439.5,745.1c-0.3-0.9-1.8-0.9-2.1,0C437.7,745.9,439.2,745.9,439.5,745.1 M318,283.9
		c0.7-0.2,1-1.3,0.4-1.8c-1.1,0-1.5,2.1-0.4,2 M441.5,591.1c-0.7,0.3,0,1.6,0.7,1.2c0.9-0.3-0.1-2.1-0.9-1.5 M423.5,588.7
		c-0.6,0.2-0.7,1.2-0.2,1.6c0.5,0.4,1.4-0.1,1.4-0.7c-0.3-0.3-0.7-0.7-1-1 M600,584.6c0.7-0.2,1-1.3,0.4-1.8c-1.1,0-1.5,2.1-0.4,2
		 M239.4,746.9c-0.2,0.5,0.9,0.7,1.1,0.2c0.2-0.5-0.1-1.1-0.4-1.6C239.4,745,238.7,746.4,239.4,746.9 M292.2,281.4
		c0.2-0.5-0.9-0.7-1.1-0.2c-0.2,0.5,0.1,1.1,0.4,1.6C292.2,283.3,292.8,281.9,292.2,281.4 M525.4,750.4c1.1-0.1,0.7-2.2-0.4-2
		c-0.5,0.6-0.3,1.5,0.4,1.8 M241.9,751.8c0.2-0.6,0.1-1.3-0.3-1.9c-0.5,0.4-1.1,0.8-1.1,1.5s1.1,0.9,1.2,0.3 M531,421.7
		c-0.8,0.6-0.3,2.2,0.7,2.2C532.2,423.1,531.8,422,531,421.7 M500.9,566.7c0.6,0.8,2.2,0.3,2.2-0.7
		C502.3,565.5,501.1,565.9,500.9,566.7 M592.2,433.6c0.2,0.8,0.5,1.5,0.7,2.3c0.4-0.8,0.5-1.7,0.3-2.6c-0.2-0.6-1.3-0.2-1.2,0.4
		 M322.8,544.7c0.8,0.3,2.1-0.2,1.8-1.1c-0.8-0.6-2.1,0.2-2,1.2 M177.4,441.9c-0.8,0.3-1.3,1.4-0.8,2.1c1,0.4,1.3-1.4,0.8-2.3
		 M363.1,534.2c-0.4,0.8,0,1.9,0.8,2.2C364.6,535.8,364.1,534.3,363.1,534.2 M644,754.7c0.4-0.3-0.3-1.1-0.8-0.8s-0.5,0.9-0.6,1.5
		C643,756.1,644.3,755.4,644,754.7 M230,443.7c-0.7,0.2-1,1.3-0.4,1.8c1.1,0,1.5-2.1,0.4-2 M286.2,241.1c0.5-0.5,0.6-1.5,0.1-2.1
		c-1.1,0-1.3,2.1-0.2,2.2 M357.2,525.3c-0.3,0.9,1.1,1.8,1.8,1.1C359.4,525.7,358.1,525.2,357.2,525.3 M526.9,447.4
		c-0.1-1.1-1.4-2.2-2.3-1.5c0.5,0.8,1.3,1.4,2.2,1.6 M585.8,506.4c1,0.6,2.1-1.5,1-2c-0.4,0.6-0.7,1.2-1.1,1.8 M236.7,497.3
		c-1-0.1-2,1.3-1.2,1.9C236.3,499.6,236.8,498.2,236.7,497.3 M614.2,758.4c-1-0.6-2.1,1.5-1,2c0.4-0.6,0.7-1.2,1.1-1.8 M261.7,469.4
		c-1-0.4-1.4,1.3-0.9,2.2C261.7,471.3,262.1,470.2,261.7,469.4 M222.5,473.5c0.4-0.3-0.3-1.1-0.8-0.8c-0.5,0.3-0.5,0.9-0.6,1.5
		C221.5,474.8,222.7,474.2,222.5,473.5 M253.4,488c0.6-0.1,0.9-0.9,0.5-1.4c-0.4-0.4-1.3-0.3-1.4,0.3c-0.3,0.5,0.4,1.2,0.9,1
		 M594,480.2c-1-0.1-2,1.3-1.2,1.9C593.7,482.5,594.1,481.1,594,480.2 M256.1,231c-0.8-0.4-1.9,0-2.2,0.8
		C254.5,232.6,256.1,232,256.1,231 M345.3,519.5c-0.6,0.1-0.3,1.3,0.4,1.3c0.7,0,1.1-0.6,1.4-1.2c-0.6-0.1-1.2-0.2-1.8-0.3
		L345.3,519.5z"/>
</g>
</svg>
