<?xml version="1.0" standalone="no"?>
<!DOCTYPE svg PUBLIC "-//W3C//DTD SVG 20010904//EN"
 "http://www.w3.org/TR/2001/REC-SVG-20010904/DTD/svg10.dtd">
<svg version="1.0" xmlns="http://www.w3.org/2000/svg"
 width="401.000000pt" height="401.000000pt" viewBox="0 0 401.000000 401.000000"
 preserveAspectRatio="xMidYMid meet">
<metadata>
Created by potrace 1.11, written by Peter Selinger 2001-2013
</metadata>
<g transform="translate(0.000000,401.000000) scale(0.100000,-0.100000)"
fill="#000000" stroke="none">
<path d="M110 3433 l0 -573 53 -1 c185 -2 660 0 663 4 2 2 7 24 10 48 3 24 7
50 10 58 3 8 7 30 10 50 9 56 70 233 105 303 96 192 291 389 479 483 168 84
311 118 501 117 208 -1 368 -52 514 -162 158 -120 245 -267 248 -423 2 -84 -9
-133 -40 -187 -125 -214 -428 -179 -483 57 -20 89 1 163 74 261 44 60 49 94
17 145 -21 34 -84 84 -135 106 -100 43 -273 43 -404 0 -110 -36 -193 -105
-267 -219 -134 -208 -198 -466 -198 -800 0 -189 12 -298 49 -439 53 -206 149
-356 289 -456 117 -83 228 -116 380 -111 243 8 428 157 560 449 43 97 31 91
141 58 l53 -16 -28 -85 c-130 -401 -392 -606 -786 -615 -238 -5 -456 51 -613
158 -24 16 -46 26 -50 22 -4 -4 -7 -378 -7 -831 0 -818 0 -824 20 -825 11 0
347 -1 747 -2 l728 -2 2 1425 3 1425 520 2 c286 1 541 2 568 2 l47 1 0 573 0
574 -1890 0 -1890 0 0 -574z"/>
</g>
</svg>
