<?xml version="1.0" encoding="utf-8"?>
<!-- Generator: Adobe Illustrator 22.1.0, SVG Export Plug-In . SVG Version: 6.00 Build 0)  -->
<svg version="1.1" xmlns="http://www.w3.org/2000/svg" xmlns:xlink="http://www.w3.org/1999/xlink" x="0px" y="0px"
	 viewBox="0 0 443.7 316.2" style="enable-background:new 0 0 443.7 316.2;" xml:space="preserve">
<style type="text/css">
	.st0{fill:#F7BFDB;}
	.st1{fill:#FFFFFF;}
	.st2{fill:#FF66B6;}
	.st3{fill:#2C2C2C;}
</style>
<g id="Layer_1">
	<path class="st0" d="M90.8,2.1c-3.3,0-6.5,0-9.8,0C63.1,2.3,56.3,8.5,57.6,26.6c2.1,29.6,4.2,59.1,6.4,88.7
		c1.8,25.4-0.3,55.4,7.8,79.5c0.1,0.3,0.2,0.6,0.3,0.8c-1.2-3.3-35.6,0.6-39.3,0.8c-7.9,0.4-45.5,0-28.3,15
		C22.6,227.2,40,243.7,56.7,261c10.8,11.2,29.9,45.2,46.4,29.9c12.5-11.6,24.5-23.7,36.4-36c19.3-20,37.3-41.4,55.7-62.2
		c15.4-17.3-50.7-6.5-58.6-3.6c-0.5-36.2,0.5-72.5,1.1-108.8c0.3-18.1,0.7-36.3,1.1-54.4c0.4-16.8-1.2-22.1-19.4-23.1
		C109.9,2.4,100.3,2.2,90.8,2.1z M76.4,199.9c1.9-1.6,2.8-3.7,2.5-6.4C73,139.9,68.9,86,66.7,32.1C65.9,11.7,78,8.1,95.9,7.9
		c10.7-0.1,29.3-2.2,34.4,10c1.4,3.3,1.3,7.1,1.2,10.7c-0.9,32.3-1.9,64.6-2.8,96.9c-0.4,14.9-11.2,69.3,15,69.3
		c6.3,0.2,12.3-2.4,18.4-4.3c9.3-2.8,25.9-2.6,18.2,11c-2,3.5-5,6.3-7.9,9c-24,22.7-44.6,53.3-72.1,71.7c-2.7,1.8-6,3.6-9.1,2.5
		c-1.6-0.6-2.8-1.8-3.9-3c-11.6-12.1-23.6-23.9-35.4-36c-11.4-11.7-28.7-25.4-35.7-40.2C27.3,202.7,66,208.7,76.4,199.9z
		 M130.5,12.5L130.5,12.5C130.6,12.6,130.6,12.6,130.5,12.5L130.5,12.5L130.5,12.5L130.5,12.5z M130.2,12.6c0.1,0,0.3,0.1,0.4,0.2
		l0,0C130.4,12.7,130.3,12.6,130.2,12.6L130.2,12.6L130.2,12.6z M130.6,12.6L130.6,12.6L130.6,12.6L130.6,12.6L130.6,12.6
		L130.6,12.6L130.6,12.6z M131.1,13c0.1,0.1,0.1,0.2,0.2,0.2C131.2,13.1,131.1,13.1,131.1,13L131.1,13L131.1,13z M138.2,189.9
		L138.2,189.9L138.2,189.9L138.2,189.9L138.2,189.9L138.2,189.9z M93.5,289.1c0.1,0,0.2,0.1,0.3,0.1
		C93.7,289.2,93.6,289.1,93.5,289.1L93.5,289.1L93.5,289.1z"/>
	<path class="st0" d="M322.6,0c-3.3,0-6.5,0-9.8,0c-17.9,0.2-24.7,6.4-23.4,24.5c2.1,29.6,4.2,59.1,6.4,88.7
		c1.8,25.4-0.3,55.4,7.8,79.5c0.1,0.3,0.2,0.6,0.3,0.8c-1.2-3.3-35.6,0.6-39.3,0.8c-7.9,0.4-45.5,0-28.3,15
		c18.1,15.8,35.5,32.3,52.2,49.6c10.8,11.2,29.9,45.2,46.4,29.9c12.5-11.6,24.5-23.7,36.4-36c19.3-20,37.3-41.4,55.7-62.2
		c15.4-17.3-50.7-6.5-58.6-3.6c-0.5-36.2,0.5-72.5,1.1-108.8c0.3-18.1,0.7-36.3,1.1-54.4C371,7,369.4,1.7,351.2,0.7
		C341.6,0.3,332.1,0,322.6,0z M308.1,197.7c1.9-1.6,2.8-3.7,2.5-6.4c-5.9-53.6-10-107.5-12.2-161.4c-0.8-20.4,11.3-24,29.2-24.2
		c10.7-0.1,29.3-2.2,34.4,10c1.4,3.3,1.3,7.1,1.2,10.7c-0.9,32.3-1.9,64.6-2.8,96.9c-0.4,14.9-11.2,69.3,15,69.3
		c6.3,0.2,12.3-2.4,18.4-4.3c9.3-2.8,25.9-2.6,18.2,11c-2,3.5-5,6.3-7.9,9c-24,22.7-44.6,53.3-72.1,71.7c-2.7,1.8-6,3.6-9.1,2.5
		c-1.6-0.6-2.8-1.8-3.9-3c-11.6-12.1-23.6-23.9-35.4-36c-11.4-11.7-28.7-25.4-35.7-40.2C259,200.6,297.7,206.6,308.1,197.7z
		 M362.2,10.4C362.2,10.4,362.3,10.4,362.2,10.4C362.3,10.4,362.3,10.4,362.2,10.4C362.3,10.4,362.2,10.4,362.2,10.4L362.2,10.4
		L362.2,10.4z M361.9,10.4c0.1,0,0.3,0.1,0.4,0.2l0,0C362.2,10.6,362,10.5,361.9,10.4L361.9,10.4L361.9,10.4z M362.3,10.5
		L362.3,10.5L362.3,10.5L362.3,10.5L362.3,10.5L362.3,10.5L362.3,10.5z M362.8,10.9c0.1,0.1,0.1,0.2,0.2,0.2
		C362.9,11,362.9,10.9,362.8,10.9L362.8,10.9L362.8,10.9z M369.9,187.8L369.9,187.8C369.9,187.8,370,187.8,369.9,187.8
		C370,187.8,369.9,187.8,369.9,187.8L369.9,187.8L369.9,187.8z M325.3,287c0.1,0,0.2,0.1,0.3,0.1C325.4,287,325.4,287,325.3,287
		L325.3,287L325.3,287z"/>
	<path class="st0" d="M272.5,39.5L272.5,39.5C272.6,39.6,272.6,39.6,272.5,39.5L272.5,39.5L272.5,39.5L272.5,39.5z"/>
	<path class="st0" d="M272.2,39.6c0.1,0,0.3,0.1,0.4,0.2l0,0C272.4,39.7,272.3,39.6,272.2,39.6L272.2,39.6L272.2,39.6z"/>
	<polygon class="st0" points="272.6,39.6 272.6,39.6 272.6,39.6 272.6,39.6 272.6,39.6 272.6,39.6 	"/>
	<path class="st0" d="M273.1,40c0.1,0.1,0.1,0.2,0.2,0.2C273.2,40.1,273.1,40.1,273.1,40L273.1,40L273.1,40z"/>
	<polygon class="st0" points="280.2,216.9 280.2,216.9 280.2,216.9 280.2,216.9 280.2,216.9 	"/>
	<path class="st0" d="M235.5,316.1c0.1,0,0.2,0.1,0.3,0.1C235.7,316.2,235.6,316.1,235.5,316.1L235.5,316.1L235.5,316.1z"/>
	<path class="st1" d="M99.2,7.7c-3.3,0-6.5,0-9.8,0C71.5,7.9,64.7,14.1,66,32.2c2.1,29.6,4.2,59.1,6.4,88.7
		c1.8,25.4-0.3,55.4,7.8,79.5c0.1,0.3,0.2,0.6,0.3,0.8c-1.2-3.3-35.6,0.6-39.3,0.8c-7.9,0.4-45.5,0-28.3,15
		c18.1,15.8,35.5,32.3,52.2,49.6c10.8,11.2,29.9,45.2,46.4,29.9c12.5-11.6,24.5-23.7,36.4-36c19.3-20,37.3-41.4,55.7-62.2
		c15.4-17.3-50.7-6.5-58.6-3.6c-0.5-36.2,0.5-72.5,1.1-108.8c0.3-18.1,0.7-36.3,1.1-54.4c0.4-16.8-1.2-22.1-19.4-23.1
		C118.3,8,108.7,7.8,99.2,7.7z"/>
	<path class="st1" d="M333.1,3.1c-3.3,0-6.5,0-9.8,0c-17.9,0.2-24.7,6.4-23.4,24.5c2.1,29.6,4.2,59.1,6.4,88.7
		c1.8,25.4-0.3,55.4,7.8,79.5c0.1,0.3,0.2,0.6,0.3,0.8c-1.2-3.3-35.6,0.6-39.3,0.8c-7.9,0.4-45.5,0-28.3,15
		c18.1,15.8,35.5,32.3,52.2,49.6c10.8,11.2,29.9,45.2,46.4,29.9c12.5-11.6,24.5-23.7,36.4-36c19.3-20,37.3-41.4,55.7-62.2
		c15.4-17.3-50.7-6.5-58.6-3.6c-0.5-36.2,0.5-72.5,1.1-108.8c0.3-18.1,0.7-36.3,1.1-54.4c0.4-16.8-1.2-22.1-19.4-23.1
		C352.2,3.4,342.6,3.2,333.1,3.1z"/>
	<path class="st2" d="M115.1,7.5c-11.2-0.1-22.5,0.3-33.7,1c-15.6,1-1.7,78.7-0.7,91.2c2.5,32.9,5.6,65.7,9.4,98.5
		c0.2,1.4,0.3,2.8-0.2,4c-1.3,3.2-5.9,3.8-9.6,3.9c-19.7,0.6-45.9-8-63.2,4.1c25.6,25.6,52.7,49.9,79.9,74.1
		c1.9,1.7,3.9,3.4,6.4,4.3c17.6,5.9,39-28,48.7-37.3c11.6-11.1,23-22.5,34.1-34.2c2.5-2.6,20.9-26.6,24.7-25.8
		c-16.7-3.5-35.5,3.1-52,6.1c-3.4,0.6-7.4,1.1-9.8-1.1c-1.7-1.5-2.1-3.8-2.4-5.9c-4.9-34.4-3.6-69.3-1.7-103.8
		c0.9-16.5,16.2-77.5-10.4-78.7C128.1,7.7,121.6,7.5,115.1,7.5z"/>
	<path class="st2" d="M347.9,7.4c-11.2-0.1-22.5,0.3-33.7,1c-15.6,1-1.7,78.7-0.7,91.2c2.5,32.9,5.6,65.7,9.4,98.5
		c0.2,1.4,0.3,2.8-0.2,4c-1.3,3.2-5.9,3.8-9.6,3.9c-19.7,0.6-45.9-8-63.2,4.1c25.6,25.6,52.7,49.9,79.9,74.1
		c1.9,1.7,3.9,3.4,6.4,4.3c17.6,5.9,39-28,48.7-37.3c11.6-11.1,23-22.5,34.1-34.2c2.5-2.6,20.9-26.6,24.7-25.8
		c-16.7-3.5-35.5,3.1-52,6.1c-3.4,0.6-7.4,1.1-9.8-1.1c-1.7-1.5-2.1-3.8-2.4-5.9c-4.9-34.4-3.6-69.3-1.7-103.8
		C378.7,70,394,9,367.4,7.8C360.8,7.5,354.4,7.4,347.9,7.4z"/>
	<path class="st3" d="M127,142.9c-5.7,1.3-11.6,2.5-17.1,4.5c-4.2,1.3-13.2,3-15.6,7.1c-2,3.6,0.3,8.6,1.4,12.2
		c2.7,9.2,5.1,18.5,7.1,27.8c2,9.3,2.9,19,5.5,28.1c0.4,1.3,0.8,2.6,1.4,3.9c0.3,0.7,0.6,1.3,1,1.8c2.1,2.8,5.3,2.2,8.2,1.1
		c4.5-1.6,8.9-3.5,13.2-5.6c3.8-1.8,8.9-3.7,11.7-6.9l0.1-0.1c0,0,0,0,0,0c1.4-1.6,1-3.6,0.5-5.6c-0.6-2.6-1.2-5.3-1.8-7.9
		c-0.9-4.1-2.2-11.1-7.8-10.5c-2.8,0.3-5.1,2.7-8,2.7c-2.9,0-4.1-2.2-1.3-3.8c2.6-1.6,5.8-2.8,7.9-5.1c2.4-2.7,1.3-5.9-0.4-8.6
		c-1.1-1.8-2.2-3.4-2.9-5.5c-0.6-1.8-1.3-2.8-3.4-2.2c-1.3,0.4-13.1,4.3-13.1,5.4c-0.1-1.9-0.2-3.7-0.3-5.6c0-0.5,0-1,0.2-1.5
		c1.1-2.1,5.7-3.2,7.7-3.8c2.4-0.8,9.5-0.9,10.5-3.4c0.3-0.8,0.1-1.7,0-2.5c-1.2-5.4-2.6-11-4.4-16.3
		C127.2,142.9,127.1,142.9,127,142.9z"/>
	<path class="st3" d="M184.3,162.2c-0.6,0-1.1,0.1-1.7,0.4c-4,1.6-7.8,3.7-11.7,5.6c-0.9,0.4-1.7,0.9-2.4,1.6
		c-1.3,1.4-1.3,3.5-1.1,5.4c0.3,2,0.6,3.9,0.4,5.9c-4.3-1.1-7.2-5.7-10.7-8.2c-2.1-1.5-3.7-1.3-5.8,0.1c-3,2-7.3,3.2-9.6,6
		c-2.6,3.2,0.6,6.1,3,8.1c2.8,2.4,6,4.4,8.6,7.1c0.7,0.7,1.3,1.4,1.7,2.3c0.3,0.8,0.3,1.6,0.4,2.5c0.1,3.1,0.1,6.2,0.1,9.4
		c0,2.3-0.1,4.8,0.5,7.1c0.4,1.3,0.8,2.7,1.7,3.6c1.6,1.6,3.7,0.8,5.4-0.1c3-1.6,7.2-3,9.7-5.2c1.3-1.1,1.9-2.7,2.1-4.3
		c0.2-1.5-0.2-3.4,0.3-4.7c2,0.4,3.7,2.3,5.3,3.5c2.3,1.8,5,3.3,7.9,1.7c2.2-1.2,3.8-3.3,5.3-5.2c1.5-1.9,4.2-4.6,3.7-7.3
		c-0.2-1.3-1.2-2.4-2.3-3.2c-2.7-2.3-6-4-8.7-6.2c-0.8-0.7-1.7-1.5-2-2.6c-0.4-1.5,0.2-3,0.7-4.4
		C186.1,177.6,191.2,162.1,184.3,162.2z"/>
	<path class="st3" d="M143.2,177.3C143.2,177.3,143.2,177.3,143.2,177.3c0.3-0.2,0.7-0.4,1.1-0.5
		C143.9,176.9,143.6,177.1,143.2,177.3L143.2,177.3L143.2,177.3z"/>
	<path class="st3" d="M221.2,158.3c-6.4-2-13.5,0.6-19.3,3.3c-3,1.5-4.4,2.3-3.8,5.9c0.5,2.9,2,5.4,2.9,8.2
		c1.4,4.5,2.7,9.1,3.7,13.7c3.2,13.6,5.1,27.6,8.2,41.2c0.5,2,1.3,4.7,3.8,4.7c1.2,0,2.3-0.5,3.3-0.9c1.8-0.8,3.6-1.4,5.4-2
		c1.1-0.4,2.3-0.7,3.2-1.4c4.2-3-0.2-11.8-1.5-15.5c-2-5.9-4.5-11.5-7.4-17c4.1-1.7,8.1-3.8,11.4-7c2.8-2.7,4.9-6.2,5.4-10
		c0.5-3.1-0.1-6.4-1.2-9.4C233.1,166.3,227.6,160.4,221.2,158.3z M212.4,178.8c-0.2-0.3-0.3-0.7-0.5-1l0,0c-0.2-0.4-0.3-0.8-0.5-1.2
		c-0.3-0.9-0.6-1.8-0.9-2.7c0.1,0,0.3-0.1,0.4-0.1c0.9-0.3,1.8-0.4,2.6-0.5c0.5,0,0.9,0,1.3,0.1l0.1,0c0.2,0.1,0.3,0.2,0.4,0.3
		c0.4,0.4,0.7,0.7,0.9,1c0.1,0.1,0.1,0.3,0.2,0.4c0,0.1,0.1,0.3,0.1,0.5c0,0.2,0,0.5,0,0.7c0,0.2-0.1,0.3-0.2,0.4
		c0,0-0.1,0.1-0.1,0.1c-0.1,0.1-0.2,0.2-0.3,0.3c-0.4,0.3-0.9,0.4-1.3,0.6l-0.2,0c-0.5,0.1-1,0.3-1.5,0.6c-0.2,0.1-0.4,0.3-0.5,0.4
		C212.4,178.7,212.4,178.7,212.4,178.8L212.4,178.8L212.4,178.8z"/>
	<path class="st3" d="M263.2,139.3c-4-1.3-8.6-1.1-12.6-0.4c-5.4,1-11.1,3.3-15.5,6.7c-0.6,0.5-1.2,1.1-1.6,1.7
		c-0.8,1.2-1.6,2.9-1.5,4.3c0.1,1,0.5,2,0.9,3c0.6,1.4,1.1,2.8,1.7,4.2c1.7,4.1,3.5,2.9,5.9,0.2c1.3-1.5,3.1-2.5,4.9-3.2
		c2.3-0.9,5-1.3,7.2-0.1c2.4,1.4,3.5,4.3,4.3,7c0.5,1.8,1.3,3.6,1.6,5.5c-6.1,1.3-11.3,2.2-15.8,7.2c-1.5,1.7-2.8,3.7-3.4,5.9
		c-0.6,2.2-0.5,4.7,0.6,6.7c3,5.8,9,5,14,2.5c2.5-1.2,4.8-2.8,7.1-4.4c1.6-1.2,1.6-1.6,3-0.5c2.5,2,3.2,4.3,6.8,3.4
		c3.4-0.8,6.5-2.5,9.2-4.8c0.3-0.3,0.7-0.6,0.9-1c0.8-1.6-0.7-3.5-1.1-5.1c-0.6-2.5-1.1-5.1-1.5-7.6c-1-5.3-1.8-10.6-3.3-15.7
		c-1.5-5-3.9-11.1-8.5-14C265.3,140.1,264.3,139.6,263.2,139.3z M250.8,179.6L250.8,179.6c0.2,0.1,0.4,0.1,0.5,0c0,0,0.1,0,0.1-0.1
		c0.2,0,0.3-0.1,0.5-0.1c0.1,0,0.2,0,0.2,0c0,0,0,0,0.1,0c0,0,0,0,0,0.1c0,0,0,0.1-0.1,0.1c-0.2,0.3-0.5,0.7-0.7,1
		c-0.2,0.2-0.4,0.3-0.6,0.5c-0.2,0.1-0.3,0.2-0.5,0.3c-0.2,0.1-0.4,0.2-0.5,0.2c-0.2,0.1-0.3,0.1-0.5,0.1c-0.1,0-0.3,0-0.4,0
		c-0.1,0-0.1,0-0.2-0.1c0,0-0.1,0-0.1,0c-0.1,0-0.1-0.1-0.2-0.1c-0.1-0.1-0.1-0.1-0.1-0.2c0,0,0,0,0-0.1c0,0,0,0,0-0.1
		c0-0.1,0-0.1,0-0.2c0-0.2,0.1-0.3,0.2-0.5c0.1-0.3,0.3-0.5,0.5-0.8c0.2-0.2,0.3-0.3,0.5-0.4c0.2-0.1,0.3-0.2,0.5-0.3
		c0.1,0,0.1,0,0.2,0c0,0.1,0,0.2,0.1,0.2C250.5,179.4,250.6,179.5,250.8,179.6L250.8,179.6L250.8,179.6z"/>
	<path class="st3" d="M303.5,128c-0.5-0.2-1.1-0.3-1.7-0.4c-1.6-0.2-3.3,0.2-4.8,0.9c-2.3,1-4.1,2.5-5.5,4.6c-1.3,1.9-1.8,5-3.3,6.5
		c-0.8-1.6-1.3-3.4-2.5-4.9c-2.6-3.2-7-1.9-10.2-0.4c-4.9,2.1-4.5,3.9-3.1,8.8c1.1,4,2.3,8,3.5,12c2.5,8.1,5.4,16.2,8.5,24.1
		c0.8,2,1.6,4.6,3.9,5.1c2.4,0.5,5.1-0.6,7.2-1.8c2.6-1.5,2.9-3.3,2.1-6.2c-0.9-3.5-1.9-6.9-2.8-10.4c-0.4-1.6-0.8-3.1-0.8-4.8
		c0.1-1.7,1.1-4.4,3.1-4.7c2.5-0.3,5.1,3.6,6.2,5.4c2.4,3.8,4,8.1,4.7,12.6c0.3,1.7,0.4,3.6,1.5,5c2.3,3.2,8.7-0.5,11.4-1.7
		c4.5-1.8,4.2-4.5,2.6-8.5c-2.2-5.6-4.4-11.3-6.6-16.9c-1.7-4.3-3.3-8.5-5.2-12.7C310.1,135.7,308.1,129.6,303.5,128z"/>
	<path class="st3" d="M336.2,61.3c-0.3-0.1-0.6-0.2-0.9-0.2c-1.8,0-4,1.7-5.7,2.4c-0.3,0.1-0.5,0.2-0.8,0.3
		c-0.3,0.1-0.7,0.3-1.1,0.5c-0.2,0.1-0.3,0.2-0.5,0.3c0,0,0,0,0,0c-3.7,2.4-1.4,7.7-0.2,10.9c5.4,15,6.7,31.3,11.2,46.6
		c-3-1.1-6.4-0.4-9.2,1c-5.8,3-9.8,9-10.7,15.4c-0.9,6.4,1,13.1,4.9,18.3c2.9,3.8,6.9,6.9,11.5,8.3c4.6,1.4,9.8,0.8,13.8-1.8
		c-1,0.6,3.2,3.6,3.8,3.6c0.8,0.1,1.7-0.1,2.5-0.3c1.4-0.3,2.8-0.7,4.1-1c0.8-0.2,1.6-0.5,2.2-1c2.6-2.5,0.5-8.2-0.1-11.2
		c-0.8-4.6-2-9.2-3.3-13.8c-3.5-13-6.9-25.9-10.2-38.9c-1.7-6.5-3.3-13-4.9-19.5c-0.8-3.3-1.6-6.5-2.4-9.8c-0.6-2.6-1-6.1-2.2-8.5
		C337.6,62.3,336.9,61.7,336.2,61.3z M334.5,146.5L334.5,146.5c-0.2-0.1-0.3-0.1-0.5-0.2c-0.2-0.1-0.4-0.3-0.6-0.4
		c-0.1-0.1-0.2-0.2-0.2-0.3c0-0.1-0.1-0.1-0.1-0.2c0-0.1,0-0.3-0.1-0.4c0-0.5,0-0.9,0.1-1.3c0.1-0.3,0.2-0.5,0.3-0.7
		c0.1-0.1,0.1-0.2,0.2-0.3c0.2-0.2,0.3-0.3,0.5-0.4c0.3-0.2,0.7-0.4,1-0.5c0.1,0,0.1,0,0.2,0c0.1,0.2,0.1,0.3,0.2,0.4
		c0.1,0.3,0.3,0.6,0.5,0.8c0.3,0.4,0.5,0.9,0.7,1.4c0,0.1,0.1,0.3,0.1,0.4c0,0.1,0,0.2,0,0.2c-0.1,0.2-0.1,0.3-0.2,0.5
		c-0.1,0.1-0.1,0.2-0.2,0.3c-0.4,0.3-0.9,0.5-1.4,0.6C334.9,146.4,334.7,146.4,334.5,146.5C334.6,146.5,334.5,146.5,334.5,146.5
		L334.5,146.5L334.5,146.5z"/>
</g>
<g id="Layer_2">
</g>
</svg>
