<?xml version="1.0" encoding="utf-8"?>
<!-- Generator: Adobe Illustrator 22.1.0, SVG Export Plug-In . SVG Version: 6.00 Build 0)  -->
<svg version="1.1" id="Layer_1" xmlns="http://www.w3.org/2000/svg" xmlns:xlink="http://www.w3.org/1999/xlink" x="0px" y="0px"
	 viewBox="0 0 569.8 431.8" style="enable-background:new 0 0 569.8 431.8;" xml:space="preserve">
<style type="text/css">
	.st0{fill:#404040;}
	.st1{fill:#F7BFDB;}
	.st2{fill:#FF66B6;}
</style>
<path class="st0" d="M20,351l-8.2-1.2C14.3,350.8,17.3,351.2,20,351z"/>
<path class="st0" d="M26.3,350.9c0.2-0.1,0.5-0.2,0.7-0.3c1.1-0.4,2.3-0.4,3.4-0.4c54.6,0,109.2,1.8,163.7,3
	c25.2,0.6,50.5,1,75.7,1.2c54.6,0.4,109.2-0.5,163.6-5c12-1,24-2.2,36-3.5c6-0.7,12-1.4,18-2.2c2.4-0.3,14.7-3.6,16.3-1.8
	c0.2,0.3,0.3,0.6,0.6,0.8c0.3,0.2,0.7,0.1,1,0.1c2.5-0.5,4.9-1,7.4-1.6c-0.2-1.5,1.5-2.4,2.8-3.2c4-2.4,5.3-6.6,5.5-11
	c0-0.7,0.1-1.3,0.1-2c0.1-1.3,0-2.5,0-3.9c0-2.1-0.1-4.2-0.2-6.3l0-1.2c-0.1-2.3-0.1-4.6-0.2-7l0-0.2c-0.2-7.7-0.5-16.4-0.5-24.9
	c0-11.8,0.1-22.8,0.3-33.7c0.1-4.1,0.2-8.3,0.3-12.3l0.1-3.5c0.1-6.1,0.2-11.9,0.3-17.6c0.1-10.2,0-21,0-30.3l0-4.2l0-2.2v-0.1v-0.1
	c0-20.2-0.1-41.1-0.8-61.7l-0.3-8.1l-0.3-8.1c0-1.2-0.1-2.3-0.1-3.5l-0.1-1.7c-0.1-3.8-0.2-7.8-0.4-11.6c-0.1-1.7-0.2-3.4-0.2-5
	c-0.1-3.2-0.3-7.5-0.6-11.6c-0.2-3.7-0.5-7.3-0.7-11c-0.2-2.8-0.4-5.6-0.8-8.4c-0.3-2.9-1.1-5.8-1.1-8.7c0-4.2,2.1-13.4-3.6-15.1
	c-9.9-2.8-23.1-1.5-33.3-2c-81.2-4-162.5-7.4-243.9-8.4c-32.1-0.4-64.1,0.5-96.2,0.5c-23.2-1.2-46.6-3.4-69.6-7.3
	C52.6,3.1,35-2.3,18.1,1.1c-7.7,1.6-13.4,5.4-14.6,13C-2.1,50.3,0.2,88.6,2,124.9c1.9,37.5,5.1,74.8,7.2,112.3
	c1,17.9,1.5,35.9,0.9,53.8c-0.3,9.2-0.9,18.3-1.8,27.4c-0.4,4.5-1,9-1.6,13.4c-0.7,5.4-2.7,13.2,3,16.6c1.8,1.1,3.8,1.5,5.8,1.8
	c2.7,0.5,5.4,0.8,8.2,0.9c0.7,0,1.4,0.1,2-0.1C25.9,351.1,26.1,351,26.3,350.9z"/>
<path class="st1" d="M134.5,37.3c-3.3,0-6.5,0-9.8,0c-17.9,0.2-24.7,6.4-23.4,24.5c2.1,29.6,4.2,59.1,6.4,88.7
	c1.8,25.4-0.3,55.4,7.8,79.5c0.1,0.3,0.2,0.6,0.3,0.8c-1.2-3.3-35.6,0.6-39.3,0.8c-7.9,0.4-45.5,0-28.3,15
	c18.1,15.8,35.5,32.3,52.2,49.6c10.8,11.2,29.9,45.2,46.4,29.9c12.5-11.6,24.5-23.7,36.4-36c19.3-20,37.3-41.4,55.7-62.2
	c15.4-17.3-50.7-6.5-58.6-3.6c-0.5-36.2,0.5-72.5,1.1-108.8c0.3-18.1,0.7-36.3,1.1-54.4c0.4-16.8-1.2-22.1-19.4-23.1
	C153.6,37.6,144,37.4,134.5,37.3z M120.1,235.1c1.9-1.6,2.8-3.7,2.5-6.4c-5.9-53.6-10-107.5-12.2-161.4c-0.8-20.4,11.3-24,29.2-24.2
	c10.7-0.1,29.3-2.2,34.4,10c1.4,3.3,1.3,7.1,1.2,10.7c-0.9,32.3-1.9,64.6-2.8,96.9c-0.4,14.9-11.2,69.3,15,69.3
	c6.3,0.2,12.3-2.4,18.4-4.3c9.3-2.8,25.9-2.6,18.2,11c-2,3.5-5,6.3-7.9,9c-24,22.7-44.6,53.3-72.1,71.7c-2.7,1.8-6,3.6-9.1,2.5
	c-1.6-0.6-2.8-1.8-3.9-3c-11.6-12.1-23.6-23.9-35.4-36c-11.4-11.7-28.7-25.4-35.7-40.2C71,237.9,109.7,243.9,120.1,235.1z
	 M174.2,47.7C174.2,47.7,174.2,47.7,174.2,47.7C174.3,47.8,174.3,47.8,174.2,47.7C174.2,47.7,174.2,47.7,174.2,47.7L174.2,47.7
	L174.2,47.7z M173.9,47.8c0.1,0,0.3,0.1,0.4,0.2c0,0,0,0,0,0C174.1,47.9,174,47.8,173.9,47.8L173.9,47.8L173.9,47.8z M174.3,47.8
	C174.3,47.8,174.3,47.8,174.3,47.8L174.3,47.8C174.3,47.8,174.3,47.8,174.3,47.8C174.3,47.8,174.3,47.8,174.3,47.8L174.3,47.8
	L174.3,47.8z M174.8,48.2c0.1,0.1,0.1,0.2,0.2,0.2C174.9,48.3,174.8,48.3,174.8,48.2L174.8,48.2L174.8,48.2z M181.9,225.1
	C181.9,225.1,181.9,225.1,181.9,225.1C181.9,225.1,181.9,225.1,181.9,225.1C181.9,225.1,181.9,225.1,181.9,225.1L181.9,225.1
	L181.9,225.1z M137.2,324.3c0.1,0,0.2,0.1,0.3,0.1C137.4,324.4,137.3,324.3,137.2,324.3L137.2,324.3L137.2,324.3z"/>
<path class="st1" d="M366.3,35.2c-3.3,0-6.5,0-9.8,0c-17.9,0.2-24.7,6.4-23.4,24.5c2.1,29.6,4.2,59.1,6.4,88.7
	c1.8,25.4-0.3,55.4,7.8,79.5c0.1,0.3,0.2,0.6,0.3,0.8c-1.2-3.3-35.6,0.6-39.3,0.8c-7.9,0.4-45.5,0-28.3,15
	c18.1,15.8,35.5,32.3,52.2,49.6c10.8,11.2,29.9,45.2,46.4,29.9c12.5-11.6,24.5-23.7,36.4-36c19.3-20,37.3-41.4,55.7-62.2
	c15.4-17.3-50.7-6.5-58.6-3.6c-0.5-36.2,0.5-72.5,1.1-108.8c0.3-18.1,0.7-36.3,1.1-54.4c0.4-16.8-1.2-22.1-19.4-23.1
	C385.3,35.5,375.8,35.2,366.3,35.2z M351.8,232.9c1.9-1.6,2.8-3.7,2.5-6.4c-5.9-53.6-10-107.5-12.2-161.4
	c-0.8-20.4,11.3-24,29.2-24.2c10.7-0.1,29.3-2.2,34.4,10c1.4,3.3,1.3,7.1,1.2,10.7c-0.9,32.3-1.9,64.6-2.8,96.9
	c-0.4,14.9-11.2,69.3,15,69.3c6.3,0.2,12.3-2.4,18.4-4.3c9.3-2.8,25.9-2.6,18.2,11c-2,3.5-5,6.3-7.9,9c-24,22.7-44.6,53.3-72.1,71.7
	c-2.7,1.8-6,3.6-9.1,2.5c-1.6-0.6-2.8-1.8-3.9-3c-11.6-12.1-23.6-23.9-35.4-36c-11.4-11.7-28.7-25.4-35.7-40.2
	C302.7,235.8,341.4,241.8,351.8,232.9z M405.9,45.6C405.9,45.6,406,45.6,405.9,45.6C406,45.6,406,45.6,405.9,45.6
	C406,45.6,405.9,45.6,405.9,45.6L405.9,45.6L405.9,45.6z M405.6,45.6c0.1,0,0.3,0.1,0.4,0.2c0,0,0,0,0,0
	C405.9,45.8,405.7,45.7,405.6,45.6L405.6,45.6L405.6,45.6z M406,45.7C406,45.7,406,45.7,406,45.7L406,45.7
	C406,45.7,406,45.7,406,45.7C406,45.7,406,45.7,406,45.7L406,45.7L406,45.7z M406.5,46.1c0.1,0.1,0.1,0.2,0.2,0.2
	C406.6,46.2,406.6,46.1,406.5,46.1L406.5,46.1L406.5,46.1z M413.6,223C413.6,223,413.6,223,413.6,223C413.6,223,413.7,223,413.6,223
	C413.7,223,413.6,223,413.6,223L413.6,223L413.6,223z M369,322.2c0.1,0,0.2,0.1,0.3,0.1C369.1,322.2,369.1,322.2,369,322.2
	L369,322.2L369,322.2z"/>
<path class="st2" d="M158.8,42.7c-11.2-0.1-22.5,0.3-33.7,1c-15.6,1-1.7,78.7-0.7,91.2c2.5,32.9,5.6,65.7,9.4,98.5
	c0.2,1.4,0.3,2.8-0.2,4c-1.3,3.2-5.9,3.8-9.6,3.9c-19.7,0.6-45.9-8-63.2,4.1c25.6,25.6,52.7,49.9,79.9,74.1c1.9,1.7,3.9,3.4,6.4,4.3
	c17.6,5.9,39-28,48.7-37.3c11.6-11.1,23-22.5,34.1-34.2c2.5-2.6,20.9-26.6,24.7-25.8c-16.7-3.5-35.5,3.1-52,6.1
	c-3.4,0.6-7.4,1.1-9.8-1.1c-1.7-1.5-2.1-3.8-2.4-5.9c-4.9-34.4-3.6-69.3-1.7-103.8c0.9-16.5,16.2-77.5-10.4-78.7
	C171.8,42.9,165.3,42.7,158.8,42.7z"/>
<path class="st2" d="M391.6,42.6c-11.2-0.1-22.5,0.3-33.7,1c-15.6,1-1.7,78.7-0.7,91.2c2.5,32.9,5.6,65.7,9.4,98.5
	c0.2,1.4,0.3,2.8-0.2,4c-1.3,3.2-5.9,3.8-9.6,3.9c-19.7,0.6-45.9-8-63.2,4.1c25.6,25.6,52.7,49.9,79.9,74.1c1.9,1.7,3.9,3.4,6.4,4.3
	c17.6,5.9,39-28,48.7-37.3c11.6-11.1,23-22.5,34.1-34.2c2.5-2.6,20.9-26.6,24.7-25.8c-16.7-3.5-35.5,3.1-52,6.1
	c-3.4,0.6-7.4,1.1-9.8-1.1c-1.7-1.5-2.1-3.8-2.4-5.9c-4.9-34.4-3.6-69.3-1.7-103.8c0.9-16.5,16.2-77.5-10.4-78.7
	C404.5,42.7,398.1,42.6,391.6,42.6z"/>
</svg>
