<?xml version="1.0" encoding="utf-8"?>
<!-- Generator: Adobe Illustrator 22.1.0, SVG Export Plug-In . SVG Version: 6.00 Build 0)  -->
<svg version="1.1" id="Layer_1" xmlns="http://www.w3.org/2000/svg" xmlns:xlink="http://www.w3.org/1999/xlink" x="0px" y="0px"
	 viewBox="0 0 908.6 889.7" style="enable-background:new 0 0 908.6 889.7;" xml:space="preserve">
<style type="text/css">
	.st0{fill:#06FFFF;}
	.st1{fill:#2237FC;}
	.st2{fill:#FFB12E;}
</style>
<g id="Draw_Layer">
	<path class="st0" d="M907.3,417.8l-0.1-1c-0.4-1.3-1-2.4-1.9-3.3l-0.2-0.2c-1-1.5-2.1-3.3-3.3-4.9l-2.6-3.5l-2.6-3.6l-11.1-15.4
		c-5-6.9-10-13.8-15-20.7L864,356c-5.6-7.7-11.2-15.5-16.8-23.2l-1.4-2l-1.5-2.1l-1.3-1.8c-7.4-10.2-14.8-20.5-22.2-30.7
		c-13-17.9-26.1-35.9-39.9-54.8l-3.1-4.3l-1.2-1.6l-0.7-1l-2.6-3.5l-2.2-3l-1-1.4c-11.4-15.7-23.9-32.8-36.3-49.9l-11.3-15.6l-6.6-9
		c-11.2-15.5-23.1-31.9-34.7-47.7c-8.7-11.9-17.3-23.8-26-35.7l-12.4-17l-0.2-0.3l-3-4.1l-0.8-1.1l-0.1-0.1l-0.3-0.4l-0.2-0.3
		c-2.8-3.9-5.7-7.8-8.7-11.8c-0.7-1.2-1.7-2.1-2.8-2.8c-1.6-0.9-4.1-1.5-6.1-0.8l-3.8,1.4L613,33c-2.5,0.9-5.2,1.8-7.5,2.6l-0.3,0.1
		l-17.3,5.8l-0.4,0.1c-11.7,3.9-23.5,7.8-35.2,11.7c-10.4,3.4-20.8,6.9-32,10.5l-0.1-0.1c-2-2.9-3.5-6.1-4.8-9.2l-0.1-0.1
		c-1.4-3.4-2.8-7-4.5-10.4c-1-2.1-2.2-4.3-3.1-5.8l-0.2-0.3l-0.4-0.8l-0.7-1.2c-1.2-2.2-2.8-5.2-4.5-8.4l-0.1-0.1
		c-1.4-2.7-2.9-5.7-4.6-8.6c-2.4-4.2-4.6-7.3-7.2-9.9c-0.5-0.5-1-0.9-1.5-1.3l-0.2-0.2c-1.6-1.3-3.1-2.3-4.6-3.1
		c-0.5-0.3-1.1-0.5-1.6-0.7l-0.5-0.2c-1.8-0.8-3.2-1.3-4.6-1.7c-1.9-0.6-4-0.9-6-1.1l-0.5-0.1c-1.6-0.2-3.3-0.3-4.9-0.4
		c-3.5-0.2-6.9-0.1-10.6,0c-4.7,0.2-8.5,0.5-12.1,1.1c-2.5,0.4-4.8,1.1-7.1,1.7c-1,0.3-2,0.6-3,0.8c-6.6,1.7-13,3.4-19.5,4.3
		c-3,0.5-6.3,1-10,1.7c-2.4,0.4-4.8,1.2-7.1,2l-1.5,0.5c-2.1,0.7-4.3,1.6-6.2,2.5l-0.2,0.1c-1.8,0.8-3.4,1.9-4.9,2.9
		c-3.1,2-5.9,4.4-8.6,6.7l-0.8,0.7c-0.8,0.6-1.5,1.3-2.3,2l-0.2,0.1c-1.5,1.3-3.2,2.8-4.8,4.1c-3.4,2.4-7,4.5-11.1,6.8
		c-2.4,1.3-4.6,2.4-6.7,3.4c-2.4,1.1-5,2.2-7.5,3.5c-2.4,1.2-4.7,2.4-7,3.7c-1.5,0.8-3,1.7-4.4,2.6l-0.1,0.1l-0.1,0.1l-0.6,0.3
		l-0.5,0.3c-0.4,0.3-0.9,0.5-1.3,0.8l-0.9,0.6l-0.1,0.1c-1.9,1.1-3.8,2.2-5.6,3.4c-1.7,1.1-3.4,2.3-5.5,3.9l-0.2,0.1l-0.2,0.2
		l-0.5,0.4l0.2-0.1c-0.9,0.7-1.8,1.4-2.7,2.1l-0.1,0.1l-0.2,0.2l-1.5,1.2c-1.2,0.9-2.7,1.9-4.2,2.8c-1.7,0.9-3.6,1.8-5.9,2.9
		c-2.2,0.9-4.1,1.7-6.1,2.3c-1.9,0.7-4.1,1.3-6.7,2.1c-4.4,1.3-8.8,2.2-14.1,3.1c-2.6,0.5-5,0.9-7.2,1.4c-1.1,0.2-2.3,0.5-3.4,0.8
		h-0.1l-0.2,0.1c-0.9,0.2-1.8,0.5-2.7,0.7c-3.8,0.9-8.9,2-14,2.8c-4.1,0.5-8.4,0.7-13.2,0.7c-4.6,0-9.3-0.5-13.4-0.9
		c-1.5-0.2-3-0.5-4.5-0.7c-2.7-0.4-5.5-0.9-8.2-1.2c-6-0.8-11.4-1.5-16.5-2.1c-2-0.2-4-0.4-6-0.6c-2.8-0.3-5.3-0.5-7.9-0.8
		c-5-0.6-9.8-1.2-14.3-1.8c-3-0.4-6.4-0.8-10.2-1.2c-3.1-0.3-6.3-0.6-9.4-0.8h-0.2h-0.2l-1.1-0.1c-2.2-0.1-4.4-0.2-6.6-0.2h-0.3
		h-0.3c-1.1,0-2.1,0-3.2-0.1c-1.4,0-2.7-0.1-4.1-0.1c-2.2-0.1-4.3-0.2-6.4-0.2c-1.7,0-3.3,0.1-5.1,0.3c-2.6,0.2-4.9,0.6-7.1,1
		c-3.3,0.6-6.4,1.3-9.5,2.3c-0.7,0.2-1.5,0.5-2.2,0.7l-1,0.3l-0.2,0.1c-2.1,0.7-4.2,1.3-6.2,2c-3.3,1.1-6.8,2.6-11.1,4.8
		c-3,1.5-6.3,3.2-9.2,5.4c-1.6,1.2-3.5,2.7-5.3,4.3c-1.2,1-2.3,2.2-3.4,3.3L58.8,99c-0.9,0.9-2.1,2.2-3.2,3.4
		c-1.5,1.7-2.9,3.4-4.6,5.7c-0.8,1.1-1.6,2.3-2.5,3.7c-1.2,2-2.1,4.3-3,6.3c-1.6,3.8-2.1,7.7-2.6,12.1c-0.2,1.5-0.3,3.1-0.3,4.9
		c0,1.5,0.1,3.1,0.2,5.2c0.1,2.1,0.4,4.3,0.6,6.4v0.4c0.4,4,0.8,8.1,0.8,12.3c0,0.4,0,0.9,0,1.3c-0.1,3.7-0.3,7.3-0.7,10.6
		c-0.2,2.2-0.5,4.4-0.7,6.3l-0.1,0.6v0.2v0.2c-0.2,1.2-0.3,2.4-0.5,3.6c-0.9,7.4-1.3,13.9-1.3,20c0,0.4,0,0.9,0,1.3
		c0.1,7.7,0.3,14.8,0.7,21.6c0,0.5,0.1,1,0.1,1.5v0.7v0.7c0.1,2.4,0.3,5.1,0.3,7.7c0,1.5,0,3,0,4.6v5.1v1.9v4.3
		c0,12.7,0,25.9-0.8,38.8c-0.3,5.4-0.9,10.9-1.5,16.2l-0.1,1.1l-0.1,1.2c-0.1,1.1-0.2,2.2-0.4,3.3c-0.2,1.9-0.4,3.9-0.6,5.8
		l-0.1,0.7c-0.5,5-1.1,10.1-1.6,15.1c-0.1,1.4-0.3,2.9-0.4,4.3c-0.1,1.3-0.3,2.5-0.4,3.8c-0.1,1.2-0.2,2.4-0.3,3.6
		c-0.1,1.7-0.3,3.4-0.4,5l-0.5,4.7c-0.4,3.7-0.8,8-1.3,12.1c-0.4,2.5-0.7,5.1-1,7.6c-1.1,8.4-1.9,15.1-2.4,21.1l-0.1,1.5v0.3
		c-0.5,5.8-1.1,12.4-1.8,18.8c-0.4,2.6-0.7,5.3-1.1,7.9c-1.2,8.1-2.2,14.2-3.4,19.9c-1.3,6.4-2.9,13-4.2,18.9l-0.4,1.8
		c-1.5,6.4-3.1,13-5,19.6l-0.6,2.3l-0.5,1.6c-0.6,2-1.2,4.1-1.7,6.1c-0.8,2.9-1.6,5.9-2.3,8.8v0.2L8.9,504l-0.3,1.3l-0.5,1.8l-0.1,0
		c-1.1,4.2-2.2,9-3.6,13.5c-0.3,1-0.6,2-0.9,3c-0.5,1.5-0.9,2.8-1.2,4.1c-0.8,2.8-1.4,5.9-1.9,9.7C0.1,539.3,0,541,0,542.5
		c0,0.8,0,1.8,0.1,2.8c0.2,2,0.5,4.3,1.2,6.5c1.4,4.3,4.3,7.7,8.1,9.4c1.5,0.7,2.9,1.3,4.3,1.6c0.7,0.1,1.3,0.2,1.9,0.3
		c2,0.3,4,0.5,6.2,0.6c2,0.1,4.1,0.3,6.5,0.5c-0.2,0.3-0.4,0.7-0.6,1.1c-0.5,0.9-1.1,2.4-1.4,3.2c-0.8,2.2-1.2,4.6-1.2,7.4
		c0,1.2,0.2,2.3,0.4,3.4c0.1,0.5,0.2,0.9,0.2,1.3c0.1,0.6,0.2,1.3,0.5,2c0.9,3.3,2.2,6.1,3.8,8.3c1.2,1.7,2.4,3.2,3.6,4.6
		c1.1,1.4,2.6,2.5,4,3.5l0.4,0.3c2.2,1.7,4.8,2.8,7.3,3.8c2,0.8,4.3,1.7,6.8,2.1c3.1,0.5,6.3,0.8,9.8,0.9c2.4,0.1,4.8,0.2,7.2,0.5
		c1.9,0.3,3.5,0.7,5.1,1.2c2,1,3.9,2.2,5.8,3.5c1.8,1.6,3.4,3.4,4.5,4.8c3.7,5,7,11,10.2,18.1c1,2.4,1.9,4.9,2.9,7.7v0.1
		c1,2.8,2.1,5.7,3.3,8.5c2.8,6.8,6,13.3,9.6,19.3c1.7,2.8,3.6,5.4,5.7,8.2c2.6,3.5,5.2,6.5,7.9,9.2c2.1,2.1,4.4,4.1,6.5,5.9l0.8,0.7
		c2.8,2.5,5.7,4.6,8.7,6.4c2.3,1.4,4.7,2.5,7,3.7l0.1,0.1l1.6,0.8c3.7,1.8,7.5,3.3,10.3,4.5c2.7,1.1,5.7,2,9.1,2.9
		c3.3,0.9,6.6,1.7,10,2.2c4,0.6,8.2,1.2,12.4,1.7c1.8,0.2,3.6,0.4,5.3,0.5c1.6,0.1,3.2,0.3,4.8,0.5c3.9,0.4,7.8,0.6,10.9,0.8
		c2.8,0.1,5.6,0.1,8.3,0.1c0.7,0,1.5,0,2.2,0c4.4,0,9-0.1,13.8-0.2c4.8-0.1,8.9-0.2,13-0.7c3.4-0.3,6.1-0.7,8.7-1.2
		c2.2-0.4,4.5-1.3,7.4-2.7c3.4-1.7,6.3-3.9,8.9-5.9c1.7-1.2,3.7-2.2,5.3-3.1l0.1-0.1c0.8-0.4,1.6-0.9,2.4-1.3
		c2.1-1.2,3.8-2.5,5.1-3.9l12.3,4l12.4,4c18.8,6.2,38.2,12.4,55.3,17.9l10.7,3.5c19.5,6.3,40,13,56.5,18.4l1.4,0.5l2.3,0.8l2.3,0.8
		l2.5,0.8l3.6,1.2c33.3,10.9,66.6,21.8,100,32.6l6.9,2.3l7,2.3l7.2,2.4l53.5,17.4c2.6,0.8,6.1-0.1,7.8-2l0.2-0.2l0.1-0.1l0.1-0.1
		c1.8-2.1,3.7-4.3,5.3-6.5l2.5-3.4l2.9-4l5.8-7.9l5.9-8.1c5.7-7.8,11.4-15.7,17.2-23.5l0.2-0.2l3.8-5.3c14.3-19.6,28.7-39.3,43-59
		c30.6-42.1,61.5-84.9,86.4-119.2l0.4-0.6l1.2-1.7c32.3-44.7,66-91.4,103.1-143c0.7-1.2,1.1-2.5,1.1-3.9l0,0L907.3,417.8z
		 M750.5,610.9c3-2,3-7,6-9C753.5,603.9,753.5,608.9,750.5,610.9z M836.5,493.9c-20,27-37,51-54,80c-3,6-11,8-16,14c5-6,13-8,16-14
		C799.5,544.9,816.5,520.9,836.5,493.9c9-11,18-22,25-34C854.5,471.9,845.5,482.9,836.5,493.9z M866.5,392.9c-3-2-1-8-4-11
		c-9-12-15-23-24-33c-3-3-6-6-9-10c-2-1-3-5-4-8s-5-4-6-7c-7-8-11-17-17-26c-20-24-35-48-54-72c19,24,34,48,54,72c6,9,10,18,17,26
		c1,3,5,4,6,7s2,7,4,8c3,4,6,7,9,10c9,10,15,21,24,33C865.5,384.9,863.5,390.9,866.5,392.9c2,1,3,3,5,4
		C869.5,395.9,868.5,393.9,866.5,392.9z"/>
</g>
<g id="Draw_Layer_1_">
	<path d="M899.9,418.7c-4.7-6.4-9.4-12.9-14-19.3l0,0c0-0.1,0-0.2,0-0.3c-29.5-40.7-59-81.4-88.5-122
		c-29.4-40.5-58.8-80.9-88.2-121.4c-6.3-8.6-12.5-17.2-18.8-25.9l0,0l0,0C668,99,645.7,68.3,623.3,37.5c0-0.1-0.1-0.1-0.2-0.2
		c-0.1-0.1-0.3-0.1-0.4-0.1c-20.2,6.6-40.5,13.1-60.7,19.7c0.5,0.2,1,0.4,1.4,0.6c19.7-6.4,39.5-12.8,59.2-19.2
		c22.3,30.7,44.6,61.4,66.9,92.1l0,0c28.7,39.4,57.3,78.9,86,118.3c29.4,40.5,58.8,81,88.3,121.4c7.1,9.8,14.2,19.5,21.3,29.3
		c0.1,0.1,0.1,0.2,0.2,0.2h0.1c4.6,6.4,9.3,12.8,13.9,19.2c-3.4,4.7-6.8,9.3-10.2,14s-6.8,9.3-10.2,14c-6.6,9.1-13.2,18.1-19.8,27.2
		c-6.9,9.4-13.8,18.9-20.7,28.4c-7.1,9.8-14.3,19.6-21.4,29.4c-29.3,40.3-58.6,80.6-87.9,121c-35.5,48.9-71,97.8-106.6,146.6
		c-93.4-30.3-186.7-60.7-280.1-91c-55.8-18.1-111.5-36.2-167.3-54.4c0-18.4,0-36.8,0-55.2c-0.3-0.1-0.6-0.1-0.9-0.2h-0.1
		c0,18.6,0,37.2,0,55.8c0,0.2,0.2,0.4,0.4,0.5c94.8,30.8,189.6,61.6,284.4,92.4c54.6,17.7,109.1,35.4,163.7,53.2c0.1,0,0.2,0,0.3,0
		s0.2-0.1,0.3-0.2c58.1-80,116.3-160,174.3-240c17.6-24.2,35.1-48.4,52.7-72.6c8.2-11.3,16.3-22.5,24.4-33.8
		c3.9-5.4,7.9-10.8,11.8-16.3c4.5-6.2,9-12.3,13.4-18.5V419L899.9,418.7z"/>
	<path d="M174.2,471.9c0,2.1,0,4.2,0,6.2c0,22.5,0,44.9,0,67.4c0.3-0.3,0.7-0.5,1-0.8c0-24.1,0-48.2,0-72.3
		C174.9,472.3,174.5,472.1,174.2,471.9L174.2,471.9L174.2,471.9z"/>
	<path d="M907.4,414.3c-59-81.2-117.9-162.3-176.9-243.5c-33.3-45.9-66.7-91.7-100-137.6c-0.8-1.4-1.9-2.4-3.2-3.2
		c-2-1.2-4.7-1.6-6.9-0.9C596,37,571.7,44.9,547.3,52.8c0.7,0.1,1.3,0.2,2,0.4c6.3,1.2,12.3,3.5,18.2,6.1c2.1,1,4.2,1.9,6,3.4
		c0.1,0.1,0.3,0.2,0.4,0.3c15.1-4.9,30.3-9.8,45.4-14.8c56.6,77.9,113.1,155.7,169.7,233.6c7.5,10.3,15,20.6,22.5,31
		c-3-4.9-5.7-9.9-9.1-14.9c-20-24-35-48-54-72c19,24,34,48,54,72c3.4,5,6.1,10.1,9.1,14.9c3.4,4.6,6.7,9.3,10.1,13.9
		c1.5,1.3,3.2,2.3,3.8,4.2c0.2,0.6,0.4,1.3,0.6,2c3.2,4.4,6.4,8.8,9.6,13.3c0.9,0.9,1.8,1.9,2.7,2.8c9,10,15,21,24,33
		c0.9,0.9,1.3,2,1.6,3.2c8.2,11.2,16.3,22.5,24.5,33.7c-27.6,38-55.2,75.9-82.8,114c-29.4,40.6-58.6,81.3-88,122
		c-32.7,45.2-65.3,90.4-98.2,135.5c-93.8-30.7-187.7-61.3-281.6-91.9C286.5,681.6,235,664.9,183.4,648c0-6.4,0-12.9,0-19.3
		c0-1.6,0-3.2,0-4.8c0-8.4,0-16.9,0-25.3c-3,0.8-6.2,0.7-9.2-0.1c-3.2-0.9-6.1-2.7-8.4-5.1c0,4.1,0,8.1,0,12.2c0,16.2,0,32.4,0,48.6
		c0,1.6,0.4,3.1,1.2,4.4c1.2,2,3,3.3,5.2,4c46.7,15,93.3,30.2,139.9,45.3c47.5,15.4,94.9,30.7,142.4,46.1
		c55.3,17.9,110.6,35.8,165.8,53.7c1.5,0.4,2.9,0.4,4.4,0c0.7-0.3,1.3-0.6,2-0.8c1.2-0.7,2.2-1.7,2.9-3
		c58.5-80.8,117.5-161.2,176.4-241.6c33.9-46.3,67.5-92.7,101.2-139.1c0.8-1.4,1.2-2.9,1.2-4.5C908.6,417.2,908.2,415.7,907.4,414.3
		z M750.5,610.9c3-2,3-7,6-9C753.5,603.9,753.5,608.9,750.5,610.9z M836.5,493.9c-20,27-37,51-54,80c-3,6-11,8-16,14c5-6,13-8,16-14
		C799.5,544.9,816.5,520.9,836.5,493.9c9-11,18-22,25-34C854.5,471.9,845.5,482.9,836.5,493.9z"/>
	<path d="M821.7,326.7c1.5,2.1,3,4.1,4.5,6.2c-0.2-0.7-0.4-1.4-0.6-2C824.9,329.1,823.1,328,821.7,326.7z"/>
	<path d="M838.5,348.9c-0.9-0.9-1.8-1.8-2.7-2.8c9.4,13,18.9,26,28.3,39c-0.3-1.2-0.7-2.3-1.6-3.2
		C853.5,369.9,847.5,358.9,838.5,348.9z"/>
	<path d="M179.4,523.6c-0.3-7.4-0.6-14.9-0.7-22.3c-0.1-9.2,0-18.4,0.4-27.6c-0.4-0.1-0.8-0.2-1.2-0.3c-4.5-1.2-8.4-4.2-10.8-8.3
		c-0.5-0.8-0.9-1.6-1.2-2.5c0,6.6,0,13.2,0,19.8c0,24.6,0,49.3,0,73.9c0.5-1.3,1.2-2.6,2-3.8c1.4-1.9,2.7-3.9,4.4-5.5
		c1.6-1.4,3.4-2.9,5.1-4c1.1-0.8,2.3-1.5,3.5-2.1c0.1-0.1,0.2-0.1,0.3-0.1C180.3,535.2,179.7,529.4,179.4,523.6L179.4,523.6
		L179.4,523.6z"/>
	<path d="M172.3,174.7c-1.5,0.4-2.8,1.2-3.9,2.3c-1.7,1.7-2.6,3.9-2.6,6.3c0,3.5,0,7.1,0,10.6c0.5-0.4,1-0.9,1.5-1.3
		c0.3-1.2,0.6-2.4,0.9-3.6c1.5-4.9,3-9.7,4.7-14.5C172.7,174.6,172.5,174.6,172.3,174.7L172.3,174.7L172.3,174.7z"/>
	<path d="M170.8,361.8c-1.2-0.9-2.4-1.9-3.6-2.8c-0.4-0.5-0.8-0.9-1.2-1.4c0,8.4,0,16.7,0,25.1c0.7-2,1.7-3.9,3-5.6
		C169.5,372,170.2,366.9,170.8,361.8C170.8,361.9,170.8,361.8,170.8,361.8L170.8,361.8L170.8,361.8z"/>
</g>
<g id="Draw_Layer_2_">
	<path class="st1" d="M818.3,524.1c0.4-1.8,0.5-3.6,0.1-5.4c-1.2,1.7-2.3,3.3-3.5,5C816,523.8,817.1,524,818.3,524.1z"/>
	<path class="st1" d="M858.2,460.1c-0.6,2.6-1.1,5.1-1.7,7.7c0.6-0.9,1.2-1.8,1.7-2.6C858.2,463.5,858.2,461.8,858.2,460.1z"/>
	<path class="st1" d="M849.9,399.2c-2.8,2.1-6.8-1.4-7.2-4.9c-0.2-1.8,0.2-3.6,0.5-5.4c0.3-1.7,0.6-3.3,0.5-5
		c-0.3-5.1-3.5-11.6,0.8-14.2c-0.7-1.7-2.9-2.5-4.6-1.8c-2.1,2.4-5.2,3.8-8.4,3.7c-2.1,0-4.6-1.1-4.9-3.3c3.1-1.9,6.7-2.9,10.4-2.9
		c4.5,0,6.3-5.4,6.7-10.1c-1.7-2.2-3.4-4.3-5.3-6.4c-1-1-2.1-2.1-3.1-3.2c-3.4-0.4-6.8-0.8-10.3-1.2c-1.6-0.2-3.2-0.4-4.6-1.2
		c-2.9-1.8-3.3-6.4-0.9-8.7c1.8-1.7,4.8-1.7,6.9-0.4c-0.4-1.1-0.7-2.2-1.1-3.2c-0.3-1-1-1.8-1.8-2.5c-0.1,0.1-0.3,0.2-0.4,0.3
		c-1.9-1.1-3.8-2.2-5.7-3.2l0.3,1.2c-2.1,2.6-4.7,4.8-7.5,6.6c-1.2-0.8-1.7-2.1-1.7-3.5c0-1.3,0.5-2.7,1.3-3.7
		c1.7-2.1,4.4-3.1,6.9-4c0.4,0.1,0.8,0.2,1.2,0.3c-6.1-7.6-10-15.9-15.6-24.3c-3.5-4.2-6.9-8.4-10.1-12.7c-0.2,1.2-0.4,2.4-0.6,3.6
		l-0.5-0.2c-1.3,2.6-5.1,3.4-7.3,1.6c-0.1-0.3-0.1-0.6-0.1-0.9c0-3.5,3.7-6.5,7.1-6.1c-1-1.3-2-2.7-3-4c-2-0.2-3.9-0.5-5.9-1.1
		c0.9,4.5-1.8,9.5-6,11.3c0.4-3.6-5.4-5.8-7.5-2.8c1,2,0.3,4.8-1.6,6c0-4.1-5.1-6.2-9.2-6.5c-4.1-0.3-9.1-0.5-11.2-4.1
		c0.3-2.5,3.4-4.1,5.6-3c-0.7,2.3,2.3,4.1,4.6,3.6c2.3-0.4,4.3-2,6.5-2.6c3.3-0.9,6.8,0.3,10.2,0.3s7.4-2.5,6.8-5.8
		c-1-0.8-2.1-1.6-3.1-2.3c-1,1.2-1.9,2.3-2.9,3.5c-10.7-0.4-21.4-1.4-31.9-3.1c2.5-1.1,5.2-2.2,7-4.3c1.8-2.1,2.5-5.4,0.9-7.6
		c-2.3,0.3-4.5,0.5-6.8,0.8c-1.2-0.7-1-2.7,0.1-3.6s2.6-1,4-1.1c8.2-0.3,16.4-0.1,24.6,0.5c-7.4-10.3-14.8-20.7-23-31
		c-41.3-1.7-82.5-3.4-123.8-5.1c-7-0.3-14.2-0.5-20.6,2.2c-6.4,2.7-11.9,9.2-10.9,16.1c4.2,31.8,8.4,63.6,12.6,95.4
		c5.8,43.6,11.4,89.1-2.9,130.8c8.8-69.5,3.1-140.9-16.5-208.1c2.1,16.6,4.2,33.1,6.3,49.7c6.6,52,13.1,105.1,2.7,156.4
		c-4.6,23-12.6,45.3-23.6,66c2.2-0.4,4.4-0.8,6.6-1.3c-6.7,29.7-28,55.7-55.9,68.1c21.1,6.3,44.2,5.9,65.1-1.1
		c10-3.3,20.8-2.4,31.2-1.4c37.7,3.6,75.4,7.2,113,10.8c6.8,0.7,13.7,1.3,20.4,2.9c1-2,1.6-4.2,3.1-5.6c-6.2-1.3-12.6-2-18.8-2.6
		c-34-3.4-68-6.9-102-10.3c-15.9-1.6-32.1-3.2-47.6,0.5c-14.2,3.4-29.3,11-42.4,4.7c11.9-15,29.6-28,48.5-25.4
		c58.6,8,117.7,13,176.9,15c4.5-3.5,9.7-5.7,12-10.3c2.9-4.9,5.7-9.6,8.6-14.2c-9-0.1-17.9-0.9-26.8-2.4c0.7,3.4,1.3,6.8,2,10.1
		c-1.1,1.3-3.4,0.6-4.4-0.7c-1-1.4-1.2-3.2-1.6-4.8c-1.6-6.2-7.2-11.1-13.6-12c2.1-2.5,2.3-6.4,0.6-9.1c-1.8-2.7-5.4-4.1-8.5-3.3
		c-2.6-0.6-3.8-4.2-2.3-6.3c4-2.8,9.8,7.1,12.8,3.3c1.3-1.7-0.1-4.1-1.8-5.4c-1.7-1.3-3.8-2.3-4.5-4.3c3.3-1.2,7.3-0.1,9.5,2.6
		c2.2,2.7,2.3,6.9,0.4,9.8c-0.7,1.1-1.1,2.3-1.1,3.6c0,2.9,1.7,5.8,4,7.6c3.4,2.5,7.9,3.1,12.1,3.6c8.7,1,17.3,2.1,26,3.1
		c1.3-2,2.6-4,3.8-6c-2.2-0.3-4.4-0.6-6.5-0.9c2.6-0.4,5.2-0.8,7.9-1.1c1.5-2.3,3-4.6,4.5-6.8c-2.9-0.5-5.7-0.9-8.6-1.4
		c-0.1-1.3,0.2-2.6,1-3.7c2.6,1,5.7,0.5,7.8-1.3l-0.1-0.1c1.4-0.6,3-0.7,4.5-0.5c1.1-1.6,2.1-3.1,3.2-4.7
		c-5.2,0.1-10.3,0.7-15.4,1.7c-2.6-1.9-1.1-7,2.1-7.1c5.6-0.3,11.2-0.1,16.7,0.5c1.2-1.7,2.3-3.3,3.5-5c-0.1-0.5-0.2-1-0.4-1.4
		c-1.9,0.7-3.8,1.4-5.7,2.1c-4-0.6-6.5-5.5-4.8-9.2c3.9,4,10.7,4.7,15.4,1.7c0.2-0.1,0.4-0.2,0.5-0.2c4.2-5.8,8.5-11.7,13-17.8
		c2.1-2.6,4.2-5.1,6.3-7.7c-1.1-0.9-2.2-1.8-3.3-2.7c1-2.9,4.3-4.8,7.3-4.4c0,0.7,0,1.3,0,2c2.5-3.2,5-6.5,7.4-9.9
		c0.7-32.8,1.4-65.6,2-98.3c-2-2.9-3.9-5.8-5.8-8.6C850.2,376,850,387.6,849.9,399.2z M831.9,353.5L831.9,353.5
		c1.6-0.7,3.5,0.2,4.1,1.8c-1.2,1.5-2.4,3-3.6,4.6c-1.3-0.6-1.9-2-1.9-3.4C830.5,355.4,830.9,354.2,831.9,353.5z M770.8,564.7
		c1.1-0.6,2.4-0.7,3.6-0.4c0.5,1.2,1,2.4,1.5,3.6c-0.2,1.5-2.7,1.8-3.3,0.4l0.1-0.1c-1.2-0.7-2-2-2-3.4
		C770.8,564.8,770.8,564.8,770.8,564.7z M838.1,394.3c0.1,2.9-4.5,4.6-6.3,2.3c1.4-1.5,3.5-2.3,5.6-2.3H838.1z M838.2,422.2
		c-2,1.1-4.2,1.7-6.4,1.8c-0.2-0.4-0.3-0.8-0.3-1.2c0-1.2,0.8-2.5,2-2.8h0.1C835.5,419.6,838.6,420.2,838.2,422.2z M834.6,383.7
		l0.3-0.2c0.6,0.9,0,2.4-1.1,2.7c-1.1,0.2-2.3-0.9-2.1-2v-0.1C831.7,382.7,834.3,382.3,834.6,383.7z M831.3,411.3
		c-1.5,0.2-3-1.5-2.6-3l-0.1-0.1C830.2,406.8,833,409.9,831.3,411.3z M829.5,384.1c1.3,2.8-0.6,6.6-3.6,7.1l-1-0.5
		c-1.1-2-1.7-4.3-1.7-6.6c0-0.9,0.1-1.8,0.3-2.7C825.5,382.3,827.5,383.2,829.5,384.1z M846,457.2c1.5,2.2,0.5,5.6-1.9,6.7
		s-5.6-0.5-6.2-3.1c-3.4,0.5-6.8,1.1-10.2,1.6c-0.5-1.7-1-3.3-1.5-5c-7.6,4.6-16.8,6.2-25.5,4.6c-2.3-0.4-3.5,2.5-3.8,4.8
		c-0.6,3.8-1.1,7.5-1.7,11.3c-1.8,1.1-4.3-0.5-4.9-2.5s0.1-4.2,0.8-6.2c1-2.8,2-5.7,4.1-7.9c2-2.2,5.4-3.5,8.1-2.3
		c0-2.9,2.3-5.6,5.2-6c-0.1,0.3-0.2,0.6-0.2,0.8c0,1.9,3.5,2.9,5.5,1.8c2.3-1.3,4.4-3.8,7-3.3C829.1,454,837.5,455.6,846,457.2z
		 M826.3,445.9L826.3,445.9c0.1-2.2,4.1-2.1,4.1,0.1C830.3,448.1,826.3,448,826.3,445.9z M784.6,493.5c2.1-2,2.3-5.7,0.5-7.9
		c-2,7-11.3,8.4-18.6,8.4c-2.7,0-5.4,0-8.1,0c-7.3,0.6-13.9-7.5-11.8-14.5c-3.7-0.9-7.4-1.9-11.1-2.8c3.9-6.1,3.4-15.1-2.1-19.7
		c-2.9-2.5-7.5-5-6.2-8.6c-2.4-0.2-4.7-0.3-7.1-0.5c-0.9-1.3-0.7-3.3,0.6-4.4c2.5,4,9.3,2.5,12.3,6c4.9,5.7,10.1,12.1,10.2,19.6
		c0,3.6,0.5,9,4.1,8.4c8.4-1.4,17.3,0.8,24,6c-3.2,1.4-7,1.2-10.1-0.5c-3.5-1.2-6.9-2.4-10.4-3.6c-0.2,1.6-0.5,3.1-0.7,4.6
		c3.9,1.2,7.5,3.6,10,6.8c0.5-1.3,1-2.5,1.4-3.8c5.2,3.9,13.7,1.7,16.4-4.2c3.9,0,7.7,0.4,11.5,1c2.4,0.4,5.2,1.2,6,3.5
		c0.9,2.4-1.1,5.1-3.5,6C789.7,494.3,787.1,493.9,784.6,493.5z M786.8,512.8c-0.8,1.5-3.7,1.8-4.1,0.1c-1.9-1.7-2.9-4.3-2.9-6.9
		c0-3,1.3-6.1,3.8-7.8c1,3.2,2,6.3,3,9.5C787.1,509.4,787.6,511.3,786.8,512.8z M737.4,499.1c-1.6,0.2-2.9-1.4-2.9-2.9
		c0-0.5,0.1-0.9,0.4-1.3c3.6-0.8,5.9,3.7,6.3,7.3c0.1,1.6,0.1,3.5-1,4.7s-3.5,1.3-4.1-0.3c0.5-2.4,1.1-4.9,1.6-7.3L737.4,499.1z
		 M735,482.4c1.7-0.4,3.6,0.2,4.8,1.5l-0.2,0.4c2.8,1.3,4.1,5.3,2.5,7.9C738,490.9,735,486.7,735,482.4z M707.7,518.5
		c1.8-6.1,2.1-12.6,0.9-18.8c3.2,1.5,4,5.6,4.4,9.1c0.5,4.1,0.9,8.1,1.4,12.2C711.9,521.2,709.4,520.3,707.7,518.5z M707.2,530.3
		c-0.4-0.5-0.6-1.2-0.6-1.8c0-0.9,0.3-1.7,1-2.3v0.2c1.4-0.5,2.7-1,4.1-1.5C713.8,527.3,710.2,531.3,707.2,530.3z M713.9,498.1
		l-0.3-0.4c-4-1.3-7.3-4.7-8.5-8.8c3.1-0.2,6.4-0.3,8.8,1.6C716.5,492.4,716.8,497,713.9,498.1z M684.7,507c0.8-1.5,1.5-3,2.3-4.6
		c6.3,5.4,9.9,13.8,9.5,22c-0.1,3-3.3,6.7-5.2,4.4C692.8,521.1,690.2,512.7,684.7,507z M680.8,517.9c0.3-1.2,0.7-2.4,1-3.6
		c4.5,1.8,5.7,8.7,2.1,11.9c-2.8-1.3-3.9-5.2-2.1-7.7L680.8,517.9z M692.8,497.3c-1.9-0.7-4.2-0.3-5.8,1c-2-2.3-1-6.4,1.8-7.5
		c-2.2-2.8-7.2-1.4-9,1.7s-1.5,6.9-1.1,10.5s0.7,7.4-1.2,10.5c-4.4-3.6-12.4-3.3-14.2,2c0.6,1.9,1.3,3.7,2,5.6
		c-0.7,1.9-3.7,2.4-5,0.9c-2.1-4.4-0.7-10.2,3.1-13.2c8.9-4.5,13.3-16.1,9.6-25.4c-1.1,0.9-2.1,1.8-3.2,2.7
		c-5.8-7.2-14-15.3-22.9-12.6c-2,0.6-5.4,0.7-5.1-1.4c0.4-3.7,5.4-4.6,9-3.8c3.6,0.9,7.7,2.4,10.7,0.2c-7.6-3.8-17.7-7.3-23.6-1.2
		c-5.4,5.6-10.9,11.4-13.2,18.8c-0.6,2-1,4.2-2.2,6c-1.2,1.7-3.7,2.9-5.5,1.8c4.1-12.9,8.2-25.8,11-39.1c2.3,0.4,4.3,2.4,4.9,4.7
		c4.3-2.5,10.1-2,13.8,1.2c0.9-2.5,1.9-4.9,2.8-7.4c1.6,5.5,8.5,8.8,13.9,6.5c-3.3-2.4-6.1-5.6-8.1-9.1c1.8-1.5,3.2-3.3,4.3-5.3
		c-0.5-1.6-1.1-3.2-1.6-4.8c3.1,0.3,6.3,0.6,8.8,2.5c2.4,1.9,3.5,5.9,1.3,8.1c-3.4,3.4-2,9.3,0.7,13.3c3.1,4.7,7.7,8.5,12.8,10.7
		c1.9,0.8,4.3,2.8,3,4.4c-1.6,0.5-3.1,0.9-4.7,1.4c0.8,3.6,5,5.3,8.7,5.6s7.6-0.2,10.9,1.4c3.3,1.6,5.1,6.8,2.1,8.9
		c-0.9-3.1-4.1-5.3-7.3-5.1C695,493.8,694.4,496.1,692.8,497.3z M668.2,522.6c2.3-1.5,4.1-3.6,5.4-6c2.2,0.6,3.8,3.1,3.2,5.3
		s-3.2,3.7-5.3,3l0,0C670.2,524.7,668.9,523.8,668.2,522.6z M659.6,534c1.6,0.4,1.6,3.2,0,3.6c-1.5-0.4-3.1-1.1-3.9-2.4
		c-0.8-1.3-0.5-3.4,0.9-4.1s3.4,1.2,2.4,2.5L659.6,534z M624.5,505.8c-1.5,0.9-3.8,0.3-4.6-1.3c-0.4,1.8-2.9,2.6-4.3,1.5h-0.1
		c-0.6-0.9-0.9-1.9-0.9-3c0-2.2,1.3-4.4,3.3-5.3C621.6,498.3,624.6,502,624.5,505.8z M637.3,301.7c-0.8,1.5-1.5,3.1-0.7,4.3
		c-1.7,1.5-4.5,1.7-6.4,0.4c-0.8,2.2-1.5,4.5-2.3,6.7c2.8-0.4,5.7,0,8.2,1.3c-2.9,1.8-4.4,5.5-3.5,8.8s4,5.7,7.4,5.8
		c6.5,0.2,11.8,4.9,16.6,9.3c2.9,2.7,6.1,6.7,4.2,10.2c-3.7-1.4-5.9-5.2-8.6-8.2c-2.7-3-7.3-5.3-10.5-3c0.1,2.5-3.7,2.8-6.1,2.1
		c-2.3-0.6-5.9-0.1-5.9,2.1c0,0.1,0,0.2,0,0.3c2.2,2.9,6.3,3.1,9.8,3.5s7.8,2.1,8.1,5.7c1.5-1.9,2.9-3.8,4.4-5.7
		c0.5,1.8,1,3.6,1.4,5.5c4.8,1.6,9.5,3.1,14.3,4.7c2.5,0.8,5,1.7,7.3,3c-5.8,3.3-13.6,2.9-19-1.1c-1.2-3.5-5.9-4-9.7-3.9
		c-0.6,1.3-1.1,2.6-1.7,4c-4,0.8-8.4-2.2-9-6.3c-1.6,1-2.9,2.6-3.5,4.3c-6.3-5-6.1-14.4-6.1-22.4c0-12.2-2-24.5-6-36.1
		c5.3,0.1,10.5,0.1,15.8,0.2c0.6,0,1.3,0,1.8,0.4C639,298.5,638.1,300.1,637.3,301.7z M639.1,318L639.1,318c2.2,1,3.3,3.8,2.5,6
		c-1.8,0-3.7-0.6-4.5-2.2c-0.2-0.4-0.3-0.8-0.3-1.2C636.8,319.3,637.7,317.9,639.1,318z M694.5,296.5c0.7-4.8,9.2-5.3,10.5-0.6
		c-0.8,1.6-2,3-3.5,3.9c-0.6,5.4-1.2,10.8-1.8,16.2c-0.7,5.8-1.3,11.7-2.7,17.4c-0.3,1.1-0.6,2.2-1.3,3.1c-1.7,2-5.5,1.4-6.5-1
		s1.3-5.5,3.9-5.3c-1.6-0.7-1.6-3-0.8-4.5s2.2-2.7,2.9-4.3c1.5-3.8-1.9-7.8-5.4-9.7c-3.6-1.9-7.9-3.1-10.2-6.5
		c0.8-1.1,1.6-2.1,2.4-3.2c4.1,1.2,7.9,3.8,10.4,7.3C697.3,307.5,698.6,299.8,694.5,296.5z M733,308.4c-1.2,0.1-2.3,0.2-3.5,0.4
		c0-0.3,0-0.7,0-1c0-1.8,0.4-3.6,1.2-5.2c1.8-0.2,3.8,0.8,4.6,2.4c-0.3,1.3-1.1,2.6-2.3,3.3V308.4z M730.8,319.3
		c1.1,0.2,2.2,0.5,3.1,1.2c1.5,1.2,1.7,3.3,1.8,5.2c0.3,5.1-0.4,11.8-5.4,13.1c-1.5-4.2-1.1-9.1,1.2-13l-1-1.3
		c-4.4,2-10.1-1.9-10.1-6.6c0-0.2,0-0.5,0-0.7C723.9,317.9,727.4,318.6,730.8,319.3z M786.7,343.5c-1.2,0.9-3,0.7-3.9-0.4
		c-0.4-5.2-0.8-10.5-1.3-15.7c1.3-1.3,3.5-1.6,5.1-0.6c-0.3,2.6-0.5,5.3-0.5,7.9C786.1,337.6,786.3,340.6,786.7,343.5z M789.9,349.7
		l-0.2-0.5c4.5-0.3,9,0.6,13.1,2.4c-4.1,2-8.4,4.1-13.1,4.1c-4.6,0.1-9.6-2.5-10.8-6.9C782,345.9,787.5,346.4,789.9,349.7z
		 M812,361.1c-3.4,1.3-7.3,0-10.8,1.1s-5.1,7.1-1.6,7.7c0.9,2.6-3.8,4-5.6,1.9s-1.2-5.3-0.6-8c-3.9,0.9-6.8,4.7-6.7,8.6
		c-2.9-3.4-9.1-2.7-11.2,1.2c-1.8,3.4-9.2-2.6-10.2,1.1c-1-4.7-5.3-8.5-10.1-8.9c-1.9-0.9-3.7-1.8-5.6-2.8c-1,4.2-0.5,8.6,1.4,12.5
		c-1.2,0.6-2.5,1.2-3.7,1.8c-3.1-3.1-4.7-7.6-4.2-12c1.8-6.1,6.6-11.3,12.5-13.6c0.4-2.8,0.7-5.6,1.1-8.4c1.4,0,2.7,1,3,2.3
		c0.3,5.4-3.6,10.8-8.8,12.3c10.1,5.7,22.9,11.3,32.6,4.9c6-4,16.1-1.1,19.8-7.3c1-1.6,1.3-3.5,2.3-5.1s3.4-2.5,4.7-1.2
		c-0.3,1.2-0.4,2.4-0.4,3.6C809.8,355.8,810.6,358.6,812,361.1z M816.4,381.5c1.9,0.8,3.1,3.4,1.9,5c-0.8,1-2.2,1.3-3.5,1.4
		c-5.4,0.7-10.7,1.5-16.1,2.2c0.2-5.2,6.5-7.6,11.7-8.6C812.4,381.1,814.5,380.7,816.4,381.5z M814.8,369c0-0.2,0-0.5,0.1-0.7
		c0.4-2.5,4-4.1,5.4-2.1c0.5,2.7,1,5.3,1.5,8c-1.3,0.3-2.6,0.7-3.8,1v-0.4C816.3,373.3,814.8,371.2,814.8,369z M766.9,469.8
		c7.3,1.7,15.4-4.9,21.8-1.1c-1,3.9-4.8,6.6-8.8,7.3c-3.9,0.8-8-0.1-11.9-1.1c-3.4-0.9-6.7-2-10-3.2c-3.6-1.4-7.7-3.9-7.7-7.6
		c0-0.3,0-0.5,0.1-0.8C756.3,461.9,761,468.5,766.9,469.8z M752.4,454.3c0-0.4,0.1-0.7,0.3-1.1c3.6,0.3,7.2,0.5,10.8,0.8v1
		c3.8-0.2,7.7,0.9,10.8,3c-0.1,1.5-0.1,3-0.2,4.5c-6.1,1.7-12.5-1.3-18.2-4.2C754.3,457.5,752.4,455.9,752.4,454.3z M774.7,448.4
		c-0.5,0.8-1.6,1.1-2.6,1.4c-3.4,0.8-7,1.6-10.4,0.8c-3.4-0.8-6.6-3.8-6.4-7.3c-5,2.3-11.7,0.1-14.2-4.9c4.5-0.2,8.9,0.4,13.2,1.6
		c3.9,5,11.9,2.1,17.8,4.2C773.9,444.8,775.7,446.8,774.7,448.4z M746.1,456.6c-2.3,0.5-4.8-1.4-4.8-3.8l-0.1-0.1
		c0.4-1.2,0.7-2.3,1.1-3.5c1.6,0.8,3.2,1.7,4.7,2.5C747.2,453.4,746.9,455.1,746.1,456.6z M713.8,439.7c-9.2-0.7-18.4-3-26.8-6.8
		c-1.9-0.8-4.1-0.5-6.1-0.7s-4.2-1.5-4.2-3.5c0-0.1,0-0.1,0-0.2c2.9-3,8-1.9,12-0.5c9.6,3.3,19.1,6.5,28.7,9.8
		C716.1,438.4,714.9,439,713.8,439.7z M713.1,450.1c-1.2-0.8-2-2.2-2.1-3.6h0.1c0.8-1.9,2.2-3.5,3.9-4.5
		C716.3,444.6,715.5,448.2,713.1,450.1z M683.4,466.4c-1.2,1.2-2,2.8-2.2,4.5c-3.2-0.3-5.8-3.5-5.8-6.6c0-0.4,0-0.9,0.1-1.3
		c0.8-3.6,5.1-5.9,8.6-4.6c2-0.3,2.6,3.2,0.9,4.3c-1.7,1.1-4,0.5-6-0.2l-1,1.7C679.9,465,681.6,465.7,683.4,466.4z M675.5,446.1
		c1.7-0.1,3.5-0.3,5.2-0.4l0.2-0.2c2.2,2.6,2.7,6.6,1,9.6C678.3,453.7,675.6,450,675.5,446.1z M684.9,447.8c1.5,0.7,2.9,1.4,4.4,2.1
		l-0.1,0.1c1.6,1.3,3.2,2.6,4.8,4C690.1,456,684.5,452.3,684.9,447.8z M697.8,462.1c-2.3,1.4-5.7,0.5-7.1-1.8l-0.2-0.1
		c0.3-1.1,0.7-2.2,1-3.3C694.4,457.3,696.9,459.4,697.8,462.1z M699.8,468c0.3,1.1-0.1,2.3-0.8,3.2c-2.8,0.2-5.5,0.4-8.3,0.6v-1
		c-1.1-1.3-2.2-2.5-3.3-3.8C691.4,465.1,696.3,465.5,699.8,468z M667.3,437.7c-2.6-0.6-5.8-1-7.5,1.1c-9.8-2.6-19.7-4.7-29.6-6.1
		c0-0.4-0.1-0.8-0.1-1.2c0-4,1.8-8,4.8-10.7c0.3,3.1,0.6,6.2,0.8,9.3c3.6-0.3,7.2,0.2,10.8,0.8c18.4,3,36.6,7.2,54.4,12.7
		c1.5,0.5,3.2,1,4.1,2.3c1,1.3,0.8,3.5-0.7,4.1C692.4,444.9,680,440.8,667.3,437.7z M636.3,439.5c5.5,1.4,11.1,2.7,16.6,4.1
		c-0.1,3.4-1.6,6.8-4.1,9.1c0-2.4-1.7-5.8-3.7-4.5v-0.6C641,446.8,637.4,443.5,636.3,439.5z M628.9,442.1c0-2.1,3.4-2.4,5.5-1.7
		c0.3,1.8,0.7,3.7,1,5.5l0,0c1.5,1.7,3,3.5,4.5,5.2c0.1,1.3-1.1,2.5-2.4,2.5c-5.6,0.6-10.7-5.9-8.6-11.2
		C628.9,442.3,628.9,442.2,628.9,442.1z M655.3,329.7c0-2.3,3.5-3.2,5.3-1.7s2.2,4.2,2.4,6.6c-3.5,1.4-7.9-1-8.7-4.7h0.9
		C655.3,329.8,655.3,329.8,655.3,329.7z M658.5,320.6c-2.7-1.3-5.2-4.7-3.4-7.1c4.1,1.6,8.3,3.3,12.4,4.9c-0.3-2,0.3-4,1.5-5.6
		c2.9,3.5,7.7,5.2,12.1,4.3c-5.3-4.3-9.8-9.4-13.5-15.2c-2.5-3.9-5.1-8.5-9.6-9.3c3.1-2.4,6.6-4.8,10.5-4.7c3.9,0.1,7.7,4.4,5.9,7.9
		c-2.2-0.5-3.9-2.5-4.1-4.7c-1.8-0.6-3.8-0.4-5.4,0.5c6.8,10.3,15.1,19.8,24.4,27.9c-1.7,4.1-3.9,8.1-6.3,11.8
		c-2.3-2-2.7-5.8-0.8-8.2c-4.7-1.5-9.3-3.1-14-4.6c2.3,8.4,9.8,14,16.9,19c-8.1,0.1-16-4.9-19.4-12.3
		C664.5,322.8,661.2,321.9,658.5,320.6z M689.2,291.4c2.9,0.9,4.4,4.9,2.7,7.4c-3.3-1.9-7.4-2.4-11.1-1.4c0.1-1.1-0.5-2.2-1.2-3.3
		c-0.6-1-1.2-1.9-1.2-2.8c0-0.4,0.1-0.8,0.4-1.1c1.3-1.6,3.7-0.1,5.3,1.2C685.7,292.7,688.8,293.4,689.2,291.4z M685.6,285.3
		c0-0.4,0.2-0.8,0.6-0.9c3-1.3,6.1,3.5,3.8,5.7c-0.9-1.1-1.8-2.1-2.7-3.2l-0.1-0.2C686.3,287.1,685.6,286.1,685.6,285.3z
		 M714.5,313.8c-1.1,0.4-2.4-0.1-3-1.1c-1.3-2.6-1.3-7.3,1.7-6.9L713,306C715,308,715.6,311.3,714.5,313.8z M716.2,321.7
		c-3.1,0.3-6.3,0.5-9.4,0.8c-2.6-1.2-3.8-4.6-2.7-7.2l-0.5-0.4c0.8-0.6,1.5-1.2,2.3-1.9c0.7,2,1.4,3.9,2.1,5.9
		C710.9,317.4,714.9,318.7,716.2,321.7z M721,379.8c-3-0.1-5.6-3-5.4-6c0.2-3,3.3-5.5,6.2-5.1v1.2
		C722.4,373.2,722.1,376.7,721,379.8z M720.6,384.3l0.2-0.8c2.5,2.1,2.1,6.7-0.8,8.4c-1.6-0.4-2.4-2-2.4-3.6
		C717.7,386.4,718.7,384.5,720.6,384.3z M714.7,363.3c-2-0.4-4.1-0.8-5.5-2.1c-0.8-0.8-1.4-2-1.4-3.1c0-0.8,0.3-1.7,1-2.2
		c4.9,1.8,9.8,3.5,14.7,5.3C722,364.1,717.9,363.9,714.7,363.3z M708.4,376.3l1-1c1.3,1.8-1.3,4.3-3.4,3.8c-2.2-0.5-3.6-2.5-4.7-4.4
		C703.7,373.8,706.6,374.5,708.4,376.3z M699.5,365.2c-1.5-0.6-2.5-2.2-2.5-3.8c0-0.3,0-0.7,0.1-1c0.5-1.9,2.6-3.2,4.6-2.8l0.2-0.8
		C704.9,358.5,702.2,363.1,699.5,365.2z M707.9,370l0.3-0.3c0.3-1.1,0.7-2.2,1-3.2c2.9-1,5.9,3.2,4,5.6
		C711.2,372.8,708.9,371.8,707.9,370z M720.1,353.5c-0.9-1.6-1.8-3.2-2.7-4.8c-1.6,0.4-3.4,0.4-5-0.2l-0.4-0.8
		c0.9-4.8,7.5-7.5,11.5-4.6C723.8,346.9,722.5,350.7,720.1,353.5z M704.3,329.1L704.3,329.1c1.3-1.2,2.6-2.3,3.9-3.5
		c2.4,1.4,3.2,4.9,1.8,7.3s-4.9,3.2-7.3,1.8C703.3,332.9,703.8,331,704.3,329.1z M708.7,341.9c-0.9,6.4-6.6,11.7-13.1,12.3
		c2.3-3.6,4.3-7.5,5.8-11.5l0.5,0.2C703.4,340.8,706.7,340.4,708.7,341.9z M694.8,378.3c-3.1,0.9-6.1-2.6-5.9-5.8
		c1.8-0.3,3.7-0.6,5.5-1v0.3C697.5,371.6,697.9,377.5,694.8,378.3z M677.4,353.3c-0.7-4.4-1.4-8.6,1.7-11.3c1.8-0.4,3.8,0.7,4.5,2.4
		c-0.9,2.8-1.8,5.7-2.7,8.5c-0.3,0.9-0.6,1.9-0.6,2.9c0,0.6,0.1,1.2,0.4,1.8c0.8,1.4,3.4,1.4,3.7-0.1c0.4-2.9,5.5-2.7,6.4,0.2
		s-1.7,5.8-4.6,6.4s-5.9-0.3-8.7-1.2C678.4,359.9,677.9,356.6,677.4,353.3z M694.2,345.8l-0.3-0.1c0.2,2.1-3.2,3.4-4.5,1.7
		c-0.4-0.9-0.6-1.9-0.6-2.8c0-1.6,0.5-3.3,1.5-4.6C693.3,339.2,696.1,343.4,694.2,345.8z M666.6,341.4c3-1.1,6.4-0.9,9.3,0.3
		l-0.8,0.7c-0.5,2.4-1.2,5-3.1,6.5c-1.9,1.5-5.5,0.9-5.9-1.5C666.3,345.3,666.4,343.4,666.6,341.4z M683.6,377.3
		c3.3,7.1,12.9,8.1,20.6,7c1.9-0.3,3.8-0.6,5.5,0.1s3.1,2.7,2.3,4.4c-7-0.5-14.1-1.1-21.1-1.6c-5.2-0.4-12-2.5-11.6-7.7
		c0.2-3.3-2.3-6.6-5.5-7.3c-2-0.4-4.1,0-6.1-0.3c-1.9-0.3-3.8-1.7-3.8-3.5c0-0.1,0-0.3,0-0.4C671.6,366,680.3,370.2,683.6,377.3z
		 M699.4,397c2.6-2.7,7.6-2.4,9.8,0.7c-1.2,1.1-2.5,2.1-3.7,3.2v-0.1C703.2,400.1,701,398.7,699.4,397z M664.7,403.8
		c0-2.2,3-3.5,4.9-2.5c1.9,1.1,2.6,3.6,2.1,5.8c-0.1,0.5-0.2,1.1-0.2,1.6c0,4.4,3.9,8.7,8.4,8.7c0,1.6-1,3.1-2.4,3.7
		C670.2,418.8,664.8,411.5,664.7,403.8z M667.2,428.7c-0.2-0.5-0.3-1-0.3-1.6c0-1.6,0.8-3.1,2.1-2.5l0.1-0.1
		C669.9,426.4,669,429.5,667.2,428.7z M666.2,392.2c0-1.8,0.7-3.5,1.3-5.2c1.2,1.9,2.5,3.9,3.7,5.8l0.1-0.1c0.8,1.3,0.7,3.1-0.4,4.2
		c-2.1,0.6-4.2-1.4-4.6-3.6C666.2,393,666.2,392.6,666.2,392.2z M676,392.4c0.9-1.7,3.8-0.8,4.4,1c0.6,1.8-0.4,3.8-1.3,5.5
		c-1.7-1.7-2.7-4-2.8-6.4L676,392.4z M679.7,404.7c1.5,0.1,3.1,0.2,4.6,0.2v0.5c2.7-0.4,5.5,1.8,5.9,4.5
		C686.2,412.3,680.2,409.3,679.7,404.7z M683.2,397.2c0.7-3.2,4.1-5.6,7.4-5.3c3.3,0.4,6,3.5,6,6.8c-2.1-0.1-4.1-0.3-6.2-0.4
		l-0.1,0.4c-1.6-0.6-3.7,0.4-4.2,2.1C685,399.6,684.1,398.4,683.2,397.2z M697,421.2c-5.4,2.5-12.7-0.7-14.5-6.4
		C687.8,415.5,692.9,417.7,697,421.2z M693.1,410.3c1.2-1,2.4-2.1,3.6-3.1l-0.1,0.2c3,1.2,5.3,4.1,5.7,7.3
		C698.8,414.9,695.2,413.1,693.1,410.3z M664.1,376.7v0.3c2.9,0.6,6.1-0.2,8.4-2c2.6,1.2,3.8,4.6,2.6,7.1c-4.4-0.8-8.8-2-13-3.7
		c-1.6,2.2-3.6,4.6-6.3,4.8c-2.7,0.2-5.1-3.8-2.9-5.3C656.5,376.5,660.4,376.1,664.1,376.7z M635.3,384c0.9,3.6,6.7,5.8,8.1,2.4
		c-2.2-2.6-3.4-5.9-3.4-9.3c0-0.6,0-1.2,0.1-1.8c1.7,0.1,3.4,0.2,5.1,0.3c0.3,3.6,0.6,7.2,0.8,10.7c0.1,1.3,0.3,2.8,1.2,3.7
		c1.9,2,5.2,0.4,7.9-0.5c2.6-0.9,6.9,0.7,5.7,3.2c-8,1.9-16.4,1.9-24.4,0.1c-1.3-0.3-2.7-0.7-3.7-1.5c-2.1-1.7-2.4-4.8-2.5-7.5
		c-0.2-4.4,0.8-10.4,5.3-10.8c0.2,1.6,0,3.3-0.1,5C635,380,634.8,382,635.3,384z M633.3,403.6c-0.5-0.8-0.9-1.9-0.9-2.9
		s0.3-1.8,1.2-2.3c0.7-0.4,1.6-0.3,2.5-0.2c8,0.9,16.1,1.8,24.1,2.7c-1.7,3.4-5.9,4.4-9.6,5.1c-5.1,0.9-10.1,1.9-15.2,2.8
		C635.7,406.9,634.3,405.2,633.3,403.6z M650.3,412.1c3.5,1.3,7.4,1.5,11.1,0.7l0.2,0.1c0.8,1.3,0.6,3.1-0.4,4.3
		c-2.8-0.7-5.7-0.6-8.4,0.3c-1.6-0.6-2.7-2.3-2.7-4C650,413,650.1,412.6,650.3,412.1z M632.4,412.5c4.2-1,9,0.7,11.7,4.1
		c-1,0.7-2.5,0.9-3.7,0.5V417c-3.5-0.3-6.9-0.6-10.4-0.9C630.8,414.8,631.6,413.6,632.4,412.5z M649.3,421.3
		c3.4,1.3,7.7,2.9,10.3,0.3c2.8,1.5,3.8,5.6,2.1,8.3c-2.1-1-3.9-2.6-5.2-4.5c-5.5,2.1-12,1.3-16.8-2.2
		C641,419.7,645.9,420,649.3,421.3z M659.1,371c-6.8-0.4-13.5-0.8-20.3-1.2c-2.5-0.1-5.2-0.4-7.1-2c-1.3-1.1-2-2.8-2-4.6
		c0-1.6,0.6-3.3,1.8-4.4c6.4,3.5,13.3,5.8,20.5,6.9c1.7,0.2,3.9,0.1,4.4-1.6C659,365,660.4,368.5,659.1,371z M702.8,429.4
		c-0.8-2-1.5-4-2.3-5.9c3.3-3.6,9,6.4,12.6,3.3c3.5-3.1,10.2,0.2,9.9,4.8C716.4,430.1,709.6,429.4,702.8,429.4z M705,415.3
		c0-0.1,0-0.3,0-0.4c0-3.5,3.3-6.4,6.8-7.1c3.6-0.7,7.4,0.3,10.9,1.4c1.9,0.6,4.4,2.5,3.1,4c-3-0.5-5.9-1.1-8.9-1.6
		c-2.1-0.4-4.4-0.7-6.1,0.4c-1.8,1.1-2,4.4,0,5c4.1-3.6,11.4-2.4,14,2.3C718,421.5,710.2,420,705,415.3z M732.2,436.3l-0.1-0.2
		c2.2-0.2,3.7,3,2.4,4.8c-1.3,1.9-4,2.2-6.1,1.3c-2.1-0.9-3.7-2.6-5.2-4.3C726.1,437.2,729.1,436.6,732.2,436.3z M730.3,431.6
		c-1.2-0.1-2-1.2-2.6-2.2c1.1-0.5,2.3-0.6,3.5-0.2c-0.1,0.1-0.1,0.1-0.2,0.2C732.2,429.7,731.5,431.7,730.3,431.6z M732.7,425.2
		c-1.7-4.2-3.3-8.4-5-12.6c1.1-0.1,2.2-0.3,3.3-0.4l-0.1,0.9C736.4,413.8,737.7,423,732.7,425.2z M714.5,400.8c0-0.3-0.1-0.7-0.1-1
		c0-1.4,0.4-2.8,1-4c9.2,2.9,18.3,6.5,27,10.7c1,0.9,1,2.7,0,3.6C733.2,406.8,723.9,403.7,714.5,400.8z M737.3,358.4
		c2.5-0.1,2.4,4.5-0.1,5.2s-4.9-0.9-6.9-2.5c-2.4-1.9-4.8-6-2.1-7.5c2,3.1,5.7,5.1,9.4,5L737.3,358.4z M727.9,385.7
		c5.3-1.1,10.1,6,7.1,10.5c-4.4-0.5-7.6-5.4-6.5-9.6L727.9,385.7z M730.8,377.2c-0.4-1.3-0.7-2.6-1.1-3.8h-0.1
		c-0.4-0.7-0.6-1.6-0.6-2.4c0-1.1,0.3-2.2,1-3.1c2.2-0.9,4.8,0.7,5.8,2.8c1,2.1,0.9,4.6,0.8,7C734.7,377.5,732.8,377.4,730.8,377.2z
		 M754.1,371.8c0.3-1.6,1.5-3,3.1-3.6c1.2,5.4,5.6,9.9,11,11.3c2.4,0.6,5,0.6,7,2s2.8,4.9,0.6,6.1c-6.1,0-12.2-0.1-18.3-0.1
		c-6.5,0-13.8-0.4-18.2-5.2c6.6-0.8,13.2-0.8,19.8,0.1C759,378.3,757.1,374.4,754.1,371.8z M770.6,403c-0.8-2.2-3.3-3.7-5.6-3.3
		c-0.5,1.5-1.5,2.9-2.7,3.9c-2-0.2-3.2-2.3-3.2-4.4c0-0.7,0.2-1.5,0.5-2.1c1.3-2.4,4.1-3.7,6.8-4.1c3.8-0.6,8.3,0.4,10,3.9
		C778,400.4,773.7,405.3,770.6,403z M754.2,390.8c-0.1,5.4-0.7,10.8-1.7,16.1c-0.4,2.1-2.4,4.8-4,3.4
		C748.5,403.5,750.5,396.6,754.2,390.8z M746.8,395.5l-1.1-0.2c-0.9,2.4-1.8,4.8-2.7,7.2c-1.5-1.8-2.2-4.2-2.2-6.6
		c0-2.1,0.6-4.1,1.7-5.8C745,390.5,746.9,393,746.8,395.5z M745.9,416.7c2.2,1,4.9,0.9,7-0.4c5.2-0.2,10.3,3.3,11.8,8.3
		c-3.5-1.9-8-1.7-11.4,0.3c-1-2.5-1.9-5-2.9-7.5c-0.6,2.2-1.8,4.3-3.3,6c-1.1-0.8-2.3-1.6-3.4-2.4c0-0.2-0.1-0.5-0.1-0.7
		C743.7,418.7,744.5,417.3,745.9,416.7z M760.7,412.4c-1.8-0.4-3.7-2.3-3.7-3.6c0-0.5,0.3-0.9,0.9-1.2c7.5-0.7,15.2,0.8,22,4.1
		C773.6,413.4,767,413.7,760.7,412.4z M780.3,419.8c1.1-0.4,2.4,0.9,2.1,2c-5,4-13.4,2.7-17-2.7
		C770.4,418.2,775.5,418.4,780.3,419.8z M782.2,416c-0.6-1.6-1.2-3.3-1.8-4.9c1.2-0.9,3.2-0.8,4.3,0.3l-0.4,0.3
		C786.1,413.2,784.3,417.1,782.2,416z M783,407.9c-1-0.3-2-0.5-3-0.8c0.5-3.7,1.1-7.5,1.6-11.2l-0.3-0.4c2-2.1,5.4,1.5,4.8,4.3
		C785.4,402.7,783.2,405,783,407.9z M785.4,387.8c-1.9-0.4-3.8-1.1-4.9-2.6c-0.5-0.7-0.8-1.6-0.8-2.5c0-1,0.4-2,1.2-2.6
		c1.4-0.4,2.9-0.8,4.3-1.1c1.2,1.9,3,3.5,5,4.4c1.2-2.5,3.5-4.5,6.2-5.2c1.4,1.2,2.9,2.3,4.3,3.5C797.9,387,791.1,389,785.4,387.8z
		 M803.9,370.4c0-2.5,1.8-5.2,4.4-5c2.5,2.3,3.8,5.8,3.5,9.1c-1.8,1.5-4.8,1.2-6.2-0.7v-0.1C804.4,373,803.9,371.8,803.9,370.4z
		 M747.9,341.7c0-1.6,0.6-3.1,2-2.9c2.4,3.2,3,7.5,1.7,11.3c-2.9-0.1-5-3.9-3.5-6.5v-0.3C748,342.8,747.9,342.3,747.9,341.7z
		 M739.9,322.2l1.3-0.6c2.3,0.9,4.5,1.8,6.8,2.8C745.7,327.2,740.4,325.7,739.9,322.2z M769.9,340.8c-2.5,1-2,5.1,0.2,6.5
		s5.2,1,7.8,0.5c-1.4,3.7-2.1,7.6-2,11.5c-1.3,0.6-2.6,1.2-3.9,1.8c-0.9-2.6-2.7-4.8-5-6.3c-0.2,2.4-1.5,4.6-3.5,5.9
		c-0.8-5.8-0.7-11.8,0.3-17.6c0.6-3.7-3.1-6.4-6-8.8s-4.8-7.6-1.5-9.4c1.8,3.5,5.4,5.9,9.4,6.2c-1.3-2.3-2.7-4.5-4-6.8
		c5,0.8,9.9,2,14.7,3.8c0,0.2,0,0.5,0,0.7c0,3.7,1.4,7.4,4,10.2C777,340.6,773.4,341.2,769.9,340.8z M774.1,321
		c-3.9-1.2-8.1-0.4-12.1-1.3c-4-0.8-8-4.6-6.7-8.4c-2.9-0.2-5.9-0.5-8.8-0.7c-0.1,2.9-0.1,5.9-0.2,8.8c-3.5-2.7-6.3-6.3-8.2-10.3
		c0.6-0.9,1.3-1.9,1.9-2.8c8,0.9,15.9,2.4,23.6,4.4c3.3,1.2,7.3,0.4,9.9-2c1.4,1.1,2.8,2.1,4.2,3.2
		C775.7,314.4,774.4,317.7,774.1,321z M739.7,337.6c-0.1-1.9-0.5-3.7-0.5-5.6c0-0.9,0.1-1.7,0.3-2.5c1.5,0.1,3.1,0.3,4.6,0.4
		c-0.9,8.3-2.3,16.6-4.3,24.8c-1.3,0.1-2.6-0.2-3.7-1c-0.2-1.3-0.4-2.5-0.6-3.8c-1.7,0.3-3.6,0.5-5.1-0.2c-1.6-0.7-2.6-2.8-1.7-4.3
		c1.5-2.2,4.9-0.4,7.4-1.1C738.8,343.6,739.8,340.4,739.7,337.6z M724.5,334.5l0.3,0.2c-1.5,1-3.7,0.9-4.9-0.4
		c-0.5-2.5-0.9-5-1.4-7.5C722.3,327.6,726.9,331.4,724.5,334.5z M713.8,293.7c0.8,1.9,1.5,3.8,2.3,5.7c-2.9,1.2-6.4,0.7-8.7-1.4
		l1.8-1.4c-0.6-0.9-0.9-2-0.9-3.1c0-1.8,0.8-3.7,2.3-4.8c2.4-1.8,6.1-1.4,8,0.9C716.9,291,715.4,292.3,713.8,293.7z M698,281.4
		c0.2-2.3,1.1-4.5,2.7-6.1c2.4,1.8,4.9,3.5,7.3,5.3v0.1c0.1,1.1,0.2,2.3,0.4,3.4C704.7,284.5,700.9,283.6,698,281.4z M685.8,278.4
		c-3.5-1.4-6.2-4.4-9.9-5c-1.3-0.2-2.7-0.2-3.7-1c-0.4-0.3-0.5-0.8-0.5-1.3c0-0.8,0.5-1.6,1.3-1.5c7,1.5,13.9,3,20.9,4.5
		C694.6,277.8,689.3,279.8,685.8,278.4z M677.2,279.5c1,1.1-0.2,3.1-1.6,2.8c-5.3,3.4-12.5,3.9-18.2,1.1c-0.1-0.2-0.2-0.4-0.2-0.6
		c0-1.1,1.8-1.9,3.1-2C665.9,280.3,671.5,279.9,677.2,279.5z M666.5,272.6c-0.9,2.6-4.2,3.4-6.9,3.1c-4.2-0.5-8.2-2.8-10.6-6.3
		c4.1-0.1,8.3-0.2,12.5-0.3l0.6,0.3C663.4,267.1,667.4,270.1,666.5,272.6z M649.8,283.6c0-1.5,2.6-2.2,4.4-1.9
		c0.9,2.2,0.7,4.8-0.5,6.9c-1.3-1.5-2.6-3-3.9-4.5h0.1C649.9,284,649.8,283.8,649.8,283.6z M655.4,294.5c-0.4,2.1-3.8,2.8-5.1,1
		l0.1,0.4c-3.3,0.4-6-2.9-6-6.1c0-1.2,0.4-2.3,1.2-3.2C648.5,289.8,651.8,292.4,655.4,294.5z M646.1,299.2c1.8,2.2,5.1,2.2,7.9,2.1
		c2.8-0.1,6.2,0.1,7.8,2.4c1.6,2.4-1.7,6.4-3.7,4.4c-3.6-3.6-10-3.9-13.9-0.7c-1.2-0.4-1.7-1.4-1.7-2.5
		C642.5,303,644.1,300.4,646.1,299.2z M645,310c1.4,1.1,2.7,2.2,4.1,3.3h0.1c0.5,2.6,0.9,5.3,1.4,7.9c-2.9,1-6.4-0.4-7.7-3.2
		c-0.4-0.8-0.6-1.8-0.6-2.7C642.3,313.3,643.3,311.2,645,310z M700.1,502.2c2.4,0.5,3.8,2.9,4.9,5.1c-0.6,1.1-1.2,2.2-1.9,3.3
		c-2.5,0-4.9-1.7-5.7-4.1l-0.1,0.1c-0.5-0.4-0.8-0.9-0.8-1.4C696.5,503.7,698.3,501.9,700.1,502.2z M699.5,481.9
		c-2.2-2-5.7-2.6-8.5-1.4c-0.2-0.5-0.3-1-0.3-1.5c0-0.9,0.3-1.8,0.9-2.5c1.9-0.5,4.1,0.1,5.5,1.6c1.5-1.3,2.9-2.6,4.4-3.8
		c1.6,1.3,3.2,2.6,4.8,3.9C703.9,479.2,701.7,480.4,699.5,481.9z M715.8,528.1c1.3,0,2.6,1,2.9,2.3c-0.4,1.8-3.3,3.6-3.4,1.8
		c-0.3-0.5-0.4-1.1-0.4-1.7C714.9,529.7,715.2,528.8,715.8,528.1z M717.4,506v0.2c2.5-0.1,4.2,3.6,2.4,5.4
		C717.2,511.6,715.6,507.9,717.4,506z M716.6,458.1c-3.4,2-4.9,6.7-3.4,10.3c1.5,3,2.9,5.9,4.4,8.9c-1.6,0.5-3.1,0.9-4.7,1.4
		c1.8,0.8,2.7,3.2,1.9,5c-1.8-0.1-3.7-0.3-5.5-0.4c0.1-7,0.3-14,0.5-21.1c0.1-2.5-0.2-5.7-2.5-6.6c5.1-1.9,11.3-0.7,15.3,3
		c-0.2,1.7-0.5,3.3-0.7,5C719.3,462.9,717.1,460.7,716.6,458.1z M722,487.5c1.5-2,4.7-2.8,6.7-1.2c1.9,1.6,1.2,5.5-1.3,5.9
		c1.5,1,1.7,3.5,0.3,4.7h-0.2c-1.1,2.6-5.3,0.5-6.2-2.2c-0.3-1-0.5-2.1-0.5-3.1C720.7,490.2,721.1,488.7,722,487.5z M729.2,476.8
		c0.4,2.9-1.6,6.2-4.6,6.5c-0.6-1.8-1.3-3.6-1.9-5.4h0.7c0-2.5,0.1-5,0.1-7.6C726.4,471.5,728.7,473.8,729.2,476.8z M725.4,462.7
		c1.6-0.6,3.2-1.2,4.9-1.8v0.1c1.6,1.4,2.5,3.6,2.4,5.7C729.8,467.2,726.7,465.4,725.4,462.7z M730.7,546.1l0.5-0.1
		c1.5,2-1.9,4.5-4.4,3.8c-0.4-1.4-0.7-2.8-1.1-4.2c-1.9,0.2-4-0.8-4.9-2.6C723.9,540,729.9,541.9,730.7,546.1z M721.9,529.5
		L721.9,529.5c1.2-0.7,2.5-1.3,3.7-1.8c2,1.7,3.6,3.9,4.7,6.3l0.3,1C726.9,536.7,721.9,533.5,721.9,529.5z M721.4,518.1
		c2.5-1,2.4-3.7,2.4-6.6c0-2.2-0.1-4.5,1-6.2c1-1.5,2.9-2.4,4.6-2.1c-0.6,1.7-0.8,3.5-0.8,5.3c0,4.5,1.7,9.1,4.9,12.4
		C729.8,523.5,723.7,522.2,721.4,518.1z M812.8,423c3,1.9,3.4,6.9,0.7,9.3c-1.1,0.9-2.5,1.5-3.5,2.5s-1.4,2.9-0.2,3.8
		c4.2,3,1.9,11.1-3.3,11.4c-0.6-2.3-0.8-4.7-0.8-7.1C805.7,435.7,808.2,428.6,812.8,423z M810.4,419L810.4,419
		c0.1-1.5,1.3-2.5,2.4-3.3c2,0.6,2.3,3.8,0.5,4.7l-0.1-0.2C812.5,421.5,810.4,420.4,810.4,419z M806.1,412.9
		c-1.2,9.7-4.3,19.2-9.2,27.8c2.1,0.3,4.2,0.7,6.3,1.3c-1.2,3.5-2.4,7-3.6,10.6c-1.4,3.9-7,5.6-10.3,3c-2.1,3.1-4.8,5.8-7.9,7.9
		c-0.8-1.7-1.6-3.4-2.4-5.1c-0.3-4,5.2-5.1,9.2-5.3c4-0.2,9.3-3.2,7.3-6.6c-4-1.6-8.8-0.9-12.2,1.7c-2.3-1.2-3.3-4.4-2.2-6.7
		c5.1-1.2,10.4-1.4,15.6-0.8c-1.3-9.4,0.8-19.2,5.8-27.3c-5-1.4-8.8,4.7-9.7,9.8c-0.8,5.1-1.1,11.2-5.4,14c-1.1-2-3-3.6-5.2-4.4
		c0.1,1.7-1.9,2.6-3.5,2.9c-11.9,2.4-24.6,0.4-35.1-5.5c10.8-0.1,21.6-0.2,32.4-0.2c4.4,0,9.7-0.6,11.5-4.6c0.7-1.6,0.7-3.5,0.6-5.3
		c0-0.5,0-1,0-1.5c0-1.2,0.1-2.3,0.5-3.4c1.3-3.6,5.5-5.2,9.3-5.9c6.2-1.3,12.6-1.5,18.9-0.7c0.2,1.6-0.2,3.2-1,4.6
		C812.6,412.5,809.3,412.4,806.1,412.9z M790.6,404.7c0.9-0.9,0.9-2.4,0.8-3.8c0-0.4,0-0.8,0-1.1c0-1.1,0.2-2.1,1.1-2.7
		c0.5-0.3,1.1-0.3,1.6-0.3c10.5-0.6,21.1-1.1,31.6-1.7c3.1,2.5,1.7,7.5,0.2,11.2s-2.3,9.1,1.3,10.8c-3.1,2.7-7.8-1.8-7.8-5.9
		s2.3-8,2-12.1C811.1,400.9,800.9,402.8,790.6,404.7z M820.6,421.4l0.2,0.4c2.2-0.9,4.7-0.7,6.8,0.4c2.6,3.1-0.5,8.8-4.5,8.3
		c-2.6-0.3-4.2-2.9-4.2-5.5C818.9,423.6,819.5,422.3,820.6,421.4z M821.8,349.3c0.5,1.3,1,2.5,1.6,3.8l0.4-0.1
		c-0.5,2.9-0.9,5.8-1.4,8.7c-1.5,0-3,0-4.5,0c0.3-3.7-0.6-7.4-2.4-10.6C817.4,350,819.6,349.4,821.8,349.3z M816.9,341.1
		c-3.2,3.2-8.6,1.1-13-0.1s-11,0.7-10.1,5.1c-1.8-1.3-2.7-3.6-2.7-5.8c0-2.3,1-4.6,2.9-6C802.1,333.6,810.5,336,816.9,341.1z
		 M791,329.5c-0.2-0.3-0.3-0.7-0.3-1.1c0-0.3,0.1-0.6,0.2-0.9c0.4-0.7,1.3-1,2.1-1.3c5.5-2,11-3.9,16.5-5.9
		C806.6,327.2,798.3,331.4,791,329.5z M795.6,316c2,0.1,1.1,3.9-0.9,3.7c-1-1-0.4-3,1-3.4L795.6,316z M803.2,309.7
		c-1.3,1.2-2.6,2.3-3.9,3.5c-1.9-3.3-7.2-2.8-9.8-0.1c-2.6,2.7-3.3,6.8-3.8,10.5c-2.5-1.7-3.8-4.7-3.8-7.8c0-3.3,1.5-6.6,4.3-8.2
		C791.3,304.5,797.8,307,803.2,309.7z M756.8,290.7c9.4,5.8,21.2,7.4,31.7,4.5c1.9-0.5,3.5,2,2.9,3.9s-2.4,3.1-4.1,4.1
		c-2.3,1.1-5.5-0.2-6.3-2.6c-7.4,6.9-20.8,5.3-26.4-3C755.4,295.3,756.1,293,756.8,290.7z M741.6,285c6.1,3,9.1,11.2,6.3,17.4
		c-3.7-2.9-7.5-5.9-11.2-8.9c-2.3,1.3-5.3,1.2-7.5-0.2c-0.3-1.8,0.2-3.7,1.2-5.2c3.4,2.1,7.8,2.7,11.6,1.4c-0.7-0.7-1-1.6-1-2.6
		C741,286.3,741.2,285.6,741.6,285z M737.4,257.8c-0.5,1.5-1.9,2.6-3.4,2.7c3.9,4.8,4.6,11.9,1.9,17.4c-3.6,0.2-4.8-4.7-4.9-8.3
		c0-4.3,0-8.7-0.1-13C733.1,256.5,735.4,256.9,737.4,257.8z M726.5,282.8c3.9-2.4,9.3-1.9,12.7,1.3c-4.3,0-8.5,0-12.8-0.1
		L726.5,282.8z M726.9,304.3l-0.4,0.3c0.9,3.1-0.1,8.1-3.1,7.1c-1.5-2.3-2.9-5.2-2.9-7.8c0-1.4,0.4-2.6,1.4-3.7
		c0.9,1.4,3.2,1.5,4.3,0.3C727.2,301.5,727.5,303.1,726.9,304.3z M725.5,292.8l-0.4,0.4c-0.8,1.4-3.3,1.4-4-0.1
		c-0.1-0.3-0.2-0.6-0.2-0.9c0-1.3,1.2-2.6,2.5-2.4C724.1,290.8,724.8,291.8,725.5,292.8z M674.6,260c1.7-0.1,3.4,0.7,5,1.5
		c7,3.2,15,4.3,22.6,3.2c-0.1-3.1-4-4.3-7.1-4.7c-7-0.8-14-1.6-21-2.4c-0.2-0.3-0.3-0.6-0.3-0.8c0-1.5,2.8-2.6,4.7-2.5
		c12.1,0.8,24.2,1.7,36.3,2.5c2.1,0.1,4.2,0.3,5.9,1.6c4.1,3.1,1.8,9.6-0.9,14.1c-0.8-0.5-1.5-1.1-2.3-1.6c0.6-3.4-1.3-7.2-4.4-8.8
		s-7.2-0.9-9.7,1.5c1.6,2.9,4.3,5.2,7.5,6.2c0.4,2.4,2.4,4.2,4,6.1c1.7,1.8,3.1,4.3,2.2,6.6c-0.9,2.3-5.3,2.2-5.2-0.3
		c0.4-6.6-7.5-10.2-13.9-11.9c-8.9-2.3-17.8-4.6-26.7-7C671.1,261.6,672.8,260.1,674.6,260z M618,253.3c4.3-4.5,12.5,3.5,17.7,0
		c7,0.5,14.1,0.5,21.1,0c4.4-0.3,8.8,2.6,10.2,6.8c0,0.9,0,1.8,0,2.6c-1.8,1.7-4.8,0.8-6.8-0.7s-3.8-3.4-6.3-3.7
		c-4.6-0.5-9.3,5-13,2.3c-5.5,1-11,2-16.5,3c-2-1.9-4-3.7-6-5.6c-0.8,1.7-1.5,3.5-2.3,5.2c4.4,1.9,8.8,3.7,13.2,5.6
		c-1.4,3.8-2.8,7.6-4.2,11.4c1.3,2.7,2.5,5.4,3.8,8.1c4.2-0.4,5.1-6.1,5-10.3c0-4.2,1.8-9.9,6-9.4c2.6,0.7,4.4,3.8,3.7,6.4
		s-3.8,4.4-6.4,3.7c3,2.6,1.8,7.9-1.3,10.5c-3.1,2.5-7.3,3.1-11.3,3.5c-8.3-6.1-2.7-20.6-9.3-28.5c-0.8-0.9-1.1-2-1.1-3.1
		C614.2,258.6,616.1,255.6,618,253.3z M604.2,247.9c3.3-3.8,5.8-8.2,7.4-12.9c0.8,3.9,1.6,7.8,2.4,11.7
		C610.8,247.7,607.5,248,604.2,247.9z M613.8,513.9c4.4,0,9.2,1.5,12.9-0.9c0.8-0.5,1.5-1.2,2.3-1.4c1.2-0.3,2.4,0.3,3.5,0.9
		c4.7,2.5,9.4,4.9,14.1,7.4c-4,1.1-8.3,1.4-12.4,0.9c1.1-1.8-0.5-4.3-2.5-5s-4.2-0.1-6.3,0.5c-6.4,1.8-12.9,3.6-19.3,5.4
		c-0.3-0.6-0.5-1.2-0.5-1.7C605.7,516.7,610.1,513.9,613.8,513.9z M600.7,531.9l0.2-0.2c-0.2-1.1-0.5-2.1-0.7-3.2
		c2.6-1.6,6.1-1.3,8.4,0.6c0.7,4.6-3.8,9.3-8.4,8.8C601.3,536.2,601.5,533.8,600.7,531.9z M583.2,523.8l0.1-0.3
		c-0.7-0.4-1.1-1.2-1.1-2c0-0.5,0.2-1.1,0.6-1.5C584.9,519.7,585.3,523.7,583.2,523.8z M586.5,517.1l-0.5-0.2
		c-0.2-0.6-0.3-1.3-0.3-1.9c0-3.2,2-6.4,5.1-7.5C591.1,511.4,590.4,516.7,586.5,517.1z M592.5,502.8c-0.7-1.6-0.9-3.4-0.3-5.1
		l-0.1-0.1c1.3-1.6,2.6-3.1,3.9-4.6C596.1,496.6,594.8,500.1,592.5,502.8z M606.2,547.8c-4.7,0-10-1.3-12.4-5.5
		c2.3-2.3,6.2-1,9.4-0.1s7.8,0.1,7.9-3.2c4.7-0.1,9.1,3.9,9.4,8.6C615.8,546.7,611,547.8,606.2,547.8z M620.5,538
		c-1.6-0.8-3.1-1.6-4.7-2.4c0.2-3.2,0.5-6.5,0.7-9.7l-0.3-1.3c2.4,0.2,4.5,2.2,5,4.5C621,532.1,620.7,535,620.5,538z M630.2,549.3
		c-1.8,1.2-4.5,1.7-6.1,0.2c-0.6-0.5-0.8-1.3-0.8-2.1c0-1.4,0.9-2.8,2.3-2.7l0.1-0.9c2.4,0.8,5.1,0.6,7.3-0.7
		C633.7,545.4,632.2,548,630.2,549.3z M639.4,546.7c-1.1-1.2-0.5-3.1,0.3-4.5c0.9,1,1.7,2,2.6,3h-0.2
		C643.1,546.3,640.4,547.9,639.4,546.7z M645.8,553.6c-0.7-0.3-1.1-1.1-1.1-1.8c0-0.9,0.5-1.8,1.3-2
		C647.6,550.4,647.4,553.2,645.8,553.6z M663.4,553.1c-5.1,0.1-9.3-3.8-13.3-7.1c-6-5-12.8-9-20-12c0.2-1.9,0.5-3.9,0.7-5.8
		c4.6-3.5,11.5-3.3,15.9,0.5c2-3.5,2.8-7.6,2.3-11.6c1.6-0.6,3.1-1.2,4.7-1.8c-0.3,5.9-1,11.8-1.9,17.7c-5.3-0.9-10.4-2.7-15-5.3
		c-1.4,0.8-1.4,3-0.4,4.2c1,1.3,2.6,1.9,4.2,2.4c6,2.3,11.7,5.5,16.7,9.4c1.7,1.3,3.5,3.4,2.5,5.3c1.6-0.2,3.2,0.4,4.3,1.5
		c7.4-5.5,19.6-2.2,23.2,6.3C679.5,554.3,671.4,553,663.4,553.1z M688.1,550.6l0.5-0.1c-0.1-0.4-0.1-0.8-0.1-1.2
		c0-1.2,0.4-2.5,1-3.5c2.2-0.5,4.6,0.4,5.9,2.3C693.6,550.7,689.5,553.4,688.1,550.6z M736.6,543.6c2.2-0.6,4.8,0.4,6.1,2.4
		c-0.2,1.9-0.5,3.8-0.7,5.7l-0.7-0.1c-2.8-0.5-4.9-3.3-4.9-6.1C736.3,544.8,736.4,544.2,736.6,543.6z M749,558
		c1.7,0.2,3.6,0.5,4.7,1.9c1.1,1.4,0.3,4-1.4,3.8c-12.8-1.8-25.7-3.5-38.5-5.1c-5.3-0.9-10.7-1.8-16.1-2.7c0.7-2,3.4-2.5,5.5-2.1
		s4.2,1.4,6.3,1c4.9-0.8,5.8-8.4,2.3-11.9c-3.5-3.6-8.9-4.1-13.9-4.2c0.8,2.3-3.2,3.1-5.4,2c-2.2-1.2-5.3-2.7-6.7-0.7
		c-1.5,2.1-4.6,0.3-6.8-0.9c-2.2-1.3-6.4-0.1-5.2,2.1c-1.7,2.1-4.9-0.5-5.7-3c-0.9-2.5-1.9-5.8-4.5-5.8c0.2-3.4,5.3-2.7,8.4-1.3
		c8.1,3.8,17.4,5.2,26.3,3.7c10.8-1.7,21.8,8.6,20.7,19.5C729,555.5,739,556.8,749,558z M701.7,546c0.6-1.9,3-2.9,4.8-2.1
		c1.8,0.8,2.6,3.3,1.6,5h-0.6c-1.4,0.3-2.9,0.5-4.3,0.8C702.7,548.5,702.2,547.3,701.7,546z M743.4,517.6c-1.8-0.1-2.1,2.5-2.3,4.2
		c-0.2,1.8-2.8,3.5-3.4,1.8c2.2-3.5,0.4-8.8-3.5-10.2c0.1-1.4,1.1-2.6,2.3-3.1c2.8,1.3,5.6,2.5,8.4,3.8l-0.4,0.5
		c3.4-0.9,7.3,2.1,7.3,5.6C749.2,522.8,744,521.1,743.4,517.6z M746.8,504.2c-0.9-3.2,4-6.3,6-3.7c0.9,1.2,0.8,2.8,1.4,4.2
		c0.6,1.4,2.7,2.3,3.4,1c-1.6-3.3,3-6.4,6.6-6.2c3.7,0.2,7.6,1.6,10.8-0.3c1.3,0.4,1.3,2.5,0.2,3.4s-2.6,0.9-4,0.8
		c-2.1-0.1-4.3-0.2-6.4-0.3c-1.4,0.3-2.1,1.7-2.1,3.1c0,1,0.4,1.9,1.2,2.4c4.6-4.3,13.7-0.4,13.8,5.9c-6.3-0.9-12.8-1.1-19.2-0.4
		c-2.2-1.5-3.6-4.2-3.5-6.9C752,508.5,747.7,507.3,746.8,504.2z M774.7,548.8c-2.1,0-3.8-1.6-5.5-3s-4-2.4-5.8-1.2
		c-1.8,1.1-4.4-0.2-5.2-2.2s-0.5-4.2-0.1-6.3c5.5,0.7,11.1,1.4,16.6,2c1.1,0.1,2.5,0.5,2.8,1.6c0.2,0.7-0.1,1.5-0.5,2.3
		c-0.3,0.6-0.5,1.2-0.5,1.7c0,0.3,0.1,0.6,0.5,0.9C778.6,545.8,776.8,548.8,774.7,548.8z M787.9,546.7l-0.4-0.2
		c-1.3,1.1-2.6,2.2-3.8,3.3c-0.8-1.2-1.2-2.7-1.2-4.2c0-2,0.8-4.1,2.2-5.5C787.3,540.8,789,544.2,787.9,546.7z M790.8,528.1
		c-0.4,2.7-2.5,4.8-4.5,6.6c-1.5-1.2-3-2.4-4.5-3.6c1.6-0.7,1.3-3.6-0.4-4c-1.3,4.2-6.9,4.7-11.2,4.5c-2.9-0.2-5.7-0.3-8.6-0.5
		c-1.7-2.1-2.9-4.7-3.4-7.4c-2.3,0-4.5-1.7-5.2-3.8c6.6-2.3,13.9-2.3,20.5,0c-0.1,4.9-10.3,0.9-12.1,5.4c0.4,2.4,3.8,2.5,6.1,1.9
		c6.3-1.4,12.5-2.9,18.8-4.4C788.9,522.2,791.2,525.4,790.8,528.1z M800.5,513.6c-2.9,1.9-7.5-0.6-7.5-4v-0.1c2.9-2.2,8,0.2,8.1,3.8
		L800.5,513.6z M792,503.5L792,503.5c-1.2,0.2-1.9-1.1-1.9-2.2c0-0.9,0.4-1.8,1.4-1.9c2.4,0.7,5.1,0.1,7.1-1.4
		c1.1,1.3,2.2,2.6,3.3,3.9C798.9,503.5,795.4,504.1,792,503.5z M799.8,493.1c0.1-5.7,0.2-11.3,0.3-17c0-2.3,0.1-4.7,1.5-6.6
		c1.4-1.8,4.5-2.5,5.9-0.7c-3,7.4-4.5,15.4-4.3,23.3C803.1,493.6,800.7,494.3,799.8,493.1z M825.5,504.4c-2.4,1.1-5.1,1.2-7.7,1.2
		c-4.6,0.1-9.6,0-13-3.1c7.3-2,14.7-4,22-6c1.1-0.7,2.8,0.3,2.6,1.6C829.8,500.7,827.9,503.3,825.5,504.4z M807.9,491.9
		c0-2.8,0.8-5.7,2.2-8.2c4.6,3.4,10.4,5,16.1,4.4c-0.6,3.3-5.2,5-7.8,2.9c-2.4,3-6.8,4.2-10.3,2.8
		C807.9,493.3,807.9,492.6,807.9,491.9z M824.9,482.8l-1-0.5c2.9-3.2,8-3.9,11.7-1.8C833,483.5,828.4,484.5,824.9,482.8z
		 M843.7,475.1c-1.5,0.6-3.2,0.5-4.9,0.5c-7-0.2-14-0.5-20.9-0.7c-1.5,2.8-5.6,3.8-8.3,2c-0.4-0.7-0.6-1.4-0.6-2.1
		c0-2.4,2.2-5,4.7-5.7c3.3-0.9,6.7,0.1,10.1,0.8c7.8,1.6,16.1,0.9,23.6-1.8C848,470.9,846.3,474.1,843.7,475.1z M843.3,446.2
		c-0.7-3.2-0.3-7.1-2.8-9.3c-5.2,1.9-10.7,3.3-16.2,4c-2,0.3-2.4,3-2.9,5s-3.2,4-4.2,2.3c-2.4-4.7,1.7-10.4,6.6-12.3
		c4.9-1.9,10.4-1.3,15.6-1.9c-2.9-2.1-5.9-4.1-8.8-6.2c1.9-3.6,8.9,2.1,11.1-1.3c0.6-1,0.5-2.2,0.3-3.4c-0.6-3.5-1.2-7-1.8-10.6
		c1.5-1.4,3.1-2.9,4.6-4.3c-3.3-0.9-6.5-1.8-9.8-2.6c-0.4-2.6,3.2-3.9,5.9-3.6s5.8,1,7.6-1c1.4,13.5,1.5,27.1,0.3,40.6
		c-0.1,0.9-0.2,1.8-0.2,2.7c0,2,0.3,3.9,1.7,5.3C848.4,452.4,844,449.4,843.3,446.2z"/>
	<path class="st1" d="M769.4,264.7c-4.4,0.4-10.5,2.3-12.2-1.8c-1.3,0.4-1.8,1.7-1.8,3c0,1.5,0.7,3,1.9,3.9c2.4,1.6,5.4,1.2,8.2,0.8
		c5.2-0.6,11-0.7,16.1,0.4c-1.3-1.7-2.5-3.5-3.8-5.2C775.1,265.1,772.3,264.4,769.4,264.7z"/>
	<path class="st1" d="M823,338c2.6-0.1,5.2,0.7,7.4,2.1c-0.3-0.4-0.7-0.8-1-1.3c-1-0.5-1.8-1.8-2.4-3.3
		C825.4,335.3,823.5,336.4,823,338z"/>
	<path class="st1" d="M741.9,620.5c-96.6-7.6-193.1-15.2-289.7-22.8c10.5-7.9,25.3-3.3,38.4-2.1c32.9,3,66.1-21.7,72.5-54.1
		c-11.2,28.7-40.6,49.4-71.4,50.2c27.4-26.6,55-53.7,74.3-86.6c24.7-42.1,34.8-93.7,26-141.8c-5.6,0.1-10.9,4.3-12.1,9.7
		c-3.2-4-4.3-9.6-2.7-14.5c6.2,1.7,12.3-4.2,13.3-10.6s-1.6-12.6-4.2-18.5c-0.6,8.5-4.7,16.7-11.2,22.3c-11-40.2-29.7-78.9-58-109.6
		s-66.6-52.9-108-57.9c-38.3-4.6-76.7,5.5-113.7,16.5c-0.9-2.9-1.7-5.8-2.6-8.7c-3.5,6.1-9.4,10.6-16.1,12.5
		c1.7-3.8,3.5-7.7,5.2-11.5c-9.9-1.9-19.1,0.9-28.3,3.8c0.1-4.5,11.1-54.2,13.2-54.2c93.1,2.6,186.2,5.1,279.3,7.7
		c3.6,0.1,7.6,0,10-2.6s0.4-8.3-3-7.4c-88.2-2.7-176.4-5.3-264.6-8c-9.5-0.3-20.3-0.1-26.8,6.9c-0.5-5.1,2.6-10.4,7.2-12.6
		c-76.8-4.8-153.7-7.1-230.6-6.7c0.5,8.1,1,16.3,1.6,24.4c1.6-7.4,3.1-14.9,4.7-22.3c9.4-4.7,21,4.1,23.2,14.3s-1.9,20.7-6,30.3
		c0.1-11.3-15.4-19.1-24.4-12.3c8.5-3.9,19.8,5,17.9,14.2c3.4,1.2,6.8,2.3,10.2,3.5c4.6,10.4,2.4,23.4-5.4,31.7
		c2.7-10.4-0.2-22.1-7.4-30.1c-3.8,23.6-7.6,47.2-11.4,70.8c-1.4,8.9-3.3,18.5-10.2,24.2c1.3-12.9,13.2-80.5-7.6-81.1
		c8.6,112.4,3.1,226-16.7,337c-1.6,9-3.3,18.6-0.3,27.3c2.9,8.7,12.3,16,21.1,13.2c-10.2,8.1-4.9,25.5,5.5,33.4
		c10.4,7.8,24,10.2,35.2,16.9c10.9,6.5,19.3,17.2,23.1,29.3c8.2,26.6,28.6,47.8,53.9,58.9c-2.9,2.8,1.7,7.1,5.6,8.3
		c49.9,15.6,106.1,8.8,150.3-19.3c21.9-13.9,47.8-19.5,73.1-24.9c26.2-5.6,52.5-11.2,78.7-16.8c1.7-0.4,4.1-0.4,4.7,1.2
		c59-5.1,118.5-4.1,177.2,3c25.7,3.1,51.4,7.3,77.1,8.2C725.1,651.8,732.1,635,741.9,620.5z M582,413c-0.7-1.2-1-2.5-1-3.8
		c0-1.7,0.5-3.4,1.6-4.8h0.3C585,406.9,584.5,411,582,413z M580.1,380.6c4.2,0.9,5.8,7.4,2.4,10.1l-0.1,0.6c0.3,1.9-2.1,3.5-3.8,2.6
		C578.8,389.5,579.3,385,580.1,380.6z M326.5,225c46.4-4.9,94.2,14,126.8,47.4c32.7,33.4,50.4,80.2,51.1,126.9
		c-5.6-22.3-11.2-44.7-20.1-65.9c-18.4-43.6-52.8-82-97.5-97.4C367.4,229.4,346.8,227.2,326.5,225z M367.9,277.8L367.9,277.8
		c-1.4,1-3.8,0.6-4.7-1c1-1,2.2-2.1,3.6-2S369.2,277.2,367.9,277.8z M357,275.6c-1.6,0.3-3.3,0-4.7-0.9c0-0.1,0-0.2,0-0.2
		c0-1.5,2.2-2.2,3.6-1.6h0.1C357.2,272.5,358.2,274.9,357,275.6z M329.2,462.4c2.6,2.3,5.5,4.6,6.6,7.9
		c-13.1-5.7-24.2-15.9-30.8-28.6c-10.5-18.6-13.6-41.2-8.5-61.9c3.1-0.5,4,4.1,3.6,7.3c-0.4,3.2-0.6,6.4-0.6,9.7
		C299.5,421.5,310.5,446.1,329.2,462.4z M312.4,306c3.9-3.4,9.2-5.2,14.4-4.7c-0.3,0.9-0.6,1.9-0.9,2.8
		C321.4,304.8,316.9,305.4,312.4,306z M325.1,272.6c5-0.4,10-0.7,15.1-1.1c1.9-0.1,4.6,1.6,3.1,2.8c-1.9-0.4-3.8-0.3-5.6,0.2
		l-0.5-0.8C333.6,276.3,328.1,275.8,325.1,272.6z M413.2,223.8c-0.3-0.9-0.4-1.9-0.4-2.8c0-3,1.2-6.1,3.5-8.2
		c0.9,6.5,8.8,11,14.8,8.4c-0.6,3.1-3.3,5.8-6.5,6.1c2.5,3.8,0.8,9.7-3.4,11.7c1.9-3.9-2.7-8-6.9-9c-4.2-1-9.2-0.9-12.2-4
		c-4.1-4.3-10.6-6.1-16.3-4.6c-0.9-3.2,2.6-5.8,5.7-6.9c3.1-1.1,6.8-2.2,7.9-5.3c1.9,1.3,3.9,2.6,5.8,3.9
		C403.5,218,407.9,223.9,413.2,223.8z M432,230.2c1.9-0.1,3.6,0.9,5.1,1.9c1,0.6,2,1.3,2.3,2.4c0.7,2.2-2.1,4.1-4.3,3.6
		c-2.2-0.5-3.7-2.5-5-4.4l-1,0.3c-0.1-0.3-0.2-0.5-0.2-0.8C428.9,231.7,430.4,230.3,432,230.2z M478.3,362.3
		c-0.6-2.1-1.1-4.4-1.1-6.6c0-1.4,0.2-2.8,0.9-4c10.4,27,13.1,56.9,7.7,85.3c-0.9,5-2.1,9.9-3.3,14.8c-2.3,9.6-4.7,19.3-7,28.9
		c-2.2,0-3.8-2.2-4-4.4c-0.2-2.2,0.6-4.3,1.3-6.3C485.5,435.8,487.5,397.7,478.3,362.3z M465.4,501.3c-0.8,0-1.1-0.6-1.1-1.3l0,0
		c0-1.1,0.8-2.5,2.1-2.4c1,1,0.4,3-1,3.3V501.3z M453.5,515.4c2.3-3.1,4.7-6.3,7-9.4c2.6,2.1,0.8,6.3-1.3,9
		c-9.7,12.4-21.4,23.3-34.5,32.1c-1.9-0.4-3.5-1.8-4.2-3.5c6.3-2.2,12.1-5.5,17.1-9.8C443.8,528.5,448.7,521.9,453.5,515.4z
		 M466,583.4c-1.1,0.8-2.4,1.7-3.7,1.3c-1-0.3-1.6-1.4-1.6-2.4l0,0c0-1.5,1-2.8,1.9-4c2.4-2.9,4.9-6,8.2-7.7
		c3.4-1.7,7.9-1.9,10.6,0.8C476.4,575.3,471.2,579.3,466,583.4z M477.2,588.4l-1.6,0.3c0-0.3-0.1-0.6-0.1-0.9
		c0-4.8,6.3-8.7,10.5-6.1C483.5,584.4,480.5,586.7,477.2,588.4z M493.6,580.3c-0.4-0.7-0.5-1.4-0.5-2.2c0-1.8,0.9-3.6,2.5-4.5
		l0.4,0.1c1.4-3.5,6.3-4.9,9.3-2.6C501.4,574.1,497.5,577.2,493.6,580.3z M512.6,566l-1-1.7c0-5.2,6.7-9,11.1-6.4
		C519.4,560.6,516,563.3,512.6,566z M521.4,526.6c-2.1,1.6-4.9,3.8-4.1,6.4c-3.7,0-7.4,1.7-9.9,4.5c0.4,2.9,0.8,5.7,1.2,8.6
		c-1.2,4.2-5.8,6.1-9.6,8.1c-5.1,2.7-9.6,6.6-13,11.3c-3.7-3.1-1.2-9.4,2.8-12.1c4-2.7,9.1-3.4,12.9-6.4s5.2-9.9,0.8-12.1
		c6.9-5,13.7-10,20.6-15C525.3,521.4,523.6,524.9,521.4,526.6z M534,502.4L534,502.4c-3.9,2-7.9,4-11.8,5.9
		c-0.3-0.6-0.5-1.1-0.5-1.7c0-2.4,2.4-4.9,4.9-5.8c3.1-1.2,6.8-1.4,9.2-3.7C537,498.9,536,501.7,534,502.4z M536.6,382.1
		c-3.4-11.7-5.9-23.7-7.5-35.8c-1.6,3.5-4.2,6.5-7.4,8.6c8,5,8.8,18.3,1.3,24.1c2.6,0.6,5.3,1.1,7.9,1.7c-0.1,3.6,1,7.1,1.3,10.7
		c0.2,3.6-0.7,7.6-3.6,9.6s-8.1,0.2-8.1-3.4c1.7-0.9,3.5-1.8,5.2-2.7c-2.4,0.3-4.7-2-4.6-4.4s2.8-4.3,5.1-3.7c-2.5-1-5.1-2-7.6-3
		c-7.5-33.8-22.4-65.9-42.3-94.3c-12.2-17.4-26.3-33.3-42.1-47.6c4.1-1.8,8.4-3.2,12.8-3.9c1.4-0.2,2.9-0.4,4.3,0.1
		c3.7,1.4,3.4,5.7,3.1,10.1c-0.3,4.2-0.6,8.6,2.7,10.5c4.2-0.7,8.4-0.7,12.6,0.1c-0.3-2.5,0.9-5.2,3.1-6.5c4.1,0.5,7.7,3.9,8.6,8
		c-3.3,1.5-6.3,3.6-8.7,6.3c0.1,3.2,1.1,6.3,2.8,9c0.6-4,3.6-7.6,7.4-8.9c2.1,1.3,4.1,2.7,6.2,4c-3.8,4.1-7,8.6-9.7,13.5
		c6.4-1.5,11.8-6.9,13.3-13.3c25.3,29.3,41.6,66.2,46.2,104.6C539.1,378,538.9,381.2,536.6,382.1z M551.1,369.4
		c-2.2,0.1-4.1,1.3-5.9,2.5c-0.5-2.8-1.7-5.4-3.5-7.6c1.6-0.7,3.4-0.4,5-0.7c1.7-0.3,3.4-1.8,2.9-3.4c3.1,2.7,6.4,5.6,7.8,9.5
		s0.1,9.1-3.8,10.5c-5.3,1.9-8.5,8.2-7,13.6c-3.2-3.5-4.2-8.9-2.3-13.2s6.5-7.4,11.2-7.4C555.6,371,553.3,369.3,551.1,369.4z
		 M556.4,395c-1.3,0.6-2.6,1.2-3.9,1.8c-0.1-2.1-0.1-4.1-0.1-6.2c1-1,3.1-0.4,3.4,1h0.6C556.3,392.6,556.4,393.8,556.4,395z
		 M557.2,409.7l-0.7-1.2c-3.2,2.5-8.4,1.7-10.7-1.6c2.4-0.3,4.9-0.7,7.3-1c1.4-0.2,2.8-0.3,4,0.4S558.5,409.1,557.2,409.7z
		 M424.1,200c5.8,6.4,16.9,4.3,23.7,9.6c2.9,2.3,4.8,5.8,7.6,8.2c2.9,2.4,7.8,3.2,10,0.1c15.6,16.1,31.9,31.6,48.8,46.4
		c-2.5,2.1-5.6,3.6-8.8,4.2c6.6,1.7,13.3,3.3,19.9,5c1.6,2,3.3,4,4.9,6c10.7,14.6,20.5,29.8,29.4,45.5c-2.7-0.4-5.4-0.8-8.1-1.2
		c2.9,1.6,2.7,6.7-0.3,8.1c-3.9-9.3-7.8-18.5-11.7-27.8c-0.6,2.6-0.8,5.3-0.8,8c0,11.7,5.4,23.3,14.3,30.9c-0.8,5.4-6,9.8-11.5,9.9
		c-7.5-19-15.1-38.1-22.6-57.1c3.9,1.8,8.9,0.7,11.7-2.6c-12.7,1.5-22.9-9.6-30.8-19.6c-7.5-9.5-15.1-19.3-19.3-30.6
		c-8.3,0.4-16.6-4.8-19.9-12.5c-2.2-5.3-8.8-6.7-14.3-8.2c-5.5-1.6-11.8-5.7-10.6-11.3c-12.2-3-24.5-6-36.7-9
		c-7-1.7-15.3-4.6-17-11.7C396.2,193.4,410.2,196.7,424.1,200z M368.7,189.2l0.3-0.3c0.8,2.3,4,2.3,6.4,2.8s4.7,3.8,2.6,5
		c-7.9-0.4-15.7-2-23.1-4.8C357.4,187.5,363.8,188,368.7,189.2z M311.6,205c2.3-4.3,8-6.4,12.5-4.6c2.4,0.9,5.1,2.8,7.2,1.3
		c5.1-3.6,12-4.5,17.8-2.3c0.9,2.9-1.5,6.3-4.5,6.5c0.1,1.4,0.8,2.8,1.8,3.7c3.9-1.9,7.1-5.2,9-9.1c3.8,1.5,7.2,4.2,9.5,7.6
		c-0.1-0.4-0.2-0.8-0.2-1.1c0-2.1,1.8-4.1,3.9-4.8c2.5-0.8,5.1-0.2,7.7,0.4c5.7,1.3,11.5,2.6,17.2,3.9c-0.3,1.1-0.6,2.2-0.9,3.4
		c-5.9-1.2-10.3,5.1-13,10.4c-2.1,1.2-3.7-2.4-2.9-4.6c0.9-2.2,2.7-4.6,1.6-6.7c-1.3-2.6-5.6-1.7-7.2,0.7s-1.6,5.5-2.5,8.3
		c-4.6-1.2-8.4-4.7-10-9.2c-5.3,6-14.5,8.3-22,5.6c-3.3-1.2-6.6-3.9-6.6-7.4c-2.1,3.3-6.5,5.1-10.3,4.3c-2.8,1.1-4.9,3.9-5.1,6.9
		C310.7,215.2,309.3,209.3,311.6,205z M311.6,320.8c-3.8,5.4-7.7,10.8-11.5,16.1c0.9-2.3,0-5.1-2.1-6.5
		C302.5,327.3,307,324,311.6,320.8z M296.4,317.8c-1.3,1.7-3.1,2.9-5.1,3.4l0.1-0.3c-0.2-0.4-0.3-0.7-0.3-1.1
		C291,317.6,294.9,315.6,296.4,317.8z M288.3,283.3c1.2-0.2,2.4,0.2,3.4,0.9c-1.2,1.1-2.5,2.1-3.7,3.2
		C286.5,286.6,286.7,283.9,288.3,283.3L288.3,283.3z M293.9,211.9c-3-0.1-6.1-0.1-8.7,1.4s-4.2,5-2.7,7.5c2.7-1.8,5.5-3.7,8.2-5.5
		c2.6,2.4,1,7.1-2.1,8.8s-6.9,1.4-10.4,1c-1-3.4-2.1-6.7-3.4-10C278.2,208.3,288.6,206.6,293.9,211.9z M277.9,352.6
		c0.9,0.8,0.1,2.7-1.1,2.6v0.3c0.3,0.8-0.4,1-1.2,0.9c-0.6-0.1-1.3-0.5-1.3-1.1v-0.1C274.6,353.6,276.4,352.9,277.9,352.6z
		 M274.4,231c-2.5-2.5-4.6-5.3-6.4-8.4c-1.8,2.6-1.2,6.6,1.3,8.5c-1.3,0.7-2.6,1.5-3.8,2.2c-0.1-2.5-2-4.9-4.4-5.7
		c0.2,2.3-0.3,4.6-1.4,6.5c-2.8-2-4.8-5-5.4-8.4c3.7-5.4,10.1-8.9,16.7-9.1C273.8,220.9,275.1,226.1,274.4,231z M276.5,495.5
		c0.1,2.7-3.7,4.6-5.8,2.8c0.4-1.1,0.3-2.3-0.4-3.3c-3.3-0.4-5.8-3.9-5.2-7.2c2,0.8,4,1.5,6,2.3l0.4-1.5c-0.3-0.7,0.3-1,1-1.1
		c0.6,0,1.3,0.3,1,1c-0.3,0.6-0.5,1.3-0.5,2C273.2,492.7,274.5,494.8,276.5,495.5z M266.6,467.2l0.2-0.6c-1.9-1.4-3.4-3.6-4-5.9
		c3.7,0.4,7.3,2,10.3,4.3C271.6,467,268.9,467.9,266.6,467.2z M264,502.8c-10.1-6.1-18.4-15.1-24-25.5c-10.7-16-17.4-34.6-19.5-53.7
		c-0.5-5.7-0.9-11.4-1.4-17.1c0-0.1,0-0.1,0-0.2c0-1.7,1.6-4,2.6-2.6c1,24.6,8.5,48.9,21.6,69.8c3.3,5.3,7,10.3,10.6,15.4
		C257.3,493.5,260.7,498.2,264,502.8z M233.1,432.2c-0.8-0.7-1.7-1.5-1.8-2.5s1.2-2.1,2-1.4l0,0
		C234.9,428.9,234.8,431.7,233.1,432.2z M255.6,436c-0.7,1.5-3.4,1.4-3.9-0.3C252.4,434.2,255.2,434.4,255.6,436z M251.7,327.5
		c-0.9,0-1.4-0.9-1.4-1.7c0-0.6,0.3-1.2,0.9-1.4v0.1C253.1,323.7,253.7,327.8,251.7,327.5z M241.4,272.2c-0.2-0.3-0.3-0.7-0.3-1.1
		c0-1.1,0.8-2.3,1.7-3.2c3.6-3.5,8.4-5.7,13.4-6.1C252.9,267,247.4,270.8,241.4,272.2z M246.6,244.4c-1,0.4-2,0.8-3.1,0.6
		c-1-0.2-1.8-0.9-2.5-1.6c-1.4-1.6-2-3.6-2-5.7c0-3.2,1.5-6.4,4.3-8c4.6-2.7,11.3-0.2,13,4.8C254.5,238.8,250.9,242.5,246.6,244.4z
		 M247.5,434.8c0.2,1.4-0.1,2.9-0.9,4.1c-3-0.5-6.1-0.4-9.1,0c-0.4,2.8,0.2,5.7,1.8,8.1c2.4-0.8,4.8-1.6,7.3-2.4
		c0.4,1.4,0.1,3-0.8,4.1c-1.3-1.3-3.7-1.2-4.8,0.2c0,0.2,0,0.4,0,0.7c0,1.9,0.5,3.7,1.5,5.3c3.3,1.3,6.6,2.6,9.8,4
		c4.6,1.9,10.1,4.8,10.2,9.8c-2.8,3.3-4.8,7.3-5.8,11.5c-3-1.2-5.8-3.4-6.8-6.5c-8.3-10.6-14.1-23.2-16.7-36.4
		C237.8,435.5,242.6,434.7,247.5,434.8z M227.9,424.2c0-1.4,2.6-1.8,2.9-0.4l0.3-0.2c0.6,0.9,0,2.4-1.1,2.7c-1.1,0.2-2.3-0.9-2.1-2
		C228,424.3,227.9,424.2,227.9,424.2z M224.9,332.5c0-0.7,0.8-1.1,1.6-1.2s1.7,0.3,1.5,1.2c0,1.5-2.7,1.9-3.1,0.5h0.1
		C225,332.8,224.9,332.6,224.9,332.5z M228.8,403.4c0.8-2.5,1.6-4.9,2.4-7.4c2,2.7,1,6.9-1.8,8.6L228.8,403.4z M224.2,239.3
		l-1.6-0.7c1.6-4.4,6-7.6,10.7-7.7C231.3,234.6,228,237.6,224.2,239.3z M223.9,288.3c1.4,0.3,2.7,1.2,3.4,2.4
		c-2.8,2.2-5.7,4.5-8.5,6.7c-1-0.9-1.6-2.3-1.6-3.6c0-1.1,0.3-2.2,1-3C220.4,291.2,222.7,290.2,223.9,288.3z M257.8,456.4v-0.2
		c-0.3-0.2-0.4-0.5-0.4-0.8c0-0.9,1.1-2,2.2-1.9c1.4,0.2,2.4,1.6,3.1,2.9C261.1,456.4,259.4,456.4,257.8,456.4z M258.2,261.3
		c1.5-2.5,3.7-4.6,6.2-6.1c1.6-1,4.9,0.3,3.4,1.5l-0.2-0.2C266,260,261.9,262.1,258.2,261.3z M269.3,373.5l0.3,0.2
		c0.2,2.4-0.2,4.9-1,7.2c-1.6-1.6-2.6-3.9-2.6-6.2c0-0.2,0-0.5,0-0.7C267.1,373.8,268.2,373.6,269.3,373.5z M268.5,386
		c2.1,0,4.1,1.8,4.4,3.9c-0.9,0.9-1.9,1.7-2.8,2.6l0,0c-1.6,1.1-3,2.8-3.8,4.6c-1.4-0.3-2.6-1.2-3.4-2.4
		C265.2,392.2,267.1,389.2,268.5,386z M272.6,367.1c-1.6-0.1-3-1.6-3-3.2c0-0.1,0-0.1,0-0.2c0.1-1.7,1.8-3.1,3.4-2.9l0.1-0.8
		C273.9,362.3,273.7,365,272.6,367.1z M252.1,205.5c6.4,2.6,13.9,1.9,19.8-1.6c1.7,2.1-1.1,4.9-3.5,6.2c-7.3,3.8-14.7,7.6-22,11.5
		C246.7,215.8,248.7,210.2,252.1,205.5z M99.6,141.6c1.2,0.3,2.3,0.5,3.5,0.8l-0.2,0.7c2.9,1.1,4.4,4.7,3.3,7.5
		c-2.5-1.4-5-2.8-7.5-4.2C98.4,144.8,98.7,143.1,99.6,141.6z M92.9,144.9l0.2-0.1c-0.2,1.9-3.2,2.6-4.2,1
		C89,143.9,92.1,143.2,92.9,144.9z M77.2,132.2c0.6-1.2,3-0.7,2.6,0.5H80c-0.3,1.3-1.1,2.5-2.3,3.3
		C77.1,134.8,76.5,133.3,77.2,132.2z M73.6,194c12.6,0.5,25.3,0.9,37.9,1.4c2.1,0.1,4.5,0.1,6-1.4c2.1-2,1.5-5.3,1-8.5
		c-0.6-3.4-1.2-6.8,1.5-8.3c-4.8,0.1-8.9,5.2-7.9,9.9c-1.7-0.3-3.3-0.5-5-0.8c0.4-7,5.3-12.9,7.7-19.5s0.8-16.1-6.1-17.5
		c9.3-0.4,15.8,12.5,10.1,19.7c2.2,0.7,4.5,1.4,6.7,2c-0.9-8.9-1.4-17.9-1.4-26.9c0-2.5,0-5.1,0.1-7.6c5.1,5.3,11.6,9.1,18.7,11.1
		c0.8-6.4,2.6-12.8,5.5-18.6c7.8,0.2,15.6,1.7,22.9,4.5c1.3-1.5,2.6-3.1,3.9-4.6c4,3.4,9.7,3.4,15,3.3c22.2-0.7,44.5-1.3,66.7-2
		c-5.8,13.4-12.3,26.6-19.6,39.2c-2.4,10.4-4.7,20.7-7.1,31.1c4.2,0.6,8.2,2.5,11.4,5.3c-54.2-2.1-108.4-4.1-162.6-6.2
		C75.7,199.5,70.9,196.2,73.6,194z M212.6,306.5c-1,1.1-2.7-0.5-2.7-1.9c0-0.3,0.1-0.7,0.3-1c1.1-1.6,3.3-1.7,5.2-1.6
		c-0.2,1.8-1.5,3.5-3.2,4.2L212.6,306.5z M213,251.8l-0.3-0.4c-0.9,1-2.9,0.5-3.2-0.8c1.2-2.5,5.2-3.1,7.1-1
		C215.4,250.3,214.2,251.1,213,251.8z M201,396.6c-0.2-0.2-0.3-0.5-0.3-0.7c0-1.3,2.7-2.6,3.1-0.9c0.1,1.2,0,2.7-1,3.4
		s-2.6-1.1-1.6-1.7L201,396.6z M225.4,517.9c5,3,9,7.5,11.4,12.8c-2.3,1.1-5.4-0.3-6.2-2.7l0.2-0.2
		C229,524.5,227.2,521.2,225.4,517.9z M226.3,535.9l-1.3,1.5c-2.8-1.4-5.6-2.8-8.4-4.2C219.9,531.4,224.5,532.6,226.3,535.9z
		 M210.4,524.6c-25.4-27.5-39.9-64.8-39.9-102.2c0-2,0-4,0.1-5.9c6.1,2.1,0.7,15.1,7,16.6c10.4,33.3,25.2,65.3,43.7,94.9
		C218.2,530.8,213.3,527.7,210.4,524.6z M165.3,300c1.9-1.1,3.8,2.7,1.8,3.6c-1.5,0.1-2.6-2.1-1.5-3.2L165.3,300z M166.6,292.6
		c-0.6-1.1-0.7-2.4-0.3-3.5l-0.4-0.1c0.2-1.5,2.9-1.2,2.9,0.2C168.6,290.7,167.8,292,166.6,292.6z M169.2,267c0-0.2,0-0.3,0-0.5
		c0-1.8,1.2-3.6,2.9-4.3c1.5,4.1,0.9,8.9-1.5,12.5c-3.1-0.5-3.8-5.7-1-7L169.2,267z M182.2,401.1c-0.4-0.4-0.5-0.9-0.5-1.4
		c0-1.4,1.3-3,2.8-2.7c-0.3,4.7-0.5,9.4-0.8,14c-3.2-1.5-4-6.5-1.4-8.9L182.2,401.1z M184.6,377.2c2.5,4.9,1.9,11.3-1.5,15.6
		c-0.2-2.9-0.5-5.8-0.7-8.7l0.4-0.4c-0.6-0.7-0.8-1.6-0.8-2.4C182,379.6,182.9,377.8,184.6,377.2z M182.3,255.4
		c0.8-1.1,1.5-2.1,2.3-3.2c1.9,1.1-0.3,4.8-2.2,3.5L182.3,255.4z M179.8,276.5c-0.4,0.6-1.1,1.3-1.7,1l-0.1,0.1
		c-0.7-1.3-1.1-2.7-1.1-4.1c0-2.5,1-5,2.9-6.6C181.6,269.7,181.5,273.6,179.8,276.5z M180.6,291.5c-0.5,2.4-4.9,2.1-5.1-0.4h0.3
		c0-0.1,0-0.1,0-0.2c0-3.7,1.1-7.4,3.1-10.5C180.3,284,180.8,287.8,180.6,291.5z M177.6,237.9c-1.4,0.8-3.5,0.8-4.5-0.6
		c-0.2-0.3-0.3-0.7-0.3-1c0-1.3,1.1-2.6,2.3-2.1v-0.3c1.3-1.9,4.6-1.6,5.6,0.4C179.9,235.6,179,237.1,177.6,237.9z M176.3,245.4
		c-0.9,4.1-1.7,8.3-2.6,12.5l-2.3-0.4c0.4-4.2,0.8-8.3,1.3-12.5C173.8,244,175.6,244.2,176.3,245.4z M167.9,280.9l0.6-0.1
		c-0.1-0.4-0.2-0.9-0.2-1.4c0-1.7,0.7-3.5,2.2-3.1c0.7,1.4,1.5,3,0.9,4.5C170.8,282.2,168.1,282.5,167.9,280.9z M186.6,271.1
		l0.5,0.1c0.5-1.6,3.3-1.5,3.7,0.1C190.5,273.4,186.7,273.2,186.6,271.1z M188.2,356.7c0-3.4,0.5-6.8,1.4-10.1
		c0.9-3.7,3.1-7.1,6.3-9.4c-1.2,8.4-3.6,16.6-7.3,24.3C188.3,359.9,188.2,358.3,188.2,356.7z M192.8,247.8v-0.1
		c0-2.7,5.2-2.9,5.3-0.2C198.2,250.3,192.9,250.6,192.8,247.8z M198.8,326.7c0.9,3.1,0.8,7.9-2.5,8l-0.5-0.1c-0.2-0.6-0.3-1.3-0.3-2
		C195.5,330.2,196.8,327.8,198.8,326.7z M195.5,366.4c1-2,3.9-2.6,5.6-1.1l0,0c0.1,2.7-0.9,5.5-2.7,7.5c-1.4-0.1-2.7-1.1-3.2-2.4
		C196.8,369.8,197,367.2,195.5,366.4z M184.1,239.2c-0.6-1.5-1.2-3-1.8-4.5c10-2,20.6-1.2,30.2,2.3c-2.6,0-5.1-0.1-7.7-0.1
		C197.9,236.8,190.7,236.7,184.1,239.2z M149.9,273.2c-1.7-1-2.5-3-2.5-4.9c0-2.6,1.4-5.2,3.8-6c0.6,2,1.1,4.1,1.7,6.1l-0.7,0.2
		C152.6,270.5,151.6,272.4,149.9,273.2z M120.1,309.4c1.2-0.9,3-0.7,4.1,0.3c-0.3,1.6-0.7,3.2-1,4.7c-2.2-0.2-3.8-2.9-2.9-5H120.1z
		 M120.9,299.1c0-1,0.3-2,0.9-2.8c1,1.2,2.1,2.5,3.1,3.7c-0.5,2-4.2,1.8-4.5-0.2l0.5-0.1C120.9,299.5,120.9,299.3,120.9,299.1z
		 M122.1,264.6c0-0.1,0-0.3,0-0.4c0.2-6.2,0.4-12.5,0.5-18.7c3.2,5.6,4.5,12.3,3.6,18.7c-0.2,1.7-0.8,3.6-2.4,4.4
		C122.4,268.1,122.1,266.2,122.1,264.6z M125.3,322l-0.3,0.3c-0.3,1.2-0.6,2.3-0.9,3.5c-1.9-0.1-3-2-3-3.8c0-1.4,0.7-2.8,2.1-3.3
		C123.9,319.8,124.6,320.9,125.3,322z M128,531.4c7,1.4,14,2.8,21,4.3c-9.8,1.1-19.9,0.4-29.4-2.2
		C121.9,531.6,125.1,530.8,128,531.4z M136.4,326.6c-0.5,1.3-1,2.5-1.5,3.8c-1.9-1.1-2.8-3.2-2.8-5.3c0-2.4,1.1-4.7,3.3-5.7
		C137.5,321,138,324.4,136.4,326.6L136.4,326.6z M136,343.9L136,343.9c-1,1-2.8,0.1-3-1.2c0-0.2,0-0.3,0-0.5c0-1.1,0.6-2.2,1.2-3.2
		C134.7,340.6,135.4,342.2,136,343.9z M130.3,305.7c1.1-0.7,2.3-1.3,3.4-2c0.8,1.1,1,2.6,0.5,3.8l0.5,0.1c0,1.9,0,3.9,0,5.8
		c-1.1,0.7-2.8,0.5-3.6-0.5C131.8,310.6,131.5,307.9,130.3,305.7z M131.2,291.4c0-1.7,0.7-3.4,2-4.5l0.2,0.9c2.5,1.9,2.3,6.3-0.3,8
		C131.8,294.7,131.2,293.1,131.2,291.4z M132.4,263c0.4-2,2-3.6,3.9-4.2l0.2,0.3c1.9,3.3,2.9,7.1,2.9,10.9
		C135.8,269.6,132.7,266.5,132.4,263z M132.3,242.2c0-1.6,2.9-2.8,3.7-1.1c0.7,1.4-1.8,2.1-3.3,1.6l-0.1,0.2
		C132.4,242.7,132.3,242.5,132.3,242.2z M136.1,233.6c-3,1.2-6.9-0.5-8-3.6c2.7,0.7,5.5,1.3,8.2,2L136.1,233.6z M142.9,323.6
		c0-0.7,0.2-1.4,0.7-1.9c2.6,0,4.2,3.7,2.4,5.6v-0.2C144.3,327.1,142.9,325.3,142.9,323.6z M145.4,299.3c-1.8-0.9-2.9-2.9-2.9-4.9
		c0-0.2,0-0.5,0.1-0.7l0.4,0.1c1.8-0.3,3.8,0.8,4.6,2.4C147.3,297.4,146.5,298.6,145.4,299.3z M145.3,281.1
		c-0.6-0.3-0.9-0.9-0.9-1.5c0-1,0.6-2,1.6-2.1c1.6-0.2,3,1.8,2.4,3.4l-0.4,0.4C147.7,280.3,145.9,280.2,145.3,281.1z M146.4,235.3
		c-0.8,7.2-1.6,14.4-2.4,21.5c-1.7-2.8-2.3-6-2.3-9.3c0-4.7,1.3-9.6,2.6-14.2c0.3-0.5,1-0.7,1.4-0.4
		C146.5,233.4,146.5,234.5,146.4,235.3z M152,254.2c-2.4-2.9-3.1-7.1-1.8-10.7l0.2,0.1c1.3-2.6,1.9-5.5,1.6-8.4
		c1-0.9,2.7-0.9,3.6,0.1C154.9,241.7,153.7,248,152,254.2z M155.5,300.9h0.1c0.2-1.5,1.3-2.8,2.7-3.3c0,1.6,0,3.2,0,4.8
		c-0.9,1-2.9,0.1-2.9-1.2C155.5,301.1,155.5,301,155.5,300.9z M158.2,281.8l0.3-0.2c0-0.2,0-0.3,0-0.5c0-1.6,1-3.5,2.2-2.7
		C162.4,279.6,160,283,158.2,281.8z M161.2,271.2c-1.1,0.2-2.2-1-2-2.1h0.1c0-0.2,0-0.4,0-0.6c0-1,0.3-2,0.9-2.8
		c1.2-0.1,2.4,0.2,3.4,0.9C163.9,268.5,162.8,270.4,161.2,271.2z M162,237.4c0.2,4.3,0.5,8.6,0.7,12.9c0.1,1.2,0.1,2.5-0.6,3.4
		c-0.7,0.9-2.5,1.1-2.9-0.1c-0.1-4.7-0.3-9.5-0.4-14.2c0-0.4,0-0.7,0-1.1c0-1.7,0.2-3.4,1.2-4.7c1.2-1.6,4.2-1.8,5,0
		C163.9,234.9,163,236.1,162,237.4z M99.4,292c-2.7-3.3-2-8.8,1.4-11.3c-0.6-7.9-0.9-15.8-0.9-23.6c0-6.7,0.2-13.4,0.7-20.1
		c0.2-3.2,1.9-7.6,5.1-6.8c-2.5,21.8-3.5,43.7-3,65.6c0.1,3.6-1.3,7.3-3.7,9.9c-2.2-1.4-1.1-4,0-6.8
		C99.9,296.4,100.9,293.8,99.4,292z M99.4,386.8c0-1.6,0.9-3.7,2.3-2.9c1.5,1.1-0.5,3.6-2.4,3.3h0.1
		C99.4,387.1,99.4,386.9,99.4,386.8z M98.9,530.6c2.2-1.8,6.1-0.7,6.9,2c-1.3-0.8-2.8-1.1-4.3-0.9l-0.2,0.1
		c-0.6,1.1-2.5,0.2-2.5-0.8C98.8,530.9,98.8,530.7,98.9,530.6z M105.8,357.1c-0.1-0.4-0.1-0.9-0.1-1.3c0-1.6,0.6-3.1,1.7-4.3
		l1.8-0.3c0,2.2-0.1,4.5-0.1,6.7C107.9,358.2,106.7,357.8,105.8,357.1z M111.3,238.4c0-2.7,1.7-5.3,4.1-6.4
		c0.7,5.1-1.2,10.4-4.8,13.9c-1.6-1.9-1.2-5.1,0.7-6.7h0.1C111.4,238.9,111.3,238.6,111.3,238.4z M110.9,248.3
		c0-0.6,0.2-1.1,0.6-1.6c0.2,1.3,2.6,1.5,2.9,0.2c0.7,1.2,1.4,2.4,2.1,3.6c-1.1,0.8-2.6,1-3.8,0.5v-0.2
		C111.6,250.6,110.9,249.4,110.9,248.3z M109.7,271.8l0.2-0.1c0.6,1.2,1.3,2.4,1.9,3.6c-1.2,1.1-3.3,1-4.4-0.1c0-0.1,0-0.2,0-0.3
		C107.4,273.2,108.4,271.1,109.7,271.8z M109.1,284.4c2.3,0.6,1.9,3.9,1.1,6.1l1.1,0.6c-1.2,1.3-3.6-0.1-3.9-1.8
		C107,287.6,108.1,285.9,109.1,284.4z M109.9,304.9l-0.3-0.6c-0.7-0.7-1-1.6-1-2.5c0-1.4,0.7-2.8,2-3.4
		C111.6,300.4,111.4,303.1,109.9,304.9z M107,530.9c1.8-0.7,5,0.1,4.1,1.8c-1.4,1.4-4.2,0.3-4.3-1.7L107,530.9z M109.9,324.5
		l-0.7-0.6c-0.5-0.4-0.8-1-0.8-1.7s0.3-1.4,0.9-1.8c1.2-0.7,3,0.1,3.1,1.5C111.6,322.9,110.8,323.7,109.9,324.5z M110,261.2
		c0-1.5,0.5-2.9,1.8-3.8l0.2,0.7c1.2,0.8,2.3,1.5,3.5,2.3c-0.3,2.1-0.6,4.2-1,6.3C111.8,266.7,110,263.9,110,261.2z M113.8,358.2
		c0-1.7,1.5-3,2.9-4c0,1.7,0.1,3.3,0.1,5l0.4,0.2C116.7,361,113.8,360,113.8,358.2C113.8,358.3,113.8,358.3,113.8,358.2z
		 M93.3,287.4c-1,1-2.9,0.4-3.2-0.9c0.5-1.9,4.4-0.6,3,0.8C93.2,287.3,93.3,287.3,93.3,287.4z M75.3,334.5c0-0.2,0-0.3,0.1-0.5l0,0
		c0.3-1.3,1.1-2.5,2.3-3.3c1.1,1.9,1.7,4.1,1.8,6.4C77.7,338,75.3,336.4,75.3,334.5z M75.1,383.5c-1.6-0.6-2.4-2.3-2.4-4
		s0.8-3.3,2.3-4l0.2,0.3C76.1,378.2,76.1,381,75.1,383.5z M73.5,231.9c6.4-4,15-4.2,21.6-0.5c0,1-0.7,2-1.6,2.5
		c-1.1,0.5-2.3,0.4-3.5,0.2C84.5,233.4,79,232.6,73.5,231.9z M76.7,317.4l-0.3-0.1c1.8-0.8,5,0.1,4.2,1.9
		C79.1,319.9,77.1,319,76.7,317.4z M75.9,276.2c1.2,0.3,2.4,0.5,3.6,0.8l-0.1,0.3c1.3,0.5,2.5,1,3.8,1.4c-0.1,0.7-0.2,1.4-0.2,2.1
		c0,1.5,0.3,3.1,1,4.4C79.3,285.6,75.1,280.8,75.9,276.2z M85.2,393c0.3,1.3-2.1,1.7-2.7,0.5s0-2.7,0.6-3.9c1.6-0.4,2.4,2,1.8,3.5
		L85.2,393z M84.1,379.7l-0.2,0.1c-0.4-0.1-0.6-0.3-0.6-0.7c0-0.7,0.8-1.7,1.6-1.4c1.2,0.4,1.7,1.8,1.9,3.1
		C85.9,381.8,84.1,381,84.1,379.7z M83.1,348.7c0-0.7,0.2-1.3,0.5-1.9H84c3.1-0.6,5.4,4.2,3.1,6.3C84.9,353.1,83.1,350.8,83.1,348.7
		z M88,341.3c-2.1,0.1-4.2-1.8-4.3-4c0.6-1.1,1.3-2.2,1.9-3.2c1.4,2.1,2.4,4.5,3,6.9L88,341.3z M86.6,321.7c-0.2-0.5-0.3-1-0.3-1.6
		c0-1.6,0.8-3.1,2.1-2.5l0.1-0.1C89.3,319.3,88.4,322.5,86.6,321.7z M85.6,307c1.3-0.8,2-2.5,1.6-4h0.4c0.2-1.1,1.5-1.8,2.5-1.4
		c1.2,2,0.7,4.7-1,6.2C87.8,308,86.6,307.7,85.6,307z M93.4,280.7c-2-4.2-3-8.8-3-13.4c0-4.3,0.9-8.5,2.6-12.4
		C95.7,263.2,95.9,272.3,93.4,280.7z M71.4,290.5c1.8-0.6,3.8,1.3,3.4,3.1l0.4,0.3c0.4,2-0.1,5-2.1,4.6
		C71.6,296.1,71,293.2,71.4,290.5z M75.8,401.6c-0.1,2-0.2,4.1-0.2,6.1l0.4,0.2c-0.9,1.9-1.8,3.9-2.7,5.8
		C69.4,410.6,71,403,75.8,401.6z M56.6,236.1l0.1-0.2c1.6,0.3,3.1,0.6,4.7,1c-1.9,3.4-8.2,1.8-8.3-2
		C54.2,235.2,55.4,235.6,56.6,236.1z M57,526c12.7,1.4,25.3,2.9,38,4.3c-7.4,0.6-14.8,1.7-22.2,1.6c-7.4-0.1-14.7-1.5-21.7-4.1
		C52,525.9,54.8,525.8,57,526z M35.4,576.4c-1.4-0.7-2.2-2.3-2.2-3.9c0-1.7,0.8-3.5,2.4-4.1c0.1,2.5,0.1,5.1,0.1,7.6L35.4,576.4z
		 M102.7,658.9c-2.8,0-5.3-2.4-5.3-5.2l0.7-0.3C101,652.1,104.5,656.2,102.7,658.9z M112.6,636.3l0.3,0.5c-1,0.8-2.2-0.6-2.2-1.7
		c0-0.5,0.2-0.9,0.8-1.1C112.8,633.2,114,635.8,112.6,636.3z M119,676.5c1.2-0.5,2.4-1,3.6-1.5l0.1-0.4c0.7,1.2,1.3,2.4,2,3.6
		C122.8,679.6,119.8,678.6,119,676.5z M138.6,663.4c-0.5,0.4-1.3-0.3-1.3-1c0-0.1,0-0.3,0.1-0.4c0.5-0.8,1.7-0.9,2.7-0.9
		c1.3-0.3,2.8,0.5,3.2,1.8C142.7,664.9,139.5,665.2,138.6,663.4z M222.9,676.9c0,1.2-2.4,0.4-1.7-0.6l0.3-0.1
		c-0.1-1.9-0.2-3.8-0.2-5.7C223.8,670.5,223.8,674.4,222.9,676.9z M199.6,570.9c-38.3-2.9-76.7-5.8-115-8.7
		c-20.7-1.6-41.5-3.2-61.3-9.3c-3.6-1.1-7.4-2.5-9.4-5.7c-1.5-2.4-1.8-5.3-1.9-8.1c-0.5-14.5,2.3-29.2,8-42.5
		c-0.4,5.7-0.8,11.5-1.2,17.2c-0.1,1.7-0.2,3.7,1.1,4.9c0.8,0.8,2,1.1,3.1,1.3c7.9,1.7,15.9,3.5,23.8,5.2
		c-0.7,9.2-3.3,18.2-7.7,26.4c8.7-6.7,20.8-6.2,31.8-5.3c26.9,2.1,53.8,4.2,80.6,6.3c14.7,1.2,29.4,2.3,44.1,4
		c16.7,1.9,36.5,7,41.8,22.9C226.1,573,212.6,571.9,199.6,570.9z M249.6,541.1c6.2,1.4,12,4.4,16.7,8.6
		C259.7,550.8,252.6,547.1,249.6,541.1z M272.8,557.4c-0.8-0.7-1.7-1.5-1.8-2.5c-0.1-1,1.2-2.1,2-1.4l0,0
		C274.6,554.1,274.4,557,272.8,557.4z M276.4,605.2c-2.2-1.4-4.2-5-1.8-5.9l-0.1,1C276.4,601,277.3,603.5,276.4,605.2z M282.8,629.1
		c-0.6,1.2-2.5,1.5-3.4,0.5c0-1.2,0.6-2.6,1.8-2.9s2.4,1.5,1.5,2.2L282.8,629.1z M222.8,501.3c-18.9-26.1-29.2-58-31.3-90.1
		c-0.8-11.6-0.4-23.8,5.2-34c0.4,18.4,0.9,36.9,1.3,55.3c8.2-1.1,11.7-11.4,10.9-19.7c-0.7-8.3-3.7-16.8-0.9-24.6
		c4.4-12.3,2.5-26.7-4.8-37.6c4.4,1.6,8.2,4.8,10.6,8.9c0-4.8,2.9-9.4,7.2-11.4c-11.9,33.8-11.1,71.8,2.2,105s39,61.3,70.9,77.6
		c-12.2-4.5-24.4-9.1-36.6-13.6c-0.7-4.9-9.5-6.4-10.2-1.4c-0.3,2.7,1.9,4.9,4,6.7c3.8,3.3,7.5,6.5,11.3,9.8c-2.3-4.2,5.3-8.9,8-4.9
		c-2.9-0.1-5.7,2.2-6.3,5c3.2,5.1,9.2,8.3,15.2,8.1c6.7,5.4,13.7,10.4,21.1,14.8C269.3,547.4,241.7,527.4,222.8,501.3z M285.8,482.1
		c2.5-0.1,3.8,4,1.6,5.3c-1.5-1-2.2-3.1-1.5-4.7L285.8,482.1z M285.7,498h0.6c-0.3,1-0.6,2-0.9,3c-2.7-0.4-4.8-3.2-4.8-5.9
		c0-0.6,0.1-1.2,0.3-1.7C283.3,493.6,285.5,495.6,285.7,498z M290.7,509.4c0.3-1.1,0.6-2.2,0.9-3.4c1,0.6,2.1,1.6,2,2.8
		c-0.1,1.2-2.3,1.7-2.4,0.5L290.7,509.4z M324,520.1c0-1.4,2.6-1.8,2.9-0.4l0.3-0.2c0.6,0.9,0,2.4-1.1,2.7S323.8,521.3,324,520.1
		C324,520.2,324,520.1,324,520.1z M328.6,534l0.2,0.3c1.8-0.2,3.4,2.1,2.5,3.8c-3.7,0.3-7.5-0.7-10.6-2.9
		C322,532.6,325.8,533.1,328.6,534z M337,495c-0.9,1.3-3.1,1.5-4.2,0.4c-0.5-0.5-0.7-1.1-0.7-1.8c0-0.9,0.4-1.9,1.2-2.4
		c2-1.3,4.8,1.8,3.4,3.7L337,495z M360.1,571.3c-1.1,1.6-2.9,2.7-4.9,2.9c-18.2,1.4-37.7,2.6-53.6-6.6
		C321,570,340.6,571.2,360.1,571.3z M304.3,552.4c0-1,0.7-2.1,1.8-2.3c1.6-0.2,3,1.7,2.2,3.1l-0.4-0.3c-1,0.3-2,0.5-3.1,0.8
		C304.4,553.4,304.3,552.9,304.3,552.4z M312.2,556.7c3.8-1.3,8.3-0.1,11,2.8c-2,0.3-4.1,0.7-6.1,1v0.3
		C315.4,559.4,313.8,558.1,312.2,556.7z M317.1,510.4l0.2-0.4c-0.1-0.4-0.1-0.8-0.1-1.1c0-1.3,0.3-2.6,1-3.7c1.4,0,2.7,1,3.1,2.4
		C321,509.4,318.9,510.8,317.1,510.4z M312.7,482.9v-0.5c1.3-2.2,4.6-2.9,6.8-1.5C318.2,483.1,315,484.1,312.7,482.9z M318.2,536
		c-2.9-0.1-5.9-0.2-8.8-0.3c-5.1-0.2-10.7-0.5-14.6-3.8c0.1-1.6,0.2-3.2,0.3-4.8c3.4,2.7,8.2,2.4,12.5,2.7S317,531.8,318.2,536z
		 M307.4,668.7c-0.5,0.9-2.4,0.6-2-0.4h-0.1c-0.3-0.3-0.4-0.6-0.4-0.9c0-1.1,1-2.2,1.9-1.6C307.3,666.7,307.8,667.8,307.4,668.7z
		 M303.6,613.4c-1.6-0.4-2.8-1.9-2.8-3.6c0-0.1,0-0.3,0-0.4c5.3-1,11.1,1.1,14.5,5.2C311.4,614.2,307.5,613.8,303.6,613.4z
		 M313.6,581.8l-1.4,1c-0.1-0.2-0.1-0.4-0.1-0.6c0-1.3,1.3-2.4,2.7-2.5c1.6-0.1,3,0.7,4.3,1.5C318.2,583.1,315.1,583.5,313.6,581.8z
		 M326.8,618.4c-1-1-0.4-3,1-3.2l-0.1-0.3c1.3-0.8,3.1-0.6,4.2,0.4C332.1,617.7,329,619,326.8,618.4z M336.9,583.7
		c-1.7,0.9-4,0.8-5.5-0.4c1-0.7,2.4-0.8,3.5-0.4l0,0C335.6,581.9,337.8,582.9,336.9,583.7z M344.5,583.5c-0.6,1.2-2.5,1.5-3.4,0.5
		c0-1.2,0.6-2.6,1.8-2.9c1.2-0.3,2.4,1.5,1.5,2.2L344.5,583.5z M354.4,622.1c-1.3-2.2,0.1-5.4,2.5-6l-0.1-0.2c2-1.4,5-1,6.6,0.9
		C360.4,618.6,357.4,620.3,354.4,622.1z M374.3,494.5c1.7,3.2-4.2,4.8-7.8,3.8c-6.3-1.8-12.6-3.6-19-5.4
		c-14-6.1-26.5-15.5-36.3-27.2c-1.9,1.6-2.9,4.1-2.8,6.6c-8.8-9.1-17.6-18.1-26.5-27.1c7.5,11,15.1,22,22.6,33.1
		c-5.2-1-9.9-4.2-12.9-8.5c-5.5,3.4-11.7,5.6-18.1,6.7c2.2-2.9,4.3-5.8,6.5-8.6c-14.2-15.5-20.3-38.1-15.9-58.7
		c1.1,22.7,10.4,44.9,25.8,61.6c-6.1-12.9-12.3-25.9-18.4-38.8c3.9,3.2,7.8,6.4,11.6,9.6c-0.2-4.4-0.3-8.8-0.5-13.2
		c-2.2-2.9-7.3-2.8-9.3,0.3c0.3-5.2,1.3-10.4,3-15.3c1.5,1.2,3,2.5,4.5,3.7c-2,1.5-3.4,3.7-3.9,6.1c2.3-0.1,4.7,0.6,6.5,1.9
		c1.5-10.7,1.3-21.6-0.6-32.2c-2,3.1-5.8-2.2-5.4-5.9c1.7-15.6,7.2-30.8,16-43.7c-3.6-0.2-5.2-6-2.2-8.1c4.7,0.2,7.2,6.1,6.2,10.6
		c-1.1,4.6-4.4,8.2-7,12c-5,7.3-7.7,16-7.7,24.8c0,0.6,0,1.3,0,1.9c7.2,7.1,6.8,18.5,7.8,28.5c2.8,28.9,21.8,55.8,48.3,67.9
		s59.2,9,82.9-7.9c-10.5,12.2-25.8,20.2-41.8,21.9C378.8,496.7,375.4,496.5,374.3,494.5z M278,412.2c0-4.3,0.1-8.5,0.1-12.8
		c2.1-0.7,2.7,2.8,2,4.8l-0.2,0.4C281.5,407.1,280.5,410.8,278,412.2z M380.6,621.2c0.5-3.9,3.3-7.5,7.1-8.8l0.1,0.1
		c2.8-3.1,7.9-3.9,11.6-1.7C393.5,614.8,387.2,618.3,380.6,621.2z M405.1,506.6c0-0.1,0-0.1,0-0.2c0-1.9,3.8-2.2,3.8-0.2l-0.3-0.1
		C407.9,507.2,406,507.5,405.1,506.6z M411.7,614.5c-1-1.1-2-2.3-2.9-3.4c1.6-2.5,3-5.1,5.1-7.1c3.8-3.6,9.2-5,14.5-5.5
		C422.8,603.9,417.2,609.2,411.7,614.5z M445.4,595.8c-0.8,1.3-1.1,2.7-1.7,4.1c-1.9,4.3-6.8,7.1-11.5,6.4c2.9-4.6,5.1-9.7,8.6-13.9
		s8.9-7.4,14.3-6.4C455,590.7,447.9,591.7,445.4,595.8z"/>
	<path class="st1" d="M796.7,440.6c0,0.1,0,0.2,0,0.3c0.1-0.1,0.1-0.2,0.2-0.3C796.9,440.6,796.8,440.6,796.7,440.6L796.7,440.6
		L796.7,440.6z"/>
	<path class="st1" d="M761.3,300.5L761.3,300.5c1.2,0.3,2.5,0.2,3.6-0.4c-0.5-1.7-0.9-3.3-1.4-5
		C761.3,295.7,760.1,298.6,761.3,300.5z"/>
	<path class="st1" d="M715.3,532.2L715.3,532.2c0,0.1,0.1,0.1,0.1,0.2L715.3,532.2L715.3,532.2L715.3,532.2z"/>
	<path class="st1" d="M674,476.8c-0.5-1.2-1.9-1.7-3.1-2c-1,1.3-0.4,3.5,1.2,4.2l0,0c0.9,0.6,2-0.5,2-1.6
		C674.1,477.1,674.1,477,674,476.8L674,476.8L674,476.8z"/>
	<path class="st1" d="M664.9,132.8c-25.6-1.1-51.3-2.2-76.9-3.3c-1.1,1.3,1.2,2.8,2.9,2.9c26.8,2.7,53.8,3.5,80.7,2.4
		C669.9,133.1,667.3,132.9,664.9,132.8L664.9,132.8L664.9,132.8z"/>
	<path class="st1" d="M633.3,332.4c0.1,0,0.1-0.1,0.2-0.1c0.1,1.6,2.2,2.6,3.5,1.8c0.1-0.2,0.2-0.4,0.2-0.7
		C637.2,331.7,633.9,330.5,633.3,332.4L633.3,332.4L633.3,332.4z"/>
	<path class="st1" d="M627,580.3c-0.8,1.6,0.8,3.8,2.6,3.6c0,0.2,0,0.4,0,0.6c0.6-0.3,0.8-0.9,0.8-1.4
		C630.5,581.5,628.7,579.6,627,580.3L627,580.3L627,580.3z"/>
	<path class="st1" d="M561.3,140.5c-0.9,1.2-1.8,2.4-2.6,3.7c10.5,12.9,23.9,23.6,38.8,31c2,1,4.8,1.7,6-0.1
		C589.4,163.5,575.4,152,561.3,140.5L561.3,140.5L561.3,140.5z"/>
	<path class="st1" d="M582.1,320.5c-2.6-2.9-7.6-3.2-10.5-0.6c1,2,0.9,4.3,0.9,6.6c0,1.4-0.1,2.9,0.1,4.3c0.6,3.6,5,7.2,7.6,4.7
		c1.5-1.5,1.5-4,1.4-6.4c-0.1-2.8-0.1-5.3,2.3-5.6C583.4,322.4,582.9,321.4,582.1,320.5L582.1,320.5L582.1,320.5z"/>
	<path class="st1" d="M572.2,221.6c-0.1-3-2-7.3-4.6-5.7c0.7,5.5,1.3,11.1,2,16.6c2.4,19.8,4.8,39.8,11.6,58.6
		c0.1-1.7,0.2-3.4,0.2-5.2C581.3,264.3,572.8,243.3,572.2,221.6L572.2,221.6L572.2,221.6z"/>
	<path class="st1" d="M570.5,300.5c-5-9.4-10-18.8-15-28.2c-0.9-1.4-3.2-0.5-3.8,1s0.2,3.2,0.8,4.7c3.6,7.9,7.2,15.8,10.8,23.8
		c1.7,3.8,3.4,7.5,5.1,11.3c2.5-0.2,4.3-2.9,4.3-5.4c0,0,0,0,0-0.1C572.9,305,571.7,302.7,570.5,300.5L570.5,300.5L570.5,300.5z"/>
	<path class="st1" d="M562.4,188.5c-1.1,3.4-1.5,7.1-1.1,10.7c0.6,5.1,3.4,10.5,8.3,12.2C567.2,203.8,564.8,196.2,562.4,188.5
		L562.4,188.5L562.4,188.5z"/>
	<path class="st1" d="M558.1,161.4c-0.3-1.2-0.6-2.6-1.5-3.4s-2.8-0.6-3.1,0.6c1.7,7,3.3,14.1,5,21.1c1.3,0.7,2.6,1.3,3.9,2
		C560.9,175,559.5,168.2,558.1,161.4L558.1,161.4L558.1,161.4z"/>
	<path class="st1" d="M547.4,124.6c-3.3-11.3-6.8-22.7-12.7-32.9c1.6,13.7,5.4,27.1,11.2,39.5c1.5-0.5,2-2,2-3.6
		C547.8,126.6,547.6,125.5,547.4,124.6L547.4,124.6L547.4,124.6z"/>
	<path class="st1" d="M523.4,38.8c6.4,3.7,14.3,4.9,21.5,3.3C538.6,38,530.6,36.8,523.4,38.8L523.4,38.8L523.4,38.8z"/>
	<path class="st1" d="M536.5,212.5c-5.3-2.2-10.7-4.4-16-6.6c-6.2-2.6-12.9-5.2-19.5-3.6c3.9,2.3,7.9,4.7,11.8,7
		c9.2,5.5,20,11.1,30,7.4C541.4,214.6,538.9,213.5,536.5,212.5L536.5,212.5L536.5,212.5z"/>
	<path class="st1" d="M531.3,87.6c-1.1-0.9-3.1-0.5-3.4,0.8c0.1,0,0.1,0,0.2,0c0.4,1.8,2.3,3.2,4.2,3c0.1-0.4,0.1-0.7,0.1-1.1
		C532.4,89.3,532.1,88.2,531.3,87.6L531.3,87.6L531.3,87.6z"/>
	<path class="st1" d="M524.3,299.5L524.3,299.5c2.1,1.2,4.7,1.4,6.9,0.5C529.1,298.8,526.5,298.6,524.3,299.5L524.3,299.5
		L524.3,299.5z"/>
	<path class="st1" d="M518.7,336.4c-2.2,0.4-4.4,2.4-4.1,4.6c2.5-0.1,4.9-0.2,7.4-0.4c0.1-0.1,0.1-0.3,0.2-0.4
		c1.2,1.4,3.4,1.8,5.1,1.1C526.1,337.9,522.3,335.7,518.7,336.4L518.7,336.4L518.7,336.4z"/>
	<path class="st1" d="M524.2,99.1c-2,0.2-4,0.4-6,0.6c-1.2,4-5.2,7-9.5,7c-4.2,0-8.2-3.1-9.3-7.2c-2,0.8-4,1.5-6,2.3
		c2.3,2.5,4.6,5.1,7,7.6c0.5,0.6,1.1,1.3,1,2.1c-0.1,0.8-0.9,1.4-1.5,1.8c-2.9,1.9-5.9,3.9-8.8,5.8c0,3.5,5.3,4,8.2,2.1
		c2.9-2,5.2-5.3,8.7-5.6c4,5.4,11,8.5,17.7,7.9c0.7-3.3-3.4-5.2-6.4-6.5c-3.1-1.3-6.2-5.3-3.6-7.4c2.9-2.8,6.3-4.9,10.1-6.1
		c0.2-0.4,0.3-0.8,0.3-1.3C526,100.8,525.3,99.6,524.2,99.1L524.2,99.1L524.2,99.1z"/>
	<path class="st1" d="M520.9,77c-0.1-0.1-0.1-0.1-0.2-0.2c1,2.6,2.6,4.8,4.7,6.6c0.3-0.6,0.5-1.2,0.5-1.8
		C525.9,79.1,523.4,76.5,520.9,77L520.9,77L520.9,77z"/>
	<path class="st1" d="M520.1,19.2c-2.1-1.4-4.7-1.6-7.3-1.8c-0.1-0.3-0.3-0.7-0.4-1c-0.3-1.6-2.4-2.6-3.8-1.8
		c-0.6,1.9-0.4,4.1,0.5,5.8c4.3,1.8,8.5,3.5,12.8,5.3c0.5-0.6,0.7-1.4,0.7-2.1C522.5,22,521.5,20.2,520.1,19.2L520.1,19.2
		L520.1,19.2z"/>
	<path class="st1" d="M516.7,320.4c-0.1-0.1-0.2-0.1-0.3-0.1c-1.2,0.6-2.3,1.2-3.5,1.8c0.7,1.9,4,0.7,4-1
		C516.9,320.9,516.9,320.7,516.7,320.4L516.7,320.4L516.7,320.4z"/>
	<path class="st1" d="M488.6,18.9c-2.5-3.9-5.1-8-8.9-10.6c-5.7-4-13.2-4.2-20.2-4.2c-13.1-0.1-26.2-0.2-39.3-0.2
		c-7.1,0-14.3-0.1-21.1,1.9c-7.8,2.2-14.7,6.9-21.3,11.5c-17.4,12-34.9,24.1-50.7,38.2c19-10.2,37.1-21.9,54.2-35
		c5.3-4.1,10.6-8.3,16.9-10.7c7.5-2.8,15.7-2.6,23.6-2.3c14.6,0.4,29.2,0.9,43.8,1.3c7.1,0.2,15.7,1.4,18.6,7.9
		c6.3,14.3,15.6,27.3,27.1,37.8C503.7,42.6,496.1,30.8,488.6,18.9L488.6,18.9L488.6,18.9z"/>
	<path class="st1" d="M505.9,296c-1,2.5-2,5-3,7.5c0.8,1.2,3,1,3.6-0.4c0.1,0.1,0.2,0.2,0.3,0.3c0.9-0.8,1.3-2,1.3-3.3
		C508.1,298.4,507.3,296.8,505.9,296L505.9,296L505.9,296z"/>
	<path class="st1" d="M496.3,293.8c0,0.1-0.1,0.2-0.1,0.3c-1.5-1.7-5.4-2-4.8,0.1c0.9,1.1,1.9,2.3,3.3,2.3c1,0.1,2-1,2-1.9
		C496.7,294.3,496.6,294,496.3,293.8L496.3,293.8L496.3,293.8z"/>
	<path class="st1" d="M480.1,198.2c0.2,3.7,3.4,6.9,7.1,7.2c0.1,0,0.3,0.1,0.5,0.1c0.9,2.9,4.7,4.4,7.4,3
		C490.5,204.6,485.5,201.1,480.1,198.2L480.1,198.2L480.1,198.2z"/>
	<path class="st1" d="M489.3,289.4c0.1-0.1,0.2-0.1,0.3-0.2c2.1,0.1,4.2-1,5.3-2.7C493,284.2,488.5,286.6,489.3,289.4L489.3,289.4
		L489.3,289.4z"/>
	<path class="st1" d="M483.1,118.3c-1.9-3.2-3.9-6.4-5.8-9.6c-3-4.9-7.1-10.4-12.8-10.2c-6,6.7-11.6,13.8-16.8,21.2
		c1.3,0.9,2.6,1.8,4,2.7c1.8-2.9,5.4-4.1,8.9-4.5c8-1,16.4,1.1,23,5.7c0.6-0.5,0.8-1.1,0.8-1.8C484.3,120.7,483.7,119.3,483.1,118.3
		L483.1,118.3L483.1,118.3z M466.7,104.1c2.4,2.7,4.7,5.4,7.1,8.2c-0.3,1.3-1.2,2.6-2.3,3.3c0.1-0.2,0.1-0.3,0.2-0.5
		c-3.3-1.4-7.1-1.6-10.5-0.6C461.9,110.6,463.3,106.3,466.7,104.1L466.7,104.1L466.7,104.1z"/>
	<path class="st1" d="M469.6,263.6c-0.3-1.1-1.8-1.5-2.6-0.8s-0.4,2.4,0.7,2.6c0-0.1,0.1-0.2,0.1-0.2c0.8,0.5,1.9-0.3,1.9-1.2
		C469.7,263.9,469.6,263.8,469.6,263.6L469.6,263.6L469.6,263.6z"/>
	<path class="st1" d="M457.8,652.1c0-0.1,0-0.2-0.1-0.2c-0.6,0-1.1,0.1-1.7,0.2c-1,0.3-0.1,0.9,0.7,1c0.6,0.1,1.1-0.1,1.1-0.6
		C457.8,652.3,457.8,652.2,457.8,652.1L457.8,652.1L457.8,652.1z"/>
	<path class="st1" d="M452.5,185.3c-0.1,0-0.1,0-0.2,0c-1.2-1.3-3.6-1.3-4.7,0.1c0.7,2.2,3.6,2.6,6,2.5c0.3-0.3,0.5-0.7,0.5-1.2
		C454.1,185.8,453.4,184.7,452.5,185.3L452.5,185.3L452.5,185.3z"/>
	<path class="st1" d="M420.8,97.6c-1.8,1.1,0.1,3.9,2.2,4.3c2,0.4,4.5,0.1,5.8,1.7c0.7,0.9,0.8,2.2,0.7,3.4c0,5.2-0.1,10.3-0.1,15.5
		c0.9-1.1,2.9-1.2,3.9,0c2.3-4.9,3.2-10.4,2.5-15.8c-0.4-3,3.7-4.2,6.7-4.3c3,0,7-0.9,7.1-3.9C439.9,98.2,430.4,97.9,420.8,97.6
		L420.8,97.6L420.8,97.6z"/>
	<path class="st1" d="M412.6,666.2c-0.1,0-0.2,0.1-0.3,0.1c0.8,1.1,2.9,0.8,3.3-0.4C415.5,663.9,411.4,664.7,412.6,666.2
		L412.6,666.2L412.6,666.2z"/>
	<path class="st1" d="M408.5,97.4c-1.2-0.9-2.4,1.2-2.5,2.7c-0.3,5.6-0.7,11.3-1.1,16.9c-5.3-5.7-10.6-11.4-15.8-17.1
		c-1.6-1.7-3.6-3.6-5.9-3c-2.5,0.6-3.3,3.8-3.6,6.4c-0.7,6.3-1.4,13,1.1,18.8c4.1-5.3,4.8-12.3,5.3-19c5.6,6.7,11.8,12.8,18.6,18.2
		c4-3.7,6.2-9.2,6.2-14.7C410.8,103.4,410,100.2,408.5,97.4L408.5,97.4L408.5,97.4z"/>
	<path class="st1" d="M374.2,494.4C374.3,494.4,374.3,494.5,374.2,494.4C374.3,494.5,374.3,494.4,374.2,494.4L374.2,494.4
		L374.2,494.4z"/>
	<path class="st1" d="M371.1,97.5c-9.6-3.8-20.7-3.7-30.2,0.4c2.7,2.6,1.7,6.9,0.9,10.6c-0.8,3.6-0.7,8.4,2.8,9.8
		c6,1.1,12.1,1.7,18.3,2.1c3.5,0.2,8.6-2,7-5.1c-6-0.6-12.1-0.8-18.2-0.6c-2.8,0.1-5.4-2.4-5.8-5.2c-0.6-4.2,3.1-8.1,7.1-9.2
		c4.1-1.2,8.4-0.3,12.6,0.7c1.4,0.3,3,0.7,4.3,0.1c0.9-0.4,1.6-1.4,1.6-2.4C371.6,98.3,371.4,97.8,371.1,97.5L371.1,97.5L371.1,97.5
		z"/>
	<path class="st1" d="M352.2,105.5c-0.6,0.9-0.5,2.1,0.1,3c0.7,0.9,1.8,1.3,2.8,1.5c4.5,1.1,9.4,0.4,13.4-1.9
		C363.6,105.4,357.7,104.5,352.2,105.5L352.2,105.5L352.2,105.5z"/>
	<path class="st1" d="M326.5,60.9c-0.3-1.4-0.6-2.7-0.9-4.1c-10.3,1.1-14.6,13.8-23,19.7c-8.3,5.8-19.3,4.4-29.4,3.2
		c-22.6-2.6-45.5-2.7-68.1-0.3c-1,6.6,0.1,13.5,3,19.5c-1.1-1.4-3.5-0.6-4.3,0.9s-0.5,3.4-0.2,5.1c0.8,4.1,1.5,8.1,2.3,12.2
		c20.1,0.8,40.2,1.3,60.4,1.7c2.2,0,4.6,0.1,6.6-1c2.8-1.5,4.2-4.6,5.4-7.6c2.9-7.2,5.9-14.4,8.8-21.6c2.1-5,9.4-3.6,14.6-5.1
		c9-2.7,11.7-15.2,20.5-18.7c8.4-3.4,19.3,2.9,26.5-2.6C341.4,61,334,60.6,326.5,60.9L326.5,60.9L326.5,60.9z M277.7,82.8l1.2-0.3
		c3.7,3.1,3.7,9.6,0,12.7c-1-2.7-1.5-5.7-1.5-8.6C277.4,85.4,277.5,84.1,277.7,82.8L277.7,82.8L277.7,82.8z M275.3,102.9
		c-1.1,3.8-3.1,7.6-6.6,9.5s-8.5,1.2-10.4-2.3c-1-1.9-0.9-4.2-0.7-6.3c0.6-7.3,1.8-14.5,3.5-21.6c2.2,0.3,3.4,2.9,3.2,5.1
		c-0.1,2.2-1.1,4.3-1.3,6.6c0,0.2,0,0.3,0,0.5C263.1,100.2,269.8,105,275.3,102.9L275.3,102.9L275.3,102.9z M269.3,83
		c3-0.8,4.4,3.5,4.4,6.6h-0.1c0.2,3.5-1.6,7-4.6,8.9c-0.9-2.4-1.3-4.9-1.3-7.5C267.8,88.3,268.3,85.6,269.3,83L269.3,83L269.3,83z
		 M249.7,85.5c0.7-1.1,1.9-2.1,3.2-1.9c1.2,0.2,1.9,2,1,2.7c0.8,3.7,0.4,7.7-1.1,11.2c-2.7-1.5-4.3-4.6-4.3-7.7
		C248.5,88.3,248.9,86.8,249.7,85.5L249.7,85.5L249.7,85.5z M238.9,90.7c0.6-2.7,1.2-5.3,1.8-8c4.3,2.8,5.4,9.4,2.3,13.5l0.2,0.4
		c-1,1.4-3.5,0.7-4.2-0.8c-0.3-0.7-0.5-1.4-0.5-2.1C238.5,92.6,238.7,91.6,238.9,90.7L238.9,90.7L238.9,90.7z M231.1,86.9
		c0.1,0.2,0.3,0.4,0.4,0.6c2.7-0.5,3.4,3.6,2.9,6.2c-1.1,0.5-2.3,1.1-3.4,1.6c-0.8-1.2-1.3-2.7-1.3-4.1
		C229.7,89.6,230.2,88.1,231.1,86.9L231.1,86.9L231.1,86.9z M220.3,84.9c2,4.6,4,9.2,6.1,13.9c1.2,2.7,2.4,5.7,1.5,8.5
		c-0.8,2.8-4.8,4.7-6.8,2.5c1.8-4.2,2.3-8.9,1.4-13.3c-3.1,0.8-6.7-1.4-7.3-4.6c-0.1-0.3-0.1-0.7-0.1-1
		C215.1,88,217.4,85.2,220.3,84.9L220.3,84.9L220.3,84.9z"/>
	<path class="st1" d="M329.5,95.2c-5.2-0.2-10.4-0.5-15.7-0.7c-1.7-0.1-3.4-0.1-4.9,0.7c-2.3,1.3-3,4.3-3.3,6.9
		c-0.7,5.5-0.8,11.2-0.3,16.7c1.2,0.8,2.9-0.3,3.5-1.6c0.6-1.4,0.5-2.9,1-4.3c1.4-3.7,6.3-4.5,10.2-4c3.9,0.5,8.2,1.5,11.6-0.5
		c2.1-1.2,3-3.5,3-5.9C334.6,99.3,332.8,96,329.5,95.2L329.5,95.2L329.5,95.2z M314.3,100.1c5.2-2.3,11.8-1.3,16,2.6
		c-5.7,3-12.5,3.7-18.6,1.9c-0.2-0.3-0.3-0.7-0.3-1.1C311.4,102.2,312.9,100.7,314.3,100.1L314.3,100.1L314.3,100.1z"/>
	<path class="st1" d="M312.1,178.3c-0.7,0.9-1.4,1.9-2.2,2.8c3.1,1.7,7.2,1.4,10-0.7c0-0.3,0.1-0.6,0.1-1
		C317.4,179.1,314.8,178.7,312.1,178.3L312.1,178.3L312.1,178.3z"/>
	<path class="st1" d="M303.5,168.9c-1.4-1.8-5.4-1.9-5,0.4c1.4,1.3,3.9,1.3,5.3,0C303.8,169.2,303.6,169,303.5,168.9L303.5,168.9
		L303.5,168.9z"/>
	<path class="st1" d="M299.4,97.1c-1.7-0.9-2.9,1.9-2.8,3.9c0.2,3.2,0.3,6.4,0.5,9.6c1.7-3.1,2.6-6.7,2.6-10.3
		C299.6,99.2,299.5,98.2,299.4,97.1L299.4,97.1L299.4,97.1z"/>
	<path class="st1" d="M299.4,97C299.4,97.1,299.4,97.1,299.4,97C299.4,97.1,299.4,97.1,299.4,97C299.4,97.1,299.4,97.1,299.4,97
		L299.4,97L299.4,97z"/>
	<path class="st1" d="M264.7,176.3c-0.6,1.9,0.2,4.1,1.8,5.3c7.9-1,15.9-1,23.8,0.1c2.4,0.3,5.7,0,5.9-2.3
		C285.7,178.4,275.2,177.3,264.7,176.3L264.7,176.3L264.7,176.3z"/>
	<path class="st1" d="M289.5,440.4c-2,1.4-1.8,5,0.4,6.1c0.2,0.1,0.3,0.2,0.5,0.4c-0.3,2.4,3.6,3.7,4.9,1.7
		C292.9,446.2,290.9,443.5,289.5,440.4L289.5,440.4L289.5,440.4z"/>
	<path class="st1" d="M271.7,165.2c-0.7,1.2-1.5,2.4-2.2,3.6c1.1,0.3,2.2,0.5,3.3,0.8c0.1,0,0.1,0,0.2-0.1c0.3-0.6,0.5-1.4,0.5-2.2
		C273.5,166.1,272.9,164.9,271.7,165.2L271.7,165.2L271.7,165.2z"/>
	<path class="st1" d="M253.9,86l-0.2,0.4c0.1,0,0.2-0.1,0.2-0.1C253.9,86.2,253.9,86.1,253.9,86L253.9,86L253.9,86z"/>
	<path class="st1" d="M246.8,503.3c0,2.3,2.3,4.8,4.5,3.9c0.2,0.1,0.3,0.1,0.5,0.2C251.6,504.9,249.1,502.9,246.8,503.3L246.8,503.3
		L246.8,503.3z"/>
	<path class="st1" d="M221.7,464.2c-3,2.7-1,7.7,1.2,11.2c4.9,7.8,9.8,15.5,14.7,23.3c-1.5-0.1-3.1,0.7-3.4,2.2
		c-0.5,2.3,2.5,4,4.7,3.2s3.5-2.9,4.7-4.9C236.2,487.5,228.9,475.9,221.7,464.2L221.7,464.2L221.7,464.2z"/>
	<path class="st1" d="M224.7,164.4c-1.4,0.2-2.8,0.5-4.2,0.7c1.6,4.4,0.6,9.8-2.6,13.3c0-5.4,0-10.8,0-16.1c-3.5,2.4-5.3,6.9-4.5,11
		s4.2,7.6,8.3,8.6c2.9-2.9,4.4-7,4.4-11C226.1,168.6,225.6,166.4,224.7,164.4L224.7,164.4L224.7,164.4z"/>
	<path class="st1" d="M210.2,430.6c-2.1,1.8-3.3,4.6-3.2,7.3c0.3,8.1,10.9,14.5,8.1,22.1c1.3,0,2.5,0.1,3.8,0.1
		C216.1,450.3,213.1,440.4,210.2,430.6L210.2,430.6L210.2,430.6z"/>
	<path class="st1" d="M208.6,65.3c-1.1,0.7-2.2,1.5-3.3,2.2c1.6,1.9,4.9,2.1,6.7,0.4c0.2,0,0.4,0.1,0.5,0.1c0.1-0.2,0.1-0.4,0.1-0.5
		C212.6,65.6,210.1,64.1,208.6,65.3L208.6,65.3L208.6,65.3z"/>
	<path class="st1" d="M209.3,164c-2.7-0.6-3.2,3.7-2.7,6.4c0.6,2.7-1.6,6.9-3.7,5.1c-1.2-3.4-0.7-7.3,1.3-10.3
		c-1.2-1.3-2.3-2.5-3.5-3.8c-1.8,5.9-1.7,12.4,0.4,18.2c1.9,0.1,3.7,0.2,5.6,0.4c2.6-2.6,4-6.3,4-10
		C210.7,167.9,210.2,165.9,209.3,164L209.3,164L209.3,164z"/>
	<path class="st1" d="M187.8,62.4c-1,3.4-2,6.7-3,10.1c2,2.1,4.8,3.6,7.7,4.1c-0.7,10.9-0.5,21.9,0.7,32.8
		c2.1-5.7,3.1-11.8,3.1-17.8C196.4,81.3,193.5,71,187.8,62.4L187.8,62.4L187.8,62.4z"/>
	<path class="st1" d="M193.9,162.6c-2.6,3.9-3.7,8.8-3,13.4c-4.4-1.9-4.8-9.2-0.7-11.6c-0.7-2.1-2.5-4.8-4.6-3.9
		c-0.4,3.1-1.5,6.1-1.9,9.2c-0.4,3.1,0.2,6.6,2.6,8.6s6.8,1.6,7.9-1.3C194.2,172.2,194.1,167.4,193.9,162.6L193.9,162.6L193.9,162.6
		z"/>
	<path class="st1" d="M181.1,140c-1.2-0.8-2.4-1.5-3.6-2.3c-0.8,1-1.7,2-2.5,2.9c0.1,0.1,0.3,0.2,0.4,0.3c0.1,1.6,1.8,2.9,3.4,2.6
		c1.4-0.2,2.4-1.6,2.4-2.9C181.2,140.4,181.1,140.2,181.1,140L181.1,140L181.1,140z"/>
	<path class="st1" d="M180.3,168.7c-0.1-2.7-0.3-5.8-2.2-7.8s-6-1.8-6.7,0.8c5.7,2.7,4.2,11.2,1.8,17.1c2.3,1,5-0.6,6.2-2.8
		c0.8-1.6,1-3.4,1-5.3C180.3,170.1,180.3,169.4,180.3,168.7L180.3,168.7L180.3,168.7z"/>
	<path class="st1" d="M177.7,64.1c-3.5-3.4-9,0.8-13.8,0.9c0.3,1.9,0.6,3.7,0.9,5.6c-4.8,8.1-16.2,8.2-25.6,7.6
		c-16.7-1-33.5-1.3-50.2-0.7c-3.1,0.1-6.5,0.4-8.7,2.6c-1.2,1.2-1.8,2.9-2.3,4.5c-2.2,7.1-2.7,14.6-1.4,21.9c0.5,3-3.7,4.6-6.7,3.9
		s-6-2.5-8.9-1.5c0.6,1.3,1.2,2.6,1.8,3.9c25.3,1.3,50.5,2.6,75.8,3.9c4.9,0.3,11.6-1.1,11.7-6c0-1.7-0.9-3.3-1.2-5s0.5-3.9,2.2-4
		c0.1-3.5,0.2-7,0.4-10.5c0.1-4.1,1.9-9.7,5.9-9.1c-0.4,3.1,1.1,6.4,3.6,8.3c-0.9-2.8,1.3-6.3,4.3-6.5c-1.4,4.6,0.1,9.9,3.6,13.1
		c-2.3,3.3-8.4,2.5-9.6-1.4c-5.8,4.2-8.4,12.3-6.1,19c5.8,2.7,12.8,2.5,18.4-0.5c0.7-8.3,1.4-16.6,2.1-25c0.4-5.2-0.7-12.4-5.9-12.8
		c-1.8-1.2,0.5-4.1,2.7-3.9c2.1,0.2,4,1.9,6.1,2.1c1.3-2.1,2.5-4.7,2.5-7C179.1,66.3,178.7,65.1,177.7,64.1L177.7,64.1L177.7,64.1z
		 M140.6,84.2l0.7,0.3c1-2.4,5.2-0.6,5.3,2s-2.2,4.7-4.2,6.4c-0.9,0.7-1.8,1.5-3,1.5c-3.8,0.2-3.9-6.3-7.4-7.9
		C134.1,84.1,137.6,83.1,140.6,84.2L140.6,84.2L140.6,84.2z M82.7,97.4c18.2,1.1,36.4,2.1,54.6,3.2c2.4,0.1,5.1,0.4,6.8,2.1
		c2.9,3.1,0.6,8.6-3.3,10.3c-3.9,1.7-8.3,0.9-12.5,0.1c-15.3-2.8-30.9-3.6-46.4-2.6C82.1,106.2,82.4,101.8,82.7,97.4L82.7,97.4
		L82.7,97.4z M109.7,87.5L109.7,87.5c2.1,0.3,4.1,1.4,5.4,3.2c-1.6,2.1-4.9,2.5-7,0.9c-0.1-0.3-0.1-0.5-0.1-0.8
		C108,89.5,108.6,88.2,109.7,87.5L109.7,87.5L109.7,87.5z"/>
	<path class="st1" d="M167.1,149.8c-10.5-1.7-21.8,3.4-27.5,12.4c0.5,1.6,1.1,3.2,1.6,4.8c3.6,7.9,12,13.3,20.7,13.2
		c2.9,0,6.7-2.9,4.6-5c-7.8,0.2-15.5-3.6-20.1-9.8c0.6-4.7,5.5-7.8,10.2-8.9c4.7-1.1,9.6-1.1,14-3.1
		C169.4,152.3,168.3,151.1,167.1,149.8L167.1,149.8L167.1,149.8z"/>
	<path class="st1" d="M166.2,162c0-0.2,0.1-0.3,0.1-0.4c-2,0.1-2.2,3.8-0.2,4.1c0.8-0.2,1.3-1,1.3-1.9
		C167.3,163,167,162.2,166.2,162L166.2,162L166.2,162z"/>
	<path class="st1" d="M166.6,144.5c-0.3-1.1-1.8-1.5-2.6-0.8s-0.4,2.4,0.7,2.6c0-0.1,0.1-0.2,0.1-0.2c0.8,0.5,1.9-0.3,1.9-1.2
		C166.7,144.8,166.6,144.7,166.6,144.5L166.6,144.5L166.6,144.5z"/>
	<path class="st1" d="M161.2,132.4c-2.3-1.5-5.9,0.3-6.1,3l0,0c-0.3,1.2-0.2,2.4,0.4,3.5c1.8,0.1,3.7,0.2,5.5,0.3
		c1.2-0.7,1.9-2.1,1.9-3.5C162.8,134.3,162.2,133.1,161.2,132.4L161.2,132.4L161.2,132.4z"/>
	<path class="st1" d="M148.3,193.5c0-1.5-1.1-2.8-2.2-3.9c-1.1,1.6-1.3,3.8-0.4,5.5c-0.2,0.1-0.3,0.3-0.5,0.4
		C146.5,196.5,148.4,195.1,148.3,193.5L148.3,193.5L148.3,193.5L148.3,193.5z"/>
	<path class="st1" d="M138.6,663.3C138.6,663.4,138.6,663.4,138.6,663.3c0.1,0,0.1-0.1,0.2-0.1L138.6,663.3L138.6,663.3L138.6,663.3
		z"/>
	<path class="st1" d="M135.1,187.1c-4.3-0.8-8.5-2.5-12.2-4.7c-2,2.6,2,6.9,4.7,5c0.1,0.4,0.3,0.8,0.4,1.2c2.2,2.4,5.9,3.2,8.9,1.9
		c0.3-0.3,0.4-0.7,0.4-1.2C137.2,188.2,136.3,187,135.1,187.1L135.1,187.1L135.1,187.1z"/>
	<path class="st1" d="M131,149.6c-0.7,1.1-1.4,2.2-2.2,3.4c3.6,2.2,3.6,7.5,2.5,11.6s-2.7,8.7-0.7,12.5c1.1-0.9,3-0.5,3.7,0.8
		c1.4-6.3,2.2-12.8,2.5-19.2c0-0.2,0-0.4,0-0.6C136.8,153.9,134.9,148.6,131,149.6L131,149.6L131,149.6z"/>
	<path class="st1" d="M46,173c-3.6,1-7.7,0.4-10.8-1.7c2.9-0.6,5.8-1.2,8.7-1.9c-1.9-4.1-6.3-7-10.8-6.9c1.3,2.2,0.4,4.9-0.8,7.2
		c-1.2,2.2-2.7,4.5-2.4,7c0.3,2.5,3.6,4.6,5.4,2.8c3-3.1,8.4-3.7,12-1.3c0.3-0.6,0.5-1.2,0.5-1.8C47.7,175,47.1,173.7,46,173L46,173
		L46,173z"/>
</g>
<g id="Draw_Layer_3_">
	<path class="st2" d="M281.9,577.4c-0.6-1.1-1.4-2.1-2.3-3.1c-1.8-2.1-3.5-4.2-5.6-6.1c-2.1-1.9-4.7-3.4-7.1-4.9
		c-1.1-0.6-2.2-1.1-3.4-1.5c-2.4-1-5-1.8-7.5-2.6c-2.6-0.8-5.5-1.3-8.2-1.6c-7-0.9-14.1-1.3-21.2-1c-5.8,0.2-11.7,0.8-17.4,2
		c-7.1,1.3-14.1,2.8-20.9,5.3c-3.7,1.4-7.3,3.2-10.8,4.9c-2.6,1.3-5.1,2.8-7.6,4.4c-3.1,2.1-5.9,4.6-8.6,7.2c-2,1.9-3.8,4-5.4,6.3
		c-2.1,2.9-4,5.8-5.3,9.2c-1.4,3.6-2.4,7.1-2.9,11c-0.5,3.5-0.7,7.1-0.4,10.6c0.4,3.9,1.1,7.7,1.8,11.6c1.2,6,2.9,11.9,4.5,17.8
		c0.9,3.5,1.9,6.8,2.9,10.3c1,3.6,1.9,7.2,3.1,10.8c1.6,5,3.2,10.1,4.8,15.1c2.4,7.4,5,14.7,7.5,21.9c5.5,15.8,11.6,31.4,17.6,47
		c1.8,4.8,3.7,9.6,5.8,14.3c1.1,2.5,2.5,4.6,5.1,5.8c2.4,1.2,5.2,1.4,7.7,0.6c5.4-1.8,8.2-8.1,6.3-13.2c-1.2-4.2-2.8-8.3-4.2-12.5
		c-1.6-4.5-3.1-8.9-4.7-13.4c-2.4-6.9-4.9-13.8-7.3-20.6c-2.8-8.4-5.6-16.8-8.3-25.3c-1-3.3-2.2-6.6-3.1-9.9
		c-0.7-2.6-1.4-5.2-2.1-7.8c0.2,0,0.5,0,0.8,0c3.8-0.1,7.7-0.6,11.4-1.1c9.4-1.2,18.8-3.2,27.8-6.3c6.5-2.3,12.8-5.2,18.9-8.4
		c5.1-2.6,10-5.8,14.7-9.2c3.2-2.4,6.2-5.1,9.2-7.8c2.1-1.9,4.1-3.9,6-6c2.6-3,4.9-6.4,6.9-9.8c1.5-2.4,2.8-4.9,3.7-7.6
		c0.9-2.6,1.9-5.1,2.5-7.8c0.6-2.6,0.6-5.5,0.8-8.2c0.1-1.3,0-2.6-0.1-3.8c-0.3-3-0.9-6.1-1.7-8.9c-0.1-0.2-0.1-0.4-0.2-0.6
		C284.4,581.9,283.1,579.7,281.9,577.4L281.9,577.4L281.9,577.4z M247.8,597.2c0,0.4,0,0.8,0.1,1.2c-0.1,1-0.4,2-0.7,3
		c-1.3,3-2.7,5.9-4.5,8.7c-7.4,10.4-16.2,19.6-25.7,28.1c-5.7,4.9-11.7,9.5-17.8,13.8c-3,2.1-6.1,4.1-9.1,6.1
		c-2.4,1.6-4.8,3.2-7.3,4.7c0-0.1-0.1-0.4-0.2-0.5c-1.8-6.5-3.2-13.1-4.7-19.8c0.1,0.6,0.2,1.2,0.4,1.8c-1.8-9.4-4-18.8-3.7-28.4
		c0.2-1.7,0.6-3.4,1.1-5.1c0.5-1.1,1-2.2,1.6-3.3c1.2-1.5,2.5-2.9,3.8-4.3c2.4-1.9,4.9-3.5,7.6-5c5.1-2.2,10.3-3.9,15.7-5.1
		c8.1-1.4,16.3-1.8,24.4-1.4c4.9,0.5,9.7,1.3,14.4,2.7c1.2,0.5,2.4,1.2,3.6,1.8c0.3,0.2,0.6,0.5,0.9,0.7
		C247.6,597.1,247.7,597.2,247.8,597.2L247.8,597.2L247.8,597.2z M215.8,639.3c-0.1,0.1-0.2,0.2-0.4,0.4
		C215.5,639.6,215.6,639.4,215.8,639.3L215.8,639.3L215.8,639.3z"/>
	<path class="st2" d="M315.7,567.3c-5.5,1.8-8.6,8-6.7,13.5s8,8.6,13.5,6.7c5.5-1.8,8.6-8,6.7-13.5
		C327.4,568.5,321.2,565.4,315.7,567.3L315.7,567.3L315.7,567.3z"/>
	<path class="st2" d="M352.5,650.2c-2.6-5.1-5.3-10.1-8.5-14.7c-3.4-5.1-6.7-10.1-10.5-14.9l0,0c-0.1,3.1-0.2,6.3-0.4,9.5
		c-0.6,6.9-2,13.7-2.9,20.6c-1.1,7.3-2.4,14.6-3.1,22.1c-0.5,5.3-1,10.5-0.5,15.8c0.4,5.7,1.7,11.4,2.9,17.1
		c1.6,7.5,4.2,14.9,7,22.1c3.6,8.8,7.9,17.4,13.8,24.8c0,0.1,0.1,0.2,0.1,0.3c0.5,1.6,1.6,2.5,2.6,3.7c0.6,0.5,1.1,1.1,1.6,1.6
		c1.7,1.7,4.2,3.9,6.8,2.9l0,0c-0.1-0.1-0.2-0.2-0.4-0.4c0-0.1-0.1-0.2-0.2-0.3s0-0.1-0.1-0.2c0-0.1,0-0.2,0-0.2
		c0-0.3,0.1-0.7,0.2-0.9c0.4-1,0.8-2,1.2-3c0.3-0.6,0.5-1.2,0.7-1.8c0.5-1.4,0.9-2.3,0.8-3.8c0-0.2-0.1-0.4-0.1-0.7
		c0.7-3.1,1.3-6.3,1.9-9.4c0.8-3.4,1.3-6.8,1.8-10.3c1.1-9.1,1.3-18.1,0.3-27.2c-1.2-9.6-2.9-19.1-5.7-28.3
		c-0.4-1.5-0.9-3.1-1.4-4.5C358.5,663,355.7,656.5,352.5,650.2L352.5,650.2L352.5,650.2z"/>
	<path class="st2" d="M538.6,693.6c-0.3,0.3-0.6,0.7-0.9,1c-0.3,0.3-0.6,0.4-1,0.7c-0.5,0.3-1.2,0.4-1.8,0.5
		c-2.8,0.4-5.7,0.2-8.5,0.1c-0.9-0.1-1.8-0.1-2.7-0.2c-15.3-2-30.5-5.1-45.7-8.4c-3.5-0.7-6.9-1.5-10.4-2.3
		c-3.3-0.8-6.5-1.5-9.7-2.4c-0.2-0.1-0.4-0.2-0.6-0.3c-1.6-1.2-3.3-2.4-4.7-3.9c-0.8-0.9-1.7-1.7-2.5-2.6c-2.4-3-4.7-6-6.7-9.2
		c-1.9-3.1-3.8-6.1-5.5-9.3c-1.1-2.7-2.3-5.4-3.3-8.1c-0.9-2.2-1.7-4.5-2.5-6.7c-0.4-1.3-0.8-2.5-1.1-3.8c-0.4-3.5-0.5-6.9-0.5-10.4
		c0.6-4.5,1.6-8.9,2.5-13.5c1-4.6,1.7-9.2,2.9-13.8c0.6-1.4,1.2-2.6,1.9-3.9c0.7-0.9,1.4-1.8,2.3-2.6c0.4-0.3,0.8-0.6,1.3-0.9
		c0.8-0.4,1.7-0.6,2.5-0.8c0.7-0.1,1.4-0.1,2-0.1c1.1,0.1,2.2,0.4,3.2,0.8c0.5,0.2,1,0.4,1.5,0.8c3.4,2.5,6.3,6.1,9.3,9.1l0,0
		c-0.6-2.2-1.2-4.4-1.7-6.6c-0.5-1.6-0.9-3.4-1.6-5c-0.6-1.2-1.2-2.5-1.9-3.7c-0.9-1.3-2.1-2.5-3.3-3.7c-3.2-3.2-7.7-5-12.1-5.4
		c-1.7-0.1-3.3-0.3-5,0c-2,0.2-3.9,0.7-5.8,1.3c-3.3,1-6.5,2.6-9.6,4.2c-1.8,1-3.6,2.1-5.2,3.4c-2.9,2.3-5.6,4.5-8.5,6.8
		c-4.3,3.2-8.8,6.4-12.6,10.2c-4.2,4.2-7.6,9.4-10.4,14.6c-2.9,5.4-4.8,11.2-6.6,17c-1.7,5.4-2.3,11.1-2.5,16.8c0,2-0.1,4,0,6
		c0.2,2.2,0.4,4.3,0.8,6.5c0.7,4.5,1.5,9.2,2.6,13.7c1,3.8,2.3,7.5,3.9,11c2.8,6.4,5.8,12.6,10,18.1c2.7,3.7,5.8,7.3,9.1,10.5
		c1.4,1.3,2.8,2.7,4.2,3.9c1.5,1.3,3,2.5,4.7,3.6c3.4,2.3,6.7,5,10.4,6.7c3.8,1.7,7.9,2.9,11.8,4.2c7.8,2.5,16.3,2.8,24.3,1.4
		c6-1.1,11.9-2.1,17.8-3.9c4.2-1.2,8.3-2.6,12.5-4.1c8.3-3,16.6-6.8,24.5-10.8c3.3-1.6,6.6-3.4,9.8-5.3c3.5-2.2,6.8-4.5,10-7.1
		C533.8,704.1,539.1,699.3,538.6,693.6C538.7,693.6,538.7,693.6,538.6,693.6C538.7,693.6,538.7,693.6,538.6,693.6L538.6,693.6
		L538.6,693.6z"/>
	<path class="st2" d="M703.7,609.8c-1.2-2.4-2.6-4.5-4.3-6.7c-2.4-3.1-5.1-6.4-8.2-9c-3.2-2.6-6.7-4.9-10.4-6.7
		c-1.9-0.9-3.8-1.8-5.8-2.7c-17-7.6-35-13.7-53.6-15.5c-12.6-1.2-25.3-1.9-38-2.6c-5.1-0.5-10.2-1-15.2-1.8
		c-3.7-0.6-7.4-1.2-11.1-1.9c-3.8-0.7-7.5-1.7-11.2-2.9c0-0.1-0.1-0.2-0.2-0.3c-0.2-0.5-0.3-1-0.5-1.5c0.1-0.3,0.1-0.6,0.2-0.8
		c0.9-1.9,1.8-3.7,2.9-5.4c0.9-1.2,1.8-2.3,2.9-3.2c4.6-3.7,9.3-7.2,14.5-9.9c6.6-3.1,13.4-5.6,20.6-7c3.1-0.6,6.3-0.9,9.5-0.7
		c1.3,0.1,2.5,0.3,3.9,0.8c0.4,0.2,0.8,0.4,1.3,0.6c2.1,1.5,3.8,3.3,5.6,5.1l0,0c-1-2.1-2-4.1-3.3-6c-1.4-2-3.4-3.2-5.6-4.1
		c-5.2-2.3-11.1-2.8-16.7-3.1c-10.7-0.4-21.2,0.9-31.6,3.3c-2,0.4-4.1,1-6.1,1.4c-1.2,0.2-2.3,0.5-3.5,0.8c-3.3,0.7-6.2,2.1-9.2,3.7
		c-3.7,1.9-7.4,3.7-11,5.8c-3.2,1.9-5.9,4.9-8.6,7.4c-2.8,2.7-5,5.8-6.8,9.3c-2,4.2-3.2,8.9-4.6,13.4c-0.3,0.9-0.5,1.8-0.7,2.7
		c-1.4,6.8-0.7,14.3,2.2,20.6c1.2,2.6,2.6,5.5,4.1,8.2c1.3,2.5,4.4,5.3,5.7,6.8c2.4,2.6,6,4.5,8.8,6.4c1.4,0.9,2.9,1.8,4.4,2.5
		c5.6,2.8,11.1,4.9,17.1,6.7c4.6,1.4,9.4,2.2,14.1,3.1c13.4,2.5,27.1,3.2,40.6,4.2c5.7,0.5,11.3,1.3,16.9,2.4
		c6.5,1.2,12.8,3,19.1,4.8c0.1,0,0.3,0.1,0.4,0.1c-0.4,0.2-0.9,0.4-1.3,0.7c-7.9,3.7-15.9,6.8-24,10.1c-6.9,2.8-13.9,5.5-20.9,8.1
		c-7,2.6-14,5.2-21.2,7.3c-7.2,2.1-14.3,4.1-21.6,5.7l0,0c6.9,3.1,13.6,7,20.7,9.8c4.5,1.7,9,3.3,13.7,4.5c3.9,1.1,7.8,1.9,11.7,2.7
		c12,2.5,24.1,4.4,36.4,5.2c-2.1-0.2-4.2-0.3-6.3-0.5c6.4,0.5,12.9,1.2,19.4,1.3c5.7,0,11.4-0.3,17.1-1.3c5.3-1,10.6-1.8,15.7-3.4
		c1.3-0.4,2.6-0.9,3.8-1.4c3.9-1.6,7.9-3.5,11.5-5.7c1.1-0.6,2-1.4,3-2.2c2.9-2.4,6.1-5.1,8.8-8c0.9-0.9,1.6-1.9,2.4-2.9
		c2.4-3.3,5-6.7,6.6-10.5c1.5-3.5,3.2-7.4,3.7-11.4c0.6-4,1.2-8.3,0.5-12.3c-0.7-4.1-1.3-8.4-2.6-12.3c0-0.1,0-0.1-0.1-0.2
		C708,617.7,705.5,613.3,703.7,609.8L703.7,609.8L703.7,609.8z"/>
</g>
</svg>
