<?xml version="1.0" encoding="utf-8"?>
<!-- Generator: Adobe Illustrator 22.1.0, SVG Export Plug-In . SVG Version: 6.00 Build 0)  -->
<svg version="1.1" id="Layer_1" xmlns="http://www.w3.org/2000/svg" xmlns:xlink="http://www.w3.org/1999/xlink" x="0px" y="0px"
	 viewBox="0 0 923.8 862.2" style="enable-background:new 0 0 923.8 862.2;" xml:space="preserve">
<style type="text/css">
	.st0{fill:#B5FF00;}
	.st1{fill:#FEFEFE;}
	.st2{fill:#FF1D99;}
	.st3{fill:#00BDCC;}
</style>
<path d="M425.5,82c-0.8,0.6-1.6,1.3-2.4,1.9c-0.7,0.6-1.4,1.2-2.1,1.7c-17.4,14.5-34.8,29-52.3,43.5c-34.9,29-69.8,57.9-104.7,86.9
	c-36.3,30.1-72.6,60.3-108.8,90.4c-0.7,0.7-1.2,1.6-1.5,2.6c-0.3,1.1-0.3,2.1,0,3.2c2,11.2,4,22.5,5.9,33.8s3.8,22.6,5.8,34
	c3.8,22.6,7.7,45.3,11.5,67.9c7.6,44.9,15.2,89.8,22.8,134.7c4.2,24.8,8.4,49.6,12.6,74.3c0.3,0.9,0.7,1.7,1.4,2.4s1.5,1.1,2.4,1.4
	c5,1.7,9.9,3.6,14.8,5.4c5.5,2.1,11,4.1,16.6,6.2c10.6,4,21.2,7.9,31.9,11.9c21.2,7.9,42.4,15.7,63.6,23.6
	c24.6,9.1,49.3,18.3,73.9,27.4c17.6,6.6,35.2,13.2,52.9,19.7c21,7.8,41.9,15.7,62.9,23.6c2.5,0.9,5,1.9,7.5,2.8
	c1.3,0.5,2.5,0.9,3.7,1.4c1.3,0.5,3,0.1,4.2-0.5c0.4-0.3,0.7-0.6,1.1-0.9c0.7-0.6,1.4-1.1,2.1-1.7c1-0.9,2.1-1.7,3.1-2.6
	c2.4-2,4.9-4,7.3-6c8.8-7.2,17.5-14.4,26.3-21.6c35.2-28.9,70.4-57.9,105.6-86.8c34.9-28.8,69.9-57.5,104.8-86.2
	c4.2-3.4,8.4-6.9,12.5-10.3c2.1-1.7,4.2-3.4,6.3-5.1c1.1-0.9,2.3-1.7,3.1-3c0.6-1,0.9-2.1,0.9-3.2c-0.1-0.9-0.2-1.7-0.3-2.6
	c-0.3-2.8-0.6-5.6-1.1-8.4c-0.4-2.7-0.9-5.4-1.3-8.1c-1-5.9-1.9-11.7-2.9-17.6c-3.6-22.1-7.2-44.2-10.8-66.3
	c-7.4-44.9-14.9-89.7-22.4-134.6c-3.8-22.6-7.6-45.1-11.4-67.7c-1.9-11.2-3.8-22.5-5.7-33.7c-0.4-2.6-0.9-5.2-1.3-7.8
	c-0.3-0.6-0.5-1.2-0.8-1.8c-0.7-1.1-1.6-2.1-2.7-2.7c-0.6-0.3-1.2-0.5-1.8-0.8c-0.8-0.3-1.6-0.6-2.4-0.9c-5.4-2-10.7-4-16.1-6
	c-85.2-31.7-170.4-63.3-255.8-94.7c-10.6-3.9-21.1-7.8-31.7-11.7c-4.9-1.8-9.9-3.6-14.8-5.4c-2.4-0.9-4.7-1.7-7.1-2.6
	c-0.5-0.2-1.1-0.3-1.7-0.3C427.8,81,426.5,81.4,425.5,82L425.5,82L425.5,82z M430.7,729.3l-12-4.5c-12.2-4.5-24.3-9.1-36.5-13.6
	l-11.5-4.3l-2.7-1c-25.6-9.6-51.3-19.2-76.9-28.8l-26.4-9.9l-9.2-3.4l-8.9-3.3l-8.9-3.3c-1.5-0.5-2.9-1.1-4.4-1.6l-1-0.4l-0.2-0.1
	c-3.2-1.2-6.5-2.4-9.7-3.6c-6.1-36.4-12.2-72.9-18.3-109.3L201,524c-7.8-46.8-15.7-93.5-23.5-140.3l-6.1-36.7
	c-1.9-11.4-3.8-22.8-5.6-34c50.6-41.5,102-83.8,151.7-124.8l6.6-5.4c16.9-13.9,33.9-27.9,50.8-41.8c21.1-17.4,38.7-31.8,55.3-45.4
	l0,0l0,0c15.6,6,32,12.2,46.4,17.6l12.8,4.8l17.5,6.6l4.3,1.6c13.9,5.2,27.7,10.5,41.6,15.7c45.8,17.2,87.7,32.9,128,47.9l12.1,4.5
	l1.9,0.7c18,6.7,36.7,13.7,55,20.5c4.9,29.7,10.1,59.7,15,88.8c2.4,14.2,4.8,28.4,7.2,42.6c8.5,50.4,15.8,92.9,22.9,133.7l2.1,12.3
	l4.3,24.7l1.8,10.5l1.5,8.4c0.5,3.1,1.1,6.2,1.6,9.2v0.2l0.1,0.8c0.3,1.5,0.5,3,0.9,4.5l0.1,0.6l0.1,0.5
	c-35.6,29.6-71.1,59.1-106.7,88.6l-8,6.6c-30.7,25.5-61.3,50.9-92,76.4c-19,15.8-37.9,31.5-56.9,47.3
	C510.3,758.9,474.3,745.5,430.7,729.3L430.7,729.3L430.7,729.3z"/>
<path class="st0" d="M430.1,95.6L430.1,95.6c-16.6,13.6-34.2,28.1-55.4,45.4c-16.9,13.9-33.9,27.9-50.8,41.8l-6.6,5.4
	c-49.7,40.9-101.1,83.3-151.7,124.8c1.8,11.1,3.6,22.5,5.6,34l6.1,36.7c7.8,46.8,15.7,93.5,23.5,140.3l3.1,18.2
	c6.1,36.4,12.2,72.9,18.3,109.3c3.2,1.2,6.5,2.5,9.7,3.6l0.2,0.1l1,0.4c1.5,0.5,2.9,1.1,4.4,1.6l8.9,3.3l8.9,3.3l9.2,3.4l26.4,9.9
	c25.7,9.6,51.3,19.2,76.9,28.8l2.7,1l11.5,4.3c12.2,4.6,24.3,9.1,36.5,13.6l12,4.5c43.6,16.2,79.7,29.5,113.5,42
	c18.9-15.8,37.9-31.5,56.9-47.3c30.7-25.5,61.3-50.9,92-76.4l8-6.6c35.6-29.5,71.2-59.1,106.7-88.6l-0.1-0.5l-0.1-0.6
	c-0.4-1.5-0.6-3-0.9-4.5l-0.1-0.8v-0.2c-0.5-3.1-1.1-6.2-1.6-9.2l-1.5-8.4l-1.8-10.5l-4.3-24.7l-2.1-12.3
	c-7.1-40.8-14.4-83.3-22.9-133.7c-2.4-14.2-4.8-28.4-7.2-42.6c-4.9-29.1-10.1-59.1-15-88.8c-18.3-6.8-37-13.7-55-20.5l-1.9-0.7
	l-12.1-4.5c-40.3-15-82.2-30.7-128-47.9c-13.9-5.2-27.8-10.4-41.6-15.7l-4.3-1.6l-17.5-6.6l-12.8-4.8
	C462.1,107.7,445.8,101.6,430.1,95.6L430.1,95.6L430.1,95.6L430.1,95.6z"/>
<g id="Draw_Layer_1_">
	<path class="st1" d="M303,2.5c-3.9,3.2-4.3,8.8-4.3,13.9c-0.7,60.2-1.5,120.4-2.2,180.6c-53.2-54.6-147.3-62.5-208.9-17.7
		C33.7,218.6,9.5,287.6,2.4,353.9c-6,56.4-1.6,115.1,21.9,166.7C47.8,572.3,92.1,616,147,630.4s119.3-5.1,150.6-52.4
		c12.4,5.4-1.9,24.6,1.5,37.7c3,11.3,17.9,13.5,29.6,13.5c42.7-0.2,85.4-0.3,128.1-0.5c4.3,0,9-0.2,11.9-3.4c2.6-2.8,2.8-7,2.9-10.8
		c3.2-200.1,6.5-400.1,9.7-600.2c0.1-7.7-10.1-10.3-17.7-10.5c-49.7-1.3-99.3-2.5-149-3.8c-0.7,0-1.3,0-2,0
		C309.2,0,305.7,0.4,303,2.5L303,2.5L303,2.5z M239.7,514.4c-15.1-2.2-27.6-13.7-34.6-27.2c-7-13.5-9.4-28.9-10.8-44.1
		c-3.5-37-2.3-74.4,3.7-111c3.1-19,8.3-39.2,23.2-51.3c20.9-17,57.1-8.2,68.2,16.4c5.2,11.6,5.3,24.7,5.4,37.4
		c0,32.6,0.1,65.2,0.1,97.7c0,18-0.1,36.6-7.6,52.9c-7.6,16.5-24.4,29.6-42.3,29.6C243.2,514.8,241.4,514.7,239.7,514.4L239.7,514.4
		L239.7,514.4z"/>
	<path class="st1" d="M649.4,191.5C572.9,233,520.8,316.8,519.5,403.7c-1.2,86.9,49.7,173.1,127.4,212.1
		c17.6,8.8,36.3,15.3,55.5,19.9c34.8-28.1,69.5-56.2,104.3-84.4c-1.6-9.9-3.3-19.7-4.9-29.6c-14,5.5-29.7,6.6-44.1,1.8
		c-32.9-10.9-53-50.7-42.3-83.6c24.3,0.3,48.6,0.6,72.9,1c-4.2-25.5-8.5-51-12.7-76.4c-1-6.3-2.1-12.6-3.1-18.9
		c-13.9-0.1-27.7-0.3-41.6-0.4c-6.7-0.1-15-1.1-17.5-7.4c2.5-26,23.2-49.1,48.6-55c-3.6-21.7-7.2-43.3-10.8-65
		c-26.9-10.4-53.7-20.9-80.6-31.3c-2.1-0.6-4-1.5-5.7-2.7C659.6,186.2,654.4,188.7,649.4,191.5L649.4,191.5L649.4,191.5z"/>
	<path class="st1" d="M834.7,441.5c0.2,0,0.3,0,0.5,0c-0.3-1.4-0.6-2.8-0.9-4.2C834.5,438.7,834.6,440.1,834.7,441.5L834.7,441.5
		L834.7,441.5z"/>
	<path class="st1" d="M913.4,423.3c-0.7,0-1.4,0-2.1-0.1c0.7,1.8,1.3,3.6,2,5.5c1.2-0.3,2.3-0.4,3.5-0.4c1.8-2.6,4.2-4.7,7-6
		c-0.3-0.5-0.7-1.1-1-1.6C920,422.3,916.7,423.3,913.4,423.3L913.4,423.3L913.4,423.3z"/>
</g>
<g id="Draw_Layer_2_">
	<path class="st2" d="M303,2.5c-3.9,3.2-4.3,8.9-4.3,13.9c-0.7,60.2-1.5,120.4-2.2,180.6c-53.2-54.6-147.3-62.5-208.9-17.7
		C33.7,218.6,9.5,287.6,2.4,353.9c-6,56.4-1.6,115.1,21.9,166.7C47.8,572.3,92.1,616,147,630.4s119.3-5.1,150.6-52.4
		c12.4,5.4-1.9,24.6,1.5,37.7c3,11.3,17.9,13.5,29.6,13.5c42.7-0.2,85.4-0.3,128.1-0.5c4.3,0,9-0.2,11.9-3.4c2.6-2.8,2.8-7,2.9-10.8
		c3.2-200.1,6.5-400.1,9.7-600.2c0.1-7.7-10.1-10.3-17.7-10.5c-49.7-1.3-99.3-2.5-149-3.8c-0.7,0-1.3,0-2,0
		C309.2,0,305.7,0.4,303,2.5L303,2.5L303,2.5z M239.7,514.4c-15.1-2.2-27.6-13.7-34.6-27.2c-7-13.5-9.4-28.9-10.8-44.1
		c-3.5-37-2.3-74.4,3.7-111.1c3.1-19,8.3-39.2,23.2-51.3c20.9-17,57.1-8.2,68.2,16.4c5.2,11.6,5.3,24.7,5.4,37.4
		c0,32.6,0.1,65.2,0.1,97.7c0,18-0.1,36.6-7.6,52.9c-7.6,16.5-24.4,29.6-42.3,29.6C243.2,514.8,241.4,514.7,239.7,514.4L239.7,514.4
		L239.7,514.4z"/>
	<path class="st2" d="M649.4,191.5C572.9,233,520.8,316.8,519.5,403.7c-1.2,86.9,49.7,173.1,127.4,212.1
		c19.2,9.6,39.6,16.4,60.5,21.1c3.3-2.7,6.7-5.4,10-8.1c0.9-0.9,1.9-1.7,3-2.4c29-23.4,58-46.7,87-70.1c-1.5-8.8-2.9-17.6-4.4-26.4
		c-0.5-2.7-0.9-5.5-1.4-8.2c-14,5.5-29.7,6.6-44.1,1.8c-32.9-10.9-53-50.7-42.3-83.6c24.3,0.3,48.6,0.6,72.9,1
		c-5.3-31.8-10.6-63.6-15.9-95.3c-13.9-0.1-27.7-0.3-41.6-0.4c-6.7-0.1-15-1.1-17.5-7.4c2.5-26,23.2-49.1,48.6-55
		c-3.8-22.6-7.5-45.2-11.3-67.8c-27.7-10.8-55.5-21.5-83.2-32.3C661.3,185.4,655.2,188.3,649.4,191.5L649.4,191.5L649.4,191.5z"/>
	<path class="st2" d="M816.6,165.8c0.3,0.2,0.7,0.4,1,0.6c0.3-0.4,0.7-0.8,1-1.1l0,0c-1.6-0.3-3.2-0.5-4.8-0.8
		C814.7,164.8,815.7,165.2,816.6,165.8L816.6,165.8L816.6,165.8z"/>
</g>
<g id="Draw_Layer_3_">
	<path class="st3" d="M255.3,635.3c-3.7-41.8-9.4-83.3-19.3-124.2c-1-4.3-1.7-9.7-3.8-13.5c-0.1,13,3,26.7,3.9,39.8
		c1,14.1,1.5,28.2,1.6,42.4c0.2,27.8-1.1,55.6-3.7,83.3c-0.1,0.7-0.2,1.2-0.7,1.7c-5.1-1.3-12.1-10.8-16.5-14.5
		c-6.3-5.3-12.8-10.4-19.7-15c-13.7-9.1-28.7-16-44.6-20c-18.9-4.8-38.9-4.6-52.4,11.2c-11.4,13.4-16.1,32.2-16.9,49.4
		c-1.3,25.7,7.9,52.2,25.9,70.8c13.5,14,31.6,23.1,50.7,26.6c9.7,1.8,19.7,2.1,29.4,0.9c9.7-1.2,19.2-6.2,28.8-6.5
		c6.7-0.2,11.9,8.9,20.3,9.7c9.3,0.9,19.6-4.2,22.6-13.4c1.8-5.4,1.5-11.1,1.3-16.8C260.4,710,258.6,672.6,255.3,635.3z
		 M243.1,755.5c-0.2,0.1-0.3,0.2-0.5,0.3C242.8,755.8,242.9,755.7,243.1,755.5L243.1,755.5L243.1,755.5z M208.2,734.1
		c-2.5-0.9-5-1.8-7.5-2.8c-8.2-3.2-16.3-6.3-24.3-10.1c-7.2-3.8-14.1-8.2-20.4-13.3c-2.5-2.4-4.9-4.9-7.1-7.6
		c-1.4-2.4-2.6-4.9-3.6-7.4c-0.9-3.4-1.6-6.9-2-10.4c0-3.9,0.2-7.8,0.7-11.7c0.3,0,0.5,0.1,0.8,0.1c0.7,0.1,1.3,0.3,2,0.4
		c3.7,0.8,7.4,2,10.9,3.4c2.4,0.9,4.8,2,7.2,3.1c6.5,3.4,12.7,7.3,18.4,11.9c4.4,4.2,8.4,8.8,11.9,13.7c3.9,6.3,7.2,12.9,9.8,19.9
		C206.2,726.8,207.2,730.4,208.2,734.1L208.2,734.1L208.2,734.1z"/>
	<path class="st3" d="M374.9,658.5c-1.6-3.1-3.5-4.8-6.1-7c-0.5-0.4-1-0.6-1.5-0.9c-1.4-0.7-2.7-1.4-4.2-2c-1.2-0.5-2.4-0.8-3.7-1.1
		c-3.9-0.9-7.7-1.5-11.6-1.5c-3.8,0-7.7,0.3-11.4,1.1c-4.1,0.8-8.1,2.3-11.9,3.9c-2.6,1.1-5,2.5-7.4,3.9c-3.5,2.2-6.8,4.5-10,7.1
		c-5.2,4.3-9.7,9.5-13.7,14.8c-4.1,5.3-7.2,11.2-9.9,17.3c-2.3,5.2-4.2,10.5-6.1,15.8c-1.3,3.7-2,7.6-2.8,11.5c-0.6,3-0.9,6-1.1,9.1
		c-0.1,2.1-0.1,4.1-0.2,6.2c-0.1,4,0,8,0.7,11.9c0.5,2.7,1.5,5.4,2.6,7.9c1.2,2.6,3,5,4.7,7.3c0.8,1,1.7,1.9,2.6,2.8
		c1.9,1.7,3.9,3.5,6,5c2.1,1.4,4.6,2.5,6.8,3.6c1.3,0.6,2.7,1.2,4.1,1.7c3.6,1.3,7.5,2,11.3,2.5c2.9,0.4,5.9,0.5,8.8,0.5
		c6.7-0.1,13.4-0.7,20-1.8c2.2-0.4,4.4-0.9,6.7-1.4c4.1-0.9,8.2-2,12.2-3.2c5.3-1.5,10.5-3.4,15.7-5.2c4.8-1.7,9.6-3.8,14-6.5l0,0
		c-0.9,0.1-1.8,0.2-2.7,0.3c-8.4,0.3-16.7-1.4-24.9-2.9c0.6,0.1,1.2,0.2,1.7,0.4c-3.4-0.7-6.7-1.4-10.1-2c-3.2-0.7-6.4-1.4-9.6-2.1
		c-4.6-1-9.2-2.3-13.8-3.7c-4.3-1.3-8.5-2.7-12.6-4.6c-1.9-1-3.7-2.2-5.4-3.5c-0.6-0.7-1.3-1.3-1.8-2.1c-0.2-0.3-0.3-0.6-0.4-0.9
		c-0.3-1.6-0.5-3.3-0.7-5c-0.2-5.9-0.2-11.8,0.8-17.6c1.2-5.2,2.6-10.4,4.6-15.4c9.7-0.6,19.4-2.7,28.5-6.4
		c4.7-1.9,9.2-4.5,13.6-7.1c2.5-1.6,5-3.1,7.4-5c2.5-1.9,4.6-4.4,6.6-6.8c-0.3,0.3-0.5,0.6-0.8,0.9c2.3-2.7,4.4-5.3,5.7-8.8
		c0.4-0.9,0.7-2.9,0.8-4.2c0.1-1.2,0-2.5-0.3-3.8C375.8,660.6,375.4,659.5,374.9,658.5L374.9,658.5L374.9,658.5z M347.1,674.6
		c-3.7,3.9-7.8,7.5-12.1,10.5c-4.6,3-9.5,5.4-14.5,7.5c1-1.5,2.1-2.9,3.3-4.3c2.7-2.9,5.6-5.5,8.8-7.8c3-1.8,6.1-3.4,9.3-4.6
		C343.5,675.4,345.3,675,347.1,674.6L347.1,674.6L347.1,674.6z"/>
	<path class="st3" d="M497.9,736.2c-1-3-1.9-5.9-3.2-8.7c-0.6-1.3-1.4-2.5-2.2-3.7c-1.5-2.3-3-4.7-4.8-6.9c-1.8-2.3-3.8-4.4-5.8-6.5
		c-2.8-2.8-5.9-5.3-9.2-7.5c-2.2-1.5-4.5-2.7-6.8-4.1c-2.1-1.3-4.2-2.5-6.3-3.7c-3.8-2.2-7.7-4.3-11.5-6.5c-2.5-1.4-5.1-2.9-7.6-4.3
		c-5.2-2.9-10.5-5.9-15.1-9.6c-1-0.9-1.8-1.9-2.7-2.9c-0.2-0.4-0.5-0.9-0.7-1.3c-0.1-0.3-0.1-0.6-0.2-0.9c0-0.7,0.1-1.4,0.2-2
		c0.5-1.9,1.1-3.8,1.8-5.6c0.9-1.6,1.9-3,3-4.5c1.8-2,3.9-3.7,6.1-5.3c3.8-2.5,7.9-4.4,12.1-5.9c4.6-1.5,9.3-2.5,14.1-2.9
		c2.6-0.1,5.1-0.1,7.6,0.4c1,0.2,2,0.5,3,1c0.7,0.4,1.4,0.9,2.1,1.5c2.3,2.1,4.4,4.4,6.5,6.8l0,0c-1.2-2.1-2.4-4.2-3.7-6.2
		c-0.9-1.4-1.8-2.8-3.1-3.9c-2-1.7-4.5-2.6-7-3.3c-5.6-1.5-11.6-1.7-17.4-1.4c-6.1,0.4-12.1,1.7-17.9,3.7
		c-5.6,1.9-10.7,4.7-15.3,8.5c-2.4,2-4.5,4.3-6.4,6.7c-0.8,1-1.6,2.1-2.4,3.1c-1.2,1.7-2.2,3.5-3,5.4c-3.2,7-1.8,15.7,1.9,22.2
		c1.7,3,3.8,5.9,6.1,8.5c2.6,2.9,5.6,5.4,8.6,7.9c3.4,2.8,7,5.2,10.6,7.7c2,1.4,4.1,2.9,6.1,4.3c4.9,3.5,9.7,7.1,14.2,10.9
		c2,1.8,3.8,3.8,5.4,5.9c1.4,2.3,2.7,4.6,3.7,7.1c0.3,1,0.5,2,0.6,3c-0.1,1.2-0.2,2.4-0.4,3.5c-0.5,1.7-1,3.4-1.7,5.1
		c-0.1,0.2-0.2,0.4-0.3,0.5c-1,0.5-2.1,1-3.2,1.5c-3,0.8-6,1.4-9.1,1.7c-5.4,0.1-10.8-0.4-16.1-1.3c-5.1-1.2-10.2-2.5-15.2-3.9
		c-4.1-1.1-8.1-2.5-12-4.3c-2.2-1.2-4.2-2.5-6.2-4.1c-0.4-0.4-0.8-0.8-1.2-1.2c-1.4-2.2-2.5-4.6-3.6-6.9l0,0
		c-0.1,2.2-0.1,4.4-0.1,6.5c0,2.7,0.6,5,1.4,7.5c1.4,4.5,3.9,8.4,6.5,12.2c2.2,3.3,5,6.1,7.7,9c1.3,1.4,2.8,2.7,4.1,4.1
		c3.5,3.4,7.2,6.6,11.1,9.4c2.1,1.4,4.3,2.7,6.6,3.8c3.8,1.9,7.6,3.8,11.7,5c4,1.2,8.3,2,12.4,2.4c1.4,0.1,2.8,0.1,4.2,0.1
		c3.2-0.1,6.4-0.3,9.6-0.8c1.3-0.2,2.6-0.6,3.9-1c2.8-0.9,5.7-1.8,8.4-3.1c0.6-0.3,1.1-0.6,1.6-1c1.8-1.2,3.8-2.4,5.6-3.8
		c2.4-1.8,4.3-4.3,6.1-6.8c1.6-2.3,2.9-5.2,4.1-7.6c0.6-1.2,1.1-2.5,1.5-3.8s0.7-2.7,1-4c0.6-3.1,1.4-6.1,1.7-9.2
		c0.4-4.2,0.2-8.6-0.4-12.7c0-0.2-0.1-0.4-0.1-0.6C498.6,738.4,498.3,737.3,497.9,736.2L497.9,736.2L497.9,736.2z"/>
	<path class="st3" d="M524.9,647.1c-3.1,4.6-5.9,9.4-8.2,14.5c-2.6,5.7-4,11.8-5.2,17.9c-1.7,9-1.8,18.3-0.8,27.3
		c1,8.6,2.9,17,5.1,25.3c1.1,4.4,2.4,8.8,3.8,13.1c0.4,1.3,0.8,2.5,1.3,3.8c0.3,0.8,0.7,1.6,1.1,2.4c0.5,1.1,1.4,2.4,2.5,2.9
		c2.4,1.3,4.4-1.2,5.6-2.9c0.8-1.2,1.6-2.4,2.3-3.7l0,0c-0.3,0.2-0.6,0.4-0.9,0.6c-1.3,0.8-2.7,1.6-4.1,2.2l0,0
		c-0.1-2.3,0.3-4.7,0.5-7c0.2-1.7,0.3-3.4,0.5-5.1c0.5-4.1,0.9-8.2,1.2-12.3c0.7-8.9,0.8-18,0.1-27c-0.5-6.4-1.2-12.8-1.9-19.2
		c-0.7-6.5-1.6-13-2-19.5c-0.2-3-0.3-6.1-0.5-9.1C525.1,649.9,525,648.5,524.9,647.1L524.9,647.1L524.9,647.1L524.9,647.1z
		 M527.4,750.5L527.4,750.5L527.4,750.5C527.3,750.6,527.4,750.5,527.4,750.5L527.4,750.5L527.4,750.5z"/>
	<path class="st3" d="M523.2,610.2c-0.7-1.1-1.7-2-2.4-3.1c-0.5-0.7-0.9-1.6-1.7-2c0.2,0.2,0.4,0.5,0.5,0.8c0.5,1.6-0.3,3.5-0.7,5
		c-0.4,1.2-0.6,2.6,0,3.7c0.3,0.6,0.7,1,1.2,1.4c1.6,1.3,3.6,2,5,3.7c0-1-0.2-2.1-0.2-3.1c0-1.1,0-2.1-0.2-3.2
		c-0.2-0.9-0.5-1.7-0.9-2.5C523.6,610.7,523.4,610.4,523.2,610.2z M519.7,605.9L519.7,605.9L519.7,605.9L519.7,605.9L519.7,605.9z"
		/>
	<path class="st3" d="M633,665.4c-2.4-4.3-4.5-6.8-8.6-9.7c-8.4-5.9-21-5.7-29.2,0.6c-1.1-0.4-2.2-0.8-3.3-1.2c-3.2-1-6.4-2-9.7-2.1
		c-3.1-0.2-6.4,0.2-9.4,1.2c-1.8,0.6-3.7,1.2-5.4,2c-2,0.9-3.7,2.1-5.5,3.3c-4.9,3.4-8.9,8.1-12.1,13.1c-3.5,5.5-6.1,11.7-7.6,18
		c-0.9,3.7-1.5,7.4-1.8,11.3c-0.1,1.4-0.1,2.7,0,4.1c0.1,2.7,0.1,5.5,0.5,8.2c0.4,2.4,1.5,5.1,2.7,7.3c1.3,2.1,2.7,4.5,4.5,6.3
		s3.8,3.5,5.9,4.9c2.3,1.5,4.9,2.7,7.4,3.9c2.4,1.1,5,1.7,7.5,2.2c2.7,0.6,5.4,1.2,8.2,1.5c1.6,0.2,3.3,0.4,4.9,0.6
		c1,0.1,2,0.2,3,0.2c0,1.7,0,3.3,0,5c-0.1,5.9-0.1,11.7-0.2,17.6c0,4.6-0.3,9.1-0.7,13.7c-0.4,5.5-1.1,10.9-2.1,16.3
		c-1.1,4.5-2.4,9-4.3,13.2c-1.3,2.4-2.8,4.7-4.5,6.9c-1.2,1.2-2.4,2.3-3.7,3.3c-0.7,0.4-1.4,0.7-2.1,1.1c-1,0.2-2,0.4-3,0.6
		c-3-0.1-6-0.4-8.9-1c-6.1-1.5-12-3.8-17.6-6.5c-4.9-2.5-9.7-5.3-14-8.7c-1.6-1.5-3.1-3.2-4.4-5c-1-1.6-1.9-3.3-2.6-5.1
		c-1.6-5.1-2.8-10.4-3.3-15.8l0,0c-1,1.9-1.9,3.9-2.8,5.9c-2.3,4.9-4.4,10.4-4.9,15.8c-0.3,3.1-0.1,6.4,0.3,9.5
		c0.5,3.5,1.7,6.9,3,10.1c2.4,5.9,6.1,11.3,9.9,16.3c1.6,2.1,3.3,4.2,5.1,6.1c2.8,3.1,6,5.8,9.2,8.4c2.1,1.7,4.2,3.3,6.5,4.7
		c3.7,2.2,7.7,4.2,11.8,5.8c1.2,0.5,2.5,0.9,3.8,1.2c2.9,0.8,5.8,1.4,8.7,1.7c1.3,0.2,2.7,0.2,4,0.2c3.3,0,6.7-0.2,10-0.7
		c3-0.5,6.2-1.8,8.9-2.7c1.2-0.4,2.4-1,3.6-1.6c2.7-1.4,5.3-3.3,7.7-5c1.3-0.9,2.5-1.8,3.6-2.8c1-0.9,1.9-1.9,2.8-2.9
		c2-2.3,4.1-4.6,6-7c2.8-3.7,4.7-7.8,6.7-11.9c2.4-5,4.3-10.3,5.7-15.7c3.5-13,5.7-26.3,6.9-39.7c0.5-5,0.7-9.9,1-14.9
		c0.3-4,0.6-8.1,0.8-12.1c0.2-7.8,0.6-15.6,0.7-23.3c0.1-5.3,0.1-10.7,0.2-16c0-2.5,0.1-4.9,0.1-7.4c0-1.5,0.1-2.9,0.1-4.4
		c0.4-1.2,0.7-2.5,1-3.8c0.6-2.9,1.3-5.7,1.6-8.6c0.3-3-0.1-6.5-0.4-9.4c0-0.4-0.1-0.8-0.2-1.2C634.8,669.1,634,667.2,633,665.4
		L633,665.4L633,665.4z M586.2,668.5c-0.2,0.4-0.3,0.8-0.4,1.3c-1,3.2-1.6,6.6-2,9.9c-0.7,5.6-0.4,11.5-0.3,17.1
		c0.1,2.1,0.1,4.3,0.2,6.4c-1-0.1-2.1-0.2-3.1-0.2c-1.8-0.1-3.5-0.3-5.2-0.6c-0.9-0.2-1.7-0.5-2.5-0.8c-0.7-2.5-1.2-5-1.4-7.6
		c0-3.1,0.2-6.2,0.7-9.3c0.6-2.4,1.4-4.8,2.4-7c0.9-1.5,1.8-3,2.9-4.4c0.9-1,1.9-1.8,3-2.7c1-0.6,2-1.1,3.1-1.6
		C584.4,668.8,585.3,668.6,586.2,668.5L586.2,668.5L586.2,668.5z"/>
	<path class="st3" d="M765.4,687.3c-2.4-7-4.6-14.1-8.3-20.6c-2.1-3.7-4.5-7.3-7.1-10.7c-1.7-2.3-3.7-4.5-5.8-6.4
		c-3.2-2.9-6.4-5.7-10-8c-3.7-2.4-7.8-4.4-11.9-6.1c-3.9-1.6-8-2.4-12.2-3.3c-2.8-0.6-5.6-0.9-8.4-0.9c-8.4-0.1-17.6,1-24.9,5.6
		c-4.5,2.8-8.7,6-11.5,10.6c-2.1,3.5-3.5,7.3-4.7,11.2c-0.4,1.3-0.8,2.6-1.2,3.9c-0.6-4.9-1.4-9.7-2.6-14.5
		c-1.3-5.2-2.9-10.5-6.3-14.7c-1.4-1.8-3.4-3.1-5.7-3.5c-1.2-0.2-2.3-0.3-3.4,0c-1.1,0.2-2.1,0.9-2.9,1.6c-3.6,2.6-6.2,6.1-8.2,10
		c-1,2-1.9,4-2.9,6l0,0c1.9-2.7,3.7-5.5,5.8-8c0,0.1-0.1,0.1-0.1,0.2c1.6-1.8,3.3-3.2,5.3-4.6c0.9-0.6,1.9-1.2,2.9-1.6
		c0.3-0.1,0.7-0.2,1-0.2c0.4,0,0.8,0.1,1.2,0.2c-0.2,0-0.3-0.1-0.5-0.1c0.6,0.2,1.1,0.4,1.7,0.6c0.2,0.1,0.4,0.3,0.6,0.4
		c0.5,0.5,0.9,0.9,1.3,1.5c0.7,1.2,1.2,2.4,1.7,3.7c1.3,4.1,1.7,8.5,2,12.8c0.5,10.1-0.2,20.2-0.8,30.3c-0.3,5.3-0.7,10.7-1.1,16
		c-1.6,5.4-3.1,10.8-4.5,16.2c-0.8,3-1.5,5.9-2,8.9c-0.3,1.5-0.5,3.1-0.8,4.6c-0.1,0.5-0.2,1-0.3,1.6c-0.3,1.9,0.2,4,0.5,6l0,0
		c0.2,1.3,0.7,2.5,1.3,3.7c2.3,4.6,6.9,7.7,12,8.1c5.1,0.4,10.4-2.1,13.2-6.4c1.2-1.9,2.4-3.9,3-6.1c0.4-1.4,0.9-2.8,1.3-4.2
		c0.4-1.4,0.9-2.8,1.3-4.2c1.2-3.8,2.3-7.7,3.6-11.5c2.8-8.6,5.6-17.1,8.5-25.6c1.7-5.1,3.7-10.2,6-15.1c0.5-1,1.1-1.9,1.7-2.9
		c0.5-0.1,1-0.2,1.6-0.3c2,0,4,0.2,5.9,0.5c1.9,0.5,3.8,1.2,5.7,2c2.3,1.3,4.4,2.8,6.4,4.4c3.6,3.5,6.8,7.4,9.7,11.5
		c2.7,4.4,5.1,8.9,7.5,13.5c2.3,4.4,4.3,9,6,13.7c3,9.5,4.9,19.2,6.1,29.1c0.5,4.1,0.8,8.3,1.2,12.4c0-0.3,0-0.6-0.1-1
		c0.5,7.7,1.1,15.4,1.8,23.1c-0.1,0.4-0.2,0.8-0.3,1.3s0,1.1,0.1,1.7c-0.2,0.7-0.2,1.4,0.2,2.1c0.4,0.8,1.3,1.3,2.2,1.4
		c1.2,0.1,2.2-0.8,2.9-1.7c0.8-1.1,1.2-2.1,1.5-3.3c3.8-7.1,6.8-14.6,9.7-22.1c1.7-4.4,3.2-9,4.4-13.6c1.8-6.6,3-13.4,3.6-20.2
		c0.6-7.1,0.4-14.3-0.3-21.4c-0.2-2.1-0.5-4.2-0.9-6.3C767.6,694.5,766.6,690.9,765.4,687.3L765.4,687.3L765.4,687.3z M650.4,651.3
		c0,0.2,0,0.4,0,0.5C650.4,651.7,650.4,651.5,650.4,651.3L650.4,651.3L650.4,651.3z M638.3,635C638.3,635,638.2,635,638.3,635
		C638.2,635,638.3,635,638.3,635L638.3,635L638.3,635z"/>
</g>
</svg>
