<?xml version="1.0" encoding="utf-8"?>
<!-- Generator: Adobe Illustrator 22.1.0, SVG Export Plug-In . SVG Version: 6.00 Build 0)  -->
<svg version="1.1" xmlns="http://www.w3.org/2000/svg" xmlns:xlink="http://www.w3.org/1999/xlink" x="0px" y="0px"
	 viewBox="0 0 1540.9 1540.9" style="enable-background:new 0 0 1540.9 1540.9;" xml:space="preserve">
<style type="text/css">
	.st0{display:none;}
	.st1{display:inline;fill:#FC0000;}
	.st2{fill:url(#SVGID_1_);}
</style>
<g id="Layer_2" class="st0">
	<rect y="3.8" class="st1" width="1540.9" height="1540.9"/>
</g>
<g id="Layer_3">
	<linearGradient id="SVGID_1_" gradientUnits="userSpaceOnUse" x1="547.9261" y1="814.4682" x2="1276.926" y2="833.4682">
		<stop  offset="0" style="stop-color:#DBC79A"/>
		<stop  offset="0.5" style="stop-color:#C9AC68"/>
		<stop  offset="1" style="stop-color:#BE9C48"/>
	</linearGradient>
	<path class="st2" d="M834,1158c12.3-14.8,25.6-39.9,18-61c-11.9-32.9-66.9-29.6-114-54c-25.7-13.3-56.4-38.7-108-168
		c-64.8-162.2-97.2-243.2-90-362c5-82.1,29.4-142.8,65-235c27.1-70.2,41.2-105.8,70-130c73.6-61.8,203-52.2,289-3
		c126.3,72.3,152.1,226.2,174,357c16.2,96.5,40.9,243.9-29,376c-20.8,39.3-43.7,65.5-49,117c-7.4,71.8,30.2,88.9,53,202
		c12.5,62.2,3.2,66.9,19,181c6.9,49.8,14.5,90.5,20,118l14,44.9H926.8C926.8,1540.9,669,1356,834,1158z"/>
</g>
<g id="Contours">
	<g>
		<path d="M199.9,1388c0.4-1.2,0-2.8-1.2-3.2c-1.9-0.6-4.4,2.1-5.6,0.5c0,0.9,0,1.8-0.1,2.7c1.9-0.4,3.9,1.2,4,3.1
			c0,1.9-2,3.6-3.9,3.2c0,3.5,0,7,0,10.5c2.7,0.3,4.5-2.8,4.6-5.5s-0.5-5.5,0.5-8C198.7,1390.2,199.6,1389.2,199.9,1388z"/>
		<path d="M193.1,1407.2c-0.1,3-0.1,5.9,0.2,8.9c2.7-2.2,3.6-6.3,2.2-9.4C194.7,1406.8,193.9,1407,193.1,1407.2z"/>
		<path d="M697.9,2.3C697.9,2.3,697.9,2.3,697.9,2.3C697.9,2.3,697.9,2.3,697.9,2.3L697.9,2.3z"/>
		<path d="M697.9,2.3c-1.2,0-2.5,0-3.7,0c-0.2,1-0.1,2.1,0.3,3.1C696,4.9,697.2,3.7,697.9,2.3z"/>
		<path d="M193.5,1420.7c1.3-0.8,1-3.1-0.4-3.7C192.9,1418.3,193.1,1419.5,193.5,1420.7z"/>
		<path d="M193.1,1417C193.1,1417,193.1,1417,193.1,1417c0,0,0-0.1,0-0.1L193.1,1417z"/>
		<path d="M975.9,913.6c-1.2,0.8-2.3,1.8-3.2,3c1.1-0.9,2.1-1.8,3.2-2.8C975.9,913.7,975.9,913.7,975.9,913.6z"/>
		<path d="M930.9,768c-0.6-2.8-4-3.9-6.9-4.4c-9.2-1.7-18.5-3.3-27.7-5c-31.7-5.7-63.4-11.4-95-17.1c-4.7-0.8-9.8-1.6-13.9,0.8
			c-6.5,3.8-14.5,0.7-22-0.3c-11.1-1.5-22.3,2-32,7.7c-9.6,5.6-17.9,13.3-26.1,20.9c-1.4,1.3-2.9,2.8-3.2,4.7
			c-0.3,2.5,1.5,4.6,3.2,6.4c8.5,9.4,15.3,20.3,20.3,32c3.5,8.4,6.1,17.3,10.6,25.1c14,24,45.1,33.9,72.5,29.6
			c27.4-4.3,51.5-20.4,72.7-38.3c12.7-10.8,25.1-23,31.6-38.4C918.8,782.7,921.7,771.4,930.9,768z M821.9,751l0.1,0
			c-0.9,1.6-3.4,2-4.7,0.7C818.4,750.4,820.4,750.1,821.9,751z M752.4,745.3c0.2,1.3,0.4,2.6,0.6,3.9c2.1-2.7,6.3-1.4,9.5-0.3
			c7.7,2.6,16.2,2.4,23.7-0.5c7.4-2.8,15.8-2.9,23.3-0.2c-0.4,2.3,2,4.6,4.2,4c-1.8,1.4-4.4,1.5-6.3,0.4c1.2-1.8-1.4-4.4-3.2-3.2
			c1.4,0.9,0.7,3.4-0.9,4.1c-1.5,0.7-3.3,0.2-5-0.3c-2.9-0.9-5.9-0.4-8.9,0c-4.3,0.6-8.6,1.3-12.9,1.9c-1.1,0.2-2.3,0.3-3.3-0.1
			c-4.2-1.6-8.8-2.4-13.3-2.2c-4.9,0.2-9.8-1.8-13.2-5.4C748.7,747,750.6,746.2,752.4,745.3z M752.1,816.3c0.9-0.7,2.2,0.5,2.2,1.6
			C753.4,817.7,752.5,817.1,752.1,816.3z M756.4,814l0.6-0.2c2.4-0.4,5,0.5,6.7,2.3C761.1,817.4,757.8,816.4,756.4,814z
			 M764.4,819.7L764.4,819.7c0.7-0.3,1.4,1,0.7,1.3c-0.6,0-1.2-0.1-1.5-0.6C763.3,820,764.1,819.3,764.4,819.7z M818.5,828.4
			c-5.8,2.1-11.8,3.7-17.8,5c1.2-1.2,0-3.6-1.7-3.5c-1.7,0.1-2.6,2.5-1.5,3.8c-6.3,1.3-12.9,0.5-18.7-2.3c-3.1-1.5-6.6-1.5-10-2
			c-3.4-0.6-7-2-8.3-5.2c2.6,0.8,5.5,0.5,8-0.6c2.1-1,4.5-0.9,6.8-0.9c3.1,0.1,6.3,0.1,9.4,0.2c1.5,0,3,0.1,4.3,0.7
			c5.2,2.5,11.2,3.2,16.8,2c1.7-0.4,4.2-0.4,4.4,1.3c1.9-0.2,3.8-0.5,5.7-0.7c-0.5-0.9-0.9-1.9-1.4-2.8c4.1-2.4,8.7-3.6,13.4-3.6
			c0.4,0.8-0.7,1.6-1.6,1.6s-1.8-0.3-2.6,0.1c-0.7,0.4-1,1.3-1.3,2c-1,2-3.5,3.2-5.7,2.8C817.3,826.9,817.9,827.6,818.5,828.4z
			 M800.2,818.2c0.4,1.9-2,3.4-3.8,3c-1.9-0.4-3.3-2-4.6-3.4c-2-2.1-4.2-4.1-6.9-5.1c-1.3-0.5-2.8-0.7-4-1.5
			c-1.2-0.7-2.2-2.2-1.8-3.6c0.6-1.9,3.1-2.1,5-1.9c4.8,0.4,9.5,1.4,14.1,2.9c0.6,0.2,1.3,0.4,1.8,0.9
			C802.3,811.6,799.6,815.3,800.2,818.2z M804.6,811.8c0.3-1,0.9-1.9,1.8-2.5c1.8,0.7,2.5,3.3,1.3,4.9l-0.2,0
			C806.4,813.7,805.4,812.8,804.6,811.8z M817.7,811.2c1-0.3,1.6-1.2,2.3-2c2.1-2.5,5.3-4,8.6-3.9c0.9,0,2.1,0.5,1.9,1.4
			c-0.1,0.7-0.9,0.9-1.6,1.1c-3,0.6-6,1.2-9,1.8c0.1,2.1,2.9,2.6,4.9,2.2c2-0.5,4.4-1.2,5.9,0.2c-1,2.6-4.3,3.4-7.1,3.1
			s-5.5-1.2-8.2-0.7c-1.6-2.2-1.7-5.3-0.2-7.6c0.8,0.2,1.5,0.6,2,1.2c-0.5,0.5-0.9,1-1.4,1.6C815.5,810.5,816.8,811.5,817.7,811.2z
			 M821.7,826.9c2.4-1.2,4.8-2.3,7.3-3.5c2.7-1.3,5.4-2.6,8.3-3.1c2.4-0.4,4.8-0.3,7.1,0.3C837.3,824,829.5,826.1,821.7,826.9z
			 M842,815.3c-2.1-0.1-3.9,1.5-5.7,2.6c-1.9,1-4.9,1-5.4-1.1c2.9-0.5,5.4-2.5,8.2-3.5c2.8-1.1,6.6-0.9,8.1,1.7
			C846.5,816.7,843.9,815.4,842,815.3z M850.5,817.1c-0.6-0.1-1.1-0.9-0.7-1.5c0.4-0.7,1.6-0.4,1.7,0.3l0.2-0.1
			C851.8,816.5,851.2,817.2,850.5,817.1z M871.8,806c-0.7,0.5-1.9-0.1-1.9-1c0.6-0.8,2.1,0.1,1.9,1.1L871.8,806z M881.2,805.8
			L881.2,805.8c-0.1-0.9,0.3-2.3,1.1-1.9C883.2,804.5,882.2,805.9,881.2,805.8z M899.7,792c-1.5-0.4-3.2,0-4.4,1.1
			c1,1.7,2.8,2.8,4.8,3c-1.5,1.3-3,2.7-4.4,4c1.1-1.1,0.2-3.1-1.2-3.7c-1.5-0.5-3.1,0-4.5,0.5c-3.6,1.2-7.2,2.5-10.8,3.7
			c-1.4,0.5-2.8,0.9-4.2,1.4c-4.4,1.5-9,3.1-12.5,6.2c1,0.4,1.6,1.5,1.4,2.5c-0.9-1.4-3-1.4-4.5-0.6c-1.4,0.8-2.4,2.3-3.2,3.7
			c-1.8-0.3-3.6-0.1-5.3,0.5c-1.4-0.8-2.6-1.9-3.4-3.3c2-1.5,4.9-1.9,7.2-0.9c0.5-0.5,0.1-1.4-0.5-1.7c-0.6-0.3-1.4-0.2-2.1,0
			c1.9-3.9,9.6-0.3,11.4-4.2c1.4-2.9,5.4-3,8.6-3.7c2.3-0.5,4.4-1.6,6.4-2.7c7-3.7,14-7.3,20.9-11c1-0.6,2.9-0.7,2.9,0.5
			C900.5,787.9,899.4,790,899.7,792z M898.7,781.4c-5.4,1.1-11.2-3.8-11-9.3c-2,5.3-4.4,10.5-7.2,15.5c-1.1,2.1-2.5,4.3-4.8,5
			c-3.4,1.2-6.9-1.6-9.1-4.5c-2.2-2.9-4.2-6.3-7.6-7.4c-1.1,9.5-13.9,15.3-21.8,9.8c-8.2,12-27.2,14.7-38.5,5.5
			c-8.5,7.8-23,7.7-31.4-0.2c-4.7-4.4-13.1-3.7-16.9,1.4c-1.8,2.4-5.7,0.4-7.5-2c-1.8-2.4-3.9-5.5-6.9-5.2c1.4-4-1.2-8.9-5.2-10.2
			c-1-0.3-1.1-1.7-0.9-2.8c0.7-3.8,1.5-7.9,4.5-10.4c3-2.5,8.7-1.6,9.2,2.3c2.8-5.6,10.9-4,17-2.4c14.3,3.7,29.3,2.7,44,1.9
			c33.4-1.7,66.9-1.7,100.3,0C907.5,773.4,904.1,780.3,898.7,781.4z M909.5,794.9L909.5,794.9c-0.8,0-1.5,0-2.3,0
			c-0.5,1.2-1.3,2.2-2.3,2.9c-0.7,0-0.8-1.1-0.6-1.8c0.4-1.3,0.8-2.6,1.8-3.5c1-0.9,2.7-1.2,3.6-0.2
			C909.9,793.2,909.9,794.1,909.5,794.9z M909.4,784.3c-0.9-0.4-1.7-0.7-2.6-1.1c0-1.4,1.9-2.4,3-1.5l0,0
			C910.7,782.4,910.4,784,909.4,784.3z M912.6,779.5l0.4-0.7c0.9-2.2,3.8-3.3,6-2.3C917.7,778.6,915.1,779.9,912.6,779.5z"/>
		<path d="M855.8,353.6c-21.7,10.6-42.5,23.1-62.1,37.2c-9.5,6.9-19.8,16.8-17.5,28.3c2.2,10.8,17.5,16.1,25.9,9.1
			c24.7-20.6,50.9-39.4,78.5-56.1c2.1-0.3,4.2-0.5,6.3-0.8c-1.7-0.2-0.3-2.8,1.2-3.5c10.1-4.5,20.3-9.1,30.4-13.6
			c-0.2,1.1-0.9,2.1-2,2.6c20.7-7.3,44.2-3.3,64.1,6.1c20.1,9.5,37.3,24.2,54.2,38.7c-15.7-32.6-48.4-56.5-84.3-61.6
			c-12.6-7.3-28.3-9.2-42.3-4.9c-8.8,2.7-17.6,5.3-26.4,8c-5.3,1.6-10.7,3.2-15.8,5.5c-1.9,0.9-4,3-3.5,4.7
			C861.2,351.8,858,352.5,855.8,353.6z M1001.3,362.4L1001.3,362.4c1-0.2,1.9,1.1,1.2,1.9C1001.6,364.7,1000.6,363.2,1001.3,362.4z"
			/>
		<path d="M916.7,356.9c-0.2,0.1-0.4,0.1-0.7,0.2C916.2,357.1,916.5,357,916.7,356.9z"/>
		<path d="M836.2,666.4c0.1-0.1,0.3-0.2,0.4-0.2C836.4,666.2,836.3,666.3,836.2,666.4z"/>
		<path d="M757.5,671c-4,4.4-6.5,12.1-1.9,15.8c3.1-3.3,8.5-1.3,13.1-1c2.9,0.2,5.9-0.5,8.5-2c1.7-2.7-0.9-6.9-4.1-6.6
			c0.7-2.2,4.7-1.7,4.9,0.6c1.8-0.2,3.5-0.9,5-1.9c-0.3-1.1-0.7-2.1-1.2-3.2c11.3,5.5,25.7,4,35.7-3.6c1.7,2.9,5.6,4.1,8.9,3.2
			c-0.4-1.2-0.8-2.5-1.3-3.7c4.4,1.4,8.8,2.9,13.3,4.3c-4.9,2.2-9.3,5.4-13.1,9.2c4.2,0.3,8.5-1.3,11.6-4.1c2.5-2.2,4.4-5.4,7.6-6.3
			c1.5-0.4,3.2-0.3,4.7-0.7c1.5-0.4,3-1.9,2.6-3.4c-1.1-4.4,3.3-8,7.1-10.4c-0.8-1.3-2.1-2.4-3.6-3c-0.5,1.5-0.9,2.9-1.4,4.4
			c-1.6,0.4-3.2-0.3-4.8-0.8c-1.6-0.5-3.4-0.8-4.7,0.3s-0.8,3.7,0.8,3.6c0.8-1.7,3.8-1.7,4.6,0c-1.7-0.1-2.8,2.4-1.6,3.6
			c-1.7,0.9-3.6-1.6-5.5-1.3c-1.2,0.2-2,1.3-2.6,2.3s-1.6,2.1-2.8,2.1c-1,0-1.6-1.5-1-2.1c-1,0.6-2.1,1.2-3.1,1.8
			c-12.6-4.6-25.4-9.3-38.8-10.1C780.8,657.4,766.5,661.1,757.5,671z M770.8,680.3c1.1,0.4,2.1,0.9,3.2,1.3c0,1.1-1.2,1.9-2.3,1.9
			c-1.1,0-2.1-0.5-3-1C767.9,681.5,769.6,680.4,770.8,680.3L770.8,680.3z M763.6,672.5c2.3,0.1,4.5,2,4.9,4.3
			c-1.4-0.2-2.7-0.8-3.6-1.8l0-0.1C763.9,674.7,763.2,673.4,763.6,672.5z M761,678.8c0.2,0.9,0.1,1.8-0.3,2.6
			c-1.2,0-2.3-1.4-1.9-2.6l-0.1-0.1C759.4,678.3,760.4,678.3,761,678.8z"/>
		<path d="M670.8,461c-2-2.4-6.1,1.8-8.8,0.2c-5.6-3.2-13.3-1.8-17.6,3c4.3,0,8.7,0.1,13,0.1c4.4,0,9,0.1,12.8,2.2
			c2.7,1.4,5.8,1.8,8.8,2.1c5.1,0.6,10.2,1.2,15.3,1.7c-1.1-2-3.8-3.1-6-2.3c-0.3-0.7-0.2-1.6,0.2-2.3c1.7,0.3,3.6-0.1,5-1.2
			c-1.1-1.2-2.6-2-4.2-2.3c-1.7,1.1-3.3,2.3-5,3.4c-1,0.7-2.9,0.9-2.9-0.3c1.3-1.1,2.6-2.2,3.9-3.4
			C681.5,458.7,674.2,464.8,670.8,461z"/>
		<path d="M751.2,698.3c2.9,1.7,6.8,3.9,9.3,1.6c-0.6-3.5-4.8-4.7-8.1-5.9c-5.2-1.9-9.8-5.3-13.1-9.7c-1.2-0.3-1.4,1.6-1.1,2.8
			c0.3,1.2-0.4,3.1-1.4,2.5c-4.9-3-10.4-4.9-16-5.7C729.1,691.5,741.5,692.5,751.2,698.3z"/>
		<path d="M961.5,332.5c-2.7-0.8-5.5-1.7-8.2-2.5c-4.4-1.4-8.9-2.7-13.3-4.2c-5.4-1.7-11-3.5-16.6-2.8c18,6.8,36.4,12.9,54.9,18.2
			C973.9,336.5,967.6,334.4,961.5,332.5z"/>
		<path d="M844.7,649.6c-0.8,1.6,0.6,3.6,2.3,4.1s3.5,0,5.3-0.5c-0.2-5.8-0.4-11.6-0.6-17.5c-0.1-2.6-0.2-5.4-1.6-7.7
			c-2.5-4.1-8.4-5.3-10.8-9.5c-0.7,4,3.8,6.6,6.5,9.6c0.8,0.9,1.4,2.5,0.3,3.1c-1.1-1-2.1-2-3.2-3c0.6,1.6,1.2,3.3,1.8,4.9
			c0.9-0.2,1.7-0.5,2.6-0.7c0.4,4.5,0.8,9,1.3,13.5c0.1,1.4,0.2,2.9-0.6,3.9C847.1,651,845,650.9,844.7,649.6z"/>
		<path d="M850.7,1273.2c2.9-3.4,5.1-7.4,6.6-11.7c-0.9,0-1.8,0-2.7,0c-2.4,0-5.7,0.9-5.5,3.3c-0.8-0.1-1.6-0.2-2.3-0.3
			c-0.7,1.9-1.2,3.9-0.7,5.9C846.6,1272.4,848.8,1274,850.7,1273.2z M849.7,1268.1c0-1.1,1.3-1.5,2.4-1.7l0.1-0.1
			c0-0.9,1.6-0.9,1.6,0c-0.3,1.1-0.7,2.2-1.6,2.8S849.6,1269.3,849.7,1268.1z"/>
		<path d="M804.8,480.1c2.3-2.9,4.5-5.8,6.8-8.8c1.1-1.4,2.1-3.3,1.1-4.7c-1.7,0.6-3.1,1.9-3.8,3.6c-0.9-1.7-3.7-1.8-4.8-0.2
			c-1.1,1.6,0.1,4.1,2,4.3c-0.7,0.3-1.5,0.6-2.2,0.9C803.5,476.9,803.8,478.7,804.8,480.1z"/>
		<path d="M698.4,469.7c-0.6-0.2-1,0.7-0.7,1.2c0.3,0.5,0.9,0.7,1.5,0.9c3.5,0.9,7.1,1.9,10.6,2.8c1.3,0.3,2.7,0.7,3.9,0.1
			c1.2-0.5,1.9-2.3,1-3.3c-5.4,2.2-12.2-0.4-14.9-5.6c-0.7,0.4-1.3,0.8-2,1.2c0.7,1.2,1.9,2.2,3.2,2.8
			C700.3,470.6,698.9,470.5,698.4,469.7z"/>
		<path d="M832.4,441.2c5-2.6,10.1-5.2,15.1-7.8c-0.8-0.3-1.6-0.6-2.4-0.9c0.3-0.8,0.5-1.6,0.8-2.4
			C840.5,432.4,835.8,436.3,832.4,441.2z"/>
		<path d="M931.9,519c3.5-0.5,7-1,10.4-1.6c1.3-0.2,3-1,2.7-2.3c-0.1-0.4-0.5-0.8-0.9-1c-2.9-2-7.5-0.3-8.5,3
			c-1.4-1.1-3.5-1.1-4.9,0C930.8,517.9,931.3,518.6,931.9,519z"/>
		<path d="M881.5,418.8c-2.3,1-4.5,2.1-6.7,3.3c1.2,2.1,4.4,1.1,6.6,0.2c2.8-1.1,5.8-1.6,8.8-1.3c-1.7-0.5-3.2-1.3-4.6-2.3
			C884.5,417.8,882.8,418.2,881.5,418.8z"/>
		<path d="M821.9,458.8c-1.6-1.5-3.9-1.7-6-1.7c-1.4,0-2.9,0.2-3.9,1.2c-1.4,1.5-0.4,4.3,1.6,4.7c2,0.3,3.8-2,3-3.9
			C818.3,459.7,820.3,459.6,821.9,458.8z"/>
		<path d="M755.7,305.8c-4.4-1.8-9.5-1.9-14-0.2c4.9,1.4,10,2.2,15.1,2.4C757.7,307.4,756.6,306.2,755.7,305.8z"/>
		<path d="M941.2,1536.9c0.6,0.1,1.2-0.3,1.5-0.8c-2.7-5-6-9.7-9.9-13.8C934.5,1527.7,937.4,1532.7,941.2,1536.9z"/>
		<path d="M772.6,694.2l-0.2,0c-1.1-0.6-2.4-1.3-3.6-1s-2.1,2-1.1,2.9c0.3,0.3,0.7,0.4,1.2,0.5c1.8,0.4,3.7,0.8,5.5,0.3
			c1.8-0.5,3.4-2.3,3-4.1C775.7,692.3,773.8,692.8,772.6,694.2z"/>
		<path d="M863.9,428.1c3,0.2,6.1-2,6.9-4.9c1-0.6,0.9-2.3-0.1-2.9c-0.4-0.2-1-0.2-1.4-0.2c-2.4,0.2-4.6,1.4-6,3.3
			c1.7,0,3.3,0.5,4.7,1.4C867,426.4,865.6,427.6,863.9,428.1z"/>
		<path d="M907.3,417.6c-1.4-0.1-3.4-0.6-3.6,0.8c5.6,2.1,12.6-0.8,15-6.3C914.4,411.4,911.6,418.1,907.3,417.6z"/>
		<path d="M1013.2,1268.1c1.7-3.1,2.6-6.7,2.5-10.3c0-1.2-1-2.8-2-2.1c-0.5,4-1,8-1.5,12c-0.1,0.7-0.2,1.4,0.2,2
			c0.4,0.6,1.4,0.8,1.7,0.1C1014.1,1269.3,1013.8,1268.6,1013.2,1268.1z"/>
		<path d="M719.7,497.6c-0.4-0.4-0.8-0.7-1.3-1.1c-1.9-1.6-3.7-3.3-5.6-4.9c-2,1.7-1.3,5.4,1,6.5
			C715.7,498.8,717.8,498.2,719.7,497.6z"/>
		<path d="M697.6,545.3c3.4,1.2,7.6-1.4,8-5.1c-2-0.2-4.1,0.3-5.7,1.5l0,0C698.6,542.5,697.8,543.9,697.6,545.3z"/>
		<path d="M688.1,548c-3.4-1.6-7.7-1-10.6,1.4C680.7,551.8,685.6,551.1,688.1,548z"/>
		<path d="M853.6,477.9c0.1-1.5-1-2.8-2-3.9c-0.7-0.8-1.5-1.6-2.6-1.8c-1-0.2-2.3,0.6-2.2,1.7c1,0.9,2.1,1.7,3.1,2.6l0.6-0.1
			c0,1.1,0,2.3-0.1,3.4C851.7,480.7,853.6,479.4,853.6,477.9z"/>
		<path d="M1078.7,1453.4c0.6,3.5,1.3,6.9,1.9,10.4c0.3,0.8,1.5-0.2,1.6-1.1c0.3-1.8,0.6-3.8,0.1-5.6S1080.6,1453.6,1078.7,1453.4z"
			/>
		<path d="M664.2,276.2c1.9,1.5,4.4,2.1,6.7,1.6c-0.1-2.2-1.1-4.3-2.6-5.8c-1.3,1.3-2.5,2.5-3.8,3.8L664.2,276.2z"/>
		<path d="M849.3,432.5c3.7,0.2,7.4-2,8.8-5.4c-2.1,0-4.2,0.6-5.8,1.9l0-0.1C850.7,429.4,849.5,430.9,849.3,432.5z"/>
		<path d="M745.5,321.1c-4.4,1.1-8.6,3-12.4,5.5C737.8,326.9,742.6,324.8,745.5,321.1z"/>
		<path d="M716.4,507.7c1.9,0.3,3.9,0.5,5.5-0.5s2-3.9,0.3-4.7c-0.7,2.2-3.2,3.6-5.4,3l-0.1,0.6
			C716.1,506.3,715.8,507.4,716.4,507.7z"/>
		<path d="M897.7,1467.9c-2-4.2-4.4-8.2-7.3-11.9C891,1460.7,893.7,1465.1,897.7,1467.9z"/>
		<path d="M1086.1,708.2c-1.6,2-2.2,4.8-1.6,7.3c-0.3,0.8,1,1.5,1.7,1.1c0.2-0.1,0.4-0.3,0.5-0.6c0.1-1.7,0.2-3.5,0.2-5.2
			C1086.8,709.9,1086.5,709,1086.1,708.2z"/>
		<path d="M619.1,563.1c-0.1,1.1,1.5,1.3,2.6,1l0.3,0c0.8,1.2,2.9,1.1,3.6-0.1s-0.2-3.1-1.6-3.2
			C622.3,561.5,620.7,562.3,619.1,563.1z"/>
		<path d="M1040.1,1386.9c0,1.7,0.4,3.5,1.5,4.8c1.2,1.4,3.1,2.2,4.9,2.1C1044.6,1391.2,1042.5,1388.9,1040.1,1386.9z"/>
		<path d="M710,292.7c-0.6-2.5-3.7-4.1-6.1-3c0.4,1.2,1.3,2.3,2.4,3l0,0C707.4,293.2,708.8,293.2,710,292.7z"/>
		<path d="M730.2,301.5c-0.1,0.7,0,1.4,0.4,2c1.5,0.3,3,0.6,4.5,0.9l0.1-0.3c0.6,0.6,1.8-0.1,1.8-0.9
			C735.2,301.7,732.6,301.1,730.2,301.5z"/>
		<path d="M652.5,269.7c1.7-0.8,2.8-2.6,2.6-4.4l-0.3-0.5c-1.2-0.1-2.5,0.4-3.4,1.3c-0.1,0.8-0.1,1.6-0.2,2.5
			C651.6,269,652,269.4,652.5,269.7z"/>
		<path d="M682.7,502.4c0.7,1.3,2.9,0.7,3.5-0.7c0.5-1.4-0.1-2.9-0.7-4.3c-0.6,0.1-1.3,0.3-1.9,0.4c0,0.8,0,1.5,0,2.3l-0.1,0
			C683.9,500.9,683.5,502,682.7,502.4z"/>
		<path d="M665,557c-2.2-1.6-5.7-0.8-7,1.6c1.3,0.8,3.1,0.7,4.3-0.2l0-0.1C663.3,558.4,664.5,557.9,665,557z"/>
		<path d="M908.4,1482.7c-1.7-3.1-3.7-6-6.1-8.6C902.5,1477.8,905,1481.3,908.4,1482.7z"/>
		<path d="M636.8,463.7L636.8,463.7c-1.7,0.4-3.3,0.7-4.9,1.1c3,0.3,6,0.6,9,0.9C640.1,464.2,638.3,463.1,636.8,463.7z"/>
		<path d="M651.4,270.9c0.1,0.8,0.2,1.6,0.4,2.4C652,272.5,651.9,271.6,651.4,270.9z"/>
		<path d="M892.4,409.9c-1,1.2-2,2.4-2.9,3.6l0.1,0.1c-0.7,0.2-0.9,1.2-0.4,1.8C891.5,415.1,893.3,412.2,892.4,409.9z"/>
		<path d="M893.3,418.2c2.2,0.6,4.8-0.6,5.9-2.6l-0.3-0.6C896.7,415.3,894.6,416.5,893.3,418.2z"/>
		<path d="M854,472.4c2.2-0.9,3.2-3.8,2-5.8c-1.5,1.3-2.3,3.3-2,5.2L854,472.4z"/>
		<path d="M709,505.1c0.6,0.5,1.3,1,1.9,1.5l0.4-0.5c1.1,0.9,2.9,0.9,4,0C713.7,504.5,711,504,709,505.1z"/>
		<path d="M764.5,701.7c0-1.7,0-3.4-0.1-5.2c-0.8-0.5-2,0-2.4,0.9c-0.3,0.9,0.3,2,1.3,2.2l0,0.2
			C762.4,700.4,763.4,701.9,764.5,701.7z"/>
		<path d="M925.7,1514c0.4,1.9,1.7,3.6,3.5,4.4l0.1-0.4C929.8,1515.9,927.8,1513.7,925.7,1514z"/>
		<path d="M997.5,438.7c-2.7-1.8-5.7-3.2-8.8-4.2C990.9,436.9,994.1,438.5,997.5,438.7z"/>
		<path d="M874.9,465.2c-1.9,0.2-3.6,1.6-4.3,3.3c0.8-0.2,1.6-0.4,2.4-0.6l0-0.4C874.2,467.7,875.4,466.3,874.9,465.2z"/>
		<path d="M921.4,521.3l0.1,0.1c0.7,0.2,1.4,0,1.9-0.4c-1.5-1.2-3.7-1.5-5.4-0.6C918.2,521.7,920.1,521.6,921.4,521.3z"/>
		<path d="M651.2,294.5l0.1,0.1c1.6,0.7,3.5,0.3,4.7-1C654.6,292.5,652.2,292.9,651.2,294.5z"/>
		<path d="M1014.9,1282.1c-0.1,1.1,1.4,2.1,2.3,1.5c0-0.7,0-1.5,0-2.2l0.2-0.2C1016.6,1280.3,1015,1280.9,1014.9,1282.1z"/>
		<path d="M921.8,1505.2c-0.9-1.1-1.8-2.3-2.6-3.4c-0.9,0.6-0.9,2.3,0.1,2.8l-0.1,0.2C919.7,1505.6,921,1505.8,921.8,1505.2z"/>
		<path d="M629.7,557.3c0.5,1,2.3,0.8,2.3-0.2l-0.2,0c0.1-0.4,0-0.8-0.1-1.2c-0.7,0.1-1.4,0.3-2.2,0.4
			C629.5,556.7,629.6,557,629.7,557.3z"/>
		<path d="M846.8,1277.6l-0.1,0c-0.8,0.5-1,1.8-0.4,2.6c1.2-0.9,2.1-2,2.8-3.3C848.3,1276.3,847.1,1276.7,846.8,1277.6z"/>
		<path d="M1018.8,1315.1c-0.6,0.1-1.1,1-0.6,1.4l0.3-0.3c0.3,1.1,1.6,1.7,2.6,1.2c-0.2-0.6-0.4-1.2-0.5-1.7
			C1020,1315.3,1019.4,1315,1018.8,1315.1z"/>
		<path d="M779.5,695.8L779.5,695.8c-0.7,0.9-0.3,2.4,0.8,2.9c0.9-0.5,1.4-1.6,1.1-2.6C780.8,695.7,780.1,695.6,779.5,695.8z"/>
		<path d="M824.9,446c1.8,0.8,4.2-0.9,3.9-2.9l-0.5,0.2C827.2,444.2,826,445.1,824.9,446z"/>
		<path d="M928.1,520.9c0.7,0,0.9-1,0.5-1.6c-0.4-0.5-1.2-0.6-1.9-0.7c-0.6,0.6-1.3,1.2-1.9,1.7c1,0.6,2.4,0.3,3.2-0.6L928.1,520.9z
			"/>
		<path d="M898.9,1469.5c-1,1.2,0.5,3.3,1.9,2.7l0-0.1C900.5,1471.1,899.8,1470.2,898.9,1469.5z"/>
		<path d="M1098.8,1518.2l-0.1,0.1c0.5,0.5,1.6,0.3,1.9-0.4c-0.4-0.6-0.7-1.2-1.1-1.9C1098.4,1516.1,1098,1517.7,1098.8,1518.2z"/>
		<path d="M931.9,1521.4c0.7-0.9-0.4-2.3-1.5-2.3l0,0C929.7,1519.9,930.8,1521.3,931.9,1521.4z"/>
		<path d="M858.7,1395.1L858.7,1395.1c-0.1,1.4,0.3,2.7,1.2,3.8C860.4,1397.6,859.9,1395.9,858.7,1395.1z"/>
		<path d="M857.8,650.2c0.4-0.7-0.9-1.2-1.7-1l0-0.1C855.3,650,857.3,651.2,857.8,650.2z"/>
		<path d="M961.4,512.3l-0.1,0.2c-0.9-0.2-2.3,0.3-1.8,1C960.1,514.5,962,513.3,961.4,512.3z"/>
		<path d="M729.3,328.6c-0.6-0.5-1.5-0.4-2.1,0.1l-0.2,0C727.3,329.9,729.3,329.8,729.3,328.6z"/>
		<path d="M915.7,1493.9c-0.2-1.1-2.4-0.5-1.6,0.3l-0.2,0.1C914.4,1494.9,915.5,1494.7,915.7,1493.9z"/>
		<path d="M983.3,1330.2c0.5-0.3-0.3-1.1-0.8-0.8c-0.5,0.3-0.6,0.9-0.6,1.5c0.5,0.6,1.7,0,1.5-0.7L983.3,1330.2z"/>
		<path d="M421.3,419.5c-0.3-0.3-0.7-0.6-1.1-0.7c-2.6-0.7-4.2,2.6-6.4,4.2c1.7,0.5,3.6,0.1,5.1-0.9c0.6-0.6,1.3-1.2,1.9-1.8
			C421,420.1,421.2,419.8,421.3,419.5z"/>
		<path d="M657.3,77.7L657.3,77.7C657.2,78.9,658.4,77.2,657.3,77.7z"/>
		<path d="M1321.1,268.3c-10.5-13.2-21.7-25.9-33.6-37.9c-0.9-0.9-2.6-1.7-3.1-0.6c11.3,12.7,22.5,25.4,33.8,38.1
			C1319,268.8,1320.8,269.5,1321.1,268.3z"/>
		<path d="M1207.9,109.8c0-0.7-0.6-1.3-1.2-1.7c-2.7-2.1-6.1-3.3-9.5-3.4c3.3,2.1,6.6,4.2,9.9,6.4
			C1207.5,110.9,1207.9,110.3,1207.9,109.8z"/>
		<path d="M1221.5,122.4c-0.5-1.6-1.5-3.1-2.7-4.2l-0.5-0.4C1217.4,119.8,1219.2,122.5,1221.5,122.4z"/>
		<path d="M1225,130c0.9-0.4,1-1.6,0.6-2.5c-0.5-0.8-1.4-1.3-2.2-1.7l0-0.3C1222.6,127.1,1223.4,129.3,1225,130z"/>
		<path d="M1326,274.9l0-0.2c-0.1-1.5-1.6-2.7-3.1-2.4C1323,273.8,1324.5,275,1326,274.9z"/>
		<path d="M1113.4,47c0.2-0.8-1-1.4-1.8-1.1l0,0c-0.9-0.2-2.2,0.3-1.9,1.1C1110.8,47.6,1112.2,47.6,1113.4,47z"/>
		<path d="M1106.5,46.2c-0.5-1-2-1.4-2.9-0.7C1103.9,46.7,1105.7,47.1,1106.5,46.2z"/>
		<path d="M1106.5,46.2C1106.5,46.2,1106.5,46.2,1106.5,46.2C1106.5,46.2,1106.5,46.3,1106.5,46.2L1106.5,46.2z"/>
		<path d="M1103.9,57.1L1103.9,57.1c0.4-0.5-0.3-1.4-0.9-1.2c-0.6,0.2-0.9,1-0.9,1.6C1102.6,58.1,1103.7,57.9,1103.9,57.1z"/>
		<path d="M975.4,8.5c-0.5-0.5-1-1-1.4-1.6l-0.4,0.3C972.8,8.2,974.8,9.6,975.4,8.5z"/>
		<path d="M238.4,874.5c1.8-0.9,2.6-3.4,1.6-5.2c-1.2,0.1-2.3,1.5-1.8,2.6l-0.2,0C238.2,872.8,238.3,873.6,238.4,874.5z"/>
		<path d="M227.3,903.1c0.4-0.5,0.5-1.2,0.3-1.9l-0.1-0.1c0.3-1.1,0.1-2.7-0.9-2.6c-0.6,0.8-1.1,1.7-1.1,2.7
			C225.5,902.3,226.4,903.3,227.3,903.1z"/>
		<path d="M237.8,878.2c1-0.6-0.2-2.5-1.2-1.9l0.1,0.1C236.6,877.3,237,878.7,237.8,878.2z"/>
		<path d="M227.3,888.8c0.5-0.9,0.2-2.6-0.8-2.3l0,0C226,887.4,226.3,889.2,227.3,888.8z"/>
		<path d="M254.9,1090.8c0.9,0.1,1.9-0.6,2.1-1.5c1.3-5.6,4.6-10.6,9.1-14.1c2.5-1.9,5.8-3.9,5.7-7.1
			C263.7,1073.5,255.4,1081,254.9,1090.8z"/>
		<path d="M234.4,1116.1c-0.9-0.6-2.2-0.6-3.1,0.1c-3.4,2.8-5.2,7.1-5.8,11.4c-0.6,4.3-0.1,8.7,0.4,13.1c2.6-3.8,1.4-8.9,2-13.4
			C228.5,1122.9,230.8,1118.8,234.4,1116.1z"/>
		<path d="M254.1,1107.6c-0.7-0.9-2.1-1.1-3.1-0.6c0.6,2.3,1.7,5,4,5.1c0.8-1.5,0.5-3.5-0.7-4.7L254.1,1107.6z"/>
		<path d="M269.1,1040.8l-0.6,0.4c-1-1.9-2.7-3.4-4.6-4.3c0.8,3.3,4,5.8,7.4,5.9C270.6,1042.1,269.9,1041.4,269.1,1040.8z"/>
		<path d="M208.2,1171.8c-1.6,0.7-2.7,2.4-2.8,4.1c1.2-1.3,2.4-2.6,3.5-3.9L208.2,1171.8z"/>
		<path d="M279.2,1064.8c-0.9,0.9-1.4,3.1-0.1,3l-0.1-0.3C280.2,1067.2,280.3,1065.2,279.2,1064.8z"/>
		<path d="M202.6,1325.3c0.1-1.2,1.1-2.3,2.3-2.4c0.6,1.8-1.2,3.6-1.4,5.6c-0.2,2.7,3.6,4.6,5.6,2.8c1.6-1.5,1.5-4.1,0.6-6.1
			c-0.9-2-2.3-3.8-2.9-5.9c-0.9-3.2-0.2-7.6-3.2-9.1c-0.8,4-1.6,8-2.4,12c0,0.5-0.1,0.9-0.1,1.4
			C201.2,1324.7,201.8,1325.7,202.6,1325.3z"/>
		<path d="M297.2,568.8C297.2,568.8,297.2,568.7,297.2,568.8C297.2,568.7,297.2,568.7,297.2,568.8L297.2,568.8z"/>
		<path d="M300.9,565.8c0.7-1.5,0-3.7-1.7-3.7c-1.6,1.8-2.4,4.3-2,6.7C298.6,568,300.2,567.2,300.9,565.8z"/>
		<path d="M311.8,527.8l-0.3-0.1c0.6-1.1-1.5-2-2.3-1.1c-0.8,0.9-0.6,2.4-0.3,3.6C310.3,530.4,311.8,529.2,311.8,527.8z"/>
		<path d="M289.3,578.2c0.7-0.2,1.1-0.9,1.3-1.6c-0.8-0.6-2-0.3-2.5,0.5l0-0.1C287.7,577.6,288.6,578.4,289.3,578.2z"/>
		<path d="M798.4,790.4c0.7-0.2,0.9-1.1,1-1.8c0.4-3.9-0.2-7.8-1.7-11.4C796.7,781.6,796.9,786.2,798.4,790.4z"/>
		<path d="M833.1,771c-0.7,1-0.4,2.5,0,3.7c0.6,2.1,1.2,4.2,1.8,6.3c0.3-3.2,0.7-6.3,1-9.5C836,770.2,833.8,769.9,833.1,771z"/>
		<path d="M763.7,770.2c-1.2,0-0.4,2.3,0.8,2.1l0,0C764.9,771.6,764.5,770.5,763.7,770.2z"/>
		<path d="M777.9,826.3l0.1,0.1c-1.4,0-2.7,1.6-2.3,3c2.3,0.5,4.8-0.2,6.5-1.8C781.6,825.9,779.2,825.2,777.9,826.3z"/>
		<path d="M785.1,829.9c-0.3,0.6,0.4,1.2,1,1.5c2.2,0.9,4.8,0.6,6.7-0.9C790.5,829.2,787.6,828.9,785.1,829.9z"/>
		<path d="M770.8,824.6c-0.9-0.7-2.3,0.3-2.2,1.4c1.8,1.6,4.8,1.7,6.7,0.2C773.8,825.6,772.3,825.1,770.8,824.6L770.8,824.6z"/>
		<path d="M786.9,826.4l0.1-0.1c0.2,0.4,0.8,0,0.8-0.4c0-0.4-0.4-0.7-0.7-0.9c-1.3,0.8-2.5,1.6-3.8,2.4
			C784.5,828,786.1,827.5,786.9,826.4z"/>
		<path d="M807.2,827.2c-0.5,0.8,0,1.9,0.8,2.2l0,0.2C808.6,828.5,808.2,826.8,807.2,827.2z"/>
		<path d="M794.1,812l0-0.2c0-1.1-1.8-1.5-2.3-0.5c1.9,1.7,3.9,3.4,5.8,5.1C797.7,814.2,796.1,812.2,794.1,812z"/>
		<path d="M1349.3,412.1c-1.9-6.9-20.9-29.9-20.3-48.9c-15.9-75.1-50.1-146.2-98.8-205.5c-30.4-37-43.1-64-89-77.8
			c-29.6-8.9-50.3-14.6-78.3-27.6c7.5,0.1-20.9-4.7-42.6-7.2c-6.3-0.7-11.9-21.7-48.5-33c-5.4-1.7-11.2-3.3-16.6-1.5
			s-22.4,7.1-36.2,2.6c-12.3-4-26.8-6.2-42.4-7.2c-0.9,0.3-1.8,0.5-2.8,0.8c-0.1-0.3-0.2-0.6-0.1-1c-11.6-0.6-23.8-0.4-36.1,0.3
			c0.5,0.2,0.8,1,0.2,1.3c-1.5,0.6-3.3,0.5-4.8-0.1c0.5-0.4,1.1-0.8,1.8-1c-1,0.1-2,0.1-3,0.2l0.3,0.6c-0.9-0.1-1.8-0.3-2.7-0.4
			c-22.6,1.7-45.2,5-65.4,8.9c-1.7,1-3.4,1.9-5.3,2.3c-1.4,0.3-2.9,0.2-4.2-0.4c-33.4,7.1-57.9,15.4-59.7,19.6
			c-1.8-10-27.5,49.4-15.9,37.9c-6.6,12.8-14.3,24.9-23.2,36.3c2.5-0.1,5,0.3,7.3,1.2c-2.9,2.8-7.1,4.2-11.2,3.7
			c-0.6,0.7-1.2,1.4-1.8,2.1c1.2,0.3,2.3,1.2,2.8,2.4c-0.9-0.2-1.8,0.1-2.4,0.7l0.4,0.4c-1.2,1.7-3.1,3-5.2,3.5
			c0.4-1.3,0.9-2.5,1.5-3.7c-8,9.1-16.7,17.6-26.1,25.2c-21.9,12.1-43.9,24.3-65.8,36.4c-18.4,10.2-37.3,20.8-49.9,37.5
			c-26.5,35.1-41.8,145.8-48.8,156.7s-17.4,14.6-7,15.3c-9.6,9.2-19.3,18.4-28.9,27.6c-0.5,0.7-1.1,1.3-1.9,1.8
			c-12.8,12.3-25.7,24.5-38.5,36.8c17.4-11.1,34.9-22.2,52.3-33.2C413.5,448.9,390.5,469,365,485c3.2-4.9,6.3-9.7,9.5-14.6
			c-43.4,6.5-82.3,113.2-98.3,185c0.4-0.9,0.8-1.8,1.1-2.7c1.1-3.5,0.8-7.6,3-10.6c0.6-0.8,0.9-1.8,1.2-2.8c1.1-4,2.2-7.9,3.3-11.9
			c2.3-6.4,6.2-12.1,11.2-16.7c-7.7,15.7-13.8,32.2-17.9,49.2c-0.7,2.8-1.4,5.9-3.6,7.9c-0.3-0.4-0.6-0.8-0.8-1.2
			c-0.4,2-0.8,3.9-1.1,5.8c0.6,0.1,1.1,0.3,1.3,0.9c-1.7,1.4-0.5,4.1,0.7,6c-1,0.6-2.3,0.4-3.2-0.3c-2.8,16.6-3.8,29.6-2.6,36.2
			c-2.1,11.8-4.3,23.7-6.4,35.5c0.4-0.9,1.2-1.5,2-2l-0.4-0.7c1.3-0.5,1.8,1.7,1.4,3.1c-0.2,0.9-0.7,2.1-1.7,2.2
			c-0.8,0.1-1.4-0.7-1.5-1.5C252,809,241.7,866,231.4,923.1c-0.7,3.8-2.2,8.5-6.1,9.1c-0.3,0-0.6,0-0.9,0c0.3,19,8.7,37.8,22.9,50.5
			c8.5,7.6,27,44.8,42.4,79.5c-16.5,7.8-26.2,25.2-29,43.5c3.2,3.2,4.9,7.9,4.4,12.4c-2.5-2.5-4.1-5.8-4.8-9.3
			c-0.3,3.1-0.5,6.2-0.4,9.2c0.3,16.2,5.2,31.8,11.2,47c-7.3-17.6-14.6-35.2-22-52.8c-3,4.7-6,9.5-9.1,14.2c0.1,0,0.2,0.1,0.3,0.2
			c-0.4,0.9-0.8,1.8-1.1,2.6c-0.3,0.1-0.6-0.1-0.8-0.3c-13.6,21.2-27.2,42.5-40.8,63.7c0.3,2,1.6,2.1,2.9,1.3
			c-10.6,58.1-11.9,117.9-3.8,176.4c1.4-15.5,2.8-31.1,4.2-46.6c0-0.3,0-0.7,0-1c0-0.1,0.1-0.3,0.1-0.4c1.4-15.5,2.8-31,4.2-46.5
			c5,24.4,10.1,48.9,15.1,73.3c-2.2-2-5.9-3-8.7-1.5c-5.1,2.8-6.6,9.2-7.5,14.9c-9.8,58.9-13.5,118.8-11.2,178.4
			c248.7,0,497.4,0,746.1,0c-28.3-39.1-52.9-80.8-73.3-124.6c-16.5-35.3-30.2-74.8-28.5-112.9c-0.1,0-0.1,0-0.2,0
			c-0.7,0-1.2-0.6-1.7-1.1c-1.6-1.6-4-2.1-5.5-3.7c-1.5-1.6-0.9-5.3,1.3-4.9c1,0.2,1.6,1.1,2.1,1.9c1.3,2.1,2.7,4.3,4,6.4
			c0.7-13.1,3.3-26.1,8.3-38.6c3.1-2.3,6.1-4.7,9-7.3c-0.6,0-1.3-0.5-1.2-1.1c0.5-0.8,1.7-0.3,2,0.4c14.8-13.5,26.3-30.6,33-49.5
			c3.6-10.3,5.8-20.7,6.7-31.1c-0.2,0.2-0.3,0.4-0.5,0.5l-1.1-0.4c0.5-2.1,1.2-4.1,2-6.1c0,0,0.1,0.1,0.1,0.1
			c2.7-54.2-26-109.7-54-158.6c-41.5,16.8-83.3-21.9-110.9-57.2c-44.7-57-88.1-116-117.7-182.1c-29.5-66.2-44.5-140.8-30-211.8
			c4.4-1.1,8.7-2.1,13.1-3.2c-0.1,0.6-0.1,1.2,0.3,1.9c2.1,3.6,7.2,3.3,11.3,2.5c7.3-1.4,14.5-2.8,21.8-4.1c0.1-0.7,0.5-1.4,1.1-1.8
			c0.5,0.3,0.9,0.8,1.1,1.4c9.2-1.7,18.4-3.5,27.6-5.2c-7.1-1-14.1-2-21.2-2.9c30.8,3.1,62.8-8.3,84.6-30.2
			c-27.5-15.8-63.1-16.3-91-1.3c-3.8-3.7-7.7-7.5-11.5-11.2c21.6-15.5,50.6-20.2,75.9-12.2c-5.6-0.3-4.9,10.1,0.6,11.4
			s10.6-2.9,14.7-6.9c-36-40.9-114.5-26.6-133.8,24.3c-10.3-34.4-7-72.6,8.9-104.8c16.7-16.5,45.4-8.1,64.4,5.6
			c19.1,13.7,36.6,32.5,59.9,35.3c-10-51.2-82-77.3-122.6-44.4c-4.1-52.5,25.7-106.2,72.4-130.5c-4.6,0.4-7.9-4-9-9.6
			c-0.3,1.2-1.1,2.3-2.4,2.5c-0.1-0.6-0.3-1.2-0.4-1.8l0.2,0c0.2-1.3,0.8-2.6,1.9-3.5c0.1,0.1,0.3,0.3,0.4,0.4
			c-0.1-0.8-0.1-1.6-0.1-2.3c-0.3-0.4-0.5-0.9-0.6-1.3c0.2-0.4,0.4-0.8,0.7-1.1c0.4-3.2,1.4-6.3,3.2-8.8
			c8.8,11.6,22.2,19.6,36.5,21.9c-11,3.1,14.8,6.1,35.6,15.3c-7.3,1.3-14.5,2.7-21.8,4c23.2,1.4,46.4,2.8,69.6,4.2
			c-7.7,3-15.4,6-23.2,9.1c40.2-0.3,80.5-0.7,120.7-1c43.6-0.4,89.2-0.2,127.8,20c38.6,20.3,66.7,67.7,50.2,108.1
			c-12.9,3-25.8,5.9-38.7,8.9c-36.3-16.6-76.9-27-116.1-19.9c-39.3,7.1-76.5,34.6-86.4,73.3c28.1-49.3,95.5-71.6,147.4-48.8
			c-35.1-9.9-75-0.8-102.4,23.3c33.6-24.9,81.4-29,118.8-10.2c-2.5,0.2-5,0.4-7.5,0.6c2.1,1.9,4.2,3.8,6.3,5.6
			c-2.7,1.2-5.6,2.1-8.5,2.8c-1-2.7-0.8-5.7,0.5-8.3c-11.1,0.9-22.1,1.8-33.2,2.7c-34.8,3-68.8,14.4-98.5,32.9
			c4.6-9,9.2-17.9,13.9-26.9c-9,5.8-15.7,15.1-18.2,25.5c19.8,13.7,45.2,19.1,68.8,14.5c-11.4-5.1-24.3-6.8-36.7-4.9
			c6.9-7.7,16.3-13.1,26.4-15.2c2,16.9,25.1,20.7,41.9,18c16.9-2.6,38.2-5.3,47.2,9.1c10.4-6.4,20.8-12.7,31.2-19.1
			c-7.3,0.9-14.9-1-20.9-5.2c22.5,4.5,47.1-4.1,62-21.6c11.5,27.3,17.2,56.6,22.8,85.7c9.4,48.8,18.6,99.7,16.8,148.9
			c0.3,1.1,0.4,2.3,0.3,3.5c0,0.6-0.2,1.3-0.5,1.7c-1.5,29.4-7.1,58.2-19.1,85.5c-10.5,23.8-25.2,44.9-42.2,64.3
			c1.1-0.5,2.6-0.3,3.4,0.7l-0.5,0.1c-0.4,1.8-3.3,2.3-4.3,0.8c-14.7,16.5-31.1,31.7-48,46.4c0,0.8,0,1.6,0,2.4
			c-1.2,0.4-2.5,0.8-3.7,1.2l0-0.1c0.2-0.3,0.4-0.5,0.6-0.8c-16.2,13.9-32.8,27.3-49,40.9c-9.5,7.9-19.7,17.7-19.2,30.1
			c1.4,40,90.1,16.3,93.8,56.1c1.8,19.1,3.5,38.3,5.3,57.4c0.7-0.4,1.3-0.8,2-1.2c0.6,0.5,0.4,1.6-0.4,1.9l-0.1,0.1
			c-0.2,0.6-0.8,0.9-1.4,0.9c4.8,52.1,9.7,104.2,14.5,156.2c2.5,26.7,5,53.5,12.2,79.2c19.7,70.2,73.5,130.1,78.6,202.8
			c80.1,0,160.2,0,240.3-0.1C1349.3,1146.7,1464,837.4,1349.3,412.1z M262.3,758.1c-0.5-0.4-0.4-1.3,0.2-1.6l0.2-0.2
			c0.3,0.3,0.7,0.7,1,1C263.7,758,262.8,758.5,262.3,758.1z M457.2,927.1c1.1,1,1.8,3.1,0.4,3.6l0-0.2c-0.5-0.5-1-1-1.5-1.5
			C456.2,928.2,456.6,927.6,457.2,927.1z M452.7,941.3c-1.5,0.3-2.9-0.5-4-1.5c-2.7-2.5-4.3-6.2-4-9.9c2.3,2.6,4.5,5.8,4.1,9.3
			c1-0.4,2.2-0.8,3.2-0.4C452.9,939.1,453.5,940.6,452.7,941.3z M446.8,956.1c-0.9-0.5-1-1.7-1.1-2.7c0.8,0.5,1.6,1,2.4,1.5l0-0.2
			C449.1,955.2,447.7,956.6,446.8,956.1z M451.9,426.9c-2.4-2.9-3.5-6.7-2.9-10.4C450.6,419.7,451.6,423.3,451.9,426.9z M447.3,399
			c0.7,1.1,1.3,2.2,2,3.4l0.1,0.1c-0.4,0.6-0.8,1.1-1.1,1.7c-1-0.7-2.2-1.4-2.6-2.6C445.3,400.4,446.1,398.8,447.3,399z M438,409.6
			c1.3-2.4,4.8-3.4,5.5-6c1.9,0.5,3,3,2.1,4.8c-1.6,3.1-4.6,5.6-8,6.5C437.4,413.1,437.2,411.2,438,409.6z M442.8,948.2
			c1.5,1.3,1.6,3.8,0.2,5.3c-0.9-0.5-1.5-1.6-1.2-2.7l0.1-0.1C441.6,949.7,441.7,948,442.8,948.2z M440.6,923.4
			c-1.3-2.9-2.2-6-2.5-9.1c1.8,1.3,2.9,3.5,2.8,5.7l0.2,0C441.9,921.1,442.1,923.5,440.6,923.4z M436,949.5c-1,0.6-2.1-0.5-2.6-1.5
			c-2-3.8-2.5-8.4-1.2-12.6C434.1,939.9,435.5,944.7,436,949.5z M432.3,979.7l-0.1,0c-0.2-1.5,1.1-3,2.6-3.1
			C435.2,978.2,433.8,980.2,432.3,979.7z M429.8,766.8c0.2-0.8,1-1.3,1.8-1.3c0.6,0.8,0.4,2.1-0.4,2.7l0-0.1
			C430.5,768.5,429.6,767.6,429.8,766.8z M431.2,1009.3c2.6,4.6,5.2,9.2,7.8,13.8c0.9,1.5,1.8,3.4,1,5c-4.8-6.9-8.9-14.3-11.9-22.2
			C429.6,1006.5,430.4,1008,431.2,1009.3z M425.7,942.1c-0.6-0.1-1.3-0.2-1.6-0.8c-0.2-0.4-0.2-0.9-0.1-1.4c0.3-1.8,0.6-3.7,1-5.5
			C427.2,936.2,427.5,939.9,425.7,942.1z M423.4,439.7l-0.2-0.1c0.6-0.2,1.2,0.6,0.9,1.2c-0.2,0.6-0.9,0.9-1.5,1.2
			C422.1,441.1,422.5,439.9,423.4,439.7z M422.6,909.1c0.6,2.8,0.9,5.7,1,8.6c-1.6-1.5-2.5-3.7-2.6-5.9l0.6-0.1
			C421.3,910.6,421.5,908.9,422.6,909.1z M422.6,921.1l0,0.2c-1.1-0.2-1-2.2,0.2-2.3C423.2,919.6,423.1,920.5,422.6,921.1z
			 M423.3,928.5c0.3,0.6,0.6,1.2,0.9,1.9c-1.7,2.1-3.5,4-5.5,5.9c0.1-1.9-0.6-3.8-1.8-5.2C419,930,421.1,929.1,423.3,928.5z
			 M415.3,907l0,0.2c-0.9,1.9-3.8,2.3-5.3,0.8c1.9-1.5,3.8-2.9,5.7-4.4C416.5,904.6,416.3,906.2,415.3,907z M415.1,916.4
			c-0.8,0-1.1-1.4-0.4-1.7l0,0.1C415.7,914.3,416.2,916.4,415.1,916.4z M401.6,931c1.1-0.5,1.9,1.7,0.8,2.1l0.1-0.1
			C401.5,932.9,401.1,931.7,401.6,931z M402.3,824.2c0.2,0.8-1.5,0.4-1-0.2l-0.4,0c-1-2.4,0.2-5.5,2.6-6.5
			C404.1,819.7,403.7,822.2,402.3,824.2z M403.6,812.4c-0.8-1.8-0.7-4,0.1-5.7l-0.3-0.2c-0.2-2,0.9-4.1,2.7-5
			C406.8,805.3,405.9,809.3,403.6,812.4z M404.3,902.4c0.3-1.4,1.9-2.7,3.2-2.2c-1.9,4-0.4,9.2,3.3,11.6c0.5,2-0.4,4.3-2.2,5.3
			c-1.2-3.5-2.5-7-3.7-10.5C404.5,905.3,404,903.8,404.3,902.4z M415.1,447.9c1.5,0.4,0.8,3.2-0.7,2.9l0-0.1
			C412.9,450.4,413.6,447.5,415.1,447.9z M409.9,895.5L409.9,895.5c0.3,1.2,0.7,2.3,1.1,3.5c-0.7,0.3-1.5,0.6-2.2,0.9
			c0.9-1.2,0.5-3.1-0.7-3.9C408.1,895.1,409.5,894.8,409.9,895.5z M407.9,893.7L407.9,893.7c-1.3-1-0.4-3.5,1.2-3.4
			C409.6,891.7,409.4,894,407.9,893.7z M401.4,458.8c1.9-2.7,4.3-5.1,7.1-6.8c0,2.4-1.9,4.7-4.3,5.1c0.8,2.2,0.4,4.9-1,6.8
			c-0.8,0.9-2.5,0.4-2.7-0.7C401.8,462.1,402.2,460.2,401.4,458.8z M397.8,946.1c-3.3-1-4.6-5.9-2.3-8.4c-1.6-0.7-3.2-1.4-4.8-2.1
			c4.9,7-1,18.5-9.5,18.6c-1.8,5.8-6.2,10.7-11.7,13.2c-6.1,2.7-10.3,9.4-10.1,16.1c0-4.7-1.2-9.5-3.6-13.5
			c-1.2-2.1,0.3-4.6,0.7-6.9c0.4-2.3-2.3-5.4-3.8-3.6c-1-4.1-2.1-8.1-3.1-12.2c-0.6-2.2,0-5.7,2.2-5.2c2.1,0.4,3.9-1.8,3.9-4
			c0-2.1-1.3-4-2.4-5.8c-1.8,2.4-3.5,4.8-5.3,7.2c-7.8-18.3-0.7-39.2,6.4-57.8c3.2-8.4,6.4-16.8,9.6-25.2c1.7,0.9,3.4,1.9,5.1,2.8
			c-2.2-13.3,5.7-25.9,13.3-37.1c1-1.4,2.4-3.1,4.1-2.8c-1.7,9.2-3.3,18.4-5,27.5c-2,11-4,21.9-5.9,32.9c-0.7,3.9,0.1,8.1,2.1,11.5
			c-1.7-0.5-2.9-2.4-2.7-4.2c-1,2.1-3.8,4.4-5.1,2.4c0.7,3.5-0.4,7.2-2.9,9.8c-4-3.3-10.4-3.3-14.4,0c-1.6,0.9-2.2,3.2-1.2,4.7
			c4.9-4.8,13.7-4.7,18.5,0.2c2.3-1.3,1.9-4.6,2.2-7.3c0.3-2.6,3.9-5.2,5.2-2.9c-0.8,1.4-1.6,2.8-2.4,4.2c4.5,0.3,8.8,2.6,11.5,6.2
			c-3.1,1.6-7.3,0.3-8.9-2.8c-1.1,4.5,0.6,9.6,4.3,12.4c2.6-4.7,10.4-3.9,13.7,0.4c3.3,4.3,3.3,10.2,2.7,15.6
			C397.4,935.4,396.3,940.9,397.8,946.1z M397.1,951c-0.6,1.2-2.5,1.8-3.4,0.7c0.5-1.5,1.1-3,1.6-4.4l0.3,0c0.6-0.1,1.2-0.2,1.7-0.3
			C397.5,948.4,397.7,949.8,397.1,951z M393.7,957.5c-0.1,0.7-0.5,1.4-1.1,1.9c-0.7-0.1-1.4-0.5-1.9-1.1l0,0
			c0.1-0.7,0.5-1.4,1.1-1.9C392.5,956.5,393.2,956.9,393.7,957.5z M384.5,955.9c0.8-0.6,1.9,0.5,1.7,1.5c-0.2,1-1.1,1.6-2,2.1
			c-0.6-1.1-0.3-2.5,0.6-3.3L384.5,955.9z M340,903.2c0.6,0.4,1.3,1,1.3,1.7c0,0.8-1.3,1.2-1.5,0.4l0.1,0
			C339.4,904.8,339.4,903.8,340,903.2z M339.6,901.1c-1.4-3.6-2.4-7.4-2.8-11.3c2.4-0.8,2.9-4,3.2-6.6c1.7-12.1,11.4-22.2,11.9-34.4
			c0.1-2.7,0.7-6.6,3.4-6.6c1.1,7-0.9,14.1-3,20.8c-0.8,2.5-1.6,4.9-2.4,7.4c-1.3,3.8-2.6,7.6-3.8,11.5c-0.5,1.5-1,2.9-1.5,4.4
			C342.9,891.3,341.3,896.2,339.6,901.1z M337.4,861.4c0.3-0.9,1.9-0.9,2.2,0c-0.5,0.7-1.1,1.4-1.6,2.1
			C337.4,863,337.1,862.1,337.4,861.4L337.4,861.4z M338.8,853l0,0.4c1,0,1.6,1.2,1.3,2.1c-0.4,0.9-1.6,1.3-2.5,0.9
			C337,855.2,337.6,853.6,338.8,853z M350.4,819.8c0.4-1.5,1.9-3.1,3.2-2.2c-0.1,2.8-1.1,5.5-2.8,7.8
			C350,823.6,349.9,821.6,350.4,819.8z M346,1369.8c1.4,4.9,2.2,9.8,2.5,14.9c-4-5.7-6.3-12.6-6.5-19.5
			C344.2,1365.1,345.4,1367.6,346,1369.8z M347.4,1359.5l0.1-0.4c-0.5-0.9-0.5-2.1,0-3c1-0.1,2,0.8,2,1.8
			C349.4,1358.9,348.4,1359.7,347.4,1359.5z M358.8,825.7c0.6,1,0.2,2.5-0.8,2.9l-0.2,0.4C356.6,828.1,357.3,825.7,358.8,825.7z
			 M363.5,835.9c0.8,1.4-0.7,3.5-2.2,3.1c0.1-0.7,0.2-1.4,0.3-2l0.5-0.1C361.7,836.1,363,835.2,363.5,835.9z M363.6,787
			c-0.2-1.9,2-3.7,3.9-3c-0.4,1.7-2,3.1-3.8,3.4L363.6,787z M368.3,647.3c0.2-0.6,1.1-0.8,1.5-0.3c0.4,0.5,0.1,1.3-0.5,1.4l-0.1-0.1
			C368.7,648.5,368,647.8,368.3,647.3z M372.1,815.4c-2.1-1.3-2.5-4.6-0.8-6.3l0.5-0.6C373,810.5,373.1,813.1,372.1,815.4z
			 M373.4,826.1L373.4,826.1c0.1-0.9,0.7-1.8,1.6-2c0.6,2.6-0.5,5.5-2.7,7C371.5,829.4,372,827.3,373.4,826.1z M385,882.1l0.1-0.1
			c-1.3-1.7-1.6-4.1-0.9-6.1c1.3,0.6,2,2.1,2.4,3.5c0.7,2,1.1,4.3,0.3,6.3c-0.9,2-3.6,3.2-5.2,1.7c0.1-0.5,0.1-1.1,0.2-1.6
			c0.7,0.8,2.1,0.3,2.7-0.6C385.2,884.3,385.1,883.1,385,882.1z M380.1,818c-0.5,1.2-1.4,2.7-2.7,2.4c2.3-9.7,5.9-19,10.7-27.7
			c0.7,0.1,1.4,0.5,1.8,1.1C386.6,801.8,383.3,809.9,380.1,818z M396.7,879.7c0.7,2.1,0.8,4.4,0.1,6.4c-0.2,0.7-1.6,0.9-1.2,0.3
			l-0.1,0.2C393.8,884.6,394.4,881.1,396.7,879.7z M395.3,848.6L395.3,848.6c0-0.5,0.8-1,1.4-0.7c0.6,0.2,0.8,1,0.8,1.6
			C396.7,849.8,395.6,849.4,395.3,848.6z M394,895.5c-0.7,0-1.5-0.4-1.8-1.1c0.6-0.6,1.2-1.2,1.9-1.9l0.1-0.1
			C395.1,893.2,395,894.9,394,895.5z M390.6,862.8l0.2-0.6c0.7-2.3,2.1-4.3,4-5.7C396,859.3,393.6,862.8,390.6,862.8z M398,847.3
			c-1.8-1.2-1.6-4.5,0.4-5.4l0.1,0.3C399.4,843.8,399.2,845.9,398,847.3z M391,848.4c-2.1-2.2-1.2-5.8,0.2-8.4s3.4-5.3,3.3-8.3
			c-0.1-1.8,1-3.6,2.6-4.5c1.1,1.1,2.1,2.1,3.2,3.2C395.6,835.4,392.3,841.7,391,848.4z M392.2,812.5c-0.1,0.8-0.6,1.5-1.2,2
			c-0.8-1.1-0.7-2.8,0.2-3.7C391.9,810.4,392.3,811.7,392.2,812.5L392.2,812.5z M395.1,822.3c0.9-1.4,1.9-2.8,2.8-4.3
			c1.6,2.4,0.8,6.1-1.7,7.6c-1-0.7-1.4-2.1-0.9-3.2L395.1,822.3z M390.7,478.6c3.9-1.6,4.5-8,8.7-8.9c-4,7.3-8,14.7-12,22
			c-0.5,0.9-1.1,1.9-2,2.3c-1.6,0.6-4-0.3-4.6,1.3C380,488.3,384.3,481.2,390.7,478.6z M385.5,588.7c0.2-1.6,2.8-1.6,3.7-0.2
			c0.8,1.4,0.4,3.2-0.1,4.7c-1.4,4.7-2.8,9.4-4.2,14.1c-1.1,3.7-2.2,7.3-3.3,11c-1.8,6-3.6,11.9-6,17.6c-2.3-3.6,4.1-8,2.3-11.8
			c-1.7-3.5,0.2-7.5,1.7-11C383,605.5,385,597.1,385.5,588.7z M377.4,487.3c0.6-0.6,1.3-1.2,2.2-1.1c-0.9,3.2-1.8,6.4-2.7,9.6
			c-0.9,3.3-2.1,7-5.2,8.5C370.7,498.1,372.9,491.6,377.4,487.3z M376.4,506.7c-0.7,1.2-1.9,2.2-3.3,2.5l-0.1-0.6
			C373,507.1,375,506,376.4,506.7z M375.9,600.2c0.9,1.4,1.3,3.1,1.2,4.8c-0.1,2.3-1.1,4.4-2,6.5c-1.3,2.7-2.6,5.5-3.9,8.2
			C372.2,613.1,373.8,606.5,375.9,600.2z M370.8,488.4c0.5,0.7,0,1.9-0.8,2.1l0,0c-1.4,0.5-3.1,0.1-4.2-1
			C366.9,488.1,369,488.2,370.8,488.4z M358,490.7c0.6,0.6,1.2,1.2,1.8,1.8c-0.3,1.1-2,1.3-2.6,0.4l0,0
			C356.8,492.1,357.2,491,358,490.7z M359.3,504.1c2,1.2,1.7,4.7-0.4,5.6l-0.2-0.3c-0.7,0.7-2,0.5-2.5-0.3
			C357.6,507.7,358.7,506,359.3,504.1z M353.3,515.5c4.5-2,8.6-5.1,11.5-9.1c-0.7-2.4,2.1-2.8,0.8-1.3c0.8,0.3,1.6,0.6,2.4,0.8
			c-1.1,5.7-6.2,10.5-12,11.2C354.8,517.4,353,516.8,353.3,515.5z M367.8,625.5c-0.4,0.6-1.5,0.9-1.8,0.2c-1.6-2.7-1.2-6.5,1-8.8
			c0.3,2.1,0.7,4.3,1,6.4C368.1,624.1,368.2,624.9,367.8,625.5z M364,520.7l-0.2-0.1c-0.2,1-1.5,1.7-2.5,1.2
			c0.9-1.4,1.8-2.8,2.6-4.2C364.6,518.6,364.6,519.8,364,520.7z M356.4,526.8l0.4-0.1c-0.2,1.8-1.6,3.3-3.3,3.8
			C352.2,528.8,354.5,525.8,356.4,526.8z M355.9,651.3c1.2-2.7,2.6-5.3,3.3-8.2c0.7-2.9,0.6-6.1,2.2-8.6c1.6-2.5,6.1-3.3,7.2-0.5
			c-2.8,0.7-4.4,3.6-5.2,6.4c-0.8,2.8-1.2,5.8-3,8c-2.8,3.5-4.4,7.9-4.4,12.4c1.3,1.9,0.2,5-2,5.6c0.7,2.1,0.3,4.6-1.1,6.3
			C351.9,665.5,352.9,658,355.9,651.3z M346.6,687c0.4-4.9,2.7-9.5,6.2-12.9c0.6,2.2,0.3,4.6-0.9,6.5c-1.1,1.7-2.8,3.1-2.8,5.1
			c-0.1,1.8,1,4.3-0.7,4.9C346.8,690.3,346.4,688.4,346.6,687z M340.4,515.4l2.9,0c-0.5,0.5-1,1.1-1.7,1.2S340.1,516,340.4,515.4z
			 M301.3,756.9c2.9-3.7,6.1-7.2,9.7-10.3c-1.9,4.8-5.2,9-9.3,12.1c-0.4,0-0.7-0.3-0.8-0.7C300.8,757.6,301,757.3,301.3,756.9z
			 M299.5,760.4l0.4-0.2c0.7,2.5-1,5.5-3.6,6C296.2,763.9,297.5,761.6,299.5,760.4z M290.8,799.6c-0.5,0.8-1,1.6-1.5,2.5l-0.2-0.1
			c-0.3,0.9-0.6,1.8-0.9,2.7c-0.7-0.1-1.4-0.5-1.7-1.1C286.5,801.3,288.6,799.4,290.8,799.6z M285.2,809.9c0.3,1.9,0.6,3.8,0.9,5.7
			l-0.1,0c0.2,1-1.1,2-2,1.5C283.9,814.7,284.4,812.2,285.2,809.9z M281.5,837.9c3.2-7.7,6.4-15.4,9.5-23.1
			c16.8-40.8,33.7-81.7,50.5-122.5c1.6-0.2,3.2,0.8,3.7,2.3c-5.8,8.5-9.8,18.3-11.5,28.4c-0.8,4.5-2.9,10.6-7.5,9.8
			c-1.4,7-3.4,13.8-6.1,20.4c1.5-0.1,2.9-1.1,3.5-2.5c-3.1,15-6.2,30.1-9.3,45.1c-1.4,6.8-2.9,13.8-6,20c-4.5,8.7-8,17.9-10.6,27.3
			c2,4.3-0.6,10-5.1,11.3c-5.3,2.6-12.5-1.3-13.3-7.1C279,844.1,280.3,841,281.5,837.9z M328.6,738.1c-0.2,0.8-1.9,0.6-1.4-0.1
			l0.4,0.1c-0.3-1,0.3-2.2,1.3-2.5C328.4,736.4,328.8,737.3,328.6,738.1z M321,1126.1l-0.7-0.4c-1,0.5-2.2-0.6-2.1-1.7
			c0.1-1.1,1.1-1.9,2.1-2.3c1.5-0.6,3.4-0.3,4.6,0.8s1.3,3.3,0.1,4.4S321.5,1127.7,321,1126.1z M323.1,1271.6l-0.2,0.1
			c-1.1-1-0.9-3.1,0.4-3.7C324.1,1269,324,1270.6,323.1,1271.6z M316.6,1173.3l0.1,0.3c-2-0.1-3.9-0.2-5.9-0.3
			c0.3-1.9,2-3.6,3.9-3.8c1.9-0.2,4,1,4.7,2.8C318.4,1172.7,317.5,1173,316.6,1173.3z M317.6,1199.2c-1.5,1.7-3.9,2.4-6.1,1.8
			c1.3-1.6,3.4-2.5,5.5-2.3L317.6,1199.2z M320.6,1028.6c-1.2-0.8-2.1-2.1-2.7-3.4c0.2-1,1.6-2.1,1.8-1.1l-0.2,0
			C320.3,1025.4,320.7,1027,320.6,1028.6z M319.2,1101.7c-0.9,1.9-3.8,2.4-5.3,0.9c0.9-1,2.1-1.7,3.5-1.9l0.1-0.2
			C318.1,1100.9,318.7,1101.3,319.2,1101.7z M320.4,1323c0.4,1.1,0.5,2.3,0.4,3.4c-0.5,0.6-1.6,0.3-1.8-0.4l-0.1,0.1
			C318,1324.9,319,1323,320.4,1323z M321.1,1392.8l-0.1,0.3c-1.2-1-1.4-2.9-0.5-4.1C321.8,1389.8,322.1,1391.7,321.1,1392.8z
			 M324.5,1037.4c-0.6-0.9,0.1-2.6,1-2.1l-0.3,0.4c1.2,0.9,1.7,2.7,1.2,4.1C326.2,1038.8,325.1,1038.3,324.5,1037.4z M308.5,836.4
			c-0.1,1.6-0.6,3.2-1.1,4.7c-1.4,4.1-2.9,8.2-4.3,12.3c-1.1,0.3-2.2-0.6-2.6-1.7c-0.4-1.1-0.2-2.3,0-3.4
			c1.9-10.3,3.9-21.1,10.7-29.2C309.5,824.8,308.6,830.6,308.5,836.4z M308.7,858.2c-1.2,2.6-2.3,5.3-3.5,7.9
			c-1.5-4.9,0.3-10.6,4.2-13.8C309.7,854.2,309.5,856.3,308.7,858.2z M301.3,945.6l-0.1-0.6c-0.9,0.3-1.7-1.1-1.2-1.9
			c0.5-0.8,1.8-0.8,2.6-0.3c0.8,0.6,1.2,1.5,1.5,2.5c0.6,2.4,0.4,4.9-0.6,7.1c-1.3,0.7-2-1.7-1.5-3.1
			C302.5,947.9,302.7,945.7,301.3,945.6z M282.8,861.7c-0.9,0.4-2.1-0.5-2.1-1.5l-0.3,0.1c-0.9-1.8,2-4,3.5-2.6
			C284.2,859.1,283.8,860.6,282.8,861.7z M277.9,927.5c3.2-1.1,5.7-4,6.3-7.3c1.6,2,2.5,4.6,2.4,7.1c2-4.7,1.7-10.2-0.6-14.7
			c-2.6,3.4-5.3,6.8-7.9,10.2c-2.5-6-2.9-12.9-1.3-19.2c5.7,1.2,11.8,0.4,16.9-2.4c-5.5-2.1-11.5-2.8-17.3-2.1
			c0.4-3.9,0.9-7.9,1.3-11.8c-0.2,2.4,0.3,5.6,2.7,5.8c-1.8-8.4-2.4-17.1-1.6-25.6c3.8-4.7,9-8.3,14.8-10.1c-0.6,1.6-0.5,3.5,0.3,5
			c2.6-1.4,4.5-4.1,5.1-7c2.6-0.2,3.8,3.1,4,5.7c1.8,23.1-9.1,46.9-2.3,69c0.7,2.3,0.4,6.2-2,5.7c1-3.2,1.1-7.9-2.2-8.4
			c-0.3,12.7,1.2,25.5,4.5,37.8c6.8,16.4,11.2,33.7,13.3,51.3c-2.4,0-4-2.7-4-5.1s1-4.7,1.3-7c0.3-2.4-0.2-5.2-2.3-6.3
			c-2.1-1.1-5.3,1.4-4,3.4c-5.8-6.6-9.5-15-10.6-23.7c-0.1-1.1-0.3-2.4-1.1-3.2c-0.8-0.8-2.6-0.5-2.7,0.6
			C284.4,960.1,280.1,943.9,277.9,927.5z M290.2,1070.5c0.6-0.5,1.2-1,1.9-1.1c0.7-0.1,1.6,0.5,1.5,1.3c-0.1,0.3-0.3,0.6-0.5,0.9
			c-2.3,2.4-5.3,5.1-8.5,4.1C286.4,1073.9,288.3,1072.2,290.2,1070.5z M277.4,1102.7c3.9-10,17.9-12.2,23.4-21.5
			c1.6,0,2.6,2,2.1,3.6s-1.7,2.7-2.9,3.7c-3.3,2.8-6.7,5.7-10,8.5c-1.4,1.2-2.9,3.1-1.7,4.5c5-4.5,10-9,15-13.6c0.5-0.5,1.1-1,1.8-1
			c0.8,0,1.4,0.5,2,1c3.2,2.8,6.1,5.9,8.7,9.2c-1.5-0.4-2.7,1.2-3.3,2.7s-1,3.2-2.5,3.8c-5.9,2.5-11.2,6.5-15.2,11.4
			c-0.7,0.9-1.5,1.9-2.5,2.4c-1,0.5-2.5,0.3-3.1-0.7c0.8-0.3,1-1.4,0.5-2.1c-6.2,0.5-12.4,1.1-18.7,1.6c-1,0.1-2.2,0-2.4-1
			c-0.1-0.4,0.1-0.8,0.2-1.2c1.5-3.8,3.4-8,7.3-9.6C276.8,1104.3,277.1,1103.5,277.4,1102.7z M307.2,1320c-1.1,0.4-1.9-1.2-2-2.4
			c-0.4-4.9,0.2-9.8,1.6-14.4C308.3,1308.6,308.5,1314.4,307.2,1320z M302.4,1359.6c1.4,1.7,1.7,4.3,0.7,6.2
			c-0.6-0.1-1.2-0.2-1.9-0.2l0.1-0.2C300.8,1363.5,301.2,1361.3,302.4,1359.6z M289.9,1381.3c-1.2-1.5-0.7-4.1,1-5
			c1.3,4,1.5,8.4,0.5,12.5c-1.6-2.1-2.1-5-1.3-7.5L289.9,1381.3z M273.8,1206.8c-0.3-1.8,1.2-3.6,3-4s3.7,0.3,5.2,1.5
			c0.5,0.4,1.1,1,1.2,1.6c0.2,1.2-0.9,2.2-1.9,2.8C278.7,1210.1,274.4,1209.8,273.8,1206.8z M278.9,1227.3c-0.5,1.1-2.3,1.5-3.2,0.6
			c0.4-1.2,2.2-1.5,3-0.6L278.9,1227.3z M274.9,1149.8c1.3-2.3,3.7-3.9,6.2-4.2c1.7-0.2,4.1,0.9,3.6,2.6c-0.2,0.7-0.9,1.2-1.6,1.6
			c-1.3,0.8-2.7,1.7-4.3,1.8S275.6,1151.2,274.9,1149.8z M283.8,1338.8c0.4,1-0.3,2.2-1.3,2.4l-0.2,0.4
			C281.2,1340.6,282.4,1338.5,283.8,1338.8z M283.8,1327.2c-0.5-1.1-1.1-2.3-0.7-3.5c0.4-1.2,2.3-1.7,2.8-0.6
			c0.1,0.3,0.2,0.5,0.2,0.8c0,1.7-0.8,3.3-2.1,4.3L283.8,1327.2z M285.5,1283.6c-2.6-2.8-2-7.9,1.3-10c1.5,1.3,3.2,2.9,3.1,4.9
			C289.8,1280.9,287.5,1282.5,285.5,1283.6z M288.6,1314c0.1-1.6,3.1-1,3.1,0.6c0,1.6-1.7,2.7-3.3,3
			C288.6,1316.4,288.6,1315.2,288.6,1314L288.6,1314z M288.6,1168.4c0.3-1.8,1-3.6,2.2-5l0.5-0.1
			C291.6,1165.4,290.5,1167.5,288.6,1168.4z M287.9,1343c0.6-0.5,1.8-0.1,1.9,0.8l0.1,0c0.2,2.5,0.5,5,0.7,7.5
			C288.1,1349.5,286.9,1345.9,287.9,1343z M292.5,1352.9l0.1,0.1c1.2,0.8,1.5,2.6,0.7,3.8C291.9,1356.2,291.5,1354.1,292.5,1352.9z
			 M292.4,1318.9C292.4,1318.9,292.3,1318.9,292.4,1318.9L292.4,1318.9C292.3,1318.9,292.4,1318.9,292.4,1318.9
			c0.3-0.8,1.8-0.9,2.1,0C294.1,1319.7,292.7,1319.7,292.4,1318.9z M282.1,1122.4c-0.7-0.1-1.4-0.5-1.8-1.1c0.3-0.8,1.4-1.3,2.2-0.8
			l-0.1,0.1C282.6,1121.2,282.5,1121.9,282.1,1122.4z M272,1084.5l0.2,0c0-1.7,0.9-3.5,2.4-4.4c1.3,2.4-0.4,5.8-3.1,6.3
			C271.7,1085.8,271.8,1085.1,272,1084.5z M268.7,1099.1c0.5,1.3,0.1,2.8-0.9,3.7l0.2,0.2c-0.7,0.8-1.3,1.6-2,2.4
			C265.3,1103,266.5,1100.2,268.7,1099.1z M267.4,1133.1c-2-2.6-3-5.9-2.6-9.2c1.1,0.9,2.3,1.8,3.4,2.7l0.6-0.6
			C270.4,1128.1,268.9,1131,267.4,1133.1z M268.9,1122.6c0.8-1.2,2.8-0.4,3.5,0.8c0.8,1.2,1,2.8,2.1,3.7c1.5,1.3,3.9,0.9,5.6-0.2
			c1.7-1,3.1-2.5,5-3.3c1.8-0.7,4.4-0.3,5.1,1.5c-3.2,5.2-12.2,3.1-16,7.9c-0.9,0.2-1.5-1-1.3-2c0.1-0.9,0.6-1.8,0.5-2.7
			c-0.3-1.3-1.7-1.9-2.9-2.6C269.3,1125.2,268.1,1123.7,268.9,1122.6z M269.7,1143.9c0.1-1.4,0.2-2.8,0.2-4.2l0.2-0.1
			c0.6,0.2,1.2,0.3,1.7,0.5c0.2,0.9,0.4,1.9,0.1,2.8C271.6,1143.7,270.5,1144.4,269.7,1143.9z M275.6,1329c1.2,1.7-0.4,4.5-2.5,4.4
			l0,0.3c-0.7-0.2-1.4-0.4-2-0.5C272,1331.3,273.7,1329.8,275.6,1329z M273.5,1354.2L273.5,1354.2c-0.6,0.5-1.8,0.2-2-0.6
			c0.6-1.7,1.6-3.2,2.9-4.5C275.5,1350.6,275.1,1353.1,273.5,1354.2z M273.5,1363.2L273.5,1363.2c-1.1-0.9-0.8-2.8,0.4-3.4
			C275.2,1360.6,274.9,1362.9,273.5,1363.2z M269.2,1208.8c1.2,1.1,0.7,3.4-0.9,4l0-0.6C268,1210.9,268,1209.1,269.2,1208.8z
			 M266,1220.6c0.8-0.8,1.1-2.1,0.7-3.1c0.6-0.5,2,0,1.5,0.7l-0.1,0.1C268.7,1219.5,267.2,1221.1,266,1220.6z M266.4,1161.5
			c0-0.3,0.1-0.6,0.2-0.8c0.8-0.9,1.9,0.8,1.8,2c-0.1,4.6-0.5,9.1-1.1,13.7c-0.3,2.4-0.8,4.9-2.7,6.4
			C265.3,1175.7,265.8,1168.6,266.4,1161.5z M264.7,1185.6c0.4,0.2,0.4,0.7,0.4,1.2c0,2,0,4,0,5.9c0,1.7-1.1,4.1-2.5,3.3
			c-1.3-3.2-0.7-7.1,1.4-9.8C263.7,1185.9,264.3,1185.4,264.7,1185.6z M263,1200.7l-0.1,0.2c0.6,1.5-1.6,3.2-2.9,2.2
			C260.1,1201.7,261.5,1200.5,263,1200.7z M260.3,1169.2c-0.4,3.9-0.8,7.8-1.3,11.8c-0.1,1.1-0.7,2.6-1.8,2.4
			c-1.1-0.2-1-1.8-0.8-2.8c1.6-6.8,1.6-14-0.2-20.8c1.2,1.7,2.3,3.5,3.5,5.2C260.6,1166.1,260.4,1167.7,260.3,1169.2z M256.8,1147
			c1,1.7,1.3,3.9,0.8,5.9l0.1,0c0,1-1.6,1.5-2.2,0.7C255,1151.3,255.5,1148.9,256.8,1147z M252.6,1193.1l0.2-0.3
			c-0.4,1-2.2-0.1-1.6-0.9C251.8,1191,253.4,1192.4,252.6,1193.1z M251.4,1214.2l-0.2-0.1c-0.2-1.5,0.4-3.1,1.6-4
			C253.6,1211.5,252.9,1213.6,251.4,1214.2z M249.5,1139.3l0.3,0c-0.2-1,1-1.9,2-1.6c0.3,2.1-1,4.3-2.9,5.1
			C249,1141.7,249.3,1140.5,249.5,1139.3z M234.2,1231c-3.6-2.8-4.9-8.2-3-12.3c0.6-0.2,1.3,0,1.8,0.3
			C232.5,1223,232.9,1227.1,234.2,1231z M233.9,1199c2-3.1,4.1-6.2,6.1-9.3C240.9,1193.8,238,1198.3,233.9,1199z M233.1,1233.4
			c0.9,1.2,0.8,3.1-0.3,4.2l-0.2-0.3C231.7,1236.2,232,1234.3,233.1,1233.4z M239.1,1242.9c1.3-0.4,2.7-0.6,4-0.1
			c1.2,0.5,2.1,2,1.6,3.3c-3.6,1.7-8.7,3.2-10.9-0.2C235.3,1244.5,237.1,1243.5,239.1,1242.9z M244.2,1224.2l-0.1,0.1
			c-1.1-1.4-0.4-3.8,1.3-4.3c0.4,1.6,0.5,3.3,0.3,5C245.2,1225.6,244,1225,244.2,1224.2z M244.3,1212.9c-0.4,1.2-0.8,2.6-1.9,3.4
			c-1,0.8-2.9,0.7-3.4-0.5c-0.7-1.8,1.8-3.1,3.7-3.4c-0.4-1.1-1.6-1.9-2.8-1.8c1.6-2.4,3.2-4.9,4.8-7.3c-0.7,3.1-1,7.1,1.7,8.9
			C245.8,1212.4,245.1,1212.7,244.3,1212.9z M244.1,1157c-0.2,0.6-1,0.9-1.5,0.5l0.1-0.1c-0.7-0.4-0.4-1.6,0.4-1.6
			C243.7,1155.7,244.3,1156.4,244.1,1157z M242.1,1144.4c0.4-0.6,1.7-0.4,1.5,0.3l-0.2-0.1c-0.1,0.8-0.5,1.5-1.2,1.9
			C242,1145.8,241.7,1145,242.1,1144.4z M241.8,1179.6c1.1-1,3.2-0.9,3.8,0.4c0.5,1.2-0.3,2.5-1.1,3.5c-1.2,1.7-2.5,3.3-3.7,5
			c-1.1-1.3-1.5-3.2-1.2-4.9l0.2-0.1C240.3,1182.2,240.7,1180.6,241.8,1179.6z M238.6,1151.1L238.6,1151.1c0.2-0.7,1.1-1,1.7-0.6
			c-0.6,1.1-1,2.3-1,3.5C238.1,1153.8,237.7,1151.9,238.6,1151.1z M230.9,1162.2c0.6-1.1,1.3-2.1,2.1-3c0.5-0.6,1.2-1.2,2-1.4
			c2-0.3,3,2.9,1.7,4.5c-1.3,1.6-3.6,1.9-5.6,2.1C230.4,1164.1,230.5,1162.9,230.9,1162.2z M227.8,1183.2c1,0.1,1.8,1.2,1.5,2.2
			l0.2,0.3c0.8,0,1.2,1.1,0.9,1.8c-0.3,0.7-1,1.2-1.7,1.7C228,1187.3,227.7,1185.2,227.8,1183.2z M228.8,1193
			c-1.1-0.8-1.3-3.3,0.1-3l-0.1,0.1C229.9,1190.5,229.9,1192.6,228.8,1193z M211.3,1227.9c0.5-0.5,1.4,0,1.5,0.7
			c0.1,0.7-0.3,1.3-0.7,1.9c-0.9,1.4-1.9,2.7-2.8,4.1c-1.6-2.1-0.5-5.6,2-6.4L211.3,1227.9z M202.7,1219.7c1.9-1.4,4.5-2.5,6.3-1.1
			c1.4,1,1.6,3,1,4.6c-0.6,1.6-2,2.7-3.4,3.6c-2,1.3-5,2.1-6.6,0.3C198.1,1224.7,200.4,1221.4,202.7,1219.7z M200.2,1249
			c1-4.2,1.9-8.3,2.9-12.5c0.6,0.1,1.2,0.3,1.8,0.4C205.7,1241.4,203.8,1246.3,200.2,1249z M194.9,1351.7c-0.8-4,0.7-8.3,3.8-10.9
			C198.5,1344.7,197.2,1348.5,194.9,1351.7z M199.7,1272.8c-2.3-2.5-2-7,0.7-9.1c0.1,1.1,0.3,2.2,0.4,3.4l-0.2,0
			C201,1269,200.7,1271.1,199.7,1272.8z M205.5,1267.6c-2.3-1.9-0.4-6.5,2.6-6.3l0.5-0.1C207.8,1263.4,206.8,1265.6,205.5,1267.6z
			 M207.3,1257.3c-0.9,1-1.8,2-3.1,2.3c-2,0.4-3.9-1.3-4.3-3.3c-0.3-2,0.6-4,1.9-5.5c2-2.2,6.2-3.1,7.7-0.5
			C210.9,1252.6,209.1,1255.4,207.3,1257.3z M215.8,1221.6c-2.3-6.9,0.5-14.3,3.3-21c-2,0.8-3.5,2.5-4.1,4.6
			c-0.2-10.9,9.6-21.4,5.6-31.5c-0.3-0.8,0.1-1.6,0.5-2.4c1.9-3.6,3.8-7.3,5.7-10.9c1.9,4.8,0.4,10.2-0.9,15.2
			c-4,15.2-5.7,31-5,46.7c0.2,4-3.4,8.7-0.5,11.6c0.1-1.6,2-2.7,3.4-2c-3.3,5.5-7.2,10.7-11.7,15.3c-0.7-0.4-1.3-0.8-2-1.2
			C214.2,1238.4,218.5,1229.7,215.8,1221.6z M221.4,1250c0.2,3.9-1,7.8-3.4,10.9c-0.6-4-0.8-8-0.6-12c0.1-2,0.3-4.1,1.6-5.6
			c1.3-1.5,4-1.8,5.1-0.1C222.2,1245,221.2,1247.5,221.4,1250z M220.6,1274c-0.6-2.7-0.4-6.5,2.4-6.9c1.4-0.6,2.8,1.3,2.7,2.8
			c-0.1,1.6-1.1,2.9-1.4,4.5c-0.4,2.1,0.6,4.2,1.2,6.3s0.5,4.7-1.3,5.9C222.7,1282.4,221.5,1278.2,220.6,1274z M223.3,1297.4
			c-1.4,2.9-3.3,5.6-5.6,7.9c-0.7-1.1-0.6-2.5,0-3.7C218.7,1299.4,220.9,1297.7,223.3,1297.4z M224.2,1264.5c-0.3-0.6-0.5-1.3-0.3-2
			c0.5-0.4,1.2-0.5,1.9-0.3l0,0C226.5,1263,225.4,1264.4,224.2,1264.5z M217.6,1271.9c1.6,1.9,1.6,5,0.1,7l-0.5-0.6
			c-2-0.3-3.9-1.1-5.5-2.4C214.1,1275.5,216.4,1274,217.6,1271.9z M216.4,1317.5c3.8-7.5,7.7-15.1,11.5-22.6
			c-1.2,0.1-2.3,0.2-3.5,0.3c-0.6-2.2,0.8-4.7,2.9-5.3c0.8,2.5,2,4.8,3.4,6.9c2.9-3.8,5.8-7.7,8.6-11.5c-2-1-3.9,1.2-5.2,3
			c-1.3,1.7-4.4,3.1-5.4,1.2c9.2-10.3,19.3-19.8,30.1-28.4c-0.9,3.1-3,5.8-5.8,7.6c0.8-0.2,1.5,0.9,1.2,1.7
			c-0.3,0.8-1.1,1.3-1.8,1.8c-2.6,1.6-5.2,3.1-7.8,4.7c0.9,0.4,1.8,0.9,2.7,1.3c-3.6,5.4-7.3,10.9-10.9,16.3c-1.6,2.4-3.2,4.8-4,7.5
			c-0.8,2.8-0.7,5.8-1.8,8.5c-1.8,4.8-6.9,8.5-6.5,13.6c0.3,3.2-1.4,6.4-4,8.1C217.2,1327.7,214,1322.2,216.4,1317.5z M233.2,1378.5
			c-0.4-0.8-0.3-2,0.4-2.6c2.7,1.7,4.3,4.8,4.3,8c-2.6,0.3-5-2.7-4.2-5.2L233.2,1378.5z M235.5,1368.7c-1.8-3.7,0.2-8.7,4-10.3
			c-0.2,1.8-0.5,3.7-0.7,5.5l0.1,0c0.3,1.2,0.4,2.6-0.2,3.7C238.1,1368.8,236.5,1369.5,235.5,1368.7z M241.4,1386.1l0.1,0
			c1.2,0.8,1.9,2.4,1.6,3.8c-2.1-0.8-3.7-2.8-4.2-5C239.8,1384.2,241.5,1385,241.4,1386.1z M242.6,1343.8c-0.6,0.4-1.1,0.8-1.7,1.2
			l-0.3-0.2C240.1,1343.8,242.1,1342.7,242.6,1343.8z M241.3,1307.2l0.2,0.2c1.8,1,2.8,3.1,2.5,5.1
			C242,1311.6,240.8,1309.2,241.3,1307.2z M228.2,1359.6c1.1,2.8,2.2,5.5,3.3,8.3c0.7,1.7,1.4,3.5,1.3,5.3c-0.1,1.8-1.3,3.7-3.1,4
			c-1.5-5-3-10-4.5-15c-0.5-1.8-1.1-3.6-1.2-5.4C224.6,1358.6,226.4,1359.8,228.2,1359.6z M224,1343.1c1.4-3.5,3.8-6.5,6.8-8.8
			C230.5,1338.2,227.7,1341.9,224,1343.1z M219.9,1384.7c-1.2,3.6-3.9,6.7-7.4,8.4C214.2,1389.7,216.8,1386.8,219.9,1384.7z
			 M208.8,1362.6l0.7,0.5c1-0.9,3.2-1.3,3.1,0c-0.7,0.5-1.4,1-2.3,1.1C209.5,1364.1,208.6,1363.4,208.8,1362.6z M211.9,1369.2
			L211.9,1369.2c-1,0.6-2.4-0.4-2.3-1.5C210.5,1367,211.9,1368.1,211.9,1369.2z M206,1383.4c-0.3-1.1-0.1-2.8,1-2.6
			c0.9,2.4,0.3,5.3-1.5,7.1c-0.5-1.4-0.3-3,0.6-4.3L206,1383.4z M211.8,1394.5c-0.8,4.5-3.4,8.6-7.2,11.1
			C205.1,1401.1,207.8,1396.8,211.8,1394.5z M202.6,1401.8c1,1.2,0.6,3.3-0.8,4l-0.1-0.2C201,1404.4,201.4,1402.6,202.6,1401.8z
			 M200,1422.2c-0.3-1.3,0-2.7,0.3-4c0.7-3,1.5-6,2.2-9c0.6-0.7,1.3-1.4,1.9-2c0.5,6-0.4,12.1-2.6,17.7c1.3,0.4,2.8,0.2,3.9-0.5
			c-1.1,4.2-2.2,8.5-3.4,12.7c-0.7,2.6-1,5.9,1.2,7.2c-1,1.3-3,1.7-4.4,0.8c-0.4-6.1,0.3-12.2,2-18.1
			C201.7,1425.3,200.4,1423.8,200,1422.2z M196.7,1466.9l0.2-0.8c-0.6-1.8,0.2-3.8,1.8-4.8C200.9,1462.9,199.4,1467,196.7,1466.9z
			 M215.9,1451.4c-0.8,0.1-1.4-1.1-0.9-1.7l-0.1-0.1c-0.2-1.1,0.4-2.2,1.3-2.7C217.1,1448.2,217,1450.2,215.9,1451.4z M215.8,1444.3
			c0.3-2.3,0.7-4.7,1-7c-3.3,5.6-6.8,11-10.4,16.4c-1.8,2.6-4.9,5.6-7.6,4c-0.9-0.5-0.2-1.8,0.5-2.5c8.9-8.7,16.5-18.6,22.8-29.3
			c3.7-6.4,7.2-13.4,13.2-17.7c-5.5,10.1-11.2,20.1-17.1,30C219.1,1440.4,218,1443.2,215.8,1444.3z M220.3,1465.6
			c-0.4-1.4,0.4-3,1.8-3.5l0.1-0.6C223.8,1462.4,222,1464.8,220.3,1465.6z M232.5,1523.5c1.6-2.5,3.2-5.1,4.8-7.6
			C238.5,1519.1,236,1523.1,232.5,1523.5z M241,1398.6c-0.9,3.4-3,6.6-5.8,8.7c0.6-4.1,2.3-8.1,4.8-11.4
			C241.1,1396,241.3,1397.6,241,1398.6z M242.1,1394.5c-1-1.6,1.3-3.8,2.8-2.8c0.8,6.5,2.2,13.9,7.9,17c2.3-3.1,0.6-8.3-3.1-9.4
			c3.1-0.8,6.7,1.4,7.4,4.6c0.7,3.1-1.5,6.6-4.7,7.3c-0.4,0.1-0.9-0.1-1.3-0.3c-2.8-1.5-4.9-4.2-5.7-7.3
			C244.7,1400.5,244.9,1396.4,242.1,1394.5z M247,1386.6c1.1-2.8,2.9-5.3,5.2-7.2c0.5,1.4-0.1,3.2-1.3,4.1l0,0
			C250,1384.9,248.6,1386,247,1386.6z M260.3,1363.6c1,0.6-0.2,2.5-1.2,1.9l0.1-0.1C259.1,1364.6,259.6,1363.2,260.3,1363.6z
			 M260.1,1366.9c-1,4.2-3.4,8-6.7,10.9c-0.3-0.8,0-1.8,0.4-2.6C255.2,1372,257.4,1369.1,260.1,1366.9z M257.8,1476.8
			c-0.6,2.4-3.3,3.7-5.7,3.5c-2.4-0.2-4.6-1.5-6.6-2.9c1.9-1.5,4.8-1.4,6.7,0.1c1.1-0.3,2.1-1.2,2.4-2.4c-1.8-3.6-7.9-3.6-9.7,0
			c-1.5-2.8,0.8-6.5,3.9-7.1c3.1-0.6,6.3,1.4,8,4C257.6,1473.5,258.2,1475.2,257.8,1476.8z M261.2,1422.2c-1.1-0.3-2.1-1-2.6-2
			c-0.5-1-0.1-2.4,1-2.8l0.1,0.2C260.8,1418.8,261.3,1420.6,261.2,1422.2z M262.7,1388.9c-0.5,3.6-2,7.7-5.6,8.6
			c0.4-1,0.7-2.1,1.1-3.1c1.6-4.6,3.2-9.2,4.9-13.8C263.3,1383.3,263.1,1386.1,262.7,1388.9z M262.6,1349c0.3,2.2,0.2,5.2-1.9,5.5
			c-0.4-3.3-0.9-6.7-1.3-10c-0.1-0.7-0.4-1.5-1.1-1.5c-4.7,0.6-9.4,0.8-14.2,0.6c2.6-1.5,5.5-2.3,8.4-2.5c2.1-0.1,4.4,0.1,6.3-0.8
			s3.1-3.8,1.5-5.3c0.7-0.9,2-1.1,3-0.6C262.2,1339.2,261.9,1344.2,262.6,1349z M264.2,1266.5c0.4-0.6,1.3-0.7,1.8-0.2l0-0.1
			c-0.1,0.7-0.5,1.4-1.1,1.8C264.2,1268,263.8,1267.1,264.2,1266.5z M269.4,1368.2c0.5,0.1,0.8,0.6,0.9,1c0.1,0.5-0.2,1-0.4,1.4
			c-1.5,2.8-3.2,5.4-5.3,7.8C263.9,1374.5,265.9,1370.2,269.4,1368.2z M273.9,1450c-2.7-1.4-5-3.6-6.7-6.1c2.8-2.7,8-2.7,10.1,0.6
			c0.8,1.2,1,2.9,0.3,4.2C277,1449.9,275.3,1450.7,273.9,1450z M286.2,1517.3c-2.6,1.5-6.4,0.2-7.5-2.6c1.8,0.4,3.9,0.7,5.5-0.3
			c1.5-1.1,1.6-4-0.3-4.4c-3.1-0.7-6.5,0.5-8.6,2.9c-0.7-1.9,0.3-4.2,2.1-5.2c1.7-1.1,3.9-1.1,5.9-0.7c1.8,0.4,3.5,1.2,4.6,2.6
			C289.7,1511.9,288.8,1515.8,286.2,1517.3z M286.2,1471.2c0.6-0.4,1.3-0.8,1.9-1.2c0.6,1,0.5,2.5-0.5,3
			C286.6,1473.6,285.2,1471.9,286.2,1471.2L286.2,1471.2z M288.9,1432.6c-1-0.6,0.2-2.5,1.2-1.9l-0.1,0.1
			C290.1,1431.7,289.7,1433.1,288.9,1432.6z M291.6,1406.8l-0.2,0.1c-1.1-1-0.9-3.1,0.4-3.7C292.6,1404.3,292.5,1405.9,291.6,1406.8
			z M291.7,1401.6c-4.5-2-8-5.9-9.5-10.5c1.7,0.5,3.5,0.9,5.2,1.4c2.4,0.6,5.1,1.5,6.1,3.8C294.3,1398.2,293.5,1400.6,291.7,1401.6z
			 M294,1346.4c-0.6-1.5-0.2-3.3,0.9-4.5c0.8-0.3,1.2,1,1,1.8l0,0C296.4,1344.9,295.3,1346.4,294,1346.4z M301,1325.6
			c-0.5,3.5-1,7-1.6,10.5c-0.3,0.5-1,0.7-1.4,0.3C296.5,1332.7,297.8,1328.1,301,1325.6z M298.2,1448.1c0-1,0.3-2.2,1.3-2.5
			c0.9-0.2,1.8,0.6,1.9,1.6c0.1,0.9-0.3,1.8-0.6,2.7c-0.6,1.4-1.2,2.8-1.8,4.1C298.3,1452.1,298.1,1450.1,298.2,1448.1z
			 M300.9,1468.1c-0.5-1.2-0.5-3.2,0.8-3.2l0.1,0.1C302.2,1466.2,302.2,1468.2,300.9,1468.1z M303.8,1480.9
			c-0.8-0.7-1.4-1.7-1.4-2.8l-0.3-0.1C303.5,1477.5,305,1479.9,303.8,1480.9z M311.4,1390.7c-0.6-1.3-1.4-2.7-2.7-3.4
			c-1.4,9.3-1,19,1,28.2c0.3,1.4,0.3,3.4-1.1,3.5c-3.4-14.5-6.7-29.9-2.1-44c0.5-1.5,1.1-3.1,1.1-4.7c-0.1-13.8,3.6-27.7,10.6-39.7
			c1.6,0.1,2.4,2.2,1.9,3.7c-0.5,1.5-1.8,2.6-2.8,3.9c-3.1,3.8-3.5,9.1-3.8,14c-0.4,5.6-0.7,11.3-1.1,16.9c0.5,7.5,1,14.9,1.5,22.4
			c0.2,3,1.3,5.9,1.4,8.9s-1.2,6.5-4.1,7.4C313.8,1402.5,313.8,1396.1,311.4,1390.7z M316.6,1412.5c-2.1-0.7-2.5-4.1-0.7-5.3
			l-0.1,0.1C317.9,1408.1,318.4,1411.2,316.6,1412.5z M316.6,1413.9L316.6,1413.9c1,0,1.6,1.6,0.8,2.2
			C316.6,1415.8,316.2,1414.6,316.6,1413.9z M312.6,1434.3c-0.1-4.4,1.2-8.8,0.6-13.2c-0.2-1.3,0.5-3.3,1.6-2.6
			c0.1,5.5,0.2,11.1,0.3,16.6c0,1.6,0.7,3.9,2.3,3.7c1.1-0.1,1.7-1.3,1.9-2.4c0.7-2.7,0.4-5.6-0.7-8.2c-0.9-2-1.9-5,0-5.9
			c3.4,2.1,3.2,7.1,2.5,11c-0.7,3.7-1.3,7.5-2,11.2C314.9,1443.7,312.7,1438.7,312.6,1434.3z M325.8,1496.1l-0.6-0.5
			c0.5-1.5,2.9-1.9,3.9-0.6C328,1495.4,326.9,1495.7,325.8,1496.1z M330.8,1492.8c-1.9-1.7-3.8-3.4-5.7-5.2c-0.3-0.3-0.6-0.5-1-0.7
			c-1.4-0.5-2.7,1.2-2.4,2.6c0.3,1.4,1.5,2.4,2.6,3.3c-3.5,1.1-7.3-3.1-5.9-6.5c3.2-1.3,7.7-2.3,9.4,0.7c0.6,1.1,1.9,1.6,2.8,2.4
			C331.5,1490.5,331.9,1492.3,330.8,1492.8z M335.5,1461.2l0.1-0.1c-2.3-1.2-3.7-4-3.3-6.6c0.6-0.3,1.4,0,1.8,0.6
			c1.4,2.4,2.5,4.9,3.3,7.6C336.7,1462.2,336.1,1461.7,335.5,1461.2z M342.3,1470.9c-0.5,0.9-1.9,1.2-2.5,0.4
			c-0.6-2.3-1.1-4.6-1.7-7c1.5,1,3,2.1,3.9,3.7C342.6,1469,342.8,1470.1,342.3,1470.9z M344.7,1517c-0.2-1.1-0.4-2.3-0.7-3.4
			c-0.6-2.9,0.4-6.1,2.4-8.2C347.2,1509.3,346.6,1513.4,344.7,1517z M349.3,1387.2c-0.4,0.7-1.7,0-1.4-0.7l-0.2-0.2
			c0.4-0.4,0.8-0.8,1.1-1.1C349.4,1385.7,349.5,1386.5,349.3,1387.2z M351,1372.8c-1.5-1.2-2.5-3.2-2.4-5.1c0.8-0.8,2.2,0.4,2.3,1.5
			l0,0C351.8,1370.2,351.9,1371.8,351,1372.8z M352.7,1376.9c1.4,1.3,2.3,3,2.6,4.9c0.2,1.2-1,2.9-1.8,2c-0.5-0.4-0.6-1.2-0.4-1.8
			l0,0C353,1380.3,352.9,1378.6,352.7,1376.9z M353.8,1532.2L353.8,1532.2c-0.6-0.3-0.8-1.3-0.3-1.9c0.9,0.6,1.6,1.5,1.9,2.6
			C355,1533.6,353.7,1533,353.8,1532.2z M355,1500.2C355,1500.2,355,1500.2,355,1500.2L355,1500.2C355,1500.2,355,1500.2,355,1500.2
			c-0.8-0.3-1.3-1.1-1.2-1.9c0.2-0.8,1.2-1.4,1.9-0.9C356.4,1498.2,356,1499.7,355,1500.2z M351.4,1198.7c1.5-3.1,7-3,8.3,0.2
			C356.9,1199.2,354.1,1199.2,351.4,1198.7z M359.9,1482.7L359.9,1482.7c0.8-0.8,2.2,0.4,2.3,1.5
			C361.2,1484.8,359.7,1483.8,359.9,1482.7z M364.9,1394.5l0-0.2c1.1,0.5,1.4,2.3,0.5,3.2C364.3,1397,363.9,1395.2,364.9,1394.5z
			 M367.1,1402.6c0.1,1.1,0.2,2.3,0.3,3.4c-0.5,0.6-1.8,0.1-1.6-0.7l0.2-0.1C365.7,1404.1,366,1402.3,367.1,1402.6z M365.4,1127.8
			c-0.5-1.9,0.8-4.1,2.7-4.6l0,0.4C368.6,1125.4,367.2,1127.5,365.4,1127.8z M365.3,1411.2c1.1-0.2,2.3,0.6,2.7,1.7l0,0
			c0.7,2.2,1.4,4.3,2,6.5C367.2,1417.6,365.4,1414.4,365.3,1411.2z M373,1432.1c-1.1-0.4-1.8-1.6-1.8-2.7c0.6-0.5,1.9,0.1,1.4,0.7
			l0.1,0.1C373.3,1430.5,373.5,1431.5,373,1432.1z M380.8,1026.1c-0.9-0.8-2.4,0.1-2.8,1.2c-0.4,1.1-0.1,2.4,0,3.6
			c0.2,2.7-0.7,5.4-2.5,7.5c-2.3-4.9-2.3-10.8,0.1-15.6c0.6-1.3-1-2.5-2.3-2.8s-3.1-0.7-3.4-2.1c0.7-1.4,2.7-1.2,4.2-1.1
			s3.7-0.4,3.6-2c-0.2-4.6,0.6-9.3,2.3-13.6c2.3,6.8,1.9,14.5-1.2,21.1C380.4,1022.4,381.4,1024.5,380.8,1026.1z M371.7,1005.4
			c-0.1-5.1,0.9-10.2,2.9-14.9c0.4-1,1.3-2.1,2.3-1.7c-0.8,8.1-1.7,16.1-2.5,24.2C372.2,1011.3,371.7,1008.2,371.7,1005.4z
			 M384,998.2c0.8-1.4,1.9-3.4,0.7-4.5c-2,0.9-3.2,3.2-2.8,5.4c-0.8,0.4-1.9-0.2-2-1.1c-0.6-2.6-0.6-5.3,0.1-7.9
			c0.2-0.8,0.2-1.6,0.3-2.4c0-1.7,0.1-3.3,0.1-5c0-1.5,0-3.1-0.8-4.2c-0.9-1.2-3-1.5-3.7-0.2c-1.4,2.6-7,0.3-7.6,3.2
			c-0.4,2,2.4,2.9,4.4,2.9c0.6,1-1.1,1.6-2.3,1.8c-2.7,0.3-4.9,2.5-6,5s-1.3,5.3-1.5,8c-1.8-3.7-2.8-7.8-2.7-11.9
			c0.7,0.7,1.3,1.5,2,2.2c0.6-1.8,1.2-3.7,1.8-5.5c0.6,0.5,1.1,1.1,1.7,1.6c1,0.1,1.7-1,1.7-1.9c0-1-0.6-1.8-1.1-2.6
			c-1.7,0-4.2-1.1-3.4-2.6c0.2-0.3,0.4-0.5,0.7-0.7c1.8-1.4,3.5-2.8,5.3-4.2c-0.2,1.5,0.5,3.1,1.7,4c1.9-4.2,8.9-4.6,9.8-9.1
			c0.4-2-0.6-4.4,0.9-5.8c2,2.2,5.1,3.3,8,2.9c1.7-0.2,3.6-0.9,4.9,0c-1.6,3.4-6.4,4.8-9.6,2.8c-1.1,3.1-1.4,6.4-0.9,9.7
			c0.9-1,1.8-2,2.8-3c0.7,2.6,1,5.4,0.8,8.1c-0.1,1.1-0.6,2.5-1.7,2.4c-0.7-0.1-1.1-0.7-1.7-1.1c-0.6-0.4-1.7-0.1-1.5,0.6
			c3.8,2.3,6.4,6.6,6.6,11.1c0.1,2.5-1.1,5.6-3.6,5.9C383.5,1002.3,383.2,999.6,384,998.2z M391.8,1015.3c0-2.1-0.2-4.3,0.5-6.3
			c0.7-2,2.4-3.8,4.5-3.8c-1.2,3.7-2.3,8.2,0.2,11.3c1.1,1.4,2.8,3.2,1.6,4.4c-1.2-0.8-2.9,0-3.5,1.3s-0.5,2.8-0.4,4.2
			c2.3-0.7,4.1-2.5,5-4.7c0.1,3.2,1.2,6.3,3.2,8.8c0.6,0.8,1.3,1.5,1.9,2.2c-1.2,0.6-2.3,1.3-3.5,1.9c0.2-1.5-1.2-2.9-2.7-3.3
			c-1.5-0.4-3.1,0-4.6,0.4c-0.9,0.2-1.7,0.4-2.6,0.6c1.2,2.4,1,5.5-0.5,7.8c-2.4-1.3-1.9-4.7-1.2-7.3
			C391.3,1027.1,392,1021.2,391.8,1015.3z M406.9,982.8c-0.2,1.5-0.8,3.1-2.2,3.9c-1.3,0.8-3.4,0.4-3.9-1c-0.1,1.9-1,3.7-2.4,5
			c-1.9,0.9-3.9-1.7-3.4-3.8s2.5-3.4,4.3-4.4c1.8-1.1,3.8-2.2,4.5-4.2c-0.1,0-0.1,0-0.2,0c-0.1,0-0.2,0-0.3,0.1c0,0,0-0.1,0-0.1
			c-2.9,0-5.7,1.1-7.9,3c-0.9,0-1.3-1.2-0.9-2c0.4-0.8,1.2-1.3,1.9-1.7c2.4-1.3,4.8-2.6,7.2-3.9c0.7,1.4,0.5,3.2-0.3,4.6
			c0.1,0,0.1,0,0.2,0C405.7,977.6,407.2,980.6,406.9,982.8z M404.2,1016.9c-0.3-2.1,0.3-4.2,1.7-5.8c0.1,3.1,0.3,6.2,0.4,9.3
			C404.9,1019.9,403.9,1018.3,404.2,1016.9L404.2,1016.9z M405,1004.9c-0.5,1.1,0.6,2.2,1.5,3c-0.5,0.6-1.6,0.3-1.8-0.4l-0.1,0
			c-0.5-1-1-2-1.5-3C403.7,1004.4,404.4,1004.5,405,1004.9z M403.9,994.1c1.1,0.5,1.4,2,0.7,2.9l0,0.1
			C403.4,996.7,403,995,403.9,994.1z M411.9,1136.5c1,1.5,1.9,3.6,0.7,5c-5.6-7.5-10.4-15.5-14.6-23.9c-0.4-0.9-0.5-2.4,0.5-2.4
			C402.9,1122.3,407.4,1129.4,411.9,1136.5z M389.6,1041.3c1.7,2.2,1.6,5.5-0.2,7.7c-1.4-2.2-1.6-5.1-0.4-7.4L389.6,1041.3z
			 M387.7,1126.5c-1,0.8-2.7,0.5-3.3-0.6l0.2-0.2C385.8,1125.3,387.8,1125.3,387.7,1126.5z M388.6,1459.6c-1.9-3-3.3-6.2-4.4-9.5
			C387.6,1451.8,389.5,1455.9,388.6,1459.6z M389.3,1068.8c0.2-3.2-1-6.2-1.8-9.3s-0.7-6.7,1.5-9c1.1-0.6,1.3,1.5,1.9,2.6
			c1.4,2.5,5.8-1.3,8,0.6c-0.2,2.5-2,4.8-4.4,5.5c0.1-1,0-2-0.4-2.9c-0.8-0.6-2,0.1-2.3,1c-0.4,0.9-0.1,1.9,0,2.9
			c0.4,3,0.2,6-0.6,8.9C390.5,1069.1,389.9,1068.9,389.3,1068.8z M397.8,1471c-1.2-1.1-2.1-2.6-2.6-4.2c1.2,0.4,2.3,1.2,3,2.3
			l0.1-0.1C398.8,1469.6,398.5,1470.7,397.8,1471z M391.8,1183.4c6.6-3.5,13.2-6.8,20.1-9.8c1-0.5,2.6-0.7,3,0.3
			C408.6,1179.8,400.2,1183.2,391.8,1183.4z M415.9,1074.4c-0.8-0.7-1.2-1.7-1.3-2.8c-0.3-2.1,0.4-4.2,1.8-5.7
			C418,1068.4,417.8,1072.1,415.9,1074.4z M417.7,969.7c-1.4-1-3.9,0.8-2.8,2.1c1.9,2.2,1.2,6.2-1.3,7.6c2,0.7,2.3,3.3,2.4,5.4
			c0,3.7-0.4,8.1-3.7,9.7c1.6,3.2,2,7,0.9,10.5c-2.1-6.9-2.7-14.2-1.6-21.4c0.2-1.6-0.2-3.1-0.5-4.7c-1.3-6.3-1.6-12.8-0.6-19.1
			c-1.6-0.9-3.8-1.7-5.1-0.4c-1.2,1.2-0.7,3.2-0.8,4.9c-0.2,4.7-5.2,7.4-9.5,9.2c-2.9,1.2-6.7,2.2-8.8-0.1c1.2-2.1,4-2.3,6.4-2.8
			c2.4-0.4,5.2-2.1,4.7-4.4c-0.7-3.4,1.3-6.7,3.7-9.1c2.4-2.5,5.3-4.5,7-7.4c1.5,2.4,0.3,6-2.4,7c1.9,0.3,3.7,0.7,5.6,1
			c1.3-11.2,1.3-22.6-0.1-33.8c1.2-2,2.8-4.2,5.1-4.4c-1.5,9.9-1.8,20-0.9,30.1c0.3,3.2-1,6.3-1.4,9.5c-0.3,3.2,0.8,7.1,3.9,7.9
			c0.8-4.2,1.6-8.5,2.4-12.7c-1-4.5-1.5-9.2-1.4-13.8c0.5-0.6,1-1.3,1.5-1.9c2.9,3.1,3.1,7.7,3.1,12c0,9.4,0,18.8,0,28.1
			c0,5.5,0.1,11.2,2.3,16.3c1,2.3,1.8,6-0.7,6.5c-3.6-8.5-5.6-17.7-5.8-26.9C419.2,972.6,419.1,970.7,417.7,969.7z M425.9,1009.3
			c-0.4,0.7-1.7,0-1.4-0.7l-0.2-0.2c0.4-0.4,0.8-0.8,1.1-1.1C426,1007.8,426.2,1008.6,425.9,1009.3z M428.2,1032
			c-0.8,0.4-1.9,0-2.2-0.8l0.1,0.1c-0.1-0.6,0.8-1.1,1.3-0.8C428.1,1030.6,428.3,1031.3,428.2,1032z M441.1,1077.8l-0.1-0.1
			c-1.2,0.8-2.5,1.5-3.7,2.3c1.2-3.2,3.7-5.8,6.8-7.2C443.1,1074.5,442.1,1076.1,441.1,1077.8z M444.4,976.6l0,0.1
			c-0.7-0.9,1.3-2.1,1.8-1.1C446.6,976.4,445.2,976.8,444.4,976.6z M452.1,975.2c-0.4-2.9-2-5.6-4.3-7.5c1.1-2.9-4-6.5-1.7-8.6
			c2.3,4.3,4.5,8.6,6.8,12.9C453.6,973.3,453.5,975.6,452.1,975.2z M453.7,952.1c-3.3-1.5-5.1-5.9-3.6-9.3c1.4,0.1,2.6,1.3,3.2,2.6
			C454.2,947.5,454.4,949.9,453.7,952.1z M458.7,989.8c-1.6-1.8-3-3.8-4.1-6l-0.2-0.7C457.7,982.3,460.8,987,458.7,989.8z
			 M474.5,877.5c-1,0-1.5-1.5-0.8-2.1c0,0,0,0-0.1,0l0.1,0c0,0,0,0,0,0C474.5,875.7,475,876.8,474.5,877.5z M482.3,1112.3
			c0,2-0.5,4.1-1.6,5.8c-1.1-2.5-1-5.5,0.4-7.9c0.5,0.6,1,1.2,1.5,1.8L482.3,1112.3z M492.3,1080.5c-0.6-0.8-0.4-2.2,0.6-2.4l0,0.6
			c1.3,0.5,2.1,1.8,2.1,3.1C493.9,1081.5,492.9,1081.3,492.3,1080.5z M494.6,957c1.6,2.8,3.2,5.5,4.8,8.3
			C496.1,964.2,493.9,960.5,494.6,957z M508.9,286.9c0.5-0.7,1.8-0.7,2.3,0c-4,3.8-7.1,8.5-9,13.7c2.1-8.8,5.7-17.2,9.1-25.6
			c1.4,1.4,3.1,2.6,4.9,3.5c-2.8,2.2-5.6,4.3-8.5,6.5C507.9,285.7,508.3,286.4,508.9,286.9z M860.4,1222.2l0.5-0.2
			c-0.5,2.5-1.3,4.9-2.5,7.2C857.4,1226.8,858.3,1223.7,860.4,1222.2z M860.6,1233.6l0,0.1c-1.2-0.4-1.6-2.2-0.7-3.1
			C860.9,1231.2,861.3,1232.7,860.6,1233.6z M859.4,1205.5c0.9-1.8,2.1-3.4,3.5-4.9l0.4,0.2C864.9,1203.1,861.9,1206.7,859.4,1205.5
			z M868.1,1240.6c-2.1-2.5-2.8-6.2-1.7-9.3c1-0.3,1.9,0.8,2.2,1.8C869.4,1235.5,869.2,1238.3,868.1,1240.6z M877.8,1208L877.8,1208
			c-1.5,0.2-2.2-2.3-1.1-3.4c1.1-1.1,2.9-1.1,4.5-0.9C880.7,1205.5,879.4,1207.1,877.8,1208z M882.3,1175.7
			C882.4,1175.7,882.4,1175.8,882.3,1175.7L882.3,1175.7C882.3,1175.7,882.3,1175.7,882.3,1175.7c-1.4-1-1.4-3.5,0-4.5
			C883.9,1172.3,883.8,1174.8,882.3,1175.7z M883.2,1132.2c-0.9-0.6-1.8-1.3-2.1-2.4c-0.3-1,0.7-2.4,1.7-2l-0.2,0.4
			C884,1128.9,884.4,1131.1,883.2,1132.2z M888.6,1126.9l0.4,0.9c1.1,1.1,1.5,2.7,1,4.2C887.9,1131.5,887,1128.3,888.6,1126.9z
			 M890.2,1169.7c0,0.9-0.9,1.7-1.8,1.5l-0.1,0.1c-0.5-0.9-0.5-2.1,0-3C889.2,1168.1,890.2,1168.9,890.2,1169.7z M886.5,1160.4
			l0.2,0c-0.5-0.3,0.3-1.1,0.8-0.8c0.5,0.3,0.6,0.9,0.6,1.5C887.5,1161.7,886.3,1161.1,886.5,1160.4z M885.9,1184.3
			c0.3-1.9,0.6-3.9,1.7-5.4s3.4-2.4,5-1.4c-0.8,1-2,1.6-3.3,1.6c1.4,3.1,0.4,7.2-2.3,9.3C885.7,1187.8,885.7,1185.8,885.9,1184.3z
			 M886.5,1194.4c1.3,2.3,1.6,5.2,0.7,7.8c-0.6-0.5-1.2-1.1-1.8-1.6l-0.1,0C885.3,1198.5,885.7,1196.3,886.5,1194.4z M881.7,1097
			l0-0.1c1.2,0.8,1.1,2.9-0.1,3.7C880.2,1099.8,880.3,1097.5,881.7,1097z M877.2,1111.5c0.7-0.1,1.2,0.5,1.6,1
			c2.3,2.9,4.1,6.2,5.4,9.7c-4-1.8-7-5.7-7.9-10C876.4,1111.8,876.8,1111.5,877.2,1111.5z M876.1,1148.3c0.9,0.2,1.7,0.8,2.1,1.6
			l-0.1,0.2c0.9,0.8,1.1,2.3,0.5,3.4C876.7,1152.6,875.6,1150.3,876.1,1148.3z M874,1187c1.6-0.3,3.4,0.5,4.2,1.9
			c-0.2,1-0.9,2.1-1.8,1.8l0-0.4C874.7,1190.5,873.3,1188.5,874,1187z M869.5,1201.3L869.5,1201.3c1,0,1.6,1.6,0.8,2.2
			C869.5,1203.2,869.1,1202,869.5,1201.3z M869.2,1207.7L869.2,1207.7c0.6-0.9,1.2-1.8,1.9-2.7c0.8,1.8,0.1,4.1-1.5,5.2
			C868.5,1209.9,868.3,1208.2,869.2,1207.7z M865,1217.2c0.5-0.7,1.8-0.7,2,0.1l0.3-0.3c1.1,0.1,2.2,0.2,3.3,0.4
			c-0.3,2.6-3.9,4-5.9,2.3C864.6,1218.8,864.5,1217.9,865,1217.2z M860.6,1113.3c1.3,0.5,2.5,1.5,3.3,2.8c0.4,1.1-1.8,1.9-2.1,0.7
			l0-0.2C860.5,1116.2,859.8,1114.5,860.6,1113.3z M859,1056.9c0.5,0.5,0.5,1.4,0.4,2.1c-1,0.5-2.4-0.5-2.2-1.6l0.2,0
			C857.3,1056.7,858.5,1056.4,859,1056.9z M855.2,1053.2l0.1,0.2c1.1-0.3,2.1,1.2,1.5,2.1C855.6,1056.3,854,1054,855.2,1053.2z
			 M824.5,1307l-0.4-0.1c-1.5,0.8-3.7,0.1-4.4-1.6c0.4-1.3,2-2,3.2-1.6C824.3,1304.2,825,1305.8,824.5,1307z M895.7,1481.6
			c1.2,2.4,2.7,4.6,4.6,6.4c-2.3,1.9-6.3-1-5.3-3.8l-0.2-0.1C893.6,1483.8,894.4,1481.6,895.7,1481.6z M862.3,1412.2
			c3.1,5.4,6.2,10.9,9.3,16.3c-3.6,0.1-5.8-3.8-7.3-7.1c-1.4-3.2-2.7-6.4-4.1-9.6C860.9,1411.4,861.9,1411.5,862.3,1412.2z
			 M847.1,1383.9c1.4,1.8,2.7,3.6,4.1,5.5c0.2,0.3,0.4,0.5,0.4,0.9c0,1-1.8,1.9-1.1,2.6c3.5,3.5,5.5,8.4,5.3,13.3
			c-3.3-4.8-5.9-10-8.6-15.2C846.2,1388.7,845.2,1385.5,847.1,1383.9z M840.9,1377.8c0.9-0.2,1.6,1,1.2,1.8l0.1,0
			c0.4,1.1,0.7,2.3,1.1,3.4C841.4,1382.3,840.3,1379.9,840.9,1377.8z M832.3,1326.3l0,0.3c0.8,0.3,1.1,1.4,0.7,2
			c-0.5,0.7-1.6,0.7-2.1,0.1C831,1327.7,831.5,1326.8,832.3,1326.3z M834.4,1365.4c0.7,1.4,2.9,0.9,4.4,0.3c1.5-0.6,3.9-0.3,3.8,1.3
			c-4.1,2.5-10.3,0-11.5-4.6c-0.7-2.5-3-4.2-4.7-6.2c-1.7-2-2.4-5.5-0.2-6.9C828.9,1354.6,831.7,1360,834.4,1365.4z M838.5,1281.3
			L838.5,1281.3c0.2,1.8-1.1,3.7-2.8,4.3c-0.4-2.6,0.2-5.4,1.5-7.6C838.8,1277.8,839.8,1280.4,838.5,1281.3z M850.1,1237.3
			c-0.8-0.8,0.4-2.1,1.5-2.2l0,0.1C852.6,1236,851.2,1238,850.1,1237.3z M849.7,1119.5c0.6,0,1.1,0.6,1.5,1.1
			c-0.6,0.3-1.2,0.4-1.9,0.3l0.1-0.1C848.8,1120.7,849.1,1119.5,849.7,1119.5z M847.7,1245.7l0.1,0.1c2.2-0.8,4.8,0.9,5.1,3.1
			c-2.5-0.6-4.9-1.3-7.3-2.3C845.8,1245.8,846.9,1245.3,847.7,1245.7z M843,1235.4l-0.1,0.2c0.4,1.2-0.6,2.6-1.8,2.7
			C840,1237,841.5,1234.8,843,1235.4z M839,1241l-0.1,0.7c1.3,1.8-0.4,4.8-2.6,4.6C835.6,1244.2,836.9,1241.7,839,1241z M835,1197.4
			c1,1.1,0.1,3.2-1.4,3.2c-0.4-0.6-0.5-1.3-0.3-1.9l-0.1-0.1C833.7,1198.2,834.3,1197.8,835,1197.4z M834,1255.8
			c2.8,2.2,3.5,6.5,1.7,9.6c-0.8,1.4,0.4,3.1,1.3,4.5s1.1,3.8-0.5,4.1c-0.7,0.2-1.4-0.2-1.8-0.8c1.3-1.3,0.1-3.4-0.7-4.9
			C832,1264.4,832,1259.6,834,1255.8z M830.3,1281.4L830.3,1281.4c0.5-1.5,1.4-2.8,2.6-3.7c0.2,2.5-0.3,5-1.4,7.1
			C830.3,1284.1,829.8,1282.6,830.3,1281.4z M829.7,1267.8c1.1,2.9-0.3,6.5-3.1,7.9C826.8,1272.9,827.9,1270.1,829.7,1267.8z
			 M827.2,1340.7L827.2,1340.7c0,2.4,0.1,4.8,0.1,7.3c-1.7-2.6-2.5-5.7-2.3-8.8C825.8,1338.4,827,1339.6,827.2,1340.7z M825.5,1280
			c-0.7,3-2.3,5.9-4.6,8.1C819.8,1284.7,822.1,1280.7,825.5,1280z M819.6,1221.2c0.5-0.5,1.5-0.1,1.6,0.6c0.2,0.7-0.2,1.4-0.5,2.1
			c-1-0.2-1.5-1.7-0.9-2.5L819.6,1221.2z M820.1,1340.9l-0.1,0.3c0.9,0.2,1.3,1.4,0.8,2.2c-0.6-0.2-1.3-0.5-1.5-1.1
			C819,1341.6,819.5,1340.7,820.1,1340.9z M604.9,977.2l0.4,0.2c0.5,1.7,0.4,3.6-0.1,5.3C603.7,981.3,603.5,978.7,604.9,977.2z
			 M697.6,517.9c3.4-0.4,6.8,0.3,9.8,1.8c-2.4,3.1-4.8,6.2-7.2,9.2c-0.4,0.5-1.2,0.9-1.4,0.4c0-3.2-1.4-6.4-3.6-8.6
			C694.2,519.6,696.1,518.1,697.6,517.9z M671.4,527.8c0-1.6,2.2-2.8,3.6-1.9c1.4,0.9,1.2,3.3-0.3,4c-1.5,0.7-3.5-0.7-3.4-2.3
			L671.4,527.8z M697.6,496.7c0.5,0.7,0,1.9-0.8,2.1l0.1,0.2c-1.1,1.1-3.3,0.9-4.2-0.4C693.7,497,695.8,496.2,697.6,496.7z
			 M658.6,476.2l-0.1,0.2c0.6,0.4,1.3,0.8,1.9,1.2c-0.7,0.3-1.5,0.5-2.1,0.2C657.6,477.3,657.8,476,658.6,476.2z M617.4,509.5
			c2.6,3.4,4.9,7.1,6.8,10.9c-0.1,0.8-1.3,0.6-2,0.2c-2.1-1.4-4.2-2.7-6.3-4.1c-0.6-0.4-1.2-0.8-1.6-1.4
			C613.1,513.1,615.4,510.8,617.4,509.5z M577.4,363.8c-1.1,0.1-2.1-1.4-1.5-2.3c0.7,0,1.5,0,2.2,0l0.2-0.2
			C579.1,362,578.5,363.7,577.4,363.8z M608.2,157c-0.8-0.6-0.3-2.2,0.7-2.2l-0.1,0.1C609.7,155.4,609.2,157.1,608.2,157z
			 M638.5,153.1l-0.3,0.1c-1.6,0.5-3.2,1-4.8,1.5C634.6,153.2,637,151.8,638.5,153.1z M634.8,140.2
			C634.8,140.2,634.8,140.2,634.8,140.2L634.8,140.2C634.8,140.2,634.8,140.2,634.8,140.2c0.8,0.6-0.1,2-1.1,1.9
			C632.9,141.5,633.8,140.1,634.8,140.2z M628.3,301.8l0.1,0.3c-0.1,1.1-1.4,1.9-2.4,1.4c-0.2-2,0.8-4.1,2.6-5.2
			C629.6,299.2,629.5,301.1,628.3,301.8z M633.1,239.1c2.1-1.3,4.6-1.8,7-1.5l0.1,0.4C638.4,239.8,635.4,240.2,633.1,239.1z
			 M640.4,144.4c-0.5-1.7-0.5-3.6,0.1-5.3c1.1-0.2,1.3,1.5,1.1,2.6l0.1,0.1C642.9,142.1,641.7,144.3,640.4,144.4z M643.6,200.6
			c-1.1,0.2-2.2-1.2-1.6-2.2c0.6,0.1,1.3,0.2,1.9,0.3l0.1,0.2C643.8,199.4,643.7,200,643.6,200.6z M645.2,190.3l-0.3,0
			c-0.8-1.5,0-3.5,1.6-4.1c1.6-0.5,3.5,0.6,3.7,2.3C648.3,188.3,646.4,189,645.2,190.3z M822.2,72.1l0.1,0.2c0.9-0.2,2.3,0.3,1.8,1
			C823.5,74.3,821.5,73.1,822.2,72.1z M818.5,32.4c0.6,0.8,0.2,2.6-0.8,2.2l0-0.1c-1.2,0.2-2.3,0.4-3.5,0.6
			C814.8,33.4,816.7,32.2,818.5,32.4z M785.5,113c-1.1-1.5-2.3-3-3.4-4.4l0.2-0.3c-2-2.1-4.1-5.6-1.8-7.5
			C783.3,104.3,785.1,108.6,785.5,113z M776.4,95.4c1.6-0.1,3.1,1.2,3.2,2.8c-0.5,0.4-1,0.8-1.6,1.3l-0.1-0.4
			c-0.9-0.3-1.8-0.6-2.7-1C775.7,97.2,776.1,96.3,776.4,95.4z M782.3,203c-1.7,1-4.1,0.7-5.5-0.6c0.3-0.4,0.6-0.8,0.9-1.2l0.3,0.7
			C779.5,201.8,781.1,202.2,782.3,203z M739.9,116.5c-0.6,1.1-2,1.8-3.3,1.5l0-0.1c-2-0.7-3.8-1.9-5.2-3.4
			C734.4,114,737.5,114.7,739.9,116.5z M739,188.7l-0.1-0.3c-1,0.1-1.9-1-1.6-2C738.4,186.2,739.5,187.6,739,188.7z M737.4,145.7
			L737.4,145.7c-0.2,0.7-1.4,0.3-1.1-0.3c0.6-0.3,1.3-0.7,1.9-1C738.7,145,738,146.2,737.4,145.7z M738.1,160.9
			c0.2,0.2,0.3,0.6,0.2,0.9c-0.2,0.5-0.8,0.7-1.4,0.7c-2.4,0.2-4.8-0.1-7.1-1C732.5,160.7,735.4,160.5,738.1,160.9z M726.1,183.5
			c3,0.1,6,1.3,8.3,3.4c-2.3-0.3-4.5-0.7-6.8-1l0-0.3C726.6,185.8,725.5,184.5,726.1,183.5z M724.3,159.7L724.3,159.7
			c0-0.7,0.5-1.4,1.1-1.8c0.7,0.2,1,1,0.7,1.6C725.7,160.1,724.7,160.2,724.3,159.7z M729.4,106.4
			C729.5,106.4,729.5,106.4,729.4,106.4L729.4,106.4C729.4,106.4,729.4,106.4,729.4,106.4c-0.8,1.2-2.7,1.5-3.8,0.6
			C726.4,105.8,728.3,105.5,729.4,106.4z M723.3,126.2c0.4,0.7-0.8,1.3-1.7,1.3c-2.5,0-5.1,0-7.6-0.1
			C716.1,124.6,720.6,124,723.3,126.2z M707,146.1c0.4-0.4,1-0.5,1.6-0.6c4.4-0.5,8.8-0.8,13.2-1.2c1.8-0.1,4.2,0,4.8,1.8
			c-4.3,2.2-9.9-0.9-14.3,1.1c-1.2,0.5-2.2,1.4-3.5,1.4C707.4,148.6,706.1,147,707,146.1z M704.5,144.8c-2.4,0.2-4.7-0.2-6.9-1
			l0-0.3c-0.7,0.4-1.4-0.9-0.7-1.3C699.6,141.6,702.6,142.6,704.5,144.8z M697.9,147.4c0,1-1.2,1.9-2.1,1.5l-0.2,0.2
			c-1.9,1-4.5,0.8-6.2-0.5C692.3,148.2,695.1,147.8,697.9,147.4z M698,131.3c-0.1,0.7-0.8,1.2-1.5,1.2l-0.1,0.1
			c-1.4,0.8-3,1.1-4.6,1C692.4,131.1,695.9,129.8,698,131.3z M690.8,45.2L690.8,45.2c0.9,0.3,0.9,1.8,0,2.1c-0.5-0.3-1-0.7-1-1.3
			C689.7,45.5,690.3,44.9,690.8,45.2z M689,137.9c0-0.7,0.5-1.4,1.1-1.7c1.3,0.3,2.3,1.2,2.8,2.5C691.6,139.5,689.8,139.1,689,137.9
			L689,137.9z M662.6,244.9c-1.3-1.4-2.7-2.7-4-4.1c4.4,0.1,8.5,3.6,9.3,8C665.8,248.1,664.2,246.5,662.6,244.9z M667.2,266.3
			l-0.2,0.2c-0.7-0.8,1.1-1.8,1.5-0.9C668.9,266.3,667.6,267,667.2,266.3z M682.4,252.9c-0.4,0.4-1.1,0.3-1.6,0.1
			c-2.3-0.9-4.1-3-4.6-5.4c1.8,1.3,3.7,2.7,5.5,4l0,0.4C682.1,251.6,682.8,252.5,682.4,252.9z M678.8,185.7L678.8,185.7
			c0.4-0.7,1.4-0.9,2-0.4c-0.3,1.6-2.5,2.5-3.8,1.4C676.7,185.9,678,185.5,678.8,185.7z M690.7,258.6c0-1.3-1.7-1.9-3-2.1
			c-1.3-0.3-2.9-1.4-2.2-2.6c1.2,0.1,2.3,0.2,3.5,0.3l-0.1,0.4C690.5,255,691.5,257.2,690.7,258.6z M691.7,186
			c-0.3,0.2-0.7,0.1-1,0.1c-2.1-0.3-4.3-0.5-6.4-0.8c0.6-2.1,3.4-2.2,5.6-1.8c0.7,0.1,1.5,0.3,2,0.8
			C692.3,184.7,692.4,185.7,691.7,186z M694,166.3c-2.5-1-5.3,0-7.8,1c-3.7,1.5-7.4,3-11.1,4.5c-1.5,0.6-3.3,1.2-4.7,0.3
			c1.7-3.3,5.4-5,9-5.8c3.6-0.8,7.4-0.8,10.9-1.7c4.7-1.1,9.9,1.6,11.7,6.1C699,171.1,696.9,167.4,694,166.3z M708.1,281.7
			c-0.6-0.5,0.1-1.9,0.7-1.4l0.2-0.2c0.4,0.4,0.8,0.8,1.1,1.1C709.6,281.8,708.8,282,708.1,281.7z M704.2,179
			c0.1-1.3,1.4-2.4,2.7-2.3c0.7,0.1,1.3,0.4,1.9,0.8c2.5,1.4,4.9,2.8,7.4,4.2C712,182.3,707.6,181.3,704.2,179z M716.8,187.9
			c-0.7-0.5-0.9-1.6-0.4-2.3c0.9,0.2,1.7,0.8,2.1,1.6l0.5,0.2C718.6,188.1,717.5,188.4,716.8,187.9z M719.3,168.8
			c-1,0.2-1.9-1-1.5-2c1.3,0.3,2.5,1,3.5,1.9c-0.5,0.4-1.3,0.5-1.9,0.4L719.3,168.8z M722.5,220c-0.8-0.3-1.5-0.5-2.3-0.8l-0.5,0.3
			c-0.1-0.9,0.8-1.8,1.7-1.7S722.9,219.2,722.5,220z M718.6,161.2c-6.4-2.8-13.3-4.3-20.3-4.3c-0.6-0.5-0.6-1.5,0.1-1.9
			c3.8-1.4,8,0.4,11.8,1.6c4.1,1.3,8.5,2,12.8,1.9C722.9,160.5,720.5,162,718.6,161.2z M724.1,188.2c0.9-0.1,1.8-0.2,2.6,0.3
			c0.8,0.5,1.1,1.7,0.4,2.2l-0.2-0.7C725.7,190,724.5,189.3,724.1,188.2z M725.8,226.6c-0.6-1.2,1.6-1.8,2.9-1.3
			c2.5,1,4.6,2.8,6.1,5C731.5,230.4,728.1,229,725.8,226.6z M735.1,243.5c-0.8,0.2-1.7-0.7-1.5-1.5l0,0
			C734.4,241.1,736,242.7,735.1,243.5z M728.8,203.9c1.1-0.4,2.3,0,3.2,0.5c2.2,1.3,3.9,3.6,4.4,6.2
			C733.5,209,730.8,206.7,728.8,203.9z M728.6,191.2c4.5-0.6,9.2,0.9,12.6,4C736.8,195.1,732.4,193.7,728.6,191.2z M739.8,123.4
			c2.7-1.3,5.7-2,8.6-2C746.4,123.8,742.7,124.7,739.8,123.4z M753.3,151.1c-0.4,0.4-1.1,0.2-1.6,0c-2.9-1.4-5.6-3.1-8-5.2
			c3.3,0.6,6.4,2,8.9,4.1C753.2,149.9,753.7,150.7,753.3,151.1z M757.1,157.7l-0.3,0.3c-0.7-0.5,0.2-1.7,1.1-1.5
			c0.8,0.2,1.3,1.1,1.7,1.9C758.8,158.6,757.7,158.4,757.1,157.7z M773.4,118.8c-0.5-0.6,0.1-1.9,0.7-1.4l0-0.1
			c0.9-1.3,3.5-0.5,3.4,1.1C776.2,118.8,774.8,118.9,773.4,118.8z M776.7,309.4c1.9-0.6,3.9-0.8,5.8-0.5l0,0.1
			c1.1-0.3,2.7-0.1,2.6,1C782.3,310.9,779.2,310.6,776.7,309.4z M790.4,120.1c-0.4,0.4-1.1,0.2-1.7,0.1c-2.3-0.6-4.6-1.5-6.7-2.5
			c2.2-0.7,4.6-0.8,6.8-0.2C790,117.9,791.3,119.3,790.4,120.1z M808,122.5l0,0.2c-0.6-0.1-1.2-0.3-1.9-0.4c0.5-0.9,1.6-1.5,2.6-1.2
			C809.3,121.6,808.6,122.9,808,122.5z M803,115.3c1.7-1.3,4.1-1.5,6.1-0.6l0,0.1c2.1,0.3,4.1,1.2,5.6,2.6
			C810.8,118.3,806.4,117.6,803,115.3z M812.6,308l0.3-0.4c1.8-0.2,3.5-0.4,5.3-0.6C817.2,309,814.2,309.5,812.6,308z M815.4,156.3
			L815.4,156.3c1,0.6,2,1,3,1.5C817.5,159.3,814.8,157.9,815.4,156.3z M819.3,124.3c-1.4-0.4-2.8-0.9-4.1-1.3
			c-0.2-1.1,1.5-1.3,2.6-1l0.1,0.2C818.9,121.9,819.8,123.3,819.3,124.3z M824.7,183.4l-0.1-0.2c-1.1,0-2.2-0.7-2.8-1.7
			C822.9,180.4,825.2,181.9,824.7,183.4z M866.2,306.1c-1.2,0.9-3.1,0.6-3.9-0.6c1.5-0.6,3.7-0.9,4.2,0.6L866.2,306.1z M965,19.6
			L965,19.6c-0.2-1.2,2.2-1.6,2.4-0.4C967.3,20.3,965.5,20.6,965,19.6z M981.8,22.6c2-2.3,6.3-1.7,7.7,1
			C987.1,24.8,983.9,24.4,981.8,22.6z M923.4,497.5c-0.7,1-2.2,0.9-3.2,0.3c-1-0.7-1.6-1.8-2.1-2.9l-0.2-0.6
			c1.4-0.4,2.8-0.7,4.2-0.2C923.3,494.7,924.3,496.4,923.4,497.5z M968.8,508.7c-1.1,0.2-2.1-1.3-1.6-2.3l0.1,0
			C968.4,506.3,969.4,507.7,968.8,508.7z M980.3,471.4c-0.7,1.2-2.2,2.1-3.4,1.6c-1.3-0.6-1.2-2.9,0.2-3.1c1.2,0.2,2.5,0.6,3.6,1.1
			L980.3,471.4z M986,474.8l0,0.1c-1.8,0-3.6-1.2-4.2-3c2,0.6,4,1.2,6,1.9C988.1,474.6,986.8,475,986,474.8z M1036.1,468.6
			c-2.1,1.1-4.4,1.6-6.7,1.5c0.4-1.8,2-4.1,3.5-3l-0.3,0.5C1033.7,467.9,1034.9,468.3,1036.1,468.6z M1029.9,450.1
			c1-0.2,1.9,0.5,2.5,1.3c-0.9,0.4-1.7,0.8-2.6,1.2l-0.2-0.4C1028.6,452,1028.9,450.3,1029.9,450.1z M1031.8,460.1l-0.3,0.2
			c-1.3,0.5-2.5,1.1-3.8,1.6C1027.5,459.8,1030.8,458.3,1031.8,460.1z M1019.1,457.5C1019.1,457.5,1019.1,457.5,1019.1,457.5
			L1019.1,457.5C1019.1,457.5,1019.1,457.5,1019.1,457.5c-0.9-0.3-0.9-1.8,0-2.1C1020,455.7,1019.9,457.2,1019.1,457.5z
			 M1026.6,481.3c-0.6-0.2-0.4-1.1,0-1.5c1-1.2,2.7-1.3,4.3-1.4c2.3-0.1,4.7-0.2,7-0.3C1034.4,480,1030.5,481.1,1026.6,481.3z
			 M1038.2,468.6c-0.7,0.1-1.3-0.6-1.1-1.2l0.2,0.1c0.2-0.7,1.2-0.9,1.7-0.4C1039.2,467.6,1038.8,468.5,1038.2,468.6z M1045,475.2
			c-0.5,0.3-1,0.7-1.6,0.5c-0.5-0.2-0.4-1.3,0.2-1.1l0,0C1044.1,473.9,1045.4,474.6,1045,475.2z M1009.3,1108.1
			c-0.3,0.7-1.3,0.9-1.8,0.4c0-0.7,0.2-1.4,0.9-1.6C1009,1106.7,1009.7,1107.6,1009.3,1108.1L1009.3,1108.1z M1023.7,1196.9
			c-0.8,0.7-2-0.2-2.1-1.2c-0.1-1,0.6-1.9,1.2-2.7c1.2,0.8,1.6,2.6,0.8,3.8L1023.7,1196.9z M1069.2,802c0.7-0.5,1.8,0,2,0.8l0.3,0
			C1071.2,804.2,1068.6,803.3,1069.2,802z M1085.2,767c-0.7,1.2-2.4,1.6-3.6,0.9c1.2-1.3,2-2.9,2.5-4.6l0.2,0.1
			C1085.5,764.1,1085.9,765.8,1085.2,767z M1088.5,687l0.1-0.1c1.4,0.4,2,2.4,1,3.5c-0.6,0.2-1.3,0.1-1.8-0.3
			C1087.6,689,1087.8,687.9,1088.5,687z M1090.6,694c1.9,2.3,1.8,6.1-0.3,8.3c-0.4,0.4-1-0.1-1.3-0.6
			C1087.8,699.1,1088.5,695.9,1090.6,694z M1089.7,1464.2c-0.4-0.6-0.7-1.2-1.1-1.9c0.3-0.7,1.3-0.9,1.9-0.4l-0.1,0.1
			C1091.2,1462.6,1090.8,1464.2,1089.7,1464.2z M1092,759.8c-1.4-1.1-2-3-1.7-4.7c0.2-1,1.6-1.9,2-1c-0.6,1.6-0.6,3.5,0.1,5.1
			L1092,759.8z M1091.3,680.4l-0.2-0.2c-0.8-2.1-1-4.3-0.6-6.5c1.8,3.7,2.9,7.7,3.1,11.8C1092,684.4,1091.1,682.3,1091.3,680.4z
			 M1097.3,722.7c-1-1.3-1.1-3.2-0.3-4.6l0.2,0.2C1097.8,719.7,1097.8,721.3,1097.3,722.7z M1113.1,1480c-1,0-2-0.1-2.7-0.8
			c-0.6-0.7-0.2-2.2,0.8-2l0,0.5C1112.4,1477.4,1113.6,1478.9,1113.1,1480z M1124.4,1495c-1.2-2.3-2.4-4.6-3.6-6.9
			c1.9,0.9,3.4,2.7,4.1,4.7l0.2-0.1C1125.5,1493.7,1125.3,1495.3,1124.4,1495z M1259.1,213.9c0.5-2.3-1.1-4.4-2.2-6.4
			c-1.1-2.1-1.3-5.1,0.8-6.2c1,5.9,6.6,9.6,10.6,14.1c3.6,4,5.9,9,8.2,13.9c3.5,7.4,7,14.8,10.5,22.2c0.7,1.5,1.4,3.3,0.6,4.7
			c-5.1-7.6-10.2-15.2-15.3-22.8c-1.3-1.9-2.7-4.2-2.2-6.5c0.3-1.2-0.4-2.4-1-3.4c-2.2-3.7-4.5-7.4-6.8-11.1
			C1262,213.6,1260.3,214.5,1259.1,213.9z M1283.9,325.8l-0.4-0.3c1.4-1,3.5-0.4,4.3,1C1286.6,327.3,1284.8,326.9,1283.9,325.8z
			 M1295.7,337.6c4.5,3.9,8,8.9,10,14.5C1300.3,349.3,1296.4,343.6,1295.7,337.6z M1308.8,371.7L1308.8,371.7
			c-1,0.2-1.9-1.1-1.2-1.9C1308.5,369.4,1309.6,371,1308.8,371.7z M1320.5,364.7c-8.3-13.1-16.5-26.3-24.8-39.4
			c-3.3-5.2-6.6-10.5-9-16.1c-4.7-11.2-6.1-24.5-15-32.8c1.9-6.7,0.6-14.2-3.3-19.9c0.7-2,1.4-4,2.1-6.1c-2.7-0.6-3.7-4-4.1-6.8
			c-1-6.5-1.9-13-2.9-19.5c10.9,19,21.9,38,32.8,56.9c4.8,8.3,9.6,16.7,12.8,25.7c1.8,5.1,3.1,10.4,4.4,15.6
			c0.9,3.8,1.9,7.5,2.8,11.3C1318.9,343.8,1321.5,354.3,1320.5,364.7z M1326.7,372.5l0.1-0.2c-0.7-0.3-0.9-1.3-0.4-1.9
			C1327.4,370.2,1327.8,372.3,1326.7,372.5z M1327.6,367.8c-0.7,0.8-2.4,0.8-2.4-0.2l0.1-0.6c-1.3-0.2-1.9-2.1-1-3.1
			c0.9-1,2.7-0.9,3.5,0.2C1328.6,365.2,1328.5,366.8,1327.6,367.8z"/>
		<path d="M224.6,926.2c-3.2-1.6-3.2,5.2-0.2,5.9C224.4,930.1,224.5,928.2,224.6,926.2z"/>
		<path d="M300.8,818.1c1.1-1.2,1.6-2.9,2.8-4c-1.1-0.7-2.6-0.3-3.8,0.2c-1.9,0.7-4.2,2.5-3.1,4.2
			C297.5,819.8,299.8,819.3,300.8,818.1z"/>
		<path d="M294.8,831.4l-0.2-0.1c-0.3,1.5-0.5,3.4,0.8,4.2c0.5-1.9,1-3.8,1.6-5.7c0.3-1.1,0.6-2.3,0.1-3.3c-0.5-1-2.2-1.3-2.7-0.3
			C295.3,827.8,295.4,829.8,294.8,831.4z"/>
		<path d="M304.3,800.2c0.3-2.5,0.8-5.3,2.9-6.6c0.2-0.6,0.1-1.3-0.3-1.7c-2,0.7-3.4,2.8-3.4,4.9l-0.1,0c-0.4,0.7-0.8,1.4-0.8,2.2
			C302.7,799.7,303.5,800.5,304.3,800.2z"/>
		<path d="M318.8,758.8l-0.8-0.2c-2.2,1.6-2.7,4.9-1.2,7.1C318,763.6,318.7,761.2,318.8,758.8z"/>
		<path d="M309.2,787.4L309.2,787.4c0.6-0.9,0.2-2.6-0.8-2.3C307.8,786,308.2,787.7,309.2,787.4z"/>
		<path d="M315.6,768.7c-0.4-0.5-1.3-0.4-1.6,0.2l-0.2,0.2c0.3,0.3,0.7,0.7,1,1C315.5,770.1,316,769.2,315.6,768.7z"/>
		<path d="M379.3,943.3c0.3,1.8-0.5,3.8-1.9,4.9c-2.1,1.7-5.5,1.8-6.9,4.1c-0.1,0.9,0.9,1.7,1.7,1.4c2.5-0.7,5.1-1.6,6.9-3.5
			C380.8,948.4,381.3,945,379.3,943.3z"/>
		<path d="M355,924.8c0.7,3,1.3,6,2,9.1c0.9-4.2,1.8-8.3,2.6-12.5c-0.5-0.6-1-1.2-1.5-1.8C356.4,920.9,355.3,922.8,355,924.8z"/>
		<path d="M374.9,926.9c-0.9-0.8-0.5-2.4,0.3-3.3c0.8-0.9,2-1.5,2.6-2.6c0.6-1.1,0.2-2.8-1.1-2.8c-1,1.7-2.1,3.5-3.9,4.4
			c-1.4,0.7-3.2,0.7-4.6,0C368.6,925.6,372,927.8,374.9,926.9z"/>
		<path d="M364.7,876.8c1.6-1.3,1.9-3.9,0.7-5.5c1.7,0.4,3.6-0.9,4-2.7c-3.3-1-6.9,2.5-6.1,5.9c-1.3,0.7-2.7,1.4-4.1,1.8
			C360.5,877.9,363.1,878.1,364.7,876.8z"/>
		<path d="M386.7,919c-1.1,2.9-0.9,6.3,0.5,9.1c2.3-2.9,2.9-7.1,1.5-10.6C387.8,917.1,387,918.1,386.7,919z"/>
		<path d="M373.5,941.9c-1.7-2.1-4.6-3-7.2-2.4c-0.7,0.2-0.4,1.4,0.3,1.3l0.1,0.1C368.8,941.9,371.2,942.3,373.5,941.9z"/>
		<path d="M386.2,932.9l-0.1-0.5c-2.1,1-0.9,4.2,0.5,6c0.8-0.9,1.5-1.9,1.6-3.1C388.3,934.1,387.3,932.7,386.2,932.9z"/>
		<path d="M365.5,954.2c-1.4,1.1-2.6,2.4-3.5,3.9c1.6,1.5,4.8,0.1,4.8-2l-0.2,0C366.5,955.3,366.1,954.6,365.5,954.2z"/>
		<path d="M370.4,962l-0.2,0.1c0.2,0.7,0.4,1.4,0.7,2.1c1.9-1.8,3-4.5,2.9-7.2C372.2,958.4,371.1,960.1,370.4,962z"/>
		<path d="M366.9,885.1c1.4-0.9,2.6-2.2,3.1-3.8l0,0c1.1,0.2,2.1-1.2,1.6-2.1C369,880.2,365.8,882.5,366.9,885.1z"/>
		<path d="M375.7,857.7l-0.5-0.5c0.8-1.4,1.1-3,1-4.5c-1.2,0.7-2.6,1.5-2.9,2.8C373,856.8,374.5,858.5,375.7,857.7z"/>
		<path d="M387,942.5L387,942.5c-0.7,0.8-0.5,2.1,0.3,2.6c1-0.7,1.5-2.2,1-3.4C387.8,941.2,386.5,941.9,387,942.5z"/>
		<path d="M347.4,921.9L347.4,921.9c1.2,0.1,2.2-1.3,1.6-2.3C347.9,919.4,346.9,920.9,347.4,921.9z"/>
		<path d="M364.5,963.4c0.1,1.1,1.1,2,2.1,1.9l-0.1-0.2C366.8,964,365.5,963,364.5,963.4z"/>
		<path d="M385.7,949l0.1-0.1c-1,0-1.5,1.6-0.7,2.2C386.1,951.1,386.6,949.5,385.7,949z"/>
		<path d="M373.8,916.5c0.8,0.1,1.5-1.1,0.9-1.7l0.2-0.2C374,914,372.8,915.9,373.8,916.5z"/>
		<path d="M357.8,914c-0.4,0.7,0.9,1.2,1.7,1l0,0.1C360.3,914.2,358.3,913,357.8,914z"/>
		<path d="M388.8,916.6L388.8,916.6c0.4-0.8,0-1.9-0.9-2.2C387.5,915.3,387.9,917,388.8,916.6z"/>
		<path d="M294.9,969.8c1.2,0.4,2.7-0.1,3.4-1.1c-2.9-1.5-6.9-0.5-8.5,2.3c1.7-0.3,3.4-0.5,5.1-0.8L294.9,969.8z"/>
		<path d="M284.4,941.3L284.4,941.3c-0.7,0-1.5,0-2.3,0c-0.6,0.6-0.5,1.7,0,2.3c1.3,0,2.5,0,3.8,0
			C286.6,942.8,285.5,941.4,284.4,941.3z"/>
		<path d="M289,950c0.2-1-1-1.9-1.9-1.6c-0.3,1.2,0.1,2.7,1.1,3.5c0.9,0.1,1.5-1.1,1-1.8L289,950z"/>
		<path d="M302.6,979.2c0.4-0.7-0.9-1.2-1.7-1l0-0.1C300.1,979.1,302.1,980.3,302.6,979.2z"/>
		<path d="M1285.2,296.3c1.1,7.8,5.1,15.2,11.2,20.3c0.1-1.2-0.5-2.3-1.1-3.3C1291.9,307.7,1288.6,302,1285.2,296.3z"/>
		<path d="M1285.8,278c1,1.5,2,3,3,4.4c0.8,0.3,1.7-0.6,1.8-1.5c0.1-0.9-0.4-1.7-0.8-2.5c-1.5-2.3-3.3-4.4-5.4-6.2
			C1283.7,274.3,1284.3,276.6,1285.8,278L1285.8,278z"/>
		<path d="M1300.6,322.1c3.1,5.1,6.1,10.2,9.2,15.4c0.3,0,0.5-0.2,0.6-0.4c0.2-0.4,0-0.8-0.1-1.2
			C1308.3,330.6,1304.9,325.8,1300.6,322.1z"/>
		<path d="M306.6,1100.7c1.3,0.3,2.8-0.6,3-1.9c-2.1-0.9-4.8,0.4-5.4,2.6c0.8,0,1.5-0.1,2.3-0.1L306.6,1100.7z"/>
		<path d="M282.6,1108.5c-0.3-0.4-0.6-0.9-0.9-1.3l-0.2,0.4c-1.2,0.4-1.9,1.7-1.7,2.9C280.9,1110.1,281.9,1109.4,282.6,1108.5z"/>
		<path d="M295.9,1104.7l0.1,0.1c0-1-1.6-1.5-2.2-0.7C293.8,1105.1,295.4,1105.6,295.9,1104.7z"/>
		<path d="M228.1,1297.9l0,0.4c-1.3,1.4-1.6,3.6-0.8,5.3C228.8,1301.9,230,1299,228.1,1297.9z"/>
		<path d="M274,660.2c-0.8,2.1-1,4.6-0.1,6.5c0.7-3.6,1.5-7.4,2.4-11.2C275.5,657.1,274.6,658.6,274,660.2z"/>
		<path d="M702.2,522.5c0.7-1.4-0.9-3.2-2.3-2.7l-0.2-0.8c-1.4,0.5-2.1,2.5-1.2,3.8C699.3,523.9,701.5,523.8,702.2,522.5z"/>
		<path d="M653.3,111.5l-3,1.6c-0.7,1-0.3,2.6,0.8,2.9c0.3,0.1,0.6,0.1,0.9,0.1c1.3-1.6,2.6-3.2,3.9-4.9
			C655,111.3,654.2,111.4,653.3,111.5z"/>
		<path d="M964.1,465.1c-0.2,0.4-0.5,0.7-0.7,1.1c0.6,0,1.2-0.1,1.7-0.1C964.8,465.8,964.5,465.4,964.1,465.1z"/>
		<path d="M837.5,1302.2c0,0-0.1-0.1-0.1-0.1c0,0.5,0,0.9-0.1,1.4C837.9,1303.2,838.1,1302.2,837.5,1302.2z"/>
		<path d="M764.9,15.2c-3.7-2.2-8.7-1.8-12,1c0.5,0.6,1.2,1,1.9,1.3c3.1-0.7,6.2-1.3,9.5-1.9C764.4,15.5,764.7,15.3,764.9,15.2z"/>
		<path d="M260.1,1104.9c0,1.3,0.1,2.5,0.3,3.8c0.1-1,0.2-2.1,0.4-3.1C260.6,1105.4,260.3,1105.1,260.1,1104.9z"/>
		<path d="M270.9,673.2c-0.8,1-0.9,2.4-0.9,3.7l0.4,0c0,0.9,0.5,1.7,1.2,2.2c0.4-2.2,0.8-4.4,1.2-6.6
			C272.1,672.5,271.3,672.7,270.9,673.2z"/>
		<path d="M649.5,118.1c-0.8,1.1-1.6,2.2-2.2,3.4c1-1.1,1.9-2.2,2.9-3.3C650,118.2,649.8,118.1,649.5,118.1z"/>
		<path d="M262.4,751.2c-0.1,0.2-0.1,0.5-0.1,0.8c0.1-0.3,0.1-0.7,0.2-1C262.5,751,262.4,751.1,262.4,751.2z"/>
		<path d="M895.6,1169c-0.1,1.9-0.2,3.9-0.4,5.8C896.6,1173.3,896.8,1170.7,895.6,1169z"/>
		<path d="M1023.9,867.4C1023.9,867.4,1023.9,867.4,1023.9,867.4c0.5-0.5,1-1.1,1.4-1.6C1024.7,866.1,1024.1,866.6,1023.9,867.4z"/>
		<path d="M261.9,747.6c1.1-1.1,1.5-2.7,1-4.2c-1-0.8-2.8,0.2-2.6,1.5l-0.5,0.1C260.2,746,260.9,747,261.9,747.6z"/>
		<path d="M877.1,5.9c0.6-0.6,0.6-1.6,0-2.2c-0.6,0.1-1.3,0.1-1.9,0.2l0.1,0.4c-0.7,0.1-1.2,0.8-1.4,1.5c1,0,1.9,0.1,2.9,0.1
			C876.9,6,877,6,877.1,5.9z"/>
		<path d="M831.8,6.3c-1.3-1.3-3.6-1.3-4.9,0.1c0.9,0.1,1.8,0.3,2.7,0.4c0.8-0.1,1.6-0.1,2.4-0.2L831.8,6.3z"/>
		<path d="M837.3,6.2l0-0.1c-0.8-0.1-1.6,0-2.3,0.3c0.9-0.1,1.9-0.1,2.8-0.2C837.6,6.1,837.5,6.1,837.3,6.2z"/>
		<path d="M1002.3,1101.8c0.2,0.6,0.8,0.8,1.4,0.8c-0.1-0.5-0.1-1.1-0.2-1.6C1003.1,1101.3,1002.7,1101.5,1002.3,1101.8z"/>
		<path d="M238.8,1127.6l-0.2,0.1c-0.4,0.3-0.3,0.8,0,1.1c0.5-0.8,1.1-1.7,1.6-2.5C239.5,1126.2,238.6,1126.9,238.8,1127.6z"/>
		<path d="M688.8,41.9c-0.5-0.9-2.2-0.3-2,0.7l0,0C687,43.7,689.2,42.9,688.8,41.9z"/>
		<path d="M855.2,1256l0.2,0.2c0.1-0.3,0.1-0.5,0-0.7c-0.3,0.2-0.5,0.5-0.8,0.7C854.9,1256.2,855.1,1256.1,855.2,1256z"/>
		<path d="M809.1,5.7L809.1,5.7c-0.7-0.5-1.8-0.1-2.1,0.8C807.6,7.2,809.2,6.7,809.1,5.7z"/>
		<path d="M1162.3,80.1l-0.3-0.2c-0.8,1-0.8,2.6,0,3.6C1162.1,82.3,1162.2,81.2,1162.3,80.1z"/>
	</g>
</g>
</svg>
