<?xml version="1.0" encoding="utf-8"?>
<!-- Generator: Adobe Illustrator 22.1.0, SVG Export Plug-In . SVG Version: 6.00 Build 0)  -->
<svg version="1.1" id="Layer_1" xmlns="http://www.w3.org/2000/svg" xmlns:xlink="http://www.w3.org/1999/xlink" x="0px" y="0px"
	 viewBox="0 0 570.7 413.8" style="enable-background:new 0 0 570.7 413.8;" xml:space="preserve">
<style type="text/css">
	.st0{fill:#404040;}
	.st1{fill:#B4DDF9;}
	.st2{fill:#35AAF9;}
</style>
<path class="st0" d="M26,335.3c4.2-0.6,8.7-0.2,12.9-0.2c5.2,0,10.4,0,15.6,0.1c10.4,0.1,20.8,0.2,31.2,0.4
	c20.8,0.3,41.6,0.8,62.4,1.3c20.8,0.5,41.6,1,62.4,1.4c19.9,0.4,39.7,0.7,59.6,0.9c20.5,0.2,40.9,0.1,61.4-0.2
	c20.6-0.3,41.1-1,61.7-2.1c20.5-1.1,41.1-2.6,61.5-4.7c9.6-1,19.2-2.1,28.8-3.3c9.3-1.2,18.7-2,27.8-4.1c0.8-0.2,1.6-0.4,2.2-0.8
	c1.4-1,1.9-4,2.5-5.5c0.8-2.1,1.5-4.1,2.2-6.2c1.1-3.3,2.1-6.6,2.8-9.9c1.1-4.8,1.5-9.6,1.4-14.5c0-1.8-0.1-3.7-0.1-5.5
	c0-85.7-5.1-171.3-5.3-257c0.1,0.1,0.2,0.2,0.2,0.2c-0.4-5.1-0.4-10-0.5-15.1c-1.1-1.2-2.5-2.1-4.6-3c-7.9-3.4-22.9-1.2-31.5-1.6
	c-41.4-1.9-82.7-3.6-124.1-5C251.1-2.8,146.8,7.5,39.7,2c-6.1-0.3-12.3-1.9-18.2-0.7c-9.6,2-15,10.7-17,19.8
	c-7.2,33.3-3.9,54.8-2.3,88.5C4,147,7.3,184.4,9.4,221.9c0.7,13.1,1,26.2,1.6,39.4c0.6,14.9,1.3,29.9,2.8,44.8c1,10,2,20.5,5.5,30
	c0.1,0.1,0.1,0.3,0.3,0.4c0.2,0.1,0.4,0.1,0.5,0c1.5-0.3,3.1-0.7,4.6-1C25.1,335.4,25.6,335.3,26,335.3z"/>
<g>
	<path class="st1" d="M184.9,264.6c0.2,0.3,0.4,0.5,0.6,0.8c0,0,0-0.1-0.1-0.1C185.2,265.1,185,264.9,184.9,264.6z"/>
	<path class="st1" d="M372.5,108.4c-6.8-29-19.9-57.3-47.3-71.9c-12-6.4-24.3-9.2-36.5-9.2c-25.8-0.1-51.3,12-72.6,28.2
		c-5.2,4-16.9,11.5-13.8,19c2.7,6.8,12.4,9,18,12.4c7.8,4.9,15,10.7,21.3,17.4c1.6,1.7,6.3,5.6,8.3,2.1c0.8-1.4,0-3.1-0.4-4.7
		c-1.8-6.9,5-11,10.8-11.7c8.1-1,16.2,2.1,22.6,7.1c6.4,5,11.1,11.8,15,18.9c13.2,24.4,16.8,53.4,11.9,80.7
		c-2.9,16.3-9.5,33.1-22.9,42.8c-15.1,10.9-37,10.3-52.5,0c-15.5-10.3-24.5-29-24.6-47.6c9.7,0.8,19.5,1.5,29.2,2.3
		c2.4,0.2,4.9,0.3,6.9-1c4.9-3.3-2.6-15-4-18.8c-3-8.2-5.4-16.7-7.9-25c-3.5-11.8-5.9-24-11.6-35.1c-2.3-4.5-5.7-10.7-10.9-12.2
		c-8.8-2.4-15.4,8.3-19.8,14.2c-8.1,10.8-18.4,19.5-28.4,28.4c-5.8,5.2-32.9,24.4-23.4,34.6c1.4,1.5,3.7,1.8,5.8,1.8
		c6,0.1,12.1-1.1,18.1-0.6c7,0.5,8.3,1.9,7,8.7c-2,10.8-2.2,21.9-0.7,32.8c3.5,26.5,15,51.1,38.1,65.6c27.9,17.4,63.4,21.1,92.4,4.9
		c27.1-15.2,48.9-39.5,61.6-67.9c6.2-13.9,8.8-27.8,11.4-42.6C377.9,157.6,378.1,132.4,372.5,108.4z M288,34.3
		C288,34.3,288.1,34.3,288,34.3c0,0-0.1,0-0.2,0C287.9,34.3,288,34.3,288,34.3z M208.7,73.6c-0.2,0.1-0.4,0.3-0.6,0.4
		C208.3,73.9,208.5,73.7,208.7,73.6C208.7,73.6,208.7,73.6,208.7,73.6z M240.1,187.6c-0.1,0-0.2,0-0.2,0
		C240,187.6,240.1,187.6,240.1,187.6C240.1,187.6,240.1,187.6,240.1,187.6z M330.8,257.9c-11.4,12.1-24.2,23.3-39.3,30.3
		c-20.1,9.3-41.5,8.5-62,1c-2.1-0.9-4.1-1.9-6.2-2.9c-22.1-10.5-35.9-26.5-42.2-50.5c-2.4-9.4-3.7-19.1-3.7-28.7
		c0-9.6,3.2-18.7,3.7-27.9c0.5-9.5-24.8-7-30.5-6.6c-0.6,0-1.2,0.1-1.9,0.1c10.2-15.9,26.1-25.5,38.7-39.1c4.2-4.5,7.9-9.5,12-14.2
		c3.7-4.2,9.4-7.6,12.6-12c0.9,1,1.5,2.2,2.1,3.5c10.6,23.7,14.9,49.4,24.5,73.3c0.3,0.9,0.7,1.7,1,2.6c0.1,0.3,0.2,0.5,0.3,0.8
		c-0.2,0-0.4,0-0.5,0c-6.8-0.5-13.6-1.1-20.3-1.8c-3.8-0.4-13.1-3.6-16.2-0.6c-0.5,0.5-0.7,1.1-1,1.8c0,0.1,0,0.2,0,0.3
		c-0.1,0.4-0.1,0.9-0.1,1.3c0,0.5,0.1,1,0.2,1.5c0,0.1,0,0.3,0.1,0.4c0.2,1.7,0.4,3.4,0.6,5.1c2.9,22.5,13.2,47.5,38.6,56.5
		c25.8,9.1,55.7-2.5,67.2-27.1c9.9-21.1,13.2-45,10.3-68.1c-2.8-22.1-11.2-48.6-27.9-64.2c-10.7-10-25.1-13.1-39-8.3
		c-4.2,1.5-8.5,3.8-10.2,7.9c0.9-2.1-13-9.8-14.5-10.7c-3.6-2.2-7.2-4.4-10.8-6.6c-7.1-4.3-1.3-6.9,3.6-11.1c5-4.3,10.3-8.4,15.9-12
		c10.7-7,22.6-12.4,35.1-15.1c7.6-1.6,15.6-2.1,23.5-1.4c30.4,2.7,51.7,24.3,63.1,51.6C380.2,140.8,371.3,214.8,330.8,257.9z"/>
	<path class="st1" d="M250,102.3c0-0.1-0.1-0.2-0.1-0.2c0,0,0,0,0,0C250,102.1,250,102.2,250,102.3z"/>
</g>
<path class="st2" d="M300.4,25.3c-8.1-0.3-16.2,0.5-23.8,2.4c-22.3,5.6-42,19-58.9,34.6c-5.2,4.7,16.2,15.3,20.3,17.9
	c2.1,1.3,7.7,6.5,10.1,6c1.7-0.3,5.8-5.7,8.1-6.7c37.6-16.6,62.4,25.7,70.3,56.1c9.4,36,8.4,87.9-22.9,113.7
	c-16.8,13.8-40.7,15.8-60.3,7.1c-23.5-10.5-36.5-36.6-38.7-61.3c-0.2-2-0.3-4.1,0.5-6c2-5,8-3.9,12-3c9.3,2.2,19,2.9,28.6,2.1
	c-8.3-26.2-16.9-52.3-25.9-78.2c-0.7-2.1-1.8-4.5-3.9-5c-2.4-0.6-4.6,1.5-6.3,3.4c-13.5,16-28.3,30.9-44.1,44.6
	c-6.7,5.8-13.9,11.8-16.7,20.1c7.6,0.3,15.3,0.5,22.9,0.8c14.5,0.5,10.3,12.3,8.3,23c-5.5,29.6,4,61.9,25.4,82.9
	c24,23.6,60.6,30.6,91.7,18.1c29.9-12,53.3-37.7,68.2-65.7c8.1-15.3,14-32,16.1-49.3c2.2-17.9,3.6-35.5,2.3-53.6
	c-2.2-31-13.4-63.9-36.2-85.8C335.3,31.9,317.8,26,300.4,25.3z"/>
</svg>
