<?xml version="1.0" encoding="utf-8"?>
<!-- Generator: Adobe Illustrator 22.1.0, SVG Export Plug-In . SVG Version: 6.00 Build 0)  -->
<svg version="1.1" xmlns="http://www.w3.org/2000/svg" xmlns:xlink="http://www.w3.org/1999/xlink" x="0px" y="0px"
	 viewBox="0 0 248 281.2" style="enable-background:new 0 0 248 281.2;" xml:space="preserve">
<style type="text/css">
	.st0{fill:#B4DDF9;}
	.st1{fill:#FFFFFF;}
	.st2{fill:#00B0E8;}
	.st3{fill:#2C2C2C;}
</style>
<g id="Layer_1">
	<g>
		<path class="st0" d="M48.8,241.4c0.2,0.3,0.4,0.5,0.6,0.8c0,0,0-0.1-0.1-0.1C49.1,241.9,48.9,241.7,48.8,241.4z"/>
		<path class="st0" d="M243.6,82.5c-7.1-29.5-20.7-58.3-49.1-73.1C182,2.8,169.3,0,156.6,0c-26.8-0.1-53.3,12.2-75.4,28.7
			C75.8,32.8,63.7,40.4,66.9,48c2.8,6.9,12.9,9.2,18.7,12.6c8.1,5,15.6,10.9,22.1,17.7c1.7,1.7,6.5,5.7,8.6,2.1
			c0.8-1.4,0-3.2-0.4-4.8c-1.9-7,5.2-11.2,11.2-11.9c8.4-1,16.8,2.1,23.5,7.2c6.6,5.1,11.5,12,15.6,19.2
			c13.7,24.8,17.4,54.3,12.4,82.1c-3,16.6-9.9,33.7-23.8,43.5c-15.7,11.1-38.4,10.5-54.5,0c-16.1-10.5-25.4-29.5-25.5-48.4
			c10.1,0.8,20.2,1.5,30.3,2.3c2.5,0.2,5.1,0.3,7.2-1c5.1-3.4-2.7-15.3-4.2-19.1c-3.1-8.3-5.6-17-8.2-25.4c-3.6-12-6.1-24.4-12-35.7
			c-2.4-4.6-5.9-10.9-11.3-12.4c-9.1-2.4-16,8.4-20.6,14.4c-8.4,11-19.1,19.8-29.5,28.9c-6,5.3-34.2,24.8-24.3,35.2
			c1.5,1.5,3.8,1.8,6,1.8c6.2,0.1,12.6-1.1,18.8-0.6c7.3,0.5,8.6,1.9,7.3,8.9c-2.1,11-2.3,22.3-0.7,33.4c3.6,27,15.6,52,39.6,66.7
			c29,17.7,65.8,21.5,95.9,5c28.1-15.5,50.8-40.2,64-69.1c6.4-14.1,9.1-28.3,11.8-43.3C249.2,132.6,249.4,106.9,243.6,82.5z
			 M155.9,7.1C155.9,7.1,156,7.1,155.9,7.1c0,0-0.1,0-0.2,0C155.8,7.1,155.9,7.1,155.9,7.1z M73.5,47.1c-0.2,0.1-0.4,0.3-0.6,0.4
			C73.1,47.4,73.3,47.2,73.5,47.1L73.5,47.1z M106.1,163.1c-0.1,0-0.2,0-0.2,0C106,163.1,106.1,163.1,106.1,163.1L106.1,163.1z
			 M200.3,234.6c-11.8,12.3-25.1,23.7-40.8,30.8c-20.9,9.5-43.1,8.6-64.4,1c-2.2-0.9-4.3-1.9-6.4-3c-22.9-10.7-37.3-27-43.8-51.4
			c-2.5-9.6-3.8-19.4-3.8-29.2s3.3-19,3.8-28.4c0.5-9.7-25.8-7.1-31.7-6.7c-0.6,0-1.2,0.1-2,0.1c10.6-16.2,27.1-25.9,40.2-39.8
			c4.4-4.6,8.2-9.7,12.5-14.4c3.8-4.3,9.8-7.7,13.1-12.2c0.9,1,1.6,2.2,2.2,3.6c11,24.1,15.5,50.3,25.4,74.6c0.3,0.9,0.7,1.7,1,2.6
			c0.1,0.3,0.2,0.5,0.3,0.8c-0.2,0-0.4,0-0.5,0c-7.1-0.5-14.1-1.1-21.1-1.8c-3.9-0.4-13.6-3.7-16.8-0.6c-0.5,0.5-0.7,1.1-1,1.8
			c0,0.1,0,0.2,0,0.3c-0.1,0.4-0.1,0.9-0.1,1.3c0,0.5,0.1,1,0.2,1.5c0,0.1,0,0.3,0.1,0.4c0.2,1.7,0.4,3.5,0.6,5.2
			c3,22.9,13.7,48.3,40.1,57.5c26.8,9.3,57.8-2.5,69.8-27.6c10.3-21.5,13.7-45.8,10.7-69.3c-2.9-22.5-11.6-49.4-29-65.3
			c-11.1-10.2-26.1-13.3-40.5-8.4c-4.4,1.5-8.8,3.9-10.6,8c0.9-2.1-13.5-10-15.1-10.9c-3.7-2.2-7.5-4.5-11.2-6.7
			c-7.4-4.4-1.3-7,3.7-11.3c5.2-4.4,10.7-8.5,16.5-12.2c11.1-7.1,23.5-12.6,36.4-15.4c7.9-1.6,16.2-2.1,24.4-1.4
			c31.6,2.7,53.7,24.7,65.5,52.5C251.6,115.5,242.4,190.8,200.3,234.6z"/>
		<path class="st0" d="M116.4,76.3c0-0.1-0.1-0.2-0.1-0.2l0,0C116.4,76.1,116.4,76.2,116.4,76.3z"/>
	</g>
	<g id="Layer_2">
		<path class="st1" d="M73.8,280.4c0.2,0.3,0.4,0.5,0.6,0.8c0,0,0-0.1-0.1-0.1C74.1,280.9,73.9,280.7,73.8,280.4z"/>
		<path class="st1" d="M180.9,46.1C180.9,46.1,181,46.1,180.9,46.1c0,0-0.1,0-0.2,0C180.8,46.1,180.9,46.1,180.9,46.1z"/>
		<path class="st1" d="M98.5,86.1c-0.2,0.1-0.4,0.3-0.6,0.4C98.1,86.4,98.3,86.2,98.5,86.1L98.5,86.1z"/>
		<path class="st1" d="M131.1,202.1c-0.1,0-0.2,0-0.2,0C131,202.1,131.1,202.1,131.1,202.1L131.1,202.1z"/>
		<path class="st1" d="M198.3,232.5c-11.8,12.3-25.1,23.7-40.8,30.8c-20.9,9.5-43.1,8.6-64.4,1c-2.2-0.9-4.3-1.9-6.4-3
			c-22.9-10.7-37.3-27-43.8-51.4c-2.5-9.6-3.8-19.4-3.8-29.2c0-9.8,3.3-19,3.8-28.4c0.5-9.7-25.8-7.1-31.7-6.7c-0.6,0-1.2,0.1-2,0.1
			c10.6-16.2,27.1-25.9,40.2-39.8c4.4-4.6,8.2-9.7,12.5-14.4c3.8-4.3,9.8-7.7,13.1-12.2c0.9,1,1.6,2.2,2.2,3.6
			c11,24.1,15.5,50.3,25.4,74.6c0.3,0.9,0.7,1.7,1,2.6c0.1,0.3,0.2,0.5,0.3,0.8c-0.2,0-0.4,0-0.5,0c-7.1-0.5-14.1-1.1-21.1-1.8
			c-3.9-0.4-13.6-3.7-16.8-0.6c-0.5,0.5-0.7,1.1-1,1.8c0,0.1,0,0.2,0,0.3c-0.1,0.4-0.1,0.9-0.1,1.3c0,0.5,0.1,1,0.2,1.5
			c0,0.1,0,0.3,0.1,0.4c0.2,1.7,0.4,3.5,0.6,5.2c3,22.9,13.7,48.3,40.1,57.5c26.8,9.3,57.8-2.5,69.8-27.6
			c10.3-21.5,13.7-45.8,10.7-69.3c-2.9-22.5-11.6-49.4-29-65.3c-11.1-10.2-26.1-13.3-40.5-8.4c-4.4,1.5-8.8,3.9-10.6,8
			c0.9-2.1-13.5-10-15.1-10.9c-3.7-2.2-7.5-4.5-11.2-6.7c-7.4-4.4-1.3-7,3.7-11.3c5.2-4.4,10.7-8.5,16.5-12.2
			c11.1-7.1,23.5-12.6,36.4-15.4c7.9-1.6,16.2-2.1,24.4-1.4c31.6,2.7,53.7,24.7,65.5,52.5C249.6,113.4,240.4,188.7,198.3,232.5z"/>
		<path class="st1" d="M141.4,115.3c0-0.1-0.1-0.2-0.1-0.2l0,0C141.4,115.1,141.4,115.2,141.4,115.3z"/>
	</g>
	<path class="st2" d="M157.9,1.5C149.5,1.2,141,2,133.1,3.9c-23.2,5.5-43.8,18.6-61.4,33.9c-5.4,4.6,16.9,15,21.1,17.5
		c2.2,1.3,8,6.4,10.5,5.9c1.8-0.3,6-5.6,8.4-6.6c39.2-16.3,65,25.2,73.2,55c9.8,35.3,8.8,86.1-23.9,111.4
		c-17.5,13.5-42.4,15.5-62.8,7c-24.5-10.3-38-35.9-40.3-60.1c-0.2-2-0.3-4,0.5-5.9c2.1-4.9,8.3-3.8,12.5-2.9
		c9.7,2.2,19.8,2.8,29.8,2.1c-8.6-25.7-17.6-51.2-27-76.6c-0.7-2.1-1.9-4.4-4.1-4.9c-2.5-0.6-4.8,1.5-6.6,3.3
		c-14.1,15.7-29.5,30.3-45.9,43.7c-7,5.7-14.5,11.6-17.4,19.7c7.9,0.3,15.9,0.5,23.9,0.8c15.1,0.5,10.7,12.1,8.6,22.5
		c-5.7,29,4.2,60.7,26.5,81.2c25,23.1,63.1,30,95.5,17.7c31.1-11.8,55.5-36.9,71-64.4c8.4-15,14.6-31.4,16.8-48.3
		c2.3-17.5,3.8-34.8,2.4-52.5c-2.3-30.4-14-62.6-37.7-84.1C194.3,8,176,2.2,157.9,1.5z"/>
</g>
<g id="Layer_3">
	<path class="st3" d="M35.3,164.4c-3-0.4-10.7,4.8-11.8,5.6c-4.1,3-7.9,6.5-10.6,10.9c-3.4,5.4-5,12.1-3.3,18.3
		c1.9,7,7.7,12.6,14,15.7c3.7,1.9,7.8,3.1,11.9,2.9c4.8-0.2,9.5-2.1,13.5-4.6c4.2-2.5,8.6-5.4,7.4-10.9c-0.4-1.7-1.1-3.2-1.9-4.7
		c-1.5-2.9-3.7-7.6-6.5-9.4c-0.2-0.1-0.5-0.2-0.7-0.3c-2.5-0.5-3.4,4.1-4.5,5.6c-2,2.8-5.1,4.8-8.5,5.3c-1.3,0.2-2.6,0.2-3.8-0.5
		c-2-1.2-2.5-3.9-2.5-6.2c0-2,0.2-4,0.9-5.9c1.2-3.1,3.5-4.8,6.8-5.1c1.4-0.1,3.7-0.2,4.8-1.3c1.4-1.4,0.2-3.5-0.6-5
		c-1-1.8-1.8-3.7-2.5-5.7C37,168,36.9,164.6,35.3,164.4z"/>
	<path class="st3" d="M72.6,165.9c-9.7-1.4-18.7,9-19,18.4c-0.2,4.7,1.5,9.4,4.6,13c1.3,1.5,2.8,2.7,4.6,3.4c1.9,0.7,4,0.7,6,0.5
		c2.1-0.2,4.2-0.8,6.1-1.7c2.2-1.1,4-2.8,5.5-4.7c3.3-4.1,5.2-9.5,4.6-14.7c-0.5-5.3-3.6-10.3-8.3-12.7
		C75.4,166.6,74,166.1,72.6,165.9z M67.6,186.3c-0.1,0-0.3-0.1-0.4-0.1c-1-0.5-1.4-1.8-0.8-2.7c0.5-0.8,1.7-3.7,3.1-2.1
		c0.4,0.5,0.4,1.1,0.3,1.7c-0.2,1.1-0.7,2.2-1.5,2.9c-0.1,0.1-0.3,0.3-0.5,0.3C67.7,186.3,67.7,186.3,67.6,186.3z"/>
	<path class="st3" d="M85.4,131.1c-0.7-0.2-1.7-0.1-2.8,0.4c-1.6,0.6-10,4.2-8,6.9c0.4,0.5,8.2,18.8,10.9,27c1.4,4.3,2.7,8.7,4.2,13
		c0.8,2.3,1.6,4.5,2.5,6.7c0.7,1.8,1.3,4.6,3.6,4.9c2.9,0.3,6.6-2.2,9.2-3.4c0.4-0.2,0.8-0.4,1.2-0.7c4.3-3.2-1.7-14.2-3.2-17.8
		c-0.7-1.7-1.3-3.4-2-5c-2.5-6.3-5-12.5-7.8-18.6c-1.4-3.1-2.8-6.1-4.4-9.1C87.8,133.2,87,131.5,85.4,131.1z"/>
	<path class="st3" d="M100.1,121.8c-1.3-0.3-2.7,0.1-4,0.5c-0.8,0.2-1.7,0.5-2.3,1c-2.2,1.7-0.2,4.4,0.5,6.3
		c0.8,2.3,1.6,4.5,2.4,6.8c1.6,4.5,3.1,9.1,4.7,13.6c3.1,9.2,6.1,18.5,8.9,27.8c0.3,1.1,0.7,2.2,1.4,3c2.4,2.5,7.7-1.5,10-2.6
		c3.5-1.7,4.7-3.7,3.4-7.6c-4.9-14.5-11.2-28.5-18.7-41.8c-1.4-2.5-3.1-6.2-6.2-6.9C100.2,121.8,100.1,121.8,100.1,121.8z"/>
	<path class="st3" d="M140.9,126.3c-5.8-1.8-11.5,0.6-16.1,4c-1.4,1-2.8,2.2-4,3.4c-0.5,0.6-0.6,2.8,0,3.4c0.4,0.4,0.6,1.1,0.8,1.6
		c0.4,0.7,0.7,1.4,1.1,2.2c0.7,1.5,1.4,3,2.1,4.5c0.2,0.5,0.5,1.1,0.9,1.5c2,1.9,4.2-3.5,5.8-4.3c1.9-1,4.3-0.4,6,0.8
		c1.8,1.3,3.2,3.2,4.3,5.1c-4.1-0.2-7.8,2.9-9.8,6.5c-2.3,4.1-3,9.1-1.9,13.7c0.3,1.4,0.9,2.8,2.2,3.5c1.8,0.9,8.7-1.3,10.4-2.5
		c4.4-3.3,5.9-4.5,8.4-9.1c0.1-0.1,0.2-0.1,0.3-0.1c0,0,3.1,4.7,3.8,5c2.1,0.8,6.6-3.7,6.7-3.9c0.6-0.7,0.2-1.7-0.2-2.4
		c-5-10.1-10.6-20-16.7-29.5C143.6,127.6,142.3,126.7,140.9,126.3z M136.5,161.5C136.5,161.5,136.5,161.5,136.5,161.5L136.5,161.5
		L136.5,161.5L136.5,161.5c-0.1-0.1-0.1-0.2-0.1-0.2c0-0.1,0-0.1,0.1-0.2c0.1-0.1,0.1-0.2,0.2-0.3c0.2-0.3,0.5-0.5,0.7-0.7l0.2-0.2
		c0.1-0.1,0.1-0.1,0.1-0.2c0,0,0,0,0.1-0.1c0.1-0.1,0.2-0.1,0.3-0.2c0.2-0.1,0.4-0.2,0.6-0.3c0,0,0.1,0,0.1,0l0,0.1
		c0,0.1,0,0.1,0,0.2c0,0.1-0.1,0.2-0.1,0.4c-0.2,0.4-0.5,0.8-0.7,1.1c-0.2,0.2-0.3,0.3-0.4,0.4c-0.1,0.1-0.3,0.2-0.4,0.2
		c-0.1,0-0.2,0-0.3,0.1C136.7,161.6,136.6,161.6,136.5,161.5L136.5,161.5L136.5,161.5z"/>
	<path class="st3" d="M173.6,111.9c-1.8-0.3-3.6-0.3-5.5-0.1c-5.7,0.6-11.3,3-15.3,7.1c-1.6,1.6-2.8,3.6-3.2,5.8
		c-0.4,2.3,0.5,4.2,1.2,6.3c1.6,4.8,3.4,9.5,5.4,14.2c3.9,9.4,8.4,18.7,12.8,27.9c1.3,2.7,2.6,5.4,3.9,8.1c0.8,1.6,1.9,3.6,4,3.2
		c1-0.2,1.9-0.9,2.8-1.5c1.4-1,3-1.8,4.6-2.4c1.8-0.7,3.9-1.4,3.8-3.7c-0.1-1.1-0.6-2.1-1.2-3.1c-3.2-5.9-6.4-11.9-9.4-18
		c-1.5-3-2.9-6-4.4-8.9c-1.4-2.9-2.9-4.8,0.3-6.8c3.3-2.1,6.7-4.4,9-7.6c2.4-3.2,3.6-7.4,2.4-11.2c-0.7-2.1-2.1-3.8-3.6-5.3
		c-1.7-1.6-3.7-2.9-5.9-3.6C174.7,112.2,174.2,112,173.6,111.9z M163.2,128.9L163.2,128.9L163.2,128.9c-0.2-0.6-0.3-1-0.5-1.5
		c0-0.1,0-0.2,0-0.3c0-0.2,0.1-0.3,0.1-0.4c0.1-0.1,0.2-0.3,0.3-0.4c0.1-0.1,0.2-0.2,0.3-0.2c0.3-0.2,0.7-0.3,1-0.5
		c0.3-0.1,0.6-0.1,0.8-0.2c0.1,0,0.3,0,0.4,0c0.1,0,0.1,0,0.2,0.1c0.1,0,0.1,0.1,0.2,0.1c0.1,0.1,0.1,0.1,0.2,0.2
		c0.1,0.1,0.1,0.2,0.1,0.3c0,0,0,0.1,0,0.1c0,0.1,0,0.1,0,0.2c0,0,0,0.1,0,0.1c0,0,0,0-0.1,0.1c-0.7,0.7-1.5,1.3-2.2,1.8
		c-0.1,0.1-0.2,0.2-0.4,0.3l-0.1,0.1l-0.1,0.1L163.2,128.9C163.2,128.8,163.2,128.9,163.2,128.9L163.2,128.9L163.2,128.9z"/>
	<path class="st3" d="M197.4,96c-0.3,0-0.6-0.1-1-0.1c-3.1-0.3-6.3,0.1-9,1.6c-3.6,2-6.1,6.7-4.9,10.8c0.5,1.7,1.7,3.1,3.1,4.2
		c3.9,2.9,9.7,2.4,13,6.3c0.7,0.8,1.2,1.9,1,3c-0.2,1.1-1.1,2-2,2.7c-2,1.5-4.6,2.2-7.1,2.1c-0.6,0-1.2-0.1-1.7,0
		c-2.2,0.5-1.4,3.3-1.2,4.8c0.2,2.1,0.3,4.2,0.5,6.2c0.1,0.9,0.2,1.9,0.8,2.7c0.5,0.6,1.3,0.9,2.1,1.1c9.8,2.3,21.2-5.2,23.7-14.6
		c0.6-2.2,0.8-4.6,0.3-6.8c-0.8-3.5-3.2-6.5-6.1-8.6c-2.9-2-6.9-4-10.5-4.2c1.3-1,3.1-1,4.2-2.1c2.2-2.1-0.1-6.9-2.3-8.1
		C199.4,96.4,198.4,96.2,197.4,96z"/>
	<path class="st3" d="M231.2,79.9c-1.2-0.3-2.5-0.3-4.1,0c-3.6,0.7-6.9,2.8-9.5,5.3c-1.4,1.3-2.6,2.8-3.4,4.6
		c-1.9,4.5-0.4,9.7,0.9,14.2c1.4,4.9,3.4,9.5,6,13.9c0.9,1.5,2,3.1,3.4,4.1c1.3,0.9,2.9,1.3,4.5,1.7c10.7,2.5,19.4-5.3,22.2-15.2
		c0.2-0.8,0.4-1.7,0-2.5c-0.6-1.1-2-1.2-3.1-1.5c-1.4-0.3-3.6-2-4.9-0.8c-0.5,0.5-0.8,1.1-1.1,1.7c-1.3,2.3-3.5,4-6,4.8
		c-1.4,0.4-2.9,0.5-4.2,0.1c-2.5-0.8-5.6-4.8-2.4-6.6c2.8-1.5,5.9-2.6,8.8-3.9c0.9-0.4,1.8-0.8,2.4-1.6c3-4-2.3-11.2-4.6-14.4
		C234.8,81.7,233.2,80.4,231.2,79.9z M224.5,93C224.5,93,224.4,93,224.5,93c-0.2-0.3-0.4-0.6-0.4-0.9c0-0.3,0.2-0.6,0.5-0.7
		c0.7-0.5,1.6-0.7,2.4-0.6c1.7,0.1,3.9,0.9,1.6,2.3c-0.6,0.4-1.9,1.9-2.7,1.5c-0.3-0.1-0.5-0.4-0.7-0.6
		C225,93.7,224.7,93.3,224.5,93z"/>
</g>
</svg>
