<?xml version="1.0" encoding="utf-8"?>
<!-- Generator: Adobe Illustrator 22.1.0, SVG Export Plug-In . SVG Version: 6.00 Build 0)  -->
<svg version="1.1" id="Layer_1" xmlns="http://www.w3.org/2000/svg" xmlns:xlink="http://www.w3.org/1999/xlink" x="0px" y="0px"
	 viewBox="0 0 792 612" style="enable-background:new 0 0 792 612;" xml:space="preserve">
<style type="text/css">
	.st0{fill:#FAA633;}
	.st1{fill:#FFD344;}
</style>
<path class="st0" d="M290.8,554.9c0,0-93-109-58.8-136.7c0,0,41.6,37.4,45.2,80.9c0,0,30.7-98.5-72.4-163.3s53.3-115.1,53.3-115.1
	s-47.2,40.2-13.6,114.6s84.4,79.9,89.9,169.8c0,0,50.3-71.9-14.6-232.7S297.4,35.8,297.4,35.8s246.7,136.2,157.8,403.5
	c0,0,92-274.9,104-236.7c0,0-92,157.3,9,237.7c0,0-70.4-128.6,23.6-158.3c0,0-32.7,94,22.1,136.2c0,0,59.3-155.8-19.1-208
	c0,0,189.9,28.1-15.1,321.6c0,0,81.4,33.2,111.1-24.1S665.2,322.7,700.9,288c0,0,14.1,33.2,43.7,244.2
	C744.6,532.3,500.9,621.2,290.8,554.9z"/>
<path class="st1" d="M418.9,554.4c0,0,87-378.4-64.3-333.2c0,0,63.8,226.1,27.1,288.9s-61.8,36.7-66.3,8
	c-4.5-28.6-6.5-58.3-6.5-58.3s-1.9,81.1-18,94.9c-16.1,13.8,61.4,57.1,303.6,13.9c0,0-82.6-36.5-63-62.1
	c19.6-25.6,50.3,7.5,50.3,7.5s-38.2-41.7-23.6-45.2c14.6-3.5,27.6,18.1,27.6,18.1s-14.6-47.7-57.3-47.2
	c-42.7,0.5-25.1,39.2-25.1,39.2s-28.8-44.7,0.5-60.3C503.8,418.7,447.5,436.8,418.9,554.4z"/>
</svg>
