<?xml version="1.0" encoding="utf-8"?>
<!-- Generator: Adobe Illustrator 22.1.0, SVG Export Plug-In . SVG Version: 6.00 Build 0)  -->
<svg version="1.1" id="Layer_1" xmlns="http://www.w3.org/2000/svg" xmlns:xlink="http://www.w3.org/1999/xlink" x="0px" y="0px"
	 viewBox="0 0 792 612" style="enable-background:new 0 0 792 612;" xml:space="preserve">
<style type="text/css">
	.st0{fill:#FFCD34;}
	.st1{fill:#FBF49C;}
</style>
<path class="st0" d="M290.8,554.9c0,0-93-109-58.8-136.7c0,0,41.6,37.4,45.2,80.9c0,0,30.7-98.5-72.4-163.3s53.3-115.1,53.3-115.1
	s-47.2,40.2-13.6,114.6s84.4,79.9,89.9,169.8c0,0-6-166.3,11.6-238.7c40.9-168.5-48.7-230.7-48.7-230.7s246.7,136.2,157.8,403.5
	c0,0,92-274.9,104-236.7c0,0-92,157.3,9,237.7c0,0-70.4-128.6,23.6-158.3c0,0-32.7,94,22.1,136.2c0,0-34.2-204.5,15.6-271.9
	c0,0,41.7,210.1-3,333.7c0,0,9,34.7,18.6-48.2c7.4-64.1,14.1-19.6,41.7-98.5c0,0-44.7,212.6-94.9,237.1
	C591.9,570.4,495.9,597.6,290.8,554.9z"/>
<path class="st1" d="M418.9,554.4c0,0,60.3-316.8-6.9-367.4c0,0-56.8,105-30.3,323.2c8.8,72.2-76.8,35.1-66.3,8
	c14.7-38-24.3-114.4-31.1-111.1c0,0,22.6,133.9,6.5,147.7c-16.1,13.8,61.4,57.1,303.6,13.9c0,0-82.6-36.5-63-62.1
	c19.6-25.6,50.3,7.5,50.3,7.5s-38.2-41.7-23.6-45.2c14.6-3.5,50.9-9.1,50.9-9.1s-55.3-3-80.5-20.1C493,415.9,503.3,479,503.3,479
	s-28.8-44.7,0.5-60.3C503.8,418.7,447.5,436.8,418.9,554.4z"/>
</svg>
