<?xml version="1.0" encoding="utf-8"?>
<!-- Generator: Adobe Illustrator 22.1.0, SVG Export Plug-In . SVG Version: 6.00 Build 0)  -->
<svg version="1.1" id="Layer_1" xmlns="http://www.w3.org/2000/svg" xmlns:xlink="http://www.w3.org/1999/xlink" x="0px" y="0px"
	 viewBox="0 0 792 612" style="enable-background:new 0 0 792 612;" xml:space="preserve">
<style type="text/css">
	.st0{fill:#FAA633;}
	.st1{fill:#F79868;}
	.st2{fill:#F9F06C;}
</style>
<path class="st0" d="M290.8,554.9c0,0-127.1-88.4-134.7-140.2c0,0-7-85.4,121.1,84.4c0,0-7.5-87.9-110.6-152.8S125,108.6,125,108.6
	s85.9,152.3,119.6,226.6s84.4,79.9,89.9,169.8c0,0-40.2-180.4,11.6-238.7c115.1-129.6-48.7-230.7-48.7-230.7s194.5,24.6,157.8,403.5
	c0,0,13.1-211.1,104-236.7c0,0-92,157.3,9,237.7c0,0-29.1-84.4,23.6-158.3c0,0-32.7,94,22.1,136.2c0,0-9.9-181,15.6-271.9
	c0,0,22.1,50.8-3,333.7c0,0-13.5,28.8,18.6-48.2c26.1-62.8,71.4,16.1,55.8-143.7c0,0,60.8,165.8,21.1,250.3
	C722,538.3,500.9,621.2,290.8,554.9z"/>
<path class="st1" d="M290.8,554.9c0,0-127.1-88.4-134.7-140.2c0,0-7-85.4,121.1,84.4c0,0-7.5-87.9-110.6-152.8S125,108.6,125,108.6
	s85.9,152.3,119.6,226.6s84.4,79.9,89.9,169.8c0,0-40.2-180.4,11.6-238.7c115.1-129.6-48.7-230.7-48.7-230.7s194.5,24.6,157.8,403.5
	c0,0,13.1-211.1,104-236.7c0,0-92,157.3,9,237.7c0,0-29.1-84.4,23.6-158.3c0,0-32.7,94,22.1,136.2c0,0-9.9-181,15.6-271.9
	c0,0,22.1,50.8-3,333.7c0,0-13.5,28.8,18.6-48.2c26.1-62.8,71.4,16.1,55.8-143.7c0,0,60.8,165.8,21.1,250.3
	C722,538.3,500.9,621.2,290.8,554.9z"/>
<path class="st2" d="M418.9,554.4c0,0-22.9-91-6.9-367.4c0,0-56.8,105-30.3,323.2c8.8,72.2-76.8,35.1-66.3,8
	c14.7-38-24.3-114.4-31.1-111.1c0,0,22.6,133.9,6.5,147.7c-16.1,13.8,61.4,57.1,303.6,13.9c0,0-63.9-16.4-44.3-42
	c19.6-25.6,31.6-12.5,31.6-12.5s-19.5-32.2-4.9-35.7c14.6-3.5-31.2-26.1-31.2-26.1s4.1,49.2-21.1,32.2
	c-35.4-23.9-39.2,65.8-39.2,65.8s-7-63.8-4-123.6C481.3,426.7,447.5,436.8,418.9,554.4z"/>
</svg>
