<?xml version="1.0" encoding="utf-8"?>
<!-- Generator: Adobe Illustrator 22.1.0, SVG Export Plug-In . SVG Version: 6.00 Build 0)  -->
<svg version="1.1" id="Layer_1" xmlns="http://www.w3.org/2000/svg" xmlns:xlink="http://www.w3.org/1999/xlink" x="0px" y="0px"
	 viewBox="0 0 471.1 412.2" style="enable-background:new 0 0 471.1 412.2;" xml:space="preserve">
<style type="text/css">
	.st0{fill:none;}
	.st1{fill:none;stroke:#000000;stroke-width:3.5;stroke-linecap:round;stroke-dasharray:0,6.5;}
	.st2{fill:none;stroke:#000000;stroke-width:3.25;stroke-linecap:round;stroke-dasharray:0,6.5;}
	.st3{fill:none;stroke:#000000;stroke-width:3;stroke-linecap:round;stroke-dasharray:0,6.5;}
	.st4{fill:none;stroke:#000000;stroke-width:2.75;stroke-linecap:round;stroke-dasharray:0,6.5;}
	.st5{fill:none;stroke:#000000;stroke-width:2.5;stroke-linecap:round;stroke-dasharray:0,6.5;}
	.st6{fill:none;stroke:#000000;stroke-width:2.25;stroke-linecap:round;stroke-dasharray:0,6.5;}
	.st7{fill:none;stroke:#000000;stroke-width:2;stroke-linecap:round;stroke-dasharray:0,6.5;}
	.st8{fill:none;stroke:#000000;stroke-width:1.75;stroke-linecap:round;stroke-dasharray:0,6.5;}
	.st9{fill:none;stroke:#000000;stroke-width:1.499;stroke-linecap:round;stroke-dasharray:0,6.5;}
	.st10{fill:none;stroke:#000000;stroke-width:1.25;stroke-linecap:round;stroke-dasharray:0,6.5;}
	.st11{fill:#FFFFFF;}
	.st12{fill:#56BFAA;}
	.st13{fill:url(#_x31_0_dpi_90_x25_);}
	.st14{fill:url(#Undulating_Fine_Dots);}
</style>
<pattern  x="-100.6" y="-202" width="28.8" height="28.8" patternUnits="userSpaceOnUse" id="_x31_0_dpi_90_x25_" viewBox="6.5 -35.3 28.8 28.8" style="overflow:visible;">
	<g>
		<rect x="6.5" y="-35.3" class="st0" width="28.8" height="28.8"/>
		<g>
			<path d="M35.3,0c3.6,0,6.5-2.9,6.5-6.5c0-3.6-2.9-6.5-6.5-6.5c-3.6,0-6.5,2.9-6.5,6.5C28.8-2.9,31.7,0,35.3,0z"/>
			<path d="M20.9,0c3.6,0,6.5-2.9,6.5-6.5c0-3.6-2.9-6.5-6.5-6.5s-6.5,2.9-6.5,6.5C14.4-2.9,17.3,0,20.9,0z"/>
			<path d="M35.3-14.4c3.6,0,6.5-2.9,6.5-6.5s-2.9-6.5-6.5-6.5c-3.6,0-6.5,2.9-6.5,6.5S31.7-14.4,35.3-14.4z"/>
			<path d="M20.9-14.4c3.6,0,6.5-2.9,6.5-6.5s-2.9-6.5-6.5-6.5s-6.5,2.9-6.5,6.5S17.3-14.4,20.9-14.4z"/>
			<path d="M13.7-7.2c3.6,0,6.5-2.9,6.5-6.5s-2.9-6.5-6.5-6.5c-3.6,0-6.5,2.9-6.5,6.5S10.1-7.2,13.7-7.2z"/>
			<path d="M28.1-7.2c3.6,0,6.5-2.9,6.5-6.5s-2.9-6.5-6.5-6.5c-3.6,0-6.5,2.9-6.5,6.5S24.5-7.2,28.1-7.2z"/>
			<path d="M13.7-21.6c3.6,0,6.5-2.9,6.5-6.5c0-3.6-2.9-6.5-6.5-6.5c-3.6,0-6.5,2.9-6.5,6.5C7.2-24.5,10.1-21.6,13.7-21.6z"/>
			<path d="M28.1-21.6c3.6,0,6.5-2.9,6.5-6.5c0-3.6-2.9-6.5-6.5-6.5c-3.6,0-6.5,2.9-6.5,6.5C21.6-24.5,24.5-21.6,28.1-21.6z"/>
		</g>
		<g>
			<path d="M6.5,0C10.1,0,13-2.9,13-6.5c0-3.6-2.9-6.5-6.5-6.5C2.9-13,0-10.1,0-6.5C0-2.9,2.9,0,6.5,0z"/>
			<path d="M6.5-14.4c3.6,0,6.5-2.9,6.5-6.5s-2.9-6.5-6.5-6.5c-3.6,0-6.5,2.9-6.5,6.5S2.9-14.4,6.5-14.4z"/>
		</g>
		<g>
			<path d="M35.3-28.8c3.6,0,6.5-2.9,6.5-6.5s-2.9-6.5-6.5-6.5c-3.6,0-6.5,2.9-6.5,6.5S31.7-28.8,35.3-28.8z"/>
			<path d="M20.9-28.8c3.6,0,6.5-2.9,6.5-6.5s-2.9-6.5-6.5-6.5s-6.5,2.9-6.5,6.5S17.3-28.8,20.9-28.8z"/>
		</g>
		<g>
			<ellipse transform="matrix(8.248087e-02 -0.9966 0.9966 8.248087e-02 41.105 -25.9111)" cx="6.5" cy="-35.3" rx="6.5" ry="6.5"/>
		</g>
	</g>
</pattern>
<pattern  x="-100.6" y="-202" width="83" height="65" patternUnits="userSpaceOnUse" id="Undulating_Fine_Dots" viewBox="1.8 -132.3 83 65" style="overflow:visible;">
	<g>
		<rect x="1.8" y="-132.3" class="st0" width="83" height="65"/>
		<g>
			<line class="st1" x1="84.8" y1="-67.3" x2="84.8" y2="-1.8"/>
		</g>
		<g>
			<line class="st1" x1="1.8" y1="-67.3" x2="1.8" y2="-1.8"/>
			<line class="st2" x1="6.4" y1="-70.5" x2="6.4" y2="-1.8"/>
			<line class="st3" x1="11" y1="-67.3" x2="11" y2="-1.8"/>
			<line class="st4" x1="15.6" y1="-70.5" x2="15.6" y2="-1.8"/>
			<line class="st5" x1="20.2" y1="-67.3" x2="20.2" y2="-1.8"/>
			<line class="st6" x1="24.8" y1="-70.5" x2="24.8" y2="-1.8"/>
			<line class="st7" x1="29.4" y1="-67.3" x2="29.4" y2="-1.8"/>
			<line class="st8" x1="34" y1="-70.5" x2="34" y2="-1.8"/>
			<line class="st9" x1="38.6" y1="-67.3" x2="38.6" y2="-1.8"/>
			<line class="st10" x1="43.3" y1="-70.5" x2="43.3" y2="-1.8"/>
			<line class="st1" x1="84.8" y1="-67.3" x2="84.8" y2="-1.8"/>
			<line class="st2" x1="80.1" y1="-70.5" x2="80.1" y2="-1.8"/>
			<line class="st3" x1="75.5" y1="-67.3" x2="75.5" y2="-1.8"/>
			<line class="st4" x1="70.9" y1="-70.5" x2="70.9" y2="-1.8"/>
			<line class="st5" x1="66.3" y1="-67.3" x2="66.3" y2="-1.8"/>
			<line class="st6" x1="61.7" y1="-70.5" x2="61.7" y2="-1.8"/>
			<line class="st7" x1="57.1" y1="-67.3" x2="57.1" y2="-1.8"/>
			<line class="st8" x1="52.5" y1="-70.5" x2="52.5" y2="-1.8"/>
			<line class="st9" x1="47.9" y1="-67.3" x2="47.9" y2="-1.8"/>
		</g>
		<g>
			<line class="st1" x1="1.8" y1="-67.3" x2="1.8" y2="-1.8"/>
		</g>
		<g>
			<line class="st1" x1="84.8" y1="-132.3" x2="84.8" y2="-66.8"/>
		</g>
		<g>
			<line class="st1" x1="1.8" y1="-132.3" x2="1.8" y2="-66.8"/>
			<line class="st2" x1="6.4" y1="-135.5" x2="6.4" y2="-66.8"/>
			<line class="st3" x1="11" y1="-132.3" x2="11" y2="-66.8"/>
			<line class="st4" x1="15.6" y1="-135.5" x2="15.6" y2="-66.8"/>
			<line class="st5" x1="20.2" y1="-132.3" x2="20.2" y2="-66.8"/>
			<line class="st6" x1="24.8" y1="-135.5" x2="24.8" y2="-66.8"/>
			<line class="st7" x1="29.4" y1="-132.3" x2="29.4" y2="-66.8"/>
			<line class="st8" x1="34" y1="-135.5" x2="34" y2="-66.8"/>
			<line class="st9" x1="38.6" y1="-132.3" x2="38.6" y2="-66.8"/>
			<line class="st10" x1="43.3" y1="-135.5" x2="43.3" y2="-66.8"/>
			<line class="st1" x1="84.8" y1="-132.3" x2="84.8" y2="-66.8"/>
			<line class="st2" x1="80.1" y1="-135.5" x2="80.1" y2="-66.8"/>
			<line class="st3" x1="75.5" y1="-132.3" x2="75.5" y2="-66.8"/>
			<line class="st4" x1="70.9" y1="-135.5" x2="70.9" y2="-66.8"/>
			<line class="st5" x1="66.3" y1="-132.3" x2="66.3" y2="-66.8"/>
			<line class="st6" x1="61.7" y1="-135.5" x2="61.7" y2="-66.8"/>
			<line class="st7" x1="57.1" y1="-132.3" x2="57.1" y2="-66.8"/>
			<line class="st8" x1="52.5" y1="-135.5" x2="52.5" y2="-66.8"/>
			<line class="st9" x1="47.9" y1="-132.3" x2="47.9" y2="-66.8"/>
		</g>
		<g>
			<line class="st1" x1="1.8" y1="-132.3" x2="1.8" y2="-66.8"/>
		</g>
		<g>
			<line class="st1" x1="84.8" y1="-197.3" x2="84.8" y2="-131.8"/>
		</g>
		<g>
			<line class="st1" x1="1.8" y1="-197.3" x2="1.8" y2="-131.8"/>
			<line class="st2" x1="6.4" y1="-200.5" x2="6.4" y2="-131.8"/>
			<line class="st3" x1="11" y1="-197.3" x2="11" y2="-131.8"/>
			<line class="st4" x1="15.6" y1="-200.5" x2="15.6" y2="-131.8"/>
			<line class="st5" x1="20.2" y1="-197.3" x2="20.2" y2="-131.8"/>
			<line class="st6" x1="24.8" y1="-200.5" x2="24.8" y2="-131.8"/>
			<line class="st7" x1="29.4" y1="-197.3" x2="29.4" y2="-131.8"/>
			<line class="st8" x1="34" y1="-200.5" x2="34" y2="-131.8"/>
			<line class="st9" x1="38.6" y1="-197.3" x2="38.6" y2="-131.8"/>
			<line class="st10" x1="43.3" y1="-200.5" x2="43.3" y2="-131.8"/>
			<line class="st1" x1="84.8" y1="-197.3" x2="84.8" y2="-131.8"/>
			<line class="st2" x1="80.1" y1="-200.5" x2="80.1" y2="-131.8"/>
			<line class="st3" x1="75.5" y1="-197.3" x2="75.5" y2="-131.8"/>
			<line class="st4" x1="70.9" y1="-200.5" x2="70.9" y2="-131.8"/>
			<line class="st5" x1="66.3" y1="-197.3" x2="66.3" y2="-131.8"/>
			<line class="st6" x1="61.7" y1="-200.5" x2="61.7" y2="-131.8"/>
			<line class="st7" x1="57.1" y1="-197.3" x2="57.1" y2="-131.8"/>
			<line class="st8" x1="52.5" y1="-200.5" x2="52.5" y2="-131.8"/>
			<line class="st9" x1="47.9" y1="-197.3" x2="47.9" y2="-131.8"/>
		</g>
		<g>
			<line class="st1" x1="1.8" y1="-197.3" x2="1.8" y2="-131.8"/>
		</g>
	</g>
</pattern>
<polygon class="st11" points="133.6,261.5 346.5,261.5 337.2,237.2 140.4,237.2 "/>
<path class="st11" d="M204.4,305.8h-70.9H204.4z"/>
<polygon class="st11" points="197.2,288.7 140.4,288.7 133.6,305.8 204.4,305.8 "/>
<polygon class="st11" points="275.6,305.8 346.5,305.8 337.2,288.7 283,288.7 "/>
<path class="st12" d="M389.2,207c-13.6-86.4-28-122.6-48.7-149.6c-12.8-16.6-24.6-25.3-32.2-30.8c-3.4-2.5-84.7-59.1-152.3,0.7
	c-6.3,5.6-14.7,14.1-23.1,26.5c-25.5,37.4-29.3,83.3-38.2,126C75.1,274.4,76.9,357.1,81.2,410h325.1
	C405.1,325.2,397,256.1,389.2,207z M133.6,261.5c32.7-127.2,70.9,0,70.9,0H133.6z M275.6,261.5c32.7-127.2,70.9,0,70.9,0H275.6z"/>
<path d="M283,237.2h54.3C337.2,237.2,309.9,164.5,283,237.2z"/>
<path d="M194.6,237.2c0,0-27.3-72.8-54.3,0H194.6"/>
<polyline class="st13" points="406.3,412.2 421.4,218.2 392.7,179.9 427.4,197.4 410.1,152.7 440,195.5 440,146.8 451.5,194.8 
	471.1,156.6 464.6,202.6 447,226.6 434.4,409.4 406.3,412.2 "/>
<polyline class="st13" points="64.8,412.2 49.7,216.7 78.4,178.1 43.7,195.7 61.1,150.6 31.2,193.8 31.2,144.7 19.6,193.1 0,154.5 
	6.5,201 24.1,225.2 36.7,409.4 64.8,412.2 "/>
<path class="st14" d="M389.2,207c-13.6-86.4-28-122.6-48.7-149.6c-12.8-16.6-24.6-25.3-32.2-30.8c-3.4-2.5-84.7-59.1-152.3,0.7
	c-6.3,5.6-14.7,14.1-23.1,26.5c-25.5,37.4-29.3,83.3-38.2,126C75.1,274.4,76.9,357.1,81.2,410h325.1
	C405.1,325.2,397,256.1,389.2,207z M133.6,261.5c32.7-127.2,70.9,0,70.9,0H133.6z M275.6,261.5c32.7-127.2,70.9,0,70.9,0H275.6z"/>
</svg>
