<?xml version="1.0" encoding="utf-8"?>
<!-- Generator: Adobe Illustrator 22.1.0, SVG Export Plug-In . SVG Version: 6.00 Build 0)  -->
<svg version="1.1" id="Layer_1" xmlns="http://www.w3.org/2000/svg" xmlns:xlink="http://www.w3.org/1999/xlink" x="0px" y="0px"
	 viewBox="0 0 733.4 648" style="enable-background:new 0 0 733.4 648;" xml:space="preserve">
<style type="text/css">
	.st0{fill:#8ABBE5;}
	.st1{fill:#6997CF;}
	.st2{fill:#575AA8;}
</style>
<path class="st0" d="M152,150.7c0,0-99,198.5,84.9,295.5s406.5-109.5,366.3-219.1S353,13,152,150.7z"/>
<path class="st1" d="M339,217.5c0,0-11.6,63.3-40.2,88.4s-35.7,39,2.5,40.6s62.8-19.5,68.3-3.4c0,0,29.9-25.1-2.9-27.1
	c-32.8-2-3.6,13.1-3.6,13.1s-69.3,27.6-52.7,2C326.9,305.5,339,217.5,339,217.5z"/>
<path class="st1" d="M170.6,207.5c0,0,81.6-41.2,157.9,6.5C328.5,214,289.2,195.9,170.6,207.5z"/>
<path class="st1" d="M369.1,214c0,0,83.4-55.8,143.7,3.5C512.8,217.5,454.1,189.9,369.1,214z"/>
<path class="st1" d="M374.7,271.8c0,0,12.1-73.4,149.7-27.1l-32.2,23.6c0,0-32.7,38.7-84.9,1L374.7,271.8z"/>
<path class="st1" d="M185.7,262.3c101.5-60.3,124.6,2.5,124.6,2.5l-31.7,4c0,0-25.6,30.2-70.4,0L185.7,262.3z"/>
<path class="st1" d="M333.4,383.4c0,0,22.6-22.1,57.8,0l-88.9,12.6C302.3,395.9,296.4,380.4,333.4,383.4z"/>
<path class="st1" d="M321.4,400.5l53.3-8.5C374.7,391.9,381.2,427.1,321.4,400.5z"/>
<path class="st2" d="M324.9,33.1c0,0-148.7-75.9-174.9,4s-39.2,103.5-54.8,104c-15.6,0.5-69.3,69.3-28.1,85.4s74.9,39.7,39.7,43.7
	c-35.2,4-24.7,44.5,14.5,67.3s-22.6,24.1,1,63.6s27.6,51.5-8,81.7c-35.7,30.2-43.2,64.8-13.1,76.4c30.2,11.6,78.9,47.7,78.9,47.7
	s62.3,43.7,76.9,6.5c14.6-37.2,39.7,20.1,39.7,20.1s49.2-85.4-53.3-98.5c-102.5-13.1-29.8-62.7-18.6-79.9c5.2-8,7.4-28.2,6.5-37.7
	c-6-68.5-78.7-219-35.7-272.9c14.9-18.6,114.6-31.2,114.6-31.2s76-5,101-1.5c27.5,3.8,82.8,24.7,101.5,45.2
	c22.2,24.4,41.6,92,42.2,125c0.4,19.2-12.1,76-12.1,76s18.1,112.6-34.7,158.3c-52.8,45.7,46.7,94,46.7,94s41.3-13.1,42.3,19.1
	c1,32.2,84.3,11.6,59.7-41.2c-24.6-52.8-37.7-35.8-37.7-35.8s54.3,70.5-21.1,45.9c-75.4-24.6,9.8-83.4,9.8-83.4s-33.8-70.5-7.7-53.5
	c26.1,17.1,95.3,16.5,35-60.4s-5.5-95-2-107.6c3.5-12.6,81-113.2,39.3-131.3s-95,18.1-94.5-38.7S718.9,5.7,560.1,0.6
	S335,27.1,335,27.1L324.9,33.1z"/>
</svg>
