<?xml version="1.0" encoding="utf-8"?>
<!-- Generator: Adobe Illustrator 22.1.0, SVG Export Plug-In . SVG Version: 6.00 Build 0)  -->
<svg version="1.1" id="Layer_1" xmlns="http://www.w3.org/2000/svg" xmlns:xlink="http://www.w3.org/1999/xlink" x="0px" y="0px"
	 viewBox="0 0 360.3 103.7" style="enable-background:new 0 0 360.3 103.7;" xml:space="preserve">
<style type="text/css">
	.st0{fill:none;}
	.st1{fill:none;stroke:#000000;stroke-width:0.3;stroke-linecap:square;}
	.st2{fill:#8D8282;}
	.st3{fill:url(#USGS_8_Sewage_Disposal);}
	.st4{fill:#FFFFFF;}
</style>
<pattern  x="-143.6" y="-187.5" width="72" height="74.8" patternUnits="userSpaceOnUse" id="USGS_8_Sewage_Disposal" viewBox="72.2 -74.8 72 74.8" style="overflow:visible;">
	<g>
		<rect x="72.2" y="-74.8" class="st0" width="72" height="74.8"/>
		<g>
			<line class="st1" x1="144.2" y1="-0.8" x2="216.2" y2="-0.8"/>
			<line class="st1" x1="144.2" y1="-2.5" x2="216.2" y2="-2.5"/>
			<line class="st1" x1="144.2" y1="-4.3" x2="216.2" y2="-4.3"/>
			<line class="st1" x1="144.2" y1="-6" x2="216.2" y2="-6"/>
			<line class="st1" x1="144.2" y1="-7.7" x2="216.2" y2="-7.7"/>
			<line class="st1" x1="144.2" y1="-9.3" x2="216.2" y2="-9.3"/>
			<line class="st1" x1="144.2" y1="-11" x2="216.2" y2="-11"/>
			<line class="st1" x1="144.2" y1="-12.8" x2="216.2" y2="-12.8"/>
			<line class="st1" x1="144.2" y1="-14.5" x2="216.2" y2="-14.5"/>
			<line class="st1" x1="144.2" y1="-16.2" x2="216.2" y2="-16.2"/>
			<line class="st1" x1="144.2" y1="-17.8" x2="216.2" y2="-17.8"/>
			<line class="st1" x1="144.2" y1="-19.5" x2="216.2" y2="-19.5"/>
			<line class="st1" x1="144.2" y1="-21.3" x2="216.2" y2="-21.3"/>
			<line class="st1" x1="144.2" y1="-22.9" x2="216.2" y2="-22.9"/>
			<line class="st1" x1="144.2" y1="-24.6" x2="216.2" y2="-24.6"/>
			<line class="st1" x1="144.2" y1="-26.3" x2="216.2" y2="-26.3"/>
			<line class="st1" x1="144.2" y1="-28" x2="216.2" y2="-28"/>
			<line class="st1" x1="144.2" y1="-29.7" x2="216.2" y2="-29.7"/>
			<line class="st1" x1="144.2" y1="-31.4" x2="216.2" y2="-31.4"/>
			<line class="st1" x1="144.2" y1="-33.1" x2="216.2" y2="-33.1"/>
			<line class="st1" x1="144.2" y1="-34.8" x2="216.2" y2="-34.8"/>
			<line class="st1" x1="144.2" y1="-36.5" x2="216.2" y2="-36.5"/>
			<line class="st1" x1="144.2" y1="-38.2" x2="216.2" y2="-38.2"/>
			<line class="st1" x1="144.2" y1="-39.9" x2="216.2" y2="-39.9"/>
			<line class="st1" x1="144.2" y1="-41.6" x2="216.2" y2="-41.6"/>
			<line class="st1" x1="144.2" y1="-43.3" x2="216.2" y2="-43.3"/>
			<line class="st1" x1="144.2" y1="-45" x2="216.2" y2="-45"/>
			<line class="st1" x1="144.2" y1="-46.7" x2="216.2" y2="-46.7"/>
			<line class="st1" x1="144.2" y1="-48.4" x2="216.2" y2="-48.4"/>
			<line class="st1" x1="144.2" y1="-50.1" x2="216.2" y2="-50.1"/>
			<line class="st1" x1="144.2" y1="-51.8" x2="216.2" y2="-51.8"/>
			<line class="st1" x1="144.2" y1="-53.5" x2="216.2" y2="-53.5"/>
			<line class="st1" x1="144.2" y1="-55.2" x2="216.2" y2="-55.2"/>
			<line class="st1" x1="144.2" y1="-56.9" x2="216.2" y2="-56.9"/>
			<line class="st1" x1="144.2" y1="-58.6" x2="216.2" y2="-58.6"/>
			<line class="st1" x1="144.2" y1="-60.3" x2="216.2" y2="-60.3"/>
			<line class="st1" x1="144.2" y1="-62" x2="216.2" y2="-62"/>
			<line class="st1" x1="144.2" y1="-63.7" x2="216.2" y2="-63.7"/>
			<line class="st1" x1="144.2" y1="-65.4" x2="216.2" y2="-65.4"/>
			<line class="st1" x1="144.2" y1="-67.1" x2="216.2" y2="-67.1"/>
			<line class="st1" x1="144.2" y1="-68.8" x2="216.2" y2="-68.8"/>
			<line class="st1" x1="144.2" y1="-70.5" x2="216.2" y2="-70.5"/>
			<line class="st1" x1="144.2" y1="-72.2" x2="216.2" y2="-72.2"/>
			<line class="st1" x1="144.2" y1="-73.9" x2="216.2" y2="-73.9"/>
		</g>
		<g>
			<line class="st1" x1="72.2" y1="-0.8" x2="144.2" y2="-0.8"/>
			<line class="st1" x1="72.2" y1="-2.5" x2="144.2" y2="-2.5"/>
			<line class="st1" x1="72.2" y1="-4.3" x2="144.2" y2="-4.3"/>
			<line class="st1" x1="72.2" y1="-6" x2="144.2" y2="-6"/>
			<line class="st1" x1="72.2" y1="-7.7" x2="144.2" y2="-7.7"/>
			<line class="st1" x1="72.2" y1="-9.3" x2="144.2" y2="-9.3"/>
			<line class="st1" x1="72.2" y1="-11" x2="144.2" y2="-11"/>
			<line class="st1" x1="72.2" y1="-12.8" x2="144.2" y2="-12.8"/>
			<line class="st1" x1="72.2" y1="-14.5" x2="144.2" y2="-14.5"/>
			<line class="st1" x1="72.2" y1="-16.2" x2="144.2" y2="-16.2"/>
			<line class="st1" x1="72.2" y1="-17.8" x2="144.2" y2="-17.8"/>
			<line class="st1" x1="72.2" y1="-19.5" x2="144.2" y2="-19.5"/>
			<line class="st1" x1="72.2" y1="-21.3" x2="144.2" y2="-21.3"/>
			<line class="st1" x1="72.2" y1="-22.9" x2="144.2" y2="-22.9"/>
			<line class="st1" x1="72.2" y1="-24.6" x2="144.2" y2="-24.6"/>
			<line class="st1" x1="72.2" y1="-26.3" x2="144.2" y2="-26.3"/>
			<line class="st1" x1="72.2" y1="-28" x2="144.2" y2="-28"/>
			<line class="st1" x1="72.2" y1="-29.7" x2="144.2" y2="-29.7"/>
			<line class="st1" x1="72.2" y1="-31.4" x2="144.2" y2="-31.4"/>
			<line class="st1" x1="72.2" y1="-33.1" x2="144.2" y2="-33.1"/>
			<line class="st1" x1="72.2" y1="-34.8" x2="144.2" y2="-34.8"/>
			<line class="st1" x1="72.2" y1="-36.5" x2="144.2" y2="-36.5"/>
			<line class="st1" x1="72.2" y1="-38.2" x2="144.2" y2="-38.2"/>
			<line class="st1" x1="72.2" y1="-39.9" x2="144.2" y2="-39.9"/>
			<line class="st1" x1="72.2" y1="-41.6" x2="144.2" y2="-41.6"/>
			<line class="st1" x1="72.2" y1="-43.3" x2="144.2" y2="-43.3"/>
			<line class="st1" x1="72.2" y1="-45" x2="144.2" y2="-45"/>
			<line class="st1" x1="72.2" y1="-46.7" x2="144.2" y2="-46.7"/>
			<line class="st1" x1="72.2" y1="-48.4" x2="144.2" y2="-48.4"/>
			<line class="st1" x1="72.2" y1="-50.1" x2="144.2" y2="-50.1"/>
			<line class="st1" x1="72.2" y1="-51.8" x2="144.2" y2="-51.8"/>
			<line class="st1" x1="72.2" y1="-53.5" x2="144.2" y2="-53.5"/>
			<line class="st1" x1="72.2" y1="-55.2" x2="144.2" y2="-55.2"/>
			<line class="st1" x1="72.2" y1="-56.9" x2="144.2" y2="-56.9"/>
			<line class="st1" x1="72.2" y1="-58.6" x2="144.2" y2="-58.6"/>
			<line class="st1" x1="72.2" y1="-60.3" x2="144.2" y2="-60.3"/>
			<line class="st1" x1="72.2" y1="-62" x2="144.2" y2="-62"/>
			<line class="st1" x1="72.2" y1="-63.7" x2="144.2" y2="-63.7"/>
			<line class="st1" x1="72.2" y1="-65.4" x2="144.2" y2="-65.4"/>
			<line class="st1" x1="72.2" y1="-67.1" x2="144.2" y2="-67.1"/>
			<line class="st1" x1="72.2" y1="-68.8" x2="144.2" y2="-68.8"/>
			<line class="st1" x1="72.2" y1="-70.5" x2="144.2" y2="-70.5"/>
			<line class="st1" x1="72.2" y1="-72.2" x2="144.2" y2="-72.2"/>
			<line class="st1" x1="72.2" y1="-73.9" x2="144.2" y2="-73.9"/>
		</g>
		<g>
			<line class="st1" x1="0.2" y1="-0.8" x2="72.2" y2="-0.8"/>
			<line class="st1" x1="0.2" y1="-2.5" x2="72.2" y2="-2.5"/>
			<line class="st1" x1="0.2" y1="-4.3" x2="72.2" y2="-4.3"/>
			<line class="st1" x1="0.2" y1="-6" x2="72.2" y2="-6"/>
			<line class="st1" x1="0.2" y1="-7.7" x2="72.2" y2="-7.7"/>
			<line class="st1" x1="0.2" y1="-9.3" x2="72.2" y2="-9.3"/>
			<line class="st1" x1="0.2" y1="-11" x2="72.2" y2="-11"/>
			<line class="st1" x1="0.2" y1="-12.8" x2="72.2" y2="-12.8"/>
			<line class="st1" x1="0.2" y1="-14.5" x2="72.2" y2="-14.5"/>
			<line class="st1" x1="0.2" y1="-16.2" x2="72.2" y2="-16.2"/>
			<line class="st1" x1="0.2" y1="-17.8" x2="72.2" y2="-17.8"/>
			<line class="st1" x1="0.2" y1="-19.5" x2="72.2" y2="-19.5"/>
			<line class="st1" x1="0.2" y1="-21.3" x2="72.2" y2="-21.3"/>
			<line class="st1" x1="0.2" y1="-22.9" x2="72.2" y2="-22.9"/>
			<line class="st1" x1="0.2" y1="-24.6" x2="72.2" y2="-24.6"/>
			<line class="st1" x1="0.2" y1="-26.3" x2="72.2" y2="-26.3"/>
			<line class="st1" x1="0.2" y1="-28" x2="72.2" y2="-28"/>
			<line class="st1" x1="0.2" y1="-29.7" x2="72.2" y2="-29.7"/>
			<line class="st1" x1="0.2" y1="-31.4" x2="72.2" y2="-31.4"/>
			<line class="st1" x1="0.2" y1="-33.1" x2="72.2" y2="-33.1"/>
			<line class="st1" x1="0.2" y1="-34.8" x2="72.2" y2="-34.8"/>
			<line class="st1" x1="0.2" y1="-36.5" x2="72.2" y2="-36.5"/>
			<line class="st1" x1="0.2" y1="-38.2" x2="72.2" y2="-38.2"/>
			<line class="st1" x1="0.2" y1="-39.9" x2="72.2" y2="-39.9"/>
			<line class="st1" x1="0.2" y1="-41.6" x2="72.2" y2="-41.6"/>
			<line class="st1" x1="0.2" y1="-43.3" x2="72.2" y2="-43.3"/>
			<line class="st1" x1="0.2" y1="-45" x2="72.2" y2="-45"/>
			<line class="st1" x1="0.2" y1="-46.7" x2="72.2" y2="-46.7"/>
			<line class="st1" x1="0.2" y1="-48.4" x2="72.2" y2="-48.4"/>
			<line class="st1" x1="0.2" y1="-50.1" x2="72.2" y2="-50.1"/>
			<line class="st1" x1="0.2" y1="-51.8" x2="72.2" y2="-51.8"/>
			<line class="st1" x1="0.2" y1="-53.5" x2="72.2" y2="-53.5"/>
			<line class="st1" x1="0.2" y1="-55.2" x2="72.2" y2="-55.2"/>
			<line class="st1" x1="0.2" y1="-56.9" x2="72.2" y2="-56.9"/>
			<line class="st1" x1="0.2" y1="-58.6" x2="72.2" y2="-58.6"/>
			<line class="st1" x1="0.2" y1="-60.3" x2="72.2" y2="-60.3"/>
			<line class="st1" x1="0.2" y1="-62" x2="72.2" y2="-62"/>
			<line class="st1" x1="0.2" y1="-63.7" x2="72.2" y2="-63.7"/>
			<line class="st1" x1="0.2" y1="-65.4" x2="72.2" y2="-65.4"/>
			<line class="st1" x1="0.2" y1="-67.1" x2="72.2" y2="-67.1"/>
			<line class="st1" x1="0.2" y1="-68.8" x2="72.2" y2="-68.8"/>
			<line class="st1" x1="0.2" y1="-70.5" x2="72.2" y2="-70.5"/>
			<line class="st1" x1="0.2" y1="-72.2" x2="72.2" y2="-72.2"/>
			<line class="st1" x1="0.2" y1="-73.9" x2="72.2" y2="-73.9"/>
		</g>
	</g>
</pattern>
<path class="st2" d="M8,52.8c0,0-74.9,83.9,232.7,36.2S186.4-63.3,8,52.8z"/>
<path class="st3" d="M43.7,64.9c0,0,4.5-40.7,211.6-39.7C255.3,25.2,120.1,30.7,43.7,64.9z"/>
<path class="st3" d="M107.4,75.4c0,0,268.3-20.6,182.6-41.2C289.9,34.2,282,53.8,107.4,75.4z"/>
<path class="st4" d="M20.7,63.5c0,0-35,26.7,81.3,30.3C102,93.9-2.3,90.5,20.7,63.5z"/>
<path class="st4" d="M197.4,15.2c0,0,75.7-0.1,94,10C291.4,25.2,282,12.2,197.4,15.2z"/>
</svg>
