<?xml version="1.0" encoding="utf-8"?>
<!-- Generator: Adobe Illustrator 22.1.0, SVG Export Plug-In . SVG Version: 6.00 Build 0)  -->
<svg version="1.1" id="Layer_1" xmlns="http://www.w3.org/2000/svg" xmlns:xlink="http://www.w3.org/1999/xlink" x="0px" y="0px"
	 viewBox="0 0 731.6 531.3" style="enable-background:new 0 0 731.6 531.3;" xml:space="preserve">
<style type="text/css">
	.st0{fill:#75C594;}
</style>
<g>
	<path class="st0" d="M375.6,56.2c0.5-0.2,0.8-0.3,0.8-0.3C376.1,55.8,375.8,56,375.6,56.2z"/>
	<path class="st0" d="M402.2,363.2c0,0,0.2,0.2,0.6,0.6C402.6,363.5,402.4,363.2,402.2,363.2z"/>
	<path class="st0" d="M259.8,88.1c0,0,0.3,0.2,0.7,0.5C260.3,88.3,260.1,88.1,259.8,88.1z"/>
	<path class="st0" d="M558.5,58.5c0.5-0.1,0.8-0.2,0.8-0.2C559,58.2,558.8,58.3,558.5,58.5z"/>
	<path class="st0" d="M564.8,196.9c0,0,0.3,0.2,0.6,0.6C565.2,197.1,565,196.9,564.8,196.9z"/>
	<path class="st0" d="M592.7,96c0,0,0.3,0.2,0.6,0.6C593.2,96.3,593,96.1,592.7,96z"/>
	<path class="st0" d="M686.9,186.3c0,0,0.3,0.1,0.8,0.2C687.4,186.3,687.1,186.2,686.9,186.3z"/>
	<path class="st0" d="M724.2,354.6c0,0,0.3,0.2,0.7,0.5C724.7,354.8,724.5,354.6,724.2,354.6z"/>
	<path class="st0" d="M722,489.8l-9.3-57.1c0,0,2.5-5.3,3.5-3.2c1,2.1-1.3,1.8-1.3,1.8s2.8,4.4,2.6-3.3c-0.2-7.8-5.5,0.9-5.5,0.9
		s-4.5-26.1-9.1-52.9c2.2-9.3,10.1-3.1,10.1-3.1c1.4-5.5-4.1-5.9-4.1-5.9c5.1-3.1,6.2,4.5,6.2,4.5c2.1-2.1,1.4,2,2.2,0.1
		c0.7-1.9-1.2-4-1.2-4c0.8-2.4,8,5.7,8,5.7c0.9-3.1-4.9-9.4-4.9-9.4c12-3.2,7.6-7.4,5.7-8.8c0.7,1.1,0.6,3.9-1.4,5.5
		c-2.6,2-6-1.2-6-1.2c7.3-10.8,0.4-10.7,0.4-10.7c1.7,2.9,0.5,6.4-8.9,12c-5.2,3.1-6.6,7.7-6.7,11.3c-4.1-23.6-8.1-46.9-9.1-52.4
		c-2.2-12.1,1.6-10.8,1.6-10.8c-3.4-5.8-4.2,6.8-4.2,6.8s-0.3-2.3-0.8-5.9l-0.2-3.6h-0.3c-1.6-11.2-4.2-29.7-5.7-40.8h-0.1
		c-0.5-1.9-3.3-13.7-1.7-18.7c1.7-5.5,8.7,0.8,8.7,0.8c5.2-13.7-11.5-2.8-11.5-2.8l-5.7-35.8c2-4.2,8.1-1.8,8.1-1.8
		c-0.3-5.7-5.7-4.4-5.7-4.4c4-4.4,7.2,2.5,7.2,2.5c1.4-2.6,2,1.5,2.1-0.5c0.2-2.1-2.3-3.5-2.3-3.5c0.1-2.5,9.3,3.1,9.3,3.1
		c0-3.2-7.4-7.5-7.4-7.5c10.6-6.6,5.2-9.3,2.9-10.1c1,0.8,1.7,3.5,0.2,5.7c-1.9,2.7-6.1,0.5-6.1,0.5c0.2-0.7,0.4-1.3,0.5-1.9
		c1.6,0.5,2.8,0.7,3.1,0.3c0.4-0.6-1.3-0.8-2.7-1.7c0.9-4.2,0.1-6-0.9-6.8c0.5-4-1.4-5.8-1.4-5.8c6.4,1.4,8.3-2.6,8.3-2.6
		c-5.3,1.8-12.5-1.7-15.8-3.5c6.4-0.2,12.4-0.4,17.3-0.5l-0.5-7.7l-23.6,1.8c-0.2-1.5-0.5-3-0.8-4.5c0.4-1.6,0.4-3.3-0.6-5
		c-0.1-0.2-0.2-0.3-0.3-0.5c-1.3-7.8-2.8-16.4-4.3-25.1c0.9-1.7,1.8-3.3,2.7-5c4-1.5,7.1,3.8,7.1,3.8c3.3-4.6-1.6-7-1.6-7
		c5.9-0.9,4.1,6.4,4.1,6.4c2.7-1.2,0.6,2.4,2,0.9s0.4-4.2,0.4-4.2c1.6-1.9,5.3,8.3,5.3,8.3c2-2.5-1-10.5-1-10.5
		c12.4,1.5,9.9-4,8.6-6c0.3,1.3-0.9,3.8-3.4,4.6c-3.2,0.9-5.1-3.4-5.1-3.4c10.8-7.3,4.3-9.8,4.3-9.8c0.5,3.3-1.9,6.2-12.7,7.8
		c-1.3,0.2-2.4,0.5-3.5,1c5.3-9.5,9.3-16.9,10.8-19.6c5.9-10.9,9.5-6.5,9.5-6.5c0-7.3-10,1.3-10,1.3S687,75.9,695.6,62
		c0,0,0.1,0.1,0.4,0c1.6-0.2,6.5-0.7,7.6,1.6c1.1,2.3-2.2,1.7-2.2,1.7s-0.5,0.7,1.4,3.1c2,2.5,2.2-1.8,2.2-1.8
		c5.4,0.8-1.4,8.6-1.4,8.6c10.1,1.1,6-9.1,6-9.1c3.7,1.7,10.6-2.7,10-3.8s-3.4,3.5-7.3-0.6c-3.9-4.1-7.1-3.5-7.1-3.5
		c4.1-3.6,1.6-7.1,1.6-7.1c-0.9,4.6-7.1,7.7-10.2,8.9c2.8-4.5,5.4-8.7,7.5-12.1l-6.8-3.7l-10.5,19.6c-1-2.4-3.2-6.1-7.4-6.6
		c-6.3-0.8-5.1,4.5-2.8,5.1c2.2,0.7,4.4,0.5,4.4,0.5s3.4,3.3,3.2,4.8c0,0.3,0,0.6,0.1,0.9L673,89.4c0-0.5-0.1-1-0.2-1.5
		c0.9-1.9,0-3.2-1.2-3.9c-4.1-9.6-2.9-13,0.1-14.4c0,0-5.5-4.2-6,8.9c0,0-4.6,0.7-5.5-2.5c-0.7-2.5,0.8-4.8,2.1-5.3
		c-2.4,0-8.4,0.8-0.6,10.5c0,0-8,1.6-9.3,4.5c-1-5.6-1.7-9.8-2.1-11.8c-2.2-12.1,3.4-11.1,3.4-11.1c-4.6-5.6-7,7.3-7,7.3
		s-1.4-11.7-3-24.7c3.1-1.7,5.7-5.5,5-6c-0.8-0.7-1.7,3.3-5.4,2.5c-0.3-2-0.5-4.1-0.8-6.1c0.1,0,0.1,0,0.3-0.2
		c1.1-1.1,4.6-4.6,6.9-3.5c2.3,1.1-0.6,2.7-0.6,2.7s0,0.8,3.1,1.6c3.1,0.7,0.6-2.8,0.6-2.8c4.7-2.7,4.3,7.6,4.3,7.6
		c1-0.6,1.7-1.2,2.2-1.8c5.4,8.6,13-0.3,13-0.3c0.6,4.1,9.7,7.3,10.4,6.3c0.7-1.1-5.8-0.8-4.1-6.4s-1-7.8-1-7.8
		c6.4,1.4,8.3-2.6,8.3-2.6c-5.3,1.8-12.5-1.7-15.8-3.5c6.4-0.2,12.4-0.4,17.3-0.5l-0.5-7.7l-27,2.1c1.8-2.2,4.2-6.1,2-9.8
		c-3.3-5.7-7.9-1.7-7.1,0.5c0.8,2.2,2.4,3.9,2.4,3.9s-1.2,4.7-2.8,5.3c-0.3,0.1-0.6,0.3-0.8,0.6l-12.8,1c0-0.2-0.1-0.4-0.1-0.6
		l-6.8,1.2l-9.1,0.7c1.5-0.9,3-2.1,4.3-3.7c7.5-9.2,11.9-10.2,15.3-8.4c0,0,0.7-6.9-13,0c0,0-3.7-3.5-1-6c2.1-2,5.5-2,6.8-1.2
		c-1.5-2-6.3-6.5-11.2,5.4c0,0-7.1-6-11-5.3c0,0,9.3,7.5,6.3,8.3c0,0-2.4-2-4.8-1.3c-2.4,0.7,2.7,0.2-0.1,2.2c0,0,9,1.4,4.9,6.3
		c0,0,0-5.5-6.8-4.4c0,0,5.4,6.5-1.5,9.1l-16.9,1.3c0.1-2.1-0.4-4.7-0.4-4.7c-0.7,2.5-2.2,4.1-3.8,5.1l-4.7,0.4l-0.7-0.2l-0.1,0.2
		l-3.6,0.3c-1-0.9-2.8-1.6-5.7-1.6c0,0,3.3-1.7,3.6-7.4c0.2-5.7,6.4-4.3,6.1-5.4c-0.3-1.1-10.2,0.4-12.1,4.2c0,0-4.6-10.2-12.8-2.5
		c0,0,12.5,1,8.3,5.3c0,0-3.7-2.9-3.5,0.2c0.2,3.2,1.3,3.3,1.3,3.3s2.6-2.7,3.4-0.2c0.6,1.9-2,4-4,5.4l-68.7,5.4
		c1.2-2.1,2.6-5.8,1-10.5c-2.5-7.4-6,4-6,4s2.4-0.2,3.1-1s-0.1,1.9,0.3,3.8c0.2,1-2.9,2.9-5.6,4.2l-16.1,1.3l-3.6-3.9l-4.9,4.6
		l-16.6,1.3c1.4-2.8,4.2-9.5,0.9-11.7c-4.3-2.8-9.4-4-5.8,2.8c0,0,3.2-5,3.4-1.2c0.3,3.8-11.1,11-11.1,11L420.1,38
		c-0.3-2.8-3-5.5-3-5.5c4.1,0,8.5-6.9,7.6-7.6c-1-0.7-1.6,4.6-6.9,2.5s-7.9-0.3-7.9-0.3c2.2-5-1.4-7.1-1.4-7.1
		c1,4.6-3.3,9.9-5.6,12.3c0.7-5.2,1.3-10.1,1.8-14.1l-7.7-0.6l-1.5,22.2c-1.9-1.8-5.5-4.2-9.4-3c-3.2,1-3.8,2.7-3.3,4l-6.8,0.5
		l-0.1,0.5l-18,1.3c1.9-1.5,4.3-4.1,2.2-6.5c-3.2-3.7-7.9-1-7.1,0.5c0.7,1.5,2.3,2.5,2.3,2.5s-1.3,3.1-3,3.6
		c-0.3,0.1-0.6,0.2-0.8,0.4L294,47.9c0.2-1.4-0.3-3.1-0.3-3.1c-0.8,1.7-2.3,2.7-3.9,3.4l-43.3,3.2c1-5.2,2.2-11,3.3-16.6
		c0,0,0.1,0,0.3-0.1c1.4-0.7,5.8-2.9,7.7-1.2c1.9,1.7-1.4,2.4-1.4,2.4s-0.3,0.8,2.4,2.4c2.7,1.6,1.5-2.4,1.5-2.4
		c5.3-1.1,1.7,8.6,1.7,8.6c9.8-2.5,2.4-10.6,2.4-10.6c4.1,0.3,9-6.3,8.1-7c-0.9-0.7-1.9,4.5-7,2s-7.9-0.8-7.9-0.8
		c2.5-4.8-1-7.2-1-7.2c0.7,4.6-4,9.7-6.4,11.9c1-5.1,2-10,2.8-13.9l-7.6-1.1l-3,22c-1.5-1.6-4.2-3.8-7.5-3.8c-1.3-4.1,4-5,3.2-5.9
		c-0.9-0.9-9.1,4-8.8,8.1c0,0-9.6-7.4-13,2.4c0,0,11.9-3.6,10.4,1.7c0,0-4.9-1.3-3,1.5c1.9,2.7,2.9,2.4,2.9,2.4s0.9-3.3,3-1.4
		c1.4,1.3,0.5,3.7-0.4,5.6c-0.9,0.1-2.1,0.6-2.5,2.5l-29.9,2.2c1.2-1.4,2.7-3.9,1.2-7c-2.3-4.9-6.1,2.8-6.1,2.8s2.4-0.2,3.1-0.7
		c0.6-0.5-0.1,1.3,0.2,2.5c0.2,0.6-2.2,1.6-4.6,2.5c-0.2-0.8-0.5-1.7-0.9-2.7c-2.4-5.3,4-5.8,3.2-6.8c-0.4-0.6-3.3,0.6-5.8,2.4
		c-0.6-1.8-1.7-3.2-1.7-3.2c4.1,0.6,9.5-5.5,8.6-6.3s-2.3,4.3-7.2,1.4s-7.8-1.4-7.8-1.4c2.9-4.6-0.4-7.2-0.4-7.2
		c0.3,4.7-4.8,9.3-7.4,11.4c1.4-5,2.8-9.8,3.9-13.6l-7.5-1.8l-4.8,21.7c-1.7-2.1-4.8-5-8.9-4.3c-6.3,1-3.7,5.7-1.3,5.7
		c2.3,0,4.4-0.8,4.4-0.8s4.2,2.3,4.4,3.7c0,0.3,0.2,0.5,0.3,0.8l-0.8,3.6l-11.2,0.8c-0.3-0.1-0.8-0.2-1.3-0.1c1.5-2,4.1-6.2,1-7.5
		c-4.2-1.7-9.3-2.4-5.8,2c0,0,3.3-3.4,3.5-0.9s-11.4,7.5-11.4,7.5L104.2,62c0-0.8-0.4-1.5-1.3-1.9c-0.5-0.3-1.1-0.5-1.6-0.7
		c-0.1-0.2-0.1-0.4-0.2-0.6c0.1,0,0.1-0.1,0.2-0.3c0.8-1.3,3.4-5.5,5.9-5s0,2.8,0,2.8s0.2,0.8,3.3,0.8c3.2,0,0-2.9,0-2.9
		c4-3.7,5.9,6.4,5.9,6.4c7.1-7.3-3.5-10.3-3.5-10.3c3.6-1.9,4.4-10.1,3.2-10.2s0.7,4.8-4.9,5.4c-5.7,0.6-7.1,3.4-7.1,3.4
		c-0.4-5.5-4.6-5.6-4.6-5.6c3,3.6,1.7,10.3,0.8,13.5c-1.8-4.9-3.5-9.6-4.9-13.3l-7.1,3l7.1,16l-21.6,1.6l-0.7,3.4l9.6-0.4
		c0,0,4.1-0.5,9-0.8c-0.1,0.1-0.3,0.1-0.4,0.2c-0.7,0.2-1.4,0.4-2,0.8c-0.4,0.2-0.7,0.3-0.7,0.3H65c1-7.4,4.9-5.9,4.9-5.9
		c-3.4-6-7.7,4.9-8.1,5.9l0,0c0.1-1.3,0.9-18.7,1.7-34.5c0,0,0.1,0,0.3-0.1c1.3-0.9,5.3-3.8,7.4-2.3c2.1,1.4-1.1,2.6-1.1,2.6
		s-0.2,0.8,2.8,2.1c2.9,1.2,1.1-2.6,1.1-2.6c5.1-1.9,2.9,8.2,2.9,8.2c9.4-3.9,0.8-10.8,0.8-10.8c4.1-0.3,8-7.5,6.9-8.1
		s-1.2,4.7-6.7,3c-5.4-1.7-7.9,0.4-7.9,0.4c1.8-5.2-2-7-2-7c1.4,4.5-2.5,10.1-4.6,12.8c0.3-5.2,0.5-10.2,0.7-14.2h-7.7l0.3,22.2
		c-2.1-1.6-5.8-3.8-9.7-2.2c-5.9,2.4-2.3,6.4,0,5.9s4.1-1.8,4.1-1.8s4.6,1.2,5.1,2.6c0.1,0.3,0.3,0.5,0.5,0.7L57,67.6h-0.4
		c-0.8-1.1-1.7-2.1-3-3.1c-8.7-6.7-9.3-10.3-7.3-13c0,0-6.9-1-0.9,10.7c0,0-3.7,2.8-6.1,0.5c-1.8-1.8-1.6-4.6-0.8-5.6
		c-2.1,1.1-6.9,4.8,4.6,9.4c0,0-0.5,0.4-1.2,1.1H26.4l-1,3.4l9.6,0.3c0,0,1.5-0.1,3.7-0.1c-1,1.4-1.7,2.8-1.5,4c0,0,2.8-2.4,5.2-4
		c0.9,0,1.8,0,2.8,0c-0.6,0.7-1.3,1.9-1,3.1c0.5,2,0.3-2.2,2.2,0.2c0,0,0.5-1.9,1.6-3.2c0.8,0,1.6,0.1,2.4,0.1
		c-1.3,0.6-2.5,2-2.2,4.8c0,0,6.2-3.7,8.7,1c-0.8,0.4-1.4,0.7-1.4,0.7c0.6,0.2,1.2,0.4,1.8,0.5l0.2,13.4c-2.1-0.2-4.7,0.1-4.7,0.1
		c2.5,0.7,3.9,2.1,4.8,3.4l0.1,7.5c-0.9,0.8-1.8,2.2-2,4.6c0,0-0.2-0.3-0.6-0.7c0.8-2.8-2.2-3.8-3.7-4.1c0.6,0.4,1.2,1.4,1.4,2.6
		c-1.1-0.5-2.5-0.9-4.3-1.1c-0.6-0.1-1.2-0.2-1.6-0.3c-0.2-3.6-1.7-4.4-2.9-4.4c-0.1-0.4-0.2-0.6-0.4-0.6s-0.3,0.3-0.4,0.6
		c-0.4,0.1-0.7,0.2-0.7,0.2c0.2,0.2,0.4,0.4,0.6,0.5c0,1.3,0.3,3.3,1,5.1c-0.6,2.2-2,5.1-4.7,9c-0.8,1.1-1.3,2.1-1.7,3.2
		C34.5,107,31.9,99,31,96c-3.8-11.7,1.9-11.4,1.9-11.4c-5.3-5-5.9,8.1-5.9,8.1s-4.6-17.6-8.7-33.5c0.1,0,0.1-0.1,0.3-0.2
		c0.9-1.3,4-5.2,6.4-4.4c2.4,0.8-0.2,2.8-0.2,2.8s0.1,0.8,3.2,1.1c3.2,0.3,0.3-2.8,0.3-2.8c4.3-3.3,5.2,7,5.2,7
		c7.8-6.5-2.4-10.6-2.4-10.6c3.8-1.5,5.4-9.6,4.2-9.8c-1.1-0.3,0.2,4.9-5.5,4.9s-7.4,2.7-7.4,2.7c0.2-5.5-4-6-4-6
		c2.7,3.8,0.6,10.4-0.6,13.5c-1.3-5.1-2.5-9.9-3.5-13.7L6.9,46l6.8,21.1c-2.5-0.9-6.6-1.9-9.9,0.8c-4.9,4-0.3,6.8,1.7,5.6
		c2-1.2,3.4-2.9,3.4-2.9s4.8-0.2,5.7,1c0.2,0.2,0.4,0.4,0.7,0.5l7.3,22.6c-1.2-1-2.6-1.9-4.3-2.5C8,88.4,6.3,85.1,7.4,82
		c0,0-6.9,1.1,2.3,10.5c0,0-2.7,3.8-5.6,2.3c-2.3-1.2-2.9-3.9-2.4-5.1c-1.6,1.7-5.2,6.6,7.2,7.7c0,0-4.6,7.2-3.2,10.1
		c0,0,5.7-9.3,6.9-7c0,0-1.5,2.4-0.5,4.2c1.1,1.8-0.3-2.2,2.1-0.5c0,0-0.3-7.6,5.3-5.5c0,0-5.4,1.3-3,6.5c0,0,5.3-5.9,9.1-1
		l4.3,13.3c-2.1,0.4-4.5,1.5-4.5,1.5c2.6,0,4.4,0.8,5.6,1.8l2.3,7.1c-0.7,1-1.1,2.6-0.5,5c0,0-2.3-2.3-7.8-1.1
		c-5.6,1.2-5.3-4.1-6.4-3.6c-1.1,0.5,2.2,8.1,6.2,8.7c0,0-9.1,6.1-0.1,10.9c0,0-1.3-10.3,3.6-7.9c0,0-2.2,3.7,0.8,2.7
		s2.9-1.8,2.9-1.8s-3.1-1.4-0.8-2.7c1.7-1,4.3,0.7,5.9,1.9l10.2,31.4c-3.5,1-1.2,2.6,1.2,3.7l6.1,18.8c-2.2-0.5-6-0.7-10.4,1.8
		c-6.8,3.8,5,3.8,5,3.8s-0.6-1.9-1.5-2.2s1.9-0.4,3.6-1.1c1-0.4,3.3,1.6,5.1,3.5l2.5,7.9l0.1,5.2c-2.7-1.3-9.2-4-11.6-1.4
		c-3.1,3.4-4.6,7.5,2.4,4.9c0,0-4.7-2.9-0.9-2.9c3.8,0,10.2,9.7,10.2,9.7l0.1,8.8c-1.7,0.3-3.2,1-3.8,2.3c-1.9,4.1-2.2,8.5,3.8,3.9
		c0,0-5.4-1.3-1.8-2.5c0.5-0.2,1.2-0.1,1.9,0l0.4,38.4l0.5,0.1l0.1,14.8c-1.4-1.6-3.8-3.8-6.4-2.2c-3.9,2.4-1.5,6.4,0,5.9
		s2.7-1.8,2.7-1.8s3,1.2,3.4,2.6c0.1,0.3,0.2,0.5,0.3,0.7l0.4,47.4c-1.4-0.2-3.1,0.1-3.1,0.1c1.6,0.7,2.6,2.1,3.2,3.4l0.4,49.5
		c-2.2-2.4-6.7-8-5.5-12.6c0,0-3.7,2-1.6,7.1c0,0-2.6-1.9-7.9,0.1s-5.8-3.3-6.8-2.6s3.3,7.6,7.4,7.7c0,0-8.1,7.4,1.5,10.8
		c0,0-2.8-9.9,2.4-8.4c0,0-1.6,4,1.2,2.6s2.6-2.2,2.6-2.2s-3.2-0.9-1.2-2.5s6.2,1,7.6,1.9c0.1,0.1,0.2,0.1,0.3,0.1l0.2,25.5
		c-1.3-1.1-3.7-2.4-6.9-1.4c-5,1.6,2.4,5.1,2.4,5.1s0-2-0.5-2.6s1.3,0.2,2.5,0c0.7-0.1,1.7,2.5,2.5,4.8l0.3,34
		c-1.8-1.3-6.1-4-7.6-1.4c-2,3.4-3,7.5,1.6,4.9c0,0-3.1-2.9-0.6-2.9s6.7,9.7,6.7,9.7l0.3,33.5l-3.5,15.7l3.1,1.5l0.5-2v2.3l3.4,0.8
		l0.3-7.9c0,0-0.3-5-0.1-10.1c0.9-3.5,2-7,3.2-9c0.3-0.5,0.6-0.8,0.9-1.1c1.3,1.1,2.5,3.4,2.5,3.4c0.2-0.6,0.4-1.1,0.5-1.5
		c0.6,1.3,1,2.6,1,2.6c4.1-6,2.1-7.4-0.6-7.3c-0.8-1.5-3-1-4.9-0.1l13.4-55c0,0,4.3-3.9,4.5-1.6c0.1,2.3-1.9,1.1-1.9,1.1
		s0.8,5.2,3.7-2c2.9-7.2-5.4-1.3-5.4-1.3s6-25.8,12.2-52.3c5.6-7.7,10.5,1,10.5,1c2.4-3.2,0.7-5.3-0.5-6.3l0.8-0.7
		c3.6,0.8,2.1,6.5,2.1,6.5c2.8-1.1,0.5,2.4,2,0.9c1.4-1.5,0.5-4.2,0.5-4.2c1.7-1.9,5.2,8.4,5.2,8.4c1-1.2,0.8-3.6,0.4-5.8l7.4,23.3
		c-2.8-1.6-8.7-5.6-9-10.4c0,0-2.9,3,0.6,7.2c0,0-3-1-7.5,2.5s-6.6-1.4-7.3-0.5c-0.7,0.9,5.5,6.3,9.4,5.1c0,0-5.5,9.5,4.6,9.8
		c0,0-5.6-8.7-0.2-8.7c0,0-0.3,4.3,1.9,2.1c2.3-2.2,1.9-2.9,1.9-2.9s-3.4,0.1-1.9-2c1.5-2.1,6.3-0.9,7.8-0.5c0.2,0,0.3,0.1,0.3,0
		l7.8,24.3c-1.6-0.7-4.2-1.2-7,0.7c-4.3,3,3.8,4.2,3.8,4.2s-0.6-1.9-1.2-2.3s1.2-0.2,2.4-0.7c0.6-0.3,2.4,1.9,3.9,3.8l10.2,31.9
		c-0.9-0.6-1.9-0.8-2.8-0.3c-2.1-0.3-4.3-0.2-4.8,1.7c-0.9,3.8-0.7,8.1,3,4.2c0,0-3.4-1.6-1.8-2.4c-0.6,1.2,0,2,2.8,1.7
		c0,0-0.3-0.6-0.4-1.3c0.8,0.5,1.7,1.2,2.6,2c0.4,2.2,0.5,4.8,0.6,6.5l-61.3,4.6l-0.7,3.4l9.6-0.4c0,0,16.8-1.9,23.2-0.6
		c6.3,1.3-2.4,5.7-2.4,5.7c15.7,3.8,5.3-7.5,5.3-7.5l25.5-1.6l-19.5,44.6l2.8,2.1l3.4-7.1c0,0,5-13,8.6-17s4.1,4.3,4.1,4.3
		c9.6-9.6-4.6-7.2-4.6-7.2l9.1-20l2.5-0.2l13.9,43.5l3.5-0.2l-2.1-7.6c0,0-4.8-13-4.7-18.4s6,0.5,6,0.5c0.9-13.5-8.2-2.4-8.2-2.4
		l-4.7-15.6l30-1.8l-5.3,37l3.2,1.3l1.4-7.8c0,0,1.3-13.8,3.8-18.6c2.4-4.8,5.1,3,5.1,3c6.7-11.8-6.3-5.8-6.3-5.8l1.5-9.4l1.3-0.1
		c0,0,6,3,3.4,3.8s-1.9-1.5-1.9-1.5s-5.7,2.4,3.7,2.9s-0.4-5.6-0.4-5.6s32.2-2.2,65.3-4.5c10.9,3,2.4,10.3,2.4,10.3
		c6.5,1.8,7.7-3.6,7.7-3.6c3,5.3-6.3,5.8-6.3,5.8c2.2,2.3-2.6,1.2-0.4,2.2c2.2,0.9,5-0.8,5-0.8c2.8,1-8,7.5-8,7.5
		c3.6,1.2,12-4.1,12-4.1c2.2,12.3,7.9,8.3,9.9,6.5c-1.4,0.6-4.8,0.3-6.4-1.9c-2.1-2.8,2.3-5.8,2.3-5.8c6.3,4.3,9.5,4.5,11.1,3.7
		l5.9,13.6l3.4-0.6l-2.9-7.3c0,0-6.1-12.5-6.6-17.9c-0.4-5.4,6-0.1,6-0.1c-0.5-13.5-8.4-1.6-8.4-1.6l-3.1-7.4
		c9.9-0.7,19.1-1.3,26.8-1.8l-9.4,17.3l2.6,2.3l4-6.8c0,0,4-8.2,7.6-13.2c2.2-0.2,4.3-0.3,6.1-0.4c0.1,1.1,0.1,2.1,0.1,2.1
		c1-0.9,1.8-1.6,2.4-2.3c2.6-0.2,4.6-0.3,5.8-0.4c15-1.1,12.8,2.6,12.8,2.6c7.5-2.9-7.7-4.8-7.7-4.8s16.4-0.7,33.6-1.4
		c0.7,1.7,1.2,3.1,1.2,3.1l-3.7,50.8l3.3,1.1l0.9-7.8c0,0,0.4-13.9,2.5-18.9s5.3,2.7,5.3,2.7c5.9-12.2-6.7-5.3-6.7-5.3l2.3-25.8
		c8.4-0.4,16.7-0.7,23-1V467c2.4-0.3,17-2.1,22.9-0.1c6.4,2.2-2.2,8.6-2.2,8.6c15.9,6.3,5-11.2,5-11.2l15-0.9l22,18.6l2.8-2
		l-5.8-5.3c0,0-9-6.9-12.7-11.6l22.8-1.3c4.8,2.3,1.1,8.3,1.1,8.3c6.9,0.2,6.2-5.3,6.2-5.3c0.2,0.2,0.4,0.4,0.6,0.6l-1.2,4.4
		l-0.3,0.6c-1.5,0.9-3.1,1.4-3.1,1.4c3,1.6-2.1,1.8,0.4,2.1c0.3,0,0.5,0,0.8,0l-8.6,15.8l2.6,2.3l4-6.8c0,0,0-0.1,0.1-0.3l-7.7,28.4
		l3,1.7l2.3-7.5c0,0,3-13.6,6-18.1s4.7,3.6,4.7,3.6c8.1-10.9-5.6-6.5-5.6-6.5l2.1-7.4c2.9-2,5.6-5,5.6-5c6.5,11.1,10.6,6,11.8,3.8
		c-1.2,0.9-4.5,1.4-6.9-0.3s-0.9-4.5-0.1-5.6c0.1-0.2,0.3-0.3,0.4-0.4c14.5,4.9,12.8-1.9,12.8-1.9c-2.5,1.8-5.9,1.9-11.7-2.4
		c-0.2-0.1-0.3-0.3-0.5-0.4c-1.2-0.9-2.6-2.1-4-3.4c-0.3-0.2-0.5-0.5-0.8-0.7l1.1-2l11.2-0.6c0,0,6.1,4.7,3.5,5.8
		c-2.6,1.1-2-2.3-2-2.3s-5.7,3.4,3.8,4.5c9.4,1.1-0.6-8.4-0.6-8.4s31.1-2.1,63.6-4.3l-2.2,13.9c-1.6-1.6-5.3-4.9-7.3-2.6
		c-2.6,3-4.2,6.9,0.8,5.1c0,0-2.6-3.3-0.1-2.9s5.1,10.7,5.1,10.7l-7.9,50.3l3.2,1.3l1.5-7.7c0,0,1.5-13.8,4-18.6s5.1,3.1,5.1,3.1
		c6.9-11.7-6.3-5.8-6.3-5.8l8.2-47c4.6-0.3,9.3-0.6,13.8-0.9l8.7,11.4l3.4-1.6l-4.4-6.4c0,0-1.3-1.6-3-3.8c3.5-0.2,7-0.5,10.3-0.7
		c4.1,2.5,0.6,8,0.6,8c6.9,0.2,6.2-5.3,6.2-5.3c4.8,4.3-4,7-4,7c3,1.6-2.1,1.8,0.4,2.1c2.5,0.3,4.5-2,4.5-2c3.1,0.3-5.1,9-5.1,9
		c3.9,0.2,10.1-6.7,10.1-6.7c6.5,11.1,10.6,6,11.8,3.8c-1.2,0.9-4.5,1.4-6.9-0.3c-3-2.1,0.2-6.1,0.2-6.1c14.6,4.9,12.9-1.8,12.9-1.8
		c-3.1,2.2-7.6,1.9-16.3-6.2c-1-1-2.1-1.7-3.2-2.4c13.3-0.9,23.5-1.6,27.2-1.9c15-1.2,12.9,4.3,12.9,4.3c7.5-4.1-7.8-7.6-7.8-7.6
		s7.9-0.2,18.5-0.5l0.4,0.6c-2.2-0.2-7.2-0.2-7.2,2.9c0.1,3.9,1.4,8,3.9,3.3c0,0-4.2-0.8-2.1-2.1s10.9,4.7,10.9,4.7l27.3,43l3.3-1.1
		l-4-6.8c0,0-8-11.4-9.3-16.6c-1.3-5.3,5.9-1,5.9-1c-2.6-13.3-8.6-0.3-8.6-0.3L657,446.6c6.1-0.2,12.8-0.4,19.3-0.6
		c0,0,0,0.1,0.2,0.3c1.2,1.2,4.9,5,3.3,7.2c-1.6,2.2-3.2-0.8-3.2-0.8s-1-0.1-2.3,2.9s3.3,0.9,3.3,0.9c2.6,4.9-9.8,3.6-9.8,3.6
		c5.4,9,13.2-0.1,13.2-0.1c0.6,4.1,9.7,7.3,10.4,6.3s-5.8-0.8-4.1-6.4s-1-7.8-1-7.8c6.4,1.4,8.3-2.6,8.3-2.6
		c-5.3,1.8-12.5-1.7-15.8-3.5c6.4-0.2,12.4-0.4,17.3-0.5l-0.5-7.7l-27,2.1c1.8-2.2,4.2-6.1,2-9.8c-3.3-5.7-7.9-1.7-7.1,0.5
		c0.8,2.2,2.4,3.9,2.4,3.9s-1.2,4.7-2.8,5.3c-0.3,0.1-0.6,0.3-0.8,0.6l-8.5,0.7l-6.5-10.6c2.3-1,4.1-0.7,5.7,0.1
		c0,0,0.5-4.8-7.2-2.5l-2.5-4.2c0,0,0-0.5,0.1-1.1c1,0,1.8,0.2,2.3,0.5c-0.4-0.6-1.2-1.4-2.1-1.9c0.3-1.3,0.8-2.5,1.7-1.7
		c1.7,1.5-0.6,2.1-0.6,2.1s4.3,3,1.2-4.1s-4.7,3-4.7,3s-14-22.5-28.4-45.6c-1.5-9.4,8.1-6.7,8.1-6.7c-0.8-5.6-6.1-3.9-6.1-3.9
		c3.5-4.8,7.4,1.8,7.4,1.8c1.2-2.7,2.1,1.3,2-0.7c0-2.1-2.6-3.3-2.6-3.3c-0.2-2.5,9.6,2.2,9.6,2.2c-0.3-3.2-8.1-6.8-8.1-6.8
		c9.9-7.5,4.3-9.8,2-10.3c1.1,0.7,2,3.4,0.7,5.6c-1.6,2.9-6,1.1-6,1.1c2.7-12.8-3.7-10.1-3.7-10.1c2.6,2.1,2.9,5.8-3.7,14.5
		c-3.7,4.8-3.1,9.6-2,13c-7.1-11.4-14.2-22.7-19.5-31.3c3.7-1.4,8.2-6.4,8.2-6.4c6.5,11.1,10.6,6,11.8,3.8c-1.2,0.9-4.5,1.4-6.9-0.3
		c-3-2.1,0.2-6.1,0.2-6.1c14.6,4.9,12.9-1.8,12.9-1.8c-3.1,2.2-7.6,1.9-16.3-6.2c-1-1-2.1-1.7-3.2-2.4c13.3-0.9,23.5-1.6,27.2-1.9
		c15-1.2,12.9,4.3,12.9,4.3c7.5-4.1-7.8-7.6-7.8-7.6s22.2-0.7,42.1-1.2c0,0,0,0.1,0.2,0.3c1.2,1.2,4.9,5,3.3,7.2
		c-1.6,2.2-3.2-0.8-3.2-0.8s-1-0.1-2.3,2.9s3.3,0.9,3.3,0.9c2.6,4.9-9.8,3.6-9.8,3.6c5.4,9,13.2-0.1,13.2-0.1
		c0.6,4.1,9.7,7.3,10.4,6.3c0.7-1.1-5.8-0.8-4.1-6.4s-1-7.8-1-7.8c4.5,0.9,6.7-0.7,7.7-1.8l3.8,21.2c-1.4,0-3.1,0.6-3.1,0.6
		c1.7,0.5,2.9,1.6,3.7,2.8l8.8,48.7c-2.6-2-7.9-6.7-7.6-11.5c0,0-3.3,2.6-0.4,7.2c0,0-2.9-1.4-7.8,1.5c-4.9,2.9-6.3-2.2-7.2-1.4
		c-0.9,0.8,4.6,7,8.6,6.3c0,0-6.7,8.7,3.3,10.3c0,0-4.4-9.3,1-8.7c0,0-0.9,4.2,1.7,2.3c2.6-1.9,2.2-2.6,2.2-2.6s-3.3-0.4-1.6-2.3
		s6.3-0.1,7.8,0.5c0.2,0.1,0.3,0.1,0.3,0.1l4.5,25.1c-1.5-0.9-4-1.8-7-0.2c-4.7,2.4,3.2,4.6,3.2,4.6s-0.3-2-0.9-2.4
		c-0.6-0.5,1.3,0,2.5-0.4c0.7-0.2,2.1,2.2,3.3,4.3l6,33.4c-2-1-6.6-2.9-7.8,0c-1.4,3.7-1.7,7.9,2.4,4.5c0,0-3.6-2.3-1.1-2.7
		c2.5-0.4,8.3,8.5,8.3,8.5l9,50.2l3.5,0.2L728,511c0,0-3.1-13.5-2.3-18.9c0.8-5.3,5.8,1.3,5.8,1.3C732.5,480,722,489.8,722,489.8z
		 M674.1,196.5c-0.9,1-1.7,2.1-2.2,3.1l-1.7-11c1.5-0.6,2.8-1.5,3.6-2.3c0.5,0.4,1.4,0.9,2.1,0.6c0.8,1,2,2,3.4,2.7
		C678.3,191.4,676.6,193.7,674.1,196.5z M675,185c0,0.2,0.1,0.3,0.1,0.5c-0.3,0.1-0.6,0.2-0.9,0.2C674.8,185.3,675,185,675,185z
		 M668.9,182.2c0.8,0,2-0.4,2.5-0.6c-1.3,1.1-2.2,2.1-2.2,2.1S669.1,183.1,668.9,182.2z M670.3,170.9c0,0,0,0.1,0.2,0.3
		c1.2,1.2,4.9,5,3.3,7.2c-1.6,2.2-3.2-0.8-3.2-0.8s-0.9-0.1-2.1,2.4c-0.4-2.2-0.9-5.2-1.5-9C668.1,171,669.3,171,670.3,170.9z
		 M657.4,154.3c-0.1,0.4-0.2,0.8,0,1.2c0.1,0.4,0.3,0.7,0.5,1.1l1,5.6c-0.5,1.2-1.2,2.3-1.9,2.6c-0.3,0.1-0.6,0.3-0.8,0.6l-16.8,1.3
		c2.1-3.7,4.2-7.6,6.4-11.6c0.4,0.1,0.8,0.3,1.1,0.5c0,0,0.1-0.9-0.4-1.7c2.7-4.9,5.5-9.8,8.2-14.7L657.4,154.3z M600,225.5
		l-3.8,7.1l2.2-12c0.3-0.3,0.6-0.5,0.9-0.7C599.8,222.8,600,225.5,600,225.5z M594.6,250.9c3.4-2.3,5.1,1.8,5.9,4.3
		c-3.6-0.2-8.5,1-8.5,1l0.6-3.5C593.2,252,593.9,251.3,594.6,250.9z M583.3,283.8l-2.3,14.6c-1.1-1.8-3.1-4.3-5.9-3.2
		c-2.2,0.9-2.8,2.5-2.6,3.8c-2.1-0.8-4.7-0.6-8,2.5c0,0,12.5,1,8.3,5.3c0,0-3.7-2.9-3.5,0.2s1.3,3.3,1.3,3.3s2.6-2.7,3.4-0.2
		c0.5,1.4-1,3.1-2.6,4.4c-2.2-3.8-4.9-8.4-7.7-13.2c5.8-9.8,15-25.3,20.6-34.6h-0.1c0.2-0.5,0.9-1.9,1.8-3.6l-3.2,20.7L583.3,283.8z
		 M580.2,325.7c-0.1-0.1-0.2-0.3-0.3-0.4c0.2-0.9,0.4-2,0.7-3.4c0.6,0,1.2-0.1,1.8-0.1C581.6,322.9,580.8,324.5,580.2,325.7z
		 M572.3,353.8l-7.7,48.9c-1.8-2.7-5.3-8.9-3.4-13.4c0,0-4,1.4-2.7,6.7c0,0-2.2-2.3-7.8-1.2c-5.6,1.1-5.2-4.2-6.3-3.7s2,8.1,6.1,8.8
		c0,0-9.2,6-0.3,10.9c0,0-1.1-10.3,3.8-7.9c0,0-2.2,3.6,0.8,2.7s3-1.8,3-1.8s-3-1.5-0.8-2.7s6,2,7.2,3.1c0.1,0.1,0.2,0.2,0.3,0.2
		l-3.9,25.1l-25.3-34.7c0,0,0.1-5.9,2-4.6c1.8,1.3-0.5,2.2-0.5,2.2s4.6,2.5,1.1-4.3s-4.9,3.6-4.9,3.6s-3.9-5.3-9.9-13.3
		c1.4-2.5,2.8-5.1,4.2-7.6c0.6-0.5,0.9-1.1,1-1.8c0.7-1.3,1.5-2.6,2.2-3.9c7.5-5.9,9.8,3.9,9.8,3.9c4.5-3.5,0.5-7.2,0.5-7.2
		c5.9,0.8,2,7.3,2,7.3c3-0.3-0.2,2.5,1.6,1.4c1.8-1,1.6-3.9,1.6-3.9c2.1-1.4,2.7,9.5,2.7,9.5c2.6-1.8,2-10.4,2-10.4
		c11.4,5,10.6-1,10-3.3c-0.1,1.3-2,3.4-4.6,3.4c-3.3,0-3.9-4.7-3.9-4.7c12.5-3.9,7-8.1,7-8.1c-0.5,3.3-3.6,5.4-14.4,3.8
		c-6-0.9-10,1.9-12.3,4.6c8-14.4,15.8-28.6,20.9-37.7c6.4-0.4,12.9-0.9,19.2-1.3l4,6.3l-3.4,21.7c-1.3-0.4-3.1-0.5-3.1-0.5
		C571.2,350.9,571.9,352.4,572.3,353.8z M563,439.2l0.8,1.1c-0.7,0.5-1.1,0.8-1.1,0.8S562.8,440.5,563,439.2z M522.5,385.8
		c-1.2,0-2.9,0.2-4.5,1.3c0.8-1.4,1.5-2.8,2.3-4.2L522.5,385.8z M500,401.5c0,0,1-1.8,0.8-2.5s1,0.8,2.2,1.2c0.7,0.2,0.3,3-0.1,5.4
		l-16.2,29.9c-0.6-1.4-2-3.9-3.6-4.8c0.6-0.5,4.4-3.4,4.4-1.3c0,2.3-2,1-2,1s0.6,5.2,3.8-1.9c3.2-7.1-5.4-1.5-5.4-1.5
		s6-21.5,12.6-45.4c1.1,0.2,2.6,0,4.5-0.6c0,0-2.1-1.5-3.4-3.3c0.2-0.8,0.5-1.6,0.7-2.4c0.2-0.3,0.4-0.5,0.6-0.7
		c0.3,0.5,0.8,0.7,1.3,0.3c0.1,1.2,0.7,2.7,2.2,4.4c0,0,1.1-4.5,2.9-6.3c0.8,0.4,1.4,1.1,1.9,1.7c-0.3,0.6-0.2,1.1,0.9,1.3
		c0.3,0.5,0.5,0.9,0.5,0.9c0.2-0.3,0.4-0.5,0.6-0.8c1,0,1.7-0.1,2-0.3c-0.1,0.4-0.2,0.7-0.2,0.7c2.8-1,0.4,2.4,1.9,1
		c0.8-0.8,0.9-1.9,0.9-2.8l3.4,4.5l-11.6,21.4c-0.6-1.6-2-3.9-5.3-4.5C495.3,394.8,500,401.5,500,401.5z M481.7,444.6l-5.4,9.9h-0.2
		l5.5-19.3C482.3,438.8,481.7,444.6,481.7,444.6z M498.6,346c-2.4-3.2-4.7-6.4-7.1-9.5c4.3-1.1-3.3-8.4-3.3-8.4s5.9-0.4,15.3-1
		c-0.8,1.6-1.9,3.4-3.3,5.4C496.5,337.9,497.3,342.7,498.6,346z M486.9,338.9c-3.1,1.2-7.4-0.1-14.9-7c-1.1-1-2.3-1.8-3.4-2.5
		l10.7-0.6l4.1,5.4c0,0.4,0.3,0.8,0.9,1.2L486.9,338.9z M453.5,312.9c-4.3-2.8-9.4-4-5.8,2.8c0,0,3.2-5,3.4-1.2
		c0.3,3.8-11.1,11-11.1,11l-50.7,4c3.7-6.6,6.4-11.6,7.5-13.7c5.9-10.8,8-7.4,8-7.4c1-6.7-7.6,2.7-7.6,2.7s17.3-29.2,26-43.6h-0.1
		c0.4-0.9,1.8-3.8,3.6-7l7.3,9.5l0.5-0.3l8.8,11.6c-2.2-0.4-5.5-0.5-6.8,2.4c-2,4.4,2.4,6,3.5,4.6c1-1.4,1.3-3.1,1.3-3.1
		s3.4-1,4.5-0.1c0.2,0.2,0.5,0.3,0.7,0.3l28.2,37.2c-0.1,0-0.2,0.1-0.2,0.1l-21.8,1.7C454.1,321.8,456.9,315.1,453.5,312.9z
		 M390.9,362.1c2.9-0.9,4.8-1.8,6.1-2.7c-0.9,1.3-2.7,2.6-5.8,3.9C391,362.7,390.9,362.1,390.9,362.1z M387,373.5
		c-0.9-1.5-2.8-2.1-2.8-2.1c1-0.3,1.8-0.3,2.4-0.1C386.8,372,386.9,372.7,387,373.5z M382.6,366.6c-0.8,0.5-1.4,1-2.1,1.5
		c1.6-2.8-1.2-5.4-1.2-5.4C382.3,363.1,382.8,364.9,382.6,366.6z M377.3,366.3c1.1,1.5,1.6,3.3,1.7,3.6c-1.1,1.5-1.9,3.1-2.3,4.6
		C376.9,371.7,377.1,369,377.3,366.3z M346.7,409.4c0,0,0,1.2,0.4,2.6c-1.8,0.1-4,0.9-4,0.9s0.4-0.8,1.2-2.2
		C345.3,410.6,346.1,410.1,346.7,409.4z M342.1,378.1c0.5,1.8,1.4,3.3,2.4,4.6c-1-0.9-2-1.7-3-2.6
		C341.6,379.8,341.8,379,342.1,378.1z M364,387.5c0,0-1.9-1.6-6.2-0.9c3.5-6.4,7.4-13.4,11.4-20.5c1.4-1.1,2.6-1.6,3.6-1.8
		l-2.1,29.3c-2-2.6-6-8.5-4.5-13C366.1,380.6,362.3,382.3,364,387.5z M355.9,392.4c-0.3-0.2-0.5-0.4-0.8-0.7
		c0.4,0.2,0.8,0.3,1.2,0.3C356.3,392.1,356.1,392.2,355.9,392.4z M357.8,377.4c-0.5-1.9-1.1-5.1-0.8-8.1c2.2,0.1,4.4,0.4,5,0.5
		L357.8,377.4z M347.6,374c-0.7,0.3-1.2,0.6-1.2,0.6c0.2-0.4,0.3-0.8,0.5-1.1C347.2,373.6,347.4,373.8,347.6,374z M353.4,376.5
		c-0.9-1.8-2-2.6-3.1-2.8c0.2-0.1,0.4-0.2,0.8-0.3c2.5-0.4,5,3.9,5.7,5.3c0.1,0.2,0.1,0.2,0.2,0.3l-4.3,8c-2.1-0.9-2.4-3.6-3.1-3.1
		c-0.6,0.3,0.3,2.6,1.9,4.7c-1.2-1.1-2.5-2.1-3.7-3.2C343.4,376.8,353.4,376.5,353.4,376.5z M353.1,396c-0.4,0.8-0.6,1.8-0.4,2.7
		c-0.5,0-1-0.1-1.5-0.2c0.5-0.9,1-1.9,1.6-2.8L353.1,396z M360,394.7c0,0-0.2,0.4-0.4,0.9c-0.4-0.4-0.9-0.7-1.3-1.1
		C358.8,394.4,359.3,394.5,360,394.7z M363.8,395.4c0,0-3.1-1.2-1-2.6s6.1,1.5,7.4,2.5c0.1,0.1,0.2,0.1,0.3,0.2l-0.7,9
		c-2.6-2.3-5.4-4.7-8.4-7.2C364,396.2,363.8,395.4,363.8,395.4z M371.2,362.4c0.7-1.2,1.3-2.4,2-3.6l-0.1,1.8
		C372.3,361.2,371.7,361.8,371.2,362.4z M362,369.6c-0.7-1.3-2.6-2.2-4.6-2.8c0.3-1.2,0.9-2.3,1.7-3.2c0,0-2.5,0-3.9,2.5
		c-1.5-0.4-2.7-0.5-2.7-0.5c7.2-10.1,1.2-10.6-1.2-10.4c1.2,0.4,2.9,2.6,2.4,5.2c-0.7,3.2-5.4,2.8-5.4,2.8c-1.3-13-6.5-8.5-6.5-8.5
		c2.5,0.9,3.8,3.3,2.5,9.2c-1.6-1.7-0.7-4.3-1.6-4.2c-0.9,0.1-0.9,4.6,0.6,7.7c-0.2,0.7-0.5,1.4-0.7,2.2c-0.2,0.7-0.4,1.3-0.6,1.9
		c-2.3,1.4-4.2,4-0.9,8.1c-16.9-14.6-32.8-28.2-36.9-31.6c-3.3-2.8-5-4.8-5.8-6.2c3.8-0.3,7.2-0.5,10.2-0.7c0,0.7-1.7,1.2-0.2,1.2
		c1,0,1.8-0.7,2.3-1.3c0.6,0,1.1-0.1,1.6-0.1c-0.1,2.6-2.8,8.4-2.8,8.4c3.2-0.4,6.7-8.2,6.7-8.2c7.7,9.8,9.8,4.1,10.4,1.8
		c-0.7,1.1-3.3,2.1-5.6,0.8c-1.3-0.7-1.7-2.1-1.7-3.3c0.5,0,1-0.1,1.4-0.1c15-1.1,12.8,2.6,12.8,2.6c6.4-2.4-3.5-4.2-6.7-4.7
		c0.3-0.1,0.7-0.1,0.9-0.2c6.6-0.3,29.2-1.3,47.2-2l-0.4,4.9c-1.4-0.3-3.1-0.2-3.1-0.2c1.6,0.9,2.4,2.3,2.9,3.6l-0.2,3.4L362,369.6z
		 M235.7,372.1c0-0.1-0.1-0.2-0.1-0.3h0.1C235.7,371.9,235.7,372,235.7,372.1z M247.6,356.4c4.6-12.2-2.1-10.5-2.1-10.5
		c2.3,2.4,2,6.2-5.9,13.7c-2.5,2.4-3.7,5.1-4.1,7.6l-1.6,1c-3.2-7.5-6.3-14.8-9.1-21.3c8.2-0.6,17.1-1.2,26-1.8
		c1.7,0.5,3,1.1,3.8,1.7c0,1.1,0.1,2.1,0.1,2.1s0.6-0.4,1.1-0.8c0.7,1.2,0.5,2.6,0,3.8c-0.7-0.6-1.6-1.1-2.2-1.3
		c0.6,0.6,1.1,2,0.8,3.4c-0.7,0.9-1.3,1.4-1.3,1.4l0,0l-3,2C248.9,357.1,247.6,356.4,247.6,356.4z M227.1,369.5
		c1-0.5,1.5-1.1,1.7-1.8l1.4,3.1l-2.9,1.9C227.2,371.9,227.2,370.7,227.1,369.5z M197,339.5c0.6-0.5-0.1,1.3,0.2,2.5
		c0.2,0.7-2.9,1.9-5.7,2.9l-41.3,3.1c1.5-1.9,4.4-6.4,1.1-7.7c-4.2-1.7-9.3-2.4-5.8,2c0,0,3.3-3.4,3.5-0.9s-11.4,7.5-11.4,7.5
		l-5,0.4l35-31.3c0,0,5.8-0.7,4.6,1.2c-1.2,1.9-2.2-0.2-2.2-0.2s-2.2,4.7,4.2,0.4c6.4-4.3-3.8-4.1-3.8-4.1s8-7.3,19.1-17.3
		c0,2.3,2.3,3.6,3.2,2.8c1.2-1,1.8-2.7,1.8-2.7s3.3,0,4.1,1.1c0.2,0.2,0.4,0.4,0.6,0.5l5.4,12.4l-3.8,26.6c-0.1,0-0.3-0.1-0.4-0.1
		c-0.1-0.5-0.3-0.9-0.5-1.4c-2.3-4.9-6.1,2.8-6.1,2.8S196.4,340.1,197,339.5z M114.5,366.3c1.1-1,2.2-1.9,3.3-2.9
		c-0.2,1.4-1.1,2.7-3.1,3.7C114.7,366.9,114.6,366.6,114.5,366.3z M113.4,362.5c-0.1-0.2-0.1-0.4-0.2-0.6c2.5-1.6-1.3-6.3-2.3-7.5
		c0-0.1-0.1-0.2-0.1-0.3l12.4-0.8L113.4,362.5z M75.7,353.6L75,357l9.2-0.4c-0.4,2.5-3.2,5.1-11,8c-5.7,2.1-7.8,6.5-8.6,10
		c0-24,0-47.6,0-53.2c-0.1-12.3,3.4-10.3,3.4-10.3c-2.3-6.3-5.3,6-5.3,6s1.1-33.9,1.6-50.7h-0.1c-0.1-1.9-0.9-14,1.5-18.7
		c1.3-2.5,3.3-2,5.1-0.8l14,43.3l0.5-0.1l4.5,14.1c-1.8-1.2-4.8-2.5-6.7-0.2c-3,3.4,0.5,6.5,1.7,5.6c1.3-0.9,2.1-2.5,2.1-2.5
		s3.3,0.3,4,1.5c0.1,0.2,0.3,0.4,0.5,0.6l8.1,25.3l-2.1,9.4c-1.3-0.5-3.1-0.7-3.1-0.7c1.4,1.1,2,2.6,2.3,4l-1.1,4.8L75.7,353.6z
		 M68.9,203.5c-0.9-0.2-1.7-0.2-1.7-0.2c0.8-0.7,1.6-1,2.3-1C69.7,202.9,69.4,203.3,68.9,203.5z M72,208.7c0.3-2.4-0.6-3.7-1.6-4.5
		c0.2-0.3,0.4-0.9,0.5-1.6c1.7,0.9,2.6,3.3,2.8,4.1c-0.7,2-2.1,4.5-4.4,7.8c-0.8,1.1-1.4,2.3-1.8,3.4l-2.9-9.8
		C67.6,206,72,208.7,72,208.7z M74.4,203L74.4,203C74.4,203,74.3,203,74.4,203C74.3,203,74.4,203,74.4,203z M82.5,208.5
		c-0.3,0.6-0.8,1.1-1.3,1.3l-3.6,0.3c-0.6-0.1-1-0.3-1-0.3c0.5-3,0.6-5.1,0.3-6.6c2.3,1.3,5.3,3.8,5.9,4.4
		C82.8,207.9,82.7,208.2,82.5,208.5z M78.1,224c-1-5.6-6.2-3.7-6.2-3.7c3.4-4.9,7.5,1.5,7.5,1.5c1.1-2.8,2.1,1.3,2-0.8
		s-2.7-3.2-2.7-3.2c-0.3-2.5,9.7,1.9,9.7,1.9c-0.4-2.8-6.5-5.7-8-6.4l4.2-0.2c0,0,16.8-1.9,23.2-0.6s-2.4,5.7-2.4,5.7
		c2.3,0.6,4.1,0.8,5.4,0.8c0.6,0.5,2,0.6,4.4,0.3c0,0-0.8-0.8-1.3-1.6c0.2-0.4,0.3-1,0.1-1.6c0.2,0,0.5,0,0.9,0.1
		c3.7,0.9,7.8,11.8,7.8,11.8l-11,49.8l0.5,0.2l-3.2,14.4c-1-1.9-2.9-4.5-5.7-3.6c-4.3,1.4-2.9,5.9-1.3,5.7c1.6-0.1,3-1.1,3-1.1
		s2.7,1.9,2.7,3.3c0,0.3,0.1,0.5,0.2,0.8l-5.5,24.5c-0.5,0.7-0.7,2.2-0.8,3.8l-0.6,2.4c-2-7.3-9.2-33.1-13-46.9h-0.1
		c-0.7-1.8-5-13.1-4.2-18.3c1-5.7,8.7-0.4,8.7-0.4c3.3-14.3-11.7-1.3-11.7-1.3l-4.8-16.2c0-0.7-0.2-1.2-0.5-1.6l-5-16.9
		C71.7,222.4,78.1,224,78.1,224z M104.8,201.7c0,0-4.3-6.3,1.6-7.4c0,0-3.8,4,0.9,7.1c0,0,1.3-7.8,7.2-5.7l10.7,9
		c-0.6,0.6-1.3,1.3-1.8,2l-24,1.8c0-2.4,0.2-10,2.1-8.9c0,0,0,2.8,1.8,3.8S101.8,201.6,104.8,201.7z M112.3,91.5c0,0-3-8.1-6.8-18.2
		c3.9,0.6,5.4-0.1,5.8-1.4l19.7,0.2c0,0,5.8,3.4,3.1,4s-1.8-1.6-1.8-1.6s-5.9,2,3.4,3.2c0.2,0,0.3,0,0.4,0c-0.6,0.7-1.1,1.5-1.1,2.2
		c0,0,9.6-5.1,9.5-2.6c0,0-2.5,1.3-2.5,3.4s0.8-2,2.1,0.7c0,0,3.6-6.7,7.3-2.1c0,0-5.3-1.6-5.9,4.1c0,0,7.6-2.4,8.4,3.7l-3,13.6
		c-2-0.7-4.6-1-4.6-1c2.2,1.3,3.3,2.9,3.9,4.4l-1.6,7.3c-0.9,0.5-1.9,1.3-2.5,2.9c-1.6-2.8-8.6-5-8.6-5c8.8-8.8,2.9-10.3,0.5-10.5
		c1.2,0.6,2.5,3,1.5,5.5c-0.6,1.6-2.1,2-3.4,2.1c0-1.2,0.3-2.2-0.2-2.2c-0.4,0-0.8,0.9-1,2.2c-0.7-0.1-1.1-0.2-1.1-0.2
		c0.9-13.1-5-9.4-5-9.4c2.9,1.7,3.7,5.3-1.7,14.8c-0.6,1.1-1.1,2.3-1.4,3.3c-4.3-10-7.6-17.8-8.8-20.6c-5-11.3,0.7-11.5,0.7-11.5
		C111.6,78.4,112.3,91.5,112.3,91.5z M139.9,63.3l4.9-0.3c-0.2,0.3-0.3,0.5-0.3,0.5s0.2,0,0.5,0c0,0.9,0.1,2.1,0.4,3.4
		c-1.1,0.4-2.4,0.8-3.7,1.1h-2C138.9,66.2,139.2,64.3,139.9,63.3z M178.4,60.9c0,0,6,3,3.4,3.8s-1.9-1.5-1.9-1.5s-4.9,2,1.7,2.8
		c-0.5,0.7-0.9,1.3-1.2,1.7c-0.1,0.1-0.2,0.2-0.2,0.3h-16.6c0.5-1.9,1.1-4,1.8-6.2L178.4,60.9z M166.4,72.3c-2.7,1.3-5.8,6-5.8,6
		s0.7-2.3,1.7-6C163.7,72.2,165,72.3,166.4,72.3z M147.8,63.7c-0.1-0.3-0.1-0.5-0.1-0.8C148.1,62.7,148,63.1,147.8,63.7z
		 M141.8,72.1c0.3,0.2,0.6,0.5,1,0.7c0,0-1.9,1-3.8,2.3c-1.2-1.5-3.3-3.1-3.3-3.1S137.9,72.1,141.8,72.1z M152.6,72.2
		c1.5,0,3,0,4.6,0l-1.2,5.5c-0.5-1.4-1.3-2.9-2.5-4.4C153.2,72.9,152.9,72.6,152.6,72.2z M131,116.8c-0.6,0.2-1.1,0.4-1.1,0.4
		c1.2-2.2,2.8-2.4,4.2-1.9C133.1,115.6,131.9,116.1,131,116.8z M145.7,114.8c-0.1,0.2-0.1,0.4-0.2,0.6c0,0-0.1-0.3-0.4-0.8
		C145.4,114.7,145.6,114.8,145.7,114.8z M129.9,122c0.2,0.7,0.6,1.4,1.1,2.2c0,0,0.9-2.1,2.2-3.9c1.7-0.3,3.3-0.1,3.3-0.1
		c-0.3-0.9-0.6-1.5-1-2c0.9-0.4,1.8-0.2,2.7,1c0,0-3.7,2.1-0.6,2.8c3.1,0.7,3.4-0.1,3.4-0.1s-1.9-2.8,0.6-2.7c1.9,0,3.4,2.7,4.2,4.7
		l-5.6,25.4c-3.7-8.8-7.5-17.7-11-25.8C129.3,122.9,129.6,122.4,129.9,122z M155.3,113.9c3.4-2.5,7.9,1.8,7.9,1.8
		c1.9-5.4-3.5-6.3-3.5-6.3c5.4-2.5,5.7,5.1,5.7,5.1c2.3-1.9,1.2,2.2,2.1,0.3s-0.8-4.1-0.8-4.1c1.1-2.3,7.4,6.5,7.4,6.5
		c1.2-3-3.9-9.8-3.9-9.8c12.3-1.9,8.4-6.6,6.6-8.2c0.6,1.2,0.2,3.9-2,5.3c-2.8,1.7-5.8-1.9-5.8-1.9c8.4-10,1.5-10.6,1.5-10.6
		c1.3,3.1-0.1,6.5-10.1,11c-1.2,0.5-2.2,1.2-3.1,1.9c2.5-10.6,4.4-18.8,5-21.8c2.7-12,7.4-8.9,7.4-8.9c-0.3-1-0.7-1.6-1.2-2
		c9.9,0,21.1,0.1,32.4,0.2c10.7,3.8,1.6,10.4,1.6,10.4c6.4,2.3,7.9-3,7.9-3c2.6,5.5-6.7,5.3-6.7,5.3c2.1,2.4-2.7,1.1-0.6,2.1
		c2.2,1.1,5.1-0.5,5.1-0.5c2.7,1.2-8.5,6.9-8.5,6.9c3.5,1.4,12.3-3.2,12.3-3.2c0.9,8.9,4.3,9.6,6.8,8.6c-0.2,2.6,0.4,6.7,2.6,8.3
		c0,0-10.9,1.6-4.8,9.7c0,0,3.3-9.8,6.7-5.6c0,0-3.6,2.4-0.4,2.8c3.1,0.5,3.4-0.3,3.4-0.3s-2.1-2.6,0.4-2.8c1.9-0.1,3.6,2.5,4.5,4.3
		l-7.7,56.1c-1.8-1.4-5.2-3.2-10.1-2.9c-7.7,0.5,2.8,5.6,2.8,5.6s0.3-2-0.4-2.6c-0.7-0.7,1.8,0.5,3.8,0.6c1.1,0.1,2.2,2.9,3.1,5.3
		l-0.6,4.2c-1.6,0.6-3,2-3.9,4.7c0,0,1.5-0.5,3.4-0.8l-1.9,13.7l-21.1,1.6c1.2-1.4,2.7-3.9,1.2-7c-2.3-4.9-6.1,2.8-6.1,2.8
		s2.4-0.2,3.1-0.7c0.6-0.5-0.1,1.3,0.2,2.5c0.2,0.7-2.9,1.9-5.7,2.9l-10.3,0.8c4.3-5.9-0.3-7-2.3-7.2c1.2,0.6,2.5,3,1.5,5.5
		c-0.5,1.2-1.6,1.8-2.6,2l-1.5,0.1c-0.9,0-1.6-0.2-1.6-0.2c0.9-13.1-5-9.4-5-9.4c2.3,1.4,3.3,4,0.7,10.1l-7,0.5l-1.5-3.6
		c0,0,2.8-6.4,4.6-4.7c1.7,1.7-1.7,2.3-1.7,2.3s4.7,3.3,3.3-4.5c-1.4-7.7-7.8,3.3-7.8,3.3s-7.1-16.7-15.6-36.7
		C148,145.4,152,128.4,155.3,113.9z M220.3,58c2-0.1,4-0.3,6-0.4c0.2,1,0.5,2.2,1,3.6c0,0-4.1,2.3-6.1-0.4
		C220.5,59.9,220.3,58.9,220.3,58z M235.1,64.7c-2.9-3-4.7-5.4-5.7-7.3c3.3-0.2,6.7-0.5,10.2-0.7l-1.5,11.1h-0.7
		C236.8,66.7,236.1,65.7,235.1,64.7z M255.4,72.7c-2.5,2.1-6.7,4.7-6.7,4.7c3.6,1.2,12-4.1,12-4.1c2.2,12.3,7.9,8.3,9.9,6.5
		c-1.4,0.6-4.8,0.3-6.4-1.9c-1.5-2,0.3-4.1,1.5-5.1c0.7,0,1.3,0,1.9,0c11.1,7.1,11.8,0.6,11.8,0.6c-1.8,0.7-3.7,0.7-5.8-0.6
		c12,0.4,9.9,3.4,9.9,3.4c0.8-0.2,1.4-0.5,1.7-0.8l8.6,11.2c-2.8,0.1-7.3,0.8-9.7,4.6c-2.4,3.7-0.9,5.4,0.9,5.5
		c-0.3,1.5,0.6,4,4.5,8c0,0-8.2,2.4-9,5.5c0,0,10.4-3.2,9.8-0.7c0,0-2.7,0.8-3.1,2.8c-0.3,1.6,0.6-0.5,1.4,0c0,0.1-0.1,0.1-0.1,0.2
		c0-0.1,0.1-0.1,0.1-0.2c0.2,0.1,0.3,0.4,0.5,1c0,0,2.7-3.4,5.3-2.7c0.4,0.2,0.8,0.5,1.3,0.7c0.4,0.3,0.7,0.8,1.1,1.4
		c0,0-4.9-2.5-6.6,2.9c-1.1-0.9-1.7-2.2-1.6-3c-1.1,2.2-3.1,7.8,8.1,4.9c0.4,0.5,0.8,1.2,0.9,2c-0.2,0.8-0.3,1.7-0.4,2.6l-5,11.6
		c-1.9-1.1-4.4-1.9-4.4-1.9c2,1.7,2.7,3.5,3,5l-3,6.8c-1.2,0.3-2.6,1.3-3.7,3.4c0,0-0.2-3.2-5.2-6s-1.3-6.6-2.4-6.9
		c-1.1-0.3-3.7,7.5-1.1,10.6c0,0-10.9-1.4-7.2,8.1c0,0,5.8-8.5,8-3.6c0,0-4.1,1.3-1.2,2.6s3.4,0.6,3.4,0.6s-1.4-3.1,1.1-2.6
		c1.9,0.4,2.8,3.3,3.2,5.4l-17.6,40.7l-18.6,1.4c2-2.2-0.3-4.4-1.5-5.3c0.7,1.1,0.5,3.9-1.6,5.5c-0.1,0-0.1,0.1-0.2,0.1l-3.1,0.2
		c-1.5-0.5-2.7-1.7-2.7-1.7c0.7-0.9,1.2-1.8,1.7-2.6c1.8-0.9,3.7-1.5,5.6-1.7c0.1,0.1,0.2,0.1,0.3,0.2c0-0.1-0.1-0.1-0.2-0.2
		c0.7-0.1,1.3,0,2,0c0,0-1.9-2.5-6.1-1.8c1.1-3.8-1.3-4.5-2.2-4.7c-0.2-0.7-0.6-1.5-1-2.4c-0.1-0.2-0.2-0.4-0.3-0.6
		c0-0.3-0.1-0.5-0.2-0.7c-1.2-4,4-4.9,3.2-5.7c-0.7-0.8-6.4,2.4-8.3,5.9c-0.9,0.3-1.8,0.7-2.4,1c-0.3-0.2-0.6-0.3-1-0.5
		c1.1-7,7.2-47.6,11.6-77.4c3.2-2.8,8,1.1,8,1.1c1.5-5.5-4-6-4-6c5.2-2.9,6.1,4.6,6.1,4.6c2.2-2,1.4,2.1,2.2,0.2
		c0.8-1.9-1.1-4-1.1-4c0.9-2.4,7.9,5.9,7.9,5.9c1-3.1-4.6-9.5-4.6-9.5c12.1-2.9,7.8-7.2,5.9-8.7c0.7,1.1,0.5,3.9-1.6,5.5
		c-2.7,2-5.9-1.4-5.9-1.4c7.6-10.7,0.7-10.7,0.7-10.7c1.6,2.9,0.4,6.5-9.2,11.8c-1.1,0.6-2.1,1.4-2.9,2.1
		c1.6-10.8,2.8-19.1,3.3-22.2c0.1-0.4,0.1-0.7,0.2-1.1C248.8,72.6,252.3,72.7,255.4,72.7z M281.8,71l1.4,1.9c-2.8-1.2-7.1-2-7.1-2
		S278.3,70.9,281.8,71z M308.6,64c0,0-0.5,0.9-1.1,1.8c-0.4,0-0.7,0-0.7,0c0.6-0.5,1.1-1.2,1.5-2C308.4,63.9,308.6,64,308.6,64z
		 M302.7,71.6c-0.2,0.8-0.7,1.6-0.7,1.6s0.3,0.8,3.6-0.2c1.2-0.4,1.4-0.8,1.2-1.3c1.3,0,2.6,0.1,3.9,0.1c1,1.5,1.6,3,1.6,3
		c0.7-1.1,1.1-2,1.4-2.9c1.6,0,3.2,0.1,4.8,0.1l-5.7,13.2c-1.2-2.3-3.8-5.8-7.9-5.9c-6.3-0.2-4.7,4.9-2.4,5.4
		c2.3,0.5,4.5,0.1,4.5,0.1s3.7,3,3.6,4.5c0,0.3,0.1,0.6,0.2,0.9l-2.5,5.8c-3.5-5.3-8-12-12.3-18.4c0.1,0,0.1-0.1,0.2-0.3
		c0.4-1.1,1.5-4,3.1-5.6C300.5,71.6,301.6,71.6,302.7,71.6z M331.3,72.5c-1.5,3.9-6.4,6.8-9,8.2c1.5-2.9,2.9-5.8,4.2-8.3
		C328.2,72.4,329.8,72.5,331.3,72.5z M363.8,71.8l9.6,0.1c-0.4,0.8-0.7,1.5-0.7,2.2c0,0,1.4-1.1,3.1-2.1l4.3,0.1
		c-0.3,0.5-0.4,1.2-0.3,1.8c0.3,2,0.5-2.1,2.1,0.3c0,0,0.4-1,1.1-2.1h2c-0.8,0.7-1.4,1.9-1.4,3.9c0,0,7.1-3.5,8.8,2.5l-0.3,4.2
		c-2.4-0.1-4.7,1.1-5,6c0,0,2.4-1.5,4.7-2.2l-0.4,5.8c-2.1-0.4-4.7-0.3-4.7-0.3c2.4,0.9,3.7,2.4,4.5,3.8l-0.5,7.4
		c-0.9,0.7-1.8,1.8-2.2,3.8l-0.3,0.3c-0.5-0.8-2.2-2.8-6.7-3.6c-5.6-1-3.4-5.8-4.6-5.7s-1,8.3,2.5,10.4c0,0-10.7,2.3-4.2,10
		c0,0,2.6-10,6.3-6c0,0-2,1.5-1.5,2.3l-22.1,20.5c-0.5-2.2-2-5.8-6-8.6c-6.3-4.5-1.4,6.1-1.4,6.1s1.5-1.3,1.4-2.3
		c-0.1-0.9,1.1,1.5,2.6,2.8c0.8,0.7-0.1,3.6-1,6.1l-5.7,5.3c-3.2-4.3-6.3-8.4-9.2-12.4c0.5-4.4,7-5.3,7-5.3
		c-2.8-4.9-7.4-1.1-7.4-1.1c1.9-5.9,8-1.4,8-1.4c0.2-3,2.5,0.4,1.8-1.5s-3.7-1.9-3.7-1.9c-1-2.3,10.3-2,10.3-2
		c-1.4-2.8-10.4-3-10.4-3c7.3-11.2,0.9-10.9-1.6-10.5c1.3,0.2,3.2,2.3,2.7,4.9c-0.7,3.4-5.6,3.6-5.6,3.6c-1.7-13.1-7.1-7.8-7.1-7.8
		c3.3,0.8,4.9,4.1,1.3,15.1c-0.4,1.3-0.7,2.5-0.8,3.7c-6.4-8.6-11.4-15.3-13.2-17.7c-7.4-9.7-1.5-11.6-1.5-11.6
		c-6.8-2.7-3.5,10-3.5,10s-1.2-1.7-3-4.5c2.8-5.6,6.2-12.4,9.5-18.9c0,0,0.1,0,0.4,0c1.5-0.3,6.4-1.3,7.7,0.9c1.3,2.2-2,1.9-2,1.9
		s-0.5,0.7,1.7,3s2.1-2,2.1-2c5.4,0.4-0.7,8.7-0.7,8.7c10.1,0.2,5.2-9.5,5.2-9.5c3.9,1.4,10.3-3.6,9.7-4.6c-0.7-1-3,3.8-7.3,0.1
		c-4.3-3.8-7.4-2.9-7.4-2.9c2.1-2.2,2.2-4.2,1.8-5.5c1.9,0.1,3.7,0.1,5.4,0.2v-0.1c2.4-0.1,17.1-0.8,22.8,1.6
		c6.2,2.6-2.8,8.4-2.8,8.4C373.3,90.1,363.8,71.8,363.8,71.8z M399.3,57.1c0.1,0.2,0.1,0.3,0.2,0.5c0,0,3.5-4.7,3.5-0.9
		c0,1.5-2,3.5-4.3,5.3C398.9,60.5,399.1,58.9,399.3,57.1z M407.9,72.5c4.6,2.7,0.4,8.3,0.4,8.3c0.5,0.1,1,0.1,1.4,0.1
		c0.4,0.6,0.6,1.2,0.7,1.8l0,0l0,0c0.1,0.5,0,1.1-0.1,1.7c-0.4,0.1-0.6,0.2-0.1,0.4c-0.4,1-1.1,2.1-2.2,3.3
		c-1.1,0.1-2.4,0.5-3.8,1.7c0,0,1.1-3-2.4-7.5c-3.4-4.5,1.5-6.5,0.6-7.3c-0.3-0.3-1.2,0.3-2.2,1.4c0.1-1.3,0.2-2.4,0.2-3.1
		c0-0.3,0-0.6,0.1-0.8H407.9z M451,58.9c0.7-0.8-0.2,1.9,0,3.8c0.1,0.9-2.4,2.3-4.9,3.4c-1.3-0.3-3.3,0-4.9,0.4h-1.7
		c0-0.1,0-0.3,0-0.4c1.9-1.5,5-4.1,8.7-7.2c-0.2,0.4-0.3,0.7-0.3,0.7S450.3,59.7,451,58.9z M601.3,49c-0.5-0.2-1.1-0.4-1.5-0.8
		c-0.5-0.3-0.8-0.7-1-1.1c0.6-0.6,0.3-2.6,0.3-2.6C601.9,44.3,601.9,46.7,601.3,49z M588.3,43.7c0.9-0.6,1.6-1.2,1.6-1.2
		c1,0.1,0.8,1.2,0,2.5c-0.6-0.2-1.2-0.4-1.9-0.3C588.1,44.3,588.2,44,588.3,43.7z M587,47.4c0.5-0.2,1-0.4,1.5-0.5
		c-0.7,1-1.6,2-2.3,2.8C586.5,49,586.8,48.2,587,47.4z M589.6,39.6c0.2-0.7,0.5-1.4,0.7-2.1C590.5,38.3,590.2,39,589.6,39.6z
		 M603,71.6c0.1,0.4,0.3,0.9,0.4,1.4c0,0-4.1,2.2-6.1-0.5c-0.3-0.4-0.5-0.8-0.6-1.2C598.7,71.4,600.8,71.5,603,71.6z M635.1,32.9
		l1.3,7.3c-1.7,0-2.6,0.5-2.6,0.5c1.9-3.5,0.6-5.6-0.2-6.6C634.3,33.7,634.8,33.3,635.1,32.9z M625.7,48.1c0.7,0.5,1.7,0.6,2.4,0.3
		c2.2-0.9,3.7-2.4,3.7-2.4s1.2,0.1,2.4,0.4c1.2,1.5-1.8,2.1-1.8,2.1s-0.3,0.8,2.4,2.5s1.5-2.4,1.5-2.4c0.7-0.1,1.2-0.1,1.6,0.1
		l0.9,5.1c-0.4,1.8-1,3.4-1,3.4c0.6-0.1,1.1-0.3,1.5-0.5l1.6,8.9H633c-5-3.5-5.5-6.2-4.3-8.5c0,0-6,0.2-0.6,8.5h-6.3
		c0.1-0.7,0.3-1.3,0.4-2c0.3-0.2,0.4-0.3,0.4-0.3c-0.1,0-0.3,0.1-0.4,0.1C623.5,58.7,624.6,53.3,625.7,48.1z M633.5,77
		c0.8-1.8,2.3-3.5,5.2-1.9c0,0-2.6,0.3-3.7,2.3C634.5,77.2,634,77.1,633.5,77z M630.1,75.8c0.7-0.4,1.3-0.5,1.5,0.1
		c0,0-0.1,0.1-0.3,0.4C630.9,76.1,630.5,76,630.1,75.8z M619.8,112.2c5.2-2.9,6,4.7,6,4.7c2.2-2,1.3,2.1,2.2,0.2
		c0.8-1.9-1-4.1-1-4.1c0.7-2,5.6,3.5,7.3,5.4c-0.4,1.4,0,3.1,2,4.8c-0.3,1.1-0.2,2.5,0.3,4.3c0,0,6.5-8,8.3-2.9c0,0-4.2,1-1.4,2.5
		s3.3,0.9,3.3,0.9s-1.1-3.2,1.4-2.4c1.9,0.6,2.5,3.5,2.7,5.6l-11.8,21.9c-1.4,0.5-3.1,1.2-5.1,2.2c0,0-3.7-3.5-1-6
		c2.1-2,5.5-2,6.8-1.2c-1.5-2-6.3-6.5-11.2,5.4c0,0-7.1-6-11-5.3c0,0,9.3,7.5,6.3,8.3c0,0-2.4-2-4.8-1.3c-2.4,0.7,2.7,0.2-0.1,2.2
		c0,0,9,1.4,4.9,6.3c0,0,0-5.5-6.8-4.4c0,0,5.4,6.5-1.5,9.1l-8.4,0.7c2.6-15.6,5.9-35.5,8.6-52.1c3.3-2.8,8,1.2,8,1.2
		C625.3,112.8,619.8,112.2,619.8,112.2z M642.5,119.7c0.6-0.1,1.1-0.2,1.4-0.3c0.1,0.3,0.3,0.6,0.4,0.9c0,0-4.3-0.9-6.7,0.9
		c0.4-2.8,1.5-6,4.4-4.2C642,116.9,639.4,120.2,642.5,119.7z M634.7,117.2c-0.8-3.3-4.5-7.7-4.5-7.7c1.7-0.4,3.1-0.8,4.2-1.3
		c0.9,2.2,2.4,4.6,4.5,5.2C638.9,113.5,636,115,634.7,117.2z M576.3,270.7l-7.1,13c-0.4-2.1-1.5-5.1-4.5-5c-4.5,0.2-4.4,4.9-2.8,5.1
		c1.6,0.3,3.2-0.2,3.2-0.2s2,2.6,1.7,3.9c-0.1,0.3-0.1,0.5-0.1,0.8l-5.1,9.4c-3.8-6.5-7.6-13-10.4-17.9h-0.1
		c-1.2-1.6-8.2-11.4-8.7-16.7c-0.5-5.7,8.3-2.6,8.3-2.6c-0.4-14.6-11.7,1.7-11.7,1.7l-6.4-10.6c0.5-1,1.1-1.9,1.7-2.5
		c3.9-4.2,7.5,4.4,7.5,4.4c10.5-10.2-9.2-7.5-9.2-7.5l10.2-34.7c3.6-2.9,8.1,1.8,8.1,1.8c2.2-5.3-3.2-6.4-3.2-6.4
		c5.5-2.3,5.4,5.3,5.4,5.3c2.4-1.8,1.1,2.2,2.1,0.4s-0.6-4.1-0.6-4.1c1.2-2.3,7.1,6.8,7.1,6.8c1.3-2.9-3.5-10-3.5-10
		c12.4-1.4,8.6-6.2,7-7.9c0.5,1.2,0,3.9-2.2,5.2c-2.9,1.6-5.7-2.1-5.7-2.1c8.8-9.7,1.9-10.5,1.9-10.5c1.2,3.1-0.4,6.5-10.5,10.6
		c-1.3,0.5-2.4,1.2-3.3,1.9l3.4-11.8c0,0,1-0.5,2.2-1c1,0.1,1.6-0.2,2.1-0.6c1.1-0.2,2.1-0.1,2.2,0.8c0.3,2.4-2.8,0.8-2.8,0.8
		s1.6,5.5,5.4-1.4c2.1-3.9-0.8-4.1-3.7-3.6c0-0.2,0-0.4,0-0.6c-0.1,0.2-0.2,0.4-0.3,0.6c-2.1,0.4-4.1,1.2-4.1,1.2s0.6-2.1,1.6-5.8
		c0.8-0.3,1.5-0.5,2-0.8c10.7-0.7,21.4-1.5,31.3-2.1c1.1,0.7,1.6,1.5,1.9,2.5c-2.1,0.4-1.5,1.6-0.1,2.8c-0.4,1.6-1.2,2.8-1.2,2.8
		c1.9,0.1,3.2-0.3,4.1-0.9c0.8,0.5,1.4,0.7,1.4,0.7s0.2-1.2,0-2c0.2-0.2,0.3-0.5,0.4-0.7c0.5,0.1,1.1,0.3,1.8,0.5
		c-0.4,2.6-5.4,4-5.4,4c3,1.6-2.1,1.8,0.4,2.1s4.5-2,4.5-2c3.1,0.3-5.1,9-5.1,9c3.3,0.2,8.2-4.6,9.7-6.2l-2.9,19.2
		c-3.2,1.4-5.1,3.4-0.7,4.6l-1.3,8.4c-2.5-1.7-8.4-5.4-11.2-3.2c-3.6,2.8-5.8,6.6,1.6,5.2c0,0-4.2-3.6-0.5-3s8.5,11.3,8.5,11.3
		l-2.1,13.7l-12.6,23.4L576.3,270.7z M561.6,305.7l0.6,0.9c-1.9,1.5-3.9,3.6-3.9,3.6s1.1-1.8,2.8-4.8
		C561.3,305.5,561.5,305.6,561.6,305.7z M563,307.8l5,7.8l-10.9,0.9c0.3-0.6,0.6-1.1,0.9-1.6C560.1,310.8,561.8,308.8,563,307.8z
		 M551.1,316.9l-36.6,2.9c-0.3-0.1-0.5-0.1-0.8-0.2c3.2-11.4,5.9-8.6,5.9-8.6c-0.6-6.7-6.7,4.4-6.7,4.4S523,283,528,267h-0.1
		c0.2-1.1,1.1-5.1,2.4-9.2l20.1,31.3l0.5-0.2l7.9,12.5c-2-0.7-5.2-1.2-6.6,1.5c-2,4.1,2.1,6.2,3.1,5s1.4-2.9,1.4-2.9s0.4-0.1,1-0.1
		L551.1,316.9z M542.4,332.9l-20.2,37.2c-2.4-0.4-3.7-3.7-3.7-3.7c11.3-6.7,4.9-9.5,4.9-9.5c0.2,3.2-2,5.8-11.6,6.9
		c-2.4-3.3-5-6.7-7.5-10.1c1.2-4.3,2.4-8.5,3.4-12.3c1,0,1.6,0.1,1.6,0.1c-0.2-1.1-0.6-1.8-1-2.4c0.2-0.6,0.3-1.2,0.5-1.8
		c1.1,0.9,1.8,1.9,1.8,1.9c1.1-2.9,2.2,1.1,2.1-1c-0.1-2.1-2.9-3-2.9-3c-0.3-2.6,10.2,1,10.2,1c-0.5-3.2-8.7-5.8-8.7-5.8
		c1.7-1.5,3-2.8,3.9-4c9.4-0.6,20.5-1.4,31.9-2.2L544,330c-1.1-0.9-2.8-1.5-2.8-1.5C542.4,329.9,542.6,331.5,542.4,332.9z
		 M511.5,374.8c-0.5-0.6-1.1-1.8,0-2.2C511.6,373.3,511.6,374.1,511.5,374.8z M499.7,370.8c0,0-0.1,0-0.1-0.1
		c0.3-0.9,0.5-1.9,0.8-2.8c0.8-0.6,1.9-1.1,3-1.4C501.7,367.8,500.5,369.3,499.7,370.8z M518.6,372.8c-0.2-0.9-0.4-1.6-0.4-1.6
		c1.2,0.2,2.3,0.4,3.2,0.4l-1.5,2.8C519.4,373.9,519,373.4,518.6,372.8z M505.2,363c-0.2-0.2-0.4-0.5-0.5-0.7L505.2,363z
		 M502.2,310.3c-2.5-7.4-6,4-6,4s2.4-0.2,3.1-1c0.6-0.8-0.1,1.9,0.3,3.8c0.2,1-2.9,2.9-5.6,4.2l-12.9,1c-6.7-9-11.9-16-13.8-18.4
		c-7.3-9.7-3.1-10.4-3.1-10.4c-5.8-3.5-1.1,8.2-1.1,8.2s-19.1-27.5-28.5-41.1h-0.1c-0.6-0.6-2.4-2.7-4.3-5.3
		c1.1-1.5,2.2-2.7,3.3-3.4c4.7-3.2,6.3,6,6.3,6c12.6-7.5-7.2-9.4-7.2-9.4l5.3-9.3l2.5-1.6c4.6,0.2,4.9,6.8,4.9,6.8
		c5.1-2.5,1.8-7,1.8-7c5.6,1.9,0.6,7.6,0.6,7.6c3,0.3-0.6,2.4,1.3,1.7c1.9-0.7,2.3-3.5,2.3-3.5c2.4-0.9,0.8,9.8,0.8,9.8
		c2.9-1.3,4-9.8,4-9.8c10.2,7.1,10.6,1.1,10.4-1.3c-0.4,1.3-2.6,3-5.1,2.4c-3.2-0.7-2.9-5.4-2.9-5.4c13-1.4,8.4-6.6,8.4-6.6
		c-1.1,3.1-4.6,4.6-14.9,0.9c-1.3-0.5-2.5-0.7-3.7-0.8l10.4-6.6c0,0,6.8,1.7,5.4,3.7s-2.6-1.3-2.6-1.3s-2.4,5.2,5,2.5
		s-4.6-7.1-4.6-7.1s1.6-1.1,4.4-2.9c1,2.1,1.7,4.2,1.7,4.2c0.9-1.1,0.8-3.4,0.3-5.6c4.2-2.7,10.1-6.6,17-11
		c-3.9,4.5,6.4,1.8,6.4,1.8s-1.1-1.7-2-1.8s1.7-0.8,3.2-2c0.8-0.6,3.6,0.7,5.8,2l18.3,28.6c-3,0.3-9.9,1.5-10.6,5
		c-0.8,4.5,0.1,8.8,4.6,2.9c0,0-5.5,0.1-2.3-1.9s13.8,2.8,13.8,2.8l3.4,5.3l-5.6,21.1l0.5,0.2l-3.8,14.3c-0.9-1.9-2.7-4.6-5.5-3.8
		c-4.4,1.3-3.1,5.7-1.6,5.7c1.6-0.1,3.1-1,3.1-1s2.6,2,2.5,3.4c0,0.3,0.1,0.5,0.1,0.8l-7.6,28.2h-0.2c-0.7-5.1-4.6-2.9-4.6-2.9
		c1.1,0.7,1.8,1.6,1.9,3.1l-4.3,0.3C502.4,318.8,503.8,315.1,502.2,310.3z M372.2,285.6c-4.1,2.1-2,6.2-0.5,5.9
		c1.5-0.4,2.8-1.5,2.8-1.5s2.9,1.5,3.1,2.9c0,0.3,0.2,0.5,0.3,0.7l-2.8,37.6l-15.1,1.1c1.9-1.5,4.3-4.1,2.2-6.5
		c-3.2-3.7-7.9-1-7.1,0.5c0.7,1.5,2.3,2.5,2.3,2.5s-1.3,3.1-3,3.6c-0.3,0.1-0.6,0.2-0.8,0.4l-23.8,1.8c-0.1-0.4-0.2-0.8-0.2-0.8
		c-0.2,0.3-0.5,0.6-0.8,0.8l-5.7,0.4c-2.1-0.7-4.7-2.2-8.1-4.7c-4.9-3.6-9.7-3-13-1.7c20.1-13.1,39.9-25.9,44.6-29
		c10.3-6.8,10.5-2.8,10.5-2.8c4-5.4-7.9-1.2-7.9-1.2s15.8-9.6,29.9-18.1l-0.8,10.7C377.1,286.6,374.8,284.3,372.2,285.6z
		 M309.3,336.1c0.5-1.6-0.1-3.3-0.1-3.3c1.5,1.1,1.9,2.2,1.8,3.2L309.3,336.1z M284.2,332.6c1.2-3.3,3.3-7.3,6.6-8.5
		c0,0-3.7-2-6.8,2.5c0,0,0.2-3.2-4.4-6.6s-0.4-6.7-1.5-7.1c-1.1-0.5-4.6,7-2.4,10.4c0,0-0.8-0.2-2-0.3c-4.3-3.9-8.4-7.7-11.6-10.6
		v0.1c-1.6-1.2-11.2-8.4-13.2-13.3c-2.2-5.3,7.2-4.9,7.2-4.9c-4.8-13.8-10.7,5.1-10.7,5.1l-9.7-8.5c3.2,0.7,3.8-2.6,3.9-4.2
		c-0.5,1.2-2.9,2.6-5.4,1.7c-1.1-0.4-1.7-1.2-2-2.1c0.7-1.3,1.3-2.5,2.1-3.6c5-0.2,6.8-1.4,7.3-2.7c1.5,1.9,2.2,4.8,2.2,4.8
		c11.9-8.5-7.9-8.7-7.9-8.7l15.2-32.9c4-2.4,7.8,3,7.8,3c2.9-4.9-2.2-6.8-2.2-6.8c5.8-1.5,4.6,6.1,4.6,6.1c2.6-1.4,0.8,2.4,2,0.7
		c1.3-1.6,0-4.2,0-4.2c1.5-2.1,6,7.8,6,7.8c1.7-2.7-2-10.4-2-10.4c12.4,0.4,9.5-4.9,8-6.8c0.4,1.3-0.5,3.9-3,4.8
		c-3.1,1.2-5.3-2.9-5.3-2.9c5.5-4.5,6.1-7.1,5.4-8.5c0.3-0.2,0.5-0.4,0.8-0.6c-0.3,0.1-0.6,0.2-1,0.2c-0.6-0.9-1.7-1.2-1.7-1.2
		c0.1,0.4,0.1,0.8,0.1,1.1c-0.8-0.1-1.7-0.4-2.4-0.8l0,0c1.7-1.4,3.4-2.9,5.2-4.5c7.9,3.9,8.5-1.3,8.5-1.3c-1.9,0.7-3.9,0.7-6.1-0.8
		c6.2-5.3,12.5-10.7,17.2-14.6v-0.1c0.6-0.6,2.7-2.8,5.2-5c5.3-0.4,10-0.7,13.8-1c0,1.3-0.2,2.2-0.2,2.2c3.2-0.7,4.7-1.6,5.3-2.6
		c1.5-0.1,2.6-0.2,3.5-0.3c15-1.1,12.8,2.6,12.8,2.6c7.5-2.9-7.7-4.8-7.7-4.8s22.2-1,42.1-1.8c-1.4,0.8-2.9,2-4.4,3.6
		c-5.7,6.2,6.2,1.7,6.2,1.7s-1.2-1.6-2.2-1.5c-1,0,1.8-1.1,3.3-2.5c0.9-0.8,3.8,0.2,6.2,1.3l6.7,8.8l-0.6,8.1
		c-2.6-1.5-8.8-4.7-11.4-2.3c-3.3,3.1-5.2,7.1,2,5.1c0,0-4.5-3.2-0.7-2.9s9.4,10.5,9.4,10.5l-3.4,49.7l-7.6,5.1
		c0.6-2,1.1-5.2-1.6-6.5c-4.1-2-6.2,2.2-4.9,3.2c1.2,1,2.9,1.3,2.9,1.3s0.6,3.2-0.4,4.3c-0.2,0.2-0.3,0.4-0.4,0.7l-39.5,26.1
		c-0.6-1.3-1.8-2.6-1.8-2.6c0.3,1.8-0.3,3.3-1.1,4.5l-38.8,25.7C285.2,333.5,284.7,333.1,284.2,332.6z M220.6,300.6l-5.9,13.5
		c-0.4-1.3-1.1-3-2.3-3.9c0.7-0.2,1.1,0.1,1.1,0.1c-0.6-2.8-1.8-2.3-2.9-0.8c-0.3,0-0.6,0-0.9,0c-0.5,0.1-1,0.2-1.4,0.4
		c0.7-3.7,1.6-9,2.7-14.8c0.8,0,1.8-1.1,2.8-3.9c0,0-1.2,0.4-2.2,0.5c0.1-0.8,0.3-1.6,0.4-2.4c2.2-1.1,6.3-1.1,9.3-0.9
		c-0.3,0.5-1,0.9,0.1,0.7c0.5-0.1,0.8-0.3,1.2-0.6c1.4,0.1,2.3,0.2,2.3,0.2l0,0l-5,11.6L220.6,300.6z M207.2,343.8
		c4.2-8.3,6.2-5.6,6.2-5.6c0.4-6.7-7.3,3.3-7.3,3.3s2.5-5.2,5.9-12.3l6,13.8L207.2,343.8z M197.2,295.1c-0.9-0.4-2-0.9-3.2-1
		c0.6-0.6,1.3-1.2,2-1.8L197.2,295.1z M156,230.6l1.7,1.4C156.6,231.8,155.4,231.3,156,230.6z M150.4,216.7
		c-0.8-3.2-3.9-7.4-3.9-7.4c1.6-0.3,3-0.6,4.1-0.9l7.7-0.5l7.7,17.6c-1.3-0.1-3.3-0.1-5.3,0.2C157.3,222.7,153.8,219.7,150.4,216.7z
		 M135.6,216.2c0,0-1.9-0.4-4.7,1.3l0.3-1.4c1.1-1,2.3-1.2,3.4-1C134.9,215.4,135.2,215.8,135.6,216.2z M113.3,214.6
		c-1-1.9-2.7-3.8-2.7-3.8l16.1-1l-1.8,8.3c-2.4-1.9-8-6-11-4C113.7,214.3,113.5,214.4,113.3,214.6z M139.1,183.4
		c0.3,0.5,0.4,1.1,0.5,1.7c0.1,1.4-0.7,2.4-1.6,3.1C138.3,186.9,138.6,185.3,139.1,183.4z M136.8,200.8c0.3-5.9,7.1-2.7,7.1-2.7
		c-0.2-1,0.1-1.3,0.4-1.4c0.1,0.5,0.4,1.2,1.1,2.1c0,0,0.5-0.5,1.1-1c-0.9,1.7-3,3.5-6.9,5.6c1.5-1.9,4.3-2.9,4.3-2.9
		C140.2,196.4,136.8,200.8,136.8,200.8z M141.2,195.1c0.1,0,0.1,0,0.2,0C141.3,195.1,141.3,195.1,141.2,195.1
		C141.3,195.1,141.3,195.1,141.2,195.1z M155.1,204.3c-0.2-1.3-1.3-2.5-2-3.1c0.4,0.7,0.4,2.1-0.2,3.3l-2.7,0.2
		c0.7-0.9,1.8-2.5,2.3-4c0.1,0.1,0.3,0.2,0.6,0.5c-0.1-0.3-0.3-0.5-0.6-0.5c0.5-1.5,0.5-3-1.2-3.7c-0.6-0.3-1.3-0.5-1.9-0.7
		c-0.3-2.1-2.6-2.3-2.6-2.3c0.2,0.6,0.4,1.1,0.4,1.7c-1.1-0.2-2-0.1-2.5,0.2c-0.2-0.2-0.4-0.3-0.7-0.4c0.1-0.1,0.2-0.3,0.3-0.4
		c0.5,0,0.8-0.1,0.8-0.1s-0.1-0.3-0.3-0.7c0.2-0.4,0.4-0.8,0.6-1.2c0.1-0.2,0.2-0.4,0.3-0.6c1.1-0.3,2.2-0.5,3.1-0.6
		c1.1,0.6,2.4,1.5,3.5,2.5l4.3,9.8L155.1,204.3z M181,206.5c0,0,0.3,0.2,0.8,0.4c-0.3-0.2-0.7-0.3-1-0.4H181z M184.2,210.3
		c-1.1,0.3-1.5,0-1.7-0.4C183,210,183.6,210.2,184.2,210.3z M164.9,207.5l3.3-0.2c-0.1,0.2-0.2,0.4-0.3,0.6
		c-0.7,1.2-1.1,2.4-1.4,3.5L164.9,207.5z M170,220.1c1-4.5,7.5-3.6,7.5-3.6c-1.6-5.5-6.5-3-6.5-3c2.9-5.2,7.6,0.8,7.6,0.8
		c0.8-2.9,2.3,1,1.9-1c-0.3-2-3-2.9-3-2.9c-0.2-1.1,1.5-1.1,3.6-0.7c-0.8,0.7-0.6,1.7,5.1,2.1c9.4,0.5-0.4-5.6-0.4-5.6
		s14.3-1,33.6-2.3l-1,7.5c-2.5-1.7-8.5-5.3-11.3-3.1c-3.5,2.9-5.7,6.7,1.7,5.2c0,0-4.3-3.5-0.5-3c3.8,0.6,8.7,11.2,8.7,11.2
		l-4.4,31.7c-3.9-6.2-6.6-2-6.6-2c3.1,0.2,5.4,2.8,5.2,12.2l-0.7,4.8l-8.3-7.4c0,0-0.3-7,2-6.2c2.3,0.7-0.5,2.8-0.5,2.8
		s5.6,0.8,1-5.5c-4.7-6.3-5.5,6.4-5.5,6.4s-2.8-2.4-7.3-6.3c2,0.5,3.9,1.5,3.9,1.5c1.1-8.7-3.4-7-7.1-4.3c-2.9-2.5-6.2-5.4-9.9-8.5
		L170,220.1z M228.8,188.2c0,0-0.4-0.1-1-0.2l0.1-0.7c0,0,0.4-0.2,0.9-0.6C229,187.2,229,187.6,228.8,188.2z M227.3,191.4
		c0.9,0.8,1.4,0.7,1.4,0.7s0.9-3.3,3-1.4c1.3,1.2,0.6,3.4-0.3,5.2c-0.7,0.4-1.5,0.9-2.3,1.4c-0.9,0.5-1.7,1.1-2.4,1.7h-0.5
		L227.3,191.4z M231.6,203c2.7,0.6,3.2,5.2,3.2,5.2c2.2-2,1.4,2.1,2.2,0.2c0.8-1.9-1.1-4-1.1-4c0.9-2.4,7.9,5.9,7.9,5.9
		c0.7-2.1-1.7-5.7-3.3-7.8c2.7-0.2,5.3-0.4,8-0.5c-1.4,1.3,4.1,6.1,4.1,6.1s0.8-1.8,0.3-2.6s1.7,0.9,3.5,1.5c0.1,0,0.1,0,0.2,0.1
		c-0.3,2.6-3.2,5.1-3.2,5.1c1.9,0.5,3.4,0.4,4.5,0c0,0.3,0,0.5,0.1,0.8l-0.4,0.9c-1.4,0.3-2.7,0.4-2.7,0.4c2.2,2.3-2.6,1.2-0.4,2.2
		c0.6,0.3,1.3,0.3,1.9,0.2l-2,4.6c-1.6,1.1-2.9,1.9-2.9,1.9c0.6,0.2,1.3,0.2,2.1,0.1l-7.3,16.9l-3,2.7c-2.3-2.5-6.1-5.8-8.8-4.6
		c-4.2,1.8-7.3,5,0.2,5.4c0,0-3.2-4.6,0.3-3c1.6,0.7,2.9,3.5,3.8,6.4l-4,3.7c-0.8-1.2-2.1-2.3-2.1-2.3c0.5,1.7,0.2,3.3-0.4,4.6
		l-6,5.6c-3.1-0.3-6.8,0.3-6.8,0.3c2-5.8,1.5-8.5,0.3-9.5c0.3-0.7,0.6-1.3,1-1.9c3.3-4.7,8,3.5,8,3.5c9.2-11.4-10-6.3-10-6.3
		l5.8-35.7c3.2-3.3,8.3,0.8,8.3,0.8c1.5-5.5-4-6-4-6c0.4-0.2,0.8-0.4,1.1-0.5C230.4,203.1,231,203,231.6,203z M287.8,95.4
		c0.2-0.2,0.4-0.5,0.6-0.7s0.4-0.4,0.6-0.5c-0.1,0-0.2,0-0.3,0c0.9-1.3,1.3-2.5,1.3-2.5s4.8-2,6-1.3c0.2,0.1,0.5,0.2,0.9,0.2l1,1.4
		c-1.3-0.6-5.4-1.5-4.8,9.6c0,0-4.6,1.1-5.7-2C286.8,98.1,287.2,96.5,287.8,95.4z M299.8,107.2c-5.1-9.4-4.4-13.1-1.6-14.8l7.4,9.7
		l-2.8,6.5c-0.8,0-1.6,0-2.4-0.1C300.2,108.1,300,107.6,299.8,107.2z M327.4,130.5l4.5,5.8c-0.4,1.2-0.3,2.9,1,4.9c0,0-3-1.3-8.2,2
		c-3.9,2.5-5.7,0.2-6.7-0.7c2.5-1.6,0.9-4.3,0-5.5c0.4,1.3-0.5,3.9-3,4.8c-3.1,1.2-5.3-2.9-5.3-2.9c10.2-8.2,3.5-10.1,3.5-10.1
		c0.7,3.2-1.4,6.3-12,8.9c-1.3,0.3-2.4,0.7-3.4,1.3c4.3-9.6,7.6-17.2,8.9-20.2c0.1,0.8,0.5,1.7,1.4,2.6c0,0,3.5-7.7,8.9-4.5
		l8.3,10.9c-2,1.2-4.1,3.1-4.1,3.1C323.8,130,325.8,130,327.4,130.5z M389.5,115.5c0.1,0.2,0.2,0.3,0.3,0.5l-3.9,56.4
		c-1.9-1.3-5.4-2.9-10.3-2.2c-7.7,1,3.2,5.4,3.2,5.4s0.2-2-0.6-2.6c-0.7-0.6,1.9,0.3,3.8,0.3c1.1,0,2.4,2.7,3.4,5.1l-0.6,8.1
		l-5.6,0.4c-4.8-6.5-12-16.1-19.7-26.5c4.1-2.7,1-5.3,1-5.3c-0.3,1.4-1,2.5-2.5,3.2c-0.8-1.1-1.7-2.2-2.5-3.4c0.8,0.2,2.1,0,4.4-1.3
		c6.9-3.9-5.7-6.3-5.7-6.3S371,132.2,389.5,115.5z M399.9,94.3c-0.5,0.4-0.9,0.8-1.3,1.2c0.1-1.6,0.3-3.2,0.4-4.7
		C399.8,91.6,399.9,93,399.9,94.3z M414.7,77.3l1.2,1.9c0,0.1-0.1,0.2-0.1,0.3c-0.5-0.5-1-1-1.4-1.4
		C414.6,77.8,414.7,77.5,414.7,77.3z M437.4,79c-0.2,0.1-0.3,0.1-0.4,0.1c0-0.7-1.1-1.4-1.5-1.8c0-0.2,0-0.3,0.1-0.5
		c0.6-0.6,1.2-0.8,1.7-0.7C438.1,77.3,438.6,78.6,437.4,79z M413.4,98c-1-1.1-1.8-1.9-1.8-1.9c1.2-0.4,2.3-0.8,3.2-1.2
		c0,0.1-0.1,0.1-0.2,0.2C413.9,96.2,413.5,97.2,413.4,98z M420.7,87.1c0.1,0.3,0.3,0.5,0.4,0.8c-0.4,0-0.9,0-1.3,0
		C420.1,87.6,420.4,87.3,420.7,87.1z M402.4,103.7c1.9,0.5,3.5,1.6,3.5,1.6c0.4-2,0-3.2-0.7-4.1c0.4-0.4,0.8-0.7,1.2-1.1
		c1.1,1.5,1.5,3.6,1.5,3.6c2-2.2,1.5,2,2.2,0s-1.4-4-1.4-4c0.7-2.5,8.3,5.3,8.3,5.3c0.3-1.3-0.5-3-1.6-4.6c0.9,0.2,1.9,0,2.4-0.6
		c0.2-0.2,0.4-0.4,0.6-0.6c0.1,0.3,0.1,0.5,0.1,0.5c1.7-1.2,2.3-2.5,2.3-3.7c0.4-0.1,0.9-0.2,1.6-0.4c0.1,2-1.4,4.3-1.4,4.3
		c3-0.2-0.2,2.5,1.6,1.5c1.8-1,1.7-3.8,1.7-3.8c2.2-1.3,2.4,9.6,2.4,9.6c1.8-1.2,2.2-5.3,2.4-7.9l10.7,16.7c-1.4-0.7-3-1.2-4.9-1.3
		c-10.9-1.1-13.4-3.8-13.1-7.1c0,0-6.4,2.8,4.9,9.5c0,0-1.7,4.4-4.9,3.6c-2.5-0.6-3.8-3.1-3.6-4.4c-1.2,2.1-3.4,7.7,8.9,5.6
		c0,0-2.6,8.1-0.5,10.5c0,0,3.1-10.4,4.9-8.6c0,0-0.9,2.7,0.6,4.1s-0.9-2,1.9-1c0,0-2.2-7.3,3.7-6.6c0,0-4.8,2.6-1.3,7.1
		c0,0,3.6-7.1,8.6-3.3l7.5,11.7c-1.9,0.9-4,2.6-4,2.6c2.5-0.7,4.4-0.3,5.9,0.3l4,6.3c-0.4,1.2-0.4,2.8,0.8,4.9c0,0-2.8-1.6-7.8,1
		c-5.1,2.6-6.2-2.6-7.1-1.9s4.1,7.2,8.2,6.9c0,0-7.2,8.2,2.6,10.5c0,0-3.8-9.6,1.5-8.6c0,0-1.2,4.1,1.5,2.4c2.7-1.7,2.4-2.5,2.4-2.5
		s-3.3-0.6-1.5-2.4c1.4-1.4,4.3-0.5,6.2,0.4l6.4,10l-7.7,14.3l-2.2,0.2c-1.4-1.6-3.6-3.5-7-4.5c0.7-2.6,0.7-5.2-1.2-6.4
		c-4.3-2.8-9.4-4-5.8,2.8c0,0,3.2-5,3.4-1.2c0.3,3.8-11.1,11-11.1,11l-38.2,3c-0.3,0-0.5,0-0.5,0s0,0,0,0.1l-1.8,0.1
		c0.1-0.3,0.2-0.5,0.3-0.8c2.4-7.5-8.4-0.7-8.4-0.7s3.5-43,6.2-75.7C399.2,106.6,400.8,105.2,402.4,103.7z M474.2,134.2
		c-0.6-2-3.4-2.4-3.4-2.4c-0.9-2.4,9.8-0.6,9.8-0.6c-0.6-1.4-2.7-2.3-4.7-3c1.4-1.6,6.4-6.8,7.9-2.4c0,0-4.2,1-1.4,2.5
		c2.8,1.5,3.3,0.9,3.3,0.9s-1.1-3.2,1.4-2.4c1.9,0.6,2.5,3.5,2.7,5.6L475.5,159c-3.6-5.7-7.1-11.4-10.4-16.7
		c0.6-4.2,6.8-4.3,6.8-4.3c-2.4-5.2-6.9-2-6.9-2c2-5.6,7.6-0.4,7.6-0.4C472.7,132.6,474.8,136.2,474.2,134.2z M590.3,150.3
		c0.6,3.1,2.8-0.5,2.8-0.5c3.3,2.5-1.6,5.3-4.1,6.4c-1.7-0.6-10,0.9-11.8,4.4c0,0-4.6-10.2-12.8-2.5c-2.2-0.3-5.3,0.1-6.7,0.4
		c0-0.1,0.1-0.2,0.1-0.3c3.3-2,16.8-9.8,29.1-17c0,0.1,0.1,0.1,0.3,0.2c1.5,0.6,6.1,2.4,6,5s-2.7,0.5-2.7,0.5
		S589.8,147.2,590.3,150.3z M533.8,223.3l-5.6,21.1l-7.9-13c0.3-4.6,6.8-4.7,6.8-4.7c-2.4-5.2-6.9-2-6.9-2c2-5.6,7.6-0.4,7.6-0.4
		c0.3-3,2.4,0.7,1.7-1.3c-0.6-2-3.4-2.4-3.4-2.4c-0.5-1.4,3.2-1.4,6.2-1.1C533.2,221.6,533.8,223.3,533.8,223.3z M526.5,211.1
		c0.2,0.1,0.4,0.2,0.6,0.3c-0.4,0.6-1,1.1-1.6,1.4C524.8,211.7,524.4,210.5,526.5,211.1z M528.4,212.5c1,1.1,2,2.8,2.8,4.4
		c-2.5-0.8-4.9-1.2-4.9-1.2C527.2,214.5,527.9,213.4,528.4,212.5z M529.8,208.8c0.4-3.4-2.9-3.6-4.6-3.5c0.9,0.3,1.9,1.5,2.3,3
		c-0.7,0-1.3,0.1-1.9,0.5c-1.7,1.1-3.2,2.4-3.6,3.4c-1.3-11.8-6.3-7.5-6.3-7.5c3.1,1.2,4.5,4.7,0.7,14.9c-0.5,1.3-0.8,2.5-0.9,3.7
		l-6.4-10.5c0,0,1.8-6.7,3.8-5.4c2,1.4-1.3,2.6-1.3,2.6s5.1,2.5,2.6-4.9c-2.6-7.4-7.2,4.5-7.2,4.5s-2.5-4.1-6.6-10.6
		c8.7-5.6,17.8-11.5,26-16.9c1.5-0.1,3-0.2,4.5-0.3c2,1.9,2.1,5.6,2.1,5.6c3.6-1.8,3.1-4.4,2.4-5.9c0.4,0,0.8-0.1,1.2-0.1
		c2.6,2.4-1.2,6.6-1.2,6.6c3,0.3-0.6,2.4,1.3,1.7c1.9-0.7,2.3-3.5,2.3-3.5c2.4-0.9,0.8,9.8,0.8,9.8c0.5-0.2,1-0.7,1.4-1.4l-4.9,18.5
		C535,212,532.3,209.8,529.8,208.8z M495.7,203.7c-0.9,0-2.1,0.2-3.5,0.6c0.9-0.6,1.8-1.2,2.7-1.8L495.7,203.7z M434.5,234.7
		c-0.4-3-1.7-9.9-5.2-10.5c-4.5-0.7-8.8,0.2-2.8,4.7c0,0-0.2-5.5,1.9-2.4c1.3,2-0.1,7.1-1.3,10.5c-1.9,1.7-3.7,4.1-4.9,5.7l-1.5,1
		l-20.4-28.2c0.1-4.7,7-5.7,7-5.7c-1.7-3-4.1-2.7-5.7-2.1c0.1-0.5,0-1-0.1-1.4c0.9-0.6,1.9-0.7,2.9-0.6c2,1.7,4.1,3.7,4.1,3.7
		c0.2-0.8,0-1.7-0.5-2.7c0.4-2.2,2.4,0.7,1.7-1.1c-0.6-1.7-3-1.9-3.6-1.9c-0.1-0.1-0.1-0.2-0.2-0.3c-0.1-2,10.4-1.7,10.4-1.7
		c-0.1-0.3-0.3-0.5-0.6-0.7c3.3-2.5-2.6-12-2.6-12l44-2.5c1.1,0.5,1.8,1.3,2.1,2.1l-15.4,28.6c-1.8-2.5-6.1-7.9-9.5-6.8
		c-4.3,1.5-7.7,4.3-0.2,5.4c0,0-2.8-4.8,0.6-3c3.3,1.8,4.2,13.5,4.2,13.5l-4.4,8.2L434.5,234.7z M362.4,182.4
		c-3.2-3.7-7.9-1-7.1,0.5c0.7,1.5,2.3,2.5,2.3,2.5s-1.3,3.1-3,3.6c-0.3,0.1-0.6,0.2-0.8,0.4l-39.2,2.9c-2.7-2.1-6.5-3.8-6.5-3.8
		l27.1-24c4.6-0.6,5.9,5.9,5.9,5.9c4.6-3.3,0.7-7.2,0.7-7.2c5.9,1,1.8,7.4,1.8,7.4c3-0.2-0.2,2.5,1.6,1.5c1.8-1,1.7-3.8,1.7-3.8
		c2.2-1.3,2.4,9.6,2.4,9.6c2.7-1.8,2.4-10.3,2.4-10.3c2.4,1.1,4.2,1.8,5.6,2l14.1,18.5l-11.2,0.8C362,187.4,364.4,184.8,362.4,182.4
		z M310.9,192.6l-5.4,0.4c0.8-0.5,1.7-0.8,2.4-1C309.3,191.6,310.3,191.9,310.9,192.6z M355.6,167.4c-0.8-0.5-1.4-1.4-1.7-2.2
		L355.6,167.4z M409.6,199.2c-1-0.1-2-0.2-2.6-0.2c6.1-2.8,4.1-5.6,2.4-7.1c0-0.1,0-0.2,0-0.4c0.3,0.1,0.6,0.2,0.9,0.3
		C415,193.4,411.7,197.2,409.6,199.2z M395.7,204.2c0,0.1-0.1,0.3-0.1,0.4c-1.2-0.6-2.5-0.7-2.5-0.7c1.2-0.8,2.1-0.9,2.9-0.8
		C395.9,203.5,395.8,203.8,395.7,204.2z M390.8,192.2c0.3-0.1,0.5-0.1,0.8,0c1.8,1-0.4,2.3-1.1,2.7L390.8,192.2z M392.9,197.5
		c-1.2,0.8-2.1,1.6-2.9,2.5l0.5-4.9c0.8,0.2,4.3,0.9,2.9-3.8c1.1-0.1,2.4-0.2,3.7-0.3c0.4,0.7,0.7,1.7,0.7,3
		C396.5,195.1,394.9,196.2,392.9,197.5z M403.8,190.9c1.1,0,2.2,0.1,3.1,0.2c0.2,0.7,0.3,1.4,0.1,2.3c-0.5,2.3-2.9,3.1-4.4,3.4
		c-0.7-0.4-1.2-0.8-1.3-0.9l0,0C402.6,193.8,403.4,192.2,403.8,190.9z M407.4,196.8l-0.1,0.1c0.9-1.5,1.5-2.8,1.8-3.9
		C409.1,194.3,408.6,195.8,407.4,196.8z M400.3,191.5c-0.1-0.2-0.2-0.4-0.2-0.6c0.2,0,0.5,0,0.7,0
		C400.6,191.1,400.5,191.3,400.3,191.5z M394.2,185.8c1.3-0.7,2.7-1.1,3.2-0.2L394.2,185.8z M384.4,193.8c-0.3-0.5-0.8-1-1.3-1.7
		c0.5,0,0.9,0,1.4-0.1L384.4,193.8z M389,211.1l8.3,10.9c-2.5,0.6-7.5,2-9.8,4.4L389,211.1z M400.6,207.5c0.2,0.1,0.4,0.3,0.5,0.6
		c-0.6,0.3-1.1,0.7-1.1,0.7C400.2,208.2,400.3,207.8,400.6,207.5z M455.7,179.5c-0.3-0.7,0.9,0.4,2.3,1.3l-2.4,0.2
		C455.8,180.5,455.9,179.9,455.7,179.5z M462.9,202.7c-3.9-3.6-2.9,2.2-2.3,4.9c-0.5,0.1-1.1,0.2-1.7,0.3c-1.4,0.2-2.6,0.6-3.7,1
		l5.8-10.2c1.2,0.1,2.2-0.5,3-1c0.6-0.1,1.3-0.1,1.9-0.1c-0.1,0.4-0.3,1-0.7,1.6c-0.2-0.1-0.3-0.2-0.3-0.2s0,0.3,0.1,0.6
		C464.5,200.7,463.7,201.8,462.9,202.7z M464.2,194.7c-0.7,0.1-1.1,0.1-1.1,0.1s0.8-1.5,2.2-4.1
		C466.4,192.4,465.5,193.8,464.2,194.7z M453.2,179.9c0.3,0.4,0.7,0.8,0.9,1.1l-1.5,0.1C452.8,180.8,453,180.4,453.2,179.9z
		 M450.6,217.1c2.9-1.4,5.4,0.9,6.6,2.5l-12.9,8.6L450.6,217.1z M456.4,213.8c3.3-0.5,4.1,1.5,4.3,3.5l-1.5,1
		C459.6,215.3,456.4,213.8,456.4,213.8z M462.5,207.3c0.1-0.1,0.1-0.3,0.1-0.4c0-0.4,0.2-0.2,0.4,0.3
		C462.9,207.2,462.7,207.2,462.5,207.3z M464.4,204.3c1.8-1.2,3.6-2.8,4.7-3.9c0.4-0.3,0.8-0.8,1.3-1.3c0.4,0.7,0.9,1.4,1.3,2
		c-0.1,2-1.6,3.8-5.9,5.2C465.4,205.7,464.9,205,464.4,204.3z M468.7,211.9c-0.9-1-1.4-2.1-1.4-2.1c4.2-2.8,5.8-4.9,6.2-6.5
		c1.6,1.7,3,2.4,4.2,2.5L468.7,211.9z M475.3,202.6c-3-2.1,0.2-6.1,0.2-6.1c14.6,4.9,12.9-1.8,12.9-1.8c-3.1,2.2-7.6,1.9-16.3-6.2
		c-1.1-1-2.3-1.8-3.4-2.5l15-0.9c0,0,0.2,0.2,0.6,0.4l3.3,5.1c-0.1,0.1-0.2,0.2-0.4,0.2c-2.6,1.1-2-2.3-2-2.3s-5.7,3.4,3.8,4.5h0.1
		l2.3,3.7l-9.2,6.2c0,0,0-0.1,0.1-0.1C481,203.8,477.7,204.3,475.3,202.6z M539.5,173.6c0.4,0.2,1,0.4,1.7,0.7l-1.9,0.1
		c0-0.2-0.1-0.4-0.2-0.6C539.3,173.7,539.4,173.7,539.5,173.6z M553.7,173.3c0.9-3.2,1.9-6.9,3.1-10.9c8.7-5.2,9.8-0.2,9.8-0.2
		c1.3-2.5,0.2-3.6-1.7-4c2,0.2,11.7,1.4,7.9,5.2c0,0-3.7-2.9-3.5,0.2c0.2,3.2,1.3,3.3,1.3,3.3s2.6-2.7,3.4-0.2c0.6,1.9-2,4-4,5.4
		L553.7,173.3z M546.9,173.8l-0.9,0.1c-0.9-0.7-2.1-1.5-3.6-2.2c2.3-1.5,4.3-2.8,6.1-4L546.9,173.8z M496.8,193.2
		c-1.7-2.7-3.5-5.6-5.4-8.7c3.9-0.3,11.3-0.8,20.6-1.4L496.8,193.2z M471.6,179.7c1.3-2.3,2.6-4.8,4.1-7.4l4.3,6.7L471.6,179.7z
		 M357.4,152.9c-1,2.2-2.8-0.8-2.8-0.8s-0.2,0.7-0.1,1.5c-0.8-1.1-1.7-2.3-2.5-3.4C353.6,150.4,358.2,151.1,357.4,152.9z
		 M349.1,158.9c-1-0.1-2-0.3-3.1-0.5c-1.4-0.2-2.6-0.3-3.8-0.2l3.8-3.4L349.1,158.9z M328.8,162.6c-0.3-1.1-0.9-2.8-1.6-4.4
		c0.6,0.2,1.2,0.3,2,0.3c0,0-4.4-9.2,1.3-8.9c0,0-1.1,4.3,1.7,2.3c2.8-2.1,2.4-2.8,2.4-2.8s-3.5-0.2-1.6-2.2c1.4-1.6,4.5-1,6.6-0.5
		l2.8,3.7L328.8,162.6z M309.2,114.1c0,0,0,0-0.1,0.1C309.1,114.1,309.1,114.1,309.2,114.1C309.1,114.1,309.1,114.1,309.2,114.1z
		 M311,109.3c-0.8-0.3-1.8-0.5-2.8-0.6c0.3-0.6,0.6-1.3,1-1.9L311,109.3C311.1,109.3,311,109.3,311,109.3z M301.4,150.6
		c2.9-4.9-2.2-6.8-2.2-6.8c5.8-1.5,4.6,6.1,4.6,6.1c2.6-1.4,0.8,2.4,2,0.7c1.3-1.6,0-4.2,0-4.2c1.5-2.1,6,7.8,6,7.8
		c1.7-2.7-2-10.4-2-10.4c3.5,0.1,5.8-0.2,7.2-0.8c0.7,1.8,5.2,6,8.9,5.2c0,0-2.1,2.7-2.4,5.3c-0.5-0.3-1-0.4-1.5-0.4
		c-4.6,0-8.6,1.6-2,5.1c0,0-1.1-5.4,1.5-2.6c2.6,2.8-0.3,14.1-0.3,14.1l-25,23.3c0-1.2-0.3-2.3-0.3-2.3c-0.8,1.7-2.3,2.7-3.9,3.4
		l-19.5,1.4c6.4-14.4,14.6-32.8,21.4-48.1C297.8,145.5,301.4,150.6,301.4,150.6z M289.7,199l-5.8,5.4l0.3,0.4l-10.9,10
		c0.3-2.1,0.2-5.3-2.7-6.2c-0.9-0.3-1.6-0.3-2.3-0.1c-0.3-0.5-0.7-1-1-1.5c0.9-2,1.9-4.3,3-6.7C277.1,199.9,283.6,199.4,289.7,199z
		 M269.5,218.4l-1,1c-0.3-0.1-0.7-0.1-1.1-0.1c0.8-1,1.8-1.7,1.8-1.7c0.2,0.1,0.3,0.2,0.5,0.3C269.5,218.1,269.5,218.2,269.5,218.4z
		 M240.3,253.5l-10.5,24.3c-1.1-0.4-2.2-1-3.4-1.6c-3-1.5-5.8-1.8-8.2-1.4c-0.5-4.1,5.2-6,5.2-6c-0.3-0.3-0.5-0.5-0.8-0.7
		c6.4-5.8,12.4-11.3,17.4-15.9C240.2,253,240.3,253.5,240.3,253.5z M196.5,281.9c0.8-3.1,2.2-6.6,4.9-8c0,0-4-1.4-6.3,3.6
		c0,0-0.1-1.2-1.3-2.6c-0.3-0.7-0.5-1.4-0.8-2.1h-0.1c-0.7-1.3-4-7.9-5.4-13.3c1.1,0.1,2.4,0.4,3.6,0.6l17.4,14.6l-10.9,10
		C197.3,283.7,196.9,282.8,196.5,281.9z M218.9,253.3c0.1,1.3-0.5,2.2-1.3,2.8c0.3-1.4,0.6-2.8,1-4.2
		C218.8,252.4,218.9,252.8,218.9,253.3z M220.6,263.3c-0.6-0.8,0.7-1.5,2.4-2.1l-2.2,2C220.7,263.3,220.6,263.3,220.6,263.3z
		 M216.6,267.2c0.4-0.9,1-1.4,1.8-1.6L216.6,267.2z M209.2,280.2l-0.9,6.6c-0.7-1.1-1.7-2.4-3-3
		C206.6,282.6,207.9,281.4,209.2,280.2z M213.9,279.3l3.2,2.7c-1,0.5-2.6,1.2-4.1,2.1C213.4,282.4,213.7,280.8,213.9,279.3z
		 M263.4,218.9c0,0.2,0.1,0.5,0.1,0.7c-1.1,0.2-1.9,0.3-1.9,0.3l0,0C262.7,219.3,263.4,218.9,263.4,218.9z M264.3,222.5
		c0.1,0.2,0.1,0.3,0.2,0.5l-7.1,6.6l2.8-6.1C260.1,223.5,262.4,222.7,264.3,222.5z M258.5,233.3c-0.2,0-0.4,0.1-0.6,0.2
		c2.1-1.8,5-4.3,8.4-7.1c1.3,1.3,2.7,1.3,3.9,0.9C269.3,229.4,266.1,231.5,258.5,233.3z M262.1,203c-2.1-0.9-4.2-1.4-6.1-1.6
		c2.4-0.2,4.7-0.3,7-0.5L262.1,203z M250.8,201.7h0.1c0.1,0,0.2,0.1,0.3,0.1C251.1,201.7,251,201.7,250.8,201.7z M182.4,262.6
		l0.1,0.2C182.2,262.8,182.2,262.7,182.4,262.6z M200.1,288.6c0.3,0.7,0.9,1.1,1.4,1c1.6-0.3,2.9-1.3,2.9-1.3s2.8,1.7,2.9,3.1
		c0,0.3,0.1,0.5,0.2,0.8l-1.9,13.3c-1.9-5-4.1-10.6-6.3-16.2C199.6,289,199.8,288.8,200.1,288.6z M210.5,314.4c0,0,0.2,0.2,0.4,0.5
		c0,2.4,0.5,5.1,0.5,5.1s-0.7-1.8-1.8-4.7c0.1-0.2,0.1-0.4,0.2-0.6C210.2,314.5,210.5,314.4,210.5,314.4z M210,324.7l-3.2,7.4
		c0.7-4.9,1.3-8.8,1.6-11L210,324.7z M236.7,279.7c0.1-0.1,0.3-0.3,0.4-0.4c1.2-0.9,2.2-1,3.1-0.6
		C239.3,279.3,238.2,279.7,236.7,279.7z M385,266.6c0-2,0.2-14,3-18.5c3-4.9,8.2,2.9,8.2,2.9c8.4-12-10.4-5.6-10.4-5.6l1.1-11.6
		c0.7,0.9,2.2,0.4,4.5-3c0,0-5.8,0.8-2.5-1.7s14.7,1,14.7,1l12.8,16.7l-31.5,21C384.9,267.4,385,267,385,266.6L385,266.6z
		 M419.5,251l3.7,4.9l-5.4,10c0.1-3.5-7.9-8.8-7.9-8.8L419.5,251z M425.4,247.2l3.7-2.3l-2.6,4.7C426.1,248.8,425.7,248,425.4,247.2
		z M511.8,326.5c0.4,0,0.7-0.1,1.1-0.1c-0.4,0.3-0.8,0.5-1.3,0.6C511.7,326.9,511.8,326.7,511.8,326.5z M503.7,337.8
		c-0.1-0.1-0.3-0.1-0.4-0.2c0.2-0.2,0.4-0.5,0.6-0.6L503.7,337.8z M598.8,179.4c-0.9-0.8-1.9-1.5-2.8-2c1.1-0.1,2.1-0.1,3.2-0.2
		L598.8,179.4z M598.6,169.8c0.1-2.1-0.4-4.7-0.4-4.7c-0.7,2.5-2.2,4.1-3.8,5.1l-9.1,0.7c-1-0.9-2.8-1.6-5.7-1.6
		c0,0,3.3-1.7,3.6-7.4c0.2-4,3.3-4.5,5-4.8c8,5,9.1-5.5,9.1-5.5c1.1,1.4,3.3,2.1,5.4,2.3l-2.4,15.9H598.6z M621.6,72.4
		c0,0,0,0.1,0.2,0.3c0.4,0.5,1.1,1.3,1.8,2.3c-2.5,1.7-4.9,6.1-4.9,6.1s0.7-3.5,1.9-8.7C620.9,72.4,621.2,72.4,621.6,72.4z
		 M620.8,85.8c0.1-1,0.3-1.8,0.5-2.6c0.5-0.1,0.8-0.3,0.8-0.3C622.8,84.5,622.1,85.4,620.8,85.8C620.8,85.9,620.8,85.9,620.8,85.8z
		 M622.2,80.3c0.7-1.9,1.6-2.9,2.4-3.5c0.1,0.2,0.2,0.5,0.3,0.7c-0.6,1.2-1,2.3-1.1,3.3C623.1,81,622.6,80.7,622.2,80.3z
		 M626.9,74.2c-1.1-0.6-2.1-1.2-2.8-1.7c1.4,0.1,2.7,0.1,4,0.2C627.8,73,627.3,73.6,626.9,74.2z M642.2,71.8c-0.3-0.3-0.6-0.7-1-1
		v-4.1L642.2,71.8z M616.8,62.1l-0.6,3.6h-2C615.1,64.8,616.1,63.5,616.8,62.1z M617.5,57.7c0-0.2-0.1-0.4-0.2-0.6
		c0.1,0.1,0.1,0.2,0.2,0.3V57.7z M615.3,72.1l-1.3,8.7c-0.6-1.4-1.5-2.8-2.7-4.2c-1.7-1.8-3-3.4-4-4.9
		C609.8,71.9,612.6,72,615.3,72.1z M594.4,71.2c0.6,1.5,2.3,3.3,6.1,5.7c0,0-7.3,4.4-7.3,7.6c0,0,9.2-5.7,9.3-3.2
		c0,0-2.4,1.5-2.3,3.5s0.7-2.1,2.1,0.5c0,0,3.2-6.9,7.2-2.5c0,0-5.4-1.2-5.6,4.5c0,0,7.4-2.9,8.6,3.2l-2.1,13.8
		c-2.1-0.6-4.7-0.7-4.7-0.7c2.3,1.1,3.5,2.7,4.2,4.1l-1.1,7.4c-1.1,0.6-2.2,1.9-2.7,4.2c0,0-1-3-6.5-4.5c-5.5-1.4-2.9-6.1-4.1-6.1
		c-1.2,0-1.7,8.2,1.6,10.6c0,0-10.9,1.4-5,9.7c0,0,3.5-9.7,6.8-5.5c0,0-3.6,2.3-0.5,2.8s3.4-0.3,3.4-0.3s-2.1-2.6,0.5-2.8
		c1.9-0.1,3.5,2.5,4.4,4.4l-3.7,23.9c-0.5-0.5-1-1.3-1.3-2.5c-1.5-5.5-4.6-6.4-4.6-6.4c5.3-1.3,4.7-5.5,4.7-5.5
		c-3,3.6-9.9,3.4-13.2,3.1c4.5-2.6,8.8-5.1,12.3-7.1l-4.2-6.5l-18.5,12.3c0.2-2.6,0-6.9-3.4-9.3c-5.2-3.6-6.6,1.6-4.9,3.2
		c1.7,1.6,3.7,2.5,3.7,2.5s1.5,4.5,0.6,5.7c-0.2,0.2-0.3,0.5-0.3,0.8l-14,9.3c3.7-13.2,7.8-28,11.3-40.8c3.5-2.4,7.8,2.1,7.8,2.1
		c2.2-5.3-3.2-6.4-3.2-6.4c5.5-2.3,5.4,5.3,5.4,5.3c2.4-1.8,1.1,2.2,2.1,0.4s-0.6-4.1-0.6-4.1c1.2-2.3,7.1,6.8,7.1,6.8
		c1.3-2.9-3.5-10-3.5-10c12.4-1.4,8.6-6.2,7-7.9c0.5,1.2,0,3.9-2.2,5.2c-2.9,1.6-5.7-2.1-5.7-2.1c8.8-9.7,1.9-10.5,1.9-10.5
		c1.2,3.1-0.4,6.5-10.5,10.6c-1.2,0.5-2.2,1.1-3.1,1.7c2.9-10.5,5.1-18.6,5.9-21.6c0.7-2.6,1.5-4.5,2.2-5.8c6.5,1.4,5,4.6,5,4.6
		c5-2.3,0.4-5-3.4-6.7c2.1-2,4-0.7,4-0.7c0-0.2-0.1-0.3-0.1-0.4C589.3,71,591.7,71.1,594.4,71.2z M581.3,71.2
		c-1-0.4-1.7-0.6-1.7-0.6s0.8,0,2.3,0.1C581.6,70.8,581.5,71,581.3,71.2z M579,73.6c-0.6,0.8-1,1.3-1,1.3s0.2-0.5,0.4-1.4
		C578.6,73.6,578.8,73.6,579,73.6z M573.3,74.2c-0.1-0.3-0.2-0.5-0.3-0.8c0.2,0,0.3,0,0.5,0L573.3,74.2z M561.3,77.4
		c0,0,3.9-6.5,7.4-1.8c0,0-5.2-1.8-6.1,3.8c0,0,7.7-2.1,8.2,4.1L567.2,97c-2-0.8-4.6-1.2-4.6-1.2c2.2,1.4,3.2,3,3.7,4.5l-1.9,7.2
		c-1.1,0.5-2.3,1.6-3.1,3.9c0,0-0.7-3.1-6-5.1s-2.2-6.3-3.4-6.5s-2.5,7.9,0.5,10.7c0,0-11,0.2-6,9.1c0,0,4.5-9.3,7.4-4.7
		c0,0-3.8,1.9-0.8,2.7c3.1,0.8,3.4,0.1,3.4,0.1s-1.8-2.8,0.7-2.7c1.9,0.1,3.2,2.9,4,4.8l-4.4,16.7c-1.1,1-2.4,2.7-3.9,5.3
		c0,0-4.4-1.6-3.7-4.8c0.5-2.6,3-3.9,4.3-3.7c-2.1-1.1-7.8-3.2-5.4,9c0,0-8.2-2.4-10.5-0.3c0,0,10.5,2.9,8.6,4.7
		c0,0-2.7-0.8-4.1,0.7c-1.4,1.5,2-0.9,1,1.9c0,0,7.2-2.3,6.7,3.6c0,0-2.7-4.8-7.1-1.1c0,0,7.1,3.5,3.5,8.5l-11.6,7.7
		c-1-1.9-2.6-4-2.6-4c0.7,2.5,0.4,4.4-0.2,5.9l-6.2,4.1c-1.2-0.4-2.8-0.3-4.9,0.9c0,0,1.6-2.8-1.1-7.8c-2.7-5,2.5-6.2,1.7-7.1
		c-0.8-0.9-7.2,4.3-6.7,8.3c0,0-8.4-7.1-10.5,2.8c0,0,9.5-4,8.6,1.3c0,0-4.1-1.1-2.4,1.6c1.7,2.6,2.5,2.3,2.5,2.3s0.5-3.3,2.3-1.5
		c0.4,0.4,0.6,0.8,0.7,1.3l-14.5,1.1c1.2-2.1,2.6-5.8,1-10.5c-2.5-7.4-6,4-6,4s2.4-0.2,3.1-1s-0.1,1.9,0.3,3.8
		c0.2,1-2.9,2.9-5.6,4.2l-6.3,0.5c-2.6-4.2-5.4-8.6-8.1-13c7-12.7,15.2-27.4,22.2-40c4-1.5,7.1,3.8,7.1,3.8c3.3-4.6-1.6-7-1.6-7
		c5.9-0.9,4.1,6.4,4.1,6.4c2.7-1.2,0.6,2.4,2,0.9s0.4-4.2,0.4-4.2c1.6-1.9,5.3,8.3,5.3,8.3c2-2.5-1-10.5-1-10.5
		c12.4,1.5,9.9-4,8.6-6c0.3,1.3-0.9,3.8-3.4,4.6c-3.2,0.9-5.1-3.4-5.1-3.4c10.8-7.3,4.3-9.8,4.3-9.8c0.5,3.3-1.9,6.2-12.7,7.8
		c-1.3,0.2-2.4,0.5-3.5,1c5.3-9.5,9.3-16.9,10.8-19.6c5.9-10.9,9.5-6.5,9.5-6.5c0-7.3-10,1.3-10,1.3s5.5-8.9,11.9-19.2
		c2.5,0,5,0,7.4,0c4,2.8,0.1,8.1,0.1,8.1c6.9,0.7,6.5-4.8,6.5-4.8c4.4,4.7-4.5,6.6-4.5,6.6c2.8,1.8-2.2,1.7,0.2,2.2s4.7-1.6,4.7-1.6
		c3,0.5-5.7,8.6-5.7,8.6c3.9,0.5,10.6-6,10.6-6c5.6,11.6,10.1,6.7,11.5,4.6c-1.2,0.8-4.6,1.1-6.9-0.8c-2.8-2.3,0.6-6.1,0.6-6.1
		c14.2,6,13-0.9,13-0.9c-3.3,2-7.7,1.3-15.8-7.4c-0.4-0.5-0.9-0.9-1.4-1.3c0.3-0.4,0.5-0.8,0.6-1.2c1.5,0,2.9,0,4.3,0
		c-0.7,0.7-1.2,1.5-1.2,2.2c0,0,2.7-1.3,5.3-2.2c1.5,0,3,0,4.3,0c-0.2,0.1-2.6,1.3-2.6,3.2C559.2,78.7,560.1,74.7,561.3,77.4z
		 M556.2,66c0.2-0.1,0.4-0.2,0.6-0.3c0.1,0.1,0.2,0.2,0.3,0.3H556.2z M542.7,66.1h-5.8c-0.6-0.6-1.6-1.2-3.1-1.6
		c0.3-0.5,0.6-0.9,0.8-1.4c0,0,0.1,0.1,0.4,0c1.6-0.2,6.5-0.7,7.6,1.6C542.9,65.4,542.9,65.8,542.7,66.1z M525,63.4
		c-0.5-0.9-1.2-1.9-2.1-2.7c0.8-0.6,2.4-1.5,2.9,0.4C526,61.9,525.6,62.7,525,63.4z M512.1,90.7c-0.1-1.5-0.4-3.2-1.2-4.9
		c-2.9-6.6-3.3-10.4-2.4-12.6c4.4,0,8.7,0,13,0.1L512.1,90.7z M500,73.2c1.9,0,3.9,0,5.8,0c-0.5,1.4-0.9,3.5-1,6.6
		c0,0-4.6,0.7-5.5-2.5C498.8,75.7,499.3,74.2,500,73.2z M500.8,82.5c0,0-8.4,1.7-9.5,4.7c0,0,10.6-2.3,9.8,0.1c0,0-2.8,0.6-3.3,2.5
		c-0.5,2,1.3-1.7,1.8,1.2c0,0,5.3-5.4,7.6,0c0,0-4.7-3-6.8,2.3c0,0,7.9-0.3,7,5.9l-6.6,12.3c-1.8-1.2-4.2-2.3-4.2-2.3
		c1.8,1.8,2.4,3.7,2.6,5.3l-3.5,6.6c-1.2,0.2-2.7,1-3.9,3.1c0,0,0.1-3.2-4.7-6.4s-0.7-6.7-1.8-7.1c-1.1-0.4-4.3,7.1-2,10.5
		c0,0-10.3-2.2-8.1,6.8c-2.3-0.7-4.4-1-4.4-1c7.3-10.1,1.2-10.6-1.1-10.4c1.2,0.4,2.9,2.6,2.3,5.2c-0.7,3.2-5.4,2.8-5.4,2.8
		c-1.1-13-6.4-8.5-6.4-8.5c3.1,1.2,4.5,4.7,0.7,14.9c-0.5,1.2-0.7,2.4-0.8,3.5c-5.8-9.2-10.3-16.4-11.9-19
		c-6.7-10.4-1.1-11.5-1.1-11.5c-6.4-3.5-3.7,9.4-3.7,9.4s-3.4-6-7.8-14c4.4,0.4,4-3.4,3.5-5.1c-0.2,1.3-2,3.3-4.6,3.2
		c-0.9-1.6-1.9-3.3-2.8-5.1c11.4-3.4,6.3-7.6,6.3-7.6c-0.5,2.5-2.5,4.3-8.3,4.1c-0.8-1.5-1.6-2.9-2.5-4.4
		c12.2,4.7,11.2-1.6,11.2-1.6c-2.4,1.5-5.6,1.5-10.4-2.3c1.4-1.3,2.7-2.5,3.9-3.5c2.5,0.1,0.4,2.8,0.4,2.8s0.3,0.7,2.7,0.4
		c0.8,0.4,2.1,0.9,4,1.2c1.1,0.2,2,0.3,2.6,0.2c0.3,0.7,0.5,1.1,0.5,1.1c3.9-5.5,0.5-7.9-2.3-8.9c-0.4-0.5-0.7-0.8-0.7-0.8
		s27.9,0.2,58.6,0.3C496.4,74.4,496.4,77.1,500.8,82.5z M425.2,72.8L425.2,72.8l-2.7,2.6c-0.3-0.3-0.6-0.6-0.9-0.9
		c-0.3-0.6-0.7-1.2-1-1.8L425.2,72.8z M414.1,78.8c0.2,0.8,0.3,1.5,0.4,2.2c-0.7,0.5-1.5,0.8-2.2,1.1c-0.7-1.1-2-1.2-2.4-1.2
		C412.2,80.8,413.5,79.8,414.1,78.8z M295,75.8c-1-1.6-2-3.1-3-4.5c1,0,2,0.1,3.1,0.1C295.1,73.1,295,74.7,295,75.8z M294.4,116.1
		c-0.6,0.3-1.3,0.5-2,0.4c-0.9-0.1-1.7-0.4-2.3-0.9C290.3,115.6,292.5,115.3,294.4,116.1z M220.2,97.9c0-0.6,0-1-0.4-1
		c-0.2,0-0.4,0.3-0.6,0.8c-1.4-0.3-3.1-1-4-2.4c-1.9-2.9,2.8-5.6,2.8-5.6c10.6,8.5,12.5,3.2,12.7,2.4c1.8,1,2.9,2.4,3.4,3.6l-1,7.4
		c-1.1,0.7-2.1,1.9-2.6,4.2c0,0-1.1-3-6.6-4.4c-3.3-0.8-3.7-2.8-3.8-4.3c0.5-0.3,1-0.6,1.4-0.9C221.2,97.8,220.7,97.9,220.2,97.9z
		 M217.6,72.5c2.2,0,4.4,0,6.6,0c0,0.1,0,0.3,0,0.5c0.2,2.1,0.7-2.1,2.1,0.5c0,0,0.2-0.4,0.5-0.9c0.6,0,1.2,0,1.8,0
		c-0.4,0.7-0.7,1.6-0.8,2.8c0,0,7.3-3,8.7,3.1l-1.9,13.8c-2.1-0.5-4.7-0.6-4.7-0.6c0.2,0.1,0.5,0.2,0.7,0.3
		c-3.8,1-7.8-0.8-12.4-10.9c-2.6-5.7-7.9-7.8-12.1-8.6c3.7,0,7.4,0,11.1,0.1c0,0.1,0,0.2,0,0.3C217.2,72.8,217.4,72.7,217.6,72.5z
		 M150,188.9c-1.4-0.1-3.3-0.1-5.5,0.5c-1.2-0.1-2.9,0.3-4.4,0.7c2.1-6.3,1.2-8.8-0.4-9.5c0.7-2.9,1.4-6.2,2.3-9.9L150,188.9z
		 M102.3,343.7l2.5,7.8l-4.4,0.3C101.1,348.9,101.7,346.2,102.3,343.7z M109.8,351.1c-2.5-8.1-4.4-14.2-5.3-16.8
		c0.9-4,1.6-6.9,2-8.5c2.7-12,5.7-9.3,5.7-9.3c-0.8-6.7-6.6,4.6-6.6,4.6s8.7-32.8,13.1-49h-0.1c0.3-1.9,2.3-13.9,5.7-17.9
		c3.7-4.4,7.7,4.1,7.7,4.1c10.1-10.6-9.5-7.1-9.5-7.1l6.7-27.1c0.6,0,1.2-0.1,1.8-0.3c0,0-4.4,10,5.7,9.3c0,0-6.5-8-1.1-8.7
		c0,0,0.1,4.3,2.2,1.9c2-2.4,1.5-3.1,1.5-3.1s-3.3,0.4-2.1-1.8c0.9-1.7,4-1.7,6.1-1.5l11.5,9.6c-1.2,3.9-0.8,7.4,3.9,3.3l17,14.3
		l5.6,12.8c-0.9,0.9-1.7,2.1-2.5,3.4c-2.8,5.1,2,2.9,4.7,1.5l1.9,4.3c-0.3,2.3-0.2,4.9,1.1,6.4c0,0-10.9-1-6.9,8.3
		c0,0,5.5-8.8,7.8-3.9c0,0-4,1.5-1.1,2.6c2.9,1.2,3.4,0.5,3.4,0.5s-1.3-2.7,0.6-2.6l0.5,1.2l0.5-0.1l2.8,6.5l-18.4,16.9
		c-0.1-1.7-0.7-4.4-3.6-6c-4.6-2.6-2.2,5.2-2.2,5.2s1.5-1.3,1.6-2.1c0.1-0.7,0.7,1.1,1.7,1.8c0.5,0.4-0.7,3-1.9,5.1l-25,23.1
		c-0.2-2.2-1.1-7.2-4.1-6.6c-3.9,0.8-7.6,2.8-2.5,4.5c0,0,0-4.2,1.7-2.4c1.7,1.8-2.7,11.5-2.7,11.5l-11.6,10.7L109.8,351.1z
		 M200.3,341.9c0,0.1,0.1,0.3,0.1,0.4l-0.3,1.9l-1.4,0.1C199.3,343.8,199.9,342.9,200.3,341.9z M205.2,348.2c4.4-0.3,9.3-0.6,14.6-1
		l3.7,8.6c-0.4-0.2-0.7-0.3-0.7-0.3c0.7,3.3-1.5,6.3-12.2,8.6c-5.9,1.3-8.7,5.3-9.9,8.6c1.1-7.5,2.2-14.9,3.3-21.8
		C204.5,349.9,204.9,349,205.2,348.2z M227.5,364.9c-0.1,0.7-0.5,1.5-1.1,2.2c-0.5-0.9-1.2-1.6-2.3-1.6c-1.7,0.1-3.4,0.4-4.4,0.9
		c-0.4-0.5-0.6-0.9-0.6-0.9c3.9-3,5.4-5.1,5.7-6.7L227.5,364.9z M223.2,368.7c-0.7,0-1.3-0.3-1.8-0.7c0.3-0.9,0.9-1.7,1.7-0.6
		C223.2,367.8,223.2,368.2,223.2,368.7z M193,394.4v0.2c-0.2-0.2-0.3-0.2-0.3-0.2C192.8,394.4,192.9,394.4,193,394.4z M193.8,389.3
		c-0.5,0.1-1,0.1-1.5,0.2c-1-1.7-2.1-4-2.6-6.3c2.6-5.8,5.1-11.4,7.3-16.4L193.8,389.3z M186.8,389.7c0.9,0,1.8,0.3,2.7,0.8
		c-1.2,0.6-2.2,1.3-3,2.1c-0.2-0.1-0.5-0.3-0.8-0.5C186,391.3,186.4,390.5,186.8,389.7z M185.3,393.8c-0.3,0.3-0.6,0.7-0.8,1
		c0.1-0.3,0.2-0.5,0.3-0.8C185,394,185.1,393.9,185.3,393.8z M179,395.8c0.1-1.9,0.6-3.8,1.9-4.3L179,395.8z M182.8,398.6
		c3.2-3,5.6-2.6,7.2-1.3l-9.4,6.2C181.3,401.9,182.1,400.2,182.8,398.6z M203,397.5C203,397.5,203,397.6,203,397.5v0.1V397.5z
		 M202.2,389.2c-1.2,0.1-2.5,0.1-4,0.1c0.6-4.1,1.2-8.3,1.9-12.5c5-8.1,10.5,0.2,10.5,0.2c3-4.8-2.1-6.9-2.1-6.9
		c5.8-1.3,4.5,6.2,4.5,6.2c2.7-1.3,0.7,2.4,2,0.8s0.1-4.2,0.1-4.2c0.9-1.2,2.7,1.7,4.1,4.3c-0.5,0.8-0.8,1.3-0.8,1.3L202.2,389.2z
		 M220.9,374.5c-0.7-2.3-1.5-4.2-1.5-4.2c1.3,0.1,2.4,0.1,3.4,0C222.3,371.7,221.6,373.2,220.9,374.5z M254.8,364.1L254.8,364.1
		c-0.5-0.5-1-1-1.6-1.4C254.4,363,255.3,363.4,254.8,364.1z M258.2,361.5c-1.6-0.9-4.6-1.4-4.6-1.4s0.3-0.2,0.8-0.5
		c2.2,0.9,5-0.8,5-0.8C260.4,359.2,259.6,360.3,258.2,361.5z M259.1,356.6c0.6-0.4,1.2-0.8,1.8-1.2
		C260.5,355.9,259.8,356.3,259.1,356.6z M264.7,347.9c-1.8-1.3-3.7-2.1-5.6-2.6c-0.2-0.3-0.4-0.5-0.7-0.7c4.2-0.3,8.5-0.6,12.6-0.9
		L264.7,347.9z M231.9,341.9c2.7-2.4,9.2-7.3,15-6.6c0,0-2.7-3.5-8.7-1c0,0,2.1-2.7-0.7-7.9c-2.8-5.1,3.6-6.1,2.7-7
		c-0.9-0.9-9.1,4-8.8,8.1c0,0-9.6-7.4-13,2.4c0,0,11.9-3.6,10.4,1.7c0,0-4.9-1.3-3,1.5s2.9,2.4,2.9,2.4s0.9-3.3,3-1.4
		c2,1.9-0.8,6.3-1.7,7.7c-0.1,0.2-0.1,0.2-0.1,0.3l-6.6,0.5c-4-9.3-7-16.5-8.2-19.3c4.5-9.3,9.8-20.2,13.3-27.5h-0.1
		c0.2-0.5,0.7-1.8,1.4-3.5l34.7,29.1l0.4-0.3l3.9,3.3c-1.1,1.1-1.7,2.9-0.9,6.1c0,0,1.9-2.2,4-3.5l2.2,1.9c-0.4,0.4-0.3,0.9,0.7,1.5
		c0.2,0.1,0.3,0.2,0.5,0.3c-2,0.1-4.5,0.8-4.9,3.4c-0.7,4.5,3.9,5.3,4.5,3.8s0.4-3.2,0.4-3.2s2.9-1.5,4.2-0.8
		c0.2,0.1,0.5,0.2,0.8,0.2l1.9,1.6c0,0.3,0,0.5,0,0.7s0,0.3,0,0.3l-2.7,1.8L231.9,341.9z M289.2,337.1c3.1-2,6.3-4.1,9.5-6.2
		c6.2-1.1,7.2,2.7,7.1,5.5l-9.6,0.7c0.2-1.4-0.3-3.1-0.3-3.1c-0.8,1.7-2.3,2.7-3.9,3.4l-2.3,0.2
		C289.5,337.4,289.3,337.3,289.2,337.1z M296.7,341.9c1.1,2.2,2.8,4.7,2.8,4.7s-1.9-1.8-5-4.6C295.3,342,296,342,296.7,341.9z
		 M379.8,335.7c0.2,0,0.5,0,0.7,0l-0.8,1.6C379.7,336.7,379.7,336.2,379.8,335.7z M381.9,330.2c-0.8-0.4-1.6-0.7-1.6-0.7
		c0.2,0.3,0.3,0.5,0.5,0.8h-0.6c0.3-4.1,0.6-7.2,0.7-8.8c0.9-12.3,4.2-10,4.2-10c-1.8-6.5-5.8,5.6-5.8,5.6s2.8-24.8,4.8-42.4
		c3.1-1.9,6-3.7,8.5-5.2v-0.1c1.6-1.2,11.3-8.4,16.5-9c5.7-0.6,2.7,8.3,2.7,8.3c2.7-0.1,4.3-0.6,5.2-1.3l-2.1,4l0.4,0.3l-7.1,13
		c-0.4-2.1-1.5-5.1-4.5-5c-4.5,0.2-4.4,4.9-2.8,5.1c1.6,0.3,3.2-0.2,3.2-0.2s2,2.6,1.7,3.9c-0.1,0.3-0.1,0.5-0.1,0.8L383.6,330
		L381.9,330.2z M502.2,343.2l-1.3,4.9C500.6,345.8,501.2,344.2,502.2,343.2z M503,360.1c-0.1,1,0,2.3,0.3,3.7
		c-0.5-0.1-1.1-0.3-1.7-0.4c0.3-1.3,0.7-2.5,1-3.7L503,360.1z M576.3,322.1c0.3,0.9,0.5,1.5,0.5,1.5s-0.3-0.5-0.9-1.5
		C576,322.1,576.1,322.1,576.3,322.1z M577.2,304c0,0-0.8-1.7-2.2-3.2c1.2-0.4,2.1-1.1,2.1-1.1s1.6,1,2.4,2.1
		C578.5,302.4,577.7,303.1,577.2,304z M605,216.2c-0.1,0-0.1-0.1-0.2-0.1c-0.3-0.3-0.5-0.7-0.9-1.2c0.7-0.2,1.3-0.2,1.8,0L605,216.2
		z M614.6,198.4c-0.8-0.9-2.2-0.9-2.2-0.9c1.5,3,0.3,6.5-9.4,11.6c-1.1,0.6-2.1,1.3-2.9,2c-0.1,0-0.1-0.1-0.2-0.1l2.1-11.8
		c0,0,5.8-3.9,6.4-1.5s-2.7,1.1-2.7,1.1s2.2,5.3,5.2-2c2.3-5.6-3.9-3.4-6.9-2.1c-0.4-0.1-0.8-0.3-1.2-0.5c0.2-1.2,0.5-3.2,1-5.9
		c13.2,4.1,11.6-2.2,11.6-2.2c-2.4,1.7-5.6,1.9-10.9-1.8c0.4-2.2,0.8-4.7,1.2-7.4c2.4-0.2,4.7-0.3,6.7-0.5c0.8,2,3.6,4.9,3.6,4.9
		s1-1.7,0.6-2.6c-0.4-0.9,1.6,1.1,3.3,1.8c1,0.4,1.1,3.5,1,6.1L614.6,198.4z M617.8,175.8c2.4-0.2,4.2-0.3,5.4-0.4
		c1.4-0.1,2.7-0.2,3.9-0.2l-3.2,5.9C622.9,179.6,621,177.4,617.8,175.8z M628.3,172.2c0,0,0.2,0,0.5,0l-0.1,0.1
		C628.4,172.2,628.3,172.2,628.3,172.2z M627.3,167.5c1.5-0.9,3-2.1,4.3-3.7c1.5-1.8,2.8-3.3,4-4.5l-4.2,7.8L627.3,167.5z
		 M661.9,110.5c-1.8-1.2-4.2-2.3-4.2-2.3c1.8,1.8,2.4,3.7,2.6,5.3l-2.3,4.3c-0.7-4.3-1.5-8.5-2.2-12.5c2.2-3.7,7.9-1.4,7.9-1.4
		c-0.3-5.7-5.7-4.4-5.7-4.4c4-4.4,7.2,2.5,7.2,2.5c0.7-1.3,1.2-0.9,1.5-0.5L661.9,110.5z M667.3,100.6c-0.4-1.6-2.2-2.6-2.2-2.6
		c0-1,1.6-0.7,3.5,0.1c0,0.1,0,0.2,0,0.3L667.3,100.6z M668.3,90.1c0,0-2.1-1.3-4.2-0.6c0.2-0.6,0.4-1.2,0.5-1.8
		C666,87.4,667.4,87.9,668.3,90.1z M662,85.6c-0.1,0.3-0.3,0.6-0.4,0.9c-0.9,0.3-2.3,1-2.7,2.4s0.5-0.1,1.2,0
		c-0.9,1.3-2.2,2.8-3.7,4.5c-0.9,1-1.6,1.9-2.1,2.9c-0.6-3.7-1.2-7.1-1.8-10.1C653.5,85.9,660.6,84.5,662,85.6z M650.8,118.2l0.2,1
		c-0.7-0.8-1.6-1.6-2.8-2.5c-0.7-0.4-1.1-0.9-1.5-1.3C648.1,115.8,649.7,117.1,650.8,118.2z M646.5,95c-2.1,0.2-4.7,0.9-4.7,0.9
		c2.6,0.3,4.2,1.4,5.3,2.5l1.3,7.3c-0.8,0.9-1.4,2.5-1.2,4.8c0,0-0.2-0.3-0.8-0.7c0-0.1-0.1-0.1-0.2-0.1c0,0,0,0-0.1,0
		c-1.1-0.7-3.2-1.5-6.6-1.2c-1.8,0.1-2.9-0.3-3.7-0.9c4.6-2.5,1.7-5.4,0.2-6.6c0.6,1,0.5,3.5-1.3,5.1c-0.5-1.1-0.6-2.2-1.1-2
		c-0.4,0.1-0.4,1.3,0,2.7c-2.5,1-5.2-1.9-5.2-1.9c7.8-10.5,0.8-10.7,0.8-10.7c1.5,3,0.3,6.5-9.4,11.6c-1.2,0.6-2.1,1.3-2.9,2.1
		c1.2-7.6,2.3-13.9,3-18.1c2.8-0.9,5.1-3.1,5.1-3.1c0.3,4.1,9.1,8,9.9,7s-5.7-1.2-3.7-6.7c1.7-4.4,0.4-6.8-0.2-7.6
		c0.1-0.1,0.1-0.1,0.2-0.2c0.3,0.1,0.6,0.1,0.9,0.2c0.1,0.1,0.2,0.2,0.4,0.3c0,0,0-0.1,0-0.2c0.7,0.1,1.2,0.1,1.8,0.1
		c0,0.4,0.1,0.9,0.3,1.5c0,0,6-5.2,9.2,0.2L646.5,95z M647.8,27.3c0.1-0.5,0.1-0.9,0.1-1.4c0.8,0,1.7-0.1,2.6-0.1
		C648.6,26.4,647.8,27.3,647.8,27.3z M667.9,25.7c1.2,1.2,4.9,5,3.3,7.2c-1.6,2.2-3.2-0.8-3.2-0.8s-1-0.1-2.3,2.9s3.3,0.9,3.3,0.9
		c2.4,4.4-7.4,3.8-9.4,3.6c3.9-4.7-3.4-8.8-3.4-8.8c2.1-0.5,3.8-2.9,4.8-5.1c2.3-0.1,4.5-0.1,6.8-0.2
		C667.7,25.4,667.7,25.5,667.9,25.7z M656.5,25.7c0.1,0,0.2,0,0.3,0C656.7,25.7,656.6,25.7,656.5,25.7z M645.3,26
		c-0.5,3.1-2,6.3-3,8.1c-0.3-2.8-0.7-5.5-1-8C642.6,26.1,643.9,26,645.3,26z M633.9,26.3l0.7,3.9c-2.4-2.2-9-3.7-9-3.7
		S628.8,26.5,633.9,26.3z M620.6,29.8c13.6-1.1,13.2,3.3,13,4.2c-0.3-0.3-0.5-0.5-0.5-0.5c0.4,2.8-1.2,5.8-3.1,8.2
		c-0.9,0.2-1.8,0.5-2.7,1c-0.1,0.1-0.2,0.1-0.2,0.2c0.9-4.2,1.8-8.1,2.5-11.4l-7.6-1.3l-3.4,22c-1.8-1.9-5.1-4.6-9.2-3.7
		c-6.2,1.4-3.3,5.9-1,5.8c0.9,0,1.7-0.2,2.4-0.4c-0.6,0.6-1,1.5-0.8,2.2c0.6,2.3,2.1,4.1,2.1,4.1s-1.5,4.6-3.2,5.1
		c-0.3,0.1-0.6,0.3-0.9,0.5h-3.1c0-1.3,0.5-2.3,1.4-3.1c0,0-3.5-1.1-3.9,3.1l-21.2,0.1c0.2-0.5,0.4-1.1,0.5-1.6
		c0.7-0.5,1.3-1.1,2-1.7c8.2-8.6,12.6-9.3,15.9-7.3c0,0,1.2-6.9-13-1c0,0-0.6-0.6-1-1.5c0.2-0.5,0.3-0.9,0.5-1.4
		c2.1-0.4,4.7-2.4,6.6-4.1c0.1,0.1,0.2,0.1,0.3,0.2c-0.1-0.1-0.1-0.2-0.2-0.3c1.5-1.3,2.5-2.4,2.5-2.4c2.2,3.7,4.1,5.6,5.7,6.4
		c-0.5,1.2-0.9,2-0.9,2c2.7-0.3,4.2-1.2,4.9-2.3c1-0.7,1.7-1.7,2.1-2.4c-0.3,0.3-0.8,0.5-1.4,0.6c0.3-2.4-1.3-5.1-1.8-5.9
		c10.7,2.7,9.3-2.9,9.3-2.9c-1.2,0.9-2.6,1.3-4.4,1.1c2.4-1.6,4.2-3.9,3.7-4.4c-0.8-0.8-2.4,4.2-7.2,1.1c-2.7-1.8-4.9-2.1-6.2-2
		c-0.3-0.3-0.6-0.5-0.9-0.8c0.8-1.6,0.8-2.9,0.6-4C609.2,30.7,617.3,30.1,620.6,29.8z M596.9,31.5c-0.2,0.7-0.5,1.4-0.9,2
		c-0.8-0.7-1.7-1.3-2.6-1.8C594.6,31.7,595.7,31.6,596.9,31.5z M484.5,45.3c-2.6,1.1-2-2.3-2-2.3s-5.7,3.4,3.8,4.5
		c9.4,1.1-0.6-8.4-0.6-8.4s56.2-3.8,96.5-6.6c0.9,0.5,1.4,1.2,1.7,1.9l-3.1,11.7c-1.6-2.1-4.6-5.2-8.7-4.7c-6.3,0.7-3.9,5.5-1.6,5.7
		c0.4,0,0.9,0,1.3,0c2.3,2.3,6.8,7.1,4.4,7.5c0,0-2.2-2.2-4.7-1.7c-2.4,0.5,2.6,0.3-0.2,2.2c0,0,8.9,2,4.4,6.7c0,0,0.4-5.5-6.5-4.9
		c0,0,4.4,6.1-1.1,8.6c-3.5-5.8-2.9-8.6-0.7-10.3c0,0-6.4-2.8-3.8,10c0,0-3.8,1.5-5.6-0.6c0.5-0.4,0.7-0.8,0.6-1.1
		c-0.2-0.3-0.6-0.1-1.1,0.2c-1-2.2-0.1-4.6,0.9-5.3c-1.8,0.4-5.7,1.9-2.5,6.1c-1.2,0.4-2.8,0.3-4.6-1.6c-0.4-0.4-0.8-0.8-1.2-1.2
		c0-0.4-0.1-0.6-0.1-0.6c-0.1,0.1-0.1,0.3-0.2,0.4c-3.2-2.6-5.6-2.2-5.6-2.2c4.1-3.6,1.6-7.1,1.6-7.1c-0.9,4.6-7.1,7.7-10.2,8.9
		c2-3.2,3.9-6.3,5.6-9c0.4-0.1,0.7-0.2,0.7-0.4c0-0.1-0.1-0.2-0.2-0.2c0.5-0.8,1-1.6,1.5-2.4l-6.8-3.7l-4,7.4
		c-1.3,0.6-2.3,1.3-2.9,2.2c0,0-3.8-10.5-12.6-3.4c0,0,12.4,1.9,7.9,5.9c0,0-3.5-3.2-3.5,0c0,0.9,0.1,1.5,0.2,2
		c-0.9-0.5-1.9-0.9-3.1-1.1c-6.3-0.8-5.1,4.5-2.8,5.1c2.2,0.7,4.4,0.5,4.4,0.5s0.8,0.8,1.6,1.8c-0.1,0.1-0.2,0.1-0.3,0.2l-68.9,0.3
		c1.3-2,3-5.6,1.7-10.4c-0.2-0.7-0.4-1.2-0.6-1.6c1.4-1.1,2.8-2.3,4.2-3.5c2.9,1.6-2.1,1.8,0.3,2.1c2.5,0.3,4.5-2,4.5-2
		c3.1,0.3-5.1,9-5.1,9c3.9,0.2,10.1-6.7,10.1-6.7c1.2,2.1,2.4,3.7,3.5,4.7c-1.6,1.5-3.6,2.7-3.6,2.7c3.7,1.8,5.9,1,7.1-0.6
		c2.5,0.5,4.2-1.8,4.9-3c-0.7,0.6-2.2,0.9-3.8,0.8c0.6-1.9,0.4-3.8,0.4-3.8c3,2.8,10.9,0.8,10.7-0.3c-0.2-1-3.2,1.4-5.6-1.2
		c5.4,0.1,4.5-3.6,4.5-3.6c-1.6,1.1-3.6,1.6-6.3,0.7c-2.3-4-4.9-4.3-4.9-4.3c4-1.7,4-4.7,3.9-5.7l2.5-0.1
		C481,39.5,487.1,44.2,484.5,45.3z M579,50.2c-1.4-1.1-3.2-2.5-5-3.4c0.5-0.1,0.9-0.2,0.9-0.2S578.5,48.7,579,50.2z M471.1,40.1
		l7-0.4c-1.6,2.3-4.7,3.5-7.6,4.1c-0.3-0.3-0.7-0.6-1-0.9s-0.5-0.5-0.8-0.7C469.5,41.4,470.3,40.8,471.1,40.1z M472.5,56.8
		c-1.1-0.9-1.2-2.1-1-3.1c0.2-0.3,0.2-0.5,0.2-0.5C473.6,54.2,473.4,55.5,472.5,56.8z M457.9,51c1.8-1.5,3.5-2.9,5.3-4.4
		C463.2,49.2,458.6,50.7,457.9,51z M456.8,43.5l-1.5,1.4c-0.1-1.1-0.3-2.4-0.8-3.8l0,0C455.8,41.7,456.5,42.5,456.8,43.5z
		 M448.3,41.4c1,0.4,1.8,0.6,1.8,0.6s2.2,4.2,1.5,5.5c-0.1,0.3-0.2,0.5-0.2,0.9L434,64.6c0.4-1.5,0.6-3.1,0.5-5
		c-0.9-10.9,1.4-13.9,4.7-14.2c0,0-3.9-5.8-8.5,6.5c0,0-4.6-0.9-4.4-4.1c0.1-2.6,2.3-4.3,3.7-4.3c-2.2-0.8-8.2-1.9-3.9,9.8
		c0,0-8.5-1.1-10.5,1.4c0,0,10.8,1.2,9.3,3.3c0,0-2.8-0.4-4,1.3s1.8-1.2,1.3,1.7c0,0,6.8-3.5,7.2,2.5c0,0-3.5-4.3-7.2,0
		c0,0,3.3,1,4.7,3.3l-23.2,0.1c0.5-0.9,1.2-2.2,1.8-3.6c0.5,0,0.8,0.2,0.8,0.2c-0.2-0.3-0.3-0.6-0.5-0.9c1.1-2.7,1.6-5.8-0.4-7.3
		s-4.2-2.6-5.6-2.6c0.3-2.3,0.6-4.8,0.9-7.3c2.7,0.1,5.2,0.3,6.9,0.9c6.4,2.2-2.2,8.6-2.2,8.6c15.9,6.3,5-11.2,5-11.2L448.3,41.4z
		 M402.2,34.4c0,0,0.1,0,0.3-0.1c1.3-0.8,5.6-3.3,7.6-1.7c2,1.6-1.3,2.5-1.3,2.5s-0.2,0.8,2.6,2.3c2.8,1.5,1.3-2.5,1.3-2.5
		c2.5-0.7,3.1,1.3,3.1,3.5l-14.3,1.1C401.8,37.7,402,36,402.2,34.4z M318,51.2c15-1.1,12.8,2.6,12.8,2.6c7.5-2.9-7.7-4.8-7.7-4.8
		s41.3-1.8,61.7-2.6v-0.1c1.2-0.1,5.3-0.7,9.9-0.9l-1.4,20.2c-0.7,0.4-1.3,0.8-1.7,1c-0.5-0.6-1-1.1-1.6-1.7
		c-8.1-7.3-8.5-11.1-6.3-13.5c0,0-6.8-1.6-1.8,10.6c0,0-3.9,2.5-6.1,0c-1.7-2-1.2-4.7-0.3-5.7c-2.2,1-7.3,4.2,3.8,9.8
		c0,0-0.5,0.3-1.2,0.9l-49.2,0.2l-0.1,0.5h-1.1l-6.2-2.7l-1.2,2.8h-7.6c-0.3-0.3-0.7-0.5-1-0.7c1.7-1.4,3.3-3.5,1.7-5.6
		c-1.3-1.8-3-2.2-4.5-2.1c0.1-2.5-0.5-4.5-1.1-4.4c-1.2,0.2,1.7,4.5-4,6.7s-6.7,5.4-6.7,5.4c-1.5-5.3-5.9-4.2-5.9-4.2
		c1.6,1.1,2.5,2.9,3,5h-4.9c-0.8-1.2-1.6-2.4-2.3-3.5l-4.8,3.5h-13.7c-0.9-1.2-1.7-2.6-2.7-4.3c-3-5.5-8.4-7.2-12.7-7.7
		C282.5,53.7,311.1,51.8,318,51.2z M248.3,56.1c10.9,3,2.4,10.3,2.4,10.3c6.5,1.8,7.7-3.6,7.7-3.6c1.6,2.8-0.3,4.3-2.4,5h-9.2
		c0.1-0.4,0.1-0.8,0.1-1.2c2.1-3.7,4.6-2.3,4.6-2.3c-1.9-5.1-6,0.2-7.9,3.1c-0.2,0.1-0.5,0.2-0.7,0.3c0.4-2,1.2-6.2,2.3-11.4
		C246.2,56.2,247.3,56.1,248.3,56.1z M229.3,52.9c2.2-1.9,6.9-5.6,11.7-6.5l-0.8,5.6L229.3,52.9z M240.7,44.5
		c-1.3-0.2-3-0.1-5.2,0.8c0,0,1.1-1.4,0.7-4.1C237,41.6,240.4,43.2,240.7,44.5z M218,58.1c-0.2,1.6,1.2,3.9,6.4,6.9
		c0,0-1.9,1.2-3.7,2.7l-38.3,0.1c0.7-0.5,1.6-1.1,2.6-1.8c2.2-0.1,2.7-0.7,2.5-1.5c3.1-1.6,6.9-2.9,10.3-2.2c0,0-2.4-3.7-8.6-1.6
		c0,0,0.2-0.2,0.4-0.7C195.8,59.6,206,59,218,58.1z M170.1,45c0,0,0.1,0,0.4-0.1c1.5-0.6,6-2.4,7.8-0.6c1.7,1.9-1.6,2.3-1.6,2.3
		s-0.3,0.8,2.2,2.6c2.6,1.9,1.7-2.3,1.7-2.3c3.5-0.4,2.8,3.5,2,6.2c-1.9-1.5-9.1-6.5-12.7,1.8c0,0,10.8-2.4,10.4,1.7l-13.7,1
		C167.6,53.5,168.9,49.2,170.1,45z M158.1,67.9h-8.5c-0.1-0.1-0.1-0.2-0.2-0.3c1-1.1,2.1-2.8,1.8-5l8.2-0.5L158.1,67.9z M138.7,63.3
		c-1.4,0.8-2.6,2.2-1.1,4.6h-27.5c-1-1.5-2.1-2.8-2.1-2.8L138.7,63.3z M107.2,68h-3.6c-0.2-0.4-0.3-0.9-0.5-1.3
		c0.7,0.1,1.4,0.2,2,0.3C106.3,67.3,106.9,67.6,107.2,68z M85.1,71.6c-0.8,2.7,2.5,3.9,4,2.9c1.3-1,2.3-2.2,2.8-2.8l6.2,0.1
		c0.2,0.1,0.4,0.3,0.6,0.4l9.6,21.7c-1.2-0.9-2.8-1.6-4.6-2.1c-10.6-2.7-12.6-5.8-11.8-9.1c0,0-6.7,1.8,3.3,10.2
		c0,0-2.3,4.1-5.4,2.8c-2.4-1-3.3-3.6-2.9-4.9c-1.5,1.9-4.5,7.1,7.9,6.9c0,0-3.8,7.6-2.1,10.3c0,0,4.7-9.8,6.1-7.7
		c0,0-1.3,2.5,0,4.2s-0.5-2.1,2.1-0.7c0,0-1-7.5,4.7-6c0,0-5.2,1.8-2.4,6.8c0,0,4.7-6.4,9-1.9l5.6,12.8c-2,0.6-4.3,1.9-4.3,1.9
		c2.6-0.3,4.4,0.4,5.7,1.2l3,6.8c-0.6,1.1-0.8,2.7,0,5c0,0-2.5-2-7.9-0.3c-5.4,1.8-5.7-3.6-6.7-2.9c-1,0.6,3,7.8,7.1,8
		c0,0-8.4,7,1,10.8c0,0-2.3-10.1,2.8-8.3c0,0-1.8,3.9,1.1,2.6c2.9-1.3,2.7-2.1,2.7-2.1s-3.2-1.1-1.1-2.6c1.6-1.1,4.3,0.2,6.1,1.3
		l10.4,23.6l-4.1,18.4c-1.7-1.5-4.9-3.6-9.8-3.7c-7.8-0.1,2.3,5.8,2.3,5.8s0.5-1.9-0.2-2.7s1.8,0.6,3.7,0.9c0.8,0.1,1.6,1.9,2.2,3.9
		c-3.1-3.5-5.2-0.2-5.2-0.2c2.3,0.1,4,1.5,4.8,5.8l-2.1,9.6c-7-6-12.3-10.5-14.4-12.3c-9.4-7.9-4.5-10.7-4.5-10.7
		c-7.1-1.4-0.7,10.1-0.7,10.1s-13.2-12.5-25.1-23.8c0,0,0.1-0.1,0.1-0.3c0.1-1.6,0.6-6.5,3.1-7.1c2.5-0.7,1.3,2.5,1.3,2.5
		s0.5,0.7,3.4-0.8c2.8-1.4-1.3-2.5-1.3-2.5c1.9-5.1,8.1,3.1,8.1,3.1c3.1-9.6-7.7-7.7-7.7-7.7c2.4-3.3-0.5-11-1.6-10.6s2.8,4-2,7
		s-4.9,6.2-4.9,6.2c-2.7-4.7-6.6-3-6.6-3c4.3,1.9,6,8.5,6.7,11.8c-3.8-3.6-7.4-7-10.3-9.8l-5,5.9l17,14.3c-2.6,0.5-6.6,1.9-8,5.9
		c-2,6,3.4,5.9,4.5,3.8c1.1-2.1,1.3-4.2,1.3-4.2s3.9-2.7,5.3-2.2c0.3,0.1,0.6,0.1,0.9,0.1l18.2,15.3c-1.5-0.2-3.2-0.2-5,0.2
		c-10.7,2.2-13.9,0.3-14.6-2.9c0,0-5.2,4.6,7.5,7.7c0,0-0.3,4.7-3.6,4.9c-2.6,0.2-4.6-1.8-4.8-3.1c-0.5,2.3-0.9,8.4,10.2,2.7
		c0,0,0,7,2,9.6l-14.9,1.1c3.9-4.9-0.3-6.3-2.2-6.7c0.9,0.5,1.7,2.3,1.4,4.1c-0.4-3.2-6-8-6-8c11.5-4.7,6.7-8.3,4.6-9.4
		c0.8,1,1.1,3.8-0.8,5.6c-2.3,2.3-6.1-0.5-6.1-0.5c5.9-11.7-0.9-10.7-0.9-10.7c2,2.7,1.3,6.3-7.3,13c-1.1,0.8-2,1.7-2.7,2.7
		l0.2-12.3c0,0,5.1-4.8,6-2.5s-2.5,1.5-2.5,1.5s3,4.8,4.8-2.8c1.8-7.7-8.5,0-8.5,0s0.1-46.3,0.1-79.4c2.8-3.3,8.1-0.1,8.1-0.1
		c0.7-5.7-4.8-5.3-4.8-5.3c4.7-3.7,6.7,3.7,6.7,3.7c1.8-2.3,1.7,1.8,2.2-0.2s-1.7-3.8-1.7-3.8c0.5-2.5,8.7,4.7,8.7,4.7
		c0.5-3.2-6-8.7-6-8.7c11.5-4.7,6.7-8.3,4.6-9.4c0.8,1,1.1,3.8-0.8,5.6c-2.3,2.3-6.1-0.5-6.1-0.5C80.8,78.4,74,79.4,74,79.4
		c2,2.7,1.3,6.3-7.3,13c-1,0.8-1.9,1.6-2.6,2.5c0-10.9,0-19.3-0.1-22.4c0-0.4,0-0.8,0-1.2L85.1,71.6z M56.8,116v3
		c-1-1.8-3.8-3.5-5.8-4.5c-0.5-0.7-0.9-1.7,0.6-2.1C53.6,111.9,55.6,114.2,56.8,116z M45.9,109.3c0,0-0.1,0-0.3,0.1
		c0-0.1,0-0.2,0-0.3C45.7,109.2,45.8,109.3,45.9,109.3z M47,124.1c-1-5.6-6.2-3.7-6.2-3.7c0.4-0.6,0.8-1,1.3-1.3
		c0.2,0.2,0.3,0.3,0.5,0.5c0,0,0.1-0.3,0.2-0.9c2.8-1,5.5,3.2,5.5,3.2c1.1-2.8,2.1,1.3,2-0.8s-2.7-3.2-2.7-3.2
		c-0.2-2.3,7.6,1,9.3,1.7l0.6,52.9c-1-0.6-2.5-1.2-4.3-1.5c-4.3-14-9.4-30.5-13.8-44.4C41,122.6,47,124.1,47,124.1z M54,173.8
		c1,0.3,2.5,2.7,3.6,4.8l0.1,7C56.5,182,55.3,178,54,173.8z M65.8,231.8c-0.7-0.1-1.5-0.2-2.4-0.3l0.1-6.9L65.8,231.8z M69,241.7
		l0.5,1.5c-3.2,0.7-6.3,2-6.3,2l0.1-7.6C66.3,239.5,69,241.7,69,241.7z M64.1,491.4l0.3-31c2.4,0.9,4.2,11,4.2,11L64.1,491.4z
		 M85.7,395.6c-1.6-2.8-4.7-9.3-2.5-13.6c0,0-4,1.1-3.1,6.5c0,0-2.1-2.4-7.7-1.7c-5.6,0.8-4.9-4.5-6.1-4.1s1.5,8.2,5.5,9.2
		c0,0-9.5,5.4-1,10.8c0,0-0.4-10.3,4.3-7.6c0,0-2.5,3.5,0.6,2.8s3.1-1.6,3.1-1.6s-2.9-1.7-0.6-2.7c2.3-1.1,5.8,2.4,6.9,3.5
		c0.1,0.1,0.2,0.2,0.3,0.2l-5.6,24.9c-1-1.4-3-3.2-6.4-2.9c-5.2,0.4,1.1,5.5,1.1,5.5s0.5-1.9,0.1-2.6s1.2,0.5,2.4,0.6
		c0.7,0.1,1.1,2.8,1.4,5.3l-7.5,33.2c-1.3-1.5-4.4-4.6-6.5-3.5l0.2-21.3c0,0,3.4-4.8,4-2.5s-1.6,1.5-1.6,1.5s2,4.8,3.2-2.8
		c1.2-7.7-5.6,0-5.6,0s0-26.5,0-53.7c3.7-8.8,10.4-1.4,10.4-1.4c2.3-5.2-3.1-6.5-3.1-6.5c5.5-2.2,5.3,5.4,5.3,5.4
		c2.4-1.7,1.1,2.2,2.1,0.5c1.1-1.8-0.5-4.2-0.5-4.2c1.2-2.2,6.9,7,6.9,7c1.4-2.9-3.2-10-3.2-10c12.4-1.1,8.8-6,7.1-7.7
		c0.5,1.2-0.1,3.9-2.4,5.2c-2.9,1.6-5.7-2.2-5.7-2.2c4.2-4.3,5-6.9,4.6-8.4c1.8-0.2,5-0.5,8.3-0.7L85.7,395.6z M94.4,377.6
		c1.8-7.6,3.5-15.1,5.1-22c1.6,0,3.1,0,4.5,0c1.1,0.4,2,1.2,2.7,2l0.9,2.7c-1.2,0.8-2.3,1.4-2.3,1.4c1.1,0.3,2.1,0.5,2.9,0.6
		l1.2,3.8l-3.9,3.6c-0.2,0-0.4,0.1-0.6,0.1C99,370.6,96,374.3,94.4,377.6z M142.7,438.3c-1.2-7.7-5.3,1.7-5.3,1.7
		s-7.8-25.3-15.9-51.3c0.9-9.5,9.6-4.4,9.6-4.4c0.6-5.7-4.9-5.3-4.9-5.3c4.6-3.7,6.7,3.6,6.7,3.6c1.8-2.3,1.7,1.8,2.2-0.2
		s-1.7-3.8-1.7-3.8c0.5-2.5,8.7,4.6,8.7,4.6c0.5-3.2-6.1-8.6-6.1-8.6c11.5-4.8,6.6-8.4,4.5-9.5c0.9,1,1.1,3.8-0.7,5.6
		c-2.3,2.4-6.1-0.5-6.1-0.5c5.9-11.7-1-10.7-1-10.7c2,2.7,1.4,6.3-7.2,13.1c-4.8,3.7-5.5,8.5-5.2,12.1c-0.8-2.6-1.6-5.2-2.4-7.7
		c6.9-0.2,5-4.5,4-6.2c0.2,1.3-0.9,3.8-3.5,4.5c-0.3,0.1-0.7,0.1-1,0.1c-0.6-1.8-1.1-3.5-1.6-5.3c5.4-4.2,4.2-6.5,3-7.5
		c1.8-1.4,3.5-2.6,4.9-3.2c4.9-2.2,2.1,5.6,2.1,5.6c12.6-4.9-1.3-8.5-1.3-8.5l3.9-3.5l52.6-3.2c0,0,6,3,3.4,3.8s-1.9-1.5-1.9-1.5
		s-5.7,2.4,3.7,2.9s-0.4-5.6-0.4-5.6s5.3-0.4,13.8-0.9v0.3l-5.9,13.5c-1.2-0.8-2.9-1.2-2.9-1.2c1.2,1.3,1.5,2.9,1.5,4.4l-7.9,18
		c-1.2-0.2-2.9-0.3-5,0.2c-5.6,1.2-5.3-4.1-6.4-3.6s2.2,8.1,6.2,8.7c0,0-8,5.4-1.5,10l-5.2,12c-1-3.1-2.9-10,0.1-13.8
		c0,0-4.2,0.3-4.3,5.8c0,0-1.6-2.8-7.3-3.1c-5.7-0.3-4-5.4-5.2-5.2c-1.2,0.2-0.1,8.3,3.7,10.1c0,0-10.4,3.5-3,10.4
		c0,0,1.5-10.2,5.6-6.7c0,0-3.1,3,0.1,2.8c3.2-0.1,3.3-1,3.3-1s-2.6-2.2-0.1-2.8c2.5-0.6,5.3,3.5,6.2,4.8c0.1,0.1,0.2,0.2,0.2,0.2
		l-10.2,23.4c-0.7-1.5-2.4-3.7-5.7-4.1c-5.2-0.5,0.1,5.6,0.1,5.6s0.8-1.8,0.6-2.5s1.1,0.7,2.3,1c0.7,0.2,0.6,3,0.4,5.4l-12.5,28.8
		l-8-26.5c0,0,1.8-5.5,3-3.6c1.3,1.9-1.1,1.9-1.1,1.9S143.9,446,142.7,438.3z M148.7,477.1l-0.4-1.4l1.2-2.6
		c0.1,0.2,0.3,0.4,0.5,0.7c0,0,3.3-3.4,3.5-0.9C153.4,474,151.2,475.6,148.7,477.1z M154.6,479.5c1.5-1.9,4.4-6.4,1.1-7.7
		c-1.8-0.7-3.7-1.3-5.1-1.3l8.8-19.2c0,0,5-3,4.7-0.7s-2.1,0.7-2.1,0.7s-0.1,5.2,4-1.3c4.2-6.5-5.1-2.3-5.1-2.3s7.9-17.7,17.1-38.4
		l5.9-3.6c0,0,4-2.9,8.3-5.5l-2.6,18.2c-1.1-1.3-3.3-2.9-6.6-2.4c-5.2,0.9,1.6,5.4,1.6,5.4s0.3-2-0.1-2.6c-0.4-0.6,1.2,0.4,2.5,0.4
		c0.7,0,1.4,2.7,1.8,5.1l-4.8,33.6c-1.6-1.6-5.4-4.8-7.4-2.5c-2.5,3-4.1,7,0.9,5.1c0,0-2.7-3.3-0.2-2.9s5.2,10.6,5.2,10.6l-1.3,9.3
		L154.6,479.5z M236.3,473.4c2.7-2.4,9.2-7.3,15-6.6c0,0-2.7-3.5-8.7-1c0,0,2.1-2.7-0.7-7.9c-2.8-5.1,3.6-6.1,2.7-7s-9.1,4-8.8,8.1
		c0,0-9.6-7.4-13,2.4c0,0,11.9-3.6,10.4,1.7c0,0-4.9-1.3-3,1.5c1.9,2.7,2.9,2.4,2.9,2.4s0.9-3.3,3-1.4c2,1.9-0.8,6.3-1.7,7.7
		c-0.1,0.2-0.1,0.2-0.1,0.3l-31,2.3c1.2-1.4,2.7-3.9,1.2-7c-2.3-4.9-6.1,2.8-6.1,2.8s2.4-0.2,3.1-0.7c0.6-0.5-0.1,1.3,0.2,2.5
		c0.2,0.7-2.9,1.9-5.7,2.9l-11.1,0.8l6.9-43.5c0,0,4-4.2,4.3-1.9s-1.8,1.2-1.8,1.2s1.3,5.1,3.5-2.3c2.3-7.4-5.5-0.8-5.5-0.8
		s1.8-12.1,4.3-28.3c1,0.4-0.7,2.3,0.7,1.3c1.7-1.2,1.2-4,1.2-4c2-1.6,3.5,9.2,3.5,9.2c1.3-1.1,1.5-4,1.5-6.5c2.8-0.8,4-1.8,4.1-2.9
		c7,1.2,6-3.4,5.3-5.3c0,1.3-1.6,3.6-4.3,3.8c-0.7,0.1-1.4-0.1-1.9-0.5c-0.3-0.3-0.6-0.6-1-0.9c-1-1.3-1.4-2.9-1.4-2.9
		c5.6-2.3,7.4-4.3,7.6-5.9l19.9-12.7l7.6,17.5c-2.9-1.3-9.3-4.7-10-9.4c0,0-2.6,3.3,1.3,7.1c0,0-3.1-0.7-7.2,3.2
		c-4.1,3.9-6.7-0.7-7.3,0.3s6.1,5.7,9.9,4.2c0,0-4.5,10,5.6,9.3c0,0-6.5-8.1-1.1-8.7c0,0,0.1,4.3,2.1,1.9s1.5-3.1,1.5-3.1
		s-3.3,0.4-2.1-1.8c1.2-2.2,6.1-1.5,7.7-1.3c0.2,0,0.3,0,0.3,0l10.2,23.4c-1.6-0.5-4.3-0.8-6.9,1.4c-4,3.5,4.2,3.8,4.2,3.8
		s-0.8-1.8-1.5-2.2s1.2-0.3,2.3-1c0.6-0.4,2.6,1.6,4.2,3.4l13.6,31.2c-2.2-0.5-7.1-1.3-7.6,1.7c-0.5,3.9,0.2,8.1,3.4,3.9
		c0,0-4-1.4-1.7-2.4s10,6.3,10,6.3l3.3,7.5L236.3,473.4z M283.8,494.2c-3.1-0.1-6.5-2.7-10.7-10.3c-3-5.5-8.4-7.2-12.7-7.7
		c5.1-0.3,10.2-0.7,15.1-1L283.8,494.2z M300.6,468.5c0.2-1.4-0.3-3.1-0.3-3.1c-0.8,1.7-2.3,2.7-3.9,3.4l-19.3,1.4l-17.2-41.4
		c0,0,1.2-5.7,2.7-3.9c1.4,1.8-0.9,2-0.9,2s3.7,3.7,1.8-3.8c-1.9-7.5-5.1,2.2-5.1,2.2s-10.4-24.4-21-49.4c0-9.5,9.1-5.3,9.1-5.3
		c0-2.5-1-3.7-2.2-4.3l1.5-0.9c1.5,1.2,2.3,3.4,2.3,3.4c1.6-2.5,1.9,1.6,2.1-0.4c0.3-2-2.1-3.6-2.1-3.6c0.1-1.1,1.9-0.5,3.9,0.5
		c0,0.3,0,0.5,0.2,0.7c-0.5,0.3-0.8,0.5-0.8,0.5c0.7,0.2,1.7,0.2,2.7,0c1.7,1,3.2,2,3.2,2c0-0.8-0.4-1.7-1-2.6
		c3.5-1.2,7.2-3.5,7.2-3.5c2.2,12.3,7.9,8.3,9.9,6.5c-1.4,0.6-4.8,0.3-6.4-1.9c-2.1-2.8,2.3-5.8,2.3-5.8c12.1,8.3,12.9,1.3,12.9,1.3
		c-3.7,1.4-7.9,0-13.3-9.9c-0.3-0.5-0.6-1-0.9-1.5c3.6-2.3,7.7-5,12.1-7.9c3.4-0.2,6.7-0.5,9.9-0.7l26.2,22.2c-1.1,0.9-2,2.4-2,2.4
		c1.6-0.8,3.2-0.6,4.6-0.2l30.8,26l-2.5,4.6c-1.5-0.6-2.8-1.5-3.7-2.7c0,0-0.6,3,2.5,5l-0.9,1.7c-0.6-1.6-2-3.9-5.3-4.5
		c-5.2-1-0.4,5.6-0.4,5.6s1-1.8,0.8-2.5s1,0.8,2.2,1.2c0.7,0.2,0.3,3-0.1,5.4l-1.5,2.8c-2,1.2-4.3-0.2-4.4,0.7
		c-0.1,0.5,1.4,1,3.3,1.2l-13.9,25.1c-0.9-2-3.4-6.4-6-4.9c-3.4,2-6.3,5.1-1,5c0,0-1.3-4,0.8-2.8c2.2,1.2,1.2,11.8,1.2,11.8
		l-12.1,22.3L300.6,468.5z M318.2,467.2c-2.3-0.6-5.4-0.4-5.4-0.4l28.5-50.4c0,0,5.2-2.5,4.7-0.3s-2.1,0.5-2.1,0.5s-0.6,5.2,4.1-1
		c0.2-0.2,0.3-0.5,0.5-0.7c1.3,1.7,3.5,2.5,7.4,0.3c0,0-9.4-4.4-4.8-7.3c0,0,2,3.8,2.8,0.7c0.8-3.1,0-3.4,0-3.4s-2.8,1.8-2.7-0.7
		c0.1-1.4,1.5-2.5,3.1-3.3c0.6,0.6,1.5,1.1,2.7,1.6c0,0-0.2-1.1-0.3-2.6c0.4-0.1,0.7-0.2,0.9-0.3c0.2-0.1,0.3-0.1,0.3-0.1l11.7,9.9
		l-0.8,11c-1.2-1.2-3.5-2.7-6.7-1.9c-5.1,1.2,2,5.3,2,5.3s0.2-2-0.3-2.6s1.2,0.3,2.5,0.2c0.7,0,1.5,2.6,2.1,5l-2.2,29.7
		c-3.1-2.5-7.1-0.1-6.4,1.2c0,0,0,0.1,0.1,0.1c-0.6,0.1-1.1,0.4-1.5,0.9c-1.7,2.4-2.9,5.3-1.3,5.6L318.2,467.2z M373.5,413.2
		l3.8,3.2c-1.2,0.2-2.9,0.8-4.2,2.2C373.2,416.9,373.3,415.1,373.5,413.2z M357.9,464.2c0.1,0,0.2-0.1,0.4-0.1
		c-0.1,0-0.1,0.1-0.2,0.1H357.9z M359.4,463.7c-0.3-0.3-2.7-3.1-0.4-2.9c0.6,0,1.2,0.6,1.8,1.5C360.4,462.8,359.9,463.4,359.4,463.7
		z M382.5,461.9l-0.1,0.5l-13.2,1l2.5-27.4c0,0,3.7-4.5,4.2-2.2c0.4,2.3-1.7,1.4-1.7,1.4s1.6,5,3.4-2.6c1.8-7.5-5.6-0.4-5.6-0.4
		s0.3-3.3,0.7-8.8c1.7,0.1,4.5-1.1,4.5-1.1s-1.5-1.3-2.3-1.3s1-0.8,1.6-1.9c0.4-0.6,3,0.3,5.3,1.2l25.9,21.9c-2.2,0.5-7,2-6,4.9
		c1.2,3.7,3.7,7.2,4.7,2c0,0-4.2,0.5-2.6-1.4s11.8,1.2,11.8,1.2l11.2,9.5L382.5,461.9z M457,456.1c1.4-2.8,4.2-9.5,0.9-11.7
		c-4.3-2.8-9.4-4-5.8,2.8c0,0,3.2-5,3.4-1.2c0.3,3.8-11.1,11-11.1,11l-2.1,0.2c-3.8-6.1-5.8-2.6-6.7,0.5l-4,0.3l-40.3-35.2
		c0,0-1.4-5.6,0.7-4.7c2.1,1,0.1,2.2,0.1,2.2s5,1.6-0.1-4.2c-5.1-5.9-3.6,4.2-3.6,4.2s-5.8-5-14.4-12.4c0.7-8.7,1.5-19,2.4-29.4
		c4.4-8.4,10.5-0.5,10.5-0.5c0.2-0.4,0.4-0.8,0.5-1.2c0,0.2,0,0.3,0,0.3c0.8-0.6,1.3-1.7,1.6-3.1c0.4,1.6,0.2,3.1,0.2,3.1
		c2.6-1.5,0.9,2.3,2.1,0.6c1.2-1.7-0.1-4.2-0.1-4.2c1.4-2.1,6.4,7.5,6.4,7.5c1.6-2.8-2.4-10.3-2.4-10.3c12.5-0.1,9.2-5.3,7.7-7.1
		c0.4,1.2-0.4,3.9-2.8,5c-1,0.4-2,0.3-2.8-0.1c3.1-0.5,2.6-3.7,2.2-5.2c-0.1,1.3-1.8,3.2-4.3,3.4c-0.3-0.4-0.5-0.8-0.5-0.8
		c6.2-5.5,5.8-8.2,4.6-9.4c0.2-1.6-1.2-2.6-1.2-2.6c-0.5,3.3-3.6,5.4-14.4,3.8c-2.1-0.3-3.9-0.2-5.5,0.3c0.3-3.2,0.5-6.3,0.8-9.3
		c2.6-4.7,5.1-9.3,7.4-13.4c0.5,0,0.9,0,1.3-0.1v-0.1c2.4-0.3,17-2.1,22.9-0.1c6.4,2.2-2.2,8.6-2.2,8.6c15.9,6.3,5-11.2,5-11.2
		l44-2.5c4.8,2.3,1.1,8.3,1.1,8.3c6.9,0.2,6.2-5.3,6.2-5.3c4.8,4.3-4,7-4,7c3,1.6-2.1,1.8,0.4,2.1c2.5,0.3,4.5-2,4.5-2
		c3.1,0.3-5.1,9-5.1,9c3.9,0.2,10.1-6.7,10.1-6.7c6.5,11.1,10.6,6,11.8,3.8c-1.2,0.9-4.5,1.4-6.9-0.3c-3-2.1,0.2-6.1,0.2-6.1
		c8.6,2.9,11.5,1.8,12.5,0.3l11.1,14.6l-1.8,6.7c-1.5-0.9-2.7-2.1-3.3-3.6c0,0-1.9,3.8,2.5,6.5l-0.1,0.2c-0.9,0.2-3.7,1-6.5,5.2
		c-3.5,5.1-7,1.2-7.5,2.4c-0.5,1.2,7.4,3.9,11,1.2c0,0-0.4,1.6-0.3,3.5l-3.2,12c-1.5-2.9-4.3-9.5-2-13.6c0,0-4.1,1-3.4,6.4
		c0,0-2-2.5-7.6-2s-4.8-4.7-5.9-4.3c-1.1,0.4,1.2,8.3,5.1,9.4c0,0-9.8,5-1.4,10.8c0,0,0-10.3,4.6-7.4c0,0-2.6,3.4,0.5,2.8
		s3.1-1.4,3.1-1.4s-2.9-1.8-0.5-2.8s5.7,2.6,6.8,3.8c0.1,0.1,0.2,0.2,0.2,0.2l-6.6,24.6c-1-1.4-2.9-3.3-6.2-3.2
		c-5.3,0.2,0.9,5.6,0.9,5.6s0.5-1.9,0.2-2.6s1.2,0.5,2.4,0.7c0.7,0.1,1,2.9,1.2,5.3l-3,11.3c-1.4,1.2-2,2.4-0.8,3l-5,18.6
		c-1.4-1.7-4.8-5.5-7-3.4c-2,1.9-3.6,4.3-2.6,5.1L457,456.1z M465.5,455.4c-0.4-0.8-1.7-3.3,0.3-2.7c0.7,0.2,1.3,1.2,1.8,2.5
		L465.5,455.4z M505.6,452.3c1.2-2.1,2.6-5.8,1-10.5c-2.5-7.4-6,4-6,4s2.4-0.2,3.1-1s-0.1,1.9,0.3,3.8c0.2,1-2.9,2.9-5.6,4.2
		l-17.9,1.4l21.9-38.8c0,0,5.2-2.5,4.7-0.3s-2.1,0.5-2.1,0.5s-0.6,5.2,4.1-1c4.7-6.1-4.9-2.7-4.9-2.7s4.7-8.4,11.2-20.3
		c1.4,0.9,5.4-0.1,5.4-0.1s-1.2-1.6-1.9-1.7c-0.8-0.1,1.2-0.7,2.2-1.6c0.5-0.5,3,0.8,5.1,2.2l20.2,26.7c-2.3,0.1-7.6,0.8-7.5,3.9
		c0.2,4,1.8,7.9,4.3,2.8c0,0-4.4-0.2-2.2-1.9s11.6,3.3,11.6,3.3l1.3,1.7l0,0c-5.2,0.8,1.5,5.4,1.5,5.4s0.3-2-0.1-2.6
		c-0.2-0.3,0.2-0.2,0.8,0l3.2,4.2c0.1,0.5,0.2,0.9,0.3,1.4l-2,12.7L505.6,452.3z M561.6,447.9l0.5-2.9c0,0,2.1-2.1,3.4-2.5l1,1.3
		c-0.2,1.4-1.8,0.5-1.8,0.5s0.8,3.6,2.5,0.4l2,2.6L561.6,447.9z M571.5,441.8c-0.7-2.4,0.6-3,2.2-2.9c0.3,2.7,1.2,2.8,1.2,2.8
		s2.6-2.7,3.4-0.2c0.6,1.9-2,4-4,5.4h-0.2C572.9,445,571.9,443.2,571.5,441.8z M647.7,441.1l-16,1.3c1.5-0.9,3-2.1,4.3-3.7
		c2.3-2.9,4.4-4.9,6.2-6.4L647.7,441.1z M638.2,430.3c0,0-3.5-3.4-1.1-5.9l3.1,4.9C639.6,429.6,638.9,429.9,638.2,430.3z
		 M615.4,390.3c-3.1-0.9-9.9-3.2-11.4-7.8c0,0-2.1,3.7,2.4,6.8c0,0-3.2-0.2-6.6,4.3c-3.4,4.5-6.7,0.3-7.2,1.4s6.9,4.7,10.4,2.6
		c0,0-2.9,10.6,7,8.3c0,0-7.6-7-2.4-8.4c0,0,0.7,4.2,2.4,1.5s1.1-3.3,1.1-3.3s-3.2,0.9-2.4-1.5c0.9-2.4,5.8-2.4,7.4-2.4
		c0.2,0,0.3,0,0.3,0l13.7,21.5c-1.7-0.2-4.4-0.1-6.6,2.5c-3.4,4,4.7,3.1,4.7,3.1s-1.1-1.7-1.8-1.9c-0.7-0.2,1.2-0.5,2.1-1.3
		c0.5-0.5,2.8,1.2,4.7,2.7l2.7,4.3c-1,1.2-2.1,3.1-3.2,5.7c0,0-7.1-6-11-5.3c0,0,9.3,7.5,6.3,8.3c0,0-2.4-2-4.8-1.3
		c-2.4,0.7,2.7,0.2-0.1,2.2c0,0,9,1.4,4.9,6.3c0,0,0-5.5-6.8-4.4c0,0,5.4,6.5-1.5,9.1l-16.9,1.3c0.1-2.1-0.4-4.7-0.4-4.7
		c-0.7,2.5-2.2,4.1-3.8,5.1l-9.1,0.7c-1-0.9-2.8-1.6-5.7-1.6c0,0,3.3-1.7,3.6-7.4c0.2-5.7,6.4-4.3,6.1-5.4
		c-0.3-1.1-10.2,0.4-12.1,4.2c0,0-4.6-10.2-12.8-2.5c0,0,12.4,1,8.3,5.2c-3.3-10-8.5,2.7-8.5,2.7l-0.1-0.1c0.4-2-0.4-2.4-1.6-2.1
		l-3.2-4.3c1.6-9.5,4.6-27.6,7.6-46.1c5.1-8.1,10.5,0.4,10.5,0.4c3.1-4.8-2-6.9-2-6.9c5.8-1.2,4.4,6.2,4.4,6.2
		c2.7-1.3,0.7,2.4,2,0.8s0.2-4.2,0.2-4.2c1.6-2,5.7,8,5.7,8c1.8-2.6-1.5-10.4-1.5-10.4c12.4,0.9,9.7-4.5,8.3-6.4
		c0.3,1.3-0.7,3.9-3.2,4.7c-3.1,1.1-5.2-3.1-5.2-3.1c10.5-7.8,3.9-10,3.9-10c0.6,3.3-1.6,6.3-12.3,8.4c-5.9,1.2-8.7,5.2-10.1,8.5
		c3.4-20.3,6.7-40.3,8.1-49.1l6.8,10.7c-1.3,0.6-2.6,1.7-2.6,1.7c1.8-0.2,3.3,0.4,4.5,1.2L615.4,390.3z M588.6,339.1
		c-3.1-5-5.6-8.9-7.1-11.3c1.2-5,2.7-6,3.5-6c3.6,2.6,0.3,7.8,0.3,7.8c6.9,0.2,6.2-5.3,6.2-5.3c4.8,4.3-4,7-4,7
		c3,1.6-2.1,1.8,0.4,2.1c2.5,0.3,4.5-2,4.5-2C594.8,331.7,590.8,336.6,588.6,339.1z M662.5,308.2c1.8-2.2,4.2-6.1,2-9.8
		c-3.3-5.7-7.9-1.7-7.1,0.5c0.8,2.2,2.4,3.9,2.4,3.9s-1.2,4.7-2.8,5.3c-0.3,0.1-0.6,0.3-0.8,0.6l-28.8,2.3c1.5-0.9,3-2.1,4.3-3.7
		c7.5-9.2,11.9-10.2,15.3-8.4c0,0,0.7-6.9-13,0c0,0-3.7-3.5-1-6c2.1-2,5.5-2,6.8-1.2c-1.5-2-6.3-6.5-11.2,5.4c0,0-7.1-6-11-5.3
		c0,0,9.3,7.5,6.3,8.3c0,0-2.4-2-4.8-1.3c-2.4,0.7,2.7,0.2-0.1,2.2c0,0,9,1.4,4.9,6.3c0,0,0-5.5-6.8-4.4c0,0,5.4,6.5-1.5,9.1
		l-16.9,1.3c0.1-2.1-0.4-4.7-0.4-4.7c-0.7,2.5-2.2,4.1-3.8,5.1l-9.1,0.7c-0.7-0.6-1.6-1.1-2.9-1.3c0.7-3.4,1.4-7.1,2.2-11
		c1.9-1.7,5-1.3,4.8-2.1c-0.1-0.5-2.1-0.5-4.4,0c1.6-8.1,3.3-16.4,4.5-22.5h-0.1c0.2-1.9,1.4-14,4.5-18.2c3.4-4.6,7.9,3.6,7.9,3.6
		c3.5-4.2,3-6.2,0.9-7c8.3-6.4-9.1-8.1-9.1-8.1l16-27.9c1-0.1,0.6,2.3,1.2,0.7c0.4-0.9,0.2-1.9-0.2-2.6l0.8-1.4c2.3,1.4,6.1,6,6.1,6
		c0.5-1.5-0.6-4-1.9-6c2,1.2,3.4,3.5,3.4,3.5c3.3-4.6-1.6-7-1.6-7c5.9-0.9,4.1,6.4,4.1,6.4c2.7-1.2,0.6,2.4,2,0.9s0.4-4.2,0.4-4.2
		c1.6-1.9,5.3,8.3,5.3,8.3c2-2.5-1-10.5-1-10.5c12.4,1.5,9.9-4,8.6-6c0.3,1.3-0.9,3.8-3.4,4.6c-3.2,0.9-5.1-3.4-5.1-3.4
		c10.8-7.3,4.3-9.8,4.3-9.8c0.4,3.2-1.7,5.9-11.4,7.6c-0.4-1.1-1.4-2-2-2.5c0.4,0.6,0.5,1.7,0.1,2.8c-1.1,0.2-2.1,0.5-3.1,0.9
		l2.4-4.2c0.1,0.1,0.3,0.2,0.5,0.4c-0.1-0.2-0.3-0.4-0.5-0.5l3.7-6.5c0,0,6.8-1.7,6.5,0.7s-2.9,0.1-2.9,0.1s0.3,5.7,5.6-0.2
		c5.2-5.9-7.4-4.1-7.4-4.1s4-7.1,9.7-17.5c3,1.3,2.2,3.4,2.2,3.4c3.7-2,1.8-3.9-1.2-5.3c0.5-0.8,0.9-1.6,1.4-2.5
		c6.1-0.2,15-0.4,24.2-0.7l0.5,2.6c-2.1-0.7-5.9-1.4-10.5,0.4c-7.2,2.9,4.4,4.4,4.4,4.4s-0.3-2-1.2-2.4c-0.8-0.4,1.9-0.1,3.7-0.6
		c1-0.3,3,2,4.6,4.1l1,5.4c-0.8,0-1.3-0.1-1.3-0.1c0.5,0.9,1.1,1.6,1.7,2.2l4.8,26c-2.9-0.8-9.7-2.4-11.7,0.6
		c-2.5,3.8-3.3,8.2,3.2,4.4c0,0-5.2-2-1.4-2.7c3.7-0.6,11.7,7.9,11.7,7.9l9.2,50.1h0.5l2.6,14.5c-1.6-1.4-4.4-3.1-6.6-1.1
		c-3.4,3-0.4,6.5,1,5.8s2.4-2.2,2.4-2.2s3.2,0.7,3.8,2c0.1,0.2,0.3,0.5,0.5,0.6l2.4,13.1L662.5,308.2z M672.8,314.3
		c5.2-0.1,10.1-0.3,14.4-0.4l0.7,4.1C682.6,319.3,675.9,316.1,672.8,314.3z"/>
	<path class="st0" d="M37.8,57.6c0.4-0.2,0.8-0.4,0.8-0.4C38.3,57.1,38,57.3,37.8,57.6z"/>
	<path class="st0" d="M80.8,189.2c0,0,0.3,0.1,0.8,0.4C81.4,189.3,81.1,189.2,80.8,189.2z"/>
	<path class="st0" d="M89.1,361.4c0,0,0.3,0.2,0.6,0.6C89.5,361.6,89.3,361.4,89.1,361.4z"/>
	<path class="st0" d="M80.8,84.6c0,0,0.3,0.1,0.8,0.4C81.4,84.7,81.1,84.5,80.8,84.6z"/>
	<path class="st0" d="M1.2,89.3c-0.3,0-0.5,0.3-0.6,0.6C0.9,89.5,1.2,89.3,1.2,89.3z"/>
	<path class="st0" d="M80.7,202.8c0,0,0.3,0,0.8,0.1C81.3,202.7,81,202.6,80.7,202.8z"/>
	<path class="st0" d="M140.5,365.1c-0.2-0.3-0.5-0.4-0.8-0.4C139.7,364.7,140.1,364.9,140.5,365.1z"/>
	<path class="st0" d="M49.7,102.9c0,0,0.3,0,0.8,0.1C50.2,102.8,49.9,102.7,49.7,102.9z"/>
	<path class="st0" d="M121.4,370.1c0,0,0.2,0.3,0.5,0.7C121.8,370.5,121.6,370.3,121.4,370.1z"/>
	<path class="st0" d="M176.2,98.7c0,0,0.3,0.2,0.7,0.5C176.7,98.9,176.5,98.7,176.2,98.7z"/>
	<path class="st0" d="M289.9,94.2c-0.2-0.1-0.5-0.1-0.8,0C289.5,94.2,289.9,94.2,289.9,94.2z"/>
	<path class="st0" d="M274.8,232c0,0,0.2,0.2,0.5,0.6C275.3,232.3,275.1,232,274.8,232z"/>
	<path class="st0" d="M212.7,393.4c0-0.3-0.1-0.6-0.3-0.8C212.3,392.6,212.5,392.9,212.7,393.4z"/>
	<path class="st0" d="M317.4,136.4c0,0,0.2,0.2,0.5,0.6C317.8,136.7,317.6,136.5,317.4,136.4z"/>
	<path class="st0" d="M592.6,47.5c0.3,0.4,0.5,0.8,0.5,0.8C593.1,47.9,592.9,47.7,592.6,47.5z"/>
	<path class="st0" d="M222.3,97.1c0,0-0.3,0.3-0.7,0.6C221.9,97.6,222.2,97.3,222.3,97.1z"/>
	<path class="st0" d="M559.5,90.3c0,0-0.2,0.3-0.5,0.8C559.4,90.9,559.5,90.6,559.5,90.3z"/>
	<path class="st0" d="M86.8,90.8c0.3-0.4,0.6-0.6,0.6-0.6C87.1,90.3,86.9,90.5,86.8,90.8z"/>
	<path class="st0" d="M178,195c0,0,0.3,0,0.8,0C178.5,194.9,178.2,194.9,178,195z"/>
	<path class="st0" d="M253.1,350.2c0,0,0.3,0.1,0.8,0.3C253.6,350.3,253.3,350.2,253.1,350.2z"/>
	<path class="st0" d="M137,98.8c0,0,0.3,0,0.8,0C137.5,98.7,137.2,98.7,137,98.8z"/>
	<path class="st0" d="M553.4,133.4c0.4,0.2,0.7,0.4,0.7,0.4C554,133.6,553.8,133.4,553.4,133.4z"/>
	<path class="st0" d="M466.5,241.2c0,0,0.1,0.3,0.1,0.8C466.7,241.7,466.7,241.4,466.5,241.2z"/>
	<path class="st0" d="M326.7,342c0,0,0,0.3-0.1,0.8C326.7,342.5,326.8,342.2,326.7,342z"/>
	<path class="st0" d="M554.2,184.2c0,0,0.1,0.3,0.1,0.8C554.4,184.7,554.4,184.4,554.2,184.2z"/>
	<path class="st0" d="M429.9,43.4c0.5,0.2,0.8,0.3,0.8,0.3C430.5,43.5,430.2,43.4,429.9,43.4z"/>
	<path class="st0" d="M239.6,285.8c0,0,0,0.3,0,0.8C239.8,286.3,239.8,286,239.6,285.8z"/>
	<path class="st0" d="M439.1,94.2c0-0.3,0-0.6-0.2-0.8C438.9,93.4,439,93.7,439.1,94.2z"/>
	<path class="st0" d="M662.3,71c0.5,0,0.8,0,0.8,0C663,70.9,662.7,70.9,662.3,71z"/>
	<path class="st0" d="M636.3,207c0,0,0.2,0.3,0.5,0.7C636.7,207.4,636.5,207.1,636.3,207z"/>
	<path class="st0" d="M560.4,362.5c0-0.3,0-0.6-0.3-0.8C560.1,361.7,560.2,362,560.4,362.5z"/>
	<path class="st0" d="M686.9,115.5c0,0,0.2,0.3,0.5,0.7C687.3,115.8,687.2,115.6,686.9,115.5z"/>
	<path class="st0" d="M341.9,105.9c0,0,0.4-0.1,0.9-0.2C342.5,105.6,342.2,105.7,341.9,105.9z"/>
	<path class="st0" d="M418.1,116.6c0.2-0.4,0.4-0.7,0.4-0.7C418.3,116,418.2,116.2,418.1,116.6z"/>
	<path class="st0" d="M524.4,205.4c0,0,0.3-0.1,0.8-0.1C524.9,205.2,524.6,205.2,524.4,205.4z"/>
	<path class="st0" d="M622.6,347.1c0,0,0.3,0,0.8,0.2C623.1,347,622.8,347,622.6,347.1z"/>
	<path class="st0" d="M468.9,116.7c0,0,0.3-0.1,0.8-0.1C469.4,116.5,469.1,116.5,468.9,116.7z"/>
	<path class="st0" d="M598.6,374.9c0,0,0.2,0.3,0.5,0.7C599,375.3,598.8,375,598.6,374.9z"/>
	<path class="st0" d="M635.6,100.5c0,0,0.3,0.2,0.7,0.5C636.1,100.7,635.9,100.5,635.6,100.5z"/>
	<path class="st0" d="M399.4,363.5c0-0.3,0-0.6-0.3-0.8C399.1,362.7,399.2,363,399.4,363.5z"/>
	<path class="st0" d="M525.9,116.5c0,0,0.2,0.3,0.5,0.7C526.3,116.8,526.2,116.6,525.9,116.5z"/>
	<path class="st0" d="M86.5,196.3c0.1-0.5,0.2-0.8,0.2-0.8C86.5,195.6,86.4,195.9,86.5,196.3z"/>
	<path class="st0" d="M350.4,355.3c0,0,0.3-0.1,0.8-0.1C350.9,355.1,350.6,355.2,350.4,355.3z"/>
	<path class="st0" d="M637,2.6c0.3,0.4,0.5,0.7,0.5,0.7C637.5,3,637.3,2.8,637,2.6z"/>
	<path class="st0" d="M479.9,56.5c0,0-0.1,0.3-0.4,0.8C479.8,57,480,56.8,479.9,56.5z"/>
	<path class="st0" d="M271.2,79.1c0,0-0.2,0.3-0.7,0.7C271,79.6,271.2,79.4,271.2,79.1z"/>
	<path class="st0" d="M607.1,47.8c0,0-0.1,0.3-0.4,0.8C607,48.3,607.2,48,607.1,47.8z"/>
	<path class="st0" d="M639.6,291.6c0.3,0.4,0.5,0.7,0.5,0.7C640.1,292,639.9,291.8,639.6,291.6z"/>
	<path class="st0" d="M482.6,345.5c0,0-0.1,0.3-0.4,0.8C482.5,346.1,482.6,345.8,482.6,345.5z"/>
	<path class="st0" d="M273.9,368.1c0,0-0.2,0.3-0.7,0.7C273.6,368.6,273.8,368.4,273.9,368.1z"/>
	<path class="st0" d="M609.7,336.8c0,0-0.1,0.3-0.4,0.8C609.6,337.3,609.8,337,609.7,336.8z"/>
	<path class="st0" d="M639.6,148.2c0.3,0.4,0.5,0.7,0.5,0.7C640.1,148.6,639.9,148.4,639.6,148.2z"/>
	<path class="st0" d="M482.6,202.1c0,0-0.1,0.3-0.4,0.8C482.5,202.6,482.6,202.4,482.6,202.1z"/>
	<path class="st0" d="M273.9,224.7c0,0-0.2,0.3-0.7,0.7C273.6,225.2,273.8,225,273.9,224.7z"/>
	<path class="st0" d="M644,423c0.3,0.4,0.5,0.7,0.5,0.7C644.5,423.5,644.3,423.2,644,423z"/>
	<path class="st0" d="M487,477c0,0-0.1,0.3-0.4,0.8C486.9,477.5,487,477.2,487,477z"/>
	<path class="st0" d="M278.3,499.5c0,0-0.2,0.3-0.7,0.7C278,500.1,278.2,499.8,278.3,499.5z"/>
	<path class="st0" d="M614.1,468.2c0,0-0.1,0.3-0.4,0.8C614,468.8,614.2,468.5,614.1,468.2z"/>
</g>
</svg>
