<?xml version="1.0" encoding="utf-8"?>
<!-- Generator: Adobe Illustrator 22.1.0, SVG Export Plug-In . SVG Version: 6.00 Build 0)  -->
<svg version="1.1" id="Layer_1" xmlns="http://www.w3.org/2000/svg" xmlns:xlink="http://www.w3.org/1999/xlink" x="0px" y="0px"
	 viewBox="0 0 93.9 94.1" style="enable-background:new 0 0 93.9 94.1;" xml:space="preserve">
<style type="text/css">
	.st0{fill:#FFFFFF;}
</style>
<path class="st0" d="M82.2,11.1l-0.6,4.1c0,0,11.8,5.6,11-5.7c0,0,2.7-0.9,0.2-3.3c-2.5-2.3-14-2-14-2s-5.4-0.7-4.2-2.1l1.3,0
	c0,0,0.4-1.2-1.4-2S69.4,2.7,73.2,5c0,0-8.6,1.9-9.5,1.5c-0.9-0.4-3.6,0.8-4.1-0.1s-2.9-0.6-1.1-3.3c0,0-4.5-2-3.7,2.8
	c0.8,4.8,5.9,3,5.9,3S45,18.3,41.9,21.6c0,0-3.3,0-3.5-1.2c0,0-0.8,1.9,0.8,2.1c1.6,0.1,2.4,0.6,3.2,0.6c0.8,0-8.3,8.3-10.5,8
	s-3.8,2.5-10.4,0.2s0.8-2.9,0.8-2.9s-6.1-1.8-6.3,4.5c0,0-6.6-14.9,2.1-11.5c0,0-2.3-7.9-8.9,1.1c-0.1,0.1-0.1,0.2-0.2,0.3
	c0,0-0.3-9.1,7.8-5.2c0,0,1.3-2-4.3-4c0,0,5-3.7,7.1-3.7s-0.5,4.9-2.6,4c0,0,0.1,3.5,5.3,0.1c0,0,2.5-1.2,0.5-4.5
	c0,0,4.8,1.6,3.6,4.7s-0.5,3.2-3,3.5s-5,1.7-4.3,3.6c0.7,1.9,0.7,1.9,0.7,1.9s-0.4-2.2,4.7-3.1c5.2-0.9,4.1-2.4,4.1-2.4
	s-2.5,8.7,2.1,9.4s6.3-1.3,6.3-1.9c0,0-5.1,1.1-4.8,0.3s-0.7-2-0.8-6.3c0,0,0.3,2.4,2.5,2.5s3.3-2.8,3.3-2.8s-1.9,1.5-2.2,0.2
	c-0.4-1.2-2.2-4.7-1.9-4.8c0.3-0.1,5,3.4,8.6,3.2c3.5-0.3,3.7-0.8,3.7-0.8s-1.7-1.5-3-1.8s7-0.1,7.5-3.4s2.4-6.4-1.1-8.1
	c-3.5-1.7-8.1,1.1-8.1,1.1s6.4,0.9,5.7,2.7S41,8.7,41,8.7s0.1-2.6-0.7-3.8c0,0-3,5.2-5.1,3.3s-19.5-3.4-25.6,0c0,0-4.1-8.4-7.7-1
	c0,0,5.7-4,4.6,2.6S3.3,27,4.8,27.6c0,0-6.6-1.1-3.5-0.8c3.1,0.3,8.3,8.1,8.3,8.1S5.4,34.8,2.8,40c0,0,3.7-4.4,19.3-2
	c0,0-8.4,6.7-11.3,5.3c0,0-2.5,3.3,6,1.6c0,0-4.4,7.7-6.2,4.4c0,0-3.9-1.2-2.5-2.5c1.3-1.3,2.2,0.4,2.2,0.4S8.7,39.7,4.9,44
	s2.5,8.3,2.5,8.3s6.4,2.8,10.3-1.9s3.1-4.3,3.1-4.3s-1.3,4.4,6.3,6.5c0,0-6.5-2.5-1.8-14.2c0,0-1.1,4.5,4.3,5.8
	c0,0-3.2-3.6,8.5-12.8c0,0-5.4,6.3-1,29.5c0,0,3.6,12.2-4.7,16.1c0,0-3.2,0.1-3.8-1.2c0,0-2.2,2.4,4,3.7c0,0-11.5,8.8-11.9-3.8
	c0,0-5.5,2.2-0.5,8.6c0,0-6.5-0.4-5.3-8.7c0,0-3-1.6-2.8,2.9c0,0-3.7-5.1,2-6.1c0,0-1.5-2.4-3.3-1.1c0,0,0.1-7.8,6.2-2.7
	c0,0,2-2.3-4.4-4.3c0,0,2.9-3.8,7.9-2.8s-0.1,4.8-1.5,3.4c0,0-2.4,2.8,1.3,2.7c3.7-0.1,6.1-2.7,5.6-3.5c-0.5-0.7,6.5,7.6,1.4,6.7
	c-5.1-0.9-2.9-2.5-2.9-2.5S20,73.6,24.2,74s6.4-0.6,7-1.5s1.7-3.8,1.2-6c-0.5-2.1-4.7-6.1-5.2-6.3c-0.6-0.2-4.9-4.1-10.6-3.2
	s-4,1.8-4,1.8S12.1,54,6,54.7S5.4,55,5.4,55s6.9,0.6,1.4,10.9c0,0-3.6-4.3-6.8-0.2l0,2c0,0,4.1-5.7,5.1-0.5S1.9,79.6,15,87.2
	c0,0-4.2,3.2-2.1,5.6c0,0-0.1-4.7,13.3-4.9c0,0-2.1,4.6-0.2,6.2c0,0,4.3-7,8.8-9.2c0,0-0.6,6.4,3.2,7.9c0.3,0.1,0.5,0.2,0.8,0.2
	c0,0-3.5-8.6,0.8-12.4c0,0,6.7,5.6,2.1,11.1c0,0,5.6,1.2,2.3-8.7c0,0,8.7,3.6,11.4-0.4c2.6-4,1.9-7.4-0.3-7.6c0,0-2.7,10-6.7,6.1
	c-4-3.9-6-9.3-6-9.3s3.8,4.5,6.2,2.4c2.4-2,1.9-4.1,1.9-4.1s-3,5-3.9,2.9c-0.9-2.1-4.4-6.8-4.1-8.6c0,0,3,1.9,3.9,1.7
	c0,0-6.1-4.8-6.1-8.3c0,0,2.9,2.4,3.5,0.7c0,0-4.6-0.4-5.2-15.1c0,0,2,6.3,7.9,1.6s-1.9-6.7-3.4-6.1c0,0,5.4,2,2.2,4.5
	c-3.2,2.5-6.3-4.5-6-5c0.3-0.4-1.3-8.1,6.9-16c0,0-0.6,5.4,1.6,4.7c2.1-0.7,2.1-2.8,2.1-2.8l-0.5,0.1c0,0-1.4,1.9-1.4,0.3
	c-0.1-1.6,2.1-6,4.4-7.1c2.3-1.1,12.3-7.2,14.6-7.8c0,0-3.4,3.3-1.4,5.8s2.8,0.1,2.8,0.1s-3.2,0.4-1-2.4c1.9-2.5,5.7-4.7,7.7-5.2
	C75.2,8,75.5,7.9,75.7,8c1.7,0.1-1,3.8,1.1,3.6c2.1-0.2,2.6-0.7,2.6-0.7s-0.9-0.4-0.8-1c0.1-0.6,0.7-1.6,3.8-2s6.2,0.1,6.8,1.9
	c0.6,1.8,0.7,4.5-2.2,4.5c-2.9,0.1-3-0.9-3.4-2.1C83.3,10.9,82.2,11.1,82.2,11.1z"/>
</svg>
