<?xml version="1.0" encoding="utf-8"?>
<!-- Generator: Adobe Illustrator 22.1.0, SVG Export Plug-In . SVG Version: 6.00 Build 0)  -->
<svg version="1.1" id="Layer_1" xmlns="http://www.w3.org/2000/svg" xmlns:xlink="http://www.w3.org/1999/xlink" x="0px" y="0px"
	 viewBox="0 0 56.5 506.2" style="enable-background:new 0 0 56.5 506.2;" xml:space="preserve">
<style type="text/css">
	.st0{fill:#08B6DD;}
</style>
<g>
	<path class="st0" d="M2.8,40.1c0.4-0.2,0.8-0.4,0.8-0.4C3.3,39.6,3,39.8,2.8,40.1z"/>
	<path class="st0" d="M45.8,171.7c0,0,0.3,0.1,0.8,0.4C46.4,171.8,46.1,171.7,45.8,171.7z"/>
	<path class="st0" d="M54.1,343.9c0,0,0.3,0.2,0.6,0.6C54.6,344.1,54.3,343.9,54.1,343.9z"/>
	<path class="st0" d="M54.7,344.5c0.5,1.2-0.1,3.9-2.4,5.2c-2.9,1.6-5.7-2.2-5.7-2.2c9.1-9.4,2.2-10.5,2.2-10.5
		c1.1,3.1-0.6,6.4-10.8,10.3c-5.7,2.1-7.8,6.5-8.6,10c0-24,0-47.6,0-53.2c-0.1-12.3,3.4-10.3,3.4-10.3c-2.3-6.3-5.3,6-5.3,6
		s1.1-33.9,1.6-50.7h-0.1c-0.1-1.9-0.9-14,1.5-18.7c2.6-5.1,8.4,2.3,8.4,2.3c7.4-12.6-10.8-4.8-10.8-4.8l0.5-36.2
		c2.7-3.8,8.3-0.4,8.3-0.4c0.7-5.7-4.8-5.3-4.8-5.3c4.7-3.7,6.7,3.7,6.7,3.7c1.8-2.3,1.7,1.8,2.2-0.2s-1.7-3.8-1.7-3.8
		c0.5-2.5,8.7,4.7,8.7,4.7c0.5-3.2-6-8.7-6-8.7c11.5-4.7,6.7-8.3,4.6-9.4c0.8,1,1.1,3.8-0.8,5.6c-2.3,2.3-6.1-0.5-6.1-0.5
		c5.9-11.7-0.9-10.7-0.9-10.7c2,2.7,1.3,6.3-7.3,13c-1.1,0.8-2,1.7-2.7,2.7l0.2-12.3c0,0,5.1-4.8,6-2.5s-2.5,1.5-2.5,1.5
		s3,4.8,4.8-2.8c1.8-7.7-8.5,0-8.5,0s0.1-46.3,0.1-79.4c2.8-3.3,8.1-0.1,8.1-0.1c0.7-5.7-4.8-5.3-4.8-5.3c4.7-3.7,6.7,3.7,6.7,3.7
		c1.8-2.3,1.7,1.8,2.2-0.2s-1.7-3.8-1.7-3.8c0.5-2.5,8.7,4.7,8.7,4.7c0.5-3.2-6-8.7-6-8.7c11.5-4.7,6.7-8.3,4.6-9.4
		c0.8,1,1.1,3.8-0.8,5.6c-2.3,2.3-6.1-0.5-6.1-0.5c5.9-11.7-0.9-10.7-0.9-10.7c2,2.7,1.3,6.3-7.3,13c-1,0.8-1.9,1.6-2.6,2.5
		c0-10.9,0-19.3-0.1-22.4c-0.1-12.3,5.2-10.3,5.2-10.3c-3.5-6.3-8.1,6-8.1,6s0.9-18.2,1.7-34.5c0,0,0.1,0,0.3-0.1
		c1.3-0.9,5.3-3.8,7.4-2.3c2.1,1.4-1.1,2.6-1.1,2.6s-0.2,0.8,2.8,2.1c2.9,1.2,1.1-2.6,1.1-2.6c5.1-1.9,2.9,8.2,2.9,8.2
		C50.5,20,42,13.1,42,13.1c4.1-0.3,8-7.5,6.9-8.1s-1.2,4.7-6.7,3c-5.4-1.7-7.9,0.4-7.9,0.4c1.8-5.2-2-7-2-7
		c1.4,4.5-2.5,10.1-4.6,12.8C28,8.9,28.2,4,28.4,0h-7.7L21,22.2c-2.1-1.6-5.8-3.8-9.7-2.2c-5.9,2.4-2.3,6.4,0,5.9s4.1-1.8,4.1-1.8
		s4.6,1.2,5.1,2.6c0.1,0.3,0.3,0.5,0.5,0.7l0.3,23.7c-0.8-1.3-1.9-2.6-3.4-3.7c-8.7-6.7-9.3-10.3-7.3-13c0,0-6.9-1-0.9,10.7
		c0,0-3.7,2.8-6.1,0.5c-1.8-1.8-1.6-4.6-0.8-5.6c-2.1,1.1-6.9,4.8,4.6,9.4c0,0-6.5,5.5-6,8.7c0,0,8.2-7.2,8.7-4.7
		c0,0-2.2,1.8-1.7,3.8s0.3-2.2,2.2,0.2c0,0,2-7.3,6.7-3.7c0,0-5.5-0.3-4.8,5.3c0,0,6.8-4.1,9,1.7l0.2,13.9c-2.1-0.2-4.7,0.1-4.7,0.1
		c2.5,0.7,3.9,2.1,4.8,3.4l0.1,7.5c-0.9,0.8-1.8,2.2-2,4.6c0,0-1.5-2.8-7.2-3.3c-5.7-0.5-3.8-5.5-5-5.3c-1.2,0.2-0.3,8.3,3.3,10.2
		c0,0-10.5,3.2-3.3,10.3c0,0,1.8-10.2,5.8-6.5c0,0-3.2,2.9,0,2.9c3.2,0,3.3-0.9,3.3-0.9s-2.5-2.3,0-2.8c1.9-0.4,3.9,1.9,5.1,3.6
		l0.6,56.6c-2-1.1-5.6-2.4-10.4-1.4c-7.6,1.6,3.6,5.1,3.6,5.1s0-2-0.8-2.6c-0.8-0.6,1.9,0.2,3.8,0c1.1-0.1,2.6,2.5,3.8,4.8l0.4,34
		c-2.7-1.3-9.2-4-11.6-1.4c-3.1,3.4-4.6,7.5,2.4,4.9c0,0-4.7-2.9-0.9-2.9s10.2,9.7,10.2,9.7l0.6,51l0.5,0.1l0.1,14.8
		c-1.4-1.6-3.8-3.8-6.4-2.2c-3.9,2.4-1.5,6.4,0,5.9s2.7-1.8,2.7-1.8s3,1.2,3.4,2.6c0.1,0.3,0.2,0.5,0.3,0.7l0.4,47.4
		c-1.4-0.2-3.1,0.1-3.1,0.1c1.6,0.7,2.6,2.1,3.2,3.4l0.4,49.5c-2.2-2.4-6.7-8-5.5-12.6c0,0-3.7,2-1.6,7.1c0,0-2.6-1.9-7.9,0.1
		s-5.8-3.3-6.8-2.6s3.3,7.6,7.4,7.7c0,0-8.1,7.4,1.5,10.8c0,0-2.8-9.9,2.4-8.4c0,0-1.6,4,1.2,2.6s2.6-2.2,2.6-2.2s-3.2-0.9-1.2-2.5
		c2-1.6,6.2,1,7.6,1.9c0.1,0.1,0.2,0.1,0.3,0.1l0.2,25.5c-1.3-1.1-3.7-2.4-6.9-1.4c-5,1.6,2.4,5.1,2.4,5.1s0-2-0.5-2.6
		s1.3,0.2,2.5,0c0.7-0.1,1.7,2.5,2.5,4.8l0.3,34c-1.8-1.3-6.1-4-7.6-1.4c-2,3.4-3,7.5,1.6,4.9c0,0-3.1-2.9-0.6-2.9s6.7,9.7,6.7,9.7
		l0.4,51l3.4,0.8l0.3-7.9c0,0-0.8-13.9,1-19c1.7-5.1,5.5,2.3,5.5,2.3c4.9-12.6-7.1-4.8-7.1-4.8l0.5-57.9c0,0,3.4-4.8,4-2.5
		s-1.6,1.5-1.6,1.5s2,4.8,3.2-2.8c1.2-7.7-5.6,0-5.6,0s0-26.5,0-53.7C33.2,352.6,40,360,40,360c2.3-5.2-3.1-6.5-3.1-6.5
		c5.5-2.2,5.3,5.4,5.3,5.4c2.4-1.7,1.1,2.2,2.1,0.5c1.1-1.8-0.5-4.2-0.5-4.2c1.2-2.2,6.9,7,6.9,7c1.4-2.9-3.2-10-3.2-10
		C60,351,56.3,346.1,54.7,344.5z"/>
	<path class="st0" d="M45.8,67.1c0,0,0.3,0.1,0.8,0.4C46.4,67.2,46.1,67,45.8,67.1z"/>
</g>
</svg>
