<?xml version="1.0" encoding="utf-8"?>
<!-- Generator: Adobe Illustrator 22.1.0, SVG Export Plug-In . SVG Version: 6.00 Build 0)  -->
<svg version="1.1" id="Layer_1" xmlns="http://www.w3.org/2000/svg" xmlns:xlink="http://www.w3.org/1999/xlink" x="0px" y="0px"
	 viewBox="0 0 441.7 333.9" style="enable-background:new 0 0 441.7 333.9;" xml:space="preserve">
<style type="text/css">
	.st0{fill:none;}
	.st1{fill:none;stroke:#000000;stroke-width:4;}
	.st2{fill:none;stroke:#000000;stroke-width:3.642;}
	.st3{fill:none;stroke:#000000;stroke-width:3.285;}
	.st4{fill:none;stroke:#000000;stroke-width:2.928;}
	.st5{fill:none;stroke:#000000;stroke-width:2.571;}
	.st6{fill:none;stroke:#000000;stroke-width:2.214;}
	.st7{fill:none;stroke:#000000;stroke-width:1.857;}
	.st8{fill:none;stroke:#000000;stroke-width:1.5;}
	.st9{fill:#E7E0EA;}
	.st10{fill:#EAEFF6;}
	.st11{fill:#9368AC;}
	.st12{fill:#4554A5;}
	.st13{fill:#71C8BA;}
	.st14{fill:#B4A1CE;}
	.st15{fill:url(#Undulating_Coarse_Lines);}
	.st16{fill:url(#_x31_0_dpi_30_x25_);}
</style>
<pattern  x="-179.8" y="-13.7" width="28.8" height="28.8" patternUnits="userSpaceOnUse" id="_x31_0_dpi_30_x25_" viewBox="2.2 -31 28.8 28.8" style="overflow:visible;">
	<g>
		<rect x="2.2" y="-31" class="st0" width="28.8" height="28.8"/>
		<g>
			<path d="M31,0c1.2,0,2.2-1,2.2-2.2c0-1.2-1-2.2-2.2-2.2c-1.2,0-2.2,1-2.2,2.2C28.8-1,29.8,0,31,0z"/>
			<path d="M16.6,0c1.2,0,2.2-1,2.2-2.2c0-1.2-1-2.2-2.2-2.2c-1.2,0-2.2,1-2.2,2.2C14.4-1,15.4,0,16.6,0z"/>
			<path d="M31-14.4c1.2,0,2.2-1,2.2-2.2c0-1.2-1-2.2-2.2-2.2c-1.2,0-2.2,1-2.2,2.2C28.8-15.4,29.8-14.4,31-14.4z"/>
			<path d="M16.6-14.4c1.2,0,2.2-1,2.2-2.2c0-1.2-1-2.2-2.2-2.2c-1.2,0-2.2,1-2.2,2.2C14.4-15.4,15.4-14.4,16.6-14.4z"/>
			<path d="M9.4-7.2c1.2,0,2.2-1,2.2-2.2c0-1.2-1-2.2-2.2-2.2c-1.2,0-2.2,1-2.2,2.2C7.2-8.2,8.2-7.2,9.4-7.2z"/>
			<path d="M23.8-7.2c1.2,0,2.2-1,2.2-2.2c0-1.2-1-2.2-2.2-2.2c-1.2,0-2.2,1-2.2,2.2C21.6-8.2,22.6-7.2,23.8-7.2z"/>
			<path d="M9.4-21.6c1.2,0,2.2-1,2.2-2.2c0-1.2-1-2.2-2.2-2.2c-1.2,0-2.2,1-2.2,2.2C7.2-22.6,8.2-21.6,9.4-21.6z"/>
			<path d="M23.8-21.6c1.2,0,2.2-1,2.2-2.2c0-1.2-1-2.2-2.2-2.2c-1.2,0-2.2,1-2.2,2.2C21.6-22.6,22.6-21.6,23.8-21.6z"/>
		</g>
		<g>
			<path d="M2.2,0c1.2,0,2.2-1,2.2-2.2c0-1.2-1-2.2-2.2-2.2C1-4.3,0-3.4,0-2.2C0-1,1,0,2.2,0z"/>
			<path d="M2.2-14.4c1.2,0,2.2-1,2.2-2.2c0-1.2-1-2.2-2.2-2.2c-1.2,0-2.2,1-2.2,2.2C0-15.4,1-14.4,2.2-14.4z"/>
		</g>
		<g>
			<path d="M31-28.8c1.2,0,2.2-1,2.2-2.2c0-1.2-1-2.2-2.2-2.2c-1.2,0-2.2,1-2.2,2.2C28.8-29.8,29.8-28.8,31-28.8z"/>
			<path d="M16.6-28.8c1.2,0,2.2-1,2.2-2.2c0-1.2-1-2.2-2.2-2.2c-1.2,0-2.2,1-2.2,2.2C14.4-29.8,15.4-28.8,16.6-28.8z"/>
		</g>
		<g>
			<path d="M2.2-28.8c1.2,0,2.2-1,2.2-2.2c0-1.2-1-2.2-2.2-2.2C1-33.1,0-32.2,0-31C0-29.8,1-28.8,2.2-28.8z"/>
		</g>
	</g>
</pattern>
<pattern  x="-179.8" y="-13.7" width="60.8" height="72" patternUnits="userSpaceOnUse" id="Undulating_Coarse_Lines" viewBox="2 -72 60.8 72" style="overflow:visible;">
	<g>
		<rect x="2" y="-72" class="st0" width="60.8" height="72"/>
		<g>
			<line class="st1" x1="62.8" y1="-72" x2="62.8" y2="0"/>
		</g>
		<g>
			<line class="st1" x1="2" y1="-72" x2="2" y2="0"/>
			<line class="st2" x1="6.3" y1="-72" x2="6.3" y2="0"/>
			<line class="st3" x1="10.7" y1="-72" x2="10.7" y2="0"/>
			<line class="st4" x1="15" y1="-72" x2="15" y2="0"/>
			<line class="st5" x1="19.4" y1="-72" x2="19.4" y2="0"/>
			<line class="st6" x1="23.7" y1="-72" x2="23.7" y2="0"/>
			<line class="st7" x1="28" y1="-72" x2="28" y2="0"/>
			<line class="st1" x1="62.8" y1="-72" x2="62.8" y2="0"/>
			<line class="st2" x1="58.4" y1="-72" x2="58.4" y2="0"/>
			<line class="st3" x1="54.1" y1="-72" x2="54.1" y2="0"/>
			<line class="st4" x1="49.7" y1="-72" x2="49.7" y2="0"/>
			<line class="st5" x1="45.4" y1="-72" x2="45.4" y2="0"/>
			<line class="st6" x1="41.1" y1="-72" x2="41.1" y2="0"/>
			<line class="st7" x1="36.7" y1="-72" x2="36.7" y2="0"/>
			<line class="st8" x1="32.4" y1="-72" x2="32.4" y2="0"/>
		</g>
		<g>
			<line class="st1" x1="2" y1="-72" x2="2" y2="0"/>
		</g>
	</g>
</pattern>
<path class="st9" d="M134.2,94.2l145.5,10.6l7.5,97.7c0,0,3.1,37.7-30,84.7s-120.3-21-120.3-21s-39.7-114.9-21.2-131.4
	S134.2,94.2,134.2,94.2z"/>
<polygon class="st10" points="149.2,94.2 257.3,95.7 257.3,75.3 161,75.3 151.7,75.3 "/>
<path class="st11" d="M155.3,75.3c0,0-78.1-113.6,41.8-61.8c0,0,9.5-15.6,24,1.5c0,0,107.5-48.2,22.1,60.3H155.3z"/>
<path class="st12" d="M441.7,151.4"/>
<path class="st13" d="M0,212"/>
<path class="st14" d="M149.2,94.2c0,0-79.1-43.5-35,91.2c0,0,5.4,15.1-7.2,17.1c0,0,43.2-18.6,30.2-68.3
	C137.2,134.1,157.2,104,149.2,94.2z"/>
<path class="st14" d="M291,196.9C321.3,83,269,93.2,257.8,96.5c-0.2-0.3-0.4-0.5-0.5-0.8l-108.1-1.5l1.9,1.5c0,0,92.6,7.3,99.7,10.3
	c7,3,16.1,33.2,0,33.7c0,0,19.3,4.8,20.9-8.7c1.9,6.7,3,11.7,3,11.7c-2.2,96.5,25.6,56.3,25.6,56.3C288.1,209.5,291,196.9,291,196.9
	z"/>
<path class="st14" d="M228.1,244.7c-18.6,12.6-41.2,0-41.2,0c-20.6-8-55.1,8.7-55.1,8.7c1.7,4.8,4.2,11.4,7.2,17.1
	c5.4,10.5,11.6,19.5,11.6,19.5c52.8,97.5,106.9,2.4,106.9,2.4l13-23.2l6.8-16.8C277.2,252.3,246.7,232.1,228.1,244.7z M178.6,268.9
	c27.7-21.6,61.3,2.1,61.3,2.1C203.2,300.2,178.6,268.9,178.6,268.9z"/>
<path class="st14" d="M204.5,166.9c0,0-3.8,14.4,9.7,12.9s22-35.2,37-28.4s11.5,19.4,15.5,19.9c0,0-3.5-22.6-17.5-26.3
	s-22.7,20.1-28.4,21.9c-5.6,1.9-7.1-3.2-11.6-4.7S204.5,166.9,204.5,166.9z"/>
<path class="st14" d="M190.2,158.8c-1.5,5.5-11.5,4.9-14,3.5s-23.5-10-27-6s-7,10.6-7,10.6s1.5-14.3,12-16.2
	C164.7,148.8,190.2,158.8,190.2,158.8z"/>
<path class="st14" d="M149.2,186.3c0,0,20.5-27.3,38-6.4s0,10.9,0,10.9s-22,16-31-3L149.2,186.3z"/>
<path class="st14" d="M227.7,187.8c0,0,13-32,36-3.2l-6.5,3.2c0,0-9.2,8-21.9,0H227.7z"/>
<path class="st14" d="M209.3,189.2c18,6.3,28.2,33.4,20,38.9c-8.1,5.5-21.9,1-23.5,5s-10.9,0-10.9,0l13.6-9c0,0,17,4.1,16.6,0.1
	S200.9,186.3,209.3,189.2z"/>
<path class="st15" d="M155.3,75.3c0,0-78.1-113.6,41.8-61.8c0,0,9.5-15.6,24,1.5c0,0,107.5-48.2,22.1,60.3H155.3z"/>
<path class="st16" d="M149.2,94.2c0,0-79.1-43.5-35,91.2c0,0,5.4,15.1-7.2,17.1c0,0,43.2-18.6,30.2-68.3
	C137.2,134.1,157.2,104,149.2,94.2z"/>
<path class="st16" d="M291,196.9C321.3,83,269,93.2,257.8,96.5c-0.2-0.3-0.4-0.5-0.5-0.8l-108.1-1.5l1.9,1.5c0,0,92.6,7.3,99.7,10.3
	c7,3,16.1,33.2,0,33.7c0,0,19.3,4.8,20.9-8.7c1.9,6.7,3,11.7,3,11.7c-2.2,96.5,25.6,56.3,25.6,56.3C288.1,209.5,291,196.9,291,196.9
	z"/>
<path class="st16" d="M228.1,244.7c-18.6,12.6-41.2,0-41.2,0c-20.6-8-55.1,8.7-55.1,8.7c1.7,4.8,4.2,11.4,7.2,17.1
	c5.4,10.5,11.6,19.5,11.6,19.5c52.8,97.5,106.9,2.4,106.9,2.4l13-23.2l6.8-16.8C277.2,252.3,246.7,232.1,228.1,244.7z M178.6,268.9
	c27.7-21.6,61.3,2.1,61.3,2.1C203.2,300.2,178.6,268.9,178.6,268.9z"/>
</svg>
