<?xml version="1.0" encoding="utf-8"?>
<!-- Generator: Adobe Illustrator 22.1.0, SVG Export Plug-In . SVG Version: 6.00 Build 0)  -->
<svg version="1.1" id="Layer_1" xmlns="http://www.w3.org/2000/svg" xmlns:xlink="http://www.w3.org/1999/xlink" x="0px" y="0px"
	 viewBox="0 0 267.2 288" style="enable-background:new 0 0 267.2 288;" xml:space="preserve">
<style type="text/css">
	.st0{fill:none;}
	.st1{fill:none;stroke:#000000;stroke-width:0.3;}
	.st2{fill:#FCC3A2;}
	.st3{fill:#F4BB3A;}
	.st4{fill:#E88385;}
	.st5{fill:#D6562B;}
	.st6{fill:url(#Crosses);}
</style>
<pattern  x="-178.3" y="-55.9" width="57.6" height="57.6" patternUnits="userSpaceOnUse" id="Crosses" viewBox="0 -57.6 57.6 57.6" style="overflow:visible;">
	<g>
		<rect y="-57.6" class="st0" width="57.6" height="57.6"/>
		<line class="st1" x1="52.5" y1="-54" x2="55.5" y2="-54"/>
		<line class="st1" x1="38.1" y1="-54" x2="41.1" y2="-54"/>
		<line class="st1" x1="23.7" y1="-54" x2="26.7" y2="-54"/>
		<line class="st1" x1="9.3" y1="-54" x2="12.3" y2="-54"/>
		<line class="st1" x1="45.3" y1="-46.8" x2="48.3" y2="-46.8"/>
		<line class="st1" x1="30.9" y1="-46.8" x2="33.9" y2="-46.8"/>
		<line class="st1" x1="16.5" y1="-46.8" x2="19.5" y2="-46.8"/>
		<line class="st1" x1="2.1" y1="-46.8" x2="5.1" y2="-46.8"/>
		<line class="st1" x1="52.5" y1="-39.6" x2="55.5" y2="-39.6"/>
		<line class="st1" x1="38.1" y1="-39.6" x2="41.1" y2="-39.6"/>
		<line class="st1" x1="23.7" y1="-39.6" x2="26.7" y2="-39.6"/>
		<line class="st1" x1="9.3" y1="-39.6" x2="12.3" y2="-39.6"/>
		<line class="st1" x1="45.3" y1="-32.4" x2="48.3" y2="-32.4"/>
		<line class="st1" x1="30.9" y1="-32.4" x2="33.9" y2="-32.4"/>
		<line class="st1" x1="16.5" y1="-32.4" x2="19.5" y2="-32.4"/>
		<line class="st1" x1="2.1" y1="-32.4" x2="5.1" y2="-32.4"/>
		<line class="st1" x1="52.5" y1="-25.2" x2="55.5" y2="-25.2"/>
		<line class="st1" x1="38.1" y1="-25.2" x2="41.1" y2="-25.2"/>
		<line class="st1" x1="23.7" y1="-25.2" x2="26.7" y2="-25.2"/>
		<line class="st1" x1="9.3" y1="-25.2" x2="12.3" y2="-25.2"/>
		<line class="st1" x1="45.3" y1="-18" x2="48.3" y2="-18"/>
		<line class="st1" x1="30.9" y1="-18" x2="33.9" y2="-18"/>
		<line class="st1" x1="16.5" y1="-18" x2="19.5" y2="-18"/>
		<line class="st1" x1="2.1" y1="-18" x2="5.1" y2="-18"/>
		<line class="st1" x1="52.5" y1="-10.8" x2="55.5" y2="-10.8"/>
		<line class="st1" x1="38.1" y1="-10.8" x2="41.1" y2="-10.8"/>
		<line class="st1" x1="23.7" y1="-10.8" x2="26.7" y2="-10.8"/>
		<line class="st1" x1="9.3" y1="-10.8" x2="12.3" y2="-10.8"/>
		<line class="st1" x1="45.3" y1="-3.6" x2="48.3" y2="-3.6"/>
		<line class="st1" x1="30.9" y1="-3.6" x2="33.9" y2="-3.6"/>
		<line class="st1" x1="16.5" y1="-3.6" x2="19.5" y2="-3.6"/>
		<line class="st1" x1="2.1" y1="-3.6" x2="5.1" y2="-3.6"/>
		<line class="st1" x1="54" y1="-55.5" x2="54" y2="-52.5"/>
		<line class="st1" x1="39.6" y1="-55.5" x2="39.6" y2="-52.5"/>
		<line class="st1" x1="25.2" y1="-55.5" x2="25.2" y2="-52.5"/>
		<line class="st1" x1="10.8" y1="-55.5" x2="10.8" y2="-52.5"/>
		<line class="st1" x1="46.8" y1="-48.3" x2="46.8" y2="-45.3"/>
		<line class="st1" x1="32.4" y1="-48.3" x2="32.4" y2="-45.3"/>
		<line class="st1" x1="18" y1="-48.3" x2="18" y2="-45.3"/>
		<line class="st1" x1="3.6" y1="-48.3" x2="3.6" y2="-45.3"/>
		<line class="st1" x1="54" y1="-41.1" x2="54" y2="-38.1"/>
		<line class="st1" x1="39.6" y1="-41.1" x2="39.6" y2="-38.1"/>
		<line class="st1" x1="25.2" y1="-41.1" x2="25.2" y2="-38.1"/>
		<line class="st1" x1="10.8" y1="-41.1" x2="10.8" y2="-38.1"/>
		<line class="st1" x1="46.8" y1="-33.9" x2="46.8" y2="-30.9"/>
		<line class="st1" x1="32.4" y1="-33.9" x2="32.4" y2="-30.9"/>
		<line class="st1" x1="18" y1="-33.9" x2="18" y2="-30.9"/>
		<line class="st1" x1="3.6" y1="-33.9" x2="3.6" y2="-30.9"/>
		<line class="st1" x1="54" y1="-26.7" x2="54" y2="-23.7"/>
		<line class="st1" x1="39.6" y1="-26.7" x2="39.6" y2="-23.7"/>
		<line class="st1" x1="25.2" y1="-26.7" x2="25.2" y2="-23.7"/>
		<line class="st1" x1="10.8" y1="-26.7" x2="10.8" y2="-23.7"/>
		<line class="st1" x1="46.8" y1="-19.5" x2="46.8" y2="-16.5"/>
		<line class="st1" x1="32.4" y1="-19.5" x2="32.4" y2="-16.5"/>
		<line class="st1" x1="18" y1="-19.5" x2="18" y2="-16.5"/>
		<line class="st1" x1="3.6" y1="-19.5" x2="3.6" y2="-16.5"/>
		<line class="st1" x1="54" y1="-12.3" x2="54" y2="-9.3"/>
		<line class="st1" x1="39.6" y1="-12.3" x2="39.6" y2="-9.3"/>
		<line class="st1" x1="25.2" y1="-12.3" x2="25.2" y2="-9.3"/>
		<line class="st1" x1="10.8" y1="-12.3" x2="10.8" y2="-9.3"/>
		<line class="st1" x1="46.8" y1="-5.1" x2="46.8" y2="-2.1"/>
		<line class="st1" x1="32.4" y1="-5.1" x2="32.4" y2="-2.1"/>
		<line class="st1" x1="18" y1="-5.1" x2="18" y2="-2.1"/>
		<line class="st1" x1="3.6" y1="-5.1" x2="3.6" y2="-2.1"/>
	</g>
</pattern>
<path class="st2" d="M147.2,91.5c0,0-25.6,13.1-28.7,52.5s28.5,100.7,67.3,100.2c38.8-0.5,68.9-83.9,59.9-104.5
	S203.5,86.4,147.2,91.5z"/>
<path class="st3" d="M118.6,112.1c0,0,29-52.2,123.1,2l-14.1-33.2c-42.1-33.9-65-58.8-67-80.4c0,0-6,36.2-38,79.9
	C117.3,87.6,124.6,103.7,118.6,112.1z"/>
<g>
	<path class="st4" d="M170.8,192c0,0,4.3-5.4,15.5,0h-27.2C159.1,192,162.2,185.8,170.8,192z"/>
	<path class="st4" d="M161.4,194.4h20.2C181.6,194.4,172.7,208.4,161.4,194.4z"/>
</g>
<path class="st5" d="M147.2,91.5c0,0-27.1,25.1-25.1,76.9s65.8,62.3,65.8,62.3s66.3,13.1-68.8,44.7c0,0,73.4-24.6,57.8-28.6
	s-57.8-2-63.9-22.1S86.9,109,147.2,91.5z"/>
<path class="st5" d="M241.7,114.1c0,0-61.6-35.2-93.5-24.1c0,0,16.1,28,69.5,31.2c3.7,0.2,6.4,0.9,8.6,1.8
	c-0.3,11.4-8.6,32.3,5.9,27.8c23.4-7.3-14.4,47.3-14.4,47.3s-5.1,26.6,24,34.7s17.8,22.6,17.8,22.6s-11.3,19.1-1.5,32.2
	c0,0-2-11.2,2.4-18.6c17.5-29.7-7.3-43.4-5.7-50.3C265.3,174.9,241.7,114.1,241.7,114.1z"/>
<path class="st5" d="M168.3,144c0,0-0.3,14.3-8.9,24.4c0,0-10.1,11.6,8.9,3c0,0,5.7,3.5,6-1.5c0.4-5-7.2-1.5-7.2-1.5
	S172.9,152.3,168.3,144z"/>
<path class="st5" d="M162.7,139.7c0,0-13.5-13.6-29.1-4C133.7,135.7,159.1,135.4,162.7,139.7z"/>
<path class="st5" d="M177.9,142.2c0,0,15.9-16.6,26.3,0C204.2,142.2,198.6,135.7,177.9,142.2z"/>
<path class="st5" d="M180.1,154.3c0,0,4.7-10.1,24.1-3l-1.7,8c0,0,2-4.5-5-5.2c0,0-3.7,11.8-11.7,0L180.1,154.3z"/>
<path class="st5" d="M156.8,154c0,0-19.6-12.8-23.1-1.7l2.5,7l1.5-5.2l5-0.5c0,0,1.6,12.3,8.3,0.5H156.8z"/>
<path class="st6" d="M147.2,91.5c0,0-27.1,25.1-25.1,76.9s65.8,62.3,65.8,62.3s66.3,13.1-68.8,44.7c0,0,73.4-24.6,57.8-28.6
	s-57.8-2-63.9-22.1S86.9,109,147.2,91.5z"/>
<path class="st6" d="M241.7,114.1c0,0-61.6-35.2-93.5-24.1c0,0,16.1,28,69.5,31.2c3.7,0.2,6.4,0.9,8.6,1.8
	c-0.3,11.4-8.6,32.3,5.9,27.8c23.4-7.3-14.4,47.3-14.4,47.3s-5.1,26.6,24,34.7s17.8,22.6,17.8,22.6s-11.3,19.1-1.5,32.2
	c0,0-2-11.2,2.4-18.6c17.5-29.7-7.3-43.4-5.7-50.3C265.3,174.9,241.7,114.1,241.7,114.1z"/>
</svg>
