<?xml version="1.0" encoding="utf-8"?>
<!-- Generator: Adobe Illustrator 22.1.0, SVG Export Plug-In . SVG Version: 6.00 Build 0)  -->
<svg version="1.1" xmlns="http://www.w3.org/2000/svg" xmlns:xlink="http://www.w3.org/1999/xlink" x="0px" y="0px"
	 viewBox="0 0 338.8 117.6" style="enable-background:new 0 0 338.8 117.6;" xml:space="preserve">
<style type="text/css">
	.st0{fill:none;}
	.st1{fill:none;stroke:#000000;stroke-width:0.3;stroke-linecap:square;}
	.st2{fill:#B2A99B;}
	.st3{fill:#9A9286;}
	.st4{fill:#F8991D;}
	.st5{fill:url(#USGS_8_Sewage_Disposal);}
	.st6{fill:#FCC3A2;}
	.st7{fill:#FFD84B;}
	.st8{fill:#D6562B;}
	.st9{fill:#649CD3;}
	.st10{fill:#F3AC71;}
	.st11{fill:#EF627B;}
</style>
<pattern  x="-213.5" y="-433.8" width="72" height="74.8" patternUnits="userSpaceOnUse" id="USGS_8_Sewage_Disposal" viewBox="72.2 -74.8 72 74.8" style="overflow:visible;">
	<g>
		<rect x="72.2" y="-74.8" class="st0" width="72" height="74.8"/>
		<g>
			<line class="st1" x1="144.2" y1="-0.8" x2="216.2" y2="-0.8"/>
			<line class="st1" x1="144.2" y1="-2.5" x2="216.2" y2="-2.5"/>
			<line class="st1" x1="144.2" y1="-4.3" x2="216.2" y2="-4.3"/>
			<line class="st1" x1="144.2" y1="-6" x2="216.2" y2="-6"/>
			<line class="st1" x1="144.2" y1="-7.7" x2="216.2" y2="-7.7"/>
			<line class="st1" x1="144.2" y1="-9.3" x2="216.2" y2="-9.3"/>
			<line class="st1" x1="144.2" y1="-11" x2="216.2" y2="-11"/>
			<line class="st1" x1="144.2" y1="-12.8" x2="216.2" y2="-12.8"/>
			<line class="st1" x1="144.2" y1="-14.5" x2="216.2" y2="-14.5"/>
			<line class="st1" x1="144.2" y1="-16.2" x2="216.2" y2="-16.2"/>
			<line class="st1" x1="144.2" y1="-17.8" x2="216.2" y2="-17.8"/>
			<line class="st1" x1="144.2" y1="-19.5" x2="216.2" y2="-19.5"/>
			<line class="st1" x1="144.2" y1="-21.3" x2="216.2" y2="-21.3"/>
			<line class="st1" x1="144.2" y1="-22.9" x2="216.2" y2="-22.9"/>
			<line class="st1" x1="144.2" y1="-24.6" x2="216.2" y2="-24.6"/>
			<line class="st1" x1="144.2" y1="-26.3" x2="216.2" y2="-26.3"/>
			<line class="st1" x1="144.2" y1="-28" x2="216.2" y2="-28"/>
			<line class="st1" x1="144.2" y1="-29.7" x2="216.2" y2="-29.7"/>
			<line class="st1" x1="144.2" y1="-31.4" x2="216.2" y2="-31.4"/>
			<line class="st1" x1="144.2" y1="-33.1" x2="216.2" y2="-33.1"/>
			<line class="st1" x1="144.2" y1="-34.8" x2="216.2" y2="-34.8"/>
			<line class="st1" x1="144.2" y1="-36.5" x2="216.2" y2="-36.5"/>
			<line class="st1" x1="144.2" y1="-38.2" x2="216.2" y2="-38.2"/>
			<line class="st1" x1="144.2" y1="-39.9" x2="216.2" y2="-39.9"/>
			<line class="st1" x1="144.2" y1="-41.6" x2="216.2" y2="-41.6"/>
			<line class="st1" x1="144.2" y1="-43.3" x2="216.2" y2="-43.3"/>
			<line class="st1" x1="144.2" y1="-45" x2="216.2" y2="-45"/>
			<line class="st1" x1="144.2" y1="-46.7" x2="216.2" y2="-46.7"/>
			<line class="st1" x1="144.2" y1="-48.4" x2="216.2" y2="-48.4"/>
			<line class="st1" x1="144.2" y1="-50.1" x2="216.2" y2="-50.1"/>
			<line class="st1" x1="144.2" y1="-51.8" x2="216.2" y2="-51.8"/>
			<line class="st1" x1="144.2" y1="-53.5" x2="216.2" y2="-53.5"/>
			<line class="st1" x1="144.2" y1="-55.2" x2="216.2" y2="-55.2"/>
			<line class="st1" x1="144.2" y1="-56.9" x2="216.2" y2="-56.9"/>
			<line class="st1" x1="144.2" y1="-58.6" x2="216.2" y2="-58.6"/>
			<line class="st1" x1="144.2" y1="-60.3" x2="216.2" y2="-60.3"/>
			<line class="st1" x1="144.2" y1="-62" x2="216.2" y2="-62"/>
			<line class="st1" x1="144.2" y1="-63.7" x2="216.2" y2="-63.7"/>
			<line class="st1" x1="144.2" y1="-65.4" x2="216.2" y2="-65.4"/>
			<line class="st1" x1="144.2" y1="-67.1" x2="216.2" y2="-67.1"/>
			<line class="st1" x1="144.2" y1="-68.8" x2="216.2" y2="-68.8"/>
			<line class="st1" x1="144.2" y1="-70.5" x2="216.2" y2="-70.5"/>
			<line class="st1" x1="144.2" y1="-72.2" x2="216.2" y2="-72.2"/>
			<line class="st1" x1="144.2" y1="-73.9" x2="216.2" y2="-73.9"/>
		</g>
		<g>
			<line class="st1" x1="72.2" y1="-0.8" x2="144.2" y2="-0.8"/>
			<line class="st1" x1="72.2" y1="-2.5" x2="144.2" y2="-2.5"/>
			<line class="st1" x1="72.2" y1="-4.3" x2="144.2" y2="-4.3"/>
			<line class="st1" x1="72.2" y1="-6" x2="144.2" y2="-6"/>
			<line class="st1" x1="72.2" y1="-7.7" x2="144.2" y2="-7.7"/>
			<line class="st1" x1="72.2" y1="-9.3" x2="144.2" y2="-9.3"/>
			<line class="st1" x1="72.2" y1="-11" x2="144.2" y2="-11"/>
			<line class="st1" x1="72.2" y1="-12.8" x2="144.2" y2="-12.8"/>
			<line class="st1" x1="72.2" y1="-14.5" x2="144.2" y2="-14.5"/>
			<line class="st1" x1="72.2" y1="-16.2" x2="144.2" y2="-16.2"/>
			<line class="st1" x1="72.2" y1="-17.8" x2="144.2" y2="-17.8"/>
			<line class="st1" x1="72.2" y1="-19.5" x2="144.2" y2="-19.5"/>
			<line class="st1" x1="72.2" y1="-21.3" x2="144.2" y2="-21.3"/>
			<line class="st1" x1="72.2" y1="-22.9" x2="144.2" y2="-22.9"/>
			<line class="st1" x1="72.2" y1="-24.6" x2="144.2" y2="-24.6"/>
			<line class="st1" x1="72.2" y1="-26.3" x2="144.2" y2="-26.3"/>
			<line class="st1" x1="72.2" y1="-28" x2="144.2" y2="-28"/>
			<line class="st1" x1="72.2" y1="-29.7" x2="144.2" y2="-29.7"/>
			<line class="st1" x1="72.2" y1="-31.4" x2="144.2" y2="-31.4"/>
			<line class="st1" x1="72.2" y1="-33.1" x2="144.2" y2="-33.1"/>
			<line class="st1" x1="72.2" y1="-34.8" x2="144.2" y2="-34.8"/>
			<line class="st1" x1="72.2" y1="-36.5" x2="144.2" y2="-36.5"/>
			<line class="st1" x1="72.2" y1="-38.2" x2="144.2" y2="-38.2"/>
			<line class="st1" x1="72.2" y1="-39.9" x2="144.2" y2="-39.9"/>
			<line class="st1" x1="72.2" y1="-41.6" x2="144.2" y2="-41.6"/>
			<line class="st1" x1="72.2" y1="-43.3" x2="144.2" y2="-43.3"/>
			<line class="st1" x1="72.2" y1="-45" x2="144.2" y2="-45"/>
			<line class="st1" x1="72.2" y1="-46.7" x2="144.2" y2="-46.7"/>
			<line class="st1" x1="72.2" y1="-48.4" x2="144.2" y2="-48.4"/>
			<line class="st1" x1="72.2" y1="-50.1" x2="144.2" y2="-50.1"/>
			<line class="st1" x1="72.2" y1="-51.8" x2="144.2" y2="-51.8"/>
			<line class="st1" x1="72.2" y1="-53.5" x2="144.2" y2="-53.5"/>
			<line class="st1" x1="72.2" y1="-55.2" x2="144.2" y2="-55.2"/>
			<line class="st1" x1="72.2" y1="-56.9" x2="144.2" y2="-56.9"/>
			<line class="st1" x1="72.2" y1="-58.6" x2="144.2" y2="-58.6"/>
			<line class="st1" x1="72.2" y1="-60.3" x2="144.2" y2="-60.3"/>
			<line class="st1" x1="72.2" y1="-62" x2="144.2" y2="-62"/>
			<line class="st1" x1="72.2" y1="-63.7" x2="144.2" y2="-63.7"/>
			<line class="st1" x1="72.2" y1="-65.4" x2="144.2" y2="-65.4"/>
			<line class="st1" x1="72.2" y1="-67.1" x2="144.2" y2="-67.1"/>
			<line class="st1" x1="72.2" y1="-68.8" x2="144.2" y2="-68.8"/>
			<line class="st1" x1="72.2" y1="-70.5" x2="144.2" y2="-70.5"/>
			<line class="st1" x1="72.2" y1="-72.2" x2="144.2" y2="-72.2"/>
			<line class="st1" x1="72.2" y1="-73.9" x2="144.2" y2="-73.9"/>
		</g>
		<g>
			<line class="st1" x1="0.2" y1="-0.8" x2="72.2" y2="-0.8"/>
			<line class="st1" x1="0.2" y1="-2.5" x2="72.2" y2="-2.5"/>
			<line class="st1" x1="0.2" y1="-4.3" x2="72.2" y2="-4.3"/>
			<line class="st1" x1="0.2" y1="-6" x2="72.2" y2="-6"/>
			<line class="st1" x1="0.2" y1="-7.7" x2="72.2" y2="-7.7"/>
			<line class="st1" x1="0.2" y1="-9.3" x2="72.2" y2="-9.3"/>
			<line class="st1" x1="0.2" y1="-11" x2="72.2" y2="-11"/>
			<line class="st1" x1="0.2" y1="-12.8" x2="72.2" y2="-12.8"/>
			<line class="st1" x1="0.2" y1="-14.5" x2="72.2" y2="-14.5"/>
			<line class="st1" x1="0.2" y1="-16.2" x2="72.2" y2="-16.2"/>
			<line class="st1" x1="0.2" y1="-17.8" x2="72.2" y2="-17.8"/>
			<line class="st1" x1="0.2" y1="-19.5" x2="72.2" y2="-19.5"/>
			<line class="st1" x1="0.2" y1="-21.3" x2="72.2" y2="-21.3"/>
			<line class="st1" x1="0.2" y1="-22.9" x2="72.2" y2="-22.9"/>
			<line class="st1" x1="0.2" y1="-24.6" x2="72.2" y2="-24.6"/>
			<line class="st1" x1="0.2" y1="-26.3" x2="72.2" y2="-26.3"/>
			<line class="st1" x1="0.2" y1="-28" x2="72.2" y2="-28"/>
			<line class="st1" x1="0.2" y1="-29.7" x2="72.2" y2="-29.7"/>
			<line class="st1" x1="0.2" y1="-31.4" x2="72.2" y2="-31.4"/>
			<line class="st1" x1="0.2" y1="-33.1" x2="72.2" y2="-33.1"/>
			<line class="st1" x1="0.2" y1="-34.8" x2="72.2" y2="-34.8"/>
			<line class="st1" x1="0.2" y1="-36.5" x2="72.2" y2="-36.5"/>
			<line class="st1" x1="0.2" y1="-38.2" x2="72.2" y2="-38.2"/>
			<line class="st1" x1="0.2" y1="-39.9" x2="72.2" y2="-39.9"/>
			<line class="st1" x1="0.2" y1="-41.6" x2="72.2" y2="-41.6"/>
			<line class="st1" x1="0.2" y1="-43.3" x2="72.2" y2="-43.3"/>
			<line class="st1" x1="0.2" y1="-45" x2="72.2" y2="-45"/>
			<line class="st1" x1="0.2" y1="-46.7" x2="72.2" y2="-46.7"/>
			<line class="st1" x1="0.2" y1="-48.4" x2="72.2" y2="-48.4"/>
			<line class="st1" x1="0.2" y1="-50.1" x2="72.2" y2="-50.1"/>
			<line class="st1" x1="0.2" y1="-51.8" x2="72.2" y2="-51.8"/>
			<line class="st1" x1="0.2" y1="-53.5" x2="72.2" y2="-53.5"/>
			<line class="st1" x1="0.2" y1="-55.2" x2="72.2" y2="-55.2"/>
			<line class="st1" x1="0.2" y1="-56.9" x2="72.2" y2="-56.9"/>
			<line class="st1" x1="0.2" y1="-58.6" x2="72.2" y2="-58.6"/>
			<line class="st1" x1="0.2" y1="-60.3" x2="72.2" y2="-60.3"/>
			<line class="st1" x1="0.2" y1="-62" x2="72.2" y2="-62"/>
			<line class="st1" x1="0.2" y1="-63.7" x2="72.2" y2="-63.7"/>
			<line class="st1" x1="0.2" y1="-65.4" x2="72.2" y2="-65.4"/>
			<line class="st1" x1="0.2" y1="-67.1" x2="72.2" y2="-67.1"/>
			<line class="st1" x1="0.2" y1="-68.8" x2="72.2" y2="-68.8"/>
			<line class="st1" x1="0.2" y1="-70.5" x2="72.2" y2="-70.5"/>
			<line class="st1" x1="0.2" y1="-72.2" x2="72.2" y2="-72.2"/>
			<line class="st1" x1="0.2" y1="-73.9" x2="72.2" y2="-73.9"/>
		</g>
	</g>
</pattern>
<g id="Layer_1">
	<polygon class="st2" points="0,56.8 49.2,0 300,18.1 270.9,79.9 	"/>
	<polygon class="st3" points="0,70.9 274.9,95.5 301.4,33.1 300,18.1 270.9,79.9 0,56.8 	"/>
</g>
<g id="Layer_2">
	<path class="st4" d="M93.1,28.1c-7.3-5.4,19.6,2.4,15.4,5.6c-1.9,1.5-17.8,0.9-17,3c1.2,3-13.1-4.5-10-0.6c2.1,2.6-1.8,6.7-2.6,9.3
		c-2.2,6.4-5.8,5.8-6.9,10.3c-1.4,5.4,6.6,15.1,15.1,15.6c9,0.5,12.1-9.6,21.6-10.1c8.3-0.4,13.9,7,19.1,11.6
		c22.6,19.8,67.5,11,90.3,2.3c26.9-10.4,38.7-26.8,49.4-20.9c4,2.3,4,5.6,11.1,24.1c8.2,21.6,12.5,32.5,18.6,36.2
		c15.6,9.3,42.5-5.6,41.7-10.1c-0.7-4-22.3,2.7-31.2-8.5c-8.2-10.4,4.7-23.5,0.5-46.2c-0.3-1.9-5.7-28.8-24.1-36.7
		c-16.6-7.1-25.6,9.1-69.3,16.1c-36.9,5.9-48.1-2.8-50.8-5c-5.5-4.6-6.6-9.1-14.6-13.1c-2.7-1.4-5.1-2.1-28.1-4
		c-11.7-1-16.3-1.3-18.1,1.5c-2,3-1.4,1.6-3.2,6.5C98.4,19.3,96.8,26.7,93.1,28.1"/>
	<path class="st5" d="M93.1,28.1c-7.3-5.4,19.6,2.4,15.4,5.6c-1.9,1.5-17.8,0.9-17,3c1.2,3-13.1-4.5-10-0.6c2.1,2.6-1.8,6.7-2.6,9.3
		c-2.2,6.4-5.8,5.8-6.9,10.3c-1.4,5.4,6.6,15.1,15.1,15.6c9,0.5,12.1-9.6,21.6-10.1c8.3-0.4,13.9,7,19.1,11.6
		c22.6,19.8,67.5,11,90.3,2.3c26.9-10.4,38.7-26.8,49.4-20.9c4,2.3,4,5.6,11.1,24.1c8.2,21.6,12.5,32.5,18.6,36.2
		c15.6,9.3,42.5-5.6,41.7-10.1c-0.7-4-22.3,2.7-31.2-8.5c-8.2-10.4,4.7-23.5,0.5-46.2c-0.3-1.9-5.7-28.8-24.1-36.7
		c-16.6-7.1-25.6,9.1-69.3,16.1c-36.9,5.9-48.1-2.8-50.8-5c-5.5-4.6-6.6-9.1-14.6-13.1c-2.7-1.4-5.1-2.1-28.1-4
		c-11.7-1-16.3-1.3-18.1,1.5c-2,3-1.4,1.6-3.2,6.5C98.4,19.3,96.8,26.7,93.1,28.1"/>
	<path class="st6" d="M99.9,14.8l-6.6,11.6l-12.9-4C79,14.7,67.3,6.3,57.8,10.8c-6.1,2.9-10.3,10.7-8,18.1
		c1.8,6.1,7.5,10.7,13.1,11.3c5.5,0.6,10.4-2.6,13.7-6.3l4.1,2.9l-1.9,9.9c0,0,5.4-9.6,18.6-8.1s17.8-3.3,17.8-3.3L99.9,14.8z"/>
	<path class="st7" d="M61.8,8.7c0,0-14.8,5.8-21,1c0,0,6.4,2.5,9,19.4C49.7,29.1,44.8,15.4,61.8,8.7z"/>
	<path class="st8" d="M49.1,21.7c0,0,17.7-11.5,22.7-6.2C77,21,92,30.7,92,30.7s-2.5,11.3,5.3,15c0,0-4.8-4.8,0-12s-11-21.5-11-21.5
		S71,4.4,61.8,8.7C58.1,10.5,50,12.7,49.1,21.7z"/>
	<path class="st8" d="M76.5,33.9c0,0-10.6,9.5-16.9,5.1c-5.8-4.1-10.2-8.8-10.5-15.6c0,0-3.3,26.1,15.9,29.3s8.6,17,8.6,17l1.1,10.2
		c0,0,4.3,8.8-9.3,7.8c0,0,22.9,10,16.5-13.5s0-24.2,0-24.2V37.4L76.5,33.9z"/>
	<path class="st6" d="M144.8,20.5c4.6,16.1,4.3,23.4,3,27c-0.6,1.6-2.4,5.4-0.8,8.8c0,0,0.2,0.3,0.4,0.7c1.1,2,1.7,3.1,1.6,3.5
		c-0.2,1.4-2.8,1.4-2.8,2.3c0.1,1.4,4.2,2.9,6,1.5c1.3-1.1,0.4-3,1.3-7c0.7-2.9,1.9-4.8,2.3-5.5c1.5-3,1.4-11.7-5.8-36.5L144.8,20.5
		z"/>
	<path class="st9" d="M143.5,67.7"/>
	<path class="st6" d="M146.3,62.7c0,0,10.3,14-1.5,15.7s-49-6.3-49-6.3l-2.4-2.4l9.8-7.8l35.6,8l5.5-1c-2,0.2-4-0.7-5-2.3
		c-1.4-2.2-0.8-5.4,1.3-6.7c1.1-0.7,2.9-1.2,4.3-0.3c1.5,1,2.1,3.4,1,5.5"/>
	<path class="st6" d="M305.5,40c0,0,1.6-12.5,7.6-6.9s1.5,21.1,1.5,21.1l-6-2.1L305.5,40z"/>
	<path class="st6" d="M238.8,64.8c0,0,46.7-9,74.7,10.5c0,0,5,7.5,7,0s0-18.5,0-18.5s-6-8.5-6-2.5s-1,13.5-1,13.5s-42-31.3-60-20.9
		S238.8,64.8,238.8,64.8z"/>
	<path class="st10" d="M57.7,26.1c0,0,0.2,0.1,0.4,0.2c0.8,0.4,2.5,1.6,2.9,4.1c0.6,3.3,2.8-1.2,4.1-1.3c1.3,0-1.5-1.5-1.5-1.5
		l-1.2,1.3C62.4,28.9,59,24.9,57.7,26.1z"/>
	<path class="st10" d="M60.7,23.4c0,0,0.7-3.7,4.5-3.7C65.1,19.7,59.5,18.5,60.7,23.4z"/>
	<polygon class="st10" points="63.6,25 65.1,21 65.5,23 	"/>
	<path class="st10" d="M57.7,28.8c0,0-2.3,2.2-1.3,4.1C57.4,34.7,51.7,29.9,57.7,28.8z"/>
	<polygon class="st10" points="59.4,31 58.2,33.3 59.4,33.3 	"/>
</g>
<g id="lips">
	<path class="st11" d="M64.1,35.3l3.3-4.9c0,0-2.6,0.4-2.3,2.5C65.1,32.9,62.5,33.7,64.1,35.3z"/>
	<path class="st11" d="M67.4,31.4l-2.3,3.4C65.1,34.8,68.2,35.2,67.4,31.4z"/>
</g>
</svg>
