<?xml version="1.0" encoding="utf-8"?>
<!-- Generator: Adobe Illustrator 22.1.0, SVG Export Plug-In . SVG Version: 6.00 Build 0)  -->
<svg version="1.1" id="Layer_1" xmlns="http://www.w3.org/2000/svg" xmlns:xlink="http://www.w3.org/1999/xlink" x="0px" y="0px"
	 viewBox="0 0 792 612" style="enable-background:new 0 0 792 612;" xml:space="preserve">
<style type="text/css">
	.st0{fill:none;}
	.st1{fill:#FFCD05;}
	.st2{fill:#F9F06C;}
	.st3{fill:#FFCC66;}
	.st4{fill:#FBF49C;}
	.st5{fill:url(#_x31_0_dpi_30_x25_);}
	.st6{fill:url(#_x31_0_dpi_20_x25_);}
	.st7{fill:url(#_x31_0_dpi_10_x25_);}
</style>
<pattern  width="28.8" height="28.8" patternUnits="userSpaceOnUse" id="_x31_0_dpi_10_x25_" viewBox="0.7 -29.5 28.8 28.8" style="overflow:visible;">
	<g>
		<rect x="0.7" y="-29.5" class="st0" width="28.8" height="28.8"/>
		<g>
			<circle cx="29.5" cy="-0.7" r="0.7"/>
			<path d="M15.1,0c0.4,0,0.7-0.3,0.7-0.7c0-0.4-0.3-0.7-0.7-0.7c-0.4,0-0.7,0.3-0.7,0.7C14.4-0.3,14.7,0,15.1,0z"/>
			<path d="M29.5-14.4c0.4,0,0.7-0.3,0.7-0.7c0-0.4-0.3-0.7-0.7-0.7c-0.4,0-0.7,0.3-0.7,0.7C28.8-14.7,29.1-14.4,29.5-14.4z"/>
			<path d="M15.1-14.4c0.4,0,0.7-0.3,0.7-0.7c0-0.4-0.3-0.7-0.7-0.7c-0.4,0-0.7,0.3-0.7,0.7C14.4-14.7,14.7-14.4,15.1-14.4z"/>
			<path d="M7.9-7.2c0.4,0,0.7-0.3,0.7-0.7c0-0.4-0.3-0.7-0.7-0.7c-0.4,0-0.7,0.3-0.7,0.7C7.2-7.5,7.5-7.2,7.9-7.2z"/>
			<path d="M22.3-7.2c0.4,0,0.7-0.3,0.7-0.7c0-0.4-0.3-0.7-0.7-0.7c-0.4,0-0.7,0.3-0.7,0.7C21.6-7.5,21.9-7.2,22.3-7.2z"/>
			<path d="M7.9-21.6c0.4,0,0.7-0.3,0.7-0.7c0-0.4-0.3-0.7-0.7-0.7c-0.4,0-0.7,0.3-0.7,0.7C7.2-21.9,7.5-21.6,7.9-21.6z"/>
			<path d="M22.3-21.6c0.4,0,0.7-0.3,0.7-0.7c0-0.4-0.3-0.7-0.7-0.7c-0.4,0-0.7,0.3-0.7,0.7C21.6-21.9,21.9-21.6,22.3-21.6z"/>
		</g>
		<g>
			<circle cx="0.7" cy="-0.7" r="0.7"/>
			<path d="M0.7-14.4c0.4,0,0.7-0.3,0.7-0.7c0-0.4-0.3-0.7-0.7-0.7c-0.4,0-0.7,0.3-0.7,0.7C0-14.7,0.3-14.4,0.7-14.4z"/>
		</g>
		<g>
			<path d="M29.5-28.8c0.4,0,0.7-0.3,0.7-0.7c0-0.4-0.3-0.7-0.7-0.7c-0.4,0-0.7,0.3-0.7,0.7C28.8-29.1,29.1-28.8,29.5-28.8z"/>
			<path d="M15.1-28.8c0.4,0,0.7-0.3,0.7-0.7c0-0.4-0.3-0.7-0.7-0.7c-0.4,0-0.7,0.3-0.7,0.7C14.4-29.1,14.7-28.8,15.1-28.8z"/>
		</g>
		<g>
			<path d="M0.7-28.8c0.4,0,0.7-0.3,0.7-0.7c0-0.4-0.3-0.7-0.7-0.7c-0.4,0-0.7,0.3-0.7,0.7C0-29.1,0.3-28.8,0.7-28.8z"/>
		</g>
	</g>
</pattern>
<pattern  width="28.8" height="28.8" patternUnits="userSpaceOnUse" id="_x31_0_dpi_20_x25_" viewBox="1.4 -30.2 28.8 28.8" style="overflow:visible;">
	<g>
		<rect x="1.4" y="-30.2" class="st0" width="28.8" height="28.8"/>
		<g>
			<path d="M30.2,0c0.8,0,1.4-0.6,1.4-1.4c0-0.8-0.6-1.4-1.4-1.4c-0.8,0-1.4,0.6-1.4,1.4C28.8-0.6,29.4,0,30.2,0z"/>
			<path d="M15.8,0c0.8,0,1.4-0.6,1.4-1.4c0-0.8-0.6-1.4-1.4-1.4c-0.8,0-1.4,0.6-1.4,1.4C14.4-0.6,15,0,15.8,0z"/>
			<path d="M30.2-14.4c0.8,0,1.4-0.6,1.4-1.4c0-0.8-0.6-1.4-1.4-1.4c-0.8,0-1.4,0.6-1.4,1.4C28.8-15,29.4-14.4,30.2-14.4z"/>
			<path d="M15.8-14.4c0.8,0,1.4-0.6,1.4-1.4c0-0.8-0.6-1.4-1.4-1.4c-0.8,0-1.4,0.6-1.4,1.4C14.4-15,15-14.4,15.8-14.4z"/>
			<path d="M8.6-7.2c0.8,0,1.4-0.6,1.4-1.4c0-0.8-0.6-1.4-1.4-1.4c-0.8,0-1.4,0.6-1.4,1.4C7.2-7.8,7.8-7.2,8.6-7.2z"/>
			<path d="M23-7.2c0.8,0,1.4-0.6,1.4-1.4c0-0.8-0.6-1.4-1.4-1.4c-0.8,0-1.4,0.6-1.4,1.4C21.6-7.8,22.2-7.2,23-7.2z"/>
			<path d="M8.6-21.6c0.8,0,1.4-0.6,1.4-1.4c0-0.8-0.6-1.4-1.4-1.4c-0.8,0-1.4,0.6-1.4,1.4C7.2-22.2,7.8-21.6,8.6-21.6z"/>
			<path d="M23-21.6c0.8,0,1.4-0.6,1.4-1.4c0-0.8-0.6-1.4-1.4-1.4c-0.8,0-1.4,0.6-1.4,1.4C21.6-22.2,22.2-21.6,23-21.6z"/>
		</g>
		<g>
			<path d="M1.4,0c0.8,0,1.4-0.6,1.4-1.4c0-0.8-0.6-1.4-1.4-1.4C0.6-2.9,0-2.2,0-1.4C0-0.6,0.6,0,1.4,0z"/>
			<path d="M1.4-14.4c0.8,0,1.4-0.6,1.4-1.4c0-0.8-0.6-1.4-1.4-1.4c-0.8,0-1.4,0.6-1.4,1.4C0-15,0.6-14.4,1.4-14.4z"/>
		</g>
		<g>
			<path d="M30.2-28.8c0.8,0,1.4-0.6,1.4-1.4c0-0.8-0.6-1.4-1.4-1.4c-0.8,0-1.4,0.6-1.4,1.4C28.8-29.4,29.4-28.8,30.2-28.8z"/>
			<path d="M15.8-28.8c0.8,0,1.4-0.6,1.4-1.4c0-0.8-0.6-1.4-1.4-1.4c-0.8,0-1.4,0.6-1.4,1.4C14.4-29.4,15-28.8,15.8-28.8z"/>
		</g>
		<g>
			<path d="M1.4-28.8c0.8,0,1.4-0.6,1.4-1.4c0-0.8-0.6-1.4-1.4-1.4C0.6-31.7,0-31,0-30.2C0-29.4,0.6-28.8,1.4-28.8z"/>
		</g>
	</g>
</pattern>
<pattern  width="28.8" height="28.8" patternUnits="userSpaceOnUse" id="_x31_0_dpi_30_x25_" viewBox="2.2 -31 28.8 28.8" style="overflow:visible;">
	<g>
		<rect x="2.2" y="-31" class="st0" width="28.8" height="28.8"/>
		<g>
			<path d="M31,0c1.2,0,2.2-1,2.2-2.2c0-1.2-1-2.2-2.2-2.2c-1.2,0-2.2,1-2.2,2.2C28.8-1,29.8,0,31,0z"/>
			<path d="M16.6,0c1.2,0,2.2-1,2.2-2.2c0-1.2-1-2.2-2.2-2.2c-1.2,0-2.2,1-2.2,2.2C14.4-1,15.4,0,16.6,0z"/>
			<path d="M31-14.4c1.2,0,2.2-1,2.2-2.2c0-1.2-1-2.2-2.2-2.2c-1.2,0-2.2,1-2.2,2.2C28.8-15.4,29.8-14.4,31-14.4z"/>
			<path d="M16.6-14.4c1.2,0,2.2-1,2.2-2.2c0-1.2-1-2.2-2.2-2.2c-1.2,0-2.2,1-2.2,2.2C14.4-15.4,15.4-14.4,16.6-14.4z"/>
			<path d="M9.4-7.2c1.2,0,2.2-1,2.2-2.2c0-1.2-1-2.2-2.2-2.2c-1.2,0-2.2,1-2.2,2.2C7.2-8.2,8.2-7.2,9.4-7.2z"/>
			<path d="M23.8-7.2c1.2,0,2.2-1,2.2-2.2c0-1.2-1-2.2-2.2-2.2c-1.2,0-2.2,1-2.2,2.2C21.6-8.2,22.6-7.2,23.8-7.2z"/>
			<path d="M9.4-21.6c1.2,0,2.2-1,2.2-2.2c0-1.2-1-2.2-2.2-2.2c-1.2,0-2.2,1-2.2,2.2C7.2-22.6,8.2-21.6,9.4-21.6z"/>
			<path d="M23.8-21.6c1.2,0,2.2-1,2.2-2.2c0-1.2-1-2.2-2.2-2.2c-1.2,0-2.2,1-2.2,2.2C21.6-22.6,22.6-21.6,23.8-21.6z"/>
		</g>
		<g>
			<path d="M2.2,0c1.2,0,2.2-1,2.2-2.2c0-1.2-1-2.2-2.2-2.2C1-4.3,0-3.4,0-2.2C0-1,1,0,2.2,0z"/>
			<path d="M2.2-14.4c1.2,0,2.2-1,2.2-2.2c0-1.2-1-2.2-2.2-2.2c-1.2,0-2.2,1-2.2,2.2C0-15.4,1-14.4,2.2-14.4z"/>
		</g>
		<g>
			<path d="M31-28.8c1.2,0,2.2-1,2.2-2.2c0-1.2-1-2.2-2.2-2.2c-1.2,0-2.2,1-2.2,2.2C28.8-29.8,29.8-28.8,31-28.8z"/>
			<path d="M16.6-28.8c1.2,0,2.2-1,2.2-2.2c0-1.2-1-2.2-2.2-2.2c-1.2,0-2.2,1-2.2,2.2C14.4-29.8,15.4-28.8,16.6-28.8z"/>
		</g>
		<g>
			<path d="M2.2-28.8c1.2,0,2.2-1,2.2-2.2c0-1.2-1-2.2-2.2-2.2C1-33.1,0-32.2,0-31C0-29.8,1-28.8,2.2-28.8z"/>
		</g>
	</g>
</pattern>
<path class="st1" d="M265.3,263.1c49-33.1,131.3-66.8,214.7-2.9c27.7-10.5,44.9-24.9,44.9-40.9c0-32.2-70-58.3-156.3-58.3
	s-156.3,26.1-156.3,58.3C212.1,236.8,232.7,252.5,265.3,263.1z"/>
<path class="st2" d="M212.1,275.2c-4.5-13.2,0-55.9,0-55.9s161,114.4,312.7,0c0,0,9.9,46,0,55.9C514,285.9,375.5,394.7,212.1,275.2"
	/>
<path class="st3" d="M422.3,305.6c44.5-29.3,119.4-59,195.2-2.6c25.2-9.3,40.8-24.7,40.8-36.1c0-31.1-63.6-51.5-142.1-51.5
	S374,238.4,374,266.9C374,282.3,392.7,296.1,422.3,305.6z"/>
<path class="st4" d="M374,316.2c-4.1-11.7,0-49.4,0-49.4c-1.9-1.3,148.2,99.8,284.3,0c0,0,9,40.6,0,49.4
	C650.1,324.2,521,420.8,374,316.2"/>
<path class="st5" d="M212.1,219.3c17.6,13.1,36.2,20.5,68.8,31.2c49-33.1,123.4-31.2,150.1-19.4c27.7-10.5,94.5-11.4,93.8-15.7
	c-3.9-22.9-70-54.4-156.3-54.4S212.1,187.1,212.1,219.3"/>
<path class="st6" d="M434.3,295.1c44.5-29.3,98.6-54.8,174.4,1.7c25.2-9.3,49.5-18.5,49.5-29.9c0-31.1-63.6-51.5-142.1-51.5
	S374,238.4,374,266.9C374,282.3,404.7,285.7,434.3,295.1z"/>
<path class="st7" d="M374,316.2c-4.1-11.7,0-49.4,0-49.4c-1.9-1.3,148.2,99.8,284.3,0c0,0,9,40.6,0,49.4
	C650.1,324.2,521,420.8,374,316.2"/>
<g>
	<path class="st6" d="M373.6,270.2c-91.4-1-161.5-50.8-161.5-50.8v55.9c67.3,49.2,130.4,59.7,182.1,54.3c-6.7-4-13.5-8.4-20.3-13.2
		C370.6,306.7,372.8,279.6,373.6,270.2z"/>
	<path class="st6" d="M524.8,275.2c9.9-9.9,0-55.9,0-55.9c-49.5,37.3-99.9,50.3-145.5,50.8c13.2,7.7,49.4,27.1,96.6,36.1
		C503.7,293,521.2,278.7,524.8,275.2z"/>
	<path class="st7" d="M658.3,266.9c-63.3,46.4-129.7,49.4-182.4,39.3c-21.6,10.3-49.4,19.9-81.7,23.3c138.4,82.6,256.2-5.6,264-13.2
		C667.2,307.5,658.3,266.9,658.3,266.9z"/>
	<path class="st7" d="M379.3,270.2c-3.7-2.2-5.6-3.4-5.4-3.3c0,0-0.1,1.2-0.3,3.3C375.5,270.2,377.4,270.2,379.3,270.2z"/>
</g>
</svg>
