<?xml version="1.0" encoding="utf-8"?>
<!-- Generator: Adobe Illustrator 22.1.0, SVG Export Plug-In . SVG Version: 6.00 Build 0)  -->
<svg version="1.1" id="Layer_1" xmlns="http://www.w3.org/2000/svg" xmlns:xlink="http://www.w3.org/1999/xlink" x="0px" y="0px"
	 viewBox="0 0 369.5 572.4" style="enable-background:new 0 0 369.5 572.4;" xml:space="preserve">
<style type="text/css">
	.st0{fill:none;}
	.st1{fill:none;stroke:#000000;stroke-width:2;stroke-dasharray:2,1;}
	.st2{fill:none;stroke:#000000;stroke-width:3.5;stroke-linecap:round;stroke-dasharray:0,6.5;}
	.st3{fill:none;stroke:#000000;stroke-width:3.25;stroke-linecap:round;stroke-dasharray:0,6.5;}
	.st4{fill:none;stroke:#000000;stroke-width:3;stroke-linecap:round;stroke-dasharray:0,6.5;}
	.st5{fill:none;stroke:#000000;stroke-width:2.75;stroke-linecap:round;stroke-dasharray:0,6.5;}
	.st6{fill:none;stroke:#000000;stroke-width:2.5;stroke-linecap:round;stroke-dasharray:0,6.5;}
	.st7{fill:none;stroke:#000000;stroke-width:2.25;stroke-linecap:round;stroke-dasharray:0,6.5;}
	.st8{fill:none;stroke:#000000;stroke-width:2;stroke-linecap:round;stroke-dasharray:0,6.5;}
	.st9{fill:none;stroke:#000000;stroke-width:1.75;stroke-linecap:round;stroke-dasharray:0,6.5;}
	.st10{fill:none;stroke:#000000;stroke-width:1.499;stroke-linecap:round;stroke-dasharray:0,6.5;}
	.st11{fill:none;stroke:#000000;stroke-width:1.25;stroke-linecap:round;stroke-dasharray:0,6.5;}
	.st12{fill:#821518;}
	.st13{fill:url(#Undulating_Fine_Dots);}
	.st14{fill:#ED1C24;}
	.st15{fill:#ED1C24;stroke:#FFFFFF;stroke-miterlimit:10;}
	.st16{fill:#1C4C34;}
	.st17{fill:url(#USGS_7_Vineyard);}
</style>
<pattern  x="-254.8" y="-21" width="72" height="72" patternUnits="userSpaceOnUse" id="USGS_7_Vineyard" viewBox="71.5 -72 72 72" style="overflow:visible;">
	<g>
		<rect x="71.5" y="-72" class="st0" width="72" height="72"/>
		<g>
			<line class="st1" x1="72" y1="-1.5" x2="144" y2="-1.5"/>
			<line class="st1" x1="72" y1="-4.5" x2="144" y2="-4.5"/>
			<line class="st1" x1="72" y1="-7.5" x2="144" y2="-7.5"/>
			<line class="st1" x1="72" y1="-10.5" x2="144" y2="-10.5"/>
			<line class="st1" x1="72" y1="-13.5" x2="144" y2="-13.5"/>
			<line class="st1" x1="72" y1="-16.5" x2="144" y2="-16.5"/>
			<line class="st1" x1="72" y1="-19.5" x2="144" y2="-19.5"/>
			<line class="st1" x1="72" y1="-22.5" x2="144" y2="-22.5"/>
			<line class="st1" x1="72" y1="-25.5" x2="144" y2="-25.5"/>
			<line class="st1" x1="72" y1="-28.5" x2="144" y2="-28.5"/>
			<line class="st1" x1="72" y1="-31.5" x2="144" y2="-31.5"/>
			<line class="st1" x1="72" y1="-34.5" x2="144" y2="-34.5"/>
			<line class="st1" x1="72" y1="-37.5" x2="144" y2="-37.5"/>
			<line class="st1" x1="72" y1="-40.5" x2="144" y2="-40.5"/>
			<line class="st1" x1="72" y1="-43.5" x2="144" y2="-43.5"/>
			<line class="st1" x1="72" y1="-46.5" x2="144" y2="-46.5"/>
			<line class="st1" x1="72" y1="-49.5" x2="144" y2="-49.5"/>
			<line class="st1" x1="72" y1="-52.5" x2="144" y2="-52.5"/>
			<line class="st1" x1="72" y1="-55.5" x2="144" y2="-55.5"/>
			<line class="st1" x1="72" y1="-58.5" x2="144" y2="-58.5"/>
			<line class="st1" x1="72" y1="-61.5" x2="144" y2="-61.5"/>
			<line class="st1" x1="72" y1="-64.5" x2="144" y2="-64.5"/>
			<line class="st1" x1="72" y1="-67.5" x2="144" y2="-67.5"/>
			<line class="st1" x1="72" y1="-70.5" x2="144" y2="-70.5"/>
		</g>
		<g>
			<line class="st1" x1="0" y1="-1.5" x2="72" y2="-1.5"/>
			<line class="st1" x1="0" y1="-4.5" x2="72" y2="-4.5"/>
			<line class="st1" x1="0" y1="-7.5" x2="72" y2="-7.5"/>
			<line class="st1" x1="0" y1="-10.5" x2="72" y2="-10.5"/>
			<line class="st1" x1="0" y1="-13.5" x2="72" y2="-13.5"/>
			<line class="st1" x1="0" y1="-16.5" x2="72" y2="-16.5"/>
			<line class="st1" x1="0" y1="-19.5" x2="72" y2="-19.5"/>
			<line class="st1" x1="0" y1="-22.5" x2="72" y2="-22.5"/>
			<line class="st1" x1="0" y1="-25.5" x2="72" y2="-25.5"/>
			<line class="st1" x1="0" y1="-28.5" x2="72" y2="-28.5"/>
			<line class="st1" x1="0" y1="-31.5" x2="72" y2="-31.5"/>
			<line class="st1" x1="0" y1="-34.5" x2="72" y2="-34.5"/>
			<line class="st1" x1="0" y1="-37.5" x2="72" y2="-37.5"/>
			<line class="st1" x1="0" y1="-40.5" x2="72" y2="-40.5"/>
			<line class="st1" x1="0" y1="-43.5" x2="72" y2="-43.5"/>
			<line class="st1" x1="0" y1="-46.5" x2="72" y2="-46.5"/>
			<line class="st1" x1="0" y1="-49.5" x2="72" y2="-49.5"/>
			<line class="st1" x1="0" y1="-52.5" x2="72" y2="-52.5"/>
			<line class="st1" x1="0" y1="-55.5" x2="72" y2="-55.5"/>
			<line class="st1" x1="0" y1="-58.5" x2="72" y2="-58.5"/>
			<line class="st1" x1="0" y1="-61.5" x2="72" y2="-61.5"/>
			<line class="st1" x1="0" y1="-64.5" x2="72" y2="-64.5"/>
			<line class="st1" x1="0" y1="-67.5" x2="72" y2="-67.5"/>
			<line class="st1" x1="0" y1="-70.5" x2="72" y2="-70.5"/>
		</g>
	</g>
</pattern>
<pattern  x="-254.8" y="-21" width="83" height="65" patternUnits="userSpaceOnUse" id="Undulating_Fine_Dots" viewBox="1.8 -132.3 83 65" style="overflow:visible;">
	<g>
		<rect x="1.8" y="-132.3" class="st0" width="83" height="65"/>
		<g>
			<line class="st2" x1="84.8" y1="-67.3" x2="84.8" y2="-1.8"/>
		</g>
		<g>
			<line class="st2" x1="1.8" y1="-67.3" x2="1.8" y2="-1.8"/>
			<line class="st3" x1="6.4" y1="-70.5" x2="6.4" y2="-1.8"/>
			<line class="st4" x1="11" y1="-67.3" x2="11" y2="-1.8"/>
			<line class="st5" x1="15.6" y1="-70.5" x2="15.6" y2="-1.8"/>
			<line class="st6" x1="20.2" y1="-67.3" x2="20.2" y2="-1.8"/>
			<line class="st7" x1="24.8" y1="-70.5" x2="24.8" y2="-1.8"/>
			<line class="st8" x1="29.4" y1="-67.3" x2="29.4" y2="-1.8"/>
			<line class="st9" x1="34" y1="-70.5" x2="34" y2="-1.8"/>
			<line class="st10" x1="38.6" y1="-67.3" x2="38.6" y2="-1.8"/>
			<line class="st11" x1="43.3" y1="-70.5" x2="43.3" y2="-1.8"/>
			<line class="st2" x1="84.8" y1="-67.3" x2="84.8" y2="-1.8"/>
			<line class="st3" x1="80.1" y1="-70.5" x2="80.1" y2="-1.8"/>
			<line class="st4" x1="75.5" y1="-67.3" x2="75.5" y2="-1.8"/>
			<line class="st5" x1="70.9" y1="-70.5" x2="70.9" y2="-1.8"/>
			<line class="st6" x1="66.3" y1="-67.3" x2="66.3" y2="-1.8"/>
			<line class="st7" x1="61.7" y1="-70.5" x2="61.7" y2="-1.8"/>
			<line class="st8" x1="57.1" y1="-67.3" x2="57.1" y2="-1.8"/>
			<line class="st9" x1="52.5" y1="-70.5" x2="52.5" y2="-1.8"/>
			<line class="st10" x1="47.9" y1="-67.3" x2="47.9" y2="-1.8"/>
		</g>
		<g>
			<line class="st2" x1="1.8" y1="-67.3" x2="1.8" y2="-1.8"/>
		</g>
		<g>
			<line class="st2" x1="84.8" y1="-132.3" x2="84.8" y2="-66.8"/>
		</g>
		<g>
			<line class="st2" x1="1.8" y1="-132.3" x2="1.8" y2="-66.8"/>
			<line class="st3" x1="6.4" y1="-135.5" x2="6.4" y2="-66.8"/>
			<line class="st4" x1="11" y1="-132.3" x2="11" y2="-66.8"/>
			<line class="st5" x1="15.6" y1="-135.5" x2="15.6" y2="-66.8"/>
			<line class="st6" x1="20.2" y1="-132.3" x2="20.2" y2="-66.8"/>
			<line class="st7" x1="24.8" y1="-135.5" x2="24.8" y2="-66.8"/>
			<line class="st8" x1="29.4" y1="-132.3" x2="29.4" y2="-66.8"/>
			<line class="st9" x1="34" y1="-135.5" x2="34" y2="-66.8"/>
			<line class="st10" x1="38.6" y1="-132.3" x2="38.6" y2="-66.8"/>
			<line class="st11" x1="43.3" y1="-135.5" x2="43.3" y2="-66.8"/>
			<line class="st2" x1="84.8" y1="-132.3" x2="84.8" y2="-66.8"/>
			<line class="st3" x1="80.1" y1="-135.5" x2="80.1" y2="-66.8"/>
			<line class="st4" x1="75.5" y1="-132.3" x2="75.5" y2="-66.8"/>
			<line class="st5" x1="70.9" y1="-135.5" x2="70.9" y2="-66.8"/>
			<line class="st6" x1="66.3" y1="-132.3" x2="66.3" y2="-66.8"/>
			<line class="st7" x1="61.7" y1="-135.5" x2="61.7" y2="-66.8"/>
			<line class="st8" x1="57.1" y1="-132.3" x2="57.1" y2="-66.8"/>
			<line class="st9" x1="52.5" y1="-135.5" x2="52.5" y2="-66.8"/>
			<line class="st10" x1="47.9" y1="-132.3" x2="47.9" y2="-66.8"/>
		</g>
		<g>
			<line class="st2" x1="1.8" y1="-132.3" x2="1.8" y2="-66.8"/>
		</g>
		<g>
			<line class="st2" x1="84.8" y1="-197.3" x2="84.8" y2="-131.8"/>
		</g>
		<g>
			<line class="st2" x1="1.8" y1="-197.3" x2="1.8" y2="-131.8"/>
			<line class="st3" x1="6.4" y1="-200.5" x2="6.4" y2="-131.8"/>
			<line class="st4" x1="11" y1="-197.3" x2="11" y2="-131.8"/>
			<line class="st5" x1="15.6" y1="-200.5" x2="15.6" y2="-131.8"/>
			<line class="st6" x1="20.2" y1="-197.3" x2="20.2" y2="-131.8"/>
			<line class="st7" x1="24.8" y1="-200.5" x2="24.8" y2="-131.8"/>
			<line class="st8" x1="29.4" y1="-197.3" x2="29.4" y2="-131.8"/>
			<line class="st9" x1="34" y1="-200.5" x2="34" y2="-131.8"/>
			<line class="st10" x1="38.6" y1="-197.3" x2="38.6" y2="-131.8"/>
			<line class="st11" x1="43.3" y1="-200.5" x2="43.3" y2="-131.8"/>
			<line class="st2" x1="84.8" y1="-197.3" x2="84.8" y2="-131.8"/>
			<line class="st3" x1="80.1" y1="-200.5" x2="80.1" y2="-131.8"/>
			<line class="st4" x1="75.5" y1="-197.3" x2="75.5" y2="-131.8"/>
			<line class="st5" x1="70.9" y1="-200.5" x2="70.9" y2="-131.8"/>
			<line class="st6" x1="66.3" y1="-197.3" x2="66.3" y2="-131.8"/>
			<line class="st7" x1="61.7" y1="-200.5" x2="61.7" y2="-131.8"/>
			<line class="st8" x1="57.1" y1="-197.3" x2="57.1" y2="-131.8"/>
			<line class="st9" x1="52.5" y1="-200.5" x2="52.5" y2="-131.8"/>
			<line class="st10" x1="47.9" y1="-197.3" x2="47.9" y2="-131.8"/>
		</g>
		<g>
			<line class="st2" x1="1.8" y1="-197.3" x2="1.8" y2="-131.8"/>
		</g>
	</g>
</pattern>
<path class="st12" d="M1.8,133.8c6.8,18.7,66.7,175.6,293.1,36.8c0,0,44.2-182-133.3-168.8C54,9.7-11.8,96.6,1.8,133.8z"/>
<path class="st13" d="M1.8,133.8c6.8,18.7,66.7,175.6,293.1,36.8c0,0,44.2-182-133.3-168.8C54,9.7-11.8,96.6,1.8,133.8z"/>
<g>
	<path class="st14" d="M161.6,1.7C79.7,39.5-10.1,62.2,1.1,130.7c5.6,33.9,52.9,51.2,68.3,56.8c89.8,32.8,218.2-11.8,227.1-76.9
		c6-43.9-42-99.4-98-109C112.8-13.3,35.3,84.2,49.4,122.6c15.8,43,160.1,50.1,184.4,2.5c14.5-28.5-10-84.1-46.7-92.5
		c-47.1-10.7-99.1,59.8-87.9,82.4c11.9,24,104.3,13.1,109.5-9.5c3.3-14.4-26.9-41.3-48.2-35.2c-14,4-23.8,22.1-20.1,27.1
		c4.7,6.4,31.4-8.7,33.7-4.5c1.5,2.8-8.6,14.5-22.1,16.6c-11.8,1.8-26-3.7-29.6-13.1c-6-15.2,14.6-43,40.7-47.7
		c23.3-4.3,49.5,10.1,56.3,32.2c5.7,18.7-4,38.1-14.6,48.7c-36,36.5-127.1,17.9-137.2-17.1c-8.1-28.1,35.8-67,72.9-82.9
		c15.2-6.5,49.8-21.4,80.9-5c36.1,19,51,71.5,37.2,105.5c-23.8,58.5-137.2,74.1-195.5,29.6c-9.3-7.1-31.8-24.2-33.7-50.3
		C24.5,43.2,162.3,1.4,161.6,1.7z"/>
	<path class="st15" d="M369.5,87.4"/>
	<path class="st14" d="M299.6,121.9c0,0,3.8,135.3-19.1,207.8c-18.1,57.2-122.4,53.4-127.1,52.3C106.6,370.2,40.8,192.4,40.8,192.4
		S278.2,258.1,299.6,121.9"/>
</g>
<path class="st16" d="M203.1,381.9l53,190.5h26.6l-61-194.9c0,0,12.6-11.4,21.2,8.2c0,0-5.4-22.6-15.5-20.6
	c-10.1,2-13.1,12.6-13.1,12.6s-25.6-14.6-28.6-5c-3,9.5,0,16.6,0,16.6S198.4,375.6,203.1,381.9z"/>
<path class="st17" d="M203.1,381.9l53,190.5h26.6l-61-194.9c0,0,12.6-11.4,21.2,8.2c0,0-5.4-22.6-15.5-20.6
	c-10.1,2-13.1,12.6-13.1,12.6s-25.6-14.6-28.6-5c-3,9.5,0,16.6,0,16.6S198.4,375.6,203.1,381.9z"/>
</svg>
