<?xml version="1.0" encoding="utf-8"?>
<!-- Generator: Adobe Illustrator 22.1.0, SVG Export Plug-In . SVG Version: 6.00 Build 0)  -->
<svg version="1.1" id="Layer_1" xmlns="http://www.w3.org/2000/svg" xmlns:xlink="http://www.w3.org/1999/xlink" x="0px" y="0px"
	 viewBox="0 0 299.8 572.3" style="enable-background:new 0 0 299.8 572.3;" xml:space="preserve">
<style type="text/css">
	.st0{fill:none;}
	.st1{fill:none;stroke:#000000;stroke-width:2;stroke-dasharray:2,1;}
	.st2{fill:none;stroke:#000000;stroke-width:3.5;stroke-linecap:round;stroke-dasharray:0,6.5;}
	.st3{fill:none;stroke:#000000;stroke-width:3.25;stroke-linecap:round;stroke-dasharray:0,6.5;}
	.st4{fill:none;stroke:#000000;stroke-width:3;stroke-linecap:round;stroke-dasharray:0,6.5;}
	.st5{fill:none;stroke:#000000;stroke-width:2.75;stroke-linecap:round;stroke-dasharray:0,6.5;}
	.st6{fill:none;stroke:#000000;stroke-width:2.5;stroke-linecap:round;stroke-dasharray:0,6.5;}
	.st7{fill:none;stroke:#000000;stroke-width:2.25;stroke-linecap:round;stroke-dasharray:0,6.5;}
	.st8{fill:none;stroke:#000000;stroke-width:2;stroke-linecap:round;stroke-dasharray:0,6.5;}
	.st9{fill:none;stroke:#000000;stroke-width:1.75;stroke-linecap:round;stroke-dasharray:0,6.5;}
	.st10{fill:none;stroke:#000000;stroke-width:1.499;stroke-linecap:round;stroke-dasharray:0,6.5;}
	.st11{fill:none;stroke:#000000;stroke-width:1.25;stroke-linecap:round;stroke-dasharray:0,6.5;}
	.st12{fill:#821518;}
	.st13{fill:url(#SVGID_1_);}
	.st14{fill:#ED1C24;}
	.st15{fill:#1C4C34;}
	.st16{fill:url(#SVGID_2_);}
</style>
<pattern  x="0" y="572.3" width="72" height="72" patternUnits="userSpaceOnUse" id="USGS_7_Vineyard" viewBox="71.5 -72 72 72" style="overflow:visible;">
	<g>
		<rect x="71.5" y="-72" class="st0" width="72" height="72"/>
		<g>
			<rect x="71.5" y="-72" class="st0" width="72" height="72"/>
			<g>
				<line class="st1" x1="72" y1="-70.5" x2="144" y2="-70.5"/>
				<line class="st1" x1="72" y1="-67.5" x2="144" y2="-67.5"/>
				<line class="st1" x1="72" y1="-64.5" x2="144" y2="-64.5"/>
				<line class="st1" x1="72" y1="-61.5" x2="144" y2="-61.5"/>
				<line class="st1" x1="72" y1="-58.5" x2="144" y2="-58.5"/>
				<line class="st1" x1="72" y1="-55.5" x2="144" y2="-55.5"/>
				<line class="st1" x1="72" y1="-52.5" x2="144" y2="-52.5"/>
				<line class="st1" x1="72" y1="-49.5" x2="144" y2="-49.5"/>
				<line class="st1" x1="72" y1="-46.5" x2="144" y2="-46.5"/>
				<line class="st1" x1="72" y1="-43.5" x2="144" y2="-43.5"/>
				<line class="st1" x1="72" y1="-40.5" x2="144" y2="-40.5"/>
				<line class="st1" x1="72" y1="-37.5" x2="144" y2="-37.5"/>
				<line class="st1" x1="72" y1="-34.5" x2="144" y2="-34.5"/>
				<line class="st1" x1="72" y1="-31.5" x2="144" y2="-31.5"/>
				<line class="st1" x1="72" y1="-28.5" x2="144" y2="-28.5"/>
				<line class="st1" x1="72" y1="-25.5" x2="144" y2="-25.5"/>
				<line class="st1" x1="72" y1="-22.5" x2="144" y2="-22.5"/>
				<line class="st1" x1="72" y1="-19.5" x2="144" y2="-19.5"/>
				<line class="st1" x1="72" y1="-16.5" x2="144" y2="-16.5"/>
				<line class="st1" x1="72" y1="-13.5" x2="144" y2="-13.5"/>
				<line class="st1" x1="72" y1="-10.5" x2="144" y2="-10.5"/>
				<line class="st1" x1="72" y1="-7.5" x2="144" y2="-7.5"/>
				<line class="st1" x1="72" y1="-4.5" x2="144" y2="-4.5"/>
				<line class="st1" x1="72" y1="-1.5" x2="144" y2="-1.5"/>
			</g>
			<g>
				<line class="st1" x1="0" y1="-70.5" x2="72" y2="-70.5"/>
				<line class="st1" x1="0" y1="-67.5" x2="72" y2="-67.5"/>
				<line class="st1" x1="0" y1="-64.5" x2="72" y2="-64.5"/>
				<line class="st1" x1="0" y1="-61.5" x2="72" y2="-61.5"/>
				<line class="st1" x1="0" y1="-58.5" x2="72" y2="-58.5"/>
				<line class="st1" x1="0" y1="-55.5" x2="72" y2="-55.5"/>
				<line class="st1" x1="0" y1="-52.5" x2="72" y2="-52.5"/>
				<line class="st1" x1="0" y1="-49.5" x2="72" y2="-49.5"/>
				<line class="st1" x1="0" y1="-46.5" x2="72" y2="-46.5"/>
				<line class="st1" x1="0" y1="-43.5" x2="72" y2="-43.5"/>
				<line class="st1" x1="0" y1="-40.5" x2="72" y2="-40.5"/>
				<line class="st1" x1="0" y1="-37.5" x2="72" y2="-37.5"/>
				<line class="st1" x1="0" y1="-34.5" x2="72" y2="-34.5"/>
				<line class="st1" x1="0" y1="-31.5" x2="72" y2="-31.5"/>
				<line class="st1" x1="0" y1="-28.5" x2="72" y2="-28.5"/>
				<line class="st1" x1="0" y1="-25.5" x2="72" y2="-25.5"/>
				<line class="st1" x1="0" y1="-22.5" x2="72" y2="-22.5"/>
				<line class="st1" x1="0" y1="-19.5" x2="72" y2="-19.5"/>
				<line class="st1" x1="0" y1="-16.5" x2="72" y2="-16.5"/>
				<line class="st1" x1="0" y1="-13.5" x2="72" y2="-13.5"/>
				<line class="st1" x1="0" y1="-10.5" x2="72" y2="-10.5"/>
				<line class="st1" x1="0" y1="-7.5" x2="72" y2="-7.5"/>
				<line class="st1" x1="0" y1="-4.5" x2="72" y2="-4.5"/>
				<line class="st1" x1="0" y1="-1.5" x2="72" y2="-1.5"/>
			</g>
		</g>
	</g>
</pattern>
<pattern  x="0" y="572.3" width="83" height="65" patternUnits="userSpaceOnUse" id="Undulating_Fine_Dots" viewBox="1.7 -134.8 83 65" style="overflow:visible;">
	<g>
		<rect x="1.7" y="-134.8" class="st0" width="83" height="65"/>
		<g>
			<rect x="1.8" y="-134.8" class="st0" width="83" height="65"/>
			<g>
				<line class="st2" x1="84.8" y1="-134.8" x2="84.8" y2="-200.3"/>
			</g>
			<g>
				<line class="st2" x1="1.8" y1="-134.8" x2="1.8" y2="-200.3"/>
				<line class="st3" x1="6.4" y1="-131.6" x2="6.4" y2="-200.3"/>
				<line class="st4" x1="10.9" y1="-134.8" x2="10.9" y2="-200.3"/>
				<line class="st5" x1="15.6" y1="-131.6" x2="15.6" y2="-200.3"/>
				<line class="st6" x1="20.2" y1="-134.8" x2="20.2" y2="-200.3"/>
				<line class="st7" x1="24.8" y1="-131.6" x2="24.8" y2="-200.3"/>
				<line class="st8" x1="29.4" y1="-134.8" x2="29.4" y2="-200.3"/>
				<line class="st9" x1="34" y1="-131.6" x2="34" y2="-200.3"/>
				<line class="st10" x1="38.5" y1="-134.8" x2="38.5" y2="-200.3"/>
				<line class="st11" x1="43.3" y1="-131.6" x2="43.3" y2="-200.3"/>
				<line class="st2" x1="84.8" y1="-134.8" x2="84.8" y2="-200.3"/>
				<line class="st3" x1="80" y1="-131.6" x2="80" y2="-200.3"/>
				<line class="st4" x1="75.4" y1="-134.8" x2="75.4" y2="-200.3"/>
				<line class="st5" x1="70.8" y1="-131.6" x2="70.8" y2="-200.3"/>
				<line class="st6" x1="66.3" y1="-134.8" x2="66.3" y2="-200.3"/>
				<line class="st7" x1="61.7" y1="-131.6" x2="61.7" y2="-200.3"/>
				<line class="st8" x1="57" y1="-134.8" x2="57" y2="-200.3"/>
				<line class="st9" x1="52.5" y1="-131.6" x2="52.5" y2="-200.3"/>
				<line class="st10" x1="47.9" y1="-134.8" x2="47.9" y2="-200.3"/>
			</g>
			<g>
				<line class="st2" x1="1.8" y1="-134.8" x2="1.8" y2="-200.3"/>
			</g>
			<g>
				<line class="st2" x1="84.8" y1="-69.8" x2="84.8" y2="-135.3"/>
			</g>
			<g>
				<line class="st2" x1="1.8" y1="-69.8" x2="1.8" y2="-135.3"/>
				<line class="st3" x1="6.4" y1="-66.6" x2="6.4" y2="-135.3"/>
				<line class="st4" x1="10.9" y1="-69.8" x2="10.9" y2="-135.3"/>
				<line class="st5" x1="15.6" y1="-66.6" x2="15.6" y2="-135.3"/>
				<line class="st6" x1="20.2" y1="-69.8" x2="20.2" y2="-135.3"/>
				<line class="st7" x1="24.8" y1="-66.6" x2="24.8" y2="-135.3"/>
				<line class="st8" x1="29.4" y1="-69.8" x2="29.4" y2="-135.3"/>
				<line class="st9" x1="34" y1="-66.6" x2="34" y2="-135.3"/>
				<line class="st10" x1="38.5" y1="-69.8" x2="38.5" y2="-135.3"/>
				<line class="st11" x1="43.3" y1="-66.6" x2="43.3" y2="-135.3"/>
				<line class="st2" x1="84.8" y1="-69.8" x2="84.8" y2="-135.3"/>
				<line class="st3" x1="80" y1="-66.6" x2="80" y2="-135.3"/>
				<line class="st4" x1="75.4" y1="-69.8" x2="75.4" y2="-135.3"/>
				<line class="st5" x1="70.8" y1="-66.6" x2="70.8" y2="-135.3"/>
				<line class="st6" x1="66.3" y1="-69.8" x2="66.3" y2="-135.3"/>
				<line class="st7" x1="61.7" y1="-66.6" x2="61.7" y2="-135.3"/>
				<line class="st8" x1="57" y1="-69.8" x2="57" y2="-135.3"/>
				<line class="st9" x1="52.5" y1="-66.6" x2="52.5" y2="-135.3"/>
				<line class="st10" x1="47.9" y1="-69.8" x2="47.9" y2="-135.3"/>
			</g>
			<g>
				<line class="st2" x1="1.8" y1="-69.8" x2="1.8" y2="-135.3"/>
			</g>
			<g>
				<line class="st2" x1="84.8" y1="-4.8" x2="84.8" y2="-70.3"/>
			</g>
			<g>
				<line class="st2" x1="1.8" y1="-4.8" x2="1.8" y2="-70.3"/>
				<line class="st3" x1="6.4" y1="-1.6" x2="6.4" y2="-70.3"/>
				<line class="st4" x1="10.9" y1="-4.8" x2="10.9" y2="-70.3"/>
				<line class="st5" x1="15.6" y1="-1.6" x2="15.6" y2="-70.3"/>
				<line class="st6" x1="20.2" y1="-4.8" x2="20.2" y2="-70.3"/>
				<line class="st7" x1="24.8" y1="-1.6" x2="24.8" y2="-70.3"/>
				<line class="st8" x1="29.4" y1="-4.8" x2="29.4" y2="-70.3"/>
				<line class="st9" x1="34" y1="-1.6" x2="34" y2="-70.3"/>
				<line class="st10" x1="38.5" y1="-4.8" x2="38.5" y2="-70.3"/>
				<line class="st11" x1="43.3" y1="-1.6" x2="43.3" y2="-70.3"/>
				<line class="st2" x1="84.8" y1="-4.8" x2="84.8" y2="-70.3"/>
				<line class="st3" x1="80" y1="-1.6" x2="80" y2="-70.3"/>
				<line class="st4" x1="75.4" y1="-4.8" x2="75.4" y2="-70.3"/>
				<line class="st5" x1="70.8" y1="-1.6" x2="70.8" y2="-70.3"/>
				<line class="st6" x1="66.3" y1="-4.8" x2="66.3" y2="-70.3"/>
				<line class="st7" x1="61.7" y1="-1.6" x2="61.7" y2="-70.3"/>
				<line class="st8" x1="57" y1="-4.8" x2="57" y2="-70.3"/>
				<line class="st9" x1="52.5" y1="-1.6" x2="52.5" y2="-70.3"/>
				<line class="st10" x1="47.9" y1="-4.8" x2="47.9" y2="-70.3"/>
			</g>
			<g>
				<line class="st2" x1="1.8" y1="-4.8" x2="1.8" y2="-70.3"/>
			</g>
		</g>
	</g>
</pattern>
<path class="st12" d="M1.8,133.7c6.8,18.7,66.7,175.6,293.1,36.8c0,0,44.2-182-133.3-168.8C54,9.6-11.8,96.5,1.8,133.7z"/>
<pattern  id="SVGID_1_" xlink:href="#Undulating_Fine_Dots" patternTransform="matrix(1 0 0 -1 -263.6 -17327.75)">
</pattern>
<path class="st13" d="M1.8,133.7c6.8,18.7,66.7,175.6,293.1,36.8c0,0,44.2-182-133.3-168.8C54,9.6-11.8,96.5,1.8,133.7z"/>
<g>
	<path class="st14" d="M161.6,1.6C79.7,39.4-10.1,62.1,1.1,130.6c5.6,33.9,52.9,51.2,68.3,56.8c89.8,32.8,218.2-11.8,227.1-76.9
		c6-43.9-42-99.4-98-109c-85.7-14.9-163.2,82.6-149.1,121c15.8,43,160.1,50.1,184.4,2.5c14.5-28.5-10-84.1-46.7-92.5
		C140,21.8,88,92.3,99.2,114.9c11.9,24,104.3,13.1,109.5-9.5c3.3-14.4-26.9-41.3-48.2-35.2c-14,4-23.8,22.1-20.1,27.1
		c4.7,6.4,31.4-8.7,33.7-4.5c1.5,2.8-8.6,14.5-22.1,16.6c-11.8,1.8-26-3.7-29.6-13.1c-6-15.2,14.6-43,40.7-47.7
		c23.3-4.3,49.5,10.1,56.3,32.2c5.7,18.7-4,38.1-14.6,48.7c-36,36.5-127.1,17.9-137.2-17.1c-8.1-28.1,35.8-67,72.9-82.9
		c15.2-6.5,49.8-21.4,80.9-5c36.1,19,51,71.5,37.2,105.5c-23.8,58.5-137.2,74.1-195.5,29.6c-9.3-7.1-31.8-24.2-33.7-50.3
		C24.5,43.1,162.3,1.3,161.6,1.6z"/>
	<path class="st14" d="M299.6,121.8c0,0,3.8,135.3-19.1,207.8c-18.1,57.2-122.4,53.4-127.1,52.3C106.6,370.1,40.8,192.3,40.8,192.3
		S278.2,258,299.6,121.8"/>
</g>
<path class="st15" d="M203.1,381.8l53,190.5h26.6l-61-194.9c0,0,12.6-11.4,21.2,8.2c0,0-5.4-22.6-15.5-20.6s-13.1,12.6-13.1,12.6
	s-25.6-14.6-28.6-5c-3,9.5,0,16.6,0,16.6S198.4,375.5,203.1,381.8z"/>
<pattern  id="SVGID_2_" xlink:href="#USGS_7_Vineyard" patternTransform="matrix(1 0 0 -1 -355.3 -17185.8008)">
</pattern>
<path class="st16" d="M203.1,381.8l53,190.5h26.6l-61-194.9c0,0,12.6-11.4,21.2,8.2c0,0-5.4-22.6-15.5-20.6s-13.1,12.6-13.1,12.6
	s-25.6-14.6-28.6-5c-3,9.5,0,16.6,0,16.6S198.4,375.5,203.1,381.8z"/>
</svg>
