<?xml version="1.0" encoding="utf-8"?>
<!-- Generator: Adobe Illustrator 22.1.0, SVG Export Plug-In . SVG Version: 6.00 Build 0)  -->
<svg version="1.1" id="Layer_1" xmlns="http://www.w3.org/2000/svg" xmlns:xlink="http://www.w3.org/1999/xlink" x="0px" y="0px"
	 viewBox="0 0 756 579.3" style="enable-background:new 0 0 756 579.3;" xml:space="preserve">
<style type="text/css">
	.st0{fill:#FCE5EF;}
	.st1{fill:#F8BDD7;}
	.st2{fill:#F4EEF2;}
	.st3{fill:#F9ED32;}
	.st4{fill:#DCC228;}
	.st5{fill:#9C5BA4;}
	.st6{fill:#D9CBE0;}
</style>
<path class="st0" d="M90.7,235.6l132,286.8l105-21.2l27.7-292.8C355.3,208.4,205.5,152.5,90.7,235.6z"/>
<g>
	<g>
		<path class="st1" d="M324.8,397.3l-22.9-37.7l-82.9,5l-35.1,32.7l-58.5-92.5l99.5,217.6l102.9-20.6l13.2-197L324.8,397.3z
			 M294.9,409c-16.6,5.6-76.3,22-61.8-24l61.8-7.3C294.9,377.7,311.5,403.4,294.9,409z"/>
	</g>
</g>
<g>
	<path class="st2" d="M498.1,199.1c0,0,20.9,52.9,18.6,111.2c-4.1,106.2,93.1,201.4,131.9,33c7.4-32.2-4-83.9,6.7-133.3L498.1,199.1
		z"/>
</g>
<g>
	<path class="st3" d="M51.7,162.8l39,73.2c0,0,119.8-64.4,263.9-19.7l19-79.2c0,0-87.9,51.8-124.1-6.9s25.5-57.7,25.5-57.7
		s-3.7-36.6-49.7-10.2c0,0-33.6-27.1-44.7,12.8c0,0,39.6-24.4,24.9,52.8C190.9,205.1,51.7,162.8,51.7,162.8z"/>
	<g>
		<g>
			<g>
				<g>
					<path class="st4" d="M76.9,168.9c-0.5-0.1-1.3-0.3-1.9-0.5C76.9,168.8,77.7,168.9,76.9,168.9z"/>
					<path class="st4" d="M51.8,162.4c6.4,1.9,16.8,4.4,23.3,6c-2.9-0.5-8.4-1.5-13.2-2.7C56.9,164.5,52.6,163.2,51.8,162.4z"/>
					<path class="st4" d="M77.8,170.8c-2.7-0.6-5.4-1.3-8.2-2C74.5,169.6,73.5,169.9,77.8,170.8z"/>
					<polygon class="st4" points="75,169.3 75.5,169 79.8,170.2 					"/>
					<path class="st4" d="M248.3,121.6c-0.2-0.8-0.3-1.4,0.1-1.1L248.3,121.6z"/>
					<path class="st4" d="M257.3,138.2c0.5,0.7,1,1.2,1.5,1.7c0.4,0.5,0.8,0.8,1.2,1.2c-0.4-0.4-0.8-0.8-1.2-1.2
						C258.3,139.5,257.8,139,257.3,138.2z"/>
					<path class="st4" d="M242.1,106.1l0.9,3.1C242.6,108.2,242.3,107.2,242.1,106.1z"/>
					<path class="st4" d="M206.2,86.1c0.1,0.4,0.1,0.8,0.2,1.1c0,0.4,0.1,0.8,0.1,1.1c0,0.7,0.1,1.5,0.1,2.2c0,1.4,0,2.7,0,3.8
						c-0.2-1.5-0.3-2.6-0.4-3.6c-0.1-0.9-0.2-1.6-0.1-2.1c0-0.5,0.1-1,0.1-1.4C206.2,86.9,206.2,86.6,206.2,86.1z"/>
					<path class="st4" d="M340.6,156.1c0.2-0.2,0.5-0.4,0.7-0.6C342.2,155.3,342.7,155.3,340.6,156.1z"/>
					<path class="st4" d="M256.8,145.3c0.1-0.2,0.3-0.2,0.6,0c0.2,0.3,0.5,0.5,0.7,0.8L256.8,145.3z"/>
					<path class="st4" d="M241,93.8c0,0,0-0.1,0-0.2c0.3-0.8,0.5-1.6,0.9-2.3C241.5,92.5,241.3,93.3,241,93.8z"/>
					<path class="st4" d="M364.8,147c0.2,0.1,0.3,0.3,0.2,0.7C365,147.6,364.8,147.3,364.8,147z"/>
					<path class="st4" d="M260.3,141.4C260.3,141.5,260.3,141.4,260.3,141.4c-0.1-0.1-0.2-0.2-0.3-0.3
						C260.1,141.2,260.2,141.3,260.3,141.4z"/>
					<path class="st4" d="M240.5,121.1c0.6,1.4,1.3,2.7,1.9,4.2C241.5,123.6,240.8,122.1,240.5,121.1z"/>
					<path class="st4" d="M206.2,86.1c-0.1-0.9-0.2-1.7-0.4-2.6c0.2,0.6,0.3,1.1,0.4,1.5C206.2,85.5,206.2,85.8,206.2,86.1z"/>
					<path class="st4" d="M99.2,171.8c2.7,0.3,3.3,0.6,3.8,0.9C101.5,172.4,100.2,172.1,99.2,171.8z"/>
					<path class="st4" d="M52.9,169.6l-0.5-1C52.7,169,52.8,169.3,52.9,169.6z"/>
					<path class="st4" d="M116.6,227.8c0.5-0.1,1-0.2,1.4-0.3C117.2,227.9,116.7,228,116.6,227.8z"/>
					<path class="st4" d="M207.6,198c-3.4,0.6-6.8,1-10.2,1.2c-3.4,0.3-6.6,0.6-9.6,1l2.1,0.1c-2,0.2-4,0.4-6,0.7l0.2,0.5
						c-2.5,0.4-5,0.8-7.6,1.3c-2.6,0.5-5.1,1.1-7.4,1.6c-4.7,1-8.6,1.9-10.4,1.8l1.3,0.6c-3.5,0.6-6.9,1.2-10.4,1.9
						c2-0.3,4-0.6,6-0.9c-2.9,0.8-6.1,1.6-9.4,2.5c-3.3,0.8-6.6,1.8-9.6,2.6c-6.1,1.7-11,3.2-12.2,3.6l1.1,0
						c-1.8,0.8-3.3,1.1-5.2,1.7l1.6-0.1c-7.4,2.6-12.3,4.7-17,6.9c-2.4,1.1-4.7,2.2-7.2,3.4c-1.6,0.8-3.3,1.6-5.4,2.6
						c-0.2-0.3-0.4-0.7-0.5-1.1c-0.1-0.2-0.2-0.4-0.3-0.6l-0.1-0.3c-0.1-0.3-0.3-0.5-0.4-0.8c-1.3-2.3-1-1.7-0.4-0.4
						c0.2,0.3,0.3,0.7,0.5,1l0.1,0.3l0,0.1c0,0.1,0.1,0.1,0.1,0.2c0.1,0.3,0.2,0.5,0.1,0.6c-0.1-0.1-0.2-0.2-0.3-0.4
						c-0.1-0.1-0.1-0.2-0.2-0.3c-0.1-0.2-0.2-0.4-0.4-0.6c-0.5-0.9-1.1-2-1.6-3c-1-2-1.9-4-2.1-4.7c0,1.7,4.2,8.9,0.6,3.7
						c-1.8-4.1,0.8,3-2.8-4l-0.6-3.2c-2.2-3.8-1.1-0.4-4.3-6.6c-3.3-7.2,5.6,8-0.3-3.3c-3.1-5.6-8.4-10.7-13.7-21.9
						c-5.5-9.2,1.2,5.7-5.5-7.4l3.9,8.6c-1.4-2-1.1-0.4-3.9-6.2c-0.6-2-2-5.7-3.6-8.8c5.8,12.6-6.7-10.1-1.5,1.7l-2.2-4.2
						c0.2,0.5,0.2,0.7,0,0.5l-3.1-5.6c1.7,3.6,6,11.9,3.3,8.4l-4.5-8.1c0.7,2.4-1.1-0.4-1.3,0.2l11.8,24.5c-0.2-1.1-1.8-4.7-0.9-3.5
						c3.7,6.3,2.2,5.5,5.9,11.3l-1-2.9c0.1,0.6,0.5,1.4-0.2,0.1c-1.4-2-1.6-3-1.3-3.2c1.6,1.8,4.5,8.1,5.1,10.1
						c4.2,7.7,1.8,1.1,2.8,2.8c1.3,4.5,6.9,13,9.1,18l-1.1-3.4c1.9,2.8,3.4,5.6,4.7,8.1c0.6,1.3,1.2,2.5,1.7,3.6
						c0.3,0.6,0.5,1.1,0.7,1.6c0.1,0.3,0.2,0.5,0.4,0.9c0.2,0.4,0.4,0.7,0.5,1.1c-0.2-0.8-0.5-1.7-0.6-2.1c0.4,0.7,0.8,1.4,1.1,2.1
						c0.4,0.7,0.8,1.4,1.2,2.1c0.8,1.3,1.5,2.7,2.2,3.7c1.9-1.1,3.6-2.1,5.1-3c0.7-0.4,1.5-0.8,2.2-1.2c0.3-0.2,0.6-0.3,0.9-0.4
						l0.8-0.4c2.1-1,4.3-1.8,6.9-2.2l-1,0.1c3.4-1.7,8.6-4.2,12.2-5c0-0.2,0.5-0.7,1.9-1.3c2.2-0.1,5.7-1.9,11-3.8
						c-3.6,1-2.7-0.2-6.5,0.9c7.9-3.7,7.9-1.6,14.8-3.9c2-0.9,1-0.7-0.6-0.3c-1.6,0.4-3.9,1-4.4,1c1.4-0.4,2.7-0.8,4.1-1.2
						c1.4-0.4,2.7-0.9,4-1.4c2.6-1,5.2-1.9,7.7-2.8c2.5-0.9,4.9-1.6,7.1-2.2c2.2-0.5,4.3-0.9,6.1-0.9c-1.5,0.5-3,1.1-4.6,1.7
						c2.2-0.4,3.9-0.7,5-0.9c1.1-0.2,1.5-0.4,1.2-0.4c-1.4,0.4-1.9,0.3-2.4,0.3c13-4,20.9-3.3,34.3-5.7c-1-0.2-3,0-3.1-0.3
						c6.2-1.3,6.3,0.8,16.2-1.1c-0.7-0.1-1.3-0.1-2-0.1c3.3-0.7,5.9-0.3,5.4-0.1c0-0.4,1.4-0.7,3.5-1c1.1-0.1,2.3-0.3,3.7-0.4
						c1.4-0.1,2.9-0.2,4.4-0.3c6.2-0.6,13.2-0.8,16.7-2c2.5,0.4,7.3,0.7,12,0.9c4.7,0.3,9.3,0.5,11.5,0.3c3.1-0.3,1.8-0.6-0.1-1
						c-1.9-0.3-4.2-0.6-3-1c4.9,0.1,7.4,1.2,14.7,1.3c0,0.9-14.4,0.9-0.8,2.2l1.9-0.3c-1.4,0-3.4,0-5.3-0.2
						c-3.9-0.7,2.4-0.4,3.3-0.6c2.4,0.1,4.9,0.5,7.3,0.7l7.3,0.8c1,1-7.7,0-8.7,0.1c11.6,0.6,25.6,1.5,36.1,4.1l-0.9-0.5
						c6.7,1.8,8.7,1.8,10.4,1.8c1.7,0,3,0.1,8.2,2.1c5.7,1.2-1.8-1.4,6.7,0.6c2.4,0.7,0.9,0.6,0.4,0.6c4.9,1.6,6.2,1.8,7.3,1.9
						c0.6,0.1,1.1,0.2,2,0.4c0.9,0.3,2.2,0.7,4.6,1.5c0.1-0.3,0.2-0.7,0.4-1.1c-0.2,0.2-0.4,0.4-0.7,0.6l-1.3-0.9l1,0.4
						c0.4-1.3,0.8-2.7,1.3-4l1.4-4.2c0.9-2.8,1.8-5.5,2.7-8.3c1.7-5.4,3.3-10.7,4.3-15.6c-0.9,0.4-2.3,6.6-3.4,8.9
						c2.3-6.6,4.3-14.7,6.1-22.7c0.9-4,1.9-8,2.8-11.7c0.5-1.9,0.9-3.7,1.4-5.4c0.5-1.8,0.9-3.2,1.5-5.3c-0.1,1.2,0,1.3,0.3,1
						c0.3-0.3,0.6-1.1,1-1.8c0.3-0.7,0.7-1.2,0.7-0.9c0,0.2,0,0.6-0.1,1.4c-0.1,0.4-0.1,0.9-0.2,1.4c-0.1,0.5-0.2,1.1-0.3,1.8
						c-1.4,1.8-1.7,5.7-2.8,10c1.2-2.2,2.3-6.1,3.3-10.5c0.8-3.6,1.6-7.2,2.3-10.6c0.4-1.7,0.7-3.3,1-4.9c0.2-0.8,0.3-1.6,0.5-2.3
						c0.1-0.7,0.4-1.6,0.2-1.8c-5.9,3.5-10,5.7-10.9,5.5l-2.8,2.3c-0.7,0.3-1.6,0.7-2.6,1.1l-0.7,0.3l-0.2,0.1l-0.1,0l-0.1,0
						l-0.2,0.1c-0.3,0.1-0.6,0.2-0.9,0.3c-1,0.3-1.5,0.2,0-0.6c-4.1,2.1-8.4,4-12.6,5.8c2.4-0.6,6.1-1.6,9.5-2.8
						c1.7-0.6,3.3-1.2,4.8-1.9c1.9-0.9,3.4-1.7,4.5-2.5c2.5-0.9,0.5,0.3-1.2,1.4c-0.9,0.5-1.8,1-2.1,1.3c-0.4,0.3-0.2,0.4,0.8,0.2
						c-1.2,0.4-2.2,0.8-3.1,1.1c-0.8,0.3-1.4,0.5-1.9,0.8c-1,0.4-1.7,0.8-2.3,1.2c-0.6,0.4-1.3,0.8-2.3,1.4c-1,0.6-2.5,1.2-4.8,2
						c1.9-1.3-0.5-0.7-3.4,0c-2.8,0.7-6.1,1.5-6,1.2c-1.5,0.6-3.9,1.3-6.4,1.8c-1.2,0.3-2.4,0.5-3.5,0.7c-1.1,0.2-2,0.3-2.7,0.3
						c-0.7,0.1-1.5,0.3-2.3,0.5c-0.9,0.2-1.8,0.4-2.9,0.6c-2.1,0.5-4.4,0.9-6.8,1.3c-4.9,0.8-10.3,1.2-14.7,0.9
						c0.8,0.1,1.8,0.2,2.7,0.3c1,0.1,1.9,0.2,2.8,0.3c1.7,0.1,3,0.4,2.8,0.7c-1.1,0-2.2-0.1-3.3,0c-1.1,0-2.1,0-3,0
						c-1.9,0.1-3.3,0.2-3.7,0.6c1,0.2,1.8,0.2,2.6,0.3c0.8,0.1,1.5,0.1,2.1,0.1c1.2,0.1,2.2,0,2.9-0.1c1.4-0.2,2-0.4,2.5-0.7
						c0.5-0.3,1-0.6,2.2-0.9c1.2-0.3,3.2-0.4,6.7-0.8c1.8,0.2,3.7,0.1,6-0.1c1.2-0.1,2.4-0.3,3.9-0.6c0.7-0.1,1.5-0.3,2.3-0.4
						c0.8-0.2,1.6-0.4,2.5-0.6c-3.1,1.4-1.6,1.2-2.8,2.1c-4.6,0.2-10.4,1.3-16.6,2c-6.2,0.8-12.8,1.1-18.7,0
						c-2.4-0.6-2.7-1.1-3.7-1.6c-0.3-0.1-0.5-0.3-0.9-0.4c-0.4-0.2-0.9-0.4-1.5-0.6c-0.6-0.2-1.4-0.4-2.3-0.7c-0.9-0.2-2-0.6-3.3-1
						l2.3,0.5l2.3,0.3l2.3,0.3c0.8,0.1,1.6,0.1,2.3,0.2c-2.6-0.2-4-0.5-4.8-0.7c-0.8-0.2-1-0.3-1.2-0.5c-0.2-0.2-0.3-0.3-0.8-0.6
						c-0.6-0.3-1.6-0.7-3.5-1.4l3,1.5c-5-1.3-6.7-2.2-9.1-3.7c1.2,0.9,2.4,1.7,3.6,2.5c-0.7-0.2-1.4-0.5-2.3-0.8
						c-0.4-0.2-0.8-0.3-1.2-0.5c-0.4-0.2-0.8-0.4-1.1-0.6c-1.5-0.8-2.6-1.5-2.5-1.7c-0.7-0.1-1.1-0.1-1.1,0.1
						c-0.4-0.4-1.4-1.2-4.2-3c1.5,1.1,2.7,1.8,2.6,2.1c-1.3-0.9-2.3-1.5-3.1-2.1c-0.7-0.6-1.3-1-1.7-1.3c-0.8-0.5-1.1-0.6-1.2-0.5
						c-0.1,0.1-0.2,0.2-0.5,0.1c-0.2-0.1-0.5-0.2-0.9-0.5c-0.4-0.3-0.9-0.8-1.6-1.5c0.8,1-1.1-0.3-3.2-2.3c0.3-0.2-0.1-1.1-0.9-2.4
						c-0.4-0.7-0.9-1.4-1.4-2.2c-0.5-0.8-1-1.8-1.6-2.7c-0.5-0.9-1.1-1.9-1.7-2.9c-0.5-1-1-2-1.4-2.9c-0.4-0.9-0.9-1.8-1.2-2.5
						c-0.3-0.8-0.5-1.4-0.7-1.9l0,0.1c-0.7-1.6-1.5-3.2-2-4.8c-0.6-1.6-1.2-3.2-1.7-4.9c0.6,2-0.6,0-1.7-2.8l0.1,0.5
						c-0.5-1.5-0.7-0.5-0.9-0.2c-0.1,0.1-0.3,0-0.6-0.7c-0.3-0.7-0.8-2.1-1-4.5l-0.1-1.3c0-0.4,0-0.9,0-1.3c0-0.9,0-1.7,0.1-2.5
						c-0.1,0.9-0.3,0-0.4-0.4l0.1-1.3c0-0.4,0.1-0.9,0.2-1.3c0.2-0.8,0.3-1.7,0.6-2.5c0.2-3.9,2.4-7.3,5.3-9.8
						c3.1-2.4,6.7-4.2,11.1-6c-1.3,0.5-2.9,1.2-3.9,1.6c-1.1,0.5-1.7,0.6-1,0c1.5-1.1,4.3-1.9,5.7-2.1c-0.2,0-0.3,0-0.5,0
						c2.7-0.7,5.4-1.3,8.2-1.6c0.7-0.1,1.4-0.1,2.1-0.2l1.4-0.1c0.5,0,1-0.1,1.5-0.1c2.1-0.1,4.5,0,6.8,0c0.1-0.3,0.3-0.5,0.4-0.7
						l-0.1-1.2c0,0.2,0,0.5,0,0.9c0,0.1,0,0.2,0,0.3c0,0-0.1,0.1-0.2,0.2c-0.1,0.1-0.2,0.2-0.3,0.4c-1.4-0.1-3-0.1-4.5-0.1
						c-1.5,0-2.9,0-3.9,0.1c-0.5,0-1,0-1.2,0c-0.2,0-0.4,0-0.4-0.1c0,0,0-0.1,0.2-0.2c0.1,0,0.2-0.1,0.4-0.1c0.2,0,0.5-0.1,0.8-0.2
						c1.7-0.6,4.3-0.7,7.3-0.6c0.2-0.1,0.4-0.2,0.6-0.3c0.1,0,0-0.1,0-0.2l0-0.2l0-0.5c-0.1-0.6-0.1-1.3-0.2-1.9
						c-0.1-1.2-0.4-2.4-0.7-3.5c0.3,0.3,1.1,2.5,1.4,3.6c0.2,0.6,0.3,0.9,0.3,0.5c0-0.4,0-1.4-0.6-3.6c-0.2-0.6-1.2-2.9-2.1-4.5
						c-0.8-1.2-1.3-1.9-0.8-0.4c-1.4-3.2-4-7.1-7.8-9.6c-3.7-2.6-8.2-3.7-11.4-4.1c-1,0.1-0.7,0.2-0.1,0.2c0.7,0.1,1.8,0.3,2.3,0.3
						c0.2,0,0.4,0,0.5-0.1c2.2,0.5,2.3,0.8,2.9,1.2c0.3,0.2,0.8,0.4,1.7,0.7c0.4,0.2,1,0.4,1.7,0.7c0.7,0.4,1.5,0.7,2.5,1.2
						c0,0.8-2.7-1-6.6-2.1c-2-0.4-4.2-0.9-6.4-0.8c-2.2,0-4.3,0.2-6.1,0.6c3.8-0.4,7.7-0.3,11.4,0.8c-5.5-0.6-11.3,0.5-17,2.3
						c-1.4,0.4-2.8,1-4.3,1.5c-1.4,0.6-2.8,1.2-4.2,1.8c-1.4,0.7-2.8,1.3-4.2,2l-1.9,1l-0.9,0.5l-0.5,0.2l-0.2,0.1
						c-0.1,0-0.2,0.1-0.2,0c-0.8-0.7-1.7-1.3-2.5-1.9c-1-0.7-1.9-1.3-2.9-1.9c-2-1.2-4-2.2-6.1-3.1c-2.1-0.9-4.2-1.6-6.3-2
						c-2.1-0.4-4.3-0.6-6.3-0.5c2.8-0.4,5.4,0,7.2,0.3c1.8,0.3,2.8,0.5,2.6-0.1c-2.9-0.9-5.1-1.3-6.8-1.5c-0.9-0.1-1.7-0.1-2.4-0.1
						c-0.7,0-1.4,0.1-2.1,0.2c-0.7,0.1-1.4,0.2-2.1,0.4c-0.7,0.2-1.5,0.4-2.4,0.7c-1.7,0.7-3.9,1.6-6.4,3.7c0.3-0.2,0.6-0.4,0.9-0.6
						c-0.7,0.5-1.2,1.2-1.9,1.8c-0.7,0.6-1.2,1.3-1.8,2c-0.6,0.7-1.1,1.4-1.7,2.2c-0.7,0.9-1.2,1.9-1.8,2.9c-0.3,0.5-0.6,1-0.8,1.5
						c-0.3,0.5-0.4,1-0.6,1.4c-0.4,0.9-0.8,1.9-1.1,2.7c-0.5,1.7-0.9,3.1-1,4.1c0.4-0.9,0.8-1.9,1.2-2.9c0.2-0.5,0.3-1.1,0.5-1.6
						c0.2-0.5,0.4-1.1,0.6-1.6c0.7-2.1,1.9-3.9,2.4-3.8l-1.1,2l-0.9,2c-0.6,1.3-1.1,2.7-1.6,4c-0.5,1.3-0.9,2.8-1.4,4.1l-0.3,1.1
						l-0.2,0.5c0.1,0,0.2,0,0.2-0.1c0.3,0,0.6-0.1,0.9,0c-0.1-0.3-0.4-0.3-0.7-0.3c0,0-0.1,0-0.1,0c0,0,0,0,0-0.1l0.1-0.2
						c0.1-0.2,0.2-0.4,0.2-0.7c0.2-0.5,0.3-0.9,0.5-1.4c0.6-1.9,1.3-3.9,2-5.9c0.4-1,0.9-2,1.3-3c0.5-1,1-2,1.5-2.9
						c0.2-0.5,0.6-0.9,0.8-1.3c0.3-0.4,0.5-0.7,0.8-1.1c0.5-0.7,1.1-1.2,1.5-1.8c1.4-1.6-0.1-0.1-1.7,1.7c-0.4,0.5-0.8,1-1.2,1.5
						c-0.4,0.5-0.7,1.1-1.1,1.5c-0.6,0.9-1,1.3-0.9,0.7c0.6-1,1-2,1.6-2.8c0.3-0.4,0.5-0.7,0.8-1.1c0.2-0.3,0.4-0.6,0.7-0.9
						c0.5-0.6,1-1.1,1.4-1.6c0.5-0.5,1-0.9,1.5-1.3c0.2-0.2,0.5-0.4,0.7-0.6c0.2-0.2,0.5-0.3,0.7-0.5c0.5-0.3,0.9-0.6,1.4-0.9
						c1-0.4,1.8-0.9,2.6-1.2c3.4-1.1,6.1-1.1,9.4-0.5c2,0.6,0.5,0.5-1.7,0.7c-0.6,0.1-1.2,0.1-1.8,0.2c-0.6,0.1-1.2,0.3-1.8,0.4
						c-1.1,0.3-2.2,0.6-2.7,0.9c-1.8,0.4-3.7,1.4-5.5,2.7c-0.4,0.4-0.9,0.7-1.4,1.1c-0.4,0.4-0.8,0.8-1.3,1.3
						c-0.4,0.4-0.8,0.9-1.2,1.4c-0.4,0.5-0.9,1.1-1.2,1.6c-0.7,1.2-1.6,2.5-2.2,3.8c-0.3,0.7-0.7,1.4-1,2.1
						c-0.3,0.7-0.5,1.4-0.8,2.2c-0.6,1.4-1,3-1.5,4.5l-0.2,0.6c0,0.2-0.2,0.5,0,0.3c0.2-0.1,0.5-0.2,0.7-0.3
						c0.2-0.1,0.5-0.1,0.7-0.2c0.2,0,0.5-0.1,0.7,0c2-1,4.1-2,6.1-2.7c1.5-0.6,2.9-1.1,4.2-1.3l0.9-0.2l0.9-0.1
						c0.6-0.1,1.2-0.1,1.8-0.1c0.8,0.2,1.4,0.5,1.9,0.7c0.5,0.3,0.9,0.6,1.2,0.8c0.3,0.3,0.5,0.6,0.8,0.8c0.2,0.3,0.5,0.5,0.7,0.8
						c0.2,0.3,0.5,0.6,0.8,1c0.3,0.4,0.6,0.8,1,1.3c0.7,1.1,1.7,2.5,2.8,5c-0.3-1-0.5-2.1-0.9-3.1c1.4,1.9,2,3.5,2.4,4.6
						c-0.4-2.4-1.3-4.8-2.7-6.9c-1.3-2.1-3.3-3.8-5.4-4.7c1.7,0.2,3.8,1.2,5.4,2.9c1.7,1.7,2.9,4.1,3.7,6.6
						c1.5,5.1,1.5,10.7,1.4,15.6c0.1-0.3,0.1-1.2,0.2-2.3c0-1,0-2.2,0.1-2.7c0.8,7.3,0,14.8-1.3,21.8c-0.7,3.5-1.3,6.8-2.1,10
						c-0.7,3.2-1.4,6.1-2.2,8.8c-0.4,2.3,0.4,0.2,1.1-2.3c0.7-2.5,1.4-5.4,1.6-4.2c-0.6,2.9-1.3,6-2,8.5c-0.4,1.2-0.8,2.3-1.1,3.2
						c-0.4,0.9-0.8,1.5-1.1,1.8c0.5-0.5,0.4,0.1,0.1,1c-0.3,0.9-1,2.2-1.5,3.2c-0.6,1-1,1.8-0.9,1.7c0.1-0.1,0.9-0.9,2.4-3.4
						c-0.3,0.6-0.6,1.2-0.9,1.8c-0.3,0.6-0.7,1.2-1,1.8c-0.6,1.2-1.5,2.3-2.2,3.5c-1.6,2.2-3.4,4.4-5.5,6.3c-1,1-2.1,1.9-3.2,2.8
						c-1.1,0.8-2.2,1.7-3.4,2.5c-2.3,1.6-4.9,3-7.4,4.2c-5.1,2.4-10.6,4.2-16,5.4c-5.5,1.2-11,1.9-16.3,2.3c1.1,0.2,1.1,0.5,0.2,0.8
						c3.7-0.4,8.2-1,12.2-1.7c2-0.4,4-0.7,5.7-1c1.7-0.4,3.1-0.6,4.2-0.7c-1.1,0.5-2.4,0.9-3.7,1.3c-1.3,0.3-2.6,0.5-3.8,0.7
						c-1.2,0.2-2.3,0.3-3.2,0.4c-0.9,0.1-1.6,0.2-1.9,0.4c2.5-0.1,7.3-1.3,7.5-0.8c-6.1,2.2-9.8,1.8-14.2,2.3l2.4-0.6
						c-6.9,0.6-8.9,0.1-10.9-0.1c-2-0.3-4.1-0.2-11.4,0c-5.3,0.7,0,0.6,0.1,1.4c-1.7-0.1-5.4-0.1-9.1-0.1c-3.7-0.1-7.4-0.3-9.1-0.9
						c3,0.2,5.9,0.4,8.9,0.5c-6.2-0.5-12.1-1-16.3-1.8c0.4,0.2,0.8,0.5,2.1,0.7c-4.9-0.8-11.2-1.5-13.6-2.5l-1.5,0.7
						c1.5,0,4.4,0.3,7.1,0.7c2.7,0.4,5.3,0.7,6,1.1c-0.9,0.7-9.7-0.9-13.6-1.5c8.5,1.4,12.8,2.3,16.8,3c4,0.7,7.7,1.2,15,1.2
						l-2.5-0.4c9.1-0.3,18.5,0.7,26.6-0.2c-2.2,0.4-2.7,0.8-1.6,0.8c8.8-1.2,17.6-2.8,26.4-5.9c4.4-1.6,8.7-3.5,12.9-6.1
						c4.1-2.6,8.2-5.7,11.6-9.6c1.6-1.3,3.2-2.8,4.7-4.3l-0.3-0.7c1.4-2.1,2.1-3.4,2.6-4c0.5-0.6,0.7-0.7,0.8-0.7
						c0.3,0,0.4,0.5,1.9-2.5c-1.1,2.3-1,1.8-1.4,2.2c3.1-5.2,3.3-7,3.4-8c0.1-1-0.1-1.4,0.9-4.6c-0.4,0.7-0.8,1.8-1.2,3.1
						c-0.5,1.2-1,2.5-1.4,3.6c-1,2.2-1.8,3.7-1.7,2.1c1.4-2.6,2.6-5.7,3.5-8.9c0.2-0.8,0.4-1.6,0.6-2.4c0.2-0.8,0.4-1.6,0.6-2.4
						c0.3-1.6,0.6-3.2,1-4.6c0.6-3,1.1-5.7,1.6-7.7c0.4-2.1,0.9-3.5,1.3-3.8c0.2-2.3,0.3-4.7,0.4-7.1c0-2.4,0.2-4.9,0-7.4
						c-0.2-5-0.6-10.3-2.4-15.5c-0.9-2.6-2.2-5.2-4.1-7.4c-1.9-2.3-4.7-4-7.6-4.8c-1.4-0.4-2.9-0.6-4.3-0.7c-0.7,0-1.4,0-2,0
						c-0.2,0-0.5,0-0.7,0.1c-0.9,0.1-1.7,0.3-2.4,0.6c-0.2,0.1-0.5,0.2-0.7,0.3c-0.2,0.1-0.5,0.4-0.3,0c0.2-0.5,0.3-1,0.5-1.4
						c-0.1-0.7-0.6,0.8-0.8,0.7c0.3-0.5,0.6-0.9,0.8-1.4c0.3-0.4,0.5-0.9,0.7-1.3c0.1-0.2,0.2-0.4,0.4-0.7c0.1-0.3,0.2-0.4,0.4-0.7
						c0.6-1,1.3-1.8,2-2.7c1.4-1.6,3-2.7,4.2-3.3c0.6-0.3,1.1-0.5,1.5-0.6c0.4-0.1,0.6-0.1,0.7,0c0.3-0.1,0.6-0.3,0.9-0.4
						c0.3-0.1,0.5-0.2,0.8-0.3c0.5-0.2,0.9-0.4,1.3-0.5c0.7-0.3,1.2-0.6,1.6-0.6c4,0.3,8.8,1.8,13.5,4.3c-1.1-0.6-2.3-1.3-3.5-1.8
						l0.4,0c1.7,0.8,3.3,1.7,4.9,2.7l-0.2-0.1c1,0.6,2,1.2,3,1.8l1,0.7c0.4,0.3,0.8,0.6,1.2,0.9c0.8,0.6,1.6,1.2,2.4,1.9
						c1.9-0.9,3.8-2,5.7-3l0.4-0.2l0.3-0.1l0.5-0.2l1-0.5l2-1c1.4-0.6,2.7-1.2,4.1-1.7c1.4-0.5,2.8-1,4.1-1.4
						c2.8-0.8,5.5-1.3,8.1-1.5c2.6-0.1,5,0.1,7.1,0.8c-0.7-0.2-1.3-0.4-1.6-0.5c-0.4-0.1-0.6-0.2-0.7-0.3c-0.2-0.1,0.1-0.2,0.6-0.3
						c0.8-0.1,2.1,0,0.6-0.5c0.6,0.3,1.3,0.5,1.9,0.8c0.3,0.2,0.7,0.3,1.1,0.5c0.4,0.2,0.7,0.4,1.1,0.6c1.5,0.9,3,2,4.4,3.5
						c0.3,0.4,0.7,0.8,1,1.2c0.3,0.5,0.7,0.9,0.9,1.4c0.3,0.5,0.6,1,0.9,1.5c0.3,0.5,0.6,1.2,0.6,1.3c0.2,0.4,0.3,0.9,0.4,1.3
						c0.1,0.2,0.1,0.4,0.2,0.7l0.1,0.3c0,0.1-0.1,0.1-0.1,0.1l-0.2,0c-0.3,0-0.6,0-1,0.1l-0.5,0.1l-0.6,0.1c0.1,0.3-0.4,0.6,0.4,0.7
						l-0.5,0l-1,0.1c-0.6,0-1.3,0.1-1.9,0.2c-1.3,0.1-2.6,0.3-3.9,0.5c0.4,0,0.7,0.1,1.1,0.1c-3.4,0.8-6.9,1.8-10.2,3.3
						c-3.4,1.4-6.6,3.3-9.4,5.8c-2.8,2.4-4.9,5.5-6.2,8.6c-0.2,0.4-0.3,0.8-0.5,1.1c-0.1,0.4-0.2,0.8-0.3,1.1
						c-0.2,0.8-0.4,1.5-0.6,2.2c-0.1,0.7-0.2,1.4-0.3,2.1c-0.1,0.7-0.1,1.3-0.1,2c0.3-3.1,0.8-4.6,1.2-5.4c0.4-0.8,0.6-0.9,0.9-1.1
						c-1.6,5.2-1.6,10.5-0.7,15.5c0.9,5.1,2.6,10.1,4.8,15.4c-0.2-0.6-0.3-1-0.2-1.1c0.6,1.4,1.4,2.8,2.1,4.4c0.3,0.8,0.7,1.5,1,2.3
						c0.4,0.7,0.7,1.4,1.1,2.1l0.8,0c0.3,0.6,0.7,1.3,1.1,2c0.2,0.3,0.4,0.7,0.6,1c0.2,0.3,0.4,0.7,0.7,1c0.9,1.4,1.9,2.8,2.9,4.3
						c1.1,1.4,2.3,2.8,3.4,4.2c0.5,0.7,1.2,1.4,1.8,2c0.6,0.7,1.2,1.3,1.8,2c0.3,0.2,0.7,0.5,1.2,1c0.5,0.4,1.2,0.9,1.9,1.5
						c0.7,0.6,1.5,1.3,2.4,2c0.9,0.7,1.9,1.4,2.9,2.1c2,1.5,4.4,2.8,6.7,4c1.2,0.6,2.3,1,3.4,1.5c1.1,0.5,2.2,0.9,3.2,1.1
						c1.5,0.5-0.1-0.1-1-0.6c-0.9-0.6-1.1-0.8,3.1,0.5c0.2,0.4,1,0.9,2.1,1.3c1.1,0.3,2.5,0.6,3.8,0.9c1.4,0.3,2.7,0.5,3.8,0.8
						c1,0.3,1.8,0.6,1.9,1c1.3,0.1,2.6,0,3.9,0c1.3,0,2.6,0,3.8-0.1l1.7,0.8c0.8-0.2,1.6-0.3,2.3-0.4c0.7-0.1,1.4-0.2,2.1-0.2
						c1.4-0.1,2.7,0,4.1,0c1.4,0,3,0,4.7-0.1c1.8-0.2,3.8-0.4,6.1-0.9c-0.5-0.1-1.5,0-1.1-0.2c1.5-0.2,4.1-0.6,5.5-0.8
						c1.5-0.2,1.9-0.2-0.8,0.6c1.3-0.2,3.2-0.7,5.4-1.2c2.2-0.5,4.5-1.1,6.4-1.7c3.8-1.2,6-2,2.2-1.2c0.3,0.1-1.2,0.6-3.2,1.2
						c-2,0.5-4.5,1-6,1.3c0.3-0.7,7.6-2.4,9.2-3.7c0.3,0,1.2-0.2,2-0.3l0.9-0.7c4.6-1.1,9.1-2.7,13.2-4.3c2.1-0.8,4-1.6,5.9-2.3
						c0.9-0.4,1.8-0.7,2.7-1c0.1,0,0.3-0.1,0.3-0.1l0.1,0c0.1,0,0.1,0,0.1,0c0.1,0,0.2,0,0.3,0.1c0-0.2,0.4-0.6,1.1-0.9l-0.6,1.2
						l0.4-0.2c0.1,0,0,0,0,0l0,0.1l-0.1,0.2c0.6-0.6,1.2-1.5,1.9-2.7c-0.1,0.7-0.4,1.5-0.6,2.3c-0.1,0.4-0.3,0.7-0.4,1
						c-0.1,0.1-0.1,0.3-0.2,0.4c-0.2,0.5-0.3,1-0.5,1.5c-1.3,4.1-2.7,8-3.8,12.3c0.8,2.5-4.5,16.6-5.1,24.4l2-6.6
						c-1.8,7.1-2.7,11.3-3.5,15.4c-0.4,2-0.9,4-1.4,6.4c-0.3,1.2-0.6,2.4-0.9,3.8c-0.2,0.7-0.4,1.4-0.6,2.1
						c-0.1,0.4-0.2,0.8-0.3,1.2l-0.1,0.3c0,0.1,0,0.1,0,0.1l-0.1,0.2l0-0.2c0-0.1,0,0,0-0.3c0.1-0.3,0.1-0.7,0.2-1
						c0.1-0.6,0.2-1.2,0.4-1.8c0.2-1.1,0.4-2.1,0.6-3.1c0.4-1.9,0.7-3.5,1.1-5.2c0.7-3.5,1.5-7.7,2.9-16.1
						c-1.3,6.3-2.7,11.9-4.1,17.3c-0.7,2.7-1.4,5.3-2.1,7.9l-0.5,1.9c0,0,0,0,0,0c0,0,0,0,0,0c0,0,0,0,0,0l0,0l-0.6-0.2
						c-0.5-0.1-0.9-0.2-1.4-0.3c-0.9-0.2-1.9-0.4-2.8-0.7c0.9,0.6,4.7,1.9,0.9,1.2c-0.7-0.4-1.9-0.8-3.4-1.3
						c-1.4-0.4-3.1-0.8-4.6-1.2c-3-0.7-5.3-1.3-4-1.5c-2.4-0.4-3.9-0.5-5.1-0.6c-1.2,0-2.2,0-3.7-0.2l-8-2.2l-2-0.5l-2-0.5l-4-0.9
						l0.5,0.2c-7-0.8-13.7-1.4-20.3-2.3c-6.6-0.6-13.1-1.5-19.7-2c-13.1-1.2-26.2-1.9-40.3-0.7l0.6,0.4c-2.4-0.1-4.7-0.1-7.1-0.2
						c5.5,0.1-2.4,0.7-2.7,1.2c-3,0-6,0.2-9,0.3l-4.5,0.2l-4.5,0.3C202,198,203.2,198.8,207.6,198z M366.1,145.9l-0.9,0.4
						c-0.2,0.2-0.4,0.2-0.6,0.3l0.6-0.3C365.6,146,366.4,145.2,366.1,145.9z M211.7,100.4c-0.2,1-0.2,0.3-0.2-0.9
						c0.1-1.2,0-2.8,0-3.6c0.1,2.4,0,4.7-0.1,7.1C211.5,104,211.6,101.5,211.7,100.4z M370.2,137.6l3.2-2.4l1.9-0.7
						c0.1,0.1,0.1,0.1,0.2,0.2l-0.2,0.7l0.1-0.5l-0.3,0C373.5,135.8,371.8,136.7,370.2,137.6z M361.9,190.7l1.7-5.7l0,0.5l-1.7,5.7
						L361.9,190.7z M316.6,203.3c0.4,0.1,0.7,0.2,1.1,0.3C317.4,203.5,317,203.4,316.6,203.3c-4.5-1.3-6.5-0.5-10.1-2.1
						C311.3,201.1,314.1,202.4,316.6,203.3z M366.5,152.1c0.3-1,0.5-1.7,0.7-2.3c0.1-0.3,0.2-0.6,0.2-1c0-0.1,0.1-0.3,0.1-0.4
						c-0.1,0.1-0.1,0.1-0.2,0.2c0,0-0.1,0.1-0.1,0.1c0,0-0.1,0.1-0.1,0.2c-0.2,0.4-0.4,0.9-0.6,1.3c-0.4,0.7-0.6,0.9-0.3-0.5
						c0.1-0.2,0.2-0.5,0.4-0.9c0-0.1,0-0.1,0.1-0.1l0.1-0.1c0-0.1,0.1-0.1,0.1-0.2c0.1-0.3,0.3-0.6,0.5-1c0.3-0.7,0.7-1.6,1.1-1.9
						c-0.4,0.8-0.5,1.3-0.6,1.8c-0.1,0.5-0.1,1-0.1,1.4c0,0.1-0.1,0.7-0.2,1.1c-0.1,0.4-0.1,0.8-0.2,1.1
						C367,151.4,366.8,151.8,366.5,152.1z M255.5,142.8l1.2,1.1c-0.6-0.7-1.3-1.4-1.9-2.2l-1.7-2.3l1.2,1.8c0.2,0.3,0.4,0.6,0.6,0.9
						L255.5,142.8z M241.4,120.5c-0.2-0.8-0.5-1.8-0.9-3.1c-0.2-0.6-0.5-1.2-0.7-1.9c-0.2-0.7-0.5-1.4-0.7-2.1
						c-0.2-0.7-0.5-1.5-0.7-2.3c-0.2-0.8-0.4-1.6-0.6-2.3c-0.5-1.5-0.7-3.1-0.9-4.5c-0.4-0.7-0.6,0.4-0.4,2.6
						c0.2,2.1,0.9,5.2,2.1,8.3c0.2,1,0.5,1.7,0.8,2.2c0.2,0.6,0.4,1,0.6,1.3c0.3,0.6,0.5,0.8,0.7,0.8
						C240.9,119.5,241,119,241.4,120.5z M356.8,197l0.8-1.4l-0.3,1.4l1.7-5.7c-1.1,7.7-3.7,12.8-4.8,16.6
						C355.1,204.6,358.5,195.7,356.8,197z M256.8,73.1c2.8-0.7,6.7-1.3,9.8-1.5c0.4,0,0.8,0,1.1-0.1c0.3,0,0.6,0,0.8,0
						c0.5,0,1,0,1.4,0.1c0.8,0.1,1.3,0.2,1.2,0.3c-0.1-0.2-0.6-0.4-1.3-0.5c-0.7-0.1-1.4-0.2-2.4-0.2c-2.3,0-5,0.5-6.2,0.8
						c-0.7,0.2-1.3,0.4-2,0.5C258.6,72.7,257.8,72.9,256.8,73.1z M257.1,74.9c-3.8,1.1-5.9,1.9-7.7,2.6c-0.5,0.2-0.9,0.4-1.4,0.6
						c-0.4,0.2-0.9,0.4-1.4,0.7c-1,0.5-2.1,1.1-3.4,2.1c3-3.1,5.6-4.1,7-4.6c1.5-0.4,1.9-0.1,1.6,0.3c2.6-1,3.6-1.4,4.3-1.8
						c0.7-0.4,1.1-0.7,2.5-1.2C258.2,74.1,257.6,74.5,257.1,74.9z M248.2,76c-1,0.6-1.9,1.4-2.9,2.1c-1.5,1.5-2.2,2.6-3.1,3.8
						c-0.2,0.3-0.5,0.6-0.7,0.9c-0.2,0.3-0.5,0.7-0.8,1.1c-0.3,0.4-0.7,0.8-1,1.2c-0.4,0.5-0.8,1-1.3,1.6c1.6-3.4,4.1-6.3,6.9-8.6
						C246,77.5,246.9,76.7,248.2,76z M246.4,56.6c1-0.2,2-0.2,3-0.2c-0.7,0.1-1.3,0.2-1.7,0.2c-0.4,0.1-0.7,0.1-1,0.1
						C246.3,56.8,246.3,56.7,246.4,56.6c-0.8,0.1-1.7,0.2-2.5,0.4c3.2-1,4-1.2,3.9-1.1C247.7,56,246.7,56.4,246.4,56.6z M264.1,70.7
						c-3.2,0.6-6.4,1.3-9.5,2.5c0.4,0.1,1.9-0.4,3.9-1C260.3,71.6,262.5,71.1,264.1,70.7z M248.2,55.3c1.8-0.4,5.1-0.8,7.8-0.5
						c0.3,0,0.6,0,1,0.1c0.3,0,0.6,0.1,0.9,0.1c0.5,0.1,1,0.2,1.4,0.3c0.7,0.2,1,0.3,0.7,0.2c-0.5,0.1-2.7-0.4-5.2-0.5
						C252.1,54.9,249.4,55.3,248.2,55.3z M180.3,164.3c0.9-0.4,1.7-1,2.6-1.5c0.9-0.5,1.7-1.1,2.5-1.6c-0.7,0.7-1.3,1.5-2,2.2
						C182.3,163.7,181.3,164.1,180.3,164.3z M209,104.7l0.2,1.5c-0.1,1.1-0.2,2.3-0.3,3.4C209,108,209,106.3,209,104.7z M184.3,66.4
						c0.1,0.2,0.4,0.1,0.8-0.4c0.4-0.8,0.9-1.4,1.2-1.6c-0.4,0.6-0.9,1.2-1.2,1.6c-0.3,0.5-0.6,1.1-0.9,1.7
						c-0.3,0.6-0.5,1.2-0.7,1.8c-0.5,1.2-0.7,2.3-0.7,2.8c0.8-1.3,1.7-4.2,2.6-5.3c-0.1,0.5-0.3,1-0.5,1.7c-0.2,0.6-0.5,1.3-0.8,2.1
						c-0.2,0.4-0.3,0.8-0.5,1.2c-0.1,0.3-0.5,1.1-0.1,0.7c0.6-0.3,1.2-0.5,1.8-0.7c1.1-0.4,2.2-0.7,2.9-1c0.7-0.3,0.8-0.6,0.6-1.1
						c0.3,0,0.9-0.1,1.6-0.1c0.4,0,0.8,0,1.2,0c0.3,0,0.6,0,0.8,0c0.3,0,0.6,0.1,0.9,0.1c2.2,0.3,3.6,0.9,2.1,0.8
						c-1.6-0.3-3.7-0.2-5.3,0.1c-1.7,0.3-3.5,0.9-5.3,1.7c-0.5,0.2-1,0.5-1.5,0.7l-0.8,0.4l-0.4,0.2l-0.1,0.1c0,0,0-0.1,0-0.1l0-0.2
						c0.3-1,0.5-1.9,0.7-2.8c0.3-0.9,0.6-1.7,0.8-2.5C183.8,67.6,184.1,67,184.3,66.4c0-0.2,0.1-0.7,0.6-1.7
						C184.8,65,184.5,65.6,184.3,66.4z M260.2,53.2c1.2,0.3,2,0.7,2.5,1c0.6,0.2,0.9,0.5,1.1,0.6c1.8,1.1,2.8,2.3,2.1,2.2
						c-1.9-1.5-2.3-1.7-2.2-1.9c0.1-0.1,0.6,0,0.1-0.3c-0.5-0.4-1.1-0.6-1.7-0.9C261.5,53.6,260.8,53.4,260.2,53.2z M272,62.4
						c-1.2-2.4-2.9-4.6-4.9-6.4c0.5,0.5,1,1,1.4,1.5c0.5,0.5,0.8,1.1,1.2,1.6c-2.3-3.3-5.9-5.8-9.9-7.2c1.8,0.4,3.6,1,5.2,1.9
						c1.6,0.9,3,2.1,4,3.3C271.2,59.6,272,61.8,272,62.4z M273.7,64.8c0.1,0.6,0.1,1.2,0.1,1.7c-0.1-0.8-0.3-1.7-0.5-2.6
						C273.5,64.2,273.6,64.5,273.7,64.8l-0.1-0.4c0.7,1.6,1.2,3.2,1.6,4.8c0.2,0.8,0.3,1.6,0.5,2.4c0.1,0.4,0.1,0.8,0.2,1.2l0,0.1
						c0,0,0,0.1,0,0.1l-0.2,0c-0.2,0-0.3,0.1-0.5,0.1c-1.7,0-3.4,0-5,0.1c1.6-0.1,3.3-0.2,5-0.2c0.2,0,0.3-0.1,0.5-0.1
						c0.1,0,0.4,0,0.3-0.3c0-0.4-0.1-0.8-0.2-1.1c-0.1-0.8-0.3-1.5-0.4-2.3C274.9,67.8,274.4,66.3,273.7,64.8z M283.2,156
						c2.6-0.2-0.1-1.4-3.7-2.7c-0.9-0.4-1.8-0.8-2.7-1.2c-0.9-0.4-1.8-0.8-2.6-1.3c-1.6-0.9-2.8-1.7-3.3-2.2
						c-0.4,0.2-1.7-0.2-1.7,0.2c0.1,0.2,0.4,0.7,1.6,1.4c0.6,0.3,1.3,0.8,2.3,1.3c0.5,0.3,1,0.6,1.6,0.8c0.6,0.3,1.3,0.5,2,0.8
						c-2.7-0.8-4.3-1.8-5.4-2.4c-0.6-0.3-1-0.6-1.3-0.8c-0.3-0.2-0.6-0.5-0.8-0.7c-0.4-0.4-0.8-0.7-1.4-1c-0.3-0.2-0.7-0.3-1.2-0.6
						c-0.5-0.2-1.2-0.4-1.9-0.8c0.5,0.4,1.1,0.8,1.7,1.1c0.6,0.4,1.2,0.8,1.7,1.1c0.6,0.4,1.1,0.8,1.7,1.1c0.6,0.3,1.1,0.6,1.6,0.9
						c1,0.6,2,1.2,2.7,1.6c0.7,0.4,1.3,0.6,1.5,0.7c-0.5-0.2-1-0.4-1.5-0.6l-1.4-0.7l-2.9-1.4c0.7,0.7,1.6,1.3,2.6,1.8
						c0.5,0.3,1.1,0.5,1.6,0.8c0.6,0.2,1.2,0.4,1.8,0.6c1.2,0.3,2.5,0.8,3.7,1C281,155.2,282.1,155.5,283.2,156z M349.8,148.1
						c2.6-1,5.2-2,7.7-3.1c-1.2,0.5-2.4,1-3.7,1.5c-1.2,0.5-2.4,0.9-3.7,1.4L349.8,148.1z M258.7,201.2c0.3,0.2-2.2,0.5-5.2,0.6
						c-2.9,0.1-6.2,0.2-7.5-0.2c2.7-0.1,5.5-0.2,7.8-0.1C256.2,201.3,258,201.3,258.7,201.2z M171.2,209.2c3.1-0.5,6.1-1.1,9.2-1.5
						c-1.6,1.3-8.2,1.6-12.4,2.7C166.4,210.3,169.8,209.8,171.2,209.2z M113,226.5c-0.9,0.3-1.9,0.6-2.8,0.9
						c1.1-0.1,2.2-0.2,3.3-0.2L113,226.5z M117.3,226.3c-1.6,1.1,4.4-0.9,5.8-1.5L117.3,226.3z M75.9,213.9l1.9,3.4l-0.9-3.5
						L75.9,213.9z M79.8,218.9c-0.1,1.1-1.1,1.2,3.5,8.9c0.8,0-0.4-2.1,1.9,0.4c-1.2-2.7-2.6-4.7-3.4-6c0.8,1.8,2.2,3.8,2.1,4.5
						C82.1,223.9,80.6,220.9,79.8,218.9c0.1-0.4,0-0.9-0.5-2C79.2,217,79.4,217.8,79.8,218.9z M102.2,231.5c1-0.6,2-1,2.3-1.3
						l0.6-0.1C104.1,230.9,103.1,231.2,102.2,231.5c-1.2,0.6-2.5,1.3-3.9,2c-0.7,0.9,5.1-1.2,6.7-1.5c-1.4,0.5-2.7,0.9-4.1,1.4
						c-0.7,0.2-1.4,0.5-2.2,0.9c-0.4,0.2-0.8,0.4-1.2,0.6c-0.2,0.1-0.4,0.2-0.6,0.3c-0.3,0.1-0.5,0.3-0.8,0.4
						c0.6-0.1,0.4,0.1,2.5-0.9c-1.4,0.7-3.7,1.8-5.9,3c-1.8,0.7-2.7,1-2.9,1c-0.1-0.1-0.1-0.2-0.1-0.3c0-0.1,0.1,0,0.2,0
						c0.5-0.4,1.8-1.2,3.3-2.1c0.8-0.5,1.6-0.9,2.5-1.4c0.8-0.4,1.6-0.8,2.4-1.3c0.1-0.2,0.4-0.5,1.4-1.1
						C100.5,232,101.3,231.8,102.2,231.5z M76.6,208.7l1.2,2.7c0.5,1.4-0.1,0.7,0,1.2C76.2,209.6,74.5,205.4,76.6,208.7z
						 M230.6,200.4c-1.9,0.2,2.6,0.7,7,0.4l-2.3,0.9c-0.1-0.3-2.3-0.3-4.6-0.3c-2.3,0-4.8,0.3-5.3,0.2
						C223.8,201,227.3,201.1,230.6,200.4z M372.2,140.5c0.2-0.4,0.5-0.9,0.7-1.6c0.1-0.3,0.2-0.7,0.4-1c0.1-0.2,0.1-0.4,0.2-0.6
						l0-0.1c0,0,0,0,0,0l-0.1,0.1l-0.2,0.1c-1.5,0.8-3.9,2-6,3.1c-2.1,1.1-3.9,1.9-4.8,2.2c1.5-0.8,3.5-1.8,5.5-2.9
						c2-1.1,4.1-2.2,5.7-3.1l0.2-0.1c0.1,0,0.2-0.1,0.1,0c-0.1,0.2-0.1,0.4-0.2,0.6c-0.1,0.4-0.2,0.7-0.3,1
						c-0.2,0.6-0.4,1.2-0.6,1.6C372.6,140.6,372.4,140.9,372.2,140.5z M359.1,145.5c-2.8,1.2-3.6,1.6-3.5,1
						c-1.5,0.4-3.6,1.6-5.1,1.9C355.9,145.7,355.8,146.6,359.1,145.5c0.7-0.3,1.6-0.7,2.6-1.1C360.6,144.9,359.8,145.2,359.1,145.5z
						 M334.4,209.6l-3.8-1.7c-2.1-0.5-4.2-0.9-6.3-1.3C327.8,207.4,331.1,208.5,334.4,209.6z M266.8,198.4c0.3,0.3-1.5,0.2-3.4,0.2
						c-2,0-4.2-0.1-4.9-0.3c0.2,0.3,1.6,0.5,3.3,0.6c0.9,0,1.9,0.1,2.9,0.1c1,0.1,2.1,0.1,3,0.2c0.5,0.1,1.3,0.2,2.6,0.2
						c-0.8-0.1-1.6-0.2-2.6-0.2c-1.5-0.2-0.4-0.5-0.4-0.7l2-0.1c-1.8-0.1-3.6-0.3-5.4-0.4C264.8,198.1,265.8,198.3,266.8,198.4z
						 M147,211.5c-4.1,1.6-4.7,1.6-7.5,2.3c0.4-0.2,1.6-0.7,3-1.1C143.8,212.2,145.5,211.8,147,211.5z M303.1,201.4
						c-3.7-0.4-2.8,0-1.7,0.4c1.2,0.4,2.6,0.9,0.2,0.6c1.3,0.2,2.6,0.4,3.8,0.6c-1.6-0.1-2.6-0.2-3.4-0.4c-0.8-0.1-1.3-0.3-1.7-0.5
						c-0.8-0.3-1.5-0.7-3.7-0.9l3,0.3c2.4-0.3-4.4-1-4.9-1.5c1.7,0.1,4.6,0.5,6.6,0.9C303.4,201.2,304.6,201.6,303.1,201.4z
						 M140.2,213c-6.9,2.7-6,1.2-10.2,2.5C135.3,213.2,134.8,214.5,140.2,213z M256.7,195.8l0.5-0.1c-2-0.1-4-0.4-6-0.4l-0.5,0.1
						C252.7,195.5,254.7,195.7,256.7,195.8z"/>
					<path class="st4" d="M133.3,221.4c-1.7,0.6-2.8,1-3.7,1.2C130.7,222.2,132,221.8,133.3,221.4z"/>
					<path class="st4" d="M341.1,148.1c-0.1,0.2-0.7,0.5-1.5,0.8C339.7,148.8,340.1,148.5,341.1,148.1z"/>
					<path class="st4" d="M327.6,151.6c-0.2,0-0.4,0.1-0.5,0.1c-0.1,0-0.3,0-0.4,0L327.6,151.6z"/>
					<path class="st4" d="M103.5,171.5c-2.9-1.1,2.9,0.2,5.3,0.4C106.5,171.7,105.5,172.1,103.5,171.5z"/>
					<path class="st4" d="M122.6,174.1c-1.4-0.3-3.5-0.5-6-0.7C118.2,173.5,119.9,173.6,122.6,174.1z"/>
					<path class="st4" d="M107,172.8c3.7,0.2,7,0.4,9.6,0.6C114.1,173.3,112,173.5,107,172.8z"/>
					<path class="st4" d="M173.4,166.3c-0.7,0.2-1.6,0.5-2.5,0.8c-0.9,0.3-1.9,0.6-2.7,0.9c-1.7,0.6-3.1,1-3.1,1
						c1.5-0.5,2.6-0.9,3.3-1.2c0.7-0.3,1.1-0.5,1.3-0.6c0.3-0.2-0.4,0-1.6,0.2c-2.2,0.6-6.2,1.5-6.7,1.4c3.8-0.9,5.7-1.4,7.2-1.6
						c0.8-0.1,1.4-0.2,2.2-0.4C171.5,166.8,172.3,166.6,173.4,166.3z"/>
					<path class="st4" d="M187.9,158c-1,0.8-2,1.6-2.8,2.2C186.1,159.5,187,158.7,187.9,158z"/>
					<path class="st4" d="M191.1,154.6c0.8-0.7,1.5-1.3,2-1.9c0.6-0.5,1.1-1,1.5-1.4c0.9-0.8,1.6-1.4,2.4-2.1
						c-0.7,1.1-1.5,2.1-2.2,3c-0.8,0.8-1.5,1.6-2.3,2.2c-0.8,0.6-1.5,1.3-2.3,1.8c-0.8,0.6-1.5,1.2-2.3,1.7
						C190.3,156.1,192.5,153.9,191.1,154.6z"/>
					<path class="st4" d="M194.8,51.6c-0.5,0.2-1.5,0.6-2.3,0.9c-0.8,0.4-1.4,0.7-1.6,0.6c2.5-1.6,5.3-2.6,8.1-3
						c1.7-0.1,1,0-0.3,0.3c-0.7,0.2-1.5,0.3-2.2,0.6C195.8,51.2,195.2,51.4,194.8,51.6z"/>
					<path class="st4" d="M222.5,58.1c0.5,0.3,0.9,0.5,1.2,0.8c0.3,0.2,0.5,0.3,0.6,0.4c0.3,0.2,0.6,0.3,0.7,0.3
						c0.3,0.1,0.3-0.1,0.5,0c0,0.1,0.2-0.1,0.3-0.1c0.1-0.1,0.3-0.1,0.5-0.2c-0.1,0.4-0.1,0.8-0.2,1.2l-0.3,0.1l-0.2,0.1l-0.1,0
						c0,0,0,0-0.1-0.1c-0.5-0.4-0.9-0.8-1.4-1.2l-0.7-0.6L222.5,58.1z"/>
					<path class="st4" d="M217.2,60.7l-1.4-0.8c0.5,0.3,1.1,0.6,1.6,0.9L217.2,60.7z"/>
					<path class="st4" d="M246.7,50.7c-0.7,0-1.5,0-2.2,0c-0.7,0-1.5,0-2.2,0C247.4,49.6,247.7,50.7,246.7,50.7z"/>
					<path class="st4" d="M270.5,55.7c-0.4-0.5-0.9-1-1.4-1.5c-0.5-0.5-1-0.9-1.6-1.4c3.6,2.5,6.2,6,7.9,9.7
						C274.2,60,272.6,57.7,270.5,55.7z"/>
					<path class="st4" d="M264.8,76.3c-0.3,0.1-0.6,0.3-0.8,0.4c-2.3,0.4-4.6,0.9-6.8,1.6C259.6,77.4,262.2,76.8,264.8,76.3z"/>
					<path class="st4" d="M354.5,218.3c-0.5-0.4,0.1-0.4,1.2-0.1c0.2-1,0.4-2.2,0.7-3.6c0.3-1.3,0.7-2.8,1-4.3
						c0.6-2.5,1.2-4.9,1.4-6.2c0.3,1.2-0.3,3.2-0.9,5.5c-0.3,1-0.8,2.7-1.1,4.2c-0.4,1.5-0.7,3.1-0.9,4.7
						C355.4,218.3,355,218.3,354.5,218.3z"/>
					<path class="st4" d="M142.9,218c1.8-0.5,3.6-1,5.4-1.4c1.8-0.5,3.6-1,5.4-1.4c-4.2,1.3-4.7,1.5-5.3,1.6
						C147.8,216.9,147.1,216.9,142.9,218z"/>
				</g>
			</g>
		</g>
	</g>
</g>
<g>
	<path class="st3" d="M492.6,190.1c0,0,91.4-38.4,180.8,12.9c0,0-36.7-61.8-33.2-102c0,0-19.6,46.7-9,61.8c0,0-22.6-59.3-31.2-125.9
		c0,0-44,69.2-50.3,108.9c0,0-6-47.2-5.5-60.8C544.3,84.9,546.9,143.4,492.6,190.1z"/>
	<g>
		<g>
			<g>
				<g>
					<path class="st4" d="M506.9,176.2c-0.3,0.3-0.7,0.7-1.1,1C506.8,176.2,507.2,175.7,506.9,176.2z"/>
					<path class="st4" d="M492.3,189.8c3.9-3.4,9.8-9,13.5-12.5c-0.8,0.9-1.8,2.1-3.1,3.4c-1.2,1.4-2.7,2.8-4,4.1
						C496,187.5,493.2,189.7,492.3,189.8z"/>
					<path class="st4" d="M508.8,176.7l-1.1,1.2l-1.2,1.1l-2.3,2.2c1.2-1.5,1.8-2,2.3-2.4C507.1,178.3,507.7,177.9,508.8,176.7z"/>
					<path class="st4" d="M506.5,177.8l-0.1-0.5c0.9-0.8,1.7-1.5,2.6-2.3C508.2,175.9,507.4,176.8,506.5,177.8z"/>
					<path class="st4" d="M610.7,79.5c0-0.7,0.1-1.1,0.4-0.9L610.7,79.5z"/>
					<path class="st4" d="M612.2,94.4c0.2,1.3,0.5,2.2,0.6,3C612.6,96.5,612.4,95.7,612.2,94.4z"/>
					<path class="st4" d="M607.9,66.4l0.5,2.6C608.2,68.2,608,67.3,607.9,66.4z"/>
					<path class="st4" d="M549.6,131.8c0-2.5,0-4.8,0-6.6C550.4,129.9,549.9,130.4,549.6,131.8z"/>
					<path class="st4" d="M626.1,161.6l0.5,0.5C626.7,162.8,626.7,163.2,626.1,161.6z"/>
					<path class="st4" d="M607.9,99.1c0.2-0.1,0.3,0,0.5,0.2c0,0.3,0.1,0.5,0.1,0.8L607.9,99.1z"/>
					<path class="st4" d="M605.4,56.3c0,0,0-0.1-0.1-0.1l-0.2-2.1C605.4,55.1,605.5,55.8,605.4,56.3z"/>
					<path class="st4" d="M633.1,145.7c0.2-0.8,0.5-1.6,0.9-2.3C633.7,145.2,633.4,146.1,633.1,145.7z"/>
					<path class="st4" d="M612.9,97.7C612.9,97.7,612.9,97.7,612.9,97.7c0-0.1-0.1-0.2-0.1-0.4C612.9,97.5,612.9,97.6,612.9,97.7z"
						/>
					<path class="st4" d="M603.4,77.9c0.2,1.1,0.4,2.2,0.6,3.4C603.6,79.9,603.5,78.7,603.4,77.9z"/>
					<path class="st4" d="M549.6,131.8c0,0.7,0,1.4,0,2.1C549.5,132.9,549.5,132.3,549.6,131.8z"/>
					<path class="st4" d="M517.2,162.4c1.2-1.7,1.6-2,2-2.2C518.5,161.1,517.8,161.8,517.2,162.4z"/>
					<path class="st4" d="M498,190.3l-0.8,0.3C497.6,190.4,497.8,190.3,498,190.3z"/>
					<path class="st4" d="M575.4,179.3c0.4,0.1,0.8,0.2,1,0.3C575.8,179.6,575.4,179.5,575.4,179.3z"/>
					<path class="st4" d="M648.7,185.8c-2.6-0.7-5-1.8-7.4-2.8c-2.4-1-4.8-2-7-2.7l1.4,0.9c-1.4-0.6-2.9-1.2-4.4-1.7l-0.1,0.6
						c-1.8-0.6-3.8-1.1-5.8-1.7c-2-0.5-3.9-0.9-5.7-1.3c-3.6-0.9-6.6-1.5-7.9-2.2l0.7,1.1l-3.9-1.1l-4-1c1.5,0.4,3,0.8,4.5,1.3
						c-2.3-0.4-4.8-0.7-7.4-1.2c-2.6-0.4-5.2-0.7-7.6-1.1c-2.4-0.4-4.6-0.5-6.3-0.8c-1.7-0.2-2.9-0.3-3.4-0.4
						c0.3,0.1,0.5,0.3,0.8,0.4c-1.5,0.1-2.7-0.2-4.2-0.4l1.2,0.6c-1.7-0.1-3.3-0.2-4.7-0.2c-1.5,0-2.8,0-4.1,0
						c-1.3,0-2.5,0.1-3.6,0.1c-1.2,0.1-2.3,0.2-3.4,0.2c-1.1,0.1-2.3,0.1-3.5,0.2c-1.2,0.1-2.5,0.2-3.8,0.3
						c-2.7,0.1-5.8,0.4-9.6,0.5c-2.1,0.3-1.5,0.3-0.4,0.2c1.1,0,2.8-0.1,2.8,0.1c-2.2,0.5-7.6,0.8-8.8,0.7c1.3,0.7,7.7-0.3,2.9,0.9
						c-3.5,0,2.4,0.5-3.6,1l-2.5-0.7c-3.3,0.6-0.6,0.8-5.9,1.6c-6.1,0.5,7.2-2.3-2.6-0.9c-4.9,1-9.8,4.1-19.2,5.9
						c-7.8,2.7,4.6,0.3-6.4,3.2c2.4-0.5,4.8-0.9,7.2-1.3c-1.7,0.8-0.5,0.9-5.2,2c-1.6,0-4.6,0.4-7.2,1.2c5.2-1.2,3-0.3,0.8,0.8
						c-2.2,1.1-4.4,2.2,0.4,1.1c-1.2,0.4-2.3,0.7-3.5,1.1c0.4-0.1,0.6-0.1,0.4,0.1c-1.5,0.5-3,1.1-4.5,1.7c2.8-0.9,9.5-3,6.7-1.3
						c-2.2,0.8-4.3,1.6-6.4,2.5c1.8-0.1-0.3,1,0.3,1.2c1.4-0.5,3.1-1,4.7-1.5c1.6-0.5,3.2-0.9,4.9-1.3c3.3-0.9,6.6-1.6,9.9-2.3
						c-0.9-0.1-3.7,0.4-2.8-0.2c2.6-0.9,3.7-1,4.8-1.1c1.1-0.1,2.1-0.3,4.5-1.1l-2.3,0.1c0.4,0.1,1.1,0,0.1,0.3
						c-1.7,0.7-2.5,0.6-2.6,0.3c0.8-0.5,2.5-1,4.2-1.3c1.7-0.3,3.4-0.5,4.2-0.4c6.5-1.4,1.1-1.3,2.5-1.7c3.5,0.3,10.9-2,15.1-2
						l-2.7-0.3c4.9-1.4,9.5-1.3,12.5-1.3l-1.2-0.4c3.5-0.2,6.1-0.9,8.6-1.2c2.4-0.3,4.7-0.4,7.4,0.5l-0.8-0.3
						c1.4-0.1,3.3-0.3,5.1-0.3c1.8,0,3.6,0,5,0.3c0.1-0.2,0.6-0.5,1.7-0.5c0.8,0.4,1.9,0.5,3.4,0.5c1.5,0,3.3-0.1,5.5,0
						c-2.8-0.4-1.9-1.2-4.9-1.6c3.3-0.3,4.9,0.1,6.2,0.5c1.4,0.5,2.6,1,5.3,1.3c1.7,0,1-0.2-0.3-0.5c-1.2-0.3-3-0.5-3.4-0.7
						c1.1,0.2,2.2,0.2,3.2,0.3c1.1,0.1,2.2,0.2,3.2,0.2c2.2,0.1,4.3,0.1,6.3,0.3c2,0.1,3.9,0.3,5.7,0.6c1.7,0.3,3.3,0.8,4.5,1.5
						l-3.7-0.1c3.3,1,5.1,1.4,4.7,1.1c-1.1-0.1-1.4-0.4-1.8-0.6c1.3,0.1,2.5,0.3,3.7,0.5c1.2,0.2,2.2,0.5,3.3,0.8
						c2.1,0.6,4,1.2,5.9,1.9c1.9,0.7,3.8,1.5,5.8,2.2c2,0.7,4.2,1.6,6.7,2.3c-0.6-0.6-2-1.1-2-1.4c2.3,0.6,3.3,1.3,4.6,2.2
						c1.3,0.9,3,1.9,6.7,2.9l-1.3-0.9c1.2,0.3,2.3,0.8,2.9,1.2c0.6,0.4,0.9,0.7,0.8,0.7c0.2-0.3,1.2-0.1,2.8,0.5
						c0.8,0.3,1.7,0.6,2.6,1c1,0.4,1.8,0.7,3.5,1.6c2.9,1.4,6.1,3,8.7,4.1c2.6,1.1,4.5,1.9,5,1.6c0.8,0.6,1.9,1.3,3,2.1
						c0.6,0.4,1.2,0.8,1.9,1.2c0.3,0.2,0.7,0.4,1,0.6l0.5,0.3c0.1,0.1,0.1,0.1,0.1,0.1l0.1,0c-1-2.1-2.5-5.1-4.1-8
						c-1.6-2.9-3-5.5-4-6.9c-1.1-1.5-1.5-1.9-1.6-1.7c-0.1,0.1,0.1,0.8,0.3,1.5c0.5,1.4,1,2.9-0.1,1.8c-0.9-1.7-1.3-2.9-1.9-4.5
						c-0.3-0.8-0.7-1.7-1.2-2.7c-0.4-1-1-2-1.6-3.2c0.2-0.1,0.7,0.4,1.2,1.1c0.3,0.3,0.6,0.7,0.9,1.1c0.2,0.2,0.3,0.3,0.5,0.6
						c0.2,0.2,0.3,0.4,0.5,0.6c0.6,0.8,1.1,1.3,1,0.7c-0.1-0.3-0.3-0.9-0.7-1.8c-0.3-0.7-0.6-1.6-1.2-2.8l-1.1-1.1
						c0.5,1,1.3,2.2,1.9,3.6c0,0.1,0.1,0.2,0.1,0.3c0,0.1,0.1,0.2,0.1,0.3c0.1,0.2,0.1,0.3,0.1,0.4c0.1,0.2,0,0.3,0,0.3
						c-0.1,0-0.4-0.5-0.7-0.9c-0.5-0.8-1.2-2-1.4-2.2c-1.6-3.4-3.1-6.8-4.6-10.3c0.5-1.1,3.1,5.1,3.6,5.6c-4-7.9-9.4-17.3-11.7-25.3
						l0,0.9c-1.5-5.1-2.3-6.4-3-7.5c-0.7-1.1-1.3-2-1.8-6.2c-0.7-2.1-0.9-1.6-1-1.5c-0.2,0.2-0.4,0.1-1.3-3.2
						c-0.5-1.8,0.1-0.8,0.3-0.5c-1.7-8.1-1.8-3.3-2.5-10.9c-0.2,0.6-0.4,1.2-0.6,1.8c-0.5-4.3-0.7-8.7-0.6-12.9
						c0.1-4.2,0.4-8.3,0.6-11.9l0.6-11.5l-4.1,10.6c-0.2,0.5-0.3,0.9-0.5,1.4c0.3-0.1,0.6-0.5,1-1.2l4.3-7.3l-1.8,7.9
						c-0.4,1.6-0.6,4.4-1,5.7c0.2-1.8,0.5-3.7,0.7-5.8L642,95l-2.6,5.6c-4.2,9-7.1,20.3-9.6,28.1c0.1-3.1-2.5,4.3-1.5-2.1
						c1.3-1.4,1.5-4.4,2.6-7.7c-1.8,2.3-3.2,8-4,13.4c-0.9,5.3-1.1,10.3-2.1,11c0.2,0.5,0.4,1.1,0.6,1.6c-0.3,1.5-0.9,5.6-1.1,2.8
						c0.1,3.9,0.3,7.9,1.8,11.9c-0.4-2.2-0.5-5.6-0.3-8.5c0.2-3,0.6-5.7,0.3-7c0.6-1.5,0.5-0.4,0.6,0.8c0.1,1.2,0.1,2.4,0.7,1.1
						c-0.8,3.7-0.6,4.9-0.3,6c0.2,0.6,0.3,1.2,0.6,2.1c0.1,0.5,0.2,1,0.3,1.7c0.1,0.7,0.3,1.5,0.5,2.4c-0.4-0.6-0.5-0.7-0.6-0.5
						c-0.1,0.2-0.1,0.7,0,1.4c0.1,1.4,0.9,3.5,1.7,5l8.5,16.6l-4.5-18.7c-0.3-1.1-0.4-1.9-0.2-1.9c-1-2.2-2.4-7.5-2.7-9.6
						c-1.3-4.1-5.2-13.3-6.8-20.1c0.4,2.6,1.3,6.7,0.5,6.6c-0.7-3.4-1.7-7-2.7-7.4c1,6,1.8,6.8,2.5,7.5c0.8,0.6,1.5,1.1,2.7,6.5
						c0,2.9,0.7,5.8,2.3,11.2c-1.3-2.3-1.2-1.1-2.1-1.9c-0.5-7.2-5.5-17.2-7.1-26.2c-0.6-3.8,1.4-1.4-0.8-9.8l2.6,7
						c-2.7-7.7,0-2-1.6-8.5l0.1,2.7c-1.3-3.9-1.5-5.4-1.7-7.8l0,3.6c-0.7-2.1-1.9-6.1-1.3-6.3c-0.4-0.5-0.6-0.6-0.8-0.6
						c0-0.5-0.1-1.5-0.8-4c0.3,1.5,0.6,2.6,0.3,2.7c-2.2-9.7-1.6-2-3-8c0,1-0.7-0.6-1.3-2.8c1.5-0.2-1.1-12.1-0.9-15.5l0,0
						c-0.4-2.7-0.8-5.5-1.1-8.2c0.2,1.7-0.5,0-1.2-2.4l0.1,0.4c-0.7-2.5-1,3.4-2.1-4.5l-0.3-4.2c0.1,0.7-0.3,0.1-0.5-0.3l-0.3-4.3
						c-0.3-0.8-0.6-1.6-0.8-2.3c-0.1-0.4-0.2-0.8-0.3-1.2c-0.1-0.5-0.2-1-0.3-1.5c-0.3-2.1-0.5-4.2-0.7-6.5
						c-0.2-2.3-0.4-4.8-0.7-7.4c-0.2-1.3-0.3-2.6-0.5-3.8c-0.1-0.6-0.2-1.2-0.3-1.8c-0.1-0.3-0.1-0.6-0.2-0.9
						c-0.1-0.2-0.1-0.8-0.3-0.2l0.2-0.3c0,0,0,0,0,0l0,0.1l0,0.1c0,0.2,0.1,0.4,0.1,0.6c0.1,0.4,0.1,0.8,0.2,1.2
						c0.1,0.8,0.2,1.7,0.3,2.4c0.2,1.5,0.1,2.4-0.1,1.9c-0.2-0.8-0.4-2-0.5-3.3c-0.1-0.6-0.1-1.3-0.2-1.9c0,0,0-0.1,0-0.1l0,0.1
						l-0.1,0.1c-0.1,0.1-0.1,0.1-0.2,0.2c-0.1,0.1-0.2,0.2-0.3,0.3l0.2,0l-5.2,7.4c-1.8,2.7-3.7,5.5-5.7,8.6
						c0.6-0.6,2.5-3.4,3.8-5.3c1.3-1.9,2.1-2.9,0.9-0.4c-0.6,1.7-1.6,3.3-2.8,5c-0.6,0.9-1.2,1.8-1.8,2.6c-0.5,0.7-0.9,1.3-1.3,1.9
						c-0.1-0.2,0.4-1.5,0.6-2.1c0.2-0.4,0.2-0.7,0-0.4c-0.1,0.1-0.1,0.2-0.2,0.3c-0.1,0.1-0.2,0.2-0.3,0.3c-0.2,0.3-0.5,0.7-0.8,1.2
						c-0.2,0.6-2.1,4.9-0.8,3.1c-2.9,4.2-6.7,10.5-9.5,14.1c-0.5,1.4,0.7-0.6,1.1-1.2l0.1-0.4c1.7-2.6,1.1,0.1,3.7-5.4
						c1.4,0.2-3.9,7.7-6.2,12.5l4.8-6.9c-2.6,6.6-6.5,13.9-10.4,21.2c-1,1.8-2,3.6-2.9,5.4c-0.9,1.8-1.9,3.6-2.8,5.4
						c-1.9,3.5-3.4,7-4.9,10.2c1.3-3.9,3-6.9,1.9-6.9c-3.9,7.8-3.4,6.8-6.7,14.9l0.3-0.7c-0.3,1.1-0.7,2.3-1.2,3.4
						c-0.4,1.2-0.9,2.4-1.3,3.6c-0.9,2.3-1.7,4.5-1.7,6c1.1-1.7,1.6-6.2,2.7-6l-1.8,5.2c-0.6,1.7-1,3.5-1.6,5.3
						c0.4-0.8,0.8-1.8,1.2-3c0.2-0.6,0.4-1.2,0.6-1.9c0.2-0.6,0.4-1.3,0.7-2c0.9-2.7,1.7-5.5,2.5-7.4c0.5-1.4-0.1,0-0.8,1.5
						c-0.7,1.6-1.5,3.3-1.6,2.5c0.4-1.2,0.8-2.3,1.2-3.3c0.4-1,0.8-1.9,1.1-2.6c0.7-1.6,1.4-2.9,2-4c1.2-2.2,2.4-3.7,3.8-5.8
						c1-1.2,0.7-0.1,0.1,1.5c-0.6,1.6-1.5,3.8-1.8,4.7c-1.7,2.8-3.7,6.3-5.3,10.5c-1.7,4.1-3.1,8.9-4.1,13.9l-0.3,5.6
						c-0.2,0.6-0.5,1.2-0.7,1.6l0.8,0c0.4-3,1.6-2.6,0.5-10.3l-0.3,2.7c-0.5-1.9-0.7-3.2-0.8-4.2c0,3.9,0,8.1-0.1,11.7
						c-1.9-4.9-1.1-14.7-1.7-22.2c-0.1,0.4,0.1,3-0.1,3.9c-1.6-11.2-1.2-23.1-1.5-31.7c-0.8-3.6,0.1,7.2-0.8,5.5
						c0-4.6-1.1-9.7-0.3-10.9c-0.5,1-0.7-1.6-0.7-3.4c0-1.8,0-2.7-0.5,1.7c-0.1-1.1-0.1-2.3-0.1-3.4l1,0c0.2,3.9-0.2,7.9-0.7,11.9
						c-0.5,4-1.3,8-2.3,11.9c-1,3.9-2.2,7.8-3.5,11.6c-1.3,3.8-2.8,7.4-4.4,11c0.6-0.6,0.9-0.5,0.8,0.2c1-2.6,2.3-5.9,3.4-8.8
						c1.1-3,2.2-5.7,2.9-7.1c-0.4,3.8-3.2,8.3-3.3,9.3c0.9-1.7,2-5.3,2.5-5.2c-0.8,4.9-2.6,7.2-3.9,10.3l0.4-1.8
						c-2.2,4.9-3.3,6-4.2,7.3c-0.5,0.6-0.9,1.3-1.5,2.4c-0.3,0.6-0.7,1.3-1.1,2.1c-0.4,0.9-0.9,1.9-1.5,3.2
						c-1.2,3.9,0.5,0.2,1.3,0.5c-0.7,1.1-1.9,3.7-3.2,6.2c-1.4,2.5-2.8,4.9-3.9,5.8c1.2-1.9,2.3-3.9,3.5-5.9c-2.6,4-5,7.8-7.1,10.4
						c0.3-0.2,0.7-0.3,1.3-1.1c-1.2,1.5-2.4,3.3-3.7,4.7c-1.2,1.5-2.3,2.8-3.1,3.4l0,1.4c0.6-1,1.8-2.9,3.1-4.6
						c1.3-1.7,2.4-3.3,3-3.6c0.1,0.5-0.8,2.1-2.1,3.8c-1.3,1.7-2.8,3.7-3.8,4.8c1.1-1.2,2-2.4,2.8-3.4c0.8-1,1.6-1.9,2.2-2.7
						c1.3-1.6,2.4-2.8,3.4-4c1-1.2,1.9-2.4,2.9-3.9c1-1.5,2.1-3.4,3.3-5.9c-0.4,0.5-0.8,1-1.2,1.5c2.9-6.4,7-12.4,9.2-18.2
						c-0.5,1.7-0.3,2.1,0.1,1.4c2.3-6.5,4.3-12.9,6-19.7c1.7-6.8,3-14,3.4-21.8c0.4-1.5,0.8-3.1,1.1-4.7l-0.7-0.3c0-1.1,0-2,0-2.6
						l-4.4,0c-0.1,3.7-1-0.1-0.9,4.2c-0.1-1.9,0.1-1.6,0.3-2c-0.3,4.5,0,5.7,0.2,6.4c0.3,0.7,0.6,1,0.6,3.4c0.3-1.2,0.2-3.6,0.2-5.4
						c0-1.8,0.1-3.1,0.6-2c-0.5,8.8,1.3,22.3-0.2,23.7c1.4,10.3,2.5,22.1,3.6,32.9l2,19.8l4.6-19.7c0.3-1.4,0.7-2.8,1-4.2
						c0.2-0.7,0.3-1.4,0.5-2c0.1-0.7,0.3-1.3,0.5-2c0.8-2.6,1.6-5.1,2.3-7.4c0.3-1.8-0.6,1-0.6,0.3c0.6-1.2,1.3-2.8,1.9-4.6
						c0.6-1.8,1.1-3.8,1.8-5.6c1.2-3.6,2.2-6.6,2.6-6.5c0.7-2.5,0.6-3.7,0.7-4.4c0.9-1.5,1.8-3.1,2.6-4.9c0.9-1.8,1.9-3.7,2.9-5.6
						l-1.6,2.8l0-0.4l2.2-3.9l0,0.2c4.8-9.7,10.4-20.9,16-29c-3.2,4.7-0.2-1.7-1.8,0.4c1.8-1.9,4.1-5.4,6.7-9.5
						c1.3-2.1,2.6-4.3,3.9-6.5c0.3-0.5,0.5-0.9,0.8-1.4c0.2-0.4,0.4-0.8,0.6-1.1c-0.1-0.4,0-1.1-0.3-1c0.5-0.5,0.9-0.8,1.2-0.9
						c0-0.2-0.1-0.4-0.1-0.5c0.3-0.5,0.6-1,0.9-1.4l0.2-0.3c0,0,0,0,0,0l0,0.1l0,0.1l0,0.2l0.1,0.9c0.1,1.3,0.1,2.5,0.1,3.5
						c0,0.5,0,0.9,0,1.3c0,0.2,0,0.4,0,0.5c0,0.1,0,0.1,0,0.3c0,0.3,0.1,0.5,0.1,0.8c0.3,2.1,0.7,4.1,1.1,5.7
						c-0.5-4.1-0.3-4.2,0.1-4.7c0.6,3.6,1.1,7.1,1.8,10.8c0.6,3.7,1.2,7.5,1.9,11.7c0-0.5,0-0.8,0.1-0.8c0.6,2.2,0.8,4.9,1.1,7.1
						l0.7,0.2c0.3,2.2,0.9,4.6,1.5,7.1c0.6,2.5,1.1,5.2,1.5,7.8c0.6,0.9,1.2,4,1.9,7.6c0.7,3.6,1.5,7.6,2.4,10.5
						c0.5,2.2-0.6-5,1.1,1.2c-1.2,1.3,2.2,8,0.9,9l2.2,5.2l-0.4,1.4c2.8,4.1,1.5,7.2,4.2,13.8c0-0.4-0.1-1.2,0.1-0.8
						c0.5,2.2,2.2,7.3,0.5,3.5c1.1,3.6,5.2,16,4,10.2c-0.3,0.6-1.7-4.6-2.3-6.8c0.7,0.1,2.4,5.5,3.5,6.6c0,0.2,0.1,0.9,0.2,1.5
						l0.7,0.6c0.1,0.5,0.2,0.9,0.4,1.4l6.7-3.5c-1-2-1.7-4.7-1.9-7.4c-0.2-2.7,0-5.3,0.7-7.5c-0.2-0.3-0.3-1.5,0.1-3.7l0.9,0
						c0.3-2.3,0.7-4.7,1.2-7c-0.6,1-1.3,2-1.8,3.1c0.6-3.9,1.6-7.2,2.8-10.2c1.2-3,2.4-5.9,3.5-9c-0.4-0.9,0.5-3.5,1.7-6.5
						c1.2-3,2.8-6.6,3.6-9.4l-9.7-2.4c0,0.7,0.1,1.4,0.2,2l0.3-2l8.9,2.2c-0.5,0.9-1,2-1.4,3c0.5-1.1,0.9-2.1,1.3-3l-8.5-2.1
						c-0.1,2.2-0.3,4.1-0.2,5.8c0,0.8,0.1,1.6,0.1,2.4c0.1,0.8,0.1,1.5,0.2,2.2c0.1,0.7,0.1,1.5,0.2,2.3c0.1,0.8,0.2,1.6,0.3,2.5
						c0.1,1.8,0.4,3.7,0.6,6.1c-0.9-4.3-1.2-6.6-1.5-9.3c-0.1-1.4-0.3-2.8-0.4-4.7c-0.1-0.9-0.1-2-0.2-3.2c0-1.2,0-2.6-0.1-4.1
						l10.4,2.6c0,0.3-0.3,0.9-0.5,1.6c0.2-0.5,0.4-1.1,0.6-1.6l-10.7-2.6c-0.3,6.7-0.1,12.3,0.4,17.9c0.5,5.5,1.5,10.8,3.3,16.5
						c0.1-0.9-0.4-4,0.7-1.1c-0.1,1.3,0.7,4.1,1.3,6.4c0.7,2.3,1.2,4,0.5,3.3c1.4,3.6,2.4,3.9,3.2,6.1c1,4.1,2.2,8.2,3.4,12.3l0-0.4
						c3.9,7.7,7.1,15.1,10.3,22.4l1.2,2.7l0.6,1.4l0.3,0.7l0,0.1l0,0l0,0l0,0.1c0,0.3,0.1,0.5,0,0.7c-0.1,0.3-0.3,0.2-0.5,0
						c-0.1-0.1-0.2-0.2-0.2-0.2c0,0,0,0.1-0.1,0.1c0.1,0.2,0.2,0.4,0.3,0.6c-0.3-0.4-0.5-0.7-0.5-1c0,0.2,0.1,0.4,0,0.5
						c-0.1,0-0.1,0.1-0.2,0.1l0,0l0,0l-0.1,0c-0.1,0-0.2-0.1-0.3-0.1c-0.2,0-0.3,0-0.4,0l-6.2-3.2c-1-0.6-2.1-1-3.2-1.5l-3.2-1.5
						C644.9,183.7,645.4,184.8,648.7,185.8z M633.1,141.6c-0.2,1-0.3,2-0.4,3c0,0.6,0,1.2-0.2,1.9l0.2-1.9
						C632.8,143.1,632.6,141.9,633.1,141.6z M544.1,121.1c0.2-1.6,0.4,2.2,0.5,3.3l-0.5-5.3C543.9,118.4,544.1,120.3,544.1,121.1z
						 M627.7,141l-0.3-1.9l0.8-2.2C628,138.3,627.8,139.7,627.7,141z M641.2,104.9l0.5-3.8l1.1-8.2l-3.7,7.5l-0.3,0.6l0-0.4l0.1-0.2
						l4-8.1l-1.1,8.8c-0.2,1.4-0.4,2.8-0.5,4.1L641.2,104.9z M647.3,155.7c-0.1-0.3-0.1-0.5-0.2-0.9
						C647.1,155.1,647.2,155.4,647.3,155.7c0.9,3.5,2.3,4.4,2.5,7.5C647.6,160.2,647.7,157.7,647.3,155.7z M635.4,126.2
						c-0.5,1.4-0.7,2.1-0.9,3.2c0.5-0.7,1.7-3.4,1.3-1.3c-0.8,1.4-2,6.3-2.6,6.3C634.7,130.2,634,126.7,635.4,126.2z M608.2,96.9
						l0.3,1.1c-0.2-1.4-0.4-2.8-0.6-4.2C608.1,94.9,608.1,95.9,608.2,96.9z M604.5,77.6c0.2-2.4-1.1-8.3-1.7-12.4
						c-0.8-0.9-0.7,3.3,0.3,8.2C603.7,79.1,604.4,75.3,604.5,77.6z M637.8,110.6l0.4-1.2l0.1,1.1c0-1.5,0.1-3.1,0.2-4.6
						c0.3,3,0.3,5.6,0.2,7.9c0,1.1-0.1,2.2-0.1,3.1c0,0.9,0,1.8,0,2.6c-0.1-0.7-0.1-1.6-0.2-2.7c0-1.1,0-2.2,0-3.2
						C638.5,111.4,638.4,109.9,637.8,110.6z M598.5,43.6c-0.6,0.5-1.6,1.6-2.5,2.7c-0.9,1.1-1.8,2-1.8,1.5c0.2,0.6,0.9,0.1,1.6-0.6
						c0.7-0.7,1.3-1.5,1.6-2C597.8,44.5,598,44.1,598.5,43.6z M599.5,38.4c0.1-0.1,0.2-0.2,0.3-0.3l0.1-0.1c0-0.1,0,0.1,0,0.1l0,0.3
						c0,0.4,0,0.8,0.1,1.1c0,0.7,0.1,1.3,0.1,1.9c0,1.1,0,2,0,2.9c0,1.7-0.1,3.3-0.3,5.3c-0.2-0.8-0.3-1.5-0.4-2.3
						c0-0.7,0-1.5,0-2.2c0.1-1.4,0.4-2.7,0.6-3c-0.1-1.2-0.1-1.9-0.2-2.4c0-0.2-0.1-0.4-0.1-0.5c0-0.1,0-0.1-0.1-0.2
						c0,0,0-0.1-0.1,0c-0.3,0.8-0.6,1.5-1.1,2.5C598.8,40.5,599.1,39.5,599.5,38.4z M598.7,48.4l0.3,1c0.3,0.4,0.6,0.5,0.9,0.9
						c0.1,0.2,0.2,0.6,0.3,1c0,0.5,0,1.1-0.2,1.7l-1-3.7C598.8,49.2,598.7,48.9,598.7,48.4z M580.1,77.6l1.5-2
						C580.4,77.7,580.1,77.9,580.1,77.6l-1.2,1.7C581.1,74.3,580.1,76.9,580.1,77.6z M596.6,47.8l1-1.5l0.5-0.7l0.2-0.4l0.1-0.1
						c0,0,0,0.1,0,0.1l0,0.2c0-0.2,0-0.4,0.1-0.6c0-0.1,0-0.2,0-0.3c0,0,0,0-0.1,0c-0.1,0.1-0.3,0.4-0.5,0.8
						C597.4,46.1,596.9,47.1,596.6,47.8z M580.1,75.8c0.7-1.3,1.9-3.7,2.9-5.7c1-1.9,1.8-3.4,1.6-2.9
						C584.7,68,581.2,74.2,580.1,75.8z M543.2,105.2c0.3-1.5,0.6-3,0.8-4.5l0.3,2.3L543.2,105.2z M546.3,117.5l-0.5-1.1l-0.2-2.6
						L546.3,117.5z M555.3,126c0.1,0.3,0.3,0.2,0.6-0.1c0.3-0.7,0.6-1.3,0.8-1.5c-0.2,0.6-0.5,1.2-0.8,1.5c-0.8,1.8-1.7,4.6-1.8,5.9
						c0.3-0.3,0.6-1.2,0.9-2.1c0.4-0.9,0.8-1.9,1-2.4c-0.1,1.1-0.7,2.5-1.1,3.9c-0.5,1.4-1.1,2.9-1.5,4.2c-0.5,1.3-0.8,2.3-0.9,2.9
						c0,0.6,0.2,0.8,0.9,0.2c-0.6,1.7-2.5,7.9-2.5,5.6c0.6-2.5,1.2-6.1,2.2-9.5c0.4-1.7,0.8-3.4,1.2-4.9
						C554.7,128.3,555.1,127,555.3,126c0-0.3,0-0.7,0.3-1.5C555.6,124.8,555.4,125.4,555.3,126z M582.5,66.2
						c0.9-1.6,1.4-2.3,1.6-2.5c0.9-1.3,1.7-2.2,1.8-1.7c-2.1,3.2-1.1,0.9-1.8,1.7C583.6,64.5,583,65.4,582.5,66.2z M588.1,56l-3.4,5
						l1.9-2.4c-1.8,2.5-3.5,5-5.3,7.5C583.5,61.3,587.2,56.4,588.1,56z M588.8,54l1.1-0.8l-1.4,1.4L588.8,54l-0.3,0.2l2.8-4.4
						c1-1.6,2-3.2,3-4.7c-1,1.5-1.9,3-2.9,4.6L588.8,54z M616.8,118.6c1.4,1.6,1.1-0.7,0.6-3.6c-0.6-2.9-1.4-6.5-1.2-7.6
						c-0.7-0.2-2.7-3.7-0.1,5.9c-2.8-8.1-0.2-5.5-3-10.1c1.1,4,2,8.9,2.1,9.6l-1.3-4.7C613.3,111.1,616.2,115.2,616.8,118.6z
						 M629,157.5c-0.5-2.1-0.7-4.2-0.8-6.3c0.1,2,0.1,4,0.6,6L629,157.5z M669.8,195.2c0.2,0,1.6,1.9,3.2,4.4c1.6,2.5,3.3,5.4,3.3,6
						c-0.1,0-0.1,0-0.2,0c-0.2-0.1-0.3-0.2-0.5-0.4c0.1,0,0.2,0.1,0.2,0.1l-0.1-0.2C673.2,200.9,670.8,196.5,669.8,195.2z
						 M619.4,182.2l3.4,1c1.1,0.3,2.3,0.7,3.4,1.1c-0.8,0.3-2.3-0.2-4.1-0.7c-1.8-0.5-3.7-1.2-5.4-1.5
						C615.7,181.4,618.2,182.3,619.4,182.2z M573.2,176.8l-2.3-0.2l2.4,1L573.2,176.8z M576.3,178.1c-1.4,0.4,3.4,0.8,4.5,0.8
						C579.4,178.7,577.9,178.4,576.3,178.1z M534.9,181.8l2.9-0.5l-2.8-0.5L534.9,181.8z M539.5,180.1c0.4,0.3,0.5,0.6,1.4,0.8
						c0.9,0.1,2.5,0,5.9-0.6c0.2-0.7-1.6-0.5,0.8-1.6c-2.3,0.1-4.1,0.5-5.2,0.8c1.5-0.1,3.3-0.5,3.8-0.2
						C543.6,179.8,541,180.1,539.5,180.1c-0.3-0.2-0.7-0.3-1.6-0.3C537.9,180,538.5,180.1,539.5,180.1z M564.1,177.3
						c0.9-0.1,1.7-0.2,2-0.3l0.4,0.2C565.6,177.5,564.8,177.4,564.1,177.3c-1,0.1-2.1,0.2-3.3,0.4c-0.4,0.3,0.6,0.5,1.9,0.6
						c1.2,0.2,2.7,0.3,3.3,0.5c-1.1-0.1-2.2-0.2-3.3-0.3c-1.1-0.1-2.4-0.1-3.8,0.2c0.4,0.1,0,0.3,1.9,0.2l-4.1,0.3
						c-4.7-0.5-0.3-1.1,4.1-1.5c0.1-0.1,0.5-0.3,1.3-0.5C562.7,177.1,563.4,177.2,564.1,177.3z M531.2,179.3l2.2-0.2
						c1.2,0,0.5,0.4,0.9,0.5C531.8,180,528.3,180.2,531.2,179.3z M662.4,196.5c-0.6-0.2-0.1,0.3,1,1c1.1,0.7,2.8,1.7,4.2,2.4
						c-0.1,0.3-0.3,0.5-0.5,0.7c-0.8-1.2-7.2-4.1-7.9-4.6C658,194.6,660.6,196.2,662.4,196.5z M630.3,135.6
						c-0.6,0.5-1.2,2.9-1.6,5.4c-0.4,2.5-0.5,5.1-0.6,6.1c0-2.2,0.3-5.9,0.8-8.6C629.3,135.8,630,134.1,630.3,135.6z M629.2,150.2
						c0,1.1,0.1,1.9,0.1,2.3c0,0.4-0.1,0.5-0.4,0.4c-0.1,1.1,0.4,2.9,0.5,4c-0.2-0.5-0.3-1-0.4-1.4c-0.1-0.4-0.1-0.8-0.2-1.1
						c-0.1-0.6-0.1-1.1,0-1.5C628.9,152.1,629.1,151.5,629.2,150.2c0-0.6,0-1.3,0.1-2.1C629.2,149,629.2,149.7,629.2,150.2z
						 M644.9,141.3c0,1.1,0.1,2.2,0.2,3.2c0.5,1.6,1,3.1,1.6,4.6c-0.3-1.3-0.6-2.6-0.9-3.9C645.4,143.9,645.1,142.6,644.9,141.3z
						 M663.1,189.2c0.4-0.3,2.1,3.1,2.1,3.5c0.9,0.4-0.5-2-1.4-3.9c-0.1-0.2-0.2-0.7-0.6-1.3c0.1,0.4,0.3,0.8,0.6,1.3
						c0.2,0.7-0.4,0.2-0.6,0.2l-0.6-0.8l0.9,2L663.1,189.2z M601.8,175.3c-1.7,0-2.7-0.1-3.5-0.2c-0.8-0.1-1.5-0.3-2.6-0.5
						c0.4-0.1,1.3,0,2.5,0.1c0.6,0.1,1.2,0.1,1.8,0.2C600.6,175,601.3,175.2,601.8,175.3z M651.5,165.3c2.5,5.1-0.2-2.9,1.5,0.5
						l-1.2-2.7c2.4,4.2,0.7,3.4,2.2,6.5l-1-2c-1.2-1.4,1,3.4,0.8,3.9C652.4,169.1,650.5,163.2,651.5,165.3z M596.5,174.2
						c-5.7-0.1-4.6-1.1-8-1.5C593.1,172.6,592.3,173.6,596.5,174.2z M661.2,190.4l-0.2-0.2c-0.1,0.1-0.2,0.1-0.3,0.1l0.3,0.3
						C661.1,190.6,661.2,190.6,661.2,190.4z"/>
					<path class="st4" d="M589,179.5c-1.4,0-2.3-0.1-3-0.2C587,179.3,588,179.4,589,179.5z"/>
					<path class="st4" d="M633.8,161.2c-0.2-0.1-0.4-0.5-0.7-1.1C633.2,160.1,633.4,160.4,633.8,161.2z"/>
					<path class="st4" d="M630.6,150.8c0-0.1-0.1-0.3-0.1-0.4c0-0.1,0-0.2-0.1-0.3L630.6,150.8z"/>
					<path class="st4" d="M518.4,159.3c-1.9,1.5,1.2-1.9,2.2-3.5c-0.5,0.8-0.7,1.4-1,2C519.3,158.3,519,158.7,518.4,159.3z"/>
					<path class="st4" d="M527.1,147.4c-0.7,0.9-1.6,2.2-2.6,3.8C525.1,150.1,525.8,149,527.1,147.4z"/>
					<path class="st4" d="M520.7,157.5c0.7-1.3,1.4-2.4,2-3.5c0.6-1.1,1.2-2,1.8-2.9c-0.5,0.8-0.8,1.6-1.4,2.6
						C522.5,154.8,521.8,155.9,520.7,157.5z"/>
					<path class="st4" d="M540.9,110.2c-0.5,1.1-0.9,2.7-1.3,4.1c-0.3,1.4-0.6,2.4-0.6,2.4c2-9.5-1.3,1.7-1.9,2.3
						c0.4-1.4,0.8-2.5,1.1-3.3c0.3-0.8,0.6-1.5,0.8-2C539.7,112.6,540.2,111.8,540.9,110.2z"/>
					<path class="st4" d="M543.3,97.6c-0.1,1-0.2,1.9-0.3,2.7C543.1,99.3,543.2,98.4,543.3,97.6z"/>
					<path class="st4" d="M543.3,93.9c0.4-3.3,0.9-4.5,1.4-6c0.2,4.1-0.9,6.7-1.3,9.7C543.6,95.2,543.9,92.9,543.3,93.9z"/>
					<path class="st4" d="M556.8,112.4c-0.3,0.7-1,2.5-1.3,2.4c0.7-1.8,1.4-3.6,2.1-5.3C558.7,107.5,557.2,111.3,556.8,112.4z"/>
					<path class="st4" d="M566.6,93.8c2-4.1,0.3-2.2,1.5-4.2l0.7,0.7C568.1,91.4,567.3,92.6,566.6,93.8z"/>
					<path class="st4" d="M569.9,98.2l-0.6,1.2c0.2-0.4,0.4-0.9,0.7-1.4L569.9,98.2z"/>
					<path class="st4" d="M575.6,73.9c-0.8,0.7-1.6,1.5-2.4,2.3C575.2,72.9,576,73.3,575.6,73.9z"/>
					<path class="st4" d="M583.3,58.4l-1.6,2.2c1.4-2.4,2.9-4.7,4.4-7.1L583.3,58.4z"/>
					<path class="st4" d="M596.8,36.7l0.6-1.4l2.2-3.2l1.1-1.6l0.5-0.8l0.3-0.4l0.1-0.2c0,0,0-0.1,0.1-0.1l0,0.1c0,0,0-0.1,0-0.1
						l-0.1,0.1l-0.2,0.2l-0.3,0.5l-0.6,1l-1.2,1.9L596.8,36.7z"/>
					<path class="st4" d="M644.1,125.7c-0.4,0.5-0.9-1.5-1.4-3.9c-0.4-2.4-0.8-5.3-1-6.6C643,116.9,642.3,122.4,644.1,125.7z"/>
					<path class="st4" d="M596.8,179.8c2.8,0.3,5.6,0.9,8.4,1.4c-3.3-0.3-3.8-0.4-4.2-0.5C600.6,180.6,600.1,180.3,596.8,179.8z"/>
				</g>
			</g>
		</g>
	</g>
</g>
<path class="st4" d="M524.2,308.5"/>
<g>
	<path class="st5" d="M703.1,408.5c6.3-23.3-29-204.5-29-204.5s-75.6-51.3-180.8-13.4c0,0,0.4,0.4,1.1,1c-0.5,0.2-0.8,0.3-0.8,0.3
		c-22.8,19.2,4.5,261.4,4.5,261.4c15.9,24.7,44.5-46.7,44.5-46.7c-34-55.2-4.2-120.6-21.2-175.6c13.2,27.5,51.5,57.7,111.9,27.7
		c8.6,89.5,1.6,141.2,18.7,157.8C652,416.5,701.9,412.9,703.1,408.5z"/>
</g>
<path class="st6" d="M524.2,296c0,0,29.3-22.3,35.3-19.9s9.3,19.9,9.3,19.9S569.1,273.4,524.2,296z"/>
<path class="st6" d="M590.8,293.8c0,0-6.8-35.3,30.5,0C621.3,293.8,604.3,280.6,590.8,293.8z"/>
<path class="st6" d="M573.3,308.5c0,0-12,14.8-16,40.8c0,0-11.3,4.7-4.7,12c6.7,7.3,31.4-2.7,30.3-4.7c-0.7-1.4-17,7.1-19.7-6.7
	C562.1,343.4,573.3,308.5,573.3,308.5z"/>
<polygon class="st6" points="563.3,382.7 590.3,382.7 576.8,375.3 "/>
<polygon class="st6" points="568.9,390.7 576.8,390.7 572.8,397.3 "/>
<path class="st6" d="M590.3,315.3l15.5-6.8c0,0,8.8,14.7,12.2,0l12.7,3.5l-16-12.5L590.3,315.3z"/>
<path class="st6" d="M566.8,308.5l-16.2-8.9L528.7,312l17.9-3.5c0,0,3.5,13.2,10.8,0H566.8z"/>
<path class="st1" d="M223.3,284.7c0,0-45.3-43.3-87.3-6.8l19.3,4.5c0,0,30.7,28.8,49.3,2.2H223.3z"/>
<path class="st1" d="M259.3,282.1c0,0,37.3-35.6,73.3,0H310c0,0-12,27-32,0H259.3z"/>
<path class="st1" d="M243.3,282.7c0,0,64.7,16.7,67.3,37.3c2.7,20.7-72.7,5.3-72.7,5.3S385.3,342,243.3,282.7z"/>
<g>
	<polygon class="st1" points="254.1,240.6 259.4,259.6 323.4,237.6 330.8,248.6 322.8,227.1 	"/>
</g>
<g>
	<polygon class="st1" points="226.2,227.1 226.2,266.9 145.5,243.3 115.5,272.9 151.5,227.1 	"/>
</g>
</svg>
