<?xml version="1.0" encoding="utf-8"?>
<!-- Generator: Adobe Illustrator 22.1.0, SVG Export Plug-In . SVG Version: 6.00 Build 0)  -->
<svg version="1.1" id="Layer_1" xmlns="http://www.w3.org/2000/svg" xmlns:xlink="http://www.w3.org/1999/xlink" x="0px" y="0px"
	 viewBox="0 0 656.1 485.6" style="enable-background:new 0 0 656.1 485.6;" xml:space="preserve">
<style type="text/css">
	.st0{fill:none;}
	.st1{fill:none;stroke:#000000;stroke-width:3.5;stroke-linecap:round;stroke-dasharray:0,6.5;}
	.st2{fill:none;stroke:#000000;stroke-width:3.25;stroke-linecap:round;stroke-dasharray:0,6.5;}
	.st3{fill:none;stroke:#000000;stroke-width:3;stroke-linecap:round;stroke-dasharray:0,6.5;}
	.st4{fill:none;stroke:#000000;stroke-width:2.75;stroke-linecap:round;stroke-dasharray:0,6.5;}
	.st5{fill:none;stroke:#000000;stroke-width:2.5;stroke-linecap:round;stroke-dasharray:0,6.5;}
	.st6{fill:none;stroke:#000000;stroke-width:2.25;stroke-linecap:round;stroke-dasharray:0,6.5;}
	.st7{fill:none;stroke:#000000;stroke-width:2;stroke-linecap:round;stroke-dasharray:0,6.5;}
	.st8{fill:none;stroke:#000000;stroke-width:1.75;stroke-linecap:round;stroke-dasharray:0,6.5;}
	.st9{fill:none;stroke:#000000;stroke-width:1.499;stroke-linecap:round;stroke-dasharray:0,6.5;}
	.st10{fill:none;stroke:#000000;stroke-width:1.25;stroke-linecap:round;stroke-dasharray:0,6.5;}
	.st11{fill:#F6DEEC;}
	.st12{fill:#E5E9F0;}
	.st13{fill:#F8BDD7;}
	.st14{fill:#DCC228;}
	.st15{fill:#9C5BA4;}
	.st16{fill:#D9CBE0;}
	.st17{fill:url(#SVGID_3_);}
	.st18{fill:url(#SVGID_4_);}
</style>
<pattern  y="485.6" width="83" height="65" patternUnits="userSpaceOnUse" id="SVGID_1_" viewBox="1.7 -134.8 83 65" style="overflow:visible;">
	<g>
		<rect x="1.7" y="-134.8" class="st0" width="83" height="65"/>
		<g>
			<rect x="1.8" y="-134.8" class="st0" width="83" height="65"/>
			<g>
				<line class="st1" x1="84.8" y1="-134.8" x2="84.8" y2="-200.3"/>
			</g>
			<g>
				<line class="st1" x1="1.8" y1="-134.8" x2="1.8" y2="-200.3"/>
				<line class="st2" x1="6.4" y1="-131.6" x2="6.4" y2="-200.3"/>
				<line class="st3" x1="10.9" y1="-134.8" x2="10.9" y2="-200.3"/>
				<line class="st4" x1="15.6" y1="-131.6" x2="15.6" y2="-200.3"/>
				<line class="st5" x1="20.2" y1="-134.8" x2="20.2" y2="-200.3"/>
				<line class="st6" x1="24.8" y1="-131.6" x2="24.8" y2="-200.3"/>
				<line class="st7" x1="29.4" y1="-134.8" x2="29.4" y2="-200.3"/>
				<line class="st8" x1="34" y1="-131.6" x2="34" y2="-200.3"/>
				<line class="st9" x1="38.5" y1="-134.8" x2="38.5" y2="-200.3"/>
				<line class="st10" x1="43.3" y1="-131.6" x2="43.3" y2="-200.3"/>
				<line class="st1" x1="84.8" y1="-134.8" x2="84.8" y2="-200.3"/>
				<line class="st2" x1="80" y1="-131.6" x2="80" y2="-200.3"/>
				<line class="st3" x1="75.4" y1="-134.8" x2="75.4" y2="-200.3"/>
				<line class="st4" x1="70.8" y1="-131.6" x2="70.8" y2="-200.3"/>
				<line class="st5" x1="66.3" y1="-134.8" x2="66.3" y2="-200.3"/>
				<line class="st6" x1="61.7" y1="-131.6" x2="61.7" y2="-200.3"/>
				<line class="st7" x1="57" y1="-134.8" x2="57" y2="-200.3"/>
				<line class="st8" x1="52.5" y1="-131.6" x2="52.5" y2="-200.3"/>
				<line class="st9" x1="47.9" y1="-134.8" x2="47.9" y2="-200.3"/>
			</g>
			<g>
				<line class="st1" x1="1.8" y1="-134.8" x2="1.8" y2="-200.3"/>
			</g>
			<g>
				<line class="st1" x1="84.8" y1="-69.8" x2="84.8" y2="-135.3"/>
			</g>
			<g>
				<line class="st1" x1="1.8" y1="-69.8" x2="1.8" y2="-135.3"/>
				<line class="st2" x1="6.4" y1="-66.6" x2="6.4" y2="-135.3"/>
				<line class="st3" x1="10.9" y1="-69.8" x2="10.9" y2="-135.3"/>
				<line class="st4" x1="15.6" y1="-66.6" x2="15.6" y2="-135.3"/>
				<line class="st5" x1="20.2" y1="-69.8" x2="20.2" y2="-135.3"/>
				<line class="st6" x1="24.8" y1="-66.6" x2="24.8" y2="-135.3"/>
				<line class="st7" x1="29.4" y1="-69.8" x2="29.4" y2="-135.3"/>
				<line class="st8" x1="34" y1="-66.6" x2="34" y2="-135.3"/>
				<line class="st9" x1="38.5" y1="-69.8" x2="38.5" y2="-135.3"/>
				<line class="st10" x1="43.3" y1="-66.6" x2="43.3" y2="-135.3"/>
				<line class="st1" x1="84.8" y1="-69.8" x2="84.8" y2="-135.3"/>
				<line class="st2" x1="80" y1="-66.6" x2="80" y2="-135.3"/>
				<line class="st3" x1="75.4" y1="-69.8" x2="75.4" y2="-135.3"/>
				<line class="st4" x1="70.8" y1="-66.6" x2="70.8" y2="-135.3"/>
				<line class="st5" x1="66.3" y1="-69.8" x2="66.3" y2="-135.3"/>
				<line class="st6" x1="61.7" y1="-66.6" x2="61.7" y2="-135.3"/>
				<line class="st7" x1="57" y1="-69.8" x2="57" y2="-135.3"/>
				<line class="st8" x1="52.5" y1="-66.6" x2="52.5" y2="-135.3"/>
				<line class="st9" x1="47.9" y1="-69.8" x2="47.9" y2="-135.3"/>
			</g>
			<g>
				<line class="st1" x1="1.8" y1="-69.8" x2="1.8" y2="-135.3"/>
			</g>
			<g>
				<line class="st1" x1="84.8" y1="-4.8" x2="84.8" y2="-70.3"/>
			</g>
			<g>
				<line class="st1" x1="1.8" y1="-4.8" x2="1.8" y2="-70.3"/>
				<line class="st2" x1="6.4" y1="-1.6" x2="6.4" y2="-70.3"/>
				<line class="st3" x1="10.9" y1="-4.8" x2="10.9" y2="-70.3"/>
				<line class="st4" x1="15.6" y1="-1.6" x2="15.6" y2="-70.3"/>
				<line class="st5" x1="20.2" y1="-4.8" x2="20.2" y2="-70.3"/>
				<line class="st6" x1="24.8" y1="-1.6" x2="24.8" y2="-70.3"/>
				<line class="st7" x1="29.4" y1="-4.8" x2="29.4" y2="-70.3"/>
				<line class="st8" x1="34" y1="-1.6" x2="34" y2="-70.3"/>
				<line class="st9" x1="38.5" y1="-4.8" x2="38.5" y2="-70.3"/>
				<line class="st10" x1="43.3" y1="-1.6" x2="43.3" y2="-70.3"/>
				<line class="st1" x1="84.8" y1="-4.8" x2="84.8" y2="-70.3"/>
				<line class="st2" x1="80" y1="-1.6" x2="80" y2="-70.3"/>
				<line class="st3" x1="75.4" y1="-4.8" x2="75.4" y2="-70.3"/>
				<line class="st4" x1="70.8" y1="-1.6" x2="70.8" y2="-70.3"/>
				<line class="st5" x1="66.3" y1="-4.8" x2="66.3" y2="-70.3"/>
				<line class="st6" x1="61.7" y1="-1.6" x2="61.7" y2="-70.3"/>
				<line class="st7" x1="57" y1="-4.8" x2="57" y2="-70.3"/>
				<line class="st8" x1="52.5" y1="-1.6" x2="52.5" y2="-70.3"/>
				<line class="st9" x1="47.9" y1="-4.8" x2="47.9" y2="-70.3"/>
			</g>
			<g>
				<line class="st1" x1="1.8" y1="-4.8" x2="1.8" y2="-70.3"/>
			</g>
		</g>
	</g>
</pattern>
<pattern  y="485.6" width="28.8" height="28.8" patternUnits="userSpaceOnUse" id="SVGID_2_" viewBox="1.4 -30.2 28.8 28.8" style="overflow:visible;">
	<g>
		<rect x="1.4" y="-30.2" class="st0" width="28.8" height="28.8"/>
		<g>
			<rect x="1.4" y="-30.2" class="st0" width="28.8" height="28.8"/>
			<g>
				<path d="M30.2-31.6c0.8,0,1.4,0.6,1.4,1.4c0,0.8-0.6,1.4-1.4,1.4s-1.4-0.6-1.4-1.4C28.8-31,29.4-31.6,30.2-31.6z"/>
				<path d="M15.8-31.6c0.8,0,1.4,0.6,1.4,1.4c0,0.8-0.6,1.4-1.4,1.4c-0.8,0-1.4-0.6-1.4-1.4C14.4-31,15-31.6,15.8-31.6z"/>
				<path d="M30.2-17.2c0.8,0,1.4,0.6,1.4,1.4s-0.6,1.4-1.4,1.4s-1.4-0.6-1.4-1.4C28.8-16.6,29.4-17.2,30.2-17.2z"/>
				<path d="M15.8-17.2c0.8,0,1.4,0.6,1.4,1.4s-0.6,1.4-1.4,1.4c-0.8,0-1.4-0.6-1.4-1.4C14.4-16.6,15-17.2,15.8-17.2z"/>
				<path d="M8.6-24.4c0.8,0,1.4,0.6,1.4,1.4c0,0.8-0.6,1.4-1.4,1.4c-0.8,0-1.4-0.6-1.4-1.4C7.2-23.8,7.8-24.4,8.6-24.4z"/>
				<path d="M23-24.4c0.8,0,1.4,0.6,1.4,1.4c0,0.8-0.6,1.4-1.4,1.4s-1.4-0.6-1.4-1.4S22.2-24.4,23-24.4z"/>
				<path d="M8.6-10C9.4-10,10-9.4,10-8.6S9.4-7.2,8.6-7.2c-0.8,0-1.4-0.6-1.4-1.4C7.2-9.4,7.8-10,8.6-10z"/>
				<path d="M23-10c0.8,0,1.4,0.6,1.4,1.4S23.8-7.2,23-7.2s-1.4-0.6-1.4-1.4S22.2-10,23-10z"/>
			</g>
			<g>
				<path d="M1.4-31.6c0.8,0,1.4,0.6,1.4,1.4c0,0.8-0.6,1.4-1.4,1.4C0.6-28.7,0-29.4,0-30.2C0-31,0.6-31.6,1.4-31.6z"/>
				<path d="M1.4-17.2c0.8,0,1.4,0.6,1.4,1.4s-0.6,1.4-1.4,1.4S0-15,0-15.8S0.6-17.2,1.4-17.2z"/>
			</g>
			<g>
				<path d="M30.2-2.8c0.8,0,1.4,0.6,1.4,1.4S31,0,30.2,0s-1.4-0.6-1.4-1.4C28.8-2.2,29.4-2.8,30.2-2.8z"/>
				<path d="M15.8-2.8c0.8,0,1.4,0.6,1.4,1.4S16.6,0,15.8,0c-0.8,0-1.4-0.6-1.4-1.4C14.4-2.2,15-2.8,15.8-2.8z"/>
			</g>
			<g>
				<path d="M1.4-2.8c0.8,0,1.4,0.6,1.4,1.4S2.2,0,1.4,0C0.6,0.1,0-0.6,0-1.4C0-2.2,0.6-2.8,1.4-2.8z"/>
			</g>
		</g>
	</g>
</pattern>
<path class="st11" d="M44.7,183.8l91.1,211.4l149.5-10.1L304,165.6C304,165.6,162.7,113.2,44.7,183.8z"/>
<path class="st12" d="M452.8,162.3c0,0,62.4,531.5,173.4,16.4L452.8,162.3z"/>
<path class="st13" d="M279,360.5l-23.6-37.7l-85.4,5l-36.2,32.7l-53.2-88.8l95.4,214L282,465l13.6-197L279,360.5z M248.2,372.2
	c-17.1,5.6-78.6,22-63.6-24l63.6-7.3C248.2,340.8,265.3,366.6,248.2,372.2z"/>
<path class="st14" d="M0,107.8l44.7,76c0,0,118.1-65.4,259.3-18.2l20.1-78.9c0,0-87.4,50.3-122.1-9s26.1-57.3,26.1-57.3
	s-3-36.7-48.7-11.1c0,0-32.7-27.6-44.2,12.1c0,0,39.5-23.7,23.6,53.3S0,107.8,0,107.8z"/>
<path class="st14" d="M449,154.8c0,0,89.6-39.9,179.1,11.4c0,0-36.7-61.8-33.2-102c0,0-19.6,46.7-9,61.8c0,0-22.6-59.3-31.2-125.9
	c0,0-44,69.2-50.3,108.9c0,0-6-47.2-5.5-60.8C499,48.1,503.3,108,449,154.8z"/>
<path class="st14" d="M478.9,271.7"/>
<path class="st15" d="M655.3,391.8c6.3-23.3-26.6-224.7-26.6-224.7s-75.6-51.3-180.8-13.4c0,0,0.4,0.4,1.1,1
	c-0.5,0.2-0.8,0.3-0.8,0.3c-22.8,19.2,4,230.7,4,230.7c11.7,67.4,55.8,7.7,55.7,6.8c-18.3-50.3-51.3-133.3-31.8-210.2
	c13.2,27.5,67.3,46.5,111.7,39.6c8.6,89.5,0.2,171.4,17.4,187.9C605.3,409.8,654.2,396.2,655.3,391.8z"/>
<path class="st16" d="M478.9,259.2c0,0,29.3-22.3,35.3-19.9c6,2.5,9.3,19.9,9.3,19.9S523.8,236.6,478.9,259.2z"/>
<path class="st16" d="M545.5,257c0,0-6.8-35.3,30.5,0C576,257,558.9,243.7,545.5,257z"/>
<pattern  id="SVGID_3_" xlink:href="#SVGID_1_" patternTransform="matrix(1 0 0 -1 -151.2946 -17171.3496)">
</pattern>
<path class="st17" d="M655.3,391.8c0.8-80.7-27.8-224.7-27.8-224.7c-89-53.7-178.5-12.4-179.7-12.4c-0.5,0-0.8,0.3-0.8,0.3
	c-18.4,19.4,5.7,233.1,5.7,233.1c15.6,66.1,55.2,4.3,55.2,4.3c-19.3-46.7-56.9-160.9-31.8-211.8c13.2,27.5,66.1,48.1,110.6,41.2
	c11.1,90,1.4,171.4,18.6,187.9C605.3,409.8,655.3,396.3,655.3,391.8z"/>
<path class="st16" d="M528,271.7c0,0-12,14.8-16,40.8c0,0-11.3,4.7-4.7,12c6.7,7.3,31.4-2.7,30.3-4.7c-0.7-1.4-17,7.1-19.7-6.7
	C516.7,306.6,528,271.7,528,271.7z"/>
<polygon class="st16" points="518,345.8 545,345.8 531.5,338.5 "/>
<polygon class="st16" points="523.5,353.8 531.5,353.8 527.5,360.5 "/>
<path class="st16" d="M545,278.5l15.5-6.8c0,0,8.8,14.7,12.2,0l12.7,3.5l-16-12.5L545,278.5z"/>
<path class="st16" d="M521.5,271.7l-16.2-8.9l-21.9,12.5l17.9-3.5c0,0,3.5,13.2,10.8,0h9.4V271.7z"/>
<path class="st13" d="M178,247.9c0,0-45.3-43.3-87.3-6.8l19.3,4.5c0,0,30.7,28.8,49.3,2.2H178V247.9z"/>
<path class="st13" d="M214,245.2c0,0,37.3-35.6,73.3,0h-22.7c0,0-12,27-32,0H214z"/>
<path class="st13" d="M198,245.8c0,0,64.7,16.7,67.3,37.3c2.7,20.7-72.7,5.3-72.7,5.3S340,305.2,198,245.8z"/>
<pattern  id="SVGID_4_" xlink:href="#SVGID_2_" patternTransform="matrix(1 0 0 -1 -82.0486 -16826.9668)">
</pattern>
<path class="st18" d="M279,360.5l-23.6-37.7l-87.8,5l-33.9,32.7l-53.2-88.8l95.4,214L279.7,465l15.9-197L279,360.5z M178.8,350
	c0,0,74.8-27.1,81.2,5.8C263.8,375.8,190.7,407.5,178.8,350z"/>
<polygon class="st13" points="198,194.2 203.3,213.2 267.3,191.2 274.7,202.2 266.7,180.7 "/>
<polygon class="st13" points="182.3,180.7 182.3,220.5 101.6,196.9 71.6,226.5 107.6,180.7 "/>
</svg>
