<?xml version="1.0" encoding="utf-8"?>
<!-- Generator: Adobe Illustrator 22.1.0, SVG Export Plug-In . SVG Version: 6.00 Build 0)  -->
<svg version="1.1" id="Layer_1" xmlns="http://www.w3.org/2000/svg" xmlns:xlink="http://www.w3.org/1999/xlink" x="0px" y="0px"
	 viewBox="0 0 180.6 249.9" style="enable-background:new 0 0 180.6 249.9;" xml:space="preserve">
<style type="text/css">
	.st0{fill:#FFFBE5;}
	.st1{fill:#032437;}
</style>
<path class="st0" d="M23.2,183.9c0,0-83.9-184.4,67.3-183.9s66.3,183.9,66.3,183.9H23.2z"/>
<path class="st0" d="M36.3,206.5h14.6v9h21.6v-9h17.6v9h18.1v-9h15.1v9h10.6v-9h10.6C144.3,206.5,89.1,304,36.3,206.5z"/>
<path class="st1" d="M35,80.6c0,0,21.1-28.2,40.7,0S25.5,124.8,35,80.6z"/>
<path class="st1" d="M146.2,80.6c0,0-21.1-28.2-40.7,0S155.7,124.8,146.2,80.6z"/>
<polygon class="st1" points="96.5,122.1 96.5,141.7 106.9,141.7 "/>
<polygon class="st1" points="89.1,122.1 89.1,141.7 76.7,141.7 "/>
</svg>
