<?xml version="1.0" encoding="utf-8"?>
<!-- Generator: Adobe Illustrator 22.1.0, SVG Export Plug-In . SVG Version: 6.00 Build 0)  -->
<svg version="1.1" id="Layer_1" xmlns="http://www.w3.org/2000/svg" xmlns:xlink="http://www.w3.org/1999/xlink" x="0px" y="0px"
	 viewBox="0 0 792 612" style="enable-background:new 0 0 792 612;" xml:space="preserve">
<style type="text/css">
	.st0{fill:none;}
	.st1{fill:none;stroke:#000000;stroke-width:0.3;stroke-linecap:square;}
	.st2{fill:none;stroke:#000000;stroke-width:0.75;stroke-linecap:round;}
	.st3{fill:none;stroke:#000000;stroke-width:1.6;stroke-linecap:round;}
	.st4{fill:none;stroke:#000000;stroke-width:0.3;}
	.st5{fill:#8ED8F8;}
	.st6{fill:#A0B6DF;}
	.st7{fill:#D2DFF2;}
	.st8{fill:url(#Bird_Feet);}
	.st9{fill:url(#Capsules);}
	.st10{fill:url(#Crosses);}
</style>
<pattern  width="65.2" height="65.2" patternUnits="userSpaceOnUse" id="Bird_Feet" viewBox="4.7 -71 65.2 65.2" style="overflow:visible;">
	<g>
		<rect x="4.7" y="-71" class="st0" width="65.2" height="65.2"/>
		<g>
			<line class="st1" x1="72.3" y1="-9.4" x2="66.7" y2="-5.1"/>
			<line class="st1" x1="74.7" y1="-6.3" x2="69.2" y2="-2"/>
			<line class="st1" x1="51.9" y1="-8.5" x2="48.2" y2="-3"/>
			<line class="st1" x1="54.6" y1="-5.6" x2="49.5" y2="-0.8"/>
			<line class="st1" x1="57.8" y1="-6.5" x2="60.2" y2="-0.8"/>
			<line class="st1" x1="61" y1="-7.8" x2="63.7" y2="-1"/>
			<line class="st1" x1="32.7" y1="-7.3" x2="27" y2="-2.9"/>
			<line class="st1" x1="36.7" y1="-6.3" x2="30" y2="-0.2"/>
			<line class="st1" x1="14" y1="-6.5" x2="13.7" y2="-5"/>
			<line class="st1" x1="18.9" y1="-8.3" x2="23.2" y2="-2.5"/>
			<line class="st1" x1="21.8" y1="-11.2" x2="26" y2="-5.3"/>
			<line class="st1" x1="43.5" y1="-8.3" x2="44" y2="-1.8"/>
			<line class="st1" x1="40.7" y1="-9" x2="39.2" y2="-2.3"/>
		</g>
		<g>
			<line class="st1" x1="7" y1="-9.4" x2="1.5" y2="-5.1"/>
			<line class="st1" x1="9.5" y1="-6.3" x2="3.9" y2="-2"/>
		</g>
		<g>
			<line class="st1" x1="27.2" y1="-48" x2="24" y2="-41.8"/>
			<line class="st1" x1="41.1" y1="-27.6" x2="48.7" y2="-25.5"/>
			<line class="st1" x1="42.2" y1="-30.5" x2="50" y2="-29.3"/>
			<line class="st1" x1="34.7" y1="-10.3" x2="37.5" y2="-15.5"/>
			<line class="st1" x1="31.2" y1="-10.8" x2="34.2" y2="-16.5"/>
			<line class="st1" x1="50.7" y1="-15.5" x2="46" y2="-12"/>
			<line class="st1" x1="52" y1="-13" x2="48.2" y2="-9"/>
			<line class="st1" x1="54.6" y1="-24.7" x2="55.5" y2="-17.8"/>
			<line class="st1" x1="50.7" y1="-23.8" x2="52.2" y2="-17.3"/>
			<line class="st1" x1="18.9" y1="-8.3" x2="23.2" y2="-2.5"/>
			<line class="st1" x1="21.8" y1="-11.2" x2="26" y2="-5.3"/>
			<line class="st1" x1="25.2" y1="-22.4" x2="28.7" y2="-16.3"/>
			<line class="st1" x1="28.9" y1="-23.9" x2="31.6" y2="-17.4"/>
			<line class="st1" x1="37.7" y1="-26.5" x2="32.5" y2="-23.5"/>
			<line class="st1" x1="40.2" y1="-23.3" x2="34.5" y2="-21.3"/>
			<line class="st1" x1="51.9" y1="-8.5" x2="48.2" y2="-3"/>
			<line class="st1" x1="54.6" y1="-5.6" x2="49.5" y2="-0.8"/>
			<line class="st1" x1="57.8" y1="-6.5" x2="60.2" y2="-0.8"/>
			<line class="st1" x1="32.7" y1="-7.3" x2="27" y2="-2.9"/>
			<line class="st1" x1="36.7" y1="-6.3" x2="30" y2="-0.2"/>
			<line class="st1" x1="26.2" y1="-12.8" x2="26.7" y2="-11.5"/>
			<line class="st1" x1="42.5" y1="-10.8" x2="43.5" y2="-9.8"/>
			<line class="st1" x1="43.5" y1="-8.3" x2="44" y2="-1.8"/>
			<line class="st1" x1="40.7" y1="-9" x2="39.2" y2="-2.3"/>
			<line class="st1" x1="58" y1="-21" x2="59.2" y2="-21.5"/>
			<line class="st1" x1="37.2" y1="-20.5" x2="37.5" y2="-19"/>
			<line class="st1" x1="55.2" y1="-9" x2="56.5" y2="-9"/>
			<line class="st1" x1="38.5" y1="-11" x2="37.5" y2="-9.3"/>
			<line class="st1" x1="42.7" y1="-23.8" x2="44" y2="-24.3"/>
			<line class="st1" x1="44.9" y1="-15.5" x2="40.5" y2="-18.3"/>
			<line class="st1" x1="47.7" y1="-17.9" x2="41.3" y2="-20.9"/>
			<line class="st1" x1="40.2" y1="-15.3" x2="41.5" y2="-15"/>
			<line class="st1" x1="47" y1="-22" x2="48.2" y2="-21.8"/>
			<line class="st1" x1="23.3" y1="-16.8" x2="25" y2="-17.3"/>
			<line class="st1" x1="31.7" y1="-62.6" x2="31.8" y2="-55.6"/>
			<line class="st1" x1="35.7" y1="-62.6" x2="35" y2="-56"/>
			<line class="st1" x1="48.4" y1="-43.3" x2="54.8" y2="-40.6"/>
			<line class="st1" x1="49.9" y1="-47" x2="56.3" y2="-44.3"/>
			<line class="st1" x1="31.8" y1="-47.4" x2="36.6" y2="-51.1"/>
			<line class="st1" x1="28.8" y1="-49.4" x2="34.7" y2="-53.2"/>
			<line class="st1" x1="23.2" y1="-29.6" x2="16.4" y2="-27.9"/>
			<line class="st1" x1="24" y1="-26" x2="17.2" y2="-24.2"/>
			<line class="st1" x1="24.4" y1="-49.8" x2="21.2" y2="-43.6"/>
			<line class="st1" x1="13.4" y1="-61.1" x2="14.8" y2="-54.2"/>
			<line class="st1" x1="17.4" y1="-61.9" x2="18.7" y2="-55"/>
			<line class="st1" x1="5.3" y1="-64" x2="11.5" y2="-60.8"/>
			<line class="st1" x1="8.2" y1="-54.5" x2="7" y2="-48.5"/>
			<line class="st1" x1="12.3" y1="-54.6" x2="11" y2="-47.8"/>
			<line class="st1" x1="61.1" y1="-26.8" x2="63.5" y2="-19.3"/>
			<line class="st1" x1="65.2" y1="-26.8" x2="66" y2="-20.3"/>
			<line class="st1" x1="57.7" y1="-34.5" x2="53.7" y2="-28.8"/>
			<line class="st1" x1="60.5" y1="-33.2" x2="58.7" y2="-27.8"/>
			<line class="st1" x1="31.7" y1="-43.2" x2="32.5" y2="-36.3"/>
			<line class="st1" x1="34.6" y1="-44" x2="36.3" y2="-37.2"/>
			<line class="st1" x1="57.5" y1="-66.1" x2="51.2" y2="-63.2"/>
			<line class="st1" x1="59" y1="-63.3" x2="52.9" y2="-59.5"/>
			<line class="st1" x1="22.4" y1="-58.5" x2="24" y2="-52"/>
			<line class="st1" x1="24.4" y1="-60.8" x2="27.5" y2="-54.5"/>
			<line class="st1" x1="42.2" y1="-56.8" x2="38.7" y2="-50.5"/>
			<line class="st1" x1="44.8" y1="-55.6" x2="40.9" y2="-49.8"/>
			<line class="st1" x1="54.7" y1="-55.3" x2="48.5" y2="-52.8"/>
			<line class="st1" x1="55.2" y1="-50.8" x2="49" y2="-50.5"/>
			<line class="st1" x1="60.9" y1="-53.6" x2="59.2" y2="-47.3"/>
			<line class="st1" x1="63.7" y1="-51.1" x2="60.2" y2="-45"/>
			<line class="st1" x1="61.9" y1="-17.8" x2="55.5" y2="-14.9"/>
			<line class="st1" x1="63.5" y1="-14.2" x2="57.2" y2="-11.3"/>
			<line class="st1" x1="52" y1="-34" x2="47.7" y2="-38.8"/>
			<line class="st1" x1="49.2" y1="-33.3" x2="44.4" y2="-37.7"/>
			<line class="st1" x1="35.2" y1="-31.8" x2="39.2" y2="-36.8"/>
			<line class="st1" x1="37.6" y1="-28.6" x2="42" y2="-34.5"/>
			<line class="st1" x1="27.1" y1="-39.5" x2="20.2" y2="-40.2"/>
			<line class="st1" x1="26.2" y1="-36.3" x2="19.4" y2="-37.7"/>
			<line class="st1" x1="11.5" y1="-34.3" x2="17.1" y2="-30.1"/>
			<line class="st1" x1="13.9" y1="-37.5" x2="19.5" y2="-33.3"/>
			<line class="st1" x1="18.7" y1="-21.5" x2="18.1" y2="-14.5"/>
			<line class="st1" x1="22.5" y1="-21" x2="21.5" y2="-13.6"/>
			<line class="st1" x1="24.9" y1="-30.7" x2="29.8" y2="-25.7"/>
			<line class="st1" x1="27.7" y1="-33.5" x2="32.7" y2="-28.6"/>
			<line class="st1" x1="13.2" y1="-24.8" x2="8.6" y2="-20.5"/>
			<line class="st1" x1="15.5" y1="-22.3" x2="10" y2="-18"/>
			<line class="st1" x1="60.8" y1="-56.4" x2="67.8" y2="-57"/>
			<line class="st1" x1="61" y1="-59.8" x2="67.5" y2="-61"/>
			<line class="st1" x1="41" y1="-47.8" x2="41.7" y2="-40.8"/>
			<line class="st1" x1="45" y1="-47.8" x2="44.5" y2="-42.3"/>
			<line class="st1" x1="16.7" y1="-69.9" x2="13.8" y2="-64.9"/>
			<line class="st1" x1="11.2" y1="-38.8" x2="16.9" y2="-42.8"/>
			<line class="st1" x1="8.9" y1="-42.1" x2="14.6" y2="-46.1"/>
			<line class="st1" x1="8.8" y1="-12.8" x2="13.2" y2="-8.5"/>
			<line class="st1" x1="11.3" y1="-14.4" x2="15.2" y2="-11"/>
			<line class="st1" x1="65.5" y1="-48.8" x2="69.8" y2="-43.2"/>
			<line class="st1" x1="68.1" y1="-51" x2="72.4" y2="-45.5"/>
			<line class="st1" x1="63.2" y1="-42.4" x2="56.4" y2="-40.6"/>
			<line class="st1" x1="64.2" y1="-38.5" x2="57.4" y2="-36.7"/>
			<line class="st1" x1="20.5" y1="-51.5" x2="13.6" y2="-51.9"/>
			<line class="st1" x1="21" y1="-48.8" x2="14" y2="-48"/>
			<line class="st1" x1="65" y1="-15.3" x2="68.9" y2="-9.5"/>
			<line class="st1" x1="68.3" y1="-17.5" x2="72.2" y2="-11.8"/>
			<line class="st1" x1="68.5" y1="-40.3" x2="64.8" y2="-35.9"/>
			<line class="st1" x1="71.8" y1="-39.7" x2="68.1" y2="-33.8"/>
			<line class="st1" x1="72.3" y1="-9.4" x2="66.7" y2="-5.1"/>
			<line class="st1" x1="61" y1="-7.8" x2="63.7" y2="-1"/>
			<line class="st1" x1="68.7" y1="-60.5" x2="74.8" y2="-57.2"/>
			<line class="st1" x1="21.3" y1="-61.5" x2="25.7" y2="-64.3"/>
			<line class="st1" x1="18.5" y1="-63.9" x2="24.9" y2="-66.9"/>
			<line class="st1" x1="40.8" y1="-62.9" x2="45.6" y2="-58.1"/>
			<line class="st1" x1="44" y1="-65.3" x2="48.3" y2="-59.8"/>
			<line class="st1" x1="72.4" y1="-31.5" x2="67.2" y2="-29"/>
			<line class="st1" x1="75.3" y1="-28.9" x2="69.2" y2="-25.5"/>
			<line class="st1" x1="34.7" y1="-67.3" x2="36" y2="-67"/>
			<line class="st1" x1="34" y1="-64.3" x2="33.7" y2="-65"/>
			<line class="st1" x1="38.7" y1="-58.8" x2="39.5" y2="-59.3"/>
			<line class="st1" x1="49.7" y1="-61" x2="51" y2="-61"/>
			<line class="st1" x1="56.5" y1="-56.5" x2="57.2" y2="-55.8"/>
			<line class="st1" x1="65.5" y1="-53" x2="66.2" y2="-53.8"/>
			<line class="st1" x1="67" y1="-65.3" x2="66.5" y2="-64.3"/>
			<line class="st1" x1="10.7" y1="-57.5" x2="11.5" y2="-57"/>
			<line class="st1" x1="17" y1="-40.3" x2="17" y2="-39.5"/>
			<line class="st1" x1="10.2" y1="-36.3" x2="8.7" y2="-36.3"/>
			<line class="st1" x1="14.5" y1="-16.5" x2="15" y2="-17.8"/>
			<line class="st1" x1="23" y1="-33.3" x2="22.2" y2="-34.3"/>
			<line class="st1" x1="54" y1="-36.8" x2="54.7" y2="-37.5"/>
			<line class="st1" x1="44" y1="-34" x2="44.5" y2="-33"/>
			<line class="st1" x1="30.2" y1="-52.3" x2="31" y2="-53"/>
			<line class="st1" x1="28" y1="-43.3" x2="29.2" y2="-42.5"/>
			<line class="st1" x1="14" y1="-6.5" x2="13.7" y2="-5"/>
			<line class="st1" x1="43" y1="-37.3" x2="42.5" y2="-38.5"/>
			<line class="st1" x1="72.3" y1="-74.7" x2="66.7" y2="-70.4"/>
			<line class="st1" x1="74.7" y1="-71.5" x2="69.2" y2="-67.2"/>
			<line class="st1" x1="51.9" y1="-73.7" x2="48.2" y2="-68.3"/>
			<line class="st1" x1="54.6" y1="-70.8" x2="49.5" y2="-66"/>
			<line class="st1" x1="57.8" y1="-71.8" x2="60.2" y2="-66"/>
			<line class="st1" x1="61" y1="-73" x2="63.7" y2="-66.3"/>
			<line class="st1" x1="32.7" y1="-72.5" x2="27" y2="-68.1"/>
			<line class="st1" x1="36.7" y1="-71.5" x2="30" y2="-65.5"/>
			<line class="st1" x1="14" y1="-71.8" x2="13.7" y2="-70.3"/>
			<line class="st1" x1="18.9" y1="-73.6" x2="23.2" y2="-67.8"/>
			<line class="st1" x1="21.8" y1="-76.4" x2="26" y2="-70.6"/>
			<line class="st1" x1="63.2" y1="-11.5" x2="63.7" y2="-10.3"/>
			<line class="st1" x1="43.5" y1="-73.5" x2="44" y2="-67"/>
			<line class="st1" x1="40.7" y1="-74.3" x2="39.2" y2="-67.5"/>
			<line class="st1" x1="50.5" y1="-57.3" x2="51.2" y2="-56.5"/>
			<line class="st1" x1="37.5" y1="-45.5" x2="38.7" y2="-45.3"/>
			<line class="st1" x1="68.2" y1="-20" x2="69" y2="-20.8"/>
			<line class="st1" x1="13" y1="-69.3" x2="9.6" y2="-64.9"/>
			<line class="st1" x1="66.2" y1="-32.8" x2="67.5" y2="-32.5"/>
			<line class="st1" x1="28" y1="-61" x2="29" y2="-60.3"/>
			<line class="st1" x1="41" y1="-66.5" x2="41.2" y2="-65.3"/>
			<line class="st1" x1="15.7" y1="-62.5" x2="16.2" y2="-64"/>
			<line class="st2" x1="8" y1="-67.3" x2="8" y2="-67.3"/>
			<line class="st2" x1="11" y1="-64" x2="11" y2="-64"/>
			<line class="st2" x1="17.7" y1="-69.5" x2="17.7" y2="-69.5"/>
			<line class="st2" x1="28" y1="-62.5" x2="28" y2="-62.5"/>
			<line class="st2" x1="21.7" y1="-55.8" x2="21.7" y2="-55.8"/>
			<line class="st2" x1="19.2" y1="-46" x2="19.2" y2="-46"/>
			<line class="st2" x1="8.5" y1="-47" x2="8.5" y2="-47"/>
			<line class="st2" x1="25.2" y1="-35" x2="25.2" y2="-35"/>
			<line class="st2" x1="30.5" y1="-39.3" x2="30.5" y2="-39.3"/>
			<line class="st2" x1="38.2" y1="-47.8" x2="38.2" y2="-47.8"/>
			<line class="st2" x1="32.7" y1="-30.8" x2="32.7" y2="-30.8"/>
			<line class="st2" x1="37.5" y1="-28" x2="37.5" y2="-28"/>
			<line class="st2" x1="23.5" y1="-23.8" x2="23.5" y2="-23.8"/>
			<line class="st2" x1="46.7" y1="-46.3" x2="46.7" y2="-46.3"/>
			<line class="st2" x1="46.5" y1="-54.8" x2="46.5" y2="-54.8"/>
			<line class="st2" x1="63" y1="-63.5" x2="63" y2="-63.5"/>
			<line class="st2" x1="55" y1="-67" x2="55" y2="-67"/>
			<line class="st2" x1="65.7" y1="-43.8" x2="65.7" y2="-43.8"/>
			<line class="st2" x1="64.2" y1="-32.8" x2="64.2" y2="-32.8"/>
			<line class="st2" x1="58.7" y1="-26" x2="58.7" y2="-26"/>
			<line class="st2" x1="62.2" y1="-16" x2="62.2" y2="-16"/>
			<line class="st2" x1="54.7" y1="-11.3" x2="54.7" y2="-11.3"/>
			<line class="st2" x1="33.2" y1="-10" x2="33.2" y2="-10"/>
			<line class="st2" x1="44.2" y1="-7.5" x2="44.2" y2="-7.5"/>
			<line class="st2" x1="30" y1="-55.3" x2="30" y2="-55.3"/>
			<line class="st2" x1="15.5" y1="-8.3" x2="15.5" y2="-8.3"/>
			<line class="st2" x1="5.5" y1="-19.5" x2="5.5" y2="-19.5"/>
			<line class="st2" x1="8.5" y1="-26.8" x2="8.5" y2="-26.8"/>
			<line class="st2" x1="13.7" y1="-30.5" x2="13.7" y2="-30.5"/>
			<line class="st2" x1="14.5" y1="-26.8" x2="14.5" y2="-26.8"/>
			<line class="st2" x1="55.5" y1="-48.5" x2="55.5" y2="-48.5"/>
			<line class="st2" x1="52.7" y1="-38.8" x2="52.7" y2="-38.8"/>
			<line class="st2" x1="51" y1="-30.5" x2="51" y2="-30.5"/>
			<line class="st2" x1="32.5" y1="-46.3" x2="32.5" y2="-46.3"/>
			<line class="st2" x1="29" y1="-15.5" x2="29" y2="-15.5"/>
			<line class="st2" x1="29" y1="-7.5" x2="29" y2="-7.5"/>
			<line class="st2" x1="23.6" y1="-11.5" x2="23.6" y2="-11.5"/>
			<line class="st2" x1="31.3" y1="-34" x2="31.3" y2="-34"/>
			<line class="st2" x1="65.7" y1="-9" x2="65.7" y2="-9"/>
			<line class="st2" x1="9.2" y1="-15" x2="9.2" y2="-15"/>
			<line class="st2" x1="38.5" y1="-41.3" x2="38.5" y2="-41.3"/>
			<line class="st2" x1="38" y1="-56.3" x2="38" y2="-56.3"/>
			<line class="st2" x1="39.2" y1="-63" x2="39.2" y2="-63"/>
			<line class="st2" x1="54.5" y1="-15.3" x2="54.5" y2="-15.3"/>
			<line class="st2" x1="53.7" y1="-26.3" x2="53.7" y2="-26.3"/>
			<line class="st2" x1="67.5" y1="-23.8" x2="67.5" y2="-23.8"/>
			<line class="st2" x1="57" y1="-53.5" x2="57" y2="-53.5"/>
			<line class="st2" x1="57.7" y1="-51.8" x2="57.7" y2="-51.8"/>
			<line class="st2" x1="58" y1="-60.5" x2="58" y2="-60.5"/>
			<line class="st2" x1="44.7" y1="-51.3" x2="44.7" y2="-51.3"/>
			<line class="st2" x1="53.7" y1="-43.8" x2="53.7" y2="-43.8"/>
			<line class="st2" x1="64.2" y1="-47" x2="64.2" y2="-47"/>
			<line class="st2" x1="65.7" y1="-39.8" x2="65.7" y2="-39.8"/>
			<line class="st2" x1="5.7" y1="-54.8" x2="5.7" y2="-54.8"/>
		</g>
		<g>
			<line class="st1" x1="0.2" y1="-48.8" x2="4.5" y2="-43.2"/>
			<line class="st1" x1="2.9" y1="-51" x2="7.2" y2="-45.5"/>
			<line class="st1" x1="3" y1="-17.5" x2="7" y2="-11.8"/>
			<line class="st1" x1="6.6" y1="-39.7" x2="2.9" y2="-33.8"/>
			<line class="st1" x1="7" y1="-9.4" x2="1.5" y2="-5.1"/>
			<line class="st1" x1="3.4" y1="-60.5" x2="9.6" y2="-57.2"/>
			<line class="st1" x1="7.2" y1="-31.5" x2="2" y2="-29"/>
			<line class="st1" x1="10" y1="-28.9" x2="3.9" y2="-25.5"/>
			<line class="st1" x1="7" y1="-74.7" x2="1.5" y2="-70.4"/>
			<line class="st1" x1="9.5" y1="-71.5" x2="3.9" y2="-67.2"/>
		</g>
		<g>
			<line class="st1" x1="18.9" y1="-73.6" x2="23.2" y2="-67.8"/>
			<line class="st1" x1="21.8" y1="-76.4" x2="26" y2="-70.6"/>
			<line class="st1" x1="51.9" y1="-73.7" x2="48.2" y2="-68.3"/>
			<line class="st1" x1="54.6" y1="-70.8" x2="49.5" y2="-66"/>
			<line class="st1" x1="57.8" y1="-71.8" x2="60.2" y2="-66"/>
			<line class="st1" x1="32.7" y1="-72.5" x2="27" y2="-68.1"/>
			<line class="st1" x1="36.7" y1="-71.5" x2="30" y2="-65.5"/>
			<line class="st1" x1="43.5" y1="-73.5" x2="44" y2="-67"/>
			<line class="st1" x1="40.7" y1="-74.3" x2="39.2" y2="-67.5"/>
			<line class="st1" x1="72.3" y1="-74.7" x2="66.7" y2="-70.4"/>
			<line class="st1" x1="61" y1="-73" x2="63.7" y2="-66.3"/>
			<line class="st1" x1="14" y1="-71.8" x2="13.7" y2="-70.3"/>
		</g>
		<g>
			<line class="st1" x1="7" y1="-74.7" x2="1.5" y2="-70.4"/>
		</g>
	</g>
</pattern>
<pattern  width="57.6" height="57.6" patternUnits="userSpaceOnUse" id="Capsules" viewBox="4.2 -61.5 57.6 57.6" style="overflow:visible;">
	<g>
		<rect x="4.2" y="-61.5" class="st0" width="57.6" height="57.6"/>
		<g>
			<line class="st3" x1="62.3" y1="-47" x2="66.4" y2="-48"/>
		</g>
		<g>
			<line class="st3" x1="30" y1="-29.7" x2="27.8" y2="-26"/>
			<line class="st3" x1="27.4" y1="-36.6" x2="29.2" y2="-33.4"/>
			<line class="st3" x1="25.9" y1="-34.1" x2="26.2" y2="-29.3"/>
			<line class="st3" x1="35" y1="-17.4" x2="35.8" y2="-13.2"/>
			<line class="st3" x1="21.7" y1="-22.8" x2="20.9" y2="-18.6"/>
			<line class="st3" x1="14" y1="-22.3" x2="17.4" y2="-19.6"/>
			<line class="st3" x1="21.7" y1="-28.1" x2="25" y2="-25.4"/>
			<line class="st3" x1="25.9" y1="-18.1" x2="24.4" y2="-22.1"/>
			<line class="st3" x1="13.6" y1="-19.5" x2="9.4" y2="-15.9"/>
			<line class="st3" x1="19.3" y1="-30.2" x2="23.4" y2="-31.4"/>
			<line class="st3" x1="28" y1="-10.6" x2="31.4" y2="-13.1"/>
			<line class="st3" x1="19.3" y1="-8.7" x2="21.5" y2="-12.4"/>
			<line class="st3" x1="37.9" y1="-27.4" x2="39.6" y2="-23.4"/>
			<line class="st3" x1="45.9" y1="-36.6" x2="45.4" y2="-30.9"/>
			<line class="st3" x1="34.8" y1="-22.6" x2="32.6" y2="-18.9"/>
			<line class="st3" x1="43.9" y1="-22.8" x2="40.5" y2="-20.1"/>
			<line class="st3" x1="42.8" y1="-9.5" x2="46.1" y2="-6.8"/>
			<line class="st3" x1="41.1" y1="-29" x2="44.4" y2="-26.3"/>
			<line class="st3" x1="34.3" y1="-26.9" x2="35.8" y2="-30.9"/>
			<line class="st3" x1="38.5" y1="-31" x2="42.1" y2="-33.3"/>
			<line class="st3" x1="14.2" y1="-13.6" x2="16.7" y2="-17.1"/>
			<line class="st3" x1="45.2" y1="-41.1" x2="42.8" y2="-37.6"/>
			<line class="st3" x1="18.2" y1="-23.6" x2="16.5" y2="-28.9"/>
			<line class="st3" x1="17.3" y1="-44.4" x2="20.1" y2="-47.6"/>
			<line class="st3" x1="38.9" y1="-39.6" x2="38.4" y2="-34.1"/>
			<line class="st3" x1="25.7" y1="-38.1" x2="27.6" y2="-42.8"/>
			<line class="st3" x1="29.9" y1="-19.4" x2="28.5" y2="-15.4"/>
			<line class="st3" x1="35.9" y1="-19.9" x2="39.2" y2="-17.1"/>
			<line class="st3" x1="20.5" y1="-39.6" x2="23.2" y2="-34.9"/>
			<line class="st3" x1="29.3" y1="-6.4" x2="33" y2="-8.6"/>
			<line class="st3" x1="19.2" y1="-32.6" x2="15" y2="-33.7"/>
			<line class="st3" x1="18.6" y1="-41.2" x2="16.9" y2="-38.1"/>
			<line class="st3" x1="49.9" y1="-55.6" x2="50.2" y2="-50.5"/>
			<line class="st3" x1="34.6" y1="-58.1" x2="38" y2="-55.4"/>
			<line class="st3" x1="29.4" y1="-56.1" x2="25.1" y2="-53.2"/>
			<line class="st3" x1="17.9" y1="-59.2" x2="21.7" y2="-56.6"/>
			<line class="st3" x1="32" y1="-45" x2="34.2" y2="-41.3"/>
			<line class="st3" x1="34.2" y1="-52.4" x2="33.6" y2="-49"/>
			<line class="st3" x1="37.5" y1="-52.9" x2="41.4" y2="-51.1"/>
			<line class="st3" x1="29.7" y1="-51.7" x2="31.9" y2="-55.4"/>
			<line class="st3" x1="52.4" y1="-40.4" x2="48.6" y2="-37"/>
			<line class="st3" x1="21.9" y1="-41.9" x2="23.8" y2="-46.8"/>
			<line class="st3" x1="20.9" y1="-52.9" x2="23.9" y2="-49.9"/>
			<line class="st3" x1="46.4" y1="-56.8" x2="44.2" y2="-52.9"/>
			<line class="st3" x1="48.7" y1="-46.4" x2="48.8" y2="-42.1"/>
			<line class="st3" x1="44.8" y1="-49.1" x2="49.1" y2="-48.9"/>
			<line class="st3" x1="30" y1="-48.5" x2="26.7" y2="-45.8"/>
			<line class="st3" x1="49.4" y1="-30.8" x2="47.7" y2="-26.9"/>
			<line class="st3" x1="54.3" y1="-22.9" x2="55" y2="-18.7"/>
			<line class="st3" x1="54.9" y1="-27.9" x2="56.5" y2="-23.9"/>
			<line class="st3" x1="54.9" y1="-14.8" x2="51.6" y2="-12.1"/>
			<line class="st3" x1="56.8" y1="-11.3" x2="59" y2="-14.9"/>
			<line class="st3" x1="47.7" y1="-16.3" x2="48.7" y2="-11.1"/>
			<line class="st3" x1="58.8" y1="-38.2" x2="54.5" y2="-38.5"/>
			<line class="st3" x1="60.5" y1="-21.3" x2="57.3" y2="-18.6"/>
			<line class="st3" x1="51.8" y1="-25.1" x2="50" y2="-21.2"/>
			<line class="st3" x1="57.6" y1="-35.3" x2="60.8" y2="-32.4"/>
			<line class="st3" x1="11.9" y1="-56.1" x2="9.2" y2="-53.2"/>
			<line class="st3" x1="18.2" y1="-51.3" x2="14.9" y2="-48.6"/>
			<line class="st3" x1="15.4" y1="-59" x2="16.6" y2="-54.9"/>
			<line class="st3" x1="51.9" y1="-30.8" x2="56.2" y2="-30.3"/>
			<line class="st3" x1="10.9" y1="-13.7" x2="9.3" y2="-9.8"/>
			<line class="st3" x1="12.5" y1="-8.5" x2="9.2" y2="-5.8"/>
			<line class="st3" x1="10.3" y1="-31.6" x2="13.6" y2="-28.9"/>
			<line class="st3" x1="53.1" y1="-54.4" x2="56.8" y2="-56.6"/>
			<line class="st3" x1="54.4" y1="-51.9" x2="53" y2="-47.9"/>
			<line class="st3" x1="4.7" y1="-47" x2="8.8" y2="-48"/>
			<line class="st3" x1="6.7" y1="-32.6" x2="8.9" y2="-36.2"/>
			<line class="st3" x1="9.7" y1="-43.2" x2="6.5" y2="-40.4"/>
			<line class="st3" x1="11.5" y1="-46.6" x2="13.7" y2="-42.9"/>
			<line class="st3" x1="9.9" y1="-40.4" x2="12.7" y2="-35.9"/>
			<line class="st3" x1="8.2" y1="-29.1" x2="7.4" y2="-24.9"/>
			<line class="st3" x1="13.7" y1="-25.9" x2="9.7" y2="-22.8"/>
			<line class="st3" x1="15.6" y1="-11.6" x2="16" y2="-7.3"/>
			<line class="st3" x1="38.9" y1="-48.9" x2="35" y2="-45.6"/>
			<line class="st3" x1="41.6" y1="-48.2" x2="43.7" y2="-44.5"/>
			<line class="st3" x1="37.5" y1="-43.9" x2="41.3" y2="-42"/>
			<line class="st3" x1="32.6" y1="-24.7" x2="29.3" y2="-21.9"/>
			<line class="st3" x1="24.4" y1="-16.8" x2="20.4" y2="-15.2"/>
			<line class="st3" x1="24.2" y1="-11.4" x2="26.2" y2="-7.1"/>
			<line class="st3" x1="40.4" y1="-14.1" x2="44.4" y2="-12.7"/>
			<line class="st3" x1="41.2" y1="-58.4" x2="40.8" y2="-54"/>
			<line class="st3" x1="45" y1="-19.9" x2="44" y2="-15.7"/>
			<line class="st3" x1="40.4" y1="-11.8" x2="36.3" y2="-10.6"/>
			<line class="st3" x1="36.7" y1="-37.9" x2="32.8" y2="-33.8"/>
			<line class="st3" x1="54.1" y1="-10.2" x2="55.8" y2="-6.2"/>
			<line class="st3" x1="60.4" y1="-25" x2="63.7" y2="-22.3"/>
			<line class="st3" x1="61.1" y1="-15.3" x2="64.4" y2="-12.6"/>
			<line class="st3" x1="58.4" y1="-29.3" x2="62.5" y2="-30.5"/>
			<line class="st3" x1="60.6" y1="-40.1" x2="62.8" y2="-36.4"/>
			<line class="st3" x1="62.3" y1="-47" x2="66.4" y2="-48"/>
			<line class="st3" x1="63.2" y1="-9.9" x2="59.9" y2="-7.2"/>
			<line class="st3" x1="55.3" y1="-47" x2="57" y2="-43"/>
			<line class="st3" x1="64.5" y1="-18.6" x2="60.3" y2="-17.7"/>
			<line class="st3" x1="55.1" y1="-35.4" x2="49.9" y2="-34.1"/>
			<line class="st3" x1="10.3" y1="-50.3" x2="13.8" y2="-52.7"/>
			<line class="st3" x1="49.2" y1="-19.1" x2="52.2" y2="-16"/>
			<line class="st3" x1="57.3" y1="-52.8" x2="59.3" y2="-49.1"/>
			<line class="st3" x1="63.2" y1="-43.6" x2="59" y2="-43.9"/>
			<line class="st3" x1="30.5" y1="-41.7" x2="31.7" y2="-36.6"/>
			<line class="st3" x1="46.3" y1="-25.1" x2="47.2" y2="-20.9"/>
			<line class="st3" x1="51.4" y1="-43.5" x2="55.1" y2="-41.5"/>
			<line class="st3" x1="39.2" y1="-7.1" x2="36.2" y2="-8.1"/>
			<line class="st3" x1="24.8" y1="-59.7" x2="24.4" y2="-55.4"/>
			<line class="st3" x1="6.2" y1="-55.9" x2="7.2" y2="-50.6"/>
			<line class="st3" x1="60.4" y1="-53.4" x2="61.9" y2="-57.4"/>
			<line class="st3" x1="51.9" y1="-8.8" x2="50.2" y2="-4.9"/>
			<line class="st3" x1="48.5" y1="-1.7" x2="44.8" y2="-3.9"/>
			<line class="st3" x1="33.7" y1="-6.3" x2="31.9" y2="-0.8"/>
			<line class="st3" x1="25.7" y1="-5" x2="28.7" y2="-0.8"/>
			<line class="st3" x1="55.1" y1="-4.1" x2="51.8" y2="-1.4"/>
			<line class="st3" x1="12.7" y1="-5.7" x2="11.8" y2="-1.5"/>
			<line class="st3" x1="19.2" y1="-5.9" x2="15.9" y2="-3.5"/>
			<line class="st3" x1="5.8" y1="-6.1" x2="6.6" y2="-1.9"/>
			<line class="st3" x1="58.2" y1="-1.1" x2="60.4" y2="-4.8"/>
			<line class="st3" x1="38.2" y1="-0.8" x2="38.2" y2="-4.1"/>
			<line class="st3" x1="21.1" y1="-7.4" x2="21.8" y2="-3.1"/>
			<line class="st3" x1="41.3" y1="-5.7" x2="43.2" y2="-2.4"/>
		</g>
		<g>
			<line class="st3" x1="2.8" y1="-25" x2="6.1" y2="-22.3"/>
			<line class="st3" x1="3.5" y1="-15.3" x2="6.8" y2="-12.6"/>
			<line class="st3" x1="0.8" y1="-29.3" x2="4.9" y2="-30.5"/>
			<line class="st3" x1="3" y1="-40.1" x2="5.2" y2="-36.4"/>
			<line class="st3" x1="4.7" y1="-47" x2="8.8" y2="-48"/>
			<line class="st3" x1="5.6" y1="-9.9" x2="2.3" y2="-7.2"/>
			<line class="st3" x1="6.9" y1="-18.6" x2="2.7" y2="-17.7"/>
			<line class="st3" x1="5.6" y1="-43.6" x2="1.4" y2="-43.9"/>
			<line class="st3" x1="2.8" y1="-53.4" x2="4.3" y2="-57.4"/>
		</g>
		<g>
			<line class="st3" x1="48.5" y1="-59.3" x2="44.8" y2="-61.5"/>
			<line class="st3" x1="33.7" y1="-63.9" x2="31.9" y2="-58.4"/>
			<line class="st3" x1="25.7" y1="-62.7" x2="28.7" y2="-58.4"/>
			<line class="st3" x1="55.1" y1="-61.7" x2="51.8" y2="-59"/>
			<line class="st3" x1="12.7" y1="-63.3" x2="11.8" y2="-59.1"/>
			<line class="st3" x1="19.2" y1="-63.5" x2="15.9" y2="-61.2"/>
			<line class="st3" x1="5.8" y1="-63.7" x2="6.6" y2="-59.5"/>
			<line class="st3" x1="58.2" y1="-58.7" x2="60.4" y2="-62.4"/>
			<line class="st3" x1="38.2" y1="-58.4" x2="38.2" y2="-61.7"/>
			<line class="st3" x1="21.1" y1="-65" x2="21.8" y2="-60.8"/>
			<line class="st3" x1="41.3" y1="-63.3" x2="43.2" y2="-60"/>
		</g>
	</g>
</pattern>
<pattern  width="57.6" height="57.6" patternUnits="userSpaceOnUse" id="Crosses" viewBox="0 -57.6 57.6 57.6" style="overflow:visible;">
	<g>
		<rect y="-57.6" class="st0" width="57.6" height="57.6"/>
		<line class="st4" x1="52.5" y1="-54" x2="55.5" y2="-54"/>
		<line class="st4" x1="38.1" y1="-54" x2="41.1" y2="-54"/>
		<line class="st4" x1="23.7" y1="-54" x2="26.7" y2="-54"/>
		<line class="st4" x1="9.3" y1="-54" x2="12.3" y2="-54"/>
		<line class="st4" x1="45.3" y1="-46.8" x2="48.3" y2="-46.8"/>
		<line class="st4" x1="30.9" y1="-46.8" x2="33.9" y2="-46.8"/>
		<line class="st4" x1="16.5" y1="-46.8" x2="19.5" y2="-46.8"/>
		<line class="st4" x1="2.1" y1="-46.8" x2="5.1" y2="-46.8"/>
		<line class="st4" x1="52.5" y1="-39.6" x2="55.5" y2="-39.6"/>
		<line class="st4" x1="38.1" y1="-39.6" x2="41.1" y2="-39.6"/>
		<line class="st4" x1="23.7" y1="-39.6" x2="26.7" y2="-39.6"/>
		<line class="st4" x1="9.3" y1="-39.6" x2="12.3" y2="-39.6"/>
		<line class="st4" x1="45.3" y1="-32.4" x2="48.3" y2="-32.4"/>
		<line class="st4" x1="30.9" y1="-32.4" x2="33.9" y2="-32.4"/>
		<line class="st4" x1="16.5" y1="-32.4" x2="19.5" y2="-32.4"/>
		<line class="st4" x1="2.1" y1="-32.4" x2="5.1" y2="-32.4"/>
		<line class="st4" x1="52.5" y1="-25.2" x2="55.5" y2="-25.2"/>
		<line class="st4" x1="38.1" y1="-25.2" x2="41.1" y2="-25.2"/>
		<line class="st4" x1="23.7" y1="-25.2" x2="26.7" y2="-25.2"/>
		<line class="st4" x1="9.3" y1="-25.2" x2="12.3" y2="-25.2"/>
		<line class="st4" x1="45.3" y1="-18" x2="48.3" y2="-18"/>
		<line class="st4" x1="30.9" y1="-18" x2="33.9" y2="-18"/>
		<line class="st4" x1="16.5" y1="-18" x2="19.5" y2="-18"/>
		<line class="st4" x1="2.1" y1="-18" x2="5.1" y2="-18"/>
		<line class="st4" x1="52.5" y1="-10.8" x2="55.5" y2="-10.8"/>
		<line class="st4" x1="38.1" y1="-10.8" x2="41.1" y2="-10.8"/>
		<line class="st4" x1="23.7" y1="-10.8" x2="26.7" y2="-10.8"/>
		<line class="st4" x1="9.3" y1="-10.8" x2="12.3" y2="-10.8"/>
		<line class="st4" x1="45.3" y1="-3.6" x2="48.3" y2="-3.6"/>
		<line class="st4" x1="30.9" y1="-3.6" x2="33.9" y2="-3.6"/>
		<line class="st4" x1="16.5" y1="-3.6" x2="19.5" y2="-3.6"/>
		<line class="st4" x1="2.1" y1="-3.6" x2="5.1" y2="-3.6"/>
		<line class="st4" x1="54" y1="-55.5" x2="54" y2="-52.5"/>
		<line class="st4" x1="39.6" y1="-55.5" x2="39.6" y2="-52.5"/>
		<line class="st4" x1="25.2" y1="-55.5" x2="25.2" y2="-52.5"/>
		<line class="st4" x1="10.8" y1="-55.5" x2="10.8" y2="-52.5"/>
		<line class="st4" x1="46.8" y1="-48.3" x2="46.8" y2="-45.3"/>
		<line class="st4" x1="32.4" y1="-48.3" x2="32.4" y2="-45.3"/>
		<line class="st4" x1="18" y1="-48.3" x2="18" y2="-45.3"/>
		<line class="st4" x1="3.6" y1="-48.3" x2="3.6" y2="-45.3"/>
		<line class="st4" x1="54" y1="-41.1" x2="54" y2="-38.1"/>
		<line class="st4" x1="39.6" y1="-41.1" x2="39.6" y2="-38.1"/>
		<line class="st4" x1="25.2" y1="-41.1" x2="25.2" y2="-38.1"/>
		<line class="st4" x1="10.8" y1="-41.1" x2="10.8" y2="-38.1"/>
		<line class="st4" x1="46.8" y1="-33.9" x2="46.8" y2="-30.9"/>
		<line class="st4" x1="32.4" y1="-33.9" x2="32.4" y2="-30.9"/>
		<line class="st4" x1="18" y1="-33.9" x2="18" y2="-30.9"/>
		<line class="st4" x1="3.6" y1="-33.9" x2="3.6" y2="-30.9"/>
		<line class="st4" x1="54" y1="-26.7" x2="54" y2="-23.7"/>
		<line class="st4" x1="39.6" y1="-26.7" x2="39.6" y2="-23.7"/>
		<line class="st4" x1="25.2" y1="-26.7" x2="25.2" y2="-23.7"/>
		<line class="st4" x1="10.8" y1="-26.7" x2="10.8" y2="-23.7"/>
		<line class="st4" x1="46.8" y1="-19.5" x2="46.8" y2="-16.5"/>
		<line class="st4" x1="32.4" y1="-19.5" x2="32.4" y2="-16.5"/>
		<line class="st4" x1="18" y1="-19.5" x2="18" y2="-16.5"/>
		<line class="st4" x1="3.6" y1="-19.5" x2="3.6" y2="-16.5"/>
		<line class="st4" x1="54" y1="-12.3" x2="54" y2="-9.3"/>
		<line class="st4" x1="39.6" y1="-12.3" x2="39.6" y2="-9.3"/>
		<line class="st4" x1="25.2" y1="-12.3" x2="25.2" y2="-9.3"/>
		<line class="st4" x1="10.8" y1="-12.3" x2="10.8" y2="-9.3"/>
		<line class="st4" x1="46.8" y1="-5.1" x2="46.8" y2="-2.1"/>
		<line class="st4" x1="32.4" y1="-5.1" x2="32.4" y2="-2.1"/>
		<line class="st4" x1="18" y1="-5.1" x2="18" y2="-2.1"/>
		<line class="st4" x1="3.6" y1="-5.1" x2="3.6" y2="-2.1"/>
	</g>
</pattern>
<polygon class="st5" points="109.4,153.4 265.2,104.1 180.8,319.2 325,253.4 337.1,377 74.3,442.8 196.9,192.6 96.9,204.1 "/>
<polygon class="st6" points="376.3,109.6 498.9,96.1 410.9,273.5 513.5,252.4 490.8,337.8 357.2,341.3 429,148.8 344.6,169.9 "/>
<polygon class="st7" points="577.8,117.7 669.2,104.1 598.9,265.9 690.8,234.3 683.8,306 550.6,310.1 622.5,146.5 559.2,159.4 "/>
<polygon class="st8" points="109.4,153.4 265.2,104.1 180.8,319.2 325,253.4 337.1,377 74.3,442.8 196.9,192.6 96.9,204.1 "/>
<polygon class="st9" points="376.3,109.6 498.9,96.1 410.9,273.5 513.5,252.4 490.8,337.8 357.2,341.3 429,148.8 344.6,169.9 "/>
<polygon class="st10" points="577.8,117.7 669.2,104.1 598.9,265.9 690.8,234.3 683.8,306 550.6,310.1 622.5,146.5 559.2,159.4 "/>
</svg>
