<?xml version="1.0" encoding="utf-8"?>
<!-- Generator: Adobe Illustrator 22.1.0, SVG Export Plug-In . SVG Version: 6.00 Build 0)  -->
<svg version="1.1" xmlns="http://www.w3.org/2000/svg" xmlns:xlink="http://www.w3.org/1999/xlink" x="0px" y="0px"
	 viewBox="0 0 330.8 329.3" style="enable-background:new 0 0 330.8 329.3;" xml:space="preserve">
<style type="text/css">
	.st0{fill:#9D7D56;}
</style>
<g id="wheel">
	<path id="Wheel_spokes" class="st0" d="M322.8,112C299.6,41.6,231.4-1.4,161.5,0C90,1.5,25.8,49.3,6.2,114.7
		c-28.6,95,46.5,195,132.7,212c61.8,12.2,111.5-21.9,120-28C312,260.8,347.3,186.2,322.8,112z M298.1,98.6l-122.1,69.6l91.3-107.7
		C267.2,60.4,289.3,67.3,298.1,98.6z M190.8,25.1c0,0,22.4-5.7,46.2,16.5l-67.9,123.1L190.8,25.1z M159.2,18v140.6L110.7,25.9
		C110.7,25.9,127.6,10.2,159.2,18z M88.6,40l57.7,128.1L47.6,67.1C47.6,67.1,56.6,45.8,88.6,40z M31.6,100.9L147.8,180L10.9,145.3
		C10.9,145.3,7.3,122.5,31.6,100.9z M24.3,169.7l122,18.7L24.7,212.8C24.7,212.8,13.3,196.1,24.3,169.7z M49.3,238.3l103.1-44.7
		l-81.9,77.7C70.5,271.3,53.6,264,49.3,238.3z M127.6,308c0,0-18.3,2.6-35.3-17.1l64.6-92L127.6,308z M152.1,316.4l12.2-111.7
		l27,109.6C191.2,314.3,176.5,325.4,152.1,316.4z M210.1,305l-34.8-106.8l69.7,88.8C244.9,287,236,303.2,210.1,305z M283.7,260.8
		l-102.4-69.6L302,221.7C302,221.7,305.1,241.8,283.7,260.8z M316.1,177.1l-140.5,4.5l131-52.7C306.7,128.9,323,145.3,316.1,177.1z"
		/>
</g>
<g id="Spindle">
</g>
</svg>
